<?xml version="1.0" encoding="UTF-8"?>
<svg id="Livello_1" data-name="Livello 1" xmlns="http://www.w3.org/2000/svg" viewBox="0 0 489 489">
  <defs>
    <style>
      .cls-1 {
        fill: #fff;
        stroke-width: 0px;
      }
    </style>
  </defs>
  <path class="cls-1" d="M294.69,328.58c-.81-.07-1.63-.15-2.44-.2-.23-.02-.49,0-.71.08-1.26.49-2.58.57-3.9.62-.2,0-.4.09-.6.11-.64.07-1.28.2-1.91.19-.9-.02-1.8-.17-2.71-.2-.29-.01-.61.08-.86.23-.82.5-1.64.56-2.53.18-.58-.25-1.19-.49-1.81-.61-.98-.2-1.48-1.01-2.18-1.55-.22-.17-.28-.53-.43-.8-.36-.68-.73-1.35-1.09-2.03-.07.02-.14.04-.21.07.04-.47.07-.94.12-1.41.04-.37.12-.73.13-1.09.02-1.25.58-1.93,1.84-2.27.25-.07.44-.36.65-.55.04-.04.04-.13.06-.19.24-.78.49-1.55.73-2.31-.69-.97-.89-.92-2.11-.63-.93.22-1.9.55-2.9.22-.97-.32-1.91-.3-2.86.2-.88.46-1.85.37-2.81.23-.27-.04-.64-.19-.78-.08-.69.57-1.56.37-2.32.63-.43.15-.85.01-1.32-.12-.81-.23-1.73-.09-2.6-.03-1.02.08-1.96.54-3.03.5-.91-.04-1.83.21-2.74.22-1.23.01-2.44.3-3.68.18-.61-.06-1.25.02-1.84.38-.31.19-.78.15-1.17.13-.3-.02-.59-.16-.88-.12-.45.06-.9.2-1.35.17-.85-.06-1.63.07-2.12.41-1.37.12-2.51.2-3.65.31-.49.05-1.02,0-1.44.37-.11.1-.32.13-.48.14-1.79.15-3.58.29-5.37.44-.2.02-.42.02-.59.11-.77.42-1.64.33-2.44.54-.9.24-1.85.1-2.71.5-.09.04-.2.05-.3.04-1.77-.25-3.37.59-5.06.8-.87.11-1.74.18-2.62.27l-.04-.05.05.04c-.99.19-1.99.39-2.98.58-.23.05-.5.05-.68.18-.6.41-1.23.51-1.95.39-.31-.05-.66.12-.98.22-.96.3-1.82.8-2.86.94-.81.11-1.58.58-2.46.43-.06-.01-.14.02-.19.06-.91.7-2.01.73-3.08.88-.68.1-1.32.49-2,.65-1.05.25-2.13.4-3.19.61-.59.12-1.18.3-1.77.43-.23.05-.47.02-.7.04-.78.06-1.54.08-2.26.51-.42.25-.96.3-1.46.4-.63.12-1.27.21-1.9.31-.1.02-.22.06-.3.03-1.17-.46-2.18.22-3.26.44-.43.09-.86.27-1.29.26-2.02-.03-3.94.53-5.87,1.01-.52.13-1.09.25-1.6.15-.59-.11-1.09.05-1.58.24-1.4.54-1.4.56-2.74.29.07.11.1.17.14.22.07.07.15.12.26.2-.89.13-1.76.19-2.59.38-1.05.24-2.08.59-3.13.88-.29.08-.61.11-.91.1-.97-.03-1.83.31-2.71.68-.67.29-1.45.34-2.17.52-.52.13-1.04.3-1.55.48-.69.25-1.38.41-2.11.54-1.19.2-2.33.72-3.5,1.04-.77.21-1.57.38-2.37.46-2.16.23-4.31.43-6.38,1.21-.61.23-1.33.15-1.99.27-2.06.38-4.12.79-6.18,1.18-.07.01-.13.07-.19.07-1.66-.2-3.19.53-4.79.77-1.58.24-3.16.41-4.74.65-.97.15-1.94.28-2.92.37-.99.09-1.97.42-2.95.61-.31.06-.63.04-.94.08-.44.06-.88.16-1.33.18-.51.02-1.03-.13-1.52-.05-.86.13-1.64.08-2.49-.23-.66-.24-1.46-.1-2.2-.09-1.46.01-2.93.13-4.39.04-1.23-.07-2.47-.28-3.66-.6-1.3-.35-2.66-.53-3.85-1.23-.12-.07-.25-.19-.36-.17-1,.16-1.79-.52-2.72-.67-.74-.12-.76-.17-1.2-.73-1.44-.55-2.91-.58-4.08-1.49l.05-.04s-.03.05-.03.05c-.63-.22-1.26-.44-1.89-.67-.22-.08-.43-.19-.61-.33-1.21-.92-2.37-1.88-3.75-2.59-1.53-.79-2.65-2.15-3.81-3.44-1.06-1.17-1.89-2.57-3.22-3.49-.22-.15-.45-.3-.59-.51-.42-.6-.84-1.21-1.25-1.81-.29-.42-.63-.82-.84-1.27-.79-1.68-1.54-3.38-2.28-5.08-.32-.74-.56-1.53-.88-2.27-.11-.27-.37-.48-.51-.74-.51-.92-.65-1.98-.56-2.97.08-.88-.05-1.7-.19-2.53-.27-1.68-.47-3.35-.45-5.06,0-.8-.33-1.59-.34-2.39-.01-.76.18-1.52.3-2.28.05-.33.2-.64.23-.97.08-.71.09-1.42.16-2.13.06-.64.12-1.29.24-1.92.16-.8.43-1.57.56-2.37.18-1.07.17-2.17.41-3.21.53-2.36.59-4.78,1.05-7.14.11-.59.41-1.15.67-1.7.58-1.22,1.2-2.42,1.79-3.64.1-.21.17-.46.16-.69-.04-1.13.45-2.09.89-3.09.9-2.05,1.65-4.16,2.58-6.2.49-1.09,1.03-2.18,1.88-3.08.42-.45.56-1.16.93-1.68.62-.88,1.14-1.82,1.71-2.72.61-.97,1.1-1.97,1.59-2.99.01-.03.03-.06.05-.09.71-1.03,1.37-2.1,2.14-3.08.88-1.14,1.85-2.21,2.8-3.3.36-.41.75-.78,1.15-1.15.66-.62,1.25-1.28,2.08-1.72.46-.24.77-.8,1.12-1.23,1.16-1.45,2.62-2.6,4-3.82,1.12-.99,2.15-2.09,3.34-2.97.92-.68,1.59-1.63,2.68-2.14.89-.42,1.63-1.2,2.38-1.89,1.98-1.84,4.08-3.52,6.27-5.11.9-.65,1.82-1.11,2.82-1.52.78-.31,1.45-.87,2.2-1.26,1.2-.61,2.43-1.17,3.63-1.76.3-.15.59-.34.84-.56.31-.28.61-.47,1.06-.53.38-.05.77-.28,1.07-.54.77-.66,1.5-1.45,2.45-1.72,1.3-.36,2.18-1.32,3.32-1.91,1.07-.56,2-1.39,2.88-2.02.61-.1,1.09-.18,1.52-.24.17-.52.31-.92.46-1.36-.31-1.14-.05-2.31.14-3.48.1-.64.19-1.28.3-1.91.33-1.95,1.23-3.46,3.18-4.19.34-.13.64-.37.97-.55.55-.31,1.09-.62,1.7-.87.76-.81.85-1.73.57-2.85-.26-1.02-.15-2.14-.25-3.22-.12-1.39-.11-2.82-.48-4.15-.33-1.18-.04-2.34-.27-3.49-.03-.13-.01-.29.05-.4.52-1.02-.15-1.8-.51-2.68.34-1.19.3-2.46.06-3.69-.36-1.79-.88-3.55-1.34-5.32-.05-.2-.12-.41-.24-.56-.45-.53-.62-1.11-.45-1.79.03-.12,0-.28-.05-.39-.59-1.26-.73-2.63-.81-3.98-.1-1.76,0-3.53.01-5.3,0-.23.02-.48-.04-.7-.71-2.93-.77-5.9-.47-8.88.04-.37.06-.75.04-1.12-.07-.99.39-1.85.64-2.76.13-.45.43-.73.93-.84.43-.09.87-.24,1.24-.47,1.16-.71,2.52-.81,3.78-1.18,1.09-.32,2.29-.26,3.45-.36.27-.02.57.04.81-.05,1.32-.49,2.7-.22,4.05-.36,2.19-.23,4.43.15,6.58-.42,1.2-.32,2.43-.43,3.61-.85,1.2-.42,1.6-1.3,1.87-2.33.26-.98.37-2.01.66-2.98.38-1.23.88-2.42,1.32-3.63.42-1.16,1.26-1.95,2.2-2.68.59-.45,1.15-.95,1.76-1.38,1.43-1.01,3.12-1.09,4.77-1.3.84-.11,1.67-.31,2.51-.46.35-.07.72-.08,1.06-.19.41-.14.87-.27,1.16-.56.78-.78,1.2-1.73.98-2.87-.08-.4-.15-.81-.26-1.2-.36-1.28-.05-2.46.36-3.68.37-1.11,1.08-1.8,2.01-2.4.75-.49,1.48-.91,2.39-1.08.76-.14,1.47-.51,2.23-.65.62-.12,1.28-.06,1.92-.06,1.43,0,2.87.04,4.3.05.7,0,1.33.08,1.89.6.28.26.72.38,1.1.51.94.3,1.89.57,2.86.87-.02.06-.09.23-.07.24,1.61,1.01,1.86,2.68,2.03,4.35.1,1.01.02,2.03-.03,3.05-.03.76.32,1.23.97,1.52.18.08.39.16.58.15,1.52-.11,3.04-.23,4.55-.36.78-.07,1.56-.17,2.34-.22.61-.04,1.18-.11,1.78-.33.91-.35,1.9-.6,2.87-.64,1.25-.06,2.37-.57,3.56-.8.96-.18,1.89-.42,2.89,0,.42.17.99,0,1.49-.03,1.22-.08,2.43-.22,3.65-.25,1.04-.02,2.08.08,3.11.12.23,0,.47,0,.69-.03,1.01-.15,2.01-.38,3.02-.47,1.59-.13,3.17-.25,4.73-.69,1.02-.29,2.15-.17,3.24-.17.66,0,1.29,0,1.86-.42.18-.13.44-.17.67-.21,1.57-.29,3.15-.55,4.72-.85.43-.08.83-.31,1.26-.37.52-.08,1.06-.09,1.59-.08.3,0,.6.1.92.16.49-.6,1.16-.65,1.85-.62.95.04,1.89.27,2.84-.02.32-.1.65-.18.99-.24.73-.13,1.46-.26,2.2-.35.94-.12,1.89-.22,2.83-.28,1.02-.06,2.04-.14,3.05-.09,1.43.07,2.84.16,4.31-.36.38-.68.57-1.46.53-2.35-.06-1.39-.02-2.79,0-4.18,0-.2.03-.44.14-.58,1.3-1.52,2.76-2.72,4.93-2.6.17,0,.34.04.5,0,1.04-.27,2.08-.55,3.12-.83.1-.03.2-.09.29-.09,1.48.08,2.92-.27,4.38-.34,1.04-.05,2.09.12,3.07.19.89.56,1.27,1.4,1.67,2.23.14.3.34.57.52.85,0,0-.02-.02-.02-.02.25.79.61,1.57.72,2.38.08.61.28,1.16.44,1.73.18.63.61.97,1.27.99.47.01.97.07,1.42-.02,1.07-.23,2.14-.19,3.21-.09.81.07,1.63.11,2.44.2.26.03.51.16.76.24.29.1.57.28.86.29,1.5.06,2.57.81,3.53,1.91.89,1.02,1.95,1.89,2.87,2.89.43.46.73,1.05,1.05,1.6.41.7.79,1.41,1.23,2.2.95-.07,1.86-.13,2.72-.2.39.08.77.24,1.12.21,1.2-.13,2.39-.36,3.59-.49,1.35-.15,2.71-.29,4.04.16.22.07.47.08.7.08,1.15,0,2.31-.09,3.45-.02.66.04,1.33.26,1.7.94.06.11.16.22.26.3.68.51,1.39.98,2.04,1.53.65.55,1.26,1.14,1.84,1.77.45.49.81,1.06,1.22,1.61.47-.11.76-.84,1.48-.29.1.44.24,1.01.43,1.81.64.6.74,1.45.26,2.48-.24.52-.14,1.2-.2,1.8h.02c-.07.86-.14,1.73-.21,2.6-.03.33.02.7-.09.99-.29.74-.23,1.47,0,2.18.43,1.33.53,2.65.15,4.01-.04.16-.03.34-.01.51.1,1.15.21,2.3.29,3.45.03.47.02.96-.03,1.43-.14,1.28-.38,2.55-.44,3.83-.05,1.18.08,2.37.16,3.55.1,1.38.25,2.75.36,4.12.11,1.36.2,2.72.28,4.08.13,2.03.28,4.05.36,6.08.06,1.42.03,2.84.05,4.26,0,.3.06.62.16.9.59,1.58.6,3.23.67,4.89.03.64.17,1.28.32,1.9.39,1.59.66,3.19.65,4.84,0,1.05.2,2.1.24,3.15.04,1.05-.02,2.09-.04,3.14-.01.91-.04,1.82-.02,2.73,0,.25.16.49.2.6-.04.59-.08,1.07-.1,1.55,0,.13.08.28.06.4-.42,1.92.39,3.72.55,5.59.17,2,.35,3.98.19,5.99,0,.1-.05.21-.03.3.28,1.11.63,2.2.84,3.32.12.62.17,1.31.02,1.91-.27,1.06.04,2.09.02,3.13-.02,1.07.15,2.15.22,3.23.01.2.02.42-.05.6-.67,1.63-.17,3.29-.14,4.93,0,.27.07.55.04.82-.1,1.16-.07,2.33-.21,3.5-.13,1.1-.02,2.23,0,3.35,0,.76.01,1.53.05,2.29,0,.19.12.38.18.56h-.02c.5,1.09.44,2.15-.19,3.2-.17.28-.23.63-.35.95-.38.94-.7,1.9-1.85,2.25-.39.12-.7.52-1.01.82-.51.51-.99,1.06-1.43,1.53-.47-.07-.79-.07-1.08-.16-.8-.24-1.33.14-1.7.77-.25.43-.38.93-.58,1.39-.09.21-.18.43-.3.62-.39.63-.83,1.23-1.17,1.88-.31.58-.38,1.19-.14,1.87.27.76.36,1.59.54,2.38.06.29.13.58.15.65-.31,1.38-.58,2.58-.8,3.6-.69.87-1.26,1.61-1.84,2.34-.08.11-.16.24-.27.3-.8.5-1.37,1.43-2.33,1.58-1.18.18-2.16.85-3.3,1.09-.45.1-.88.33-1.44.56-.31,1.06-.6,2.23-1,3.35-.23.63-.66,1.18-.98,1.77-.25.47-.62.94-.69,1.44-.18,1.3-1.07,2.15-1.8,3.11-.14.18-.37.3-.57.41-.74.4-1.47.82-2.23,1.16-.39.18-.85.22-1.25.17-.63-.25-1.24-.59-1.89-.73-1.28-.29-2.35-.82-3.08-1.97-.36-.56-.84-1.04-1.21-1.6-.29-.45-.56-.93-.71-1.44-.26-.9-.4-1.84-.61-2.76-.04-.19-.14-.37-.22-.58-1.48-.31-2.93-.08-4.34-.07-.56-.13-1.12-.25-1.68-.4-.35-.1-.72-.19-1.04-.37-1.38-.78-2.01-2.04-2.24-3.57-.13-.88-.36-1.75-.59-2.61-.09-.32-.31-.59-.49-.92-1.09-.11-2.16-.21-3.22-.35-.25-.03-.5-.18-.74-.31-.43-.24-.83-.54-1.27-.74-.52-.24-.9-.57-1.09-1.12-.34-.99-.7-1.98-1.07-2.96-.07-.19-.2-.35-.37-.63-.51.1-1.02.21-1.55.32-.34-.55-.97-.44-1.55-.42-1.69.05-3.36.33-5.02.6-1.3.21-2.58.56-3.88.67-1.18.09-2.33.23-3.5.46-.74.15-1.52.03-2.28.35-.38.16-.91-.04-1.37-.07-.27-.02-.53-.02-.8-.02-1.49,0-2.98-.27-4.46.12-.17.04-.38-.08-.57-.11-.26-.05-.53-.13-.79-.14-.81-.03-1.62-.07-2.42-.03-.36.01-.71.2-1.07.28-.27.06-.56.07-.83.11.02-.01.04-.03.05-.04-.01.02-.02.04-.04.06-1.55.16-3.1.33-4.64.48-.4.04-.8.05-1.27.08-.69.61-1.51,1.03-2.57,1.01-.72,0-1.45.28-2.18.37-.67.08-1.36.08-2.04.13-.54.04-1.08.13-1.62.16-.43.03-.87-.02-1.29.03-.76.09-1.53.14-2.25.36-.57.17-1.09.29-1.68.12-.28-.08-.61-.04-.9,0-1.31.16-2.62.34-3.92.51l.02.02c-.54-.52-.96.12-1.42.21-.86.15-1.69.36-2.57.17-.21-.05-.47,0-.68.09-1.18.47-2.39.6-3.64.48-.2-.02-.43-.05-.59.03-1.07.56-2.22.55-3.38.5-.36-.01-.72.1-1.08.15l.02-.02c-.72-.07-1.42.31-2.15.06-1.3.88-2.78.16-4.16.43-.61.12-1.28-.03-1.92-.1-.93-.1-1.75.11-2.5.74h-2.88c-.26.21-.58.52-.93.77-.45.31-.55.76-.55,1.25,0,1.05-.1,2.06-.74,2.95-.16.23-.2.55-.28.8-.57.44-1.14.88-1.72,1.32l-.05-.06s.06.05.06.05c-.64.37-1.3.71-1.91,1.13-.66.45-.78,1.15-.76,1.9,0,.36-.07.72-.12,1.07-.1.67-.22,1.34-.3,2.02-.07.66-.09,1.31-.63,1.84-.27.27-.35.72-.54,1.14-1.15.54-2.34,1.09-3.54,1.65-.15.07-.33.19-.48.17-.63-.1-.92.29-1.36.64-.62.48-.84.99-.89,1.71-.08,1.14-.43,2.19-1,3.19-.46.82-.8,1.71-1.24,2.55-.18.35-.46.69-.87.58-.32.5-.63.97-.95,1.48-.74-.21-1.23.12-1.76.56-.7.59-1.52.9-2.51.94-1.55.07-3.05-.19-4.46-.69-1.68-.59-3.13-1.6-3.96-3.3-.17-.34-.48-.68-.81-.87-1.15-.64-1.67-1.67-1.85-2.88-.2-1.35-.77-2.43-1.91-3.19-.21-.14-.51-.21-.77-.21-1.5,0-2.85-.57-4.17-1.17-.34-.15-.64-.51-.85-.84-1.04-1.7-1.59-3.59-1.96-5.54-.01-.06-.06-.12-.12-.22-.46-.38-1.11-.44-1.66-.75-1.34-.76-1.94-1.86-2.05-3.31-.08-1.05-.09-2.1-.13-3.18-.24-.09-.41-.15-.63-.23.04-.21.08-.44.12-.64-.08-.07-.12-.14-.17-.15-1.59-.27-3.21-.43-4.77-.83-.75-.19-1.39-.83-2.06-1.29-.12-.08-.16-.28-.24-.42-.17-.29-.35-.58-.59-.83-.33-.89-.69-1.78-.98-2.68-.5-1.51-1.16-2.97-1.06-4.64.05-.8-.25-1.61-.31-2.42-.1-1.29-.17-2.58-.19-3.87-.02-1.07-.04-2.12.21-3.21.23-.96-.02-2.03-.06-3.05.04-.12.08-.23.12-.35-.03,0-.07-.01-.1-.02v.38c-.38-.94-.44-1.92-.38-2.91.11-1.66.25-3.31.33-4.97.02-.46-.12-.93-.21-1.52-.73-.16-1.46-.26-2.15-.48-1.36-.43-2.88-.42-4.04-1.45-.21-.18-.55-.21-.85-.32-.03-.18-.05-.37-.08-.59-.22.1-.4.17-.59.26-.09-.07-.22-.12-.23-.2-.09-.56-.26-1.09-.6-1.56-.11-.15-.1-.39-.12-.59-.11-.8-.22-1.6-.33-2.4-.12-.92-.29-1.83-.14-2.77.09-.57.08-1.15.14-1.73.09-.96-.28-1.59-1.23-1.8-.31.13-.6.35-.9.37-.88.05-1.52.58-2.2.99-.72.43-1.36,1.02-2.07,1.47-.56.36-1.25.54-1.76.95-.73.58-1.36,1.3-2.03,1.96-.1.09-.18.22-.29.28-1.2.64-2.14,1.62-3.18,2.47-1.02.83-2.2,1.47-3.31,2.19-.48.31-.93.7-1.45.88-1.53.52-2.87,1.42-4.29,2.14-.28.15-.47.47-.74.67-1.7,1.21-3.37,2.48-5.16,3.56-.79.47-1.54.92-2.15,1.61-.1.12-.31.15-.44.24-.58.41-1.21.78-1.72,1.27-1.55,1.5-3.07,3.04-4.58,4.58-1.01,1.03-1.97,2.11-2.97,3.15-.33.34-.78.56-1.08.92-.71.84-1.4,1.7-2.05,2.59-1.02,1.41-2.01,2.85-3.01,4.28-.76,1.08-1.51,2.14-2.06,3.37-.46,1.03-1.29,1.9-1.93,2.85-.33.5-.61,1.03-.91,1.55-.29.5-.57.99-.85,1.5-.24.44-.44.9-.7,1.33-.65,1.06-1.34,2.09-2,3.15-.14.23-.33.48-.35.73-.06.83-.26,1.59-.69,2.31-.31.52-.5,1.1-.79,1.63-.58,1.02-.88,2.13-1.13,3.26-.29,1.35-1.01,2.59-1.07,4.01,0,.1-.07.2-.08.3-.08,1.16-.15,2.33-.22,3.49-.06.88-.17,1.76-.15,2.64.01.64.16,1.28.31,1.9.33,1.39.69,2.77,1.05,4.15.19.72.41,1.44.63,2.15.43,1.43.88,2.86,1.31,4.29.08.26.08.54.16.8.13.42.2.93.48,1.22.9.9.86,2.03.85,3.14,0,.75.15,1.42.5,2.05.48.85.99,1.69,1.78,2.33.39.31.74.74.94,1.19.61,1.35,1.78,2.29,2.51,3.55.36.62.95,1.19,1.57,1.57,1.99,1.23,3.85,2.69,6.11,3.44.13.04.25.11.38.14,1.41.36,2.81.73,4.22,1.06.73.17,1.43.35,2.22.33.86-.02,1.73.34,2.59.51.8.15,1.6.3,2.4.41,1.35.18,2.72.25,4.05.53,1.6.34,3.18.19,4.76,0,1.42-.18,2.81-.35,4.27-.16,1.3.17,2.63.02,3.95,0,.16,0,.32-.09.49-.13.69-.15,1.38-.32,2.07-.44.63-.11,1.27-.19,1.91-.26.74-.07,1.49-.1,2.23-.17,1.02-.1,2.03-.26,3.04-.31.64-.03,1.29.12,1.93.11.42,0,.85-.16,1.26-.27,1.02-.28,2.01-.68,3.05-.86,1.62-.27,3.2-.64,4.76-1.13.35-.11.73-.11,1.1-.16.73-.1,1.47-.22,2.2-.31.5-.06,1.01-.12,1.52-.11.63,0,1.2-.06,1.77-.37.47-.25,1.03-.38,1.56-.44,1.39-.17,2.77-.47,4.11-.82,1.93-.52,3.97-.54,5.84-1.34.74-.32,1.66-.27,2.34-.66.74-.42,1.54-.31,2.27-.62.75-.32,1.49-.66,2.27-.89,1.53-.44,3.08-.81,4.61-1.21.89-.23,1.77-.47,2.66-.7.45-.11.9-.25,1.36-.3.47-.05.96-.02,1.43.01,1.6.11,3.08-.25,4.59-.76,1.2-.41,2.53-.56,3.81-.62.65-.03,1.28-.13,1.73-.45,1.17-.84,2.42-1,3.77-.82,1.14.15,2.23.02,3.29-.43.15-.07.33-.11.49-.13,1.93-.17,3.81-.63,5.69-1.09.66-.16,1.34-.32,2.01-.33.92,0,1.68-.47,2.53-.65.46-.1.93-.13,1.4-.15.64-.03,1.24-.13,1.87-.32,1.06-.33,2.19-.45,3.28-.67.53-.11,1.07-.22,1.56-.42.71-.3,1.42-.34,2.18-.27.63.06,1.27-.02,1.9-.07.98-.08,1.95-.24,2.93-.28,2.86-.11,5.72-.18,8.57-.26.17,0,.34,0,.5.03,1.38.26,2.71-.08,4.03-.4.73-.18,1.44-.21,2.19-.19,1.65.05,3.28.42,4.97.19,1.59-.22,3.24-.14,4.86-.15,1.12,0,2.24.1,3.32-.37.26-.11.59-.1.88-.08,1.26.07,2.5.16,3.76-.18.65-.18,1.41-.05,2.11.06.8.13,1.57.49,2.37.56,1.56.12,3.14.15,4.64-.47.31-.13.65-.28.97-.27,1.9.04,3.77-.44,5.7-.18,1.26.17,2.58-.03,3.86-.12.59-.04,1.11-.33,1.44-.86.07-.11.1-.32.19-.35.86-.24.68-.88.57-1.53.51-.59,1.01-1.18,1.53-1.76.76-.85,1.78-1.2,2.87-1.41,1.78-.33,3.58-.37,5.39-.37.71,0,1.4.09,2.1.14,1.46.11,2.92.17,4.36-.28.56-.18,1.16-.17,1.72.32.55.48,1.23.15,1.89-.1.78.53,1.67.27,2.54.19,1.18-.11,2.34-.39,3.52-.41.97-.02,1.95.24,2.92.37.93.12,1.87.24,2.81.36.07,0,.14,0,.2-.02,1.54-.64,3,.08,4.48.28.35.05.69.42.96.71.42.48.82.73,1.53.79.71.05,1.46.51,2.04.98,1.07.87,1.59,1.97,1.04,3.43-.24.63-.15,1.39-.21,2.15.74,0,1.39.06,2.04-.27.71-.36,1.48-.45,2.28-.2.76.24,1.54.23,2.32.06.97-.21,1.88-.11,2.74.44.86.55.98,2.09.13,2.69-1.89,1.32-3.93,2.2-6.3,2.07-.23-.01-.47.09-.71.08-.31,0-.71.35-.93-.21-.03-.07-.45,0-.68.05-.42.1-.84.24-1.39.41-.31.45-.94.88-.86,1.73.51.33,1.05.26,1.59.24,1.43-.06,2.68,1.52,2.28,2.89-.03.1-.05.21-.11.28-.59.73-1.2,1.44-1.76,2.12-.84-.03-1.39-.37-1.98-.82-.52-.4-1.31-.44-1.72-.56-1.62,1.16-3.01,2.16-4.4,3.16-.03-.05-.05-.11-.08-.16-.45.18-.89.4-1.36.54-.68.21-1.37.37-2.06.55-.76.19-1.51.48-2.29.12-.53-.24-1.06-.47-1.61-.71-.71.2-2.53-.24-3.03-.75-.16.06-.36.21-.5.17-1.99-.52-3.98-.3-5.96-.02-.55.08-1.17-.16-1.64.33h.01ZM79.18,317.3c.05.11.1.21.15.32.03-.03.07-.05.1-.08-.09-.07-.18-.15-.27-.22.1-.38.21-.76.33-1.22-.1-.13-.26-.32-.43-.55-.22.16-.38.28-.54.4.05.55.01,1.11.66,1.35ZM314.37,319.35c.09.55.51.47.96.55-.13-.72-.54-.65-.97-.53.06-.87-.26-1.64-.57-2.41-.95.35-1.95,2.08-1.92,3.31.98.08,1.68-.62,2.51-.92ZM312.72,278.39c-.78-.04-1.57-.09-2.32-.13-.03.66-.06,1.19-.09,1.78.55,1.13,1.46,2.01,2.57,2.91.4-.11,1-.1,1.35-.39,1.2-1,1.85-2.29,1.74-3.91-.7-.45-1.4-.29-2.1-.18-.4.06-.8.26-1.16-.1.08-.01.16-.02.06,0,.08-.06.02-.02-.04.03ZM276.68,122.27c-.37.49-.25,1.09.06,1.43.37.41.5.84.52,1.34.42.09.84.06,1.12.25.76.49,1.4.28,2.08-.13.28-.17.63-.36.93-.34,1.28.07,2.47-.32,3.7-.6.98-.23,1.98-.31,2.8-1.24-.15-.77-.28-1.68-.54-2.55-.1-.34-.45-.73-.78-.85-.52-.19-1.12-.27-1.68-.24-1.05.04-2.1.17-3.15.29-.36.04-.79.07-1.05.27-.56.44-1.19.47-1.82.47-1.35-.01-2.07.58-2.22,1.92h.02ZM176.08,284.75c-.3.06-.6.12-.77.15-.53-.24-.94-.43-1.41-.65-.22.76-.78.14-1.15.36-.57.33-1.17.07-1.63-.13-1.25-.54-2.5-.67-3.77-.54-.14.58-.28,1.13-.43,1.76.19.22.43.5.58.67,1.71.59,3.41.17,5.01.8.88.35,1.95.2,2.93.3,1.22.12,2.43.24,3.64.41.5.07.98.35,1.48.35,1.48,0,2.96-.09,4.41-.44,1.12-.27,2.24-.56,3.37-.8,1.58-.33,2.99-1.05,4.35-1.9.7-.44.95-1,.71-1.76h-1.14c.02.19.04.34.07.58-.69.05-1.36.05-2.02.14-1.84.26-3.71.39-5.53.82-.35.08-.8.1-1.09-.06-.7-.38-1.23-.11-1.69.24-.31-.08-.54-.17-.78-.2-.26-.03-.54-.03-.8.01-1.4.25-2.79-.68-4.19-.03-.04.02-.11-.06-.17-.09l.06-.04s-.04.06-.04.06ZM303.51,262.01l-.05-.06.06.04c-.85.79-1.85.87-2.93.65-.33-.07-.67-.12-1.01-.12-.3,0-.65-.03-.89.11-1.01.61-2.11.71-3.2.75-.41.18-.81.36-1.17.52-.35.31-.67.6-1.08.95.63.26,1.21.6,1.84.74.83.19,1.76.35,2.47-.21.62-.48,1.11-.44,1.78-.19.84.32,1.7.41,2.56-.1.37-.22.84-.32,1.27-.35,2.13-.19,4.22-.82,6.39-.69.32.02.67-.08.98-.2.61-.24,1.18-.37,1.87-.23.72.15,1.48.08,2.22.06,1.09-.03,2.18-.14,3.27-.15,1.81-.01,3.47-.48,5-1.43.92-.57,1.77-1.25,2.82-1.58.38-.12.73-.36,1.08-.58.38-.24.57-.58.36-1.14-1.25-.35-2.51-.42-3.68.34-.14-.13-.24-.21-.2-.18-.81.29-1.52.58-2.25.79-.88.26-1.77.46-2.91.74-1.13-.32-2.54-.04-3.85.33-1.25.35-2.51.52-3.76.75-.43.08-.95-.04-1.3.16-.63.37-1.23.25-1.88.23-1.28-.03-2.56.03-3.84.05ZM99.24,247.26l-.04-.06.06.04c-.43.64-1.04,1.12-1.51,1.74-.74.98-1.74,1.77-2.35,2.87-.08.14-.19.35-.32.38-1.04.26-1.44,1.05-1.71,1.97-.05.18-.24.33-.36.49-.74,1-1.51,1.98-2.18,3.03-.28.43-.39,1.01.13,1.53.97-.87,1.92-1.71,2.86-2.56.05-.04.08-.11.12-.16.74-.9,1.46-1.83,2.24-2.7.31-.34.77-.53,1.13-.84.72-.61,1.3-1.34,1.89-2.08,1.02-1.27,2.09-2.55,3.49-3.47.65-.42,1.3-.88,1.82-1.45,1.04-1.15,2.49-1.65,3.73-2.48.62-.42,1.26-.76,1.76-1.34.27-.32.68-.52,1.02-.78.13-.1.32-.2.37-.33.2-.54.69-.71,1.12-.98.35-.21.68-.45,1.03-.65,1.2-.67,2.3-1.55,3.69-1.86.2-.04.41-.11.56-.24.74-.64,1.62-.97,2.53-1.25.25-.08.56-.21.67-.41.69-1.23,1.95-1.86,2.91-2.81.74-.74,1.63-1.33,2.45-1.99.79-.63,1.53-1.35,2.39-1.87.82-.49,1.58-1,2.03-1.56.89-.37,1.6-.6,2.25-.95.65-.35,1.42-.7,1.81-1.27.38-.55,1.33-.78,1.22-1.76-.18.04-.27.05-.35.08-.09.03-.18.12-.27.12-1.18-.05-2.04.73-2.89,1.3-1.17.76-2.3,1.53-3.6,2.06-.59.24-1.12.63-1.68.94-.27.15-.54.38-.82.4-1.63.11-2.82,1.22-4.24,1.79-.43.18-.98.19-1.32.47-1.27,1.05-2.85,1.65-4.02,2.83-.73.74-1.59,1.14-2.18,1.14-.85.68-1.44,1.14-2.01,1.62-.49.41-.95.85-1.44,1.26-.18.15-.42.23-.59.39-.78.69-1.52,1.43-2.31,2.09-.56.47-1.27.79-1.79,1.31-1.37,1.37-3.1,2.28-4.43,3.72-.81.88-1.89,1.53-2.84,2.28ZM168.49,327.54l.02.02c-.21.03-.42.07-.64.09-1.06.05-2.06.26-2.95.9-.17.12-.45.11-.68.14-1.08.16-2.18.2-3.11.89-.23.17-.57.19-.87.24-1.51.22-3.02.39-4.53.65-.76.13-1.54.31-2.25.61-.91.37-1.8.57-2.71.29-.25.16-.45.29-.66.42-.45-.34-.86-.3-1.34-.04-.76.4-1.62.45-2.48.51-1.24.09-2.63-.06-3.28,1.36-.91.21-1.76.41-2.62.59-.41.08-.84.1-1.25.18-1.01.19-2.02.29-3.01-.11-.17-.07-.4-.04-.59,0-.79.15-1.57.32-2.36.46-.4.07-.82.06-1.21.15-1.43.33-2.86.56-4.34.5-.43-.02-.94.06-1.28.29-.63.44-1.28.28-1.94.26-2.07-.05-4.13-.11-6.2-.17-.07,0-.13.02-.2.03-.9.11-1.8.28-2.7.33-2.11.11-4.22.18-6.32-.15-.32-.05-.66-.05-.96-.16-.45-.16-.87-.27-1.38-.16-.44.1-.95.06-1.39-.04-.52-.12-1.01-.39-1.52-.57-1.32-.47-2.64-.33-4.06.06,1.12.83,2.2,1.41,3.43,1.72,1.45.36,2.89.78,4.34,1.12.49.11,1.02.11,1.53.06,1.24-.13,2.46-.07,3.64.31,1.64.53,3.31.35,4.97.35,2.09,0,4.17-.73,6.28-.11.24.07.54-.02.81-.07.63-.13,1.25-.31,1.88-.44.66-.14,1.34-.26,2-.39.7-.14,1.39-.32,2.09-.44,1.38-.23,2.76-.41,4.14-.62.59-.09,1.14-.29,1.78-.23.73.07,1.51-.05,2.21-.28.95-.31,1.84-.82,2.77-1.21.23-.09.53,0,.8,0,.47,0,1.01.14,1.4-.04.58-.26,1.11-.23,1.69-.19.23.01.46-.02.69-.06.84-.13,1.67-.26,2.5-.41,1.76-.33,3.56-.55,5.27-1.06,1.68-.5,3.35-1.07,5.06-1.47,2.02-.48,4.07-.82,6.1-1.24.46-.1.91-.28,1.36-.43.25-.08.5-.19.77-.24,1.16-.2,2.32-.37,3.47-.58,1.04-.2,2.06-.48,3.1-.66,1.77-.3,3.56-.52,5.34-.8.97-.15,1.94-.34,2.9-.54.72-.15,1.42-.36,2.13-.54.32-.08.64-.24.97-.25,1.16-.04,2.28-.28,3.4-.57,1.29-.32,2.6-.54,3.9-.81,1-.21,2.03-.31,2.97-.67.97-.37,1.92-.29,2.9-.33.53-.02,1.09-.03,1.6-.17,2.03-.57,4.04-1.2,6.06-1.8.74-.22,1.57-.27,2.21-.65,1.52-.88,3.13-1.29,4.87-1.33.7-.02,1.26-.36,1.6-1.3-1.7.22-3.28-.23-4.79.59-1.36.74-2.8.62-4.22.27-1.47.74-3.06,1.02-4.65,1.31-1.17.22-2.34.38-3.52.56-1.87.28-3.74.55-5.61.84-.22.03-.42.22-.64.3-.95.34-1.88.73-2.85.97-.91.23-1.87.26-2.79.44-1.39.26-2.78.58-4.17.84-.4.07-.82,0-1.22.02-.57.03-1.15.05-1.71.15-.67.12-1.32.34-1.98.47-.4.08-.82.03-1.22.13-1.4.34-2.81.68-4.19,1.1-.73.22-1.41.6-2.26.97.04.01-.12-.04-.28-.1ZM147.44,158.24c-.77.04-1.48.05-2.19.12-.5.05-.96.32-1.09.81-.23.88-.35,1.78-.5,2.68-.06.37-.07.74-.1,1.11-.16,1.66-.34,3.31-.1,4.99.15,1.07.13,2.17.18,3.25.06,1.15.01,2.31.21,3.44.17.99.62,1.93.91,2.9.31,1.03.8,2.01.83,3.13,0,.43.17.85.26,1.28.24,1.13.64,2.23.56,3.42-.05.82-.04,1.64-.02,2.46.02.47.12.94.2,1.4.16.9.36,1.8.48,2.7.08.6,0,1.22.07,1.82.25,2.06.66,4.1.59,6.19-.03.77.12,1.56.21,2.33.11.91.44,1.84.33,2.72-.16,1.27-.1,2.49.11,3.73.11.67.22,1.36.15,2.02-.11.93-.03,1.85.17,2.73.27,1.18.58,2.34.57,3.57-.01.98.13,1.97.2,2.95.13,1.8.27,3.6.4,5.4.05.64.17,1.3.1,1.93-.19,1.66.16,3.25.5,4.85.07.33.14.67.16,1,.1,2,.17,4,.29,6,.04.74.21,1.47.3,2.21.05.44.05.88.05,1.32,0,1.15,0,2.3,0,3.45,0,.37.09.75.07,1.12-.07,1.39-.22,2.77-.24,4.16-.03,1.83,0,3.66.05,5.49.03.91.02,1.87.28,2.73.39,1.33.25,2.63.2,3.95-.03.67-.06,1.38.13,2.01.38,1.26.79,2.54,1.41,3.69.52.97,1.29,1.82,2.7,1.43.47-.13,1.14,0,1.55.26.79.51,1.58.52,2.44.44.54-.05,1.08-.04,1.61-.09.26-.02.51-.12.7-.17,1.62.46,3.19.84,4.84.32,1.08-.34,2.18-.4,3.32-.13.97.23,1.96.56,2.99.09.26-.12.61-.07.91-.07,1.05-.01,2.13.1,3.16-.05,1.89-.28,3.77-.24,5.67-.15.3.01.61,0,.92-.03.85-.06,1.7-.1,2.55-.19.91-.09,1.81-.22,2.71-.34.78-.1,1.56-.31,2.33-.28,1.32.05,2.62-.01,3.93-.07.91-.04,1.82-.14,2.73-.18.74-.03,1.49.02,2.23-.03,1.02-.07,2.03-.22,3.05-.3.68-.06,1.36-.11,2.04-.09,1.91.05,3.69-.95,5.62-.63.03,0,.07-.01.1-.02,1.77-.34,3.54-.6,5.36-.62,1.86-.02,3.73-.25,5.59-.46,1.86-.22,3.71-.48,5.55-.82.87-.16,1.69-.5,2.6-.24.25.07.55.02.81-.03,1.87-.31,3.75-.6,5.66-.55.1,0,.2-.01.31-.02,1.27-.08,2.52-.36,3.82-.04.73.18,1.55.08,2.33.01.64-.05,1.27-.21,1.89-.36,1.88-.47,3.73-1.01,5.66-1.24.13-.02.3-.02.39-.09.63-.52,1.37-.38,2.05-.27,1.17.2,2.26-.07,3.35-.4.73-.21,1.43-.41,2.15.06.17.11.49.14.68.06.71-.29,1.43-.28,2.18-.26,1.15.03,2.3-.07,3.45-.13.27-.01.54-.07.81-.08.54-.03,1.09-.14,1.62-.06.74.11,1.41-.05,2.11-.23.89-.22,1.79-.4,2.69-.56,1.2-.2,2.4-.35,3.6-.53,1.34-.21,2.7-.3,4.01-.74.54-.18,1.17-.07,1.71-.23,1.87-.58,3.77-.8,5.73-.64.85.07,1.71.12,2.55.01,2.02-.25,4-.7,6.05-.79,1.13-.05,2.23-.56,3.36-.8.96-.21,1.93-.37,2.9-.48,1.21-.13,2.47-.05,3.64-.34.74-.18,1.45-.21,2.18-.22.24,0,.47-.08.71-.11.84-.12,1.69-.22,2.52-.38,1.27-.24,2.52-.53,3.79-.79.26-.05.53-.08.8-.12.32-.05.65-.07.96-.14.89-.21,1.77-.61,2.67-.62,1.21-.02,2.34-.16,3.46-.64.55-.23,1.23-.41,1.79-.29.99.21,1.78-.15,2.63-.5.48-.2,1.03-.24,1.55-.35.77-.35,1.47-.94,2.42-.61.75-.72.94-.78,1.93-.83.51-.03,1.02-.09,1.52-.19.43-.08.75-.35.86-.78.16-.65.38-1.31.42-1.97.09-1.41.09-2.83.09-4.24,0-1.12-.06-2.24-.03-3.35.01-.43.24-.86.29-1.29.24-2.05.46-4.11.67-6.17.02-.19-.06-.4-.11-.6-.24-1.06-.42-2.11-.28-3.21.06-.44,0-.89,0-1.33-.02-.71-.17-1.44-.07-2.14.18-1.24-.1-2.42-.28-3.62-.21-1.4-.46-2.8-.63-4.21-.18-1.59-.32-3.18-.41-4.78-.09-1.62-.87-3.12-.73-4.78.07-.87-.13-1.77,0-2.63.28-1.86.43-3.7.16-5.58-.19-1.28-.18-2.58-.29-3.87-.07-.88-.09-1.77-.28-2.63-.32-1.47-.45-2.93-.29-4.42.07-.61.18-1.19-.2-1.77-.15-.23-.1-.59-.11-.89-.04-.71.04-1.45-.13-2.12-.49-1.96-.8-3.93-.61-5.96.02-.27-.01-.55-.04-.82-.17-1.72-.31-3.46-.12-5.18.13-1.15-.09-2.21-.43-3.3-.4-1.29-.64-2.6-.31-3.98.2-.84.28-1.75-.2-2.6-.12-.21-.11-.54-.07-.8.21-1.27.04-2.6.55-3.83.07-.18.05-.41.04-.61-.04-.99-.11-1.97-.13-2.96-.02-1.01,0-2.02,0-2.89-.59-2.61-1.15-5.08-.22-7.63-.13-.43-.19-.92-.4-1.33-1-1.92-2.17-3.74-3.68-5.29-.54-.55-1.25-.99-1.96-1.31-.93-.42-1.97-.49-3-.5-.54,0-1.08-.08-1.62-.12-1.19-.09-2.37-.22-3.56-.27-.85-.04-1.7-.02-2.54.06-1.01.1-2.01.3-3.02.45-1.18.17-2.36.34-3.46-.36-.14-.09-.31-.11-.48-.17-.35.33-.69.64-.97.91-.46-.06-.86-.13-1.26-.17-.84-.08-1.68-.17-2.52-.21-.43-.02-.88.01-1.28.14-.82.24-1.59.42-2.49.28-1.02-.16-2.11-.12-3.14.06-.46.08-.9.19-1.37.15-.41-.04-.82-.04-1.22-.07-.39-.03-.77-.08-1.34-.14-1.18.43-2.5,1.05-3.94,1.28-.57.09-1.13.31-1.69.3-2.09-.07-4.13.28-6.18.62-.79.13-1.55.19-2.33,0-.58-.14-1.13-.1-1.65.29-.66.5-1.45.44-2.14.11-.63-.3-1.22-.33-1.88-.2-1.49.3-2.98.08-4.46-.03-1.02-.08-2.03-.22-3.05-.22-.59,0-1.18.21-1.78.34-.83.18-1.66.35-2.48.54-.89.21-1.76.53-2.66.62-1.18.11-2.37.03-3.56.04-.81,0-1.63-.03-2.43.06-1.48.18-2.94.56-4.42.62-1.68.07-3.32.26-4.96.58-1.27.25-2.54.51-3.82.66-.97.12-1.98-.07-2.93.33-.14.06-.33,0-.5,0-1.29.03-2.58.06-3.86.1-.23,0-.46.09-.69.13-1.4.23-2.79.5-4.19.67-1.48.18-2.97.25-4.46.42-.6.07-1.19.29-1.78.41-1.56.32-3.14.6-4.69.96-1.68.38-3.34.9-5.03,1.23-1.56.3-3.15.49-4.74.61-1.62.12-3.25.09-4.87.44-.97.21-2.01.09-3.03.13-1.06.04-2.11.11-3.09.55-.24.11-.52.15-.78.19-1.81.3-3.64.5-5.41.91-1.84.43-3.69.58-5.56.71-1.42.11-2.85.17-4.27.34-1.92.23-3.83.5-5.74.81-1.64.27-3.26.6-4.89.93-1.23.25-2.45.58-3.68.79-1.21.2-2.43.31-3.65.42-2.2.2-4.38.56-6.6.47-.19,0-.41.07-.58.17-.81.53-1.74.53-2.64.54-1.8.02-3.38,1.06-4.04,2.8ZM304.38,133.3c.7-.88.87-1.17.75-1.52-.33-.94-.84-1.84-1.64-2.38-.7-.48-1.61-.69-2.46-.91-1.15-.3-2.32-.52-3.48-.74-.25-.05-.54-.01-.8.03-.77.14-1.52.38-2.29.44-.94.06-1.9-.05-2.85-.04-.67.01-1.38-.02-1.99.19-1.78.63-3.65.29-5.44.68-.66.14-1.34.21-1.98.41-1.21.37-2.41.71-3.71.48-.46-.08-.96-.1-1.43-.02-1.44.23-2.89.24-4.35.2-1.62-.04-3.25.06-4.87.19-1.08.09-2.14.34-3.21.51-.2.03-.41.04-.61.05-1.97.07-3.94.09-5.9.22-1.73.11-3.45.38-5.18.51-1.05.08-2.07.23-3.07.58-1.07.38-2.15.73-3.31.76-.16,0-.32.12-.49.15-.83.13-1.67.38-2.5.34-1.3-.06-2.49.19-3.65.72-.21.1-.44.18-.67.21-1.2.13-2.41.25-3.62.36-1.08.1-2.17.23-3.26.27-2.28.1-4.56.17-6.85.23-.78.02-1.56.02-2.33-.04-2.07-.16-4.04.55-6.07.68-.07,0-.13.03-.2.05-1.95.58-3.9,1.18-5.86,1.73-.43.12-.95.14-1.38.04-1.51-.36-3.04-.3-4.56-.23-1.59.08-3.18.27-4.77.42-.61.05-1.22.12-1.83.15-.71.04-1.42.09-2.12.09-1.14,0-2.29-.1-3.43-.04-2.41.13-4.82.11-7.21.59-2.16.43-4.39.56-6.58.84-.62.08-1.25.05-1.84.17-.85.17-1.67.51-2.47.86-1.23.53-2.41,1.17-2.94,2.5-.25.62-.35,1.3-.51,1.96-.02.09-.01.2,0,.3.11.6.21,1.21.37,1.8.08.3.3.56.4.74.84,0,1.51.02,2.19,0,.71-.03,1.41-.1,2.12-.16.47-.04.94-.11,1.41-.16,1.15-.11,2.3-.29,3.46-.02.09.02.2-.03.3-.04,1-.12,2-.23,3.01-.35.94-.24,1.85-.65,2.89-.62.61.02,1.24.07,1.84,0,1.34-.15,2.69-.11,3.98-.71.97-.45,2.07-.8,3.12-.83,1.46-.04,2.89-.2,4.33-.43,1.11-.18,2.22-.37,3.33-.48,1.14-.12,2.33.16,3.42-.38,1.99.07,3.85-.69,5.8-.93,1-.13,1.96-.56,2.96-.73,1.93-.33,3.87-.61,5.82-.86,1.3-.17,2.62-.24,3.92-.39.44-.05.86-.19,1.29-.3.52-.13,1.03-.33,1.55-.4,1.68-.22,3.36-.38,5.04-.59,1.38-.17,2.75-.35,4.12-.56.85-.13,1.68-.13,2.54-.04.8.08,1.63-.17,2.44-.13,1.62.07,3.19-.16,4.77-.44.27-.05.56-.15.8-.08,1.41.42,2.67-.26,3.99-.46.3-.05.58-.17.88-.18,1.34-.04,2.69,0,4.02-.09.78-.06,1.61.13,2.36-.36.27-.17.73-.05,1.11-.07.27-.02.54-.04.81-.08.32-.04.64-.15.96-.13.95.06,1.9.19,2.85.23.71.03,1.42-.02,2.12-.07,1.35-.1,2.7-.29,4.05-.31,1.28-.02,2.56.19,3.84.17,1.63-.02,3.27-.1,4.88-.31,1.06-.14,2.08-.62,3.19-.31.24.07.54-.02.8-.08,1.09-.29,2.16-.6,3.31-.56.46.02.93-.19,1.38-.35,1.38-.51,2.85-.53,4.26-.86.03,0,.07,0,.1,0,.74-.04,1.49-.02,2.21-.15.63-.11,1.23-.39,1.84-.6.32-.1.61-.09.96-.04.61.09,1.25.19,1.9-.03,1.25-.43,2.54-.66,3.92-.21ZM305.37,323.88c.33-.82.47-1.59.9-2.15.46-.59.55-1.12.34-1.79.55-.83,1.09-1.64,1.63-2.46.21-.31.49-.6.59-.94.31-.99.9-1.81,1.48-2.65.6-.86,1.13-1.77,1.64-2.69.14-.26.1-.62.14-.92-.22-.08-.31-.14-.4-.14-.82-.02-1.64,0-2.46-.03-.64-.02-1.29-.12-1.84.52-.88-.79-1.96-.71-3-.82-.44-.05-.87-.19-1.3-.29-.16-.04-.33-.12-.49-.11-.94.11-1.89.21-2.83.36-1.15.18-2.29.29-3.44-.01-.25-.07-.56-.08-.81,0-1.17.33-2.45.2-3.52.93-.1.07-.28.03-.39.09-.41.21-.86.39-1.22.67-.67.53-.84,1.38-1.24,2.08-.58,1.02-.89,2.1-1.13,3.21-.06-.16-.11-.32-.21-.6-.06.46-.08.76-.16,1.06-.28,1.14-.58,2.26-.85,3.4-.11.46-.06.97-.25,1.39-.45,1.02-.29,1.92.35,2.76,1.12.48,2.24.66,3.35.12.95-.46,1.93-.53,2.95-.52.54,0,1.24-.23,1.59.02.61.44,1.05.11,1.55,0,.29-.07.57-.21.86-.32,1.44-.56,2.96-.43,4.45-.41.93.02,1.84,0,2.71-.37.06-.02.13,0,.22,0,.21.15.42.31.8.59ZM198.15,274.05c-1.1-.74-2.23.16-3.32-.16-.45.39-.45.4-1.13.41-1.19.01-2.4-.11-3.57.05-1,.14-1.94.15-2.64-.07-.77.18-1.31.37-1.85.43-.71.07-1.48-.12-2.13.09-.72.23-1.39-.07-2.1.07-1.12.22-2.25.29-3.43.07-.74-.14-1.59-.24-2.39.1-.32.13-.75.09-1.11.02-.85-.17-1.7-.41-2.37-.57-.96.22-1.77.52-2.6.57-1.04.06-2.09-.1-3.13-.14-.2,0-.4.08-.6.12-.33.06-.67.09-.99.19-.54.16-1.06.37-1.59.56.04.35.06.58.09.8-.18.17-.35.33-.57.53.19.41.37.8.57,1.24,1.13.24,2.22.52,3.33.68,1,.14,2.02.15,3.04.22,1.79.13,3.59.25,5.38.41.74.06,1.47.2,2.21.29.34.04.68.02,1.02.02.4,0,.81-.03,1.21-.02,1.04.03,2.09.14,3.13.09.87-.05,1.74-.31,2.61-.43.6-.08,1.22-.14,1.82-.1,1.19.07,2.36.29,3.49-.37.36-.21.86-.19,1.28-.3.35-.09.71-.19,1.04-.35.83-.38,1.63-.81,2.46-1.19.58-.26,1.21-.42,1.77-.72,1.26-.68,1.41-1.07,1.08-2.52ZM326.7,265.99c-1.01-.25-1.99-.65-2.85.29-.1.11-.31.12-.48.17-1.37.38-2.73.81-4.11,1.12-1.02.23-2.05.46-3.13.32-.36-.05-.75,0-1.12.06-1.19.2-2.41.07-3.59.41-.8.23-1.68.19-2.51.33-.8.14-1.59.33-2.37.56-.74.22-1.62-.06-2.25.58-.02.02-.06.01-.1,0-.96-.17-1.92.28-2.88,0-.14-.04-.32.07-.43.1-.46,1.24-.84,2.43-.13,3.57.57.19,1.07.47,1.59.49,1.11.05,2.24.01,3.35-.07,1.15-.08,2.29-.32,3.44-.38.97-.05,1.96.07,2.93.06,1.19,0,2.37.05,3.42.63.49-.15.96-.27,1.4-.43.92-.34,1.83-.71,2.75-1.07.44-.17.86-.42,1.31-.49,1.56-.23,2.98-.67,3.97-2.01.16-.21.41-.36.62-.53,1.04-.85,1.57-2.47,1.17-3.73ZM143.26,211.59c-.42.4-.73.71-1.06.99-.36.3-.55.65-.56,1.14-.02,1.01-.17,2.02-.17,3.03,0,1.05.1,2.09.16,3.14.04.63.2,1.29.09,1.9-.39,2.22-.26,4.4.21,6.59.22,1.01.4,2.03.34,3.1-.08,1.39-.03,2.79.03,4.18.06,1.33,1.53,2.1,2.62,1.34,1.49-1.05,1.65-1.58,1.28-3.18-.27-1.16-.34-2.37-.45-3.56-.15-1.52.27-3.05-.14-4.59-.19-.69-.05-1.47-.07-2.21-.04-1.29-.11-2.57-.12-3.86,0-1.01.06-2.03.09-3.04,0-.13.02-.26,0-.39-.23-1.38-.46-2.75-.71-4.24-.5-.1-1.08-.22-1.55-.31ZM199.14,133.52c.11-1.05.3-1.85.24-2.64-.07-1.05-.11-2.22-1.22-2.8-1.39-.72-2.72-1.74-4.46-1.36-.19.04-.41-.05-.61-.03-1.51.14-3.04.15-4.47.79-1.22.55-2.02,1.96-1.73,3.23.2.87.48,1.73.78,2.81.35.33.99.61,1.74.64,1.69.06,3.38.14,5.07.18,1.39.03,2.76-.09,4.07-.58.24-.09.48-.2.57-.24ZM282.48,310.95c-.27.97-.65,1.95-.35,2.98.2.7-.08,1.23-.4,1.82-.39.69-.78,1.45-.89,2.21-.14,1,.01,2.04,0,3.05-.02.93.16,1.89-.45,2.76-.25.36-.31.86-.49,1.4.45.05.81.11,1.17.13.37.02.74,0,1.11.03.9.06,1.55-.77,1.22-1.6-.2-.5-.45-.97-.68-1.46.48-.76.61-1.54.38-2.37-.04-.13-.06-.28-.01-.4.44-1.16.88-2.32,1.34-3.47.16-.4.36-.79.55-1.18.16-.34.29-.71.52-.99.57-.7.84-1.52,1.11-2.36.17-.55.1-1-.34-1.45-1.36-.23-2.62.09-3.77.91ZM176.69,292.85c-.26,1.25-.22,1.23.2,2.28.31.77,1.02,1.05,1.55,1.54,1.12,1.05,2.5,1.17,3.88.96,1.88-.28,2.77-1.7,3.35-3.34.07-.21-.02-.55-.15-.75-.34-.54-.84-.69-1.5-.58-1.26.21-2.58.55-3.8,0-1.18-.53-2.3-.41-3.54-.12ZM218.12,317.6c-1.12-.04-1.85.64-2.67,1.29,1.57.34,2.13.05,2.67-1.29ZM89.62,259.23c-.09.42-.14.68-.21.93-.16.51-.11.58.6.67.12-.41.24-.81.37-1.29-.28-.12-.52-.21-.76-.32ZM221.55,317.46c0,.05-.01.1-.02.15.11.03.22.08.33.09.1,0,.2-.05.3-.08-.01-.05-.02-.11-.03-.16h-.59ZM218.74,317.7l-.24.02.07.45h.17v-.47ZM78.02,313.74h-.16v.38h.16v-.38ZM78.38,314.01c.05,0,.11,0,.16-.01-.02-.18-.04-.35-.05-.53-.05,0-.09,0-.14.01.01.18.02.35.03.53ZM215.11,319.01c-.02-.05-.04-.11-.07-.16,0,0-.08,0-.09.01-.01.05-.01.11-.02.17.06,0,.11-.02.17-.02ZM78.05,312.82c-.05.03-.1.06-.16.08.05.06.1.13.15.19.05-.06.11-.13.16-.19-.05-.03-.1-.06-.15-.09ZM314.4,315.9l-.07-.06s-.03.08-.05.12c.03,0,.06.02.09.01.02,0,.02-.05.03-.08ZM315.02,315.55s0-.07,0-.08c-.04-.01-.09-.02-.14-.03,0,.03-.01.08,0,.08.05.01.09.02.14.02ZM78.43,315.45s.07-.02.07-.03c0-.05-.02-.1-.03-.16-.02,0-.07.02-.07.03,0,.05.02.1.03.16ZM78.1,314.61s.09.07.13.09c0,0,.06-.05.05-.06-.02-.05-.05-.09-.08-.13-.03.03-.07.06-.1.1ZM219.21,317.87s0,.09-.01.13c.02-.02.05-.04.05-.06,0-.02-.02-.05-.03-.07ZM328.12,254.54v-.05s-.07.02-.07.02l.07.03Z"/>
  <path class="cls-1" d="M293.06,202.99s.06.06.06.08c-.22.88-.31,1.77-.18,2.68.03.22-.07.46-.01.66.14.48-.03.85-.29,1.24-.16.24-.36.55-.34.81.13,1.82.03,3.64.36,5.47.27,1.5.09,3.08.1,4.62,0,.2-.11.45-.03.6.52.87.2,1.78.18,2.68-.02.87.27,1.68.69,2.39.44.74.44,1.54.34,2.24-.19,1.43-.64,2.83-.69,4.29-.01.3-.07.61-.16.91-.4,1.3-.25,2.61-.08,3.93.16,1.27.09,2.55-.63,3.64-.28.42-.56.89-.9,1.25-.36.38-.92.55-1.38.84-1.44.91-3.04.88-4.65.85-1.09-.02-2.15.12-3.21.42-1.3.37-2.65.51-3.98.76-.47.09-.92.24-1.39.31-.93.12-1.77.56-2.78.44-.72-.09-1.5.34-2.27.48-.96.18-1.93.11-2.91.03-1.13-.09-2.28.13-3.42.21-1.27.09-2.55.17-3.82.23-.71.03-1.43-.04-2.14.01-.96.06-1.92.17-2.88.3-.28.04-.55.22-.84.35-.95-.38-1.91-.44-2.84.18-.13.09-.31.13-.47.15-2.45.31-4.86.95-7.34.97-.54,0-1.09-.08-1.63-.08-.29,0-.58.1-.87.15v-.02c-2.06-.63-4.08-.22-6.11.28-1.28.31-2.56.43-3.88.03-.83-.25-1.71-.27-2.61-.13-1.16.18-2.36.15-3.54.21-.84.04-1.71-.03-2.38.67-.12.12-.38.15-.57.16-.94.05-1.87.26-2.84.04-.82-.19-1.51.26-2.16.72-.32.23-.69.39-1.03.57-.3.16-.59.33-.9.46-.46.18-.93.41-1.42.46-.89.09-1.24-.15-1.53-1.02-.33-.99-.64-2-.83-3.02-.21-1.11.66-2.49,1.67-2.91-.3-1.91-.77-3.8-.71-5.75.04-1.29.2-2.56-.1-3.86-.13-.57.05-1.21.1-1.82.14-1.57-.4-3.08-.43-4.64-.01-.71.04-1.42.03-2.13,0-.54,0-1.08-.07-1.61-.21-1.3-.49-2.58-.68-3.88-.07-.46.1-.95.05-1.42-.19-2.06-.39-4.13-.62-6.19-.19-1.71-.63-3.39-.58-5.14.02-.87-.26-1.74-.39-2.62-.29-1.86-.63-3.72-.86-5.59-.22-1.82-.39-3.66-.48-5.49-.07-1.4-.48-2.71-.77-4.06-.21-.96-.31-1.93-.48-2.9-.33-1.91-.69-3.81-1.02-5.72-.18-1.07-.33-2.15-.49-3.23-.02-.17-.02-.34-.05-.51-.41-2.34-.79-4.69-1.26-7.01-.33-1.61-.51-3.22-.36-4.86.07-.74.25-1.46.38-2.19.08-.43.11-.87.24-1.27.23-.73.45-1.47.81-2.14.29-.55.68-1.15,1.18-1.48.97-.63,1.79-1.51,3.11-1.58,1.14-.06,2.25-.52,3.39-.62,1.2-.11,2.43.04,3.64-.02,1.31-.06,2.65.36,3.94-.22.23-.11.54-.06.81-.08.93-.08,1.86-.17,2.79-.25.56.13,1.1.22,1.74-.07.8-.36,1.67-.56,2.52-.81.22-.07.46-.08.7-.1.13,0,.29.1.4.06,1.49-.58,3.01.03,4.5-.14.51-.06,1.02-.15,1.52-.13.84.04,1.67.2,2.51.23.9.04,1.81.1,2.67-.29.23-.11.53-.14.78-.11,1.4.17,2.67-.47,4.01-.65.98-.13,1.91-.6,2.94-.51.13.01.29-.04.4,0,1.32.58,2.51.12,3.74-.35.76-.29,1.55-.53,2.35-.66,1.12-.18,2.19-.47,3.23-1.25.14.26.27.51.34.64.81,0,1.46,0,2.09,0,.16,0,.35-.04.49-.12,1.19-.74,2.52-.92,3.89-1.08,2.11-.25,4.19.09,6.29.15,1.18.04,2.37-.18,3.55-.3.23-.02.5-.2.69-.13.89.35,1.72.05,2.6-.07,1.17-.16,2.38-.04,3.56-.13.8-.06,1.58-.31,2.37-.41.37-.05.76.06,1.27.11.08-.01.33-.12.55-.08.89.2,1.78.44,2.66.67,1.08.28,1.88.93,2.34,1.92.31.67.55,1.41.66,2.14.22,1.44.4,2.88.52,4.34.11,1.35.04,2.64-.17,3.94-.03.17-.02.34-.02.51-.01.78.03,1.56-.05,2.33-.09.92-.05,1.81.1,2.72.16.94.15,1.9.3,2.85.2,1.3.02,2.63.36,3.92.08.31-.04.68-.03,1.02.02.91.06,1.82.1,2.73.05,1.18.11,2.36.16,3.54,0,.13-.06.28-.03.4.56,1.87.15,3.74.06,5.61-.03.5.04,1.01.11,1.51.11.78.25,1.54-.31,2.24-.15.18-.21.54-.15.77.43,1.64-.06,3.21-.24,4.81-.08.76-.15,1.52-.24,2.28-.15,1.22-.26,2.44-.38,3.66-.08,0-.16,0-.25,0-.03-.06-.06-.11-.09-.17.04.05.07.1.11.15.07,0,.14,0,.21,0ZM245.53,242.32c.05-.1.11-.21.16-.31-.04-.01-.09-.03-.13-.04,0,.12-.01.24-.02.36-.02.02-.03.03-.05.05l.03-.07ZM278.31,238.84s.03.03.05.04c-.02,0-.05-.02-.07-.02-.1-.45-.2-.91-.31-1.36-.07-.29-.22-.58-.23-.86,0-.98.29-1.96-.05-2.93-.03-.08.03-.2.07-.29.42-.94.2-1.82-.17-2.68-1.52-.18-1.99.13-2.3,1.48-.2.85-.41,1.68-.38,2.6.04,1.09.15,2.11.43,3.16.27,1.01.84,1.41,1.81,1.46.37-.19.76-.39,1.15-.59ZM242.05,233.92c-.27-.03-.53-.07-.74-.09-.75.57-.9,1.27-.9,2.11,0,1.3.22,2.56.41,3.83.14.89.1,1.72-.42,2.69.62-.11,1.08-.16,1.52-.29.51-.15.97-.18,1.49,0,.49.16,1.04.13,1.51.18.4-.77.4-1.34.16-2.04-.28-.78-.37-1.67-.33-2.51.05-1.11-.05-2.17-.34-3.15-.48-.37-.89-.7-1.36-1.07-.31.11-.66.23-1.01.36l.02-.02ZM268.48,230.67c-.07,0-.14,0-.21,0-.68.29-1.36.58-1.99.85-.13.84.31,1.49.11,2.24-.16.59.03,1.26.03,1.9,0,.59.05,1.12.4,1.65.24.37.28.88.4,1.34.15.6.29,1.2.43,1.77,1.29.02,2.49.34,3.64-.37,0-.22.05-.47,0-.68-.28-1.03-.31-2.06-.25-3.12.07-1.15.12-2.3.14-3.45.03-1.55-1.14-2.46-2.68-2.13ZM266.82,182.91c.06.32,0,.72.18.94.65.82.56,1.81.63,2.72.07,1,.17,1.95.63,2.87.76.46,1.54.85,2.48.47l-.02-.02c.32.31.69.23,1.06.12.39-.11.78-.28,1.18-.33,1.91-.2,3.82-.48,5.73-.5,1.37-.02,2.69-.18,4.15-.52.09-.42.22-.86.28-1.31.18-1.37.32-2.74.68-4.09.28-1.05.57-2.16.03-3.27-.2-.41-.17-.93-.21-1.4-.07-.85-.11-1.69-.18-2.54-.05-.57-.15-1.14-.16-1.71-.03-1.15,0-2.3-.05-3.45-.04-.8-.26-1.6-.3-2.4-.07-1.67-.06-3.34-.11-5.01-.03-1.19-.13-2.37-.15-3.56,0-.29.19-.59.3-.89.97.43,1.15.67,1.28,1.54.07.43.07.96.32,1.26.47.57.56,1.22.68,1.89.26,1.42.32,2.84.08,4.27-.04.22.03.47.06.7.3,2.12.65,4.24.5,6.41-.06.85-.12,1.71.25,2.52.05.12.09.27.07.4-.21,1.15.07,2.41-.76,3.3.04.36.15.65.09.88-.19.66-.06,1.28.14,1.9.12.39.11.75-.07,1.17-.36.83-.52,1.74-.42,2.49.53.32.94.57,1.38.84.71-.09,1.48-.19,2.24-.29.37.16.74.32,1.09.47.57-.87.66-1.07.69-1.86.05-1.18.04-2.37.11-3.56.07-1.37-.08-2.69-.38-4.03-.3-1.32-.46-2.7-.42-4.05.07-1.98-.09-3.92-.33-5.87-.14-1.14-.24-2.29-.31-3.44-.04-.73.08-1.48,0-2.21-.13-1.3.02-2.57.18-3.86.07-.56-.02-1.14-.1-1.71-.08-.6-.22-1.19-.34-1.78-.1-.5-.21-.99-.33-1.48-.12-.48-.42-.71-.94-.78-.87-.11-1.73-.34-2.6-.48-.53-.08-1.07-.17-1.59-.11-1.18.14-2.33.13-3.45-.23-.13.16-.23.28-.3.38-.5-.06-.95-.19-1.38-.15-1.52.15-3.02.39-4.54.55-1.17.12-2.37.34-3.53.23-1.56-.15-3.1-.21-4.66-.13-1.12.06-2.2.19-3.25.6-.43.17-.96.29-1.4.21-.8-.14-1.55.06-2.31.13-.98.08-1.97.11-2.95.19-.3.02-.66.04-.88.21-.94.72-1.99.78-3.11.75-.45-.01-.98.06-1.35.29-.79.47-1.62.64-2.51.73-1.17.12-2.35.27-3.52.44-1.04.15-2.07.42-3.11.48-2.07.11-4.15.16-6.2.48-.73.11-1.52.27-2.22.14-1.37-.27-2.5.36-3.76.7.04.3.13.56.11.81-.07.87-.17,1.73-.25,2.6-.02.23-.06.56.07.69.41.41.24.89.27,1.34.03.4-.03.82.04,1.21.15.9.35,1.79.51,2.69.04.22.07.52-.05.68-.34.47-.32.99-.24,1.48.2,1.23.49,2.45.74,3.68.51.27-.07.66.14,1.02.32.36.69.56,1.29.51.73-.05,1.55-.04,2.21.23.6.25,1.06.18,1.64.08.88-.17,1.8-.35,2.66.25.23.16.65.13.96.05.51-.12.94-.08,1.35.24.52.42,1.12.42,1.74.37.09,0,.17-.1.23-.14.07-.31.13-.59.21-.94.23.1.38.16.4.17.5-.23.91-.45,1.34-.6.45-.15.92-.22,1.48-.34.08-.45.24-.89.2-1.3-.09-1.1-.27-2.2-.42-3.29l.02.02c0-.51,0-1.02.02-1.53.05-1.41.07-2.83.17-4.24.08-1.02.31-2.02.4-3.04.06-.68.27-1.25.69-1.7.87-.33,1.48.13,2.24.57-.08,1.21-.17,2.46-.23,3.71-.04.77-.04,1.55-.06,2.32,0,.17-.02.35-.08.5-.41,1.04-.52,2.08-.33,3.2.25,1.46.14,3.01,1.18,4.26.11.14.08.39.12.59.05.26.06.55.18.77.23.4.16.69-.13,1.01-.5.54-.74,1.18-.79,1.93-.05.84-.49,1.64-.21,2.52.03.11-.04.27-.09.39-.35.76-.24,1.51-.07,2.29.22,1.02.37,2.07.46,3.12.11,1.22.2,2.43.9,3.58.94-.04,1.82.39,2.87-.04.77-.32,1.75-.59,2.64.04.19.14.6.04.89-.02.73-.16,1.43-.47,2.16-.53,1.39-.12,2.79-.11,4.18-.18.88-.05,1.77-.11,2.48-.75.48-1.03-.13-2.11.16-3.2.2-.78-.12-1.71-.24-2.57-.14-1.04-.3-2.08-.45-3.12-.22-1.52.16-2.86,1.17-4.05.35.42.67.76.93,1.14.17.25.32.55.35.83.08,1.08.23,2.17-.27,3.21-.13.26-.08.6-.11.9-.04.06-.08.12-.03.05-.02.09,0,.01.01-.06ZM247.16,229.21c.44.51,1.09.64,1.66.61,1.25-.06,2.52-.19,3.73-.48,1.53-.37,3.03-.74,4.63-.66.97.05,1.97.04,2.91-.36.18-.08.4-.08.6-.06,1.15.15,2.07-.41,2.88-1.06.71-.57,1.45-.65,2.18-.36.89.35,1.75.26,2.65.17,1.45-.14,2.91-.32,4.36-.3.84,0,1.67.23,2.53.07.57-.1,1.15-.19,1.72-.21.59-.03,1.02-.25,1.44-.65.27-.26.67-.49,1.04-.55,1.4-.22,2.82-.29,4.21-.56,1.48-.3,2.93-.77,4.4-1.16.16-.85.38-1.58.41-2.31.04-1.01-.06-2.03-.09-3.04-.01-.5.03-1.01,0-1.52-.05-.71-.22-1.41-.23-2.12-.03-1.83-.01-3.66,0-5.49,0-.14.03-.27.04-.41.11-.9.32-1.8.31-2.7-.04-2.23.43-4.39.76-6.57.21-1.41.64-2.79.54-4.24-.01-.2,0-.41.05-.61.29-1.31-.07-2.57-.2-3.83-1.26.24-2.44.47-3.65.7-.87.62-.94,1.6-.97,2.6,0,.34-.06.68-.11,1.01-.29,2.19-.99,4.31-1.06,6.54-.01.35-.26.69-.29.96-.1.89.03,1.8.05,2.7,0,.31.03.63-.05.91-.26.93-.57,1.85-.85,2.76-.18.11-.32.21-.47.29-.13.08-.28.13-.42.2-.5-1-.65-1.92-.39-3.03.45-1.92.14-3.93.76-5.82.06-.18-.03-.41-.02-.61.07-1.05.15-2.1.24-3.15.12-1.39.28-2.77.36-4.16.04-.71-.21-1.04-.91-1.14-.59-.08-1.21.02-1.81.04-1.48.07-2.96.17-4.44.21-1.01.03-2.02-.05-3.03,0-.98.05-1.95.22-2.93.29-1.15.08-1.63.63-1.5,1.8.07.62.25,1.29.11,1.87-.47,1.95-.65,3.88-.21,5.87.13.58,0,1.21.02,1.81.04,1.01.1,2.02.17,3.04.02.23.1.45.16.67.08.31.22.62.25.94.04.43.01.88.01,1.25.9.76,1.11.95,1.66.87,1.31-.2,2.72.43,3.88-.48.77.39.88,1.02.86,1.75-.16-.03-.37-.1-.4-.06-.62.98-1.58,1.02-2.57.93-.72-.07-1.99.51-2.36,1.13-.06.29-.12.59-.17.86-.52.31-1.01.6-1.48.88-.54-.71-1.02-1.34-1.49-1.96-.86-.04-1.67-.1-2.48-.11-.34,0-.69.02-1.01.11-.74.22-1.47.5-2.21.72-.22.06-.47.01-.7,0-.23,0-.47-.08-.7-.04-1.92.26-3.84.56-5.76.81-.52.07-1.05.01-1.79.01-.46.49-1.3,1.05-1.06,2.12.17.78-.02,1.47-.23,2.29-.61.1-1.23.2-1.88.3-.3-1.25-.57-2.35-.85-3.49-.22.12-.36.2-.5.28-.08-.24-.17-.49-.26-.76-.44,0-.85,0-1.25,0-1.31,0-2.6-.27-3.93-.23-1.56.05-3.14-.26-4.73-.19-.57.03-1.15-.13-1.72-.15-1.4-.05-2.88-.43-4.08.86-.07.33-.24.74-.21,1.13.14,1.48.32,2.96.53,4.44.12.82.14,1.64-.15,2.42-.15.4-.46.74-.7,1.1-.53-.25-.55.48-1.06.51-.17-.37-.48-.74-.51-1.14-.14-1.83-.19-3.66-.3-5.49-.05-.84-.08-1.7-.24-2.52-.12-.61-.48-1.17-1.17-1.29-.49-.08-1.03-.14-1.5-.03-1.04.25-2.12.21-3.15.61-.89.35-1.86.36-2.67-.42-.34-.32-.61-.58-.52-1.12.1-.57.35-.95.91-1.1.26-.07.54-.1.79-.2,1.67-.67,3.48-.54,5.21-.88.06-.01.14-.01.2.01.98.44,1.69-.1,2.39-.65.19-2.03-.39-4.17.96-5.99.92.15.44.84.52,1.28.17.08.31.16.38.19.2.79.33,1.54.58,2.24.29.81-.34,1.59.07,2.43.7.63,1.55.96,2.57.89.34-.02.69-.03,1.02.04,1.93.42,3.88.4,5.83.41.53,0,1.07-.21,1.6-.2,1.15.02,2.3.11,3.58.19.58-.26,1.01-.76,1-1.58,0-.51.01-1.01.02-1.52,0-.24-.08-.5,0-.7.36-.87.17-1.75.09-2.62-.14-1.61-.37-3.21-.58-4.82-.07-.49-.32-.98-.3-1.46.06-1.42.21-2.84.33-4.28-.5-1.22-.78-1.57-2.45-1.13-.33.09-.66.15-1,.18-2.81.23-5.61.55-8.43.53-1.04,0-2.11-.05-3.01.68-.21.81-.43,1.64-.64,2.45-.48.21-.9.4-1.31.58-.5-.93-.89-1.8-.38-2.74-.78-.84-1.66-.73-2.51-.47-1.08.34-2.16.55-3.29.49-.57-.03-1.16-.08-1.7.05-.69.16-1.28-.06-1.88-.28-.51-.19-.76-.57-.91-1.13-.22-.8.2-1.37.43-2.02.45-.14.87-.36,1.29-.38,1.69-.05,3.38.18,5.08.05.92-.07,1.85.06,2.85.11.17-1.64.34-3.16.47-4.68.03-.4-.07-.81-.14-1.21-.11-.67-.24-1.33-.35-2-.07-.43-.14-.86-.21-1.29-.11-.69-.3-1.39-.31-2.08-.01-.91-.19-1.73-.71-2.63-.56-.03-1.16-.05-1.76-.09-1.09-.06-2.21.01-3.24-.25-.61-.15-1.18-.2-1.78-.17-.74.04-1.5,0-2.23.12-.9.14-1.53-.13-1.96-.94-.04-.62-.18-1.28.59-1.89.78.11,1.79.07,2.63.41,1.64.68,3.28.35,4.93.33.26,0,.53-.15.77-.27.42-.22.81-.47,1.15-.67.51-.54.57-1.14.55-1.77-.04-.95-.08-1.91-.11-2.86-.01-.36.1-.75,0-1.08-.54-1.78-.58-3.62-.74-5.45-.08-.87-.13-1.75-.56-2.57-.21-.4-.14-.94-.22-1.59.05.02-.1-.11-.25-.12-.57-.02-1.15-.04-1.72.02-1.24.14-2.48.44-3.72.48-.78.02-1.46.05-1.89.58-.85-.04-1.6-.18-2.32-.09-1.31.17-2.62.41-3.91.73-1,.25-1.81.8-1.96,1.96-.09.67-.27,1.34-.26,2.01.01,1.02.23,2.03.21,3.05-.03,1.41.08,2.79.35,4.17.17.83.35,1.66.52,2.49.04.2.05.4.06.6.1,1.42.18,2.84.29,4.25.01.2.1.4.14.6.17,1.07.36,2.14.5,3.22.13.97.03,2.03.39,2.91.36.91.5,1.82.68,2.75.16.86.41,1.72.51,2.59.27,2.35.4,4.71.8,7.05.31,1.86.41,3.75,1.21,5.5.09.21.06.47.09.71.11.98.22,1.96.33,2.93.1.88.22,1.76.3,2.64.12,1.46.18,2.92.33,4.38.2,2.03.46,4.05.7,6.08.07.57.2,1.14.24,1.71.1,1.45.18,2.9.25,4.35.03.61,0,1.22,0,1.83,0,.44.05.88.01,1.32-.1.99.52,1.82,1.52,1.87,1.14.06,2.3.13,3.43,0,2.47-.29,4.93-.7,7.39-1.06.91-.13,1.82-.24,2.74-.36.77-.1,1.55-.16,2.31-.3,1.27-.22,2.52-.53,3.79-.72.51-.08,1.07.12,1.59.06,1.41-.16,2.81-.39,4.22-.61.19-.03.37-.13.57-.17.61-.11,1.18-.56,1.84-.22-.01.02-.03.03-.04.05,0-.02.02-.04.02-.06ZM251.23,212.69c1.33-.24,2.56-.51,3.79-.68,1.18-.17,2.36-.25,3.55-.36,1.29-.12,2.58-.34,3.86-.28.92.04,1.75-.07,2.58-.39,1.13-.44,1.78-1.41,1.62-2.61-.14-1.01-.3-2.03-.61-3-.5-1.5-.17-2.95.06-4.42.13-.83.3-1.68.28-2.51-.03-.98-.25-1.95-.39-2.92-.13-.86-.26-1.72-.4-2.63-.52-.08-.96-.25-1.38-.2-.65.08-1.27.35-1.96.28-.5-.05-1.01-.03-1.51,0-1.19.06-2.37.14-3.55.21-.31.02-.65-.05-.91.06-1.23.54-2.54.45-3.83.58-.81.08-1.67.13-2.38.68-.52.41-1.01,1.34-.76,1.77.57.98.3,1.95.17,2.96-.13,1-.28,2.09-.02,3.03.47,1.67.5,3.35.54,5.05.02.67-.04,1.35.01,2.03.06.84.2,1.67.31,2.51,0,.06.07.11.15.24.15-.02.33-.05.53-.08.08.21.16.43.26.69ZM231.59,178.66c-.79.63-.97.93-.84,1.6.23,1.26.5,2.52.75,3.78.04.2.03.4.02.61-.03.97-.17,1.96-.07,2.91.12,1.18.37,2.34.18,3.55-.1.65.4,1.22.96,1.22.54,0,1.07-.07,1.61-.09,1.19-.04,2.38-.15,3.56-.08,1.23.08,2.44.12,3.66,0,.33-.03.67.07,1.01.08.29,0,.59-.01.88-.06.39-.07.77-.21,1.17-.24.44-.03.88.04,1.32.05,1.29.02,1.43-.92,1.31-1.81-.03-.23-.21-.44-.22-.66-.08-2.04-.15-4.07-.7-6.05-.04-.16-.03-.34-.02-.51.13-1.48.26-2.96.39-4.4-.51-.46-.98-.6-1.58-.48-.78.16-1.56.32-2.36-.06-.43-.21-.9-.14-1.36.13-.29.17-.71.12-1.07.16-.23.02-.48-.02-.69.05-1.27.38-2.56.26-3.85.21-.36-.01-.72.03-1.08.09-.99.17-1.98.55-2.99,0ZM261.86,232.5c-1.15.15-2.35.3-3.62.46-.34.58-.92,1.13-.98,1.74-.13,1.28-.58,2.6.1,3.89.15.28.14.66.14,1,0,.91.11,1.05,1.02,1.07.34,0,.67-.05,1.01-.08.54-.05,1.08-.17,1.62-.14.63.04,1.13-.14,1.57-.63,0-.22.01-.46,0-.69-.11-1.66-.25-3.32-.32-4.98-.02-.55.04-1.09-.56-1.64ZM248.9,241.3c.45.19.95.53,1.48.61,1.2.16,2.36,0,3.32-.92.2-.58-.19-.89-.62-1.1.05-.54.15-1.01.12-1.47-.08-1.28.04-2.56-.15-3.85-.16-1.02-.36-1.36-1.37-1.2-.7.11-1.4.23-2.17.36-.56.67-1.09,1.34-1.06,2.44.02.94.3,1.82.31,2.75.01.75.08,1.49.14,2.4ZM236.26,234.43c-.69,0-1.17-.03-1.64,0-1.05.08-2.12.26-2.42,1.47-.16.62-.03,1.31,0,1.97.02.33.23.7.13.99-.31.97,0,1.9.07,2.83.05.74.44,1.12,1.18,1.18,1.23.11,2.45.11,3.61-.85-.3-2.45-.61-4.98-.93-7.6ZM282.64,238.39c1.2,0,2-.56,2.74-1.21-.03-.6-.17-1.17-.06-1.68.18-.84-.07-1.61-.12-2.41-.06-.95.03-1.92.06-3-.8-1.13-1.05-1.16-2.83-.22-.94,2.49-.45,5.13-.51,7.75.27.29.53.56.74.78ZM227.94,236.5c-1.04-.32-1.8-.05-2.36.78.03,1.9.23,3.77.83,5.75.64-.22,1.15-.4,1.76-.61-.08-2.03-.15-3.94-.23-5.91ZM221.1,243.31c.81-.65,1-1.36.64-2.28-.26-.65-.37-1.36-.55-2.03-.11-.39-.23-.77-.34-1.17-.72-.04-1.3-.08-1.94-.12-.02,1.39-.25,2.63.25,3.83.06.15.09.33.11.5q.13,1.36,1.52,1.25c.1,0,.2.02.33.03Z"/>
  <path class="cls-1" d="M179.97,190.02c.33.44.5.84.79,1.01.53.31.62.8.71,1.28.24,1.21.1,2.41-.14,3.63-.22,1.13-.26,2.29-.34,3.44-.14,2.05-.26,4.11-.39,6.17,0,.1-.04.2-.03.3.19,2.43-.29,4.87.12,7.32.19,1.12-.04,2.31-.13,3.46-.1,1.18-.29,2.36-.39,3.54-.1,1.12-.16,2.25-.18,3.37-.01.57.1,1.14.16,1.7.11.97.24,1.94.36,2.92.17,1.45.19,2.93.56,4.33.2.76.17,1.44.15,2.18-.03,1.05,0,2.11,0,3.16-.04,2.52-1.38,4.24-3.45,5.46-.51.3-1.15.39-1.76.59-1.26-.49-2.62-.44-3.96-.46-1.61-.03-3.19-.17-4.59-.97-.19-.37-.36-.7-.54-1.02-.62-1.11-.46-2.32-.44-3.5.04-1.97.05-3.93-.28-5.89-.16-.97-.13-1.96-.22-2.94-.04-.47-.13-.94-.21-1.41-.05-.33-.17-.64-.19-.97-.06-1.25-.25-2.53-.08-3.75.11-.75-.04-1.53.26-2.3.23-.61.07-1.41-.05-2.1-.21-1.24-.58-2.45-.77-3.69-.26-1.77-.4-3.56-.62-5.34-.22-1.79-.48-3.57-.74-5.35-.27-1.88-.57-3.74-.43-5.65.04-.63-.06-1.26-.12-2.16.24-.4.69-1.01.59-1.86-.03-.25.15-.61.35-.8.49-.47.81-.94.51-1.48.34-.54.59-.96.86-1.37.37-.57.95-.93,1.57-1.02,1.37-.19,2.75-.38,4.12-.34,2.48.08,4.94.33,7.42.5.52.04,1.05,0,1.51,0ZM169,195.41c-.02.17.03.39-.06.49-.68.81-.5,1.77-.37,2.65.14.96-.06,1.88-.42,2.66-.47,1.01-.54,2.01-.45,3.04.14,1.68.26,3.35.66,5.02.32,1.34.24,2.76.35,4.15.1,1.32.22,2.64.31,3.97.1,1.32.18,2.64.26,3.97.01.2-.04.42.01.6.41,1.36.42,2.75.41,4.14,0,.75-.03,1.51.09,2.24.11.63.1,1.22-.1,1.81-.37,1.09-.04,2.14.34,3.09.48,1.19,1.03,2.32,1.14,3.63.08.88.9,1.7,1.75,1.71,1.11.01,2.22-.07,3.27-.11.96-1.29.68-2.69.67-4.01,0-1.21-.29-2.42-.41-3.63-.06-.55,0-1.12,0-1.68.04-.22-.11-.44-.11-.67,0-1.46-.68-2.81-.53-4.31.12-1.17,0-2.36.05-3.54.03-.81.22-1.62.24-2.43.04-1.66.13-3.33-.17-4.99-.1-.52-.05-1.11.12-1.61.15-.46.18-.86.04-1.29-.43-1.32-.02-2.76-.55-4.07-.02-.06.01-.13.02-.2.05-.78.13-1.56.15-2.34.03-1.22,0-2.43.03-3.65.03-.95.15-1.89.18-2.84,0-.24-.15-.49-.25-.73-.11-.25-.26-.49-.47-.89-1.87-.95-3.94-1.16-6.15-.19Z"/>
  <path class="cls-1" d="M193.08,188.47c.8.27,1.58.63,2.4.78.7.13,1.45.19,2.15.21,1.01.03,1.9.37,2.83.65l-.02-.02c.94.99.92,2.31,1.13,3.53.09.49-.27,1.05-.28,1.57-.04,1.6.01,3.19-.01,4.79-.02,1.01-.15,2.02-.17,3.03-.01.54.09,1.08.13,1.62.03.51.14,1.04.03,1.52-.25,1.1.02,2.16.11,3.23.15,1.76.71,3.47.54,5.27-.06.67-.02,1.34,0,2.01,0,.27.04.56.14.8.2.47.19.87.03,1.37-.25.77-.03,1.54.27,2.28.09.22.26.41.31.64.35,1.44.67,2.9,1.01,4.34.09.4.14.83.33,1.18.44.81.44,1.69.55,2.55.15,1.15.19,2.3.04,3.46-.09.62.03,1.28.11,1.92.15,1.21-.45,2.25-.81,3.33-.13.4-.59.75-.98.98-.86.5-1.71,1-2.77,1.09-.8.07-1.61.32-2.37.61-.77.29-1.55.33-2.34.42-.46.05-.91.24-1.36.4-1.02.37-2.03.49-3.09.17-.43-.13-.73-.33-.94-.71-.82-1.49-1.24-3.05-.87-4.76.09-.42.09-.87.1-1.31.04-1.49.07-2.97.09-4.46,0-.34-.02-.68-.08-1.01-.31-1.77-.65-3.54-.93-5.32-.19-1.17-.31-2.35-.46-3.53-.01-.1-.07-.2-.06-.3.03-2.27.1-4.55.08-6.82-.01-1.63-.11-3.26-.22-4.89-.08-1.21-.12-2.45-.4-3.63-.35-1.49-.22-2.95-.23-4.44,0-1.31-.23-2.65-.53-3.94-.37-1.61-.4-3.19.21-4.71.33-.82.71-1.64,1.58-2.17.93-.57,1.89-1.05,2.88-1.47.24-.1.54-.04.8-.08.36-.06.72-.14,1.07-.21l-.02.02ZM191.61,194.6c-.17,1.67-.39,3.29-.47,4.92-.05,1.05.09,2.1.16,3.16.1,1.45.21,2.9.3,4.36.04.75.01,1.5.06,2.24.04.61.16,1.2.2,1.81.06.78.11,1.56.12,2.34.01.81-.02,1.61-.03,2.42,0,.57-.03,1.15,0,1.72.06,1.05.26,2.11.21,3.15-.08,1.59.06,3.14.55,4.63.26.8.37,1.57.33,2.4-.07,1.58.23,3.11.64,4.63.1.36.25.75.18,1.08-.16.71.07,1.35.29,1.97.16.45.52.83.8,1.25.52-.06,1.06-.12,1.6-.18.54-.06,1.09-.1,1.62-.18,1.16-.19,2.03-.94,2.05-1.91.03-1.21-.18-2.43.09-3.64.03-.15-.05-.33-.1-.5-.35-1.17-.72-2.34-1.04-3.52-.22-.82-.39-1.65-.54-2.48-.12-.63-.21-1.28-.26-1.92-.24-2.69-.9-5.34-.54-8.1.22-1.68-.17-3.37-.66-5.01-.3-.97-.77-1.92-.3-2.97.05-.12.05-.27.03-.4-.15-1.27-.36-2.54-.44-3.81-.08-1.21-.29-2.42.11-3.64.2-.6.23-1.29.16-1.92-.12-1.07-.72-1.99-1.48-2.09-.47-.06-.96-.07-1.41-.22-.82-.28-1.52-.1-2.22.42Z"/>
  <path class="cls-1" d="M319.49,214.46c.1.49.22.98.3,1.48.13.8,0,1.64.56,2.35.14.18.06.52.09.79.03.26-.02.58.12.78.37.56.35,1.21.28,1.76-.19,1.38,0,2.71.22,4-.24.85-.45,1.66-.7,2.47-.27.88-.84,1.59-1.56,2.08-.49.34-1.19.42-1.8.54-1.53.31-3.07.58-4.61.86-.3.05-.61.06-.91.06-1.08,0-2.16-.02-3.24-.04-.61-.01-1.23.02-1.82-.11-.93-.2-1.46-.96-1.9-1.72-.38-.66-.07-1.32.27-1.93.5-.9.81-1.85.83-2.91.01-.91.18-1.81.25-2.72.15-2.03.36-4.06.39-6.1.03-1.82.06-3.65-.26-5.48-.22-1.29-.15-2.63-.24-3.94-.06-.81-.18-1.62-.26-2.44-.05-.54-.04-1.09-.1-1.63-.07-.67-.19-1.34-.29-2-.01-.1-.05-.2-.04-.3.04-1.29.07-2.58.15-3.87.03-.51.16-1,.26-1.58-.42-.69-.31-1.5-.2-2.32.06-.4.07-.81.14-1.21.24-1.23-.14-2.41-.36-3.58.53-.84,1.03-1.65,1.56-2.44.43-.65,1.09-.89,1.84-.94.75-.05,1.51-.03,2.23-.19.85-.18,1.66-.55,2.51-.78.58-.16,1.2-.28,1.8-.27.31,0,.62.32.95.45.41.18.84.33,1.22.56,1.12.7,1.45,1.71,1.62,3.05.23,1.86.44,3.73.71,5.59.06.41-.04.84-.07,1.3.41.23.42.7.42,1.13-.03,1.8-.29,3.62-.09,5.4.22,1.92,0,3.8,0,5.7,0,1.46.03,2.92,0,4.38-.03,1.26-.15,2.51-.22,3.76l-.05.04.04-.05ZM309.27,199.75l-.02-.02c0,.44-.03.89,0,1.32.16,1.75.58,3.47.58,5.25,0,2.11.17,4.21.28,6.4-.11.07-.32.19-.4.24.1.66.22,1.13.22,1.59,0,.92-.08,1.84-.06,2.76.01.49.21.98.24,1.48.05.76.18,1.57,0,2.28-.18.67-.28,1.32-.27,2,0,1.05,0,2.11,0,3.38.19.49.77.71,1.46.68,1.66-.07,3.18-.63,4.57-1.49.27-.16.55-.51.59-.8.13-1.17.27-2.36.21-3.53-.05-.92-.41-1.82-.62-2.73-.61-2.64-.9-5.3-.47-8,.05-.3,0-.61,0-.91,0-.47-.1-.96.01-1.4.31-1.19.35-2.4.44-3.61.04-.57.13-1.16.04-1.71-.37-2.25-.67-4.49-.38-6.78.22-1.73-.24-3.35-1.02-4.91-.38-.76-1.07-1.37-1.12-2.32-.03-.49-.51-.8-.98-.6-.57.24-.97-.04-1.44-.26-.43.23-.85.45-1.19.64-.16.45-.37.81-.4,1.19-.03.39.13.8.19,1.2.02.1-.02.2-.03.3-.13,1.57-.37,3.15-.36,4.72,0,.69-.04,1.34-.18,2-.12.56-.24,1.13.12,1.66Z"/>
  <path class="cls-1" d="M149.23,165.55c-.06-1.05.24-1.85,1.06-2.62.71-.66,1.27-1.47,2.25-1.73.71-.19,1.46-.26,2.19-.39.39-.07.79-.16,1.18-.22.29-.04.6-.1.87-.04,1.25.28,2.41.79,3.49,1.46.22.14.48.34.56.57.33.94.78,1.86.47,2.94-.6,2.11-1.37,4.13-2.94,5.71-.45.45-1.12.73-1.73.99-.95.41-2,.61-3,.42-1.05-.21-2.03-.62-2.76-1.56-1.28-1.65-1.41-3.59-1.64-5.52ZM154.8,167.1c.33.14.62.27,1.05.45.04-.4.06-.71.09-1.03-.08-.06-.16-.11-.24-.17-.17.46-.87-.07-.9.75Z"/>
  <path class="cls-1" d="M320.58,248.46c-.31-.3-.59-.63-.93-.91-.85-.7-1.3-1.52-1.02-2.67.28-1.17.59-2.25,1.65-3.03.5-.37.84-1.05,1.1-1.66.28-.67.8-.99,1.39-1.23.55-.23,1.17-.3,1.7-.56.56-.27,1.08-.3,1.67-.21,1.52.25,3.01.54,4.28,1.51.21.16.49.23.83.38.14,1.01.43,2.07.39,3.11-.04.82-.4,1.66-.78,2.4-.37.7-1.03,1.25-1.43,1.94-.48.84-1.58.74-2.05,1.52-1.08-.02-2.06.65-3.19.36-1.18-.31-2.38-.55-3.58-.82,0-.05-.02-.1-.03-.15ZM324.84,244.45c-.09.12-.15.18-.18.25-.01.04.05.1.08.16.07-.04.18-.07.2-.13.02-.06-.05-.15-.11-.28Z"/>
  <path class="cls-1" d="M160.38,266.96c-.09-.19-.16-.51-.34-.74-.67-.87-.8-1.91-1.02-2.93-.03-.13-.12-.33-.06-.39.66-.72.35-1.85,1.13-2.54.25-.22.33-.65.45-.99.29-.84.68-1.54,1.71-1.62.37-.03.72-.19,1.08-.32,1.61-.59,3.19-.37,4.81,0,.94.22,1.28,1.05,1.94,1.53.23,1.17,1.34,1.98,1.35,3.25,0,.43.06.86.06,1.3,0,.24-.12.49-.07.71.23.9-.27,1.59-.82,2.05-1.06.89-2.22,1.69-3.43,2.35-2.04,1.1-3.94.55-5.67-.81-.34-.27-.69-.53-1.11-.84ZM164.09,264.34c.36.24.67.43.98.63.8-.56,1.95-.67,2.04-1.94-.1-.12-.2-.26-.3-.39-.56-.74-.74-.78-1.49-.29-.42.28-.83.57-1.23.85v1.14Z"/>
  <path class="cls-1" d="M322.93,142.14c.31.63.63,1.31.98,1.98.65,1.25.59,2.49,0,3.74-.14.3-.15.67-.27.98-.29.74-.64,1.43-1.45,1.75-.12.05-.27.11-.35.21-.81,1.05-2.07.99-3.18,1.29-.23.06-.47.04-.7.1-.69.19-1.32.03-1.81-.43-.64-.6-1.23-1.26-1.8-1.93-.35-.41-.57-.94-.95-1.31-.64-.63-.81-1.3-.46-2.12.08-.19.24-.37.23-.55-.04-1.21.57-2.01,1.47-2.74.25-.21.49-.43.78-.54,1.41-.49,2.81-1.1,4.34-1.01,1,.06,1.99.35,3.17.57ZM318.53,146.17c-.28.42-.49.67-.19,1.03.32-.11.6-.22,1.01-.37-.3-.25-.52-.42-.82-.66ZM319.68,146.32v.08s.07-.03.07-.03l-.07-.04Z"/>
  <path class="cls-1" d="M270.22,174.2c-.04-.2-.08-.38-.11-.51-.75.39-1.47.84-2.25,1.14-.73.29-1.23.75-1.58,1.39-.91.27-1.68.18-2.26-.68-.16-.23-.56-.34-.88-.4-.32-.07-.67-.01-.99-.01-.34-.62-.24-1.1.15-1.6.29.09.54.16.89.27-.03-.19-.05-.33-.08-.51.18-.12.37-.25.61-.4-.06-.67-.09-1.35-.17-2.02-.27-2.36-.56-4.72-.84-7.09-.02-.2,0-.42-.05-.61-.23-.77.05-1.33.79-1.85.38.13.85.29,1.44.5.35,1.67.72,3.34,1.03,5.03.12.63.07,1.29.11,1.94.05.85.07,1.7.19,2.54.05.37.33.72.52,1.12,1.13-.54,1.87.19,2.58.66.47-.06.86-.12,1.41-.19.12-.1.38-.31.7-.58.32.5,1.13.64.81,1.51-.65.19-1.26.67-2.03.35Z"/>
  <path class="cls-1" d="M260.47,174.06c.14.51.25.88.39,1.38-.49.11-.87.26-1.26.27-.73.01-1.38.19-2.07.45-.82.31-1.71.4-2.6.58-.32-.21-.63-.41-.95-.63.18-.92.63-1.48,1.5-1.79.97-.34,1.9-.67,2.97-.41.65.16,1.35.1,2.02.15Z"/>
</svg>