<?xml version="1.0" encoding="UTF-8"?>
<svg id="Livello_1" data-name="Livello 1" xmlns="http://www.w3.org/2000/svg" viewBox="0 0 489 489">
  <defs>
    <style>
      .cls-1 {
        fill: #000;
      }

      .cls-1, .cls-2 {
        stroke-width: 0px;
      }

      .cls-2 {
        fill: #fff;
      }
    </style>
  </defs>
  <path class="cls-2" d="M309.11,241.9c2.59.84,4.56-1.09,6.86-1.15,4.19-2.36,9.13-2.56,13.41-4.66,1.6.25,2.78-.83,4.15-1.23,1.3-.38,2.6-.52,3.83-1.3.81-.51,2.14.1,2.99-.81,1.57.48,2.9-.88,4.39-.64,1.67.27,2.64-1.13,4.11-1.42,3.13-.63,6.2-1.57,9.26-2.56,3.92-1.27,7.78-2.67,11.58-4.27,1.8-.76,3.7-1.3,5.69-1.99.85-.86,1.86-1.87,2.93-2.94.23-.73.26-1.86.85-2.45,1.1-1.1,1.31-2.75,2.36-3.68,1.15-1.01.59-2.78,2.03-3.58.38-.21.29-1.16.51-1.74.84-2.19,2.4-3.93,3.81-5.74.79-1.01,1.59-2.07,2.7-2.89.76-.56,1.21-1.64,1.24-2.78.02-.69.4-1.37.62-2.08-1.32-1.54-2.65-3.1-4-4.65-1.8-2.07-2.69-4.66-3.96-7.03-1.94-3.62-3.7-7.34-5.43-11.07-1.49-3.22-3.22-6.31-3.28-9.97-1.41-2.46-.6-4.15,1.81-5.32.13-.06.11-.39.19-.57.6-1.32,2.32-1.93,2.25-3.77-.03-.62.79-1.27,1.09-1.7,2.42.91,4.23,1.79,6.34,1.56,3.15-.36,5.99,1.09,8.99,1.64,2.14.4,4.25.9,6.33,1.61.8.27,1.73.1,2.28.97.11.17.36.44.48.41,2.04-.52,3.24,1.33,4.95,1.79,1.55.42,3.11,1.13,4.54,1.88,2.01,1.05,3.95,2.22,6.09,3.04.57.22,1.07.7,1.52,1.14,1.19,1.16,2.34,2.37,3.47,3.52,1.5-.05,2.37-.67,3.35-1.81,1.42-1.65,2.69-3.5,4.55-4.79.73-.51,1.03-1.6,1.7-2.25,1.31-1.26,2.73-2.4,4.22-3.68-.17-.33-.36-.69-.59-1.14.42-.87.9-1.85,1.53-3.16,1.33-.21,2.89-.46,4.54-.73.54.7,1.01,1.31,1.73,2.26.21,1.33.14,3.1-1.09,4.89-4.43,1.36-6.44,5.39-8.86,8.97-2.5,3.72-4.84,7.51-8.16,10.64-1.82,1.72-3.17,3.94-4.59,5.77,1.11,1.07,2.05,1.98,2.64,2.55v3.53c-.31.31-.55.55-.78.78-1.58.49-3.17-.09-4.83-.18-1.18-.62-2.53-1.32-3.88-2.03-2.49-2.06-5.13-4.19-5.59-7.89,2.47-2.55,3.1-2.77,5.17-1.5-.55.72-1.09,1.42-1.73,2.25.34.78.82,1.87,1.29,2.97-.1.05-.19.11-.29.16.82.74,1.63,1.49,2.55,2.32,1.99-.08,3.8,2.01,6.37,1.1-.38-.63-.68-1.15-.98-1.64-2.92.09-5.25-1-7.15-3-.56-2.59,1.35-4.16,2.55-5.91,1.14-1.67,2.97-2.84,3.99-4.69.24-.43.98-.59,1.75-1.02-.98-1.02-1.75-1.93-2.63-2.72-1.2-1.07-2.48-2.05-3.72-3.08-.09-.07-.15-.21-.24-.23-3.79-.86-6.71-3.61-10.37-4.76-1.48.58-1.77-1.41-3.12-1.4-.97,0-1.94-.61-2.93-.91-1.19-.36-2.37-.75-3.58-1-1.45-.3-2.99-.27-4.38-.72-3.2-1.04-6.43-1.51-10.09-1.22.16.7.25,1.38.46,2.01.37,1.08.72,2.14.99,3.27.45,1.86,1.41,3.63,2.32,5.35,1.01,1.92,1.89,3.95,3.12,5.68,1.29,1.82,2.08,3.83,3.15,5.71,1.1,1.93,2.14,3.9,3.85,5.41,2.37,2.09,4.18,4.8,7.03,6.36.19.1.4.28.46.47.67,1.99,2.52,2.77,3.98,3.96,1.5,1.23,3.03,2.44,4.43,3.78,1.4,1.33,3.23,2.13,4.57,3.37,2.38,2.19,5.53,3.17,7.81,5.5.84.86,2.43,1.27,3.63,1.55,1.47.34,2.74,1.03,4.02,1.63,4.68,2.2,7.08,3,13.22,3.87.73.97,2.07.21,2.65.71,1.04.9,1.67-.48,2.52-.09.65.3,1.37.46,2.25.74.26-.35.58-.79.93-1.28-.42-2.14-.85-4.4-1.33-6.65-.08-.39-.44-.7-.6-1.08-1.18-2.86-2.46-5.66-4.05-8.32-.16-.26-.24-.59-.44-.81-1.8-2.04-3.4-4.31-5.47-6.03-2.93-2.43-5.05-5.61-7.97-7.98-1.41-1.14-2.39-2.47-3.19-3.99-.26-.5-.22-1.16-.4-2.25.88.48,1.37.63,1.7.95,2.23,2.17,4.44,4.36,6.6,6.6.5.51.66,1.45,1.22,1.78,1.3.77,1.23,2.52,2.95,3.19,2.08.82,7.73,7.36,8.17,9.48.4,1.88,1.7,3.08,2.36,4.72.95,2.37,1.82,4.67,1.82,6.84,1.12,2.15,2.07,3.99,3.32,6.38-.15.7-.44,2.02-.76,3.47-.84.83-1.79,1.77-2.9,2.87-3.15.25-6.31-.8-9.54-1.25-3.23-.44-6.34-1.13-9.42-2.24-3.09-1.12-6.33-1.82-9.39-3.1-2.95-1.23-5.82-2.6-8.66-4.04-2.85-1.45-5.66-2.96-8.45-4.43-.41,1.37-1.61,2.47-2.83,3.22-1.12.69-1.79,1.57-2.58,2.52-.73.89-1.87,1.43-2.7,2.26-.96.96-1.61,2.34-2.71,3.03-1.22.76-1.23,2.03-1.94,2.98-2.61,3.47-5.29,6.85-8.2,9.42-.99.38-1.55.64-2.14.82-1.68.52-3.34,1.27-5.05,1.45-3.16.32-6.04,1.7-9.16,2.09-.72,1.06-1.82.46-2.74.63-2.45.44-5.06.34-7.28,1.95-1.15.36-2.51-.46-3.73.46-1.05.8-2.67-.45-3.62.91-2.62-.29-5,.72-7.45,1.34-2.92.74-5.82,1.54-8.75,2.23-3.66.86-7.2,2.08-10.99,2.54-2.41.29-4.97.75-7.16,1.95-1.25.69-2.49.47-3.64.88-2.77,1.1-5.54,2.2-8.32,3.3,0,1.48-.35,3.05.1,4.33.49,1.39.55,2.7.57,4.09.02,1.44-.26,2.95.05,4.32.79,3.45.52,7.05,1.37,10.43,1.01,4.04.21,8.06.68,12.22-.58.44-1.2.91-2.08,1.58-3.45.59-7.4.71-11.29,1.39-.55.1-1.18-.27-1.86-.45-.91,1.12-2.36.16-3.66.36-1.93,1.23-3.85,2.46-5.9,3.78.72,2.5,1.97,4.71,4,7.19-.11,1.36.24,3.35-.56,5.38-.52,1.33-1.25,2.55-2.18,3.38-1.03.92-1.98,2.01-3.53,2.53-1.36.46-2.55,1.76-3.88,2.63-2.56,1.68-5.58,2.22-8.45,3.93-.85-.06-2.06-.05-3.22-.25-.79-.14-1.53-.59-2.28-.91-.75-.32-.3-1.85-1.61-1.61-1.38-2.45-3.55-4.37-4.55-7.11-.38-1.05-.5-1.74.25-2.57-1.21-.63-2.22-.06-3.32.39-2.09.86-3.84,2.43-6.21,2.76-.82.12-1.52,1.06-2.46,1.76-.29,3.31,1.78,6.91.25,10.26.21.96.38,1.76.52,2.39-.19.4-.25.59-.36.77-.72,1.13-1.97,1.72-2.91,2.63-1.26,1.22-3.29,1.61-4.88,2.54-.96.56-2.29-.39-2.97.89-3.2.13-6.42.48-9.61.31-2.91-.16-5.88-.44-8.64-1.62-.28-.12-.66-.02-.99-.02-1.33-1.13-1.08-2.69-1.08-4.16,0-1.55.07-3.11-.03-4.66-.08-1.24-.36-2.46-.56-3.75h-13.23c-1.01,2.63-2.04,5.32-3.29,8.55-.58.76-1.55,2.03-2.54,3.32-.23-.21-.47-.42-.76-.68-.14.41-.27.79-.41,1.2-.54-.16-1.08-.41-1.63-.47-.77-.08-1.56,0-2.33-.03-3.36-.14-6.71-.29-9.91-.43-3.72-3.17-7.78-5.54-10.57-8.97.28-1.73.51-3.19.7-4.37.74-2.29,1.4-4.35,2.1-6.53-5.92-2.74-10.43-7.51-16.6-9.55-1.26,1.96-3.13-1.4-4.45.36-1.81-.68-3.61-1.36-5.67-2.13-.16-.29-.51-.91-.61-1.08.16-1.9.28-3.36.41-4.83-1.44-.98-.3-2.62-1.01-3.93-.62-1.13-.32-2.76-.43-4.26-.23-.23-.54-.54-.78-.78-3.01,1.62-6.18,2.17-9.43,1.73-2.63-.52-2.82-2.88-3.69-4.71-.44-.93-.86-1.87-1.34-2.78-.15-.28-.63-.48-.64-.73-.04-3.06-2.75-4.24-4.26-6.28-1.26,0-2.47-.01-3.69,0-2.36.03-4.65-.47-6.65-1.64-1.84-1.08-4.17-1.71-4.9-4.15-1.44-.1-1.37-1.68-2.29-2.35-1.28-.94-1.88-2.41-1.55-3.97.28-1.31-1.36-2.43-.21-3.72-1.28-1.01.2-2.76-1.09-3.93-.44-.4-.07-1.69-.07-2.59-.75-1.02-1.5-2.05-1.91-2.6-1.32-.47-2.1-.75-2.92-1.05-.32.21-.66.45-1.14.77-.3-.18-.65-.4-1.02-.63-1.69,2.18-3.43,4.43-5.06,6.54-.52,0-.75.03-.97,0-1.41-.22-2.58,1.17-4.04.62-1.16-.43-2.35-.78-3.46-1.3-2.85-1.31-5.96-1.71-8.93-2.58-2.01-.58-3.71-1.73-5.72-2.35-4.21-1.29-8.46-2.6-12.33-4.83-.52-.3-1.2-.32-1.79-.49-2.38-.68-4.56-1.87-6.84-2.82-1.04-.43-2.09-.88-3.18-1.16-1.56-.4-2.7-1.53-4.13-2.12-1.34-.55-2.72-.86-3.93-1.85-1-.82-2.35-1.3-3.62-1.67-3.43-1.01-6.57-2.53-9.4-4.71-.28-.21-.86-.03-1.1-.03-1.55-1.27-2.97-2.43-4.5-3.68v-1.87c.59-.86,1.28-1.79,1.87-2.77.53-.88,1.01-1.8,1.41-2.74.47-1.11,1.51-1.58,2.3-2.35.72-.7,1.13-1.73,1.84-2.87-.78-.27-1.59-.4-2.2-.81-.62-.42-1.04-1.03-1.97-.97-.41.03-.87-.55-1.27-.88-.57-.47-.95-1.07-1.9-1.11-1.39-.06-1.69-1.11-1.42-2.49,1.82-.33,3.53-.22,4.96,1.25,1.36,1.39,3.24,1.83,5.07,2.7,3.19-2.63,5.64-5.95,8.16-9.66-2.31-1.58-4.53-3.1-7.01-4.79.17-.63.37-1.39.58-2.18.45.09.63.08.75.16.88.57,1.72,1.2,2.63,1.72,1.89,1.08,3.81,2.09,5.99,3.28h3.71c4.09,3.41,8.09,6.99,12.36,10.2,2.22,1.67,4.57,3.26,7.08,4.57,3.13,1.64,5.9,3.9,8.99,5.67,1.47.84,2.61,2.24,3.91,3.35,1.97,1.67,4.14,2.91,6.27,4.28,1.16.75,2.18,1.74,3.24,2.64,3.32,2.79,7.43,4.48,10.55,7.56.73.72,1.75,1.15,2.58,1.78.94.71,2.3,1.33,2.64,2.28.59,1.66,2,2.1,3.14,2.97.4.31,1.02.38,1.35.73,3.31,3.55,7.58,5.83,11.48,8.58,2.17,1.53,4.35,3.21,6.96,4.08.29.1.58.29.78.52,2.25,2.48,5.28,3.93,7.97,5.79,3.55,2.46,7.54,4.27,11.34,6.35.19-.13.52-.29.51-.36-.76-3.04-.71-6.25-1.86-9.22-.11-.29-.15-.65-.1-.95.45-2.74-.8-5.34-.72-8.05.01-.44-.5-.9-.75-1.31-3.45-.12-6.33-1.11-7.88-4.6v-4.02c.39-.31.91-.72,1.53-1.2-.29-.76-.54-1.43-.84-2.22-1.29.48-2.4.88-3.47,1.28-.57-.29-1.11-.56-1.98-1,.26-1.89.55-3.96.79-5.75-.6-.99-1.03-1.7-1.6-2.64-.97.23-1.94.45-2.99.7-.09-.64-.18-1.25-.31-2.12-1.07.57-1.88.82-2.67,1.84-1.46,1.91-3.11,4.05-6.56,3.58-1.4-1.85-3.01-3.98-4.61-6.1-.19-.26-.38-.52-.6-.75-2.77-2.74-5.19-5.77-7.63-8.8-.56-.69-1.71-1.21-2.46-1.96-1.45-1.45-2.93-2.86-4.05-4.64-1.08-1.74-3.31-2.56-3.98-4.69-2.23-.36-2.1-2.67-3.25-3.93-1.16-1.27-2.29-2.58-3.3-3.96-2.1-2.89-4.14-5.82-6.14-8.78-1.16-1.72-2.4-3.44-3.22-5.33-.54-1.23-1.3-1.84-2.67-2.57-.41-1.33-.92-3-1.37-4.47,1.07-.88,2.06-1.68,3.14-2.57.29,0,.88.18,1.15-.03,1.61-1.27,3.31-2.49,4.67-4,2.9-3.25,6.5-5.42,10.35-7.26,1.15-.55,2.24-1.14,3.15-2.1.64-.68,1.45-1.31,2.31-1.63,1.4-.52,1.89-2.44,4.05-2.23,1.87,1.26,4.6,1.79,6.26,4.05.75,1.02,1.73,1.95,2.2,3.09,1.85,4.45,4.63,8.33,7.23,12.33.46.7,1.01,1.35,1.4,2.09.74,1.39,1.41,2.85,2.62,3.91,3.27,2.86,5.38,6.64,8,10.02,1.09,1.41,1.96,3,3.1,4.36,1.53,1.82,3.93,5.23,4.36,6.81.5,1.85,1.37,3.44,2.61,4.93,1.2,1.44,2.26,3.06,2.05,5.35-1.85,2.07-5,3.15-6.23,6.29-1.93-.31-2.73,2.59-5.21,1.84.97-2.47,3.43-3.56,5.01-6.05-1.09.42-1.87.5-2.32.94-1.91,1.86-4.42,3.05-6.24,5.52.66.27,1.09.45,1.55.64.4.92-.4,2.26,1.38,3.13,1.54-.11,3.64-.17,5.46.73,1.14.56,2,1.67,2.84,2.41,1.14.26,2.16.5,3.49.81.27-.35.69-.89,1.48-1.92,2.48-.82,5.36-2.39,8.8-2.05,2.14.21,4.02-1.09,6.11-1.34.36-.04.93-.45.97-.75.25-1.91,2.57-2.03,3.07-3.68,1.87-.25,2.4-2.32,4.12-2.95,1.14-.42,1.87-1.84,2.95-2.54,1.46-.94,2.97-1.78,4.68-2.39,2.01-.72,3.74-2.24,5.58-3.43,2.7-1.74,5.49-3.29,8.59-4.22.49-.15,1.02-.34,1.38-.67,2.74-2.54,6.53-2.5,9.7-3.98,2.18.28,4.22-.43,6.24-1.04,1.88-.57,3.95-.47,5.66-1.62,1.68.46,3.1-.77,4.91-.7-.06-2.56,1.17-4.98.77-7.6,1.26-2.94.17-6.08.73-9.04.77-4.02.13-8.1.73-12.04.47-3.05.26-6.06.58-9.06.2-1.84.84-3.63,1.35-5.71-1.01-1.11-2.3-2.36-2.06-4.23.2-1.57.5-3.12.67-4.12,1.12-1.26,1.92-2.16,2.65-2.99v-2.82c.49-.89.76-1.38,1.13-2.05.72.65,1.17,1.05,1.71,1.54-.31.53-.58.96-.82,1.38.29.9.58,1.78.91,2.8.61.36,1.32.8,2.11,1.27.32,1.06.85,2.13.92,3.23.12,1.9.32,3.85-.97,5.59-.39.52-.58,1.77-.25,2.12.92,1,.71,2.12.54,3.11-.27,1.6.73,2.88.76,4.4.03,1.36-.55,2.86.63,4.05-.23,1.96.32,3.82.64,5.72.44,2.66.5,5.38.84,8.03.29,2.25.21,4.52.59,6.73.41,2.41,1.34,4.74,2.11,7.32.67-.38,1.11-.62,1.55-.87.21.19.45.4.68.6.71-.19,1.71-.74,1.99-.49.94.86,1.43-.62,2.24-.2.62.32,1.36.42,2.26.68,1.32-1.76,3.26.17,4.91-.54.76,1,1.85.35,2.77.55.91.2,1.82.41,2.73.67,3.18.89,6.39,1.51,9.46,2.93,3.43,1.59,7.14,2.65,10.8,3.69,4.17,1.18,8.26,2.62,12.25,4.26,2.16.89,4.18,2.27,6.21,3.5,1.18.71,2.23,1.41,3.66,1.7,1.04.21,1.93,1.22,3.09,2,.47-.39,1.04-.86,1.69-1.4h4.09c.66.9,1.41,1.92,2.18,2.96-.02,1.28.06,2.5.59,3.76.47,1.12-.36,2.6.72,3.71.11.11.04.43.01.65-.5,3.95.43,7.83.8,11.7.34,3.47.47,6.92.57,10.39.01.46.49.9.7,1.26ZM138.26,205.43c-.22-.22-.44-.44-.67-.67.23-1.49-.81-2.53-1.3-3.78-1.73-4.4-2.31-5.1-5.15-8.48-.86-1.03-2.12-1.62-2.75-3.08-1.15-2.68-2.65-5.31-5.04-7.23-.47-.38-.75-1-1.11-1.52-1.2-1.72-2.24-3.58-3.65-5.11-1.46-1.58-2.67-3.32-3.61-5.18-.53-1.04-1.13-1.74-2.08-2.26-.1-.5.33-1.28-.67-1.33-.22-.22-.44-.44-.73-.34.4-2.27-1.36-3.28-1.94-4.8-1.12-2.94-3.46-4.67-6.28-6.38-.52.34-1.11.74-1.82,1.21,5.44,1.32,7.16,5.92,10.09,9.65.22.22.44.44.67.67.1.5-.33,1.28.67,1.33,0,.33-.11.72.02.99,1.12,2.3,2.6,4.39,3.55,6.82.88,2.23,9.7,14.46,11.19,15.9,3.47,3.34,5.46,7.78,8.52,11.42.44.53.61,1.28,1.4,1.52.22.22.44.44.73.6-.04.04-.09.09-.13.13.16.18.31.36.47.54l.21-.21c-.18-.15-.36-.31-.61-.39ZM98.57,238.41c.11.12.22.24.33.35.39-.03.79-.06,1.32-.1-.03-.47-.06-.83-.08-1.27-.62.4-1.1.71-1.17,1.41-.04-.04-.09-.09-.13-.13-.18.15-.36.31-.55.46l.21.21c.16-.18.31-.36.06-.94ZM113.58,220.76c-.1-.5.33-1.28-.67-1.33-.93-1.69-2.14-3.15-3.5-4.54-.95-.97-1.77-2.11-2.49-3.27-1.21-1.95-3.07-3.46-3.87-5.69-.03-.09-.14-.19-.23-.23-2.82-1.23-3.85-4.05-5.62-6.23-1.09-1.35-1.73-3.14-3.67-3.79-.57-.19-.86-1.14-1.31-1.73-.89-1.18-1.75-2.4-2.72-3.51-.94-1.08-2.04-2.03-3.03-3.07-1-1.05-1.95-2.16-3.25-2.91l.35-.33c-.03-.39-.06-.79-.1-1.32-.47.03-.83.06-1.27.08.4.62.71,1.1,1.35,1.24v1.24c2.36,3.04,4.73,5.69,6.58,8.66.85,1.37,2.22,2.17,2.92,3.74.93,2.06,2.69,3.76,4.11,5.6.27.35.59.68.94.93.59.43,1.53.65,1.77,1.21.7,1.56,1.98,2.55,3.12,3.67,2.53,2.5,4.79,5.2,6.86,8.1.67.94,1.37,2.4,3.05,2.15.1.5-.33,1.28.67,1.33l2,2c-.1,1.46.93,2.08,2,2.66.45.51.91,1.02,1.49,1.67,1.2-1.38,2.19-2.53,3.07-3.64q2.29-.6,3.31-2.5c-.3-.28-.59-.56-.94-.89-.8,1.14-1.56,2.23-2.27,3.36-1.63-.27-1.98,1.42-3.13,2h-1.54c.1-1.46-.93-2.08-2-2.66-.14-1.49-.51-1.86-2-2ZM87.69,235.61c-3.12-.36-5.46-2.9-8.85-2.02-.43.88-.91,1.86-1.65,3.37,2.24-1.02,2.84,1.08,4.46,1.23,1.41.13,2.72,1.29,4.1,2.01.64-1.52,1.22-2.9,1.93-4.6ZM108.91,209.43c-.22-.22-.44-.44-1.01-.59,1.13-2.69,3.76-3.87,5.11-6.14-1.2-2.97-4.9-3.65-5.83-6.71-3.73,1.94-4.25,2.43-5.61,5.16,1.05,3.42,4.53,4.82,6.67,7.61.22.22.44.44,6.5-3.86-2.48,1.18-4.14,3.2-6.25,5.25,2.04,1.25,2.46,3.63,4.64,4.82,2.08-1.52,4.44-2.68,5.86-4.89-1.55-1.89-2.98-3.62-10.1-.66ZM97.38,240.23c-.87,1.23-1.91,2.3-2.47,3.59-.55,1.26-1.95,1.61-2.85,2.83,3.4-.11,4.89-2.15,6.18-4.48-.28-.64-.57-1.28-6.07,4.14.06-.15.12-.3.18-.45-1.48-.59-2.94-1.23-4.43-1.77-1.93-.71-3.92-1.27-5.83-2.03-1.81-.72-3.75-1.35-5.27-2.5-1.72-1.3-3.7-1.88-5.57-2.72-3.17-1.42-6.45-2.59-9.6-3.83-.15-.32-.27-.59-.43-.94-.36.36-.52.52-.56.56-2.14-1.15-4.19-2.36-6.33-3.38-2.14-1.02-4.27-2.06-6.43-2.98-2.09-.89-4.01-2.09-6.1-2.96-2.18-.92-4.23-2.13-6.34-3.21-2.11-1.08-4.23-2.15-6.29-3.21h-3.57v2.37c2.16,1.63,4.27,3.25,6.41,4.82.41.3.9.56,1.39.66,3.09.6,5.77,2.27,8.51,3.58,4.09,1.95,8.3,3.59,12.4,5.49.74.34,1.85.08,2.42.55,1.19.98,2.39,1.71,3.93,1.83.74,1.78,2.89.64,3.89,1.88,1.91-.04,3.19,1.67,4.85,1.92,2.94.45,5.47,1.89,8.2,2.8,1.69.56,3.27,1.39,5.13,1.31.5-.02,1.01.21,1.52.33,2.64.63,5.29,1.25,13.13-4.2ZM351.75,232.63c7.66-.05,14.98-2.4,22.51-3.4.21-.03.4-.28.56-.41.3.28.46.43.6.56.35-.07.39-.87.96-.37.02.23.12.51.03.65-.24.36-.57.66-.67.76-1.93.42-3.62.78-5.31,1.14.79.5,1.91.8,2.2.44.65-.81,1.19-.01,1.75-.19.79-.25,1.65-.3,2.46-.5.69-.18,1.39-.39,2.03-.72.36-.19.87-.64.85-.94-.09-1.02.17-1.64,1.24-1.78.76-2.05,2.55-3.24,4.04-4.62,1.54-1.43,2.39-3.42,4.34-4.55,1.21-.7,1.92-2.25,2.88-3.4,1.17-1.41,2.61-2.66,3.45-4.24.7-1.32,1.61-2.2,2.76-2.99.23-.16.51-.3.68-.51,1.51-1.99,3-3.99,4.64-6.18-2.75-1.94-5.51-3.9-8.51-6.02-.41.49-1.15,1-1.33,1.66-.61,2.23-2.29,3.6-3.82,5.07-1.48,1.42-2.55,3.14-3.48,4.89-1.88,3.53-3.29,7.3-5.41,10.73-.69,1.11-.73,2.64-1.48,3.68-.83,1.16-2.12,1.98-3.22,2.95-.16.14-.33.26-.3.23-2.81.5-5.32,1.12-7.51,2.73-.15-.13-.38-.35-.44-.4-.83.41-1.54.87-2.32,1.13-1.08.36-2.33.35-3.3.87-3.42,1.85-7.25,2.35-10.86,4.19,0-.15-.02-.29-.02-.44-.9.08-1.79.16-2.77.24.13.52.21.81.25.98.91-.28,1.73-.53,2.53-1.28ZM261.34,214.12c-.84.22-1.63.6-2.44.61-4,.06-8.01-.06-12,.05-3.84.11-7.67.4-11.51.65-3.35.22-6.7-.32-10.09.55-2.19.56-4.65.02-6.97.13-2.25.11-4.49.4-6.73.65-1.25.14-2.48.14-3.77.49-1.35.37-2.87.69-4.35.83-2.46.23-4.93.45-7.39.67-.41,1.08-1.29.19-1.95.37-3.26.92-6.63,1.31-10.01,1.62-1.48.14-3.06-.42-4.39.67-1.89-.5-3.56.62-5.39.7-1.92.08-3.82.42-5.73.63-.44.05-1.08-.18-1.3.04-1.24,1.27-2.74.39-4.09.63-1.35.24-2.73.72-4.05.62-3.61-.28-6.91,1.37-10.45,1.46-1.04.02-2.05.89-3.11,1.38,0,2.32.19,4.55-.05,6.73-.33,3.09.85,6,.8,9.05-.01.93.6,1.95.62,3.05.02,1.02.5,2.03.6,3.06.11,1.21-.06,2.45.05,3.66.1,1.07.61,2.12.59,3.17-.03,1.23.58,2.28.66,3.39.1,1.5,1.02,2.79.78,4.39-.21,1.46-.17,2.97.58,4.4.37.71.46,1.5.11,2.45-.53,1.43.15,2.94.62,4.35.29.86-.92,1.46-.12,2.52.48.64.06,1.93.11,2.93.04.73.35,1.59.32,2.13-.08,1.53.94,2.76.92,4.09-.03,2.4.49,4.67.95,7.08.65.39,1.37.83,1.9,1.14,1.53.29,2.87.54,4.34.81q1.47-.74,2.8-.34c.39.12.77.39,1.16.39,2.11.04,4.23.1,6.33,0,2.18-.1,4.18,1.11,6.4.71,1.38-.25,3.02.16,4.14-.45,1.46-.8,2.79.86,4.03-.24,3.11,0,6.23.04,9.34-.02.92-.02,1.83-.31,2.89-.5.51.14,1.39.7,1.86.46,1.64-.86,3.47-.75,5.17-1.17,1.78-.43,3.76-.08,5.65-.1.98-.01,2.2.26,2.89-.21.99-.68,1.91-.25,2.84-.45,1.02-.22,2.03-.55,3.06-.64,3.13-.28,6.26-.45,9.39-.7.39-.03.74-.4,1.14-.45,1.72-.21,3.57-.81,5.14-.39,1.28.34,1.98-.42,2.93-.49,1.12,1.09,2.45.91,3.65.43,1.28-.51,2.38-.59,3.65.03.62.3,1.84.45,2.15.1,1.13-1.27,2.93.25,3.91-1.12,1.29,1.44,2.44-.53,3.76-.14.77.23,1.59,0,2.44-.51.56-.34,1.75.34,2.66.56.11.03.26.05.33,0,1.57-1.16,3.39-.71,5.06-.58,1.4.1,2.75-1.04,4.12-.07,1.69-1.13,3.59-.46,5.39-.68,1.16-.15,2.47.58,3.47-.45.99-1.02,1.88.43,3.09-.07,1.81-.73,3.98-.72,6.01-.76,2.31-.05,4.45-.33,6.07-2.28,1.19.53,2.19.99,3.09,1.39,1.7-.92,3.5-.52,5.18-.42,1.68.1,3.14-.81,4.73-.69,1.78.14,3.33-.56,5-.94.34-1.98-.52-4.13.8-5.89-.29-.46-.69-.81-.7-1.16-.06-2-.21-4.02.02-5.99.24-2.12-.6-4.03-.73-6.06-.17-2.8-.43-5.59-.65-8.38,0-.11.05-.26,0-.33-1.11-1.45-.27-3.21-.73-4.7-.48-1.59-.66-3.13-.59-4.74.06-1.36-.3-2.52-1.11-3.26.85-2.35.41-4.66.39-6.9-.02-2.24-.39-4.48-.63-6.72-.24-2.23-.05-4.64-.88-6.63-.9-2.18.07-4.42-1.03-6.58-.96-1.89-1.11-4.19-1.61-6.28-2.32.39-4.58.76-6.87,1.14-.26-.19-.59-.44-.59-.45-1.3.23-2.22.5-3.14.52-2.67.06-5.37-.24-7.98.14-1.11.16-2.26.66-3.41.51-1.36-.17-2.48.64-3.73.68-3.03.1-6.06-.1-9.07.63-1.47.35-3.1.02-4.65.09-.49.02-.96.33-1.5.53-.12-.12-.36-.34-.57-.53ZM164.41,220.5c1.75-.14,3.55.07,5.06-.5,1.73-.65,3.55-.08,5.05-.68,1.76-.7,3.21-.76,4.85-.06,1.84-1.08,3.94-1.31,6.09-1.16,2.07.15,4.02-.18,5.89-1.25.16.14.39.36.52.47,2.34-.42,4.6-1,6.88-1.18,1.93-.15,3.73-1.19,5.72-.72,1.25-1.29,3.03-.1,4.3-.87,1.49-.9,3.01-.19,4.48-.47.61-.12,1.26-.19,1.81-.45,1.24-.59,2.27-.14,3.3.45.46-.22.93-.64,1.39-.64,4.15,0,8.22-.94,12.4-.75,5.1.23,10.22.05,15.34.05,1.56,0,3.12.09,4.67-.02,1.47-.11,2.92-.51,4.4-.61,1.22-.09,2.5-.24,3.64.45,1.29-.95,2.76-.27,4.14-.47.63-.09,1.42.05,1.87-.28.7-.51,1.07-.43,1.67.08.3.26.89-.74,1.45.07.11.16,1.3-.5,1.5-.3.6.6,1.55.63,1.8.37,1.05-1.1,2.54-.07,3.38-.72,1.27-.98,2.55-.32,3.79-.55,1.35-.25,2.7-.55,4.06-.65,1.55-.11,3.11.03,4.66-.06.45-.03.87-.5,1.11-.65.76.31,1.29.53,1.81.75-1.43-3.11-4.92-3.64-6.66-5.94-.7-.16-1.24-.22-1.71-.42-2.37-.99-4.66-2.23-7.1-2.94-1.06-.31-2.26-.4-3.34-.81-1.06-.4-2.09-.95-3.18-1.15-3.7-.68-6.91-2.66-10.44-3.78-1.97-.63-4.02-1.02-5.96-1.71-2.43-.86-4.86-1.43-7.46-1.32-2.22.09-4.45,0-6.67.03-1.03.01-2.14-.27-3.02.57-.99-1.13-2.41-.76-3.41-.49-2.14.58-4.17,1.52-6.47,1.25-1.05,1.29-2.63.15-3.69.73-1.26.68-2.49.55-3.76.6-.44.02-.92-.08-1.3.07-4.41,1.7-9.16,1.91-13.66,3.23-2.88.84-5.89,1.19-8.69,2.38-.85.36-1.96.26-2.67.77-1.96,1.39-4.12,2.4-6.24,3.49-.92.47-1.84.93-2.75,1.41-3.11,1.66-5.73,4.14-9.13,5.33-.86.3-1.55,1.07-2.39,1.47-2.68,1.29-4.08,4.13-6.74,5.46-.89.45-.97,1.35-.61,2.11ZM169.68,298.3c-.33.97.5.83.98,1.18,4.24,3.09,8.6,5.82,12.45,6.95,2.38.7,4.51,1.95,7.05,2.37,3.06.51,5.99,1.85,9.17,1.92,1.06.96,2.4.91,3.69,1.02,1.4.11,2.81.15,4.21.3,1.47.16,2.92.5,4.39.64,2.79.26,5.57.03,8.41.54,4.05.73,8.19-1.04,12.36-.53.1.01.23,0,.31-.05,3.34-1.92,7.59-1.39,10.69-3.95,2.62-.3,4.8-1.89,7.26-2.55,2.62-.71,4.55-3.08,7.47-2.89,1.54-1.7,3.9-1.86,5.77-2.98,2.09-1.25,4.52-1.92,6.78-2.9,2.27-.98,3.92-3.2,6.62-3.32,2.12-2.14,5-2.73,7.69-3.8-1.91-.16-3.71-.04-5.64.35-2.45.5-5.09.03-7.64.14-2.58.11-5.15.6-7.72.6-3.6,0-7.1,1.2-10.72.71-.11-.01-.25-.05-.33,0-2.18,1.48-4.94-.14-7.11,1.33-4.69.17-9.37-.27-14.07.58-2.4.43-4.84,1.24-7.37.76-1.24.89-2.7.83-4.05.62-1.5-.24-2.67.72-4.06.72-1.78,0-3.56.04-5.33-.01-1.84-.06-3.6.24-5.4.61-1.64.34-3.38.46-5.05.63-5.13.52-10.32.58-15.49.76-2.33.08-4.66-.02-7,.04-.48.01-.96.33-1.56.55-1.51-.76-2.48-.82-6.77-.31ZM457.47,216.2c-2.02-.26-3.79.16-5.36-.73-.36-.2-1.16-.05-1.51.23-.5.4-.65-.02-.98-.08-2.89-.46-5.69-1.27-8.41-2.25-1.73-.62-3.53-1.12-5.25-1.78-1.73-.66-3.33-1.61-5.08-2.23-1.5-.53-2.78-1.68-4.14-2.54-.22.22-.38.38-.61.61-1.13-1.06-2.44-1.89-3.73-2.75-4.04-2.71-8.3-5.16-11.77-8.68-.89-.9-1.96-1.65-3.02-2.35-1.04-.69-1.34-1.92-2.47-2.66-1.75-1.16-3.64-2.52-4.83-4.17-1.89-2.63-4.45-4.51-6.09-6.56-.5-1.11-.73-1.8-1.1-2.41-1.39-2.32-2.84-4.59-4.21-6.92-.36-.61-.33-1.79-.75-1.95-1.66-.6-1.83-2.23-2.31-3.38-1.42-3.39-2.16-7.07-4.62-10.31-1.21,1.78-2.37,3.49-3.34,4.92.26.74.55,1.14.51,1.5-.24,2.32.9,4.26,1.55,6.36.5,1.59,1.54,2.88,2.02,4.5.67,2.23,1.89,4.32,3,6.4.58,1.1,1.58,2.01,2.09,3.13,1.33,2.89,3.35,5.2,5.27,6.92,1.7.54,2.95.94,4.2,1.34-.38,1.05-.65,1.83-.88,2.46,3.5,2.89,7.64,4.57,10.45,8,.5,0,1.11-.19,1.35.03,2.01,1.91,4.65,2.78,6.88,4.28,1.58,1.06,3.37,1.65,4.87,2.76,1.52,1.11,3.37,1.57,4.88,2.76,1.45,1.13,3.42,1.35,5.18,1.93,4.02,1.32,7.93,3.05,12.2,3.53,1.35,1.26,3.57.29,4.51,1.77.73-.19,1.27-.5,1.71-.41,1.2.26,2.37.7,3.55,1.06.55.17,1.21-.61,1.71.22.06.1.42.02.64.01.21-.01.43-.02.63-.08.68-.22,1.44-.35,2.02-.74.46-.31.7-.95,1.24-1.73ZM148.27,278.84v-8.16c-.91-2.17-2.38-3.46-4.18-4.52-1.91-1.12-3.86-2.2-5.41-3.92-.77-.85-2.12-1.19-3.21-1.76-3.72-3.24-8.39-5.08-12.41-7.92-.83-.59-2.11-.74-2.66-1.48-.63-.84-1.93-.63-2.28-1.99-.18-.72-1.79-.63-2.68-1.38-1.69-1.42-3.71-2.46-5.95-3.89.42,2.26,1.46,3.87,1.46,5.8,0,2.02.2,4.08.68,6.03.36,1.46,1.21,2.84,2.05,4.12.59.91,1.53,1.59,2.32,2.38,2.59,2.59,5.57,4.21,9.38,3.91,1.09-.09,2.19-.01,3.16-.01,3.34,2.29,5.98,4.77,7.17,8.79.61,2.07,1.52,4.4,3.58,5.83,3.15.49,5.82-1.3,8.96-1.84ZM264.99,308.14c.69,1.24,1.19,2.4,1.93,3.39.41.55,1.29.71,1.78,1.23.48.51.73,1.25,1.07,1.87h3.94c1.23-.53,2.09-.87,2.92-1.28,2.21-1.1,4.63-1.59,6.73-3.12,1.61-1.17,2.83-2.67,4.35-3.88,1.68-1.33,2.51-3.1,2.69-5.09-1.93-2.53-3.79-4.97-5.72-7.51-1.78.67-3.37,1.14-4.85,1.86-1.39.68-2.57,1.97-4.01,2.35-3.85,1.03-6.71,4.09-10.63,4.91-.18.04-.34.28-.47.46-.17.25-.3.53-.47.84.54.6,1.03,1.15,1.6,1.78-.28.72-.54,1.39-.85,2.18ZM247.48,310.83c-2.47.85-4.98,1.49-7.28,2.58-2.42,1.14-5.11.95-7.68,1.75-.5-.57-1.19-.58-2.13-.25-1.78.62-3.57,1.27-5.53,1.13-.84-.06-1.69-.01-2.35-.01-.24,1.57-.43,2.81-.66,4.29.91,1.2.51,2.78-.02,4.27,3.53,2.4,7.62,1.79,11.39,2.6.5-.15,1.08-.45,1.66-.47,1.88-.06,3.77-.01,5.65-.03.74,0,1.37-.07,2.11-.55,2.18-1.44,4.54-2.59,6.4-4.47-.26-1.1.46-2.29-.59-3.17,1.07-.76-1.1-2.13.54-2.77-1.35-1.16-.32-2.72-.76-4.11l-.76-.75ZM180.05,308.59c-1.15,2.77-2.17,5.22-3.18,7.65,1.16.93,2.13,2.02,3.34,2.61,1.43.7,1.82,2.21,2.97,3.09,2.05,1.57,4.23,2.69,6.86,2.73,1.55.02,3.16.26,4.65-.06,2.18-.47,4.66-.35,6.31-2.33-.27-2.67.31-5.07,2.15-7.05-.45-.47-.75-.79-1.25-1.32-2.5.95-4.65-1.08-7.18-1.24-2.63-.16-5.07-.96-7.51-1.94-2.28-.93-4.74-1.44-7.15-2.14ZM229.65,190.03c0-1.51.14-2.77-.62-3.96-.43-.66-.58-1.55-.68-2.36-.26-2.12.12-4.22-.56-6.4-.61-1.96-.02-4.23-.73-6.35-.36-1.1.25-2.53-.16-3.59-.33-.86-.09-1.71-.47-2.57-.43-.98.12-2.34-.76-3.33.49-3.28-.82-6.42-.68-9.68-.31-.31-.63-.63-1.01-1.01-1.05,1.37-1.58,2.86-1.68,4.59-.07,1.24.65,2.66-.59,3.73.37,1.65-.74,3.08-.71,4.69.03,1.77-.11,3.55.04,5.31.13,1.6-1.81,3.15-.08,4.74-1.25,1.19-.14,2.81-.68,4.03-.65,1.47.47,2.75.06,4.12-.23.79-.42,1.59-.64,2.42,1.4,1.32.36,2.69-.09,3.87.36.48.6.82.79,1.08-.41.99-1.28,1.75-.35,2.81,1.52-.24,3.08-.65,4.65-.68,1.76-.04,3.26-.63,4.97-1.46ZM101.69,166.08c1.02.32,1.81-.06,2.51-.86.59-.66,1.39-1.13,2.09-1.68-1.07-1.76-1.96-3.57-4.17-4.08-.69.4-1.52.69-2.09,1.25-3.04,2.99-6.72,5.13-10.28,7.32-2.63,1.62-4.97,3.75-7.92,4.89-.72.28-1.2,1.16-1.86,1.83,1.14,2.36,2.7,4,4.56,5.19,1.76-1.19,3.42-2.31,4.93-3.33.55-1.88-.75-2.34-1.74-2.77v-3.08q1.65.79,3.44,3.3h1.98c2.47-1.74,4.78-3.36,6.84-4.81.62-1.14,1.11-2.04,1.72-3.18ZM90.58,178.16c-1.72,1.7-2.96,2.93-4.35,4.31.56,1.6,1.28,3.41,2.82,4.82,3.04,2.77,5.72,5.86,7.99,9.3.67,1.02,1.35,2.01,3.08,2.24,1.5-1.32,3.19-2.81,4.79-4.22v-1.65c-1.09-.9-2.32-1.8-3.39-2.86-1.03-1.03-1.9-2.22-2.98-3.52-.6.91-.96,1.91-1.67,2.4-.74.52-1.29,1.11-1.89,2.06-.72-.37-1.42-.73-2.47-1.27,1.71-1.56,3.14-2.86,4.55-4.14-.9-3.2-2.92-5.36-5.12-7.47h-1.35ZM54.52,217.63c2.03-3.11,4.52-5.67,5.77-9.24-1.24-.96-2.51-1.93-3.97-3.07h-1.97c-.6-2.41-2.94-2.65-4.47-4.29-1.06,3.74-4.1,6.11-4.49,9.5-.59.26-.93.42-1.55.69.58.67.99,1.14,1.47,1.7h3.68c-.35.39-.56.63-.87.97,1.61,1.01,3.19,2.02,4.7,2.97.49-.3.82-.5,1.15-.7.16.45.31.83.54,1.47ZM382.15,229.39c3.76.17,6.31-1.6,8.81-3.49.31-1.52,1.81-2.11,2.57-3.26,1.39-2.13,3.76-3.38,4.78-5.93.71-1.77,2.15-3.24,4.02-4.35,1.09-.65,2.2-1.76,3.12-2.86,1.04-1.26,2.3-2.34,3.22-3.27.82-.14,1.29-.22,2.53-.43-2.49-1.01-3.82-2.58-5.65-3.04-.46.7-.74,1.28-1.15,1.73-2.41,2.67-4.98,5.21-7.21,8.01-.7.89-1.65,1.55-2.23,2.64-.79,1.48-2.07,2.72-3.23,3.99-3.07,3.35-6.19,6.65-9.58,10.28ZM108.25,176.11c-.85-1.17-1.62-2.44-2.61-3.52-.96-1.05-1.17-2.83-3.34-3.18-.1.16-.26.64-.59.89-2.28,1.67-4.62,3.25-6.89,4.95-.76.57-1.65,1.21-1.15,2.76.52.43,1.28,1.05,1.81,1.49.1,3.02,2.19,3.4,4.26,4.15,2.47-2.92,6.82-3.62,8.49-7.52ZM108.09,194.54c1.51,3.4,4.4,5.12,6.58,7.72.81-1.74,2.08-2.8,3.48-3.74,1.23-.82,2.39-1.76,3.4-2.5v-2.27c-1.88-1.98-4.14-3.58-4.94-6.29h-1.6c-.9,1.18-1.64,2.82-2.91,3.64-1.5.97-2.57,2.28-4.01,3.44ZM106.56,193.1c2.81-2.64,5.34-5.02,7.9-7.42-1.7-2.49-3.25-4.77-4.87-7.14-2.84,2.83-6.44,4.35-8.68,7.36v1.15c1.78,1.91,3.58,3.83,5.66,6.05ZM58.25,219.25c1.39.49,2.82,1.08,4.3,1.48,1.22.33,2.23.82,2.75,1.99h1.28c2.18-2.14,4.22-4.31,4.43-7.66-2.74-1.9-4.95-4.61-8.84-5.06.75,2.37-1.75,2.83-2.17,4.56-.38,1.56-2,2.7-1.75,4.69ZM41.84,210.1c2.24-3.3,4.33-6.39,6.54-9.64-1.38-1.05-2.71-2.06-3.86-2.95h-2.31c-.78,1.08-1.77,2.11-2.35,3.33-.63,1.33-2.05,2.05-2.52,3.25-.53,1.36-2.43,1.3-2.52,2.96,2.31,1.05,4.07,3.3,7.03,3.05ZM69.48,223.88c.46,1.59,1.84,2.04,2.75,2.09,1.51.09,1.94,1.63,3.29,1.78,1.08.12,1.87,1.43,3.17.86,1.19-1.86,2.38-3.72,3.47-5.44-3.08-2.32-5.92-4.46-8.69-6.56-2.19,1.59-2.45,3.8-2.67,5.87-.54.58-.98,1.03-1.32,1.39ZM49.89,225.06c.68-1.05,1.24-1.93,1.81-2.8.57-.87,1.14-1.73,1.81-2.74-1.89-1.09-3.87-2.23-6.02-3.48h-3.59c-.44-.71-.82-1.33-1.08-1.75-.88.86-1.71,1.67-2.59,2.53.21.42.48.97.73,1.47-.54.57-.98,1.03-1.39,1.47,3.31,1.7,6.59,3.38,10.32,5.3ZM123.14,196.86c-1.99,2.47-5.26,3.72-6.93,6.57.65,1.88.71,1.96,4.68,5.39,2.92-1.17,4.52-3.88,7-5.93-1.96-1.88-2.33-4.69-4.75-6.03ZM107.29,164.5c-1.24,1.55-2.16,2.72-3.15,3.96,1.74,2.19,3.43,4.33,5.09,6.42.83-.32,1.46-.57,2.58-1.01-.39,1.47-.65,2.43-.98,3.7,1.46,2.1,3.03,4.36,4.71,6.77.75-.81,1.38-1.49,2.03-2.19-.05-.16-.07-.38-.18-.54-1.04-1.56-2.52-2.99-3.04-4.7-.77-2.54-2.15-4.67-3.45-6.87-1.07-1.8-2.28-3.51-3.6-5.53ZM343.71,235.1c-.1-.21-.19-.42-.29-.62-1.46.91-3.14.71-4.69,1.49-.76.39-1.57,1.13-2.68.8-.74-.22-1.45.46-2.06.54-2.71.39-5.14,1.66-7.79,2.26-2.44.55-4.92,1.46-7.34,2.32-2.73.97-5.53,1.7-8.7,2.66-.81.64-.57,1.73-.21,2.94,1.44-.52,2.71-1.36,3.96-1.34,2.02.03,3.43-1.08,4.97-1.65-.23-.62-.39-1.06-.52-1.42,2.76-.54,5.3-1.04,7.82-1.54.23.17.43.32.69.51.12-.47.2-.77.28-1.07.78-.24,1.55-.48,2.76-.85.15.25.49.82.72,1.21h3.51c.34-.35.63-.66.9-.95-.22-.26-.41-.49-.67-.8,1.53-.97,2.99-1.89,4.43-2.81.25.25.4.4.36.36,1.58-.72,3.07-1.39,4.56-2.07ZM55.4,224.2c-1.52-.4-2.24.2-2.58,1.39,2.27,2.72,5.93,3.02,8.48,5.14.13.11.43.02.65.01.21,0,.43-.03.53-.04,1.07-1.82,2.1-3.59,3.14-5.36-.81-1.68-2.74-1.45-3.96-2.49-1.06-.91-2.87-.93-4.44-1.38-.66.65-1.67,1.16-1.83,2.72ZM64.51,232.08h2.94c2.25,1.53,4.56,2.61,7.37,2.69.78-1.2,1.51-2.33,2.51-3.88-1.85.17-2.35-1.42-3.95-1.62-1.3-.16-2.45-1.55-3.82-2.5h-1.83c-.95,1.57-1.92,3.16-3.22,5.31ZM32.65,208.97c-1.39-.02-.69,2.05-2.22,1.89-.48,1-.95,2-1.43,3,2.38,1.45,4.84,2.94,7.47,4.54,1.17-1.84,2.21-3.47,3.16-4.96-1.61-3.07-5.35-2.28-6.98-4.47ZM81.62,230.75c2.37,1.2,4.57,2.3,7.04,3.55.99-1.56,1.95-3.08,2.82-4.44-2.55-1.82-4.92-3.5-7.45-5.3-1.38,1.83-2.71,3.52-2.41,6.2ZM131.9,208.74l-1.56-1.56c-.08-.82-.17-1.63-.28-2.75-1.56,1.13-2.88,1.97-4.07,2.98-1.15.98-2.16,2.12-3.33,3.29,1.36,1.71,2.59,3.26,3.7,4.67,1.34-.82,2.49-1.53,3.93-2.41.44-1.16,1.03-2.68,1.61-4.21ZM114.86,217.59c1.12,1.24,2.2,2.42,3.47,3.82h.75c1.78-1.48,3.48-2.89,4.97-4.13-.24-.86-.4-1.45-.65-2.36-1.02-.77-1.78-2.33-3.05-2.82-1.9,1.9-3.61,3.61-5.49,5.48ZM125.49,193.96c-.2.11-.4.22-.61.33.11.59,0,1.37.35,1.73,2.08,2.15,2.76,5.41,5.59,7.15.38,2.45,2.56,4.05,3.69,6.39.61-.68,1.12-1.25,1.67-1.87-.82-1.18-1.62-2.54-2.62-3.72-1.3-1.54-1.7-3.67-2.99-5.04-1.35-1.42-2.53-3.05-4.1-4.27-.32-.25-.66-.47-.99-.71ZM421.83,182.1c.13-.2.44-.62.71-1.08.26-.44.42-.94.72-1.36,1.15-1.63,2.11-3.49,3.58-4.75.95-.81,1.92-1.38,2.51-2.6.59-1.22,2.28-1.7,2.52-3.27,1.82-1.14,2.13-3.37,3.49-4.86.27-.3.29-.83.43-1.26-1.44,1.15-2.44,2.51-3.58,3.76-2.78,3.06-5.67,6.02-8.41,9.13-1.38,1.57-2.53,3.36-3.76,5.06-.08.11-.06.3-.08.42.52.22.99.43,1.87.81ZM336.61,240.62c.99-.45,1.81-.94,2.69-1.18,1.21-.33,2.73-.12,3.65-.78,1.23-.88,2.68-.22,3.91-1.16.89-.68,2.57-.25,3.62-.82,1.37-.74,2.72-.49,4.09-.61.18-.02.33-.29.52-.33,1.53-.34,3.07-.63,4.59-1,.91-.22,1.8-.57,2.7-.86-.86-.46-1.61-.51-2.36-.44-.39.04-.73.38-1.13.47-1.32.31-2.67.81-3.99.78-2.2-.06-4.14.65-5.46,1.21-1.31-.23-2.42-.7-2.64-.43-.96,1.15-2.15,1.35-3.49,1.35-.75,1.41-2.22,1.06-3.4,1.44-1.28.41-2.45,1.16-3.86,1.16-.07,0-.15.29-.22.43.26.26.49.49.76.76ZM118.68,183.78c-.51,1.23-.92,2.23-1.3,3.14,1.21,1.2,2.33,2.14,3.22,3.26.82,1.02,1.4,2.22,2.23,3.58.82-.47,1.51-.86,2.47-1.4-.89-1.22-1.6-2.24-2.36-3.23-1.28-1.65-2.6-3.28-4.26-5.36ZM91.56,234.33v1.51c1.38.59,2.79,1.2,4.2,1.81.64-1.24,1.15-2.24,1.77-3.42-1.18-.86-2.46-1.81-4.02-2.95-.34,1.1-.58,1.88-.83,2.67-.38.13-.76.26-1.13.38ZM222.49,141.16c-.41,1.57-.72,2.76-.83,3.18,1.21,1.31,2.01,2.19,3.04,3.31.17-.4.4-.91.63-1.43.08.1.16.19.24.29v-4.21c-.94-.35-1.8-.67-3.07-1.14ZM139.64,241.97h3.47c-.9-1.17-1.57-2.18-2.38-3.07-.79-.86-.02-2.8-2.11-2.82-.36.74-.75,1.54-1.24,2.53.81,1.2,1.61,2.39,2.27,3.36ZM88.13,240.29c.4.2.89.45,1.38.7-.12.11-.23.22-.35.34h2.2c.16-.46.3-.85.49-1.38.57.24,1.07.46,1.66.72v-1.67c-.8-.36-1.54-.69-2.48-1.11-.84.87-2.38.71-2.9,2.42ZM86.38,166.72c3.09-1.79,6.29-3.4,9.45-5.76-2.73.36-6.98,2.87-9.45,5.76ZM142,231.21c-.76,1.42-1.38,2.57-1.97,3.67,1.05.98,1.78,1.83,2.9,2.76-.34-2.34-.61-4.2-.94-6.43ZM445.08,152.29c-1.38-.39-2.28-.01-2.57,1.04-.28,1.01.18,1.85,1.7,2.26.13-.32.33-.84.53-1.36.12.11.23.21.35.32v-2.26ZM138.75,232.19c.73-1.33,1.42-2.58,2.15-3.89-.46-.33-.96-.68-1.5-1.06-.6,1.45-1.13,2.72-1.67,4,.28.26.58.54,1.01.95ZM363.2,232.96c1.04.25,2.13.78,3.26.17-.43-.43-.73-.73-.87-.86-.88.25-1.64.47-2.4.69ZM368.84,231.5c-.65.36-1.15.64-1.96,1.09h2.95c-.16-.23-.21-.31-.27-.38-.22-.23-.45-.46-.72-.72ZM105.45,240.63c-1.2-.54-1.8-.81-2.48-1.12v1.12h2.48ZM134.87,224.66c-.58.11-.88.17-1.32.25.09.46.16.83.23,1.25.45-.09.75-.14,1.08-.21v-1.29ZM139.04,209.31c.19,0,.39,0,.58,0l-.17-2.45c-.14,0-.28.02-.41.03v2.43ZM134.46,230.44c-1.78-.76-1.57.04-1.42.89.49-.31.9-.56,1.42-.89ZM345.63,234.63c-.02-.19-.05-.38-.07-.58-.36.09-.72.17-1.09.26.02.11.03.21.05.32h1.11ZM81.78,182.12h.22v-.67h-.22v.67Z"/>
  <path class="cls-2" d="M416.24,192.36c2.84,2.23,5.89,4.6,9.53,6.11,1.14.47,2.15,1.24,3.23,1.85.35.2.76.44,1.14.44,1.63,0,2.82.82,4,2.04h1.99c.51.51.9.9,1.31,1.3,1.25.07,2.46.09,3.74.58,1.21.47,2.53.99,4.03.83,1.32-.14,2.59.89,4.05.61,1.42-.27,2.71.21,3.75.92v2.18c-1.61-1.81-3.74-.47-5.21-1.79-1.4.79-2.68-.04-3.98-.33-1.3-.3-2.57-.74-3.85-1.16-1.37-.45-2.73-.9-4.08-1.41-1.73-.65-3.41-1.41-5.05-2.29-2.52-1.35-5.36-2.13-7.85-3.53-2.34-1.32-4.9-2.29-7-4.04-.56-.46-1.18-.91-1.84-1.17-3.73-1.46-6.41-4.27-9-7.12-.94-1.03-1.76-2.24-2.45-3.55-.67-1.28-2.05-2.13-2.77-3.51-1.06-2.02-2.31-3.93-3.5-5.87-.92-1.51-1.86-3.01-2.84-4.48-1.93-2.9-2.01-3.16-1.52-7,.6.35,1.11.66,1.73,1.03-.4,3.1,1.1,5.48,2.9,7.75.59.74,1.33,1.46,1.61,2.32.96,2.88,2.95,5.04,4.74,7.36,1.29,1.67,2.37,3.54,3.82,5.05,1.63,1.7,3.56,3.12,5.38,4.64.65.54,1.32,1.07,2.04,1.5.52.31,1.14.45,1.94.75Z"/>
  <path class="cls-1" d="M100.74,348.66v2h-.33v-2h.33Z"/>
  <path class="cls-1" d="M136.71,129.49v.67h-.22v-.67h.22Z"/>
  <path class="cls-2" d="M261.34,214.12c.2.19.44.41.57.53.54-.2,1.02-.51,1.5-.53,1.55-.07,3.18.27,4.65-.09,3.02-.73,6.04-.53,9.07-.63,1.25-.04,2.37-.85,3.73-.68,1.15.15,2.3-.35,3.41-.51,2.61-.38,5.32-.08,7.98-.14.92-.02,1.84-.3,3.14-.52,0,0,.34.26.59.45,2.29-.38,4.55-.76,6.87-1.14.5,2.09.65,4.39,1.61,6.28,1.09,2.16.12,4.39,1.03,6.58.82,1.99.64,4.4.88,6.63.24,2.24.61,4.48.63,6.72.02,2.24.45,4.55-.39,6.9.81.74,1.17,1.91,1.11,3.26-.07,1.61.11,3.15.59,4.74.45,1.49-.38,3.25.73,4.7.05.07,0,.22,0,.33.22,2.79.48,5.59.65,8.38.13,2.03.97,3.94.73,6.06-.22,1.97-.08,3.99-.02,5.99.01.36.41.71.7,1.16-1.32,1.77-.46,3.91-.8,5.89-1.67.38-3.22,1.09-5,.94-1.58-.13-3.05.78-4.73.69-1.69-.1-3.49-.5-5.18.42-.91-.41-1.91-.86-3.09-1.39-1.61,1.95-3.76,2.23-6.07,2.28-2.02.04-4.19.03-6.01.76-1.22.49-2.1-.95-3.09.07-1,1.03-2.31.3-3.47.45-1.8.23-3.7-.44-5.39.68-1.37-.97-2.72.18-4.12.07-1.67-.12-3.49-.58-5.06.58-.07.05-.22.03-.33,0-.91-.22-2.1-.9-2.66-.56-.85.52-1.67.74-2.44.51-1.31-.39-2.47,1.58-3.76.14-.98,1.37-2.78-.16-3.91,1.12-.31.35-1.53.2-2.15-.1-1.27-.62-2.37-.54-3.65-.03-1.2.48-2.52.66-3.65-.43-.95.07-1.65.83-2.93.49-1.57-.42-3.42.18-5.14.39-.39.05-.75.42-1.14.45-3.13.25-6.26.43-9.39.7-1.03.09-2.04.43-3.06.64-.92.2-1.85-.23-2.84.45-.69.47-1.91.2-2.89.21-1.89.02-3.86-.33-5.65.1-1.71.41-3.53.31-5.17,1.17-.47.24-1.35-.32-1.86-.46-1.05.19-1.97.49-2.89.5-3.11.06-6.22.02-9.34.02-1.24,1.1-2.57-.57-4.03.24-1.12.62-2.76.21-4.14.45-2.22.4-4.22-.81-6.4-.71-2.11.1-4.22.04-6.33,0-.39,0-.77-.27-1.16-.39q-1.33-.41-2.8.34c-1.47-.28-2.82-.53-4.34-.81-.53-.32-1.25-.75-1.9-1.14-.46-2.41-.98-4.68-.95-7.08.02-1.33-1-2.55-.92-4.09.03-.54-.28-1.41-.32-2.13-.05-1,.37-2.29-.11-2.93-.8-1.06.41-1.66.12-2.52-.47-1.41-1.15-2.92-.62-4.35.35-.96.27-1.75-.11-2.45-.75-1.43-.8-2.94-.58-4.4.24-1.6-.68-2.89-.78-4.39-.08-1.12-.68-2.17-.66-3.39.02-1.05-.49-2.1-.59-3.17-.11-1.21.06-2.45-.05-3.66-.1-1.03-.58-2.04-.6-3.06-.02-1.1-.63-2.12-.62-3.05.04-3.06-1.14-5.96-.8-9.05.24-2.18.05-4.41.05-6.73,1.06-.49,2.08-1.36,3.11-1.38,3.55-.08,6.85-1.74,10.45-1.46,1.33.1,2.7-.37,4.05-.62,1.35-.24,2.86.64,4.09-.63.22-.22.86,0,1.3-.04,1.91-.21,3.81-.55,5.73-.63,1.83-.07,3.5-1.2,5.39-.7,1.33-1.08,2.92-.53,4.39-.67,3.38-.31,6.75-.71,10.01-1.62.66-.19,1.53.71,1.95-.37,2.46-.22,4.93-.44,7.39-.67,1.48-.14,3-.46,4.35-.83,1.29-.36,2.52-.36,3.77-.49,2.24-.24,4.48-.54,6.73-.65,2.33-.11,4.79.43,6.97-.13,3.39-.87,6.73-.34,10.09-.55,3.83-.25,7.67-.54,11.51-.65,4-.11,8,0,12-.05.8-.01,1.6-.39,2.44-.61ZM201.24,233.22c-.39-.14-1.04-.6-1.33-.43-2.24,1.3-4.86.08-7.19,1.19-.85.41-2.22-.24-3.51-.43-1.08,1.56-3.37-.48-4.62,1.19-1.67,0-3.34.06-5-.02-1.74-.09-3.27,1.02-5.07.72-1.67-.28-3.48.4-4.95-.72-2.08,1.38-4.56-.1-6.38.92-2.01,1.13-4.49-.78-6.3,1.52.31,5.08,2.66,9.99,2.79,15.31.28.28.59.59,1.08,1.08,1.21-.23,2.55-.48,3.88-.73.3.21.64.45.61.43,1.34-.22,2.25-.44,3.18-.51,1.2-.1,2.47.13,3.61-.16,2.26-.58,4.52-1.04,6.84-1.16,2.22-.12,4.45.07,6.67-.05,2.25-.13,4.46.2,6.77-.51,2.03-.62,4.41-.13,6.63-.13.33,0,.8.14.98-.02,1.34-1.24,2.95-.4,4.41-.64,1.57-.25,3.15-.63,4.72-.63,2.92,0,5.8-.05,8.59-1.03,1.77-5.03-.13-9.87-.65-13.87-1.1-1.49-1.76-2.37-2.29-3.09-4.78-.24-9.19.23-13.47,1.77ZM265.22,280.18c3.12-.27,6.2-.24,9.1-.92,1.49-.34,3.2.02,4.34-.67,2.01-1.22,4.32.35,6.13-1.11.86,1.36,2.06-.22,2.97.32,1.35.82,2.41-.35,3.62-.4,1.55-.07,3.11.08,4.65-.04,1.57-.13,3.13-.47,4.75-.73.5-.49,1.05-1.04,1.52-1.49.19-2.7,1.08-5.14.41-7.95-.62-2.61-1.82-5.08-1.83-7.79-1.89,0-3.63-.31-5.18.11-1.03.28-2.03.64-3.08.53-1.13-.12-2.35.85-2.99.56-1.13-.5-1.91.18-2.83.18-2.46.02-4.94-.35-7.4.54-1.17.43-2.64-.01-3.96.1-1.36.11-2.73.7-4.04.58-2.01-.2-3.84.49-5.69.85-1.06.21-2.22.44-3.21.62-.54,4.75.12,9.19,1.21,13.58.1.39.28.77.47,1.13.33.65.68,1.28,1.06,2ZM265.91,243.57c-.77,1.34-.77,2.42-.38,3.87.47,1.76,1.75,2.21,2.78,3.08.06.55.11,1.06.17,1.55h2.54c2.34-.91,3.58-2.38,3.31-4.66-.23-1.98-.52-4.05-3.09-4.58-1.73-.23-3.52,0-5.33.74ZM215.99,280.72c-1.56-.28-3.11-.56-4.57-.82-1.04,1.67-1.93,3.17-2.44,4.89.31.62.64,1.25.81,1.6,1.53,1.13,2.96,1.38,4.23.54.47.24.75.38.97.49.72-.38,1.36-.71,2.1-1.09.24-1.26.49-2.59.72-3.79-.65-.65-1.12-1.12-1.82-1.81ZM175.11,288.04h1.48c.8-.79,1.58-1.56,2.36-2.33-.03-1.71.29-3.47-1.17-5.21-1.29-.19-2.85-.42-4.51-.66-.82,1.12-1.57,2.14-2.23,3.04v2.24c.93.94,1.43,1.44,1.84,1.85.55-.09,1.22-.2,1.88-.3.14.54.22.83.35,1.37ZM191.19,281.48c-.34,1.83-.62,3.37-.9,4.88,1.83,1.25,3.78,1.5,5.6.31,1.53-1,1.97-2.63,1.78-3.79-.82-1.08-1.28-1.68-1.61-2.12h-4.14c-.28.28-.51.51-.73.73ZM288.58,247.44c-.48-1.67-1.29-2.98-2.59-4.03h-2.71c-1.02.74-1.73,1.25-2.22,1.61-.3,2.81,1.43,4.19,2.96,5.71h1.35c.96-.99,1.96-2.01,3.21-3.29ZM299.13,244.37c-.28-2.51-1.82-3.7-2.87-4.71-2.33-.92-3.11,1.08-4.53,1.4v4.22c.86.51,1.75,1.04,2.33,1.38,1.35-.32,2.35-.56,3.29-.78.58-.5,1.17-1,1.77-1.51Z"/>
  <path class="cls-2" d="M164.41,220.5c-.36-.76-.29-1.66.61-2.11,2.66-1.33,4.06-4.16,6.74-5.46.84-.41,1.53-1.17,2.39-1.47,3.39-1.2,6.02-3.67,9.13-5.33.91-.49,1.83-.94,2.75-1.41,2.12-1.09,4.27-2.1,6.24-3.49.71-.5,1.82-.41,2.67-.77,2.79-1.19,5.81-1.54,8.69-2.38,4.5-1.32,9.25-1.53,13.66-3.23.39-.15.87-.05,1.3-.07,1.27-.05,2.5.08,3.76-.6,1.06-.58,2.64.56,3.69-.73,2.3.28,4.33-.67,6.47-1.25,1-.27,2.42-.64,3.41.49.88-.84,1.99-.55,3.02-.57,2.22-.02,4.45.06,6.67-.03,2.6-.1,5.03.46,7.46,1.32,1.94.69,3.99,1.08,5.96,1.71,3.53,1.12,6.74,3.11,10.44,3.78,1.1.2,2.13.75,3.18,1.15,1.09.41,2.28.5,3.34.81,2.45.71,4.74,1.95,7.1,2.94.48.2,1.02.25,1.71.42,1.74,2.3,5.23,2.82,6.66,5.94-.53-.22-1.05-.43-1.81-.75-.24.15-.66.62-1.11.65-1.55.1-3.12-.05-4.66.06-1.36.1-2.71.39-4.06.65-1.24.23-2.52-.43-3.79.55-.84.65-2.33-.38-3.38.72-.25.27-1.21.24-1.8-.37-.2-.2-1.38.46-1.5.3-.56-.81-1.14.19-1.45-.07-.61-.52-.97-.6-1.67-.08-.45.33-1.24.19-1.87.28-1.37.2-2.85-.48-4.14.47-1.15-.69-2.42-.54-3.64-.45-1.47.11-2.92.51-4.4.61-1.55.11-3.11.02-4.67.02-5.11,0-10.23.18-15.34-.05-4.18-.19-8.25.74-12.4.75-.46,0-.93.41-1.39.64-1.04-.59-2.07-1.05-3.3-.45-.55.26-1.2.33-1.81.45-1.47.28-2.99-.42-4.48.47-1.27.76-3.05-.43-4.3.87-1.99-.47-3.79.57-5.72.72-2.29.18-4.54.76-6.88,1.18-.13-.12-.36-.33-.52-.47-1.87,1.07-3.82,1.39-5.89,1.25-2.16-.15-4.25.08-6.09,1.16-1.63-.7-3.09-.64-4.85.06-1.5.6-3.33.03-5.05.68-1.51.57-3.31.36-5.06.5Z"/>
  <path class="cls-2" d="M169.68,298.3c4.29-.51,5.25-.45,6.77.31.6-.22,1.08-.54,1.56-.55,2.33-.05,4.67.04,7-.04,5.17-.18,10.35-.24,15.49-.76,1.67-.17,3.41-.28,5.05-.63,1.8-.37,3.56-.66,5.4-.61,1.78.05,3.55.01,5.33.01,1.39,0,2.56-.96,4.06-.72,1.35.22,2.8.27,4.05-.62,2.53.48,4.97-.32,7.37-.76,4.69-.85,9.38-.41,14.07-.58,2.18-1.46,4.94.15,7.11-1.33.08-.05.22-.02.33,0,3.62.49,7.12-.71,10.72-.71,2.57,0,5.14-.49,7.72-.6,2.55-.11,5.18.35,7.64-.14,1.93-.39,3.74-.51,5.64-.35-2.69,1.07-5.57,1.66-7.69,3.8-2.7.13-4.35,2.34-6.62,3.32-2.26.98-4.69,1.65-6.78,2.9-1.88,1.13-4.23,1.28-5.77,2.98-2.92-.19-4.86,2.18-7.47,2.89-2.46.67-4.64,2.26-7.26,2.55-3.1,2.56-7.35,2.03-10.69,3.95-.09.05-.21.06-.31.05-4.17-.5-8.31,1.26-12.36.53-2.84-.51-5.62-.28-8.41-.54-1.47-.14-2.92-.47-4.39-.64-1.4-.16-2.81-.19-4.21-.3-1.29-.1-2.63-.06-3.69-1.02-3.19-.07-6.11-1.41-9.17-1.92-2.53-.42-4.67-1.67-7.05-2.37-3.85-1.13-8.2-3.86-12.45-6.95-.48-.35-1.31-.21-.98-1.18Z"/>
  <path class="cls-2" d="M457.47,216.2c-.54.79-.78,1.42-1.24,1.73-.58.39-1.33.52-2.02.74-.2.06-.42.07-.63.08-.22.01-.59.09-.64-.01-.49-.83-1.16-.05-1.71-.22-1.18-.36-2.35-.8-3.55-1.06-.44-.1-.98.22-1.71.41-.94-1.48-3.16-.52-4.51-1.77-4.27-.48-8.18-2.21-12.2-3.53-1.76-.58-3.73-.8-5.18-1.93-1.51-1.19-3.36-1.64-4.88-2.76-1.5-1.11-3.3-1.69-4.87-2.76-2.23-1.5-4.87-2.38-6.88-4.28-.23-.22-.85-.03-1.35-.03-2.81-3.43-6.95-5.1-10.45-8,.23-.63.5-1.41.88-2.46-1.25-.4-2.49-.79-4.2-1.34-1.92-1.72-3.95-4.03-5.27-6.92-.52-1.13-1.51-2.03-2.09-3.13-1.1-2.09-2.33-4.17-3-6.4-.49-1.63-1.52-2.91-2.02-4.5-.66-2.09-1.8-4.03-1.55-6.36.04-.37-.25-.77-.51-1.5.97-1.43,2.13-3.14,3.34-4.92,2.45,3.24,3.2,6.92,4.62,10.31.48,1.15.65,2.78,2.31,3.38.43.15.4,1.34.75,1.95,1.37,2.33,2.82,4.6,4.21,6.92.37.61.6,1.3,1.1,2.41,1.64,2.05,4.2,3.94,6.09,6.56,1.19,1.65,3.07,3.01,4.83,4.17,1.13.75,1.44,1.97,2.47,2.66,1.06.7,2.13,1.45,3.02,2.35,3.46,3.52,7.73,5.97,11.77,8.68,1.29.86,2.6,1.69,3.73,2.75.23-.23.39-.39.61-.61,1.36.86,2.64,2.01,4.14,2.54,1.75.62,3.35,1.57,5.08,2.23,1.72.66,3.52,1.16,5.25,1.78,2.73.98,5.53,1.79,8.41,2.25.34.05.49.48.98.08.35-.29,1.15-.44,1.51-.23,1.57.89,3.34.48,5.36.73Z"/>
  <path class="cls-2" d="M148.27,278.84c-3.15.54-5.82,2.33-8.96,1.84-2.05-1.43-2.97-3.77-3.58-5.83-1.19-4.02-3.83-6.5-7.17-8.79-.97,0-2.07-.07-3.16.01-3.81.3-6.79-1.32-9.38-3.91-.78-.78-1.72-1.47-2.32-2.38-.84-1.28-1.69-2.66-2.05-4.12-.49-1.95-.68-4.02-.68-6.03,0-1.93-1.05-3.54-1.46-5.8,2.24,1.43,4.25,2.47,5.95,3.89.89.75,2.49.66,2.68,1.38.35,1.35,1.65,1.14,2.28,1.99.55.74,1.83.9,2.66,1.48,4.02,2.84,8.69,4.68,12.41,7.92,1.09.57,2.44.9,3.21,1.76,1.55,1.72,3.5,2.79,5.41,3.92,1.8,1.06,3.26,2.35,4.18,4.52v8.16Z"/>
  <path class="cls-2" d="M351.75,232.63c3.63-1.34,7.45-1.84,10.87-3.69.97-.52,2.22-.52,3.3-.87.78-.26,1.49-.72,2.32-1.13.06.05.29.27.44.4,2.19-1.62,4.69-2.24,7.51-2.73-.04.03.14-.09.3-.23,1.1-.97,2.39-1.79,3.22-2.95.75-1.05.79-2.57,1.48-3.68,2.12-3.43,3.53-7.2,5.41-10.73.93-1.75,1.99-3.47,3.48-4.89,1.54-1.47,3.22-2.83,3.82-5.07.18-.66.92-1.17,1.33-1.66,3,2.12,5.77,4.08,8.51,6.02-1.64,2.19-3.13,4.19-4.64,6.18-.17.22-.44.35-.68.51-1.15.79-2.06,1.67-2.76,2.99-.84,1.58-2.28,2.83-3.45,4.24-.95,1.15-1.67,2.7-2.88,3.4-1.95,1.13-2.8,3.13-4.34,4.55-1.49,1.38-3.28,2.57-4.04,4.62-1.07.14-1.33.76-1.24,1.78.03.29-.48.75-.85.94-.63.32-1.33.54-2.03.72-.81.21-1.67.25-2.46.5-.56.18-1.1-.62-1.75.19-.29.36-1.4.06-2.2-.44,1.69-.36,3.38-.73,5.31-1.14.09-.1.43-.4.67-.76.1-.14-.01-.42-.03-.65-.57-.5-.61.3-.96.37-.14-.13-.3-.28-.6-.56-.17.13-.35.38-.56.41-7.53,1-14.85,3.35-22.51,3.4Z"/>
  <path class="cls-2" d="M264.99,308.14c.31-.8.57-1.47.85-2.18-.57-.63-1.06-1.18-1.6-1.78.17-.31.3-.59.47-.84.12-.18.29-.42.47-.46,3.91-.82,6.78-3.88,10.63-4.91,1.44-.39,2.62-1.68,4.01-2.35,1.47-.71,3.06-1.19,4.85-1.86,1.93,2.53,3.79,4.97,5.72,7.51-.18,1.99-1.01,3.76-2.69,5.09-1.52,1.2-2.74,2.7-4.35,3.88-2.11,1.53-4.53,2.02-6.73,3.12-.83.41-1.69.75-2.92,1.28h-3.94c-.34-.63-.59-1.36-1.07-1.87-.48-.51-1.37-.68-1.78-1.23-.73-.99-1.24-2.14-1.93-3.39Z"/>
  <path class="cls-2" d="M247.48,310.83l.76.75c.45,1.4-.59,2.95.76,4.11-1.64.64.53,2.02-.54,2.77,1.05.88.33,2.07.59,3.17-1.85,1.88-4.22,3.03-6.4,4.47-.74.49-1.37.55-2.11.55-1.88.02-3.77-.03-5.65.03-.58.02-1.16.32-1.66.47-3.77-.81-7.86-.2-11.39-2.6.53-1.49.93-3.06.02-4.27.23-1.48.42-2.71.66-4.29.66,0,1.51-.05,2.35.01,1.95.14,3.75-.51,5.53-1.13.94-.33,1.63-.31,2.13.25,2.57-.8,5.26-.6,7.68-1.75,2.3-1.08,4.8-1.72,7.28-2.58Z"/>
  <path class="cls-2" d="M180.05,308.59c2.42.71,4.87,1.22,7.15,2.14,2.44.99,4.88,1.79,7.51,1.94,2.53.15,4.68,2.19,7.18,1.24.51.53.81.85,1.25,1.32-1.83,1.98-2.42,4.38-2.15,7.05-1.65,1.98-4.13,1.86-6.31,2.33-1.48.32-3.09.08-4.65.06-2.63-.04-4.81-1.16-6.86-2.73-1.15-.88-1.54-2.39-2.97-3.09-1.21-.59-2.18-1.67-3.34-2.61,1.01-2.43,2.03-4.89,3.18-7.65Z"/>
  <path class="cls-2" d="M229.65,190.03c-1.71.83-3.21,1.42-4.97,1.46-1.57.03-3.13.44-4.65.68-.93-1.06-.06-1.82.35-2.81-.19-.26-.44-.59-.79-1.08.46-1.19,1.49-2.55.09-3.87.22-.82.4-1.63.64-2.42.41-1.37-.71-2.65-.06-4.12.54-1.22-.57-2.84.68-4.03-1.74-1.6.21-3.15.08-4.74-.15-1.76-.01-3.54-.04-5.31-.02-1.61,1.09-3.03.71-4.69,1.24-1.07.52-2.48.59-3.73.1-1.73.62-3.22,1.68-4.59.38.38.7.7,1.01,1.01-.14,3.25,1.17,6.4.68,9.68.89.99.33,2.35.76,3.33.38.87.14,1.71.47,2.57.41,1.06-.2,2.5.16,3.59.71,2.12.12,4.39.73,6.35.68,2.18.3,4.28.56,6.4.1.81.26,1.7.68,2.36.77,1.2.62,2.45.62,3.96Z"/>
  <path class="cls-2" d="M92.18,246.3c-2.64-.63-5.29-1.25-7.93-1.88-.51-.12-1.02-.35-1.52-.33-1.86.08-3.44-.74-5.13-1.31-2.73-.91-5.26-2.35-8.2-2.8-1.66-.25-2.94-1.96-4.85-1.92-1-1.24-3.15-.11-3.89-1.88-1.54-.12-2.75-.85-3.93-1.83-.57-.47-1.68-.21-2.42-.55-4.1-1.9-8.32-3.54-12.4-5.49-2.74-1.31-5.43-2.98-8.51-3.58-.49-.09-.98-.36-1.39-.66-2.14-1.58-4.25-3.19-6.41-4.82v-2.37h3.57c2.07,1.05,4.18,2.13,6.29,3.21,2.11,1.08,4.16,2.29,6.34,3.21,2.09.88,4.01,2.07,6.1,2.96,2.16.92,4.3,1.97,6.43,2.98,2.14,1.02,4.2,2.23,6.33,3.38.04-.04.2-.2.56-.56.16.34.28.61.43.94,3.14,1.24,6.43,2.41,9.6,3.83,1.87.84,3.85,1.41,5.57,2.72,1.52,1.15,3.46,1.78,5.27,2.5,1.91.76,3.9,1.32,5.83,2.03,1.49.55,2.96,1.18,4.43,1.77-.06.15-.12.3-.18.45Z"/>
  <path class="cls-2" d="M101.69,166.08c-.61,1.13-1.1,2.04-1.72,3.18-2.06,1.45-4.37,3.07-6.84,4.81h-1.98q-1.79-2.5-3.44-3.3v3.08c.99.43,2.3.89,1.74,2.77-1.51,1.02-3.16,2.14-4.93,3.33-1.86-1.19-3.42-2.83-4.56-5.19.65-.67,1.14-1.55,1.86-1.83,2.95-1.14,5.29-3.27,7.92-4.89,3.57-2.2,7.24-4.33,10.28-7.32.57-.56,1.4-.85,2.09-1.25,2.21.51,3.1,2.32,4.17,4.08-.7.55-1.51,1.02-2.09,1.68-.71.8-1.5,1.18-2.51.86Z"/>
  <path class="cls-2" d="M90.58,178.16h1.35c2.2,2.1,4.22,4.27,5.12,7.47-1.41,1.29-2.84,2.59-4.55,4.14,1.04.53,1.74.89,2.47,1.27.6-.95,1.15-1.54,1.89-2.06.71-.5,1.07-1.5,1.67-2.4,1.09,1.3,1.95,2.49,2.98,3.52,1.07,1.06,2.31,1.95,3.39,2.86v1.65c-1.6,1.41-3.29,2.9-4.79,4.22-1.73-.23-2.41-1.22-3.08-2.24-2.27-3.44-4.95-6.53-7.99-9.3-1.54-1.4-2.26-3.22-2.82-4.82,1.39-1.38,2.63-2.6,4.35-4.31Z"/>
  <path class="cls-2" d="M54.52,217.63c-.24-.64-.38-1.02-.54-1.47-.33.2-.65.4-1.15.7-1.51-.95-3.1-1.96-4.7-2.97.31-.34.52-.58.87-.97h-3.68c-.48-.56-.89-1.02-1.47-1.7.61-.27.95-.43,1.55-.69.38-3.39,3.43-5.75,4.49-9.5,1.53,1.64,3.87,1.87,4.47,4.29h1.97c1.46,1.13,2.73,2.11,3.97,3.07-1.25,3.57-3.74,6.13-5.77,9.24Z"/>
  <path class="cls-2" d="M382.15,229.39c3.38-3.62,6.5-6.93,9.58-10.28,1.16-1.26,2.43-2.5,3.23-3.99.58-1.08,1.52-1.75,2.23-2.64,2.23-2.81,4.8-5.35,7.21-8.01.41-.45.69-1.03,1.15-1.73,1.83.46,3.16,2.03,5.65,3.04-1.23.21-1.7.29-2.53.43-.93.93-2.18,2.01-3.22,3.27-.92,1.11-2.03,2.22-3.12,2.86-1.86,1.11-3.31,2.58-4.02,4.35-1.02,2.55-3.39,3.8-4.78,5.93-.75,1.15-2.25,1.74-2.57,3.26-2.5,1.89-5.04,3.66-8.81,3.49Z"/>
  <path class="cls-2" d="M108.25,176.11c-1.67,3.9-6.03,4.6-8.49,7.52-2.08-.75-4.17-1.14-4.26-4.15-.53-.43-1.29-1.06-1.81-1.49-.51-1.55.39-2.19,1.15-2.76,2.26-1.69,4.61-3.28,6.89-4.95.33-.24.49-.72.59-.89,2.17.35,2.38,2.13,3.34,3.18.98,1.08,1.75,2.35,2.61,3.52Z"/>
  <path class="cls-2" d="M108.09,194.54c1.43-1.16,2.51-2.46,4.01-3.44,1.27-.82,2.01-2.46,2.91-3.64h1.6c.79,2.71,3.06,4.31,4.94,6.29v2.27c-1.01.75-2.17,1.68-3.4,2.5-1.41.94-2.67,2-3.48,3.74-2.18-2.6-5.07-4.32-6.58-7.72Z"/>
  <path class="cls-2" d="M106.56,193.1c-2.07-2.22-3.87-4.14-5.66-6.05v-1.15c2.24-3.01,5.84-4.53,8.68-7.36,1.62,2.37,3.17,4.65,4.87,7.14-2.56,2.4-5.08,4.77-7.9,7.42Z"/>
  <path class="cls-2" d="M58.25,219.25c-.25-1.99,1.37-3.13,1.75-4.69.42-1.72,2.92-2.18,2.17-4.56,3.89.45,6.09,3.16,8.84,5.06-.21,3.35-2.24,5.52-4.43,7.66h-1.28c-.52-1.17-1.53-1.66-2.75-1.99-1.48-.4-2.91-.99-4.3-1.48Z"/>
  <path class="cls-2" d="M41.84,210.1c-2.96.25-4.71-2-7.03-3.05.09-1.65,1.99-1.6,2.52-2.96.47-1.2,1.89-1.92,2.52-3.25.58-1.22,1.57-2.25,2.35-3.33h2.31c1.16.88,2.49,1.9,3.86,2.95-2.21,3.25-4.3,6.34-6.54,9.64Z"/>
  <path class="cls-2" d="M112.91,168.13c.95.52,1.55,1.22,2.08,2.26.95,1.86,2.16,3.6,3.61,5.18,1.41,1.53,2.44,3.39,3.65,5.11.36.52.64,1.14,1.11,1.52,2.39,1.92,3.89,4.54,5.04,7.23.63,1.47,1.88,2.05,2.75,3.08,2.83,3.38,3.42,4.08,5.15,8.48.49,1.25,1.53,2.29,1.3,3.78-.78-.24-.95-.99-1.4-1.52-3.07-3.64-5.06-8.07-8.52-11.42-1.5-1.44-10.32-13.67-11.19-15.9-.95-2.42-2.43-4.52-3.55-6.82-.13-.27-.02-.65-.02-.99Z"/>
  <path class="cls-2" d="M69.48,223.88c.34-.36.77-.82,1.32-1.39.22-2.06.48-4.28,2.67-5.87,2.78,2.09,5.61,4.23,8.69,6.56-1.09,1.71-2.28,3.58-3.47,5.44-1.3.56-2.09-.74-3.17-.86-1.35-.15-1.78-1.7-3.29-1.78-.91-.05-2.29-.5-2.75-2.09Z"/>
  <path class="cls-2" d="M107.9,208.85c-1.8-2.87-5.28-4.27-6.33-7.69,1.36-2.73,1.88-3.21,5.61-5.16.94,3.06,4.63,3.74,5.83,6.71-1.35,2.26-3.99,3.45-5.11,6.14Z"/>
  <path class="cls-2" d="M49.89,225.06c-3.73-1.92-7.01-3.6-10.32-5.3.42-.44.85-.9,1.39-1.47-.25-.5-.53-1.05-.73-1.47.88-.86,1.71-1.67,2.59-2.53.26.42.64,1.04,1.08,1.75h3.59c2.16,1.25,4.13,2.38,6.02,3.48-.67,1.01-1.24,1.87-1.81,2.74-.57.87-1.13,1.75-1.81,2.8Z"/>
  <path class="cls-2" d="M123.14,196.86c2.42,1.34,2.8,4.14,4.75,6.03-2.48,2.06-4.07,4.76-7,5.93-3.97-3.43-4.04-3.5-4.68-5.39,1.66-2.86,4.94-4.1,6.93-6.57Z"/>
  <path class="cls-2" d="M107.29,164.5c1.33,2.03,2.54,3.74,3.6,5.53,1.31,2.2,2.69,4.33,3.45,6.87.52,1.72,2,3.14,3.04,4.7.11.16.13.39.18.54-.65.7-1.29,1.39-2.03,2.19-1.68-2.41-3.25-4.67-4.71-6.77.34-1.27.59-2.24.98-3.7-1.12.44-1.75.68-2.58,1.01-1.66-2.09-3.35-4.23-5.09-6.42.99-1.24,1.92-2.41,3.15-3.96Z"/>
  <path class="cls-2" d="M343.71,235.1c-1.49.67-2.98,1.35-4.56,2.07.04.04-.12-.11-.36-.36-1.44.91-2.9,1.84-4.43,2.81.26.31.45.54.67.8-.28.29-.57.6-.9.95h-3.51c-.23-.38-.57-.96-.72-1.21-1.21.37-1.98.61-2.76.85-.08.3-.16.6-.28,1.07-.25-.19-.46-.34-.69-.51-2.51.49-5.06.99-7.82,1.54.13.35.29.8.52,1.42-1.54.57-2.95,1.68-4.97,1.65-1.25-.02-2.51.82-3.96,1.34-.36-1.22-.6-2.31.21-2.94,3.17-.96,5.98-1.69,8.7-2.66,2.43-.86,4.91-1.77,7.34-2.32,2.65-.6,5.08-1.87,7.79-2.26.61-.09,1.33-.77,2.06-.54,1.11.33,1.92-.41,2.68-.8,1.55-.79,3.23-.59,4.69-1.49.1.21.19.42.29.62Z"/>
  <path class="cls-2" d="M83.56,184.12c.97,1.08,1.92,2.18,2.92,3.24.99,1.04,2.09,1.99,3.03,3.07.97,1.11,1.83,2.33,2.72,3.51.44.59.74,1.54,1.31,1.73,1.93.65,2.57,2.44,3.67,3.79,1.76,2.18,2.79,5,5.62,6.23.09.04.2.14.23.23.8,2.23,2.66,3.74,3.87,5.69.72,1.16,1.54,2.3,2.49,3.27,1.35,1.38,2.56,2.85,3.5,4.54-1.68.25-2.38-1.21-3.05-2.15-2.06-2.9-4.33-5.6-6.86-8.1-1.14-1.13-2.42-2.11-3.12-3.67-.25-.55-1.19-.78-1.77-1.21-.35-.26-.67-.59-.94-.93-1.42-1.84-3.18-3.53-4.11-5.6-.71-1.57-2.07-2.37-2.92-3.74-1.85-2.97-4.22-5.62-6.58-8.66v-1.24Z"/>
  <path class="cls-2" d="M55.4,224.2c.16-1.56,1.17-2.08,1.83-2.72,1.57.44,3.38.47,4.44,1.38,1.21,1.04,3.15.8,3.96,2.49-1.04,1.77-2.07,3.54-3.14,5.36-.11,0-.32.03-.53.04-.22,0-.52.1-.65-.01-2.56-2.12-6.21-2.42-8.48-5.14.34-1.19,1.06-1.79,2.58-1.39Z"/>
  <path class="cls-2" d="M114.74,204.91c1.28,1.56,2.71,3.29,4.26,5.18-1.42,2.21-3.78,3.36-5.86,4.89-2.18-1.19-2.6-3.57-4.64-4.82,2.1-2.05,3.76-4.07,6.25-5.25Z"/>
  <path class="cls-2" d="M64.51,232.08c1.3-2.14,2.27-3.74,3.22-5.31h1.83c1.37.95,2.52,2.34,3.82,2.5,1.6.19,2.1,1.79,3.95,1.62-1,1.54-1.74,2.68-2.51,3.88-2.81-.08-5.12-1.16-7.37-2.69h-2.94Z"/>
  <path class="cls-2" d="M32.65,208.97c1.63,2.19,5.37,1.41,6.98,4.47-.95,1.49-1.99,3.13-3.16,4.96-2.64-1.6-5.09-3.09-7.47-4.54.48-1.01.96-2,1.43-3,1.53.15.83-1.91,2.22-1.89Z"/>
  <path class="cls-2" d="M81.62,230.75c-.3-2.67,1.03-4.37,2.41-6.2,2.53,1.8,4.9,3.49,7.45,5.3-.86,1.36-1.82,2.88-2.82,4.44-2.48-1.25-4.67-2.35-7.04-3.55Z"/>
  <path class="cls-2" d="M131.9,208.74c-.58,1.52-1.17,3.05-1.61,4.21-1.44.89-2.59,1.59-3.93,2.41-1.11-1.4-2.34-2.95-3.7-4.67,1.17-1.17,2.18-2.31,3.33-3.29,1.19-1.01,2.51-1.85,4.07-2.98.11,1.12.2,1.93.28,2.75l1.56,1.56Z"/>
  <path class="cls-2" d="M114.86,217.59c1.87-1.87,3.58-3.58,5.49-5.48,1.27.48,2.04,2.05,3.05,2.82.25.9.41,1.5.65,2.36-1.49,1.24-3.19,2.65-4.97,4.13h-.75c-1.27-1.4-2.34-2.58-3.47-3.82Z"/>
  <path class="cls-2" d="M125.49,193.96c.33.23.67.46.99.71,1.57,1.22,2.76,2.85,4.1,4.27,1.29,1.36,1.69,3.5,2.99,5.04,1,1.18,1.79,2.53,2.62,3.72-.56.62-1.07,1.19-1.67,1.87-1.12-2.35-3.31-3.94-3.69-6.39-2.83-1.74-3.51-5-5.59-7.15-.35-.36-.25-1.14-.35-1.73.2-.11.4-.22.61-.33Z"/>
  <path class="cls-2" d="M421.83,182.1c-.88-.38-1.35-.59-1.87-.81.02-.12,0-.31.08-.42,1.24-1.7,2.38-3.49,3.76-5.06,2.73-3.1,5.63-6.06,8.41-9.13,1.13-1.25,2.14-2.61,3.58-3.76-.14.43-.15.96-.43,1.26-1.36,1.48-1.67,3.72-3.49,4.86-.24,1.57-1.93,2.05-2.52,3.27-.59,1.22-1.57,1.79-2.51,2.6-1.47,1.26-2.43,3.13-3.58,4.75-.29.41-.46.92-.72,1.36-.27.45-.57.88-.71,1.08Z"/>
  <path class="cls-2" d="M86.55,235.51c.43,1.8-.15,3.19-.79,4.71-1.38-.72-2.7-1.89-4.1-2.01-1.62-.15-2.22-2.25-4.46-1.23.74-1.51,1.22-2.49,1.65-3.37,3.39-.88,5.73,1.66,7.7,1.91-1.41-.09-1.82-.05-2.35,0q.96,1.01,1.99.94c-.24-.32-.48-.64.35-.94Z"/>
  <path class="cls-2" d="M336.61,240.62c-.27-.27-.51-.51-.76-.76.07-.14.14-.43.22-.43,1.41,0,2.58-.75,3.86-1.16,1.19-.38,2.66-.03,3.4-1.44,1.33,0,2.52-.2,3.49-1.35.23-.27,1.33.19,2.64.43,1.32-.56,3.26-1.27,5.46-1.21,1.32.04,2.66-.47,3.99-.78.39-.09.74-.43,1.13-.47.74-.08,1.5-.02,2.36.44-.9.29-1.78.64-2.7.86-1.52.37-3.06.66-4.59,1-.19.04-.34.31-.52.33-1.37.12-2.72-.13-4.09.61-1.05.57-2.72.15-3.62.82-1.23.94-2.68.27-3.91,1.16-.93.66-2.44.45-3.65.78-.88.24-1.69.73-2.69,1.18Z"/>
  <path class="cls-2" d="M118.68,183.78c1.65,2.07,2.97,3.7,4.26,5.36.76.98,1.47,2.01,2.36,3.23-.95.54-1.64.93-2.47,1.4-.83-1.36-1.41-2.57-2.23-3.58-.9-1.11-2.01-2.05-3.22-3.26.38-.91.79-1.91,1.3-3.14Z"/>
  <path class="cls-2" d="M91.56,234.33c.36-.12.75-.26,1.13-.38.24-.79.48-1.57.83-2.67,1.55,1.14,2.84,2.08,4.02,2.95-.61,1.19-1.13,2.19-1.77,3.42-1.41-.61-2.82-1.21-4.2-1.81v-1.51Z"/>
  <path class="cls-2" d="M222.49,141.16c1.27.47,2.13.79,3.07,1.14v4.21c-.08-.1-.16-.19-.24-.29-.23.51-.45,1.03-.63,1.43-1.03-1.12-1.83-1.99-3.04-3.31.11-.42.42-1.61.83-3.18Z"/>
  <path class="cls-2" d="M139.64,241.97c-.65-.97-1.46-2.16-2.27-3.36.49-.99.87-1.79,1.24-2.53,2.09.01,1.33,1.95,2.11,2.82.81.89,1.49,1.9,2.38,3.07h-3.47Z"/>
  <path class="cls-2" d="M111.52,166.46c-2.87-4.05-4.59-8.65-10.04-9.97.71-.47,1.3-.87,1.82-1.21,2.82,1.71,5.16,3.44,6.28,6.38.58,1.53,2.34,2.53,1.94,4.8Z"/>
  <path class="cls-2" d="M88.13,240.29c.51-1.71,2.06-1.54,2.9-2.42.93.42,1.68.75,2.48,1.11v1.67c-.6-.26-1.09-.47-1.66-.72-.19.54-.32.92-.49,1.38h-2.2c.12-.11.23-.22.35-.34-.49-.25-.98-.5-1.38-.7Z"/>
  <path class="cls-2" d="M97.38,240.23c.29.66.58,1.3.87,1.94-1.29,2.32-2.79,4.37-6.18,4.48.89-1.22,2.3-1.57,2.85-2.83.56-1.29,1.6-2.37,2.47-3.59Z"/>
  <path class="cls-2" d="M86.38,166.72c2.47-2.88,6.72-5.4,9.45-5.76-3.17,2.36-6.36,3.97-9.45,5.76Z"/>
  <path class="cls-2" d="M142,231.21c.33,2.23.6,4.08.94,6.43-1.12-.93-1.85-1.78-2.9-2.76.59-1.09,1.2-2.25,1.97-3.67Z"/>
  <path class="cls-2" d="M445.08,152.29v2.26c-.12-.11-.23-.21-.35-.32-.2.52-.4,1.04-.53,1.36-1.52-.41-1.97-1.26-1.7-2.26.29-1.05,1.19-1.43,2.57-1.04Z"/>
  <path class="cls-2" d="M138.75,232.19c-.44-.41-.74-.69-1.01-.95.54-1.29,1.06-2.55,1.67-4,.54.38,1.04.74,1.5,1.06-.73,1.32-1.42,2.56-2.15,3.89Z"/>
  <path class="cls-2" d="M117.58,225.42h1.54c1.15-.58,1.5-2.27,3.13-2-.99,1.14-1.98,2.29-3.18,3.67-.58-.65-1.04-1.16-1.49-1.67Z"/>
  <path class="cls-2" d="M122.15,223.45c.81-1.16,1.58-2.25,2.37-3.39.35.33.64.61.94.89q-1.02,1.9-3.31,2.5Z"/>
  <path class="cls-2" d="M363.2,232.96c.76-.22,1.52-.44,2.4-.69.13.13.44.44.87.86-1.14.6-2.22.08-3.26-.17Z"/>
  <path class="cls-2" d="M115.58,222.75c1.07.59,2.1,1.2,2,2.66-1.07-.59-2.1-1.2-2-2.66Z"/>
  <path class="cls-2" d="M351.76,233.13c-.82.25-1.63.5-2.54.78-.04-.17-.12-.46-.25-.98.98-.09,1.87-.16,2.77-.24,0,.15.02.29.02.44Z"/>
  <path class="cls-2" d="M368.84,231.5c.26.26.49.49.72.72.06.07.11.15.27.38h-2.95c.81-.45,1.31-.73,1.96-1.09Z"/>
  <path class="cls-2" d="M115.58,222.75l-2-2c1.49.14,1.86.51,2,2Z"/>
  <path class="cls-2" d="M105.45,240.63h-2.48v-1.12c.68.31,1.29.58,2.48,1.12Z"/>
  <path class="cls-2" d="M134.87,224.66v1.29c-.34.06-.64.12-1.08.21-.08-.41-.15-.79-.23-1.25.44-.08.74-.14,1.32-.25Z"/>
  <path class="cls-2" d="M139.04,209.31v-2.43c.14,0,.28-.02.41-.03l.17,2.45c-.19,0-.39,0-.58,0Z"/>
  <path class="cls-2" d="M134.46,230.44c-.52.32-.93.58-1.42.89-.15-.85-.36-1.64,1.42-.89Z"/>
  <path class="cls-2" d="M98.57,238.41c.47-.31.95-.61,1.57-1.01.03.45.05.8.08,1.27-.53.04-.93.07-1.32.1-.11-.12-.22-.24-.33-.35Z"/>
  <path class="cls-2" d="M83.23,184.45c-.31-.47-.61-.94-1.02-1.57.45-.03.8-.05,1.27-.08.04.53.07.93.1,1.32l-.35.33Z"/>
  <path class="cls-2" d="M345.63,234.63h-1.11c-.02-.11-.03-.21-.05-.32.36-.09.72-.17,1.09-.26.02.19.05.38.07.58Z"/>
  <path class="cls-2" d="M113.58,220.76c-1-.06-.57-.83-.67-1.33,1,.06.57.83.67,1.33Z"/>
  <path class="cls-2" d="M112.91,168.13c-1-.06-.57-.83-.67-1.33,1,.06.57.83.67,1.33Z"/>
  <path class="cls-2" d="M98.97,238.8c-.16.18-.31.36-.47.54l-.21-.21c.18-.15.36-.31.55-.46.04.04.09.09.13.13Z"/>
  <path class="cls-2" d="M108.91,209.43l-.67-.67.67.67Z"/>
  <path class="cls-2" d="M138.32,205.36c.18.15.36.31.55.46l-.21.21c-.16-.18-.31-.36-.47-.54.04-.04.09-.09.13-.13Z"/>
  <path class="cls-2" d="M138.26,205.43l-.67-.67c.22.22.44.44.67.67Z"/>
  <path class="cls-2" d="M81.78,182.12v-.67h.22v.67h-.22Z"/>
  <path class="cls-2" d="M112.24,166.8c-.22-.22-.44-.44-.67-.67.22.22.44.44.67.67Z"/>
  <path class="cls-2" d="M201.24,233.22c4.28-1.54,8.7-2.01,13.47-1.77.53.72,1.19,1.6,2.29,3.09.52,3.99,2.42,8.83.65,13.87-2.79.98-5.67,1.03-8.59,1.03-1.58,0-3.15.38-4.72.63-1.46.24-3.07-.6-4.41.64-.18.17-.65.02-.98.02-2.22,0-4.6-.49-6.63.13-2.31.71-4.52.38-6.77.51-2.22.13-4.45-.06-6.67.05-2.31.12-4.58.58-6.84,1.16-1.14.29-2.41.06-3.61.16-.92.07-1.84.29-3.18.51.03.02-.31-.22-.61-.43-1.33.25-2.67.5-3.88.73-.49-.49-.8-.8-1.08-1.08-.13-5.32-2.47-10.24-2.79-15.31,1.81-2.29,4.29-.39,6.3-1.52,1.82-1.02,4.31.46,6.38-.92,1.47,1.12,3.28.44,4.95.72,1.8.3,3.32-.8,5.07-.72,1.66.08,3.33.02,5,.02,1.25-1.67,3.54.36,4.62-1.19,1.29.19,2.65.84,3.51.43,2.33-1.12,4.94.11,7.19-1.19.29-.17.94.29,1.33.43ZM215.61,245.78c.39-2.4-.97-4.6-.69-7.04.24-2.06-.56-3.97-2.25-5.3-2.32-.19-4.5.1-6.38,1.58.26.28.48.52.81.89-.37.91-1.06,1.69-.38,3.09.79,1.63.67,3.71.92,5.59.09.71.1,1.44.15,2.13h6.88c.33-.33.64-.64.95-.95ZM182.11,247.94c-1.28-2.6.41-5.53-1.11-7.84.22-.62.42-1.2.62-1.77.17-.51.34-1.01.55-1.66-1.89.27-3.56.56-5.24.72-1.07.1-2.15.02-3.44.02.51,2.22-.3,4.19.59,6.27.75,1.75.71,3.83,1.01,5.72,3.76,0,4.91-.25,7-1.46ZM192.08,248.85c1.56-.32,3.2-.65,4.89-1,0-2.15-.02-4.25,0-6.35.03-1.99-.32-4.02.93-6.19-2.88.33-5.41-.55-7.61,1.15,0,1.88-.1,3.78.03,5.65.13,1.9.49,3.79.77,5.75.17.17.4.4.99.99ZM204.08,234.86h-2.98c-2.17.71-.97,2.2-1.62,3.02-.81,1.01-.66,1.9-.12,2.95.27.53.27,1.23.28,1.86.04,1.52.01,3.04.01,4.42.48.44.79.73,1.1,1,1.48-.56,2.89-1.09,3.95-1.5,1.32-3.08-1.71-5.87.15-8.37-.28-1.25-.51-2.25-.76-3.38ZM172.54,250c-.35-1.76-.75-3.19-.89-4.64-.14-1.53-.03-3.09-.03-4.64v-3.21c-2.03-.21-3.82-.35-5.43,1.04,1.13,3.78,1.39,7.89,3.46,11.44h2.89ZM188.94,247.78c-1.51-1.03.22-3.07-1.31-4.08v-5.71c.33-.66.56-1.1.81-1.6q-2.54-.32-4.63.55c-.73,3.94.28,7.75.64,11.84,1.42-.29,2.96.55,4.5-1ZM162.44,249.84c.56.28,1.3.64,1.94.95.73-.44,1.33-.81,2.08-1.26-1.51-3.64-1.43-7.59-2.39-11.34-.69-.79-1.05.94-1.9.22-.27-.23-1.19.31-1.86.51-.08,2.38-.09,4.64,1.2,6.81.66,1.11.62,2.63.93,4.1Z"/>
  <path class="cls-2" d="M265.22,280.18c-.38-.72-.74-1.35-1.06-2-.18-.36-.37-.74-.47-1.13-1.09-4.39-1.74-8.83-1.21-13.58.99-.18,2.15-.41,3.21-.62,1.85-.36,3.69-1.05,5.69-.85,1.31.13,2.68-.46,4.04-.58,1.32-.11,2.79.33,3.96-.1,2.46-.9,4.94-.52,7.4-.54.92,0,1.7-.68,2.83-.18.64.28,1.86-.68,2.99-.56,1.05.11,2.04-.25,3.08-.53,1.55-.42,3.3-.11,5.18-.11.01,2.7,1.21,5.17,1.83,7.79.67,2.81-.22,5.25-.41,7.95-.47.46-1.02,1-1.52,1.49-1.61.26-3.17.6-4.75.73-1.54.12-3.1-.03-4.65.04-1.21.06-2.27,1.22-3.62.4-.91-.55-2.11,1.04-2.97-.32-1.81,1.46-4.13-.11-6.13,1.11-1.14.69-2.85.33-4.34.67-2.91.67-5.98.64-9.1.92ZM292.03,274.72c2.01,0,4,0,6,0,.55-.55,1.1-1.1,1.54-1.53.28-1.58.76-3.03.74-4.47-.01-1.44-.52-2.88-.88-4.68-.3-.46-.81-1.25-1.29-1.98-2.18.06-4.21.4-6.2.54-4.11.28-8.2,1.29-12.36.82-.84-.1-1.69-.01-2.65-.01.34,2.2-.47,4.21.75,6-.87.66-.21,1.68-.53,2.55-.27.74.67,1.87.59,3-.04.58.5,1.2.74,1.74,1.94-1.04,3.55-2.1,5.54-.7.32.23,1.03-.03,1.54-.14.91-.2,1.81-.46,2.79-.71.1-3.97-.52-8.09,1.89-11.97.55.45,1.03.84,1.49,1.22-1.34,3.11-.39,6.3-.73,9.31.33.33.57.57,1.03,1.03ZM275.02,276.61c0-2.34.12-4.44-.03-6.52-.14-1.98-.56-3.95-.87-6.01-3.18-.23-6.13.83-9.1,1.5,0,2.21-.22,4.22.05,6.17.35,2.51.67,5.21,3.3,6.08,2.35-.43,4.39-.8,6.65-1.22Z"/>
  <path class="cls-2" d="M265.91,243.57c1.81-.74,3.6-.98,5.33-.74,2.57.53,2.85,2.61,3.09,4.58.27,2.28-.97,3.75-3.31,4.66h-2.54c-.05-.49-.11-1-.17-1.55-1.02-.87-2.3-1.31-2.78-3.08-.39-1.46-.39-2.54.38-3.87ZM272.52,247.57c-.32-.87-.68-1.84-1.01-2.75h-2.88c-1.16.87-1.04,1.94-.81,3.2,1.13.29,2.33.6,3.37.87.54-.53.85-.85,1.33-1.32Z"/>
  <path class="cls-2" d="M215.99,280.72c.7.7,1.17,1.17,1.82,1.81-.23,1.2-.48,2.53-.72,3.79-.74.39-1.37.72-2.1,1.09-.22-.11-.49-.25-.97-.49-1.27.84-2.69.59-4.23-.54-.17-.34-.5-.98-.81-1.6.51-1.71,1.4-3.22,2.44-4.89,1.46.26,3.01.54,4.57.82ZM211.4,284.91c1.62,1.16,2.46-.36,3.48-.49v-1.65h-1.72c-.56.68-1.14,1.39-1.76,2.14Z"/>
  <path class="cls-2" d="M175.11,288.04c-.14-.53-.22-.83-.35-1.37-.65.1-1.33.21-1.88.3-.41-.41-.9-.91-1.84-1.85v-2.24c.66-.9,1.41-1.92,2.23-3.04,1.65.24,3.22.47,4.51.66,1.46,1.74,1.15,3.49,1.17,5.21-.78.77-1.56,1.54-2.36,2.33h-1.48ZM172.76,283.23c.28.66.59,1.42.85,2.06h2.43c.3-.63.54-1.16.74-1.59-.32-.6-.6-1.14-.85-1.62h-2.01c-.34.34-.66.66-1.16,1.16Z"/>
  <path class="cls-2" d="M191.19,281.48c.22-.22.45-.45.73-.73h4.14c.33.44.79,1.04,1.61,2.12.19,1.16-.25,2.8-1.78,3.79-1.82,1.19-3.77.94-5.6-.31.28-1.51.56-3.04.9-4.88ZM194.97,282.88h-2.08c.1.48.16.78.24,1.19.68-.06,1.27-.11,1.84-.16v-1.03Z"/>
  <path class="cls-2" d="M288.58,247.44c-1.25,1.28-2.24,2.3-3.21,3.29h-1.35c-1.53-1.52-3.26-2.9-2.96-5.71.49-.36,1.19-.87,2.22-1.61h2.71c1.31,1.05,2.11,2.36,2.59,4.03ZM286.25,247.22c-.86-.91-1.37-1.45-1.97-2.09-.5.59-.83.98-1.16,1.37.23.23.54.54.93.93.51-.05,1.09-.1,2.2-.21Z"/>
  <path class="cls-2" d="M299.13,244.37c-.6.51-1.19,1.01-1.77,1.51-.94.22-1.94.46-3.29.78-.58-.34-1.47-.87-2.33-1.38v-4.22c1.41-.33,2.2-2.33,4.53-1.4,1.05,1.01,2.58,2.2,2.87,4.71ZM297.06,243.97c0-1.48-1.13-1.77-1.6-2.48-1.2.68-1.39,1.5-.82,2.6.8-.04,1.61-.08,2.43-.12Z"/>
  <path class="cls-2" d="M215.61,245.78c-.31.31-.62.62-.95.95h-6.88c-.04-.69-.05-1.42-.15-2.13-.25-1.89-.13-3.96-.92-5.59-.68-1.4.01-2.18.38-3.09-.34-.37-.55-.61-.81-.89,1.89-1.48,4.06-1.77,6.38-1.58,1.69,1.34,2.5,3.24,2.25,5.3-.29,2.44,1.07,4.64.69,7.04Z"/>
  <path class="cls-2" d="M182.11,247.94c-2.09,1.22-3.24,1.46-7,1.46-.3-1.89-.26-3.98-1.01-5.72-.9-2.08-.08-4.05-.59-6.27,1.29,0,2.37.08,3.44-.02,1.68-.16,3.34-.46,5.24-.72-.22.64-.38,1.15-.55,1.66-.2.58-.4,1.15-.62,1.77,1.52,2.31-.17,5.25,1.11,7.84Z"/>
  <path class="cls-2" d="M192.08,248.85c-.58-.58-.82-.82-.99-.99-.27-1.97-.63-3.85-.77-5.75-.13-1.88-.03-3.77-.03-5.65,2.2-1.69,4.73-.82,7.61-1.15-1.25,2.17-.91,4.2-.93,6.19-.03,2.1,0,4.19,0,6.35-1.69.35-3.33.68-4.89,1Z"/>
  <path class="cls-2" d="M204.08,234.86c.25,1.13.48,2.13.76,3.38-1.86,2.5,1.17,5.29-.15,8.37-1.06.4-2.47.94-3.95,1.5-.3-.28-.62-.57-1.1-1,0-1.38.02-2.9-.01-4.42-.02-.63-.01-1.33-.28-1.86-.53-1.05-.69-1.94.12-2.95.65-.82-.55-2.3,1.62-3.02h2.98Z"/>
  <path class="cls-2" d="M172.54,250h-2.89c-2.07-3.56-2.32-7.66-3.46-11.44,1.6-1.4,3.4-1.25,5.43-1.04v3.21c0,1.55-.11,3.1.03,4.64.14,1.45.54,2.88.89,4.64Z"/>
  <path class="cls-2" d="M188.94,247.78c-1.54,1.55-3.08.71-4.5,1-.36-4.09-1.36-7.9-.64-11.84q2.1-.87,4.63-.55c-.25.5-.48.95-.81,1.6v5.71c1.54,1.01-.19,3.05,1.31,4.08Z"/>
  <path class="cls-2" d="M162.44,249.84c-.31-1.47-.27-2.99-.93-4.1-1.29-2.18-1.28-4.43-1.2-6.81.67-.2,1.59-.74,1.86-.51.85.72,1.21-1.01,1.9-.22.96,3.75.89,7.7,2.39,11.34-.74.45-1.34.81-2.08,1.26-.64-.32-1.38-.68-1.94-.95Z"/>
  <path class="cls-2" d="M292.03,274.72c-.46-.46-.7-.7-1.03-1.03.34-3.01-.62-6.2.73-9.31-.46-.38-.94-.77-1.49-1.22-2.4,3.87-1.78,8-1.89,11.97-.99.26-1.88.52-2.79.71-.51.11-1.22.37-1.54.14-1.99-1.41-3.6-.34-5.54.7-.24-.53-.78-1.16-.74-1.74.08-1.14-.86-2.26-.59-3,.32-.86-.34-1.89.53-2.55-1.22-1.79-.42-3.8-.75-6,.96,0,1.81-.08,2.65.01,4.17.48,8.25-.53,12.36-.82,1.99-.14,4.02-.48,6.2-.54.47.73.99,1.52,1.29,1.98.36,1.79.86,3.23.88,4.68.01,1.45-.46,2.9-.74,4.47-.44.44-.99.99-1.54,1.53-2,0-3.99,0-6,0Z"/>
  <path class="cls-2" d="M275.02,276.61c-2.26.41-4.3.79-6.65,1.22-2.63-.87-2.95-3.57-3.3-6.08-.27-1.95-.05-3.96-.05-6.17,2.98-.67,5.92-1.73,9.1-1.5.31,2.06.73,4.02.87,6.01.15,2.08.03,4.19.03,6.52Z"/>
  <path class="cls-2" d="M286.25,247.22c-1.11.1-1.69.16-2.2.21-.39-.39-.69-.69-.93-.93.33-.39.66-.78,1.16-1.37.61.64,1.12,1.18,1.97,2.09Z"/>
  <path class="cls-2" d="M297.06,243.97c-.82.04-1.63.08-2.43.12-.56-1.1-.38-1.92.82-2.6.48.7,1.61,1,1.6,2.48Z"/>
</svg>