<?xml version="1.0" encoding="UTF-8"?>
<svg id="Livello_1" data-name="Livello 1" xmlns="http://www.w3.org/2000/svg" viewBox="0 0 489 489">
  <defs>
    <style>
      .cls-1 {
        fill: #fff;
        stroke-width: 0px;
      }
    </style>
  </defs>
  <path class="cls-1" d="M262.45,178.27c.96-3.02,1.61-5.9,5.57-6.37.62.84,1.27,1.74,2.31,3.15v3.47c-.72.72-1.51,1.51-2.3,2.3-2.19.22-3.75-.97-5.57-2.54Z"/>
  <path class="cls-1" d="M265.58,197.47c.07,1.01-1.9,1.1-.87,2.3-1.22.87-2.37.35-3.53.51-.72-.78-1.48-1.6-2.36-2.56-.5-1.9.5-3.57,1.55-5.24,2.79.6,4.56,2.21,5.22,4.99Z"/>
  <path class="cls-1" d="M260.22,465.67c1.25-.12,1.76.36,1.34,1.57-.33.59-.86.31-1.31.38-.74-.64-.72-1.29-.03-1.95Z"/>
  <path class="cls-1" d="M295.73,153.58c-.05-2.43-.01-4.86-.01-7.28-1.07-.44-.72-1.7-1.39-2.35-3.39-.51-5.52-3.77-8.99-4.12-2.78-2.98-5.99-5.28-9.75-6.96-1.61-.72-3.44-1.26-4.74-2.66-1.91-2.07-4.4-3.42-6.79-4.73-4.18-2.28-8.64-4.07-11.57-7.86-2.09.08-4.05-.42-5.42,1.21-1.59-1.34-2.61-1.08-4.38-.42-4.14,1.55-8.31,3.87-13.08,2.89,0-1.42-.37-2.74.09-3.64.62-1.21-.24-2.5.05-3.06,1.04-2.02,1.08-3.65-.06-5.63-.49-.85-.54-2.57.01-3.28,1.26-1.63.66-3.34.89-5.01.23-1.66-.12-3.25.75-5.05.71-1.46,1.02-4.03-.65-5.75.29-.38.83-.76.81-1.12-.1-1.98,2.09-3.85.3-5.89,1.25-2.49.71-5.44,2.06-7.89,2.62,2.24,6.28-.56,8.87,1.83,3.24,0,6.49-.19,9.72.05,3.21.24,6.11-.93,9.26-1.38,1.68-2.77,3.52-5.46,2.83-8.9,1.59-1.13,2.38-2.7,2.91-4.27.46-1.36,1.53-2.54,2.43-2.77,3.06-.81,6.21-2.34,9.46-.54,1.2.66,2.41.32,3.42.13.52-.52.87-.87,1.4-1.4-3.81-1.44-7.52-2.69-12.05-2.22.7-2.83,1.3-5.23,1.91-7.68-.59-.78-1.87-1.23-1.61-2.86,3.37-1.97,4.65-6.39,8.95-8.15h5.19c1.72-1.29,1.48-2.85,1.22-4.39-1.31-1.14-2.18-3.04-4.5-2.07-2.26,3.02-6.24,4.34-8.38,7.55-2.11,3.16-5.46,4.64-8.26,6.93-3.78-.7-6.82-2.66-9.52-4.98-1.4.13-2.52-.09-3.73.9-3.81,3.15-8.09,5.75-11.73,9.07-3.7,3.37-7.77,6.55-9.72,11.48-.22.55-.88.93-1.41,1.45.23,2.56-.56,5.3,1.1,7.65-.69.69-1.27,1.27-1.84,1.84-.57,2.06-.18,3.99.87,5.7-.41.65-1,1.15-1.01,1.68-.12,3.62-.18,7.18-.87,10.8-.73,3.81.29,7.89-1.12,11.72.64,6.71-.92,13.3-1.08,19.93-.46.48-.9.95-1.34,1.41-3.06-.14-5.77.49-8.32,2.34-1.27.92-3.08,1.18-4.69,1.49-.94.18-1.72.53-2.57.87-1.36.53-2.75,1.16-4.39,1.24-2.05.1-4.34.62-6.03,1.72-3.57,2.31-7.62,3.65-11.19,5.91-.45.28-1.23.04-2.26.04.6-1.79-.54-3.03-1.09-4.39-.35-.86-.91-1.63-.77-2.59.33-2.21-1.05-3.77-1.96-5.52.11-2.01-.23-3.98.92-5.95,2.3-3.98,3.57-8.63,7.86-11.1-.19-2.63-.04-5.05-.81-7.58-.59-1.95-1.15-4.11-1.31-6.33-.2-2.77-1.29-5.58-2.48-8.15-.89-1.92-1.39-3.74-1.28-5.8.03-.59.08-1.17-.32-1.81-1.44-2.31-1.43-4.95-1.78-7.57-.15-1.13-.26-2.5-.61-3.73-.55-1.94-1.92-2.65-3.22-2.9-4.27-.82-7.18-3.91-10.6-6.06-1.52-.96-2.8-1.22-4.08-1.19-5.83,6.16-11.65,12.07-16.28,19.25-.48,2.6-.05,5.59,1.48,7.82,2.87,4.19,4.25,8.96,6.33,13.44,1.34,2.89,1.71,6.09,3.2,8.88,1.6,3.01,2.99,6.04,2.61,8.95,1.05,2.22,1.89,3.91,3.76,4.89,4.63-.92,8.35,2.23,12.62,3.23,1.24.64.83,2.39,2.06,3.03-.4,2.71,1.72,5.09.94,7.57,1.23,1.73,2.46,3.17,1.8,5.25-1.19,1.56-3.14,1.83-4.72,2.71-3.03,1.69-6.06,3.49-9.75,3.46-1.24-.01-1.5,1.59-2.31,1.83-1.34.31-2.54-.39-3.8.89-1.09,1.81-1.62,4.13-1.63,6.68,0,2.48.68,5.09-1.03,7.31,1.5,1.31,1.01,2.99,1.05,4.52.05,1.78.42,3.7-.11,5.31-.51,1.54,1.99,2.72.15,4.08,1.7,1.39.89,3.3.88,4.96,0,1.62.21,3.08,1.13,4.31-.42.66-.75,1.18-1.03,1.62-.32,1.04,1.06,1.27.92,2.09-.65,3.69,1,7.15,1.03,10.78.01,1.51-.72,3.26.94,4.46-.55,3.33,1.94,6.39.8,9.81-.39.41-.84.87-1.28,1.33h-6.82c-2.66,2.16-3.4,5.06-3.42,8.32-.01,1.92,1.14,3.45,1.44,5.24.48,2.84,3,5.07,2.45,8.32-1.89,1.92-4.04,3.73-5.36,6.68-.65-1.76-2.54-1.24-3.06-2.54-.5-1.26-.23-2.87-1.85-3.66h-2.86c-.75.78-1.54,1.59-2.49,2.58,1.3,2.12-2.57,4.37.08,6.78-1.56.75-1.74,2.54-2.98,3.95v3.5c-2.52,1.82-5.39,2.31-7.21,4.57-1.62,0-3.24,0-4.68,0-2.19,1.37-4.25,2.65-6.23,3.89-1.73,0-3.56.48-4.92-.11-2.16-.94-4.29-1.01-6.45-.81-2.27.2-4.27-.77-6.41-.97-2.41-.22-4.85-.05-6.34-.05-3.65.93-4.76,3.42-6.48,5.36-1.08,1.21-.14,2.83-1.59,3.79-2.56,1.69-3.04,4.92-4.94,7.19-1.93,2.31-3.48,4.95-4.99,7.62-2.1,3.7-3.9,7.54-6.78,10.88-2.12,2.46-3.96,5.4-5.61,8.31-.74,1.3-.8,3.05-2.12,3.95-1.52,1.03-.37,3.18-1.95,4.08,1,2.08-1.31,2.46-2.07,3.38-1.04,1.25-.56,2.67-1.34,3.89-2.58,4.07-5.93,7.74-6.93,12.67-.06.29-.23.55-.35.83-.12,1.01,1.01,1.38,1.14,2.49.13,1.1-1.66,1.31-.72,2.34.55.34.75,1.14,1.56,1.02,7.69-4.25,9.37-4.83,14.03-4.86.69-.66,1.39-1.32,2.09-1.99,2.38.53,4.16-.82,5.84-1.79h6.82c1.4,2.01,1.57,4.13,1.2,6.34-3.44,4.84-4.3,10.85-7.25,16.04-1.75-.65-2.81.92-3.77,1.15-1.81,1.96-1.53,4.02-1.49,5.84,1.21,1.29,2.32,2.47,3.35,3.56,1.8.29,3.01-.82,4.15-1.3.6-1.43,1.51-2.53,1.29-4.08-.23-1.58-.05-3.22-.05-4.85.73-.48.85-1.22,1.1-1.98.84-2.56,1.51-5.26,2.87-7.54,1.94-3.26,2.52-7.11,4.74-10.21.29-.41.04-1.21.04-1.62,4.49-4.1,6.65-7.23,7.09-9.99,1.03-1.03,2.09-2.04,3.08-3.11.28-.31.28-.87.54-1.22,2.81-3.99,5.3-8.22,8.18-12.13,2.84-3.87,4.66-8.61,9.06-11.33.83-.51.81-2.23,1.47-3.2.71-1.05,2.59-1.97,2.5-2.78-.23-1.97,2.5-.89,2.11-2.53,2.29-2.58,3.99-5.64,6.61-7.97,1.93-1.72,3.69-3.64,5.52-5.48,1.08-.18,2.23.27,3.26-.32.29-3.36,1.53-6.22,3.58-6.46.63.64,1.64,1.65,2.97,2.99,1.49.33,2.05-1.65,3.32-2.53,0-2.32.42-4.71-1.39-7.09,2.33-.33,4.44-.11,6.03-1.45.68-2.72,1.75-5.34,1.05-8.58,6.02-1.36,5.76-6.56,7.03-10.87.64-1.61,2.91-2.07,2.89-4.16,1.83-.41,2.05-2.44,3.38-3.35.46.46.92.92,1.48,1.48-.84,5,2.91,9.47,1.96,14.6,1.73,1.35.5,3.32,1.03,4.92,1.49,4.52,3.43,8.95,2.81,13.9-.1.8.75,1.01.93,1.56.14.42-1.01.37-.58,1.38,1.01,2.35.8,4.68-.08,7.21-1.74,4.96-2.99,10.1-4.54,15.52-3.21-2.33-5.87-1.23-8.13.92-1.14,3,1.64,5.54.5,8.45-2.34-.3-3.54,1.12-4.73,2.9.61,2.42-.71,5.15,1.12,7.79-1.33,1.26-2.61,2.48-3.88,3.69-.12,2.91-2.12,5.35-2.05,8.4.07,3.15.88,6.03,1.88,9.08-1.3.49-.81,1.7-.76,2.78.59.59,1.16,1.16,1.59,1.59-.96,2.83-1.42,5.37-2.23,7.79-2.44,7.25-5.76,14.16-8.05,21.46-1.93,6.15-4.4,12.13-6.46,18.23-1.56,4.6-3.5,9.12-3.46,14.03-2.52,3.04-1.83,7.5-4.64,9.78-.3,1.25.65,1.37.65,1.33-.79,3.25-1.99,5.79-1.74,8.63.22,2.56-.4,4.98-1.65,7.09-1.2,2.02-1.35,4.08-1.26,6.21-1.8,1.88-3.85,3.43-4.87,6.5v5.18c1.26,1.12,2.1,3,3.98,2.1,1.03-.75,2.05-1.49,2.82-2.05v-2.9c-.63-.67-1.27-1.35-1.92-2.03.95-.95,1.86-1.86,2.94-2.94-.14-1.86.26-3.77.78-5.75.57-2.16.97-4.12,2.65-5.38,2.97.04,3.32,2.96,5.34,4.03,2.18,1.15,3.74,3.45,5.69,5.1,1.84,1.56,2.33,4.17,4.42,5.32,1.12-1.06,2.3-2.17,3.42-3.23.2-1.3-.34-2.53.68-3.73.73-.86.74-2.27,1.11-3.39.48-1.43,2.44-1.79,2.12-3.51-.31-1.63,1.33-2.03,1.97-3.14v-3.37c2.54-5.39,5.68-10.06,7.18-15.46.73-2.62,2.83-4.78,2.5-7.71-.07-.59.31-.87.65-1.19,2.14-2.08,3.34-4.93,4.01-7.54.74-2.85,2.44-5.17,3.34-7.9,1.16-3.48,1.26-7.17,2.99-10.65-1.5-1.79-1.94-4.13-3.26-5.92-1.48-2.01-1.56-4.52-3.03-6.57-1.27-1.77-1.73-4.12-2.49-6.23-.46-1.27-.67-2.65-1.27-3.85-1.34-2.68-3.26-5.18-3.77-8.14-.55-3.17-2.95-5.87-2.15-9.41.16-.71-1.5-2.15-.77-2.89,1.35-1.38.47-3.06,1.38-4.9.84-1.93,4.09.55,5.23-2.32v-3.85c-.57-.57-1.14-1.14-1.77-1.77,1.65-.58.3-2.52,1.38-3.42,2.06,1.72,4.29,2.17,6.37,1.89,1.15-.95,2.12-1.75,3.01-2.48-.91-1.81-1.61-3.35-.8-5.16,1.92.07,2.41-1.64,3.32-2.96.27,1.12-.11,2.33.34,2.96,1.36,1.91.17,4.27,1.04,5.89,1.11,2.06.64,4,.81,5.99.12,1.45-.15,2.94.06,4.37.31,2.09.51,4.3,2.27,5.85,3.26.06,6.47.71,9.46,1.8,3.07,1.13,6.63,1.63,8.65,4.77-.22,1.06.23,2.11-.39,3.24-1.28,2.35-.83,5.03-.37,7.45.8,4.16.96,4.11-.11,8.55-.25,1.04-.32,2.18.14,3.26.71,1.65,1.36,3.33,2.02,4.97,5.11.14,6.37-.25,10.36-3.28,0-1.56-.26-3.22.07-4.76.41-1.91-1.47-3.08-1.11-4.97.29-1.48.45-3.18-1.06-4.22,2.16-3.13.57-6.45,1.16-9.05.96-1.15,1.68-2.02,2.37-2.85,1.33.54,2.29-.57,3.41-.65.18,3.51.36,6.76.79,10.05.76,5.77-.2,11.73,1.64,17.77,4,2.97,5.81,3.3,16.59,2.88,1.25-1.1,3.44-1.09,3.54-3.38.02-.47.79-1.12,1.34-1.31,3.74-1.29,3.33-4.4,3.33-7.34-1.56-1-.33-2.94-1.12-3.88-1.27-1.5.38-2.4.28-3.68-.33-4-.12-8.04-.12-12.14,1.4-.32,2.6-.38,3.96.11v21.5c.92,1.57,3.09,1.42,3.21,3.45,1.27,0,2.56.09,3.83-.02,4.4-.38,8.27-4.38,8.42-8.77.1-3.07-.12-6.16.06-9.23.17-2.94-.9-6.01.85-8.8-2.02-2.04-.17-4.65-1.04-6.87-1.74-1.85-3.8-4-6.37-3.1-2.64.92-5.25.51-7.69.94-.47.47-.81.81-1.15,1.15-.61,1.8.37,3.79-.57,5.53h-3.33c.04-2.38-2.3-3.11-3.15-4.37-5.49-1.51-10.56-3.33-16.31-2.15-1.58,1.03-3.5,2.26-5.41,3.52-2.16,1.43-1.86,4.6-4.14,5.92-2.6-.08-3.24-2.45-4.66-3.88h-7.14c-.45.57-1.05,1.33-1.48,1.89h-4.12c-.89-1.15-2.71-.96-3.25-2.46,4.31-1.62,8.88-2.05,13.4-2.82,4.6-.79,9.04-2.56,13.65-3.33,4.57-.76,9.01-2.54,13.76-2.03,4.14-3.23,9.48-.8,13.26-2.63,4.2.82,7.45,3.25,11.08,2.64,2.45,1.26,4.54,2.34,6.65,3.43-1.13,1.19-2.74,2.09-1.72,4.03.82.39,1.6.75,2.2,1.04,2.11-1.02,4.26-1.82,6.13-3.05,1.1-.73,2.41-.93,3.12-.5,2.1,1.27,4.26.76,6.26.72,4.07-.86,3.85-4.64,5.25-7.31-1.1-.59-1.14-1.99-.71-2.51,1.18-1.44.98-3,.86-4.52-.45-5.75,1.74-11.34,1.02-17.1-.05-.44-.13-.9.32-1.33,1.24-1.18.29-2.76.67-4.09.37-1.31-.82-1.94-1.06-3-.33-1.46,1.2-2.08,1.08-3.5-.54-6.86,1.62-13.61.93-20.49-.1-.96-.36-2.12.05-2.88,1.69-3.19.5-6.58.95-9.83.18-1.27-.84-1.95-1.02-3.02,1.33-1.43.95-3.22.97-4.92.02-1.62.14-3.25-.03-4.86-.17-1.65.98-3.42.4-4.69-.76-1.67.47-3.53-.87-4.94-3.75.59-4.09,1.3-2.4,4.9.14.9-1.21,1.07-.98,2.03.4,1.65-.62,3.41.73,5.07,1.35,1.67-1.34,3.06-.72,4.82.25.71,1.28,1.05.95,2.03-.31.5-.89,1.01-.9,1.54-.08,3.56-.24,7.14.01,10.69.27,3.69-1.49,7.06-1.11,10.79.37,3.53.94,7.42-.16,10.6-1.16,3.35.27,6.86-1.6,10.03-.63,1.08-.41,2.99.66,4.31-1.69,2.17-.76,4.68-.66,6.97.12,2.6-1.06,4.91-1.04,7.38.03,4.42,0,8.8-1.51,13.39-1.89-1.44-4.08-1.23-6.24-1.21-1.3.01-2.59-.04-3.89.01-2.22.09-4.18-.32-6.17-1.59-1.85-1.18-4.15-2.03-6.32-2.21-4.16-.34-7.53-2.22-10.79-4.12-.48-4.19.63-8.21-1.03-12.04-.25-.58-.27-1.49.25-2.29,1.21-1.86,1.07-4.01.19-5.83-.7-1.45-.87-3.08-.38-4.12,1.6-3.42.44-6.92.89-10.34.15-1.11-1.4-1.4-.89-2.8,1.3-.37.85-1.64.85-2.72.02-4.21-.07-8.43.05-12.64.04-1.66-.42-3.31.79-5.04.76-1.09.76-3.58,0-4.66-1.14-1.59-.76-3.06-.79-4.56-.08-4.32.05-8.59.81-12.91.61-3.46.37-7.13.05-10.67-.31-3.55,1.14-6.79,1.14-10.3,0-5.05-.51-10.08.7-15.19.87-3.68.29-7.74.14-11.62-.15-3.71,1.34-7.23,1.03-10.95-.15-1.77.06-3.57-.05-5.34-.1-1.55.14-3.06-.37-4.68-.44-1.39.68-3.08.41-4.72-.17-1,.07-1.88.95-2.5-1.53-1.04-1.41-2.99-.76-3.86,1.05-1.41.59-2.74.76-4.1.26-1.98-.22-3.93.82-5.99.73-1.45.61-3.74-1.16-5.21,2.33-1.11.45-3.53,1.86-4.67,2.55.42,3.9,2.73,6.13,3.25,2.36.55,3.67,2.62,5.73,3.59,2.1.99,3.78,2.65,5.73,3.79,2.07,1.21,4.25,2.29,6.36,3.44,2.07,1.13,3.47,2.96,5.56,4.08,2.12,1.13,4.47,2.42,5.92,4.98v10.36c-1.71,1.38-.64,3.3-1,4.94-.36,1.64-1.39,3.16-.94,4.95.6,2.44-.82,4.55-1.19,6.82-.1.61-.68,1.26-.79,2.09-.71,5.36-1.23,10.71-.95,16.13.04.77.15,1.8-.27,2.29-1.41,1.63-.25,3.32-.86,5.18,2.16-.12,4.01.55,5.03-1.74,0-4.87.23-9.9-.07-14.91-.3-5.1,2.26-9.73,1.96-14.75-.08-1.4,1.33-2.05,1.1-3.5-.19-1.2-.25-2.5.14-3.78.89-2.93,1.81-5.87,1.74-9.01ZM269.67,49.81c-1.24,2.5-1.03,5.56-4.26,6.59-1.22-.36-.61-2.05-1.67-2.41,1.37-1.97,2-5.06,5.93-4.18ZM256.8,47.18c.71-.71,1.05-1.05,1.64-1.64,1.36,1.33,3.72.6,5.17,2.61-2.11.7-3.36,2.42-4.83,3.88v2.4c1.01.21,1.54.94,1.93,1.75.15.85-.53,1.14-.91,1.62,1.04,1.12,1.94,2.44,3.61,2.72.9,1.91-.32,2.82-1.33,3.69-2.35-.33-2.07-2.51-3.27-3.43-.21-2.14.54-4.43-1-6.35-.17-.91.41-1.94-.33-2.74-1.45-1.57-.11-3.27-.67-4.52ZM242.33,53.07c1.88-1.24,3.47-2.67,5-4.24,1.21-1.25,3-1.62,4.14-3.01.34-.41,1.49-.34,2.33.17v8.21c-4.15,3.23-9.83,3.65-14.08,7.58-.99-3.86-.18-6.85,2.62-8.71ZM244.25,62.77c1.68-1.44,3.89-2.26,5.77-3.5,1.4-.93,2.86-1.08,4.84-.85,2.11,4.24,2.51,8.89,5.02,12.64-4.01,3.65-8.81,3.04-13.36,2.71-2.32-.17-4.86-.98-6.21-3.45.1-1.23-.11-2.42-1.13-3.05,1.05-2.61,3.45-3.11,5.07-4.5ZM151.99,79.35c-.49-2.34-.32-4.76,1.51-6.34.9-.77,1.63-1.39,2.35-2.41,1.55-2.2,3.71-3.98,5.67-5.88.65-.62,1.06-1.68,2.56-1.51.46,2.37.49,5.07,1.56,7.26,1.11,2.28,1.22,4.86,2.61,6.96-.74.7-1.6.13-3.01.61-2.48,2.48-5.42,5.42-8.55,8.56-3.28-1.46-2.62-5.2-4.69-7.25ZM157.67,91c2.26-2.7,5.21-4.71,7.37-8.12.84-.33,2.03-1.47,3.82-1.19,2.39,3.64,1.53,8.54,4.28,12.14.63,1.86-.92,4.14,1.06,5.81-.95,1.15-1.95,2.04-3.63,1.25-2.02-.95-4.1-1.77-6.22-2.67-.9.91-1.86,1.88-3.2,3.23-1.56-3.62-3.68-6.69-3.46-10.45ZM176.55,117.66c-2.99-.07-5.4-2.38-8.55-1.96-2.03-1.7-3.43-3.65-3.63-6.6-.11-1.67-1.15-3.44-2.2-4.83-.83-1.1-.3-2.14-.67-3.02,4.85,1.58,9.67,3.15,14.71,4.79-.46,3.72.7,7.01,1.59,10.44-.35.33-.81.77-1.26,1.19ZM179.55,114.49c-.92-3.86-1.7-7.04-2.42-10.25-.38-1.69.85-2.92,1.6-4.16.73-1.21,1.99-2.09,3.09-3.2.2-1.15.38-2.36-.32-3.68-2.23.54-3.08,2.7-4.92,3.9-1.74-1.32-2.22-3.2-2.47-5.43-.29-2.63-1.18-5.19-1.83-7.87,1.77.42,2.46.76,3.68,1.76,1.56,0,1.78-1.74,3.14-2.19-1.94-2.81-4.87-3.69-7.6-4.88-2.08-5.14-3.74-10.36-2.93-16.76,2.73,4.26,7.79,4.28,10.38,7.66.39,4.88,1.92,9.36,3.24,13.87.68,2.33,1.16,4.69,1.81,7.01.7,2.47.39,5.16,1.79,7.5.43.71.21,1.93.03,2.86-.27,1.39.47,2.38,1.19,3.77-1.91,1.12-2.17,3.59-4,4.92.32,2.55-1.59,3.43-3.48,5.19ZM131.33,260.84v1.47h-4.62q1.56-1.68,4.62-1.47ZM61.72,330.3c-1.31-.06-2.77,1.6-4.86,1.1-.45-1.68-.6-3.18.99-4.64,1.81-1.67,1.19-4.81,3.47-6.31.62-4.09,3.57-6.96,5.46-10.38,1.84-3.32,3.82-6.53,5.84-9.74,3.21-5.12,6.13-10.42,9.25-15.6,1.42-2.35,2.9-4.67,4.56-6.85,1.51-1.97,2.31-4.2,3.31-6.41.77-1.71,2.39-3.05,3.22-4.9.29-.65.3-1.53,1.12-2.23,8.37.64,17.02-1,25.39,1.12.82,1.72-.6,2.09-1.25,2.86-3.3-1.76-6.87-.64-10.19-1.01-2.48.75-3.98,2.63-5.63,4.29-1.12,1.13-1.69,2.71-3.37,3.42-1.69.71-1.52,3.12-3.12,4-1.38.76-1.73,2.27-2.32,3.43-2.27,4.5-4.86,8.75-7.92,12.77-1.9,2.5-3.07,5.55-4.84,8.17-1.62,2.4-2.82,4.99-4.21,7.49-1.33,2.4-3.05,4.62-4.8,6.75-.74.9-.6,1.74-.66,2.62-3.15,3.19-5.25,7.28-9.44,10.06ZM113,277.81h-9.97c.75-2.77,3.24-3.73,4.31-5.35,2.71-.96,5.17-1.82,7.46.14-.89,1.68-2.36,3.13-1.81,5.2ZM99.35,293.58c-.96.27-6.66-.13-7.74-.4v-2.11c3.97-2.52,3.8-8.31,7.84-10.66,2.87.13,4.92,3,7.58.52.96.44,1.9.88,2.84,1.32-1.15,2.37-1.32,5.27-3.71,6.99-.87,3.64-4.12,3.57-6.81,4.33ZM102.13,296.19c-.76,3.35-3.11,5.45-4.41,9.05-.45.39-1.65,1.42-3.45,2.98-1.35.2-3.62-.09-5.92.78-1.92.72-4.33.14-6.97.14,2.1-3.83,3.89-7.1,5.73-10.47,4.71-1.42,9.86-.92,15.01-2.48ZM88.27,319.67c-.7,1.95-.85,4.23-3.17,6-2.03,0-4.6-.21-7.11.06-2.2.23-4.34,1-6.79,1.6.38-3.03,1.2-3.72,3.12-6.61,1.29-1.93,2.47-4.06,3.42-6.21,4.88-1.44,9.3-4.26,14.71-3.23v3.24c-1.37,1.77-3.36,2.89-4.17,5.14ZM97.65,313.41c-1.43,1.95-2.84,4.01-4,6.11-.72,1.31-1.75,2.13-2.6,3.26-.03-2.95,4.43-10.24,9.07-14.89.71-.74-.6-2.37,1.17-2.68-.06,3.63-.21,3.52-3.65,8.19ZM113.93,290.85v-.17c-.12.59.33,1.33-.33,1.78-3.47,2.35-4.14,6.9-7.43,9.39-.2,2.17-2.36,2.82-3.29,4.37-.64-.24-.8-1.1-1.58-.95.75-3.69,2.96-6.59,5.15-9.49.4-.53.84-.95.66-1.66,1.61-1.16,3.79-1.35,5.03-3.09.48-.67,1.2-.21,1.79-.34v-1.45c-1.01-1.14-2.43-.09-3.63-.67,1-2.85,2.36-5.44,4.98-7.38,1.66.06,3.1-1.6,5.04-1.13.78.62.19,1.5.56,2.36-3.38,1.88-3.42,6.48-6.95,8.43ZM129.75,272.44c-2.17,2.13-4.31,4.29-6.68,6.67-.52-.75-1.04-1.51-1.31-1.89-2-.48-3.09,2-5.24.06,1.11-1.61,2.53-2.85,2.95-4.4,3.51-1.95,7.33-1.16,10.54-2.64.82,1.05.35,1.61-.26,2.21ZM122.97,268.16c-.79-.62.08-1.6-.55-2.61h9.74c-3.42,1.8-6.48,1.33-9.19,2.61ZM138.94,262.6c-2.11-.25-2.67-1.86-4.01-2.9.92-1.49,2.35-.83,2.72-1.99,2.09,1.22,1.69,2.97,1.28,4.89ZM141.16,254.24c-.2-1.34,1.22-2.02,1.24-3.49,2.21,1.4,1.74,3.08,1.48,4.7-1.54.78-1.9-.69-2.72-1.21ZM144.9,263.1c-.32.57-.85.29-1.33.37-.77-.98-.75-1.95.23-3.27,1.7.82,1.2,1.94,1.09,2.9ZM145.14,244.75v-3.27c.43-.43.87-.87,1.72-1.72-.38,2.25,1.78,2.81,2.33,4.84-1.6.56-2.78.5-4.05.15ZM145.96,247.04c1.91-.3,2.23.84,3.08,1.41-.35,1.38-1.08,2.52-2.34,3.9-1.05-2.02-.51-3.64-.74-5.31ZM151.84,252.3c-.18,1.55-.85,2.54-3.36,2.3.83-1.66,1.4-2.79,1.88-3.76,1.46-.12,1.58.6,1.48,1.46ZM253.04,326.06c2.08-1.49-.45-4.58,2.6-6.2h3.66c2.31,8.26,1.1,16.66,1.46,24.73-1.91,1.99-4.25,2.37-6.69,4.1.3-2.46-1.17-3.83-1.14-5.73.08-5.63.08-11.27.12-16.9ZM223.72,325.71c.49-.73.04-1.87-.9-2.46,1.14-1.56,3.43-1.63,4.3-3.42,4.73.12,9.66-.88,13.34,3.6-1.12,4.32,1.17,8.53.88,13.01-.28,4.34-.06,8.71-.06,12.1-.82,3.12-2.6,4.48-4.25,6.17h-7.73c-1.27-.65-2.73-1.39-4.38-2.23-.49-1.97-.83-4.24-1.68-6.31-.39-.96-.26-1.83-.45-2.72-.4-1.84.75-3.53.14-5.54-.59-1.92-.18-4.16-.11-6.26.06-2-.4-4.04.89-5.94ZM205.31,332c1.9-1.31.45-3.33,1.2-5.09.29-.29.75-.75,1.25-1.25,3.16,8.69,2.32,17.72,2.42,26.66-.78,1.1-1.72,1.88-3.32,1.5-.36-.13-.38-.68-.62-.96-1.05-1.22-1.14-2.66-.86-4,.33-1.57.32-2.99,0-4.56-.34-1.64-.28-3.27-.89-4.98-.83-2.33,1.49-4.73.83-7.32ZM159.09,231.46c-.9-2.24-1.6-4.56-2.25-6.8-.61-2.13-.51-4.69,1.28-6.9,1.83.61,3.7-1.15,5.79-.08.35.18,1-1.21,2.3-.75.51,2.15,0,4.55.32,7.15-3.23,1.58-2.29,7.29-7.44,7.38ZM170.67,296.26c.7,1.4,1.23,2.48,1.89,3.79q-2.04-.93-1.89-3.79ZM159.08,314.06c1.4-.18,1.66.79,2.38,1.27,0,1.34,0,2.74,0,4.13-2.92,2.31-2.08,6.43-4.66,9.67-.21-2.67-.43-4.76-.93-6.82-.81-3.33,1.37-5.96,3.2-8.25ZM144.64,426.7c-2.21-1.45-3.63-3.74-6.04-5.12-2.23-1.27-4.1-3.44-5.22-6.53v-4.69c3.24-.49,5.23,1.63,6.54,3.3,2.24,2.85,4.9,5.3,7.1,7.92-.04,2.25-.99,3.79-2.37,5.11ZM156.99,412.11c-.67-1.7-.28-2.89,1.38-3.71.67,1.7.28,2.89-1.38,3.71ZM158.24,397.48c-1.44-1.52-1.8-3.43-1.5-5.43.24-1.66-1.22-2.79-1.07-4.47.12-1.32.09-2.62-.68-4.07-.94-1.79.39-4.37-1.2-6.29.72-3.53-1.32-6.78-1.01-10.27-.46-.46-.92-.92-1.46-1.46-.4.49-.8.98-1.3,1.59-1.08,5.05,1.09,9.9,2.33,14.78.52,2.04-.52,4.51,1.45,6.18,1.21,4.73.72,9.8,2.87,14.36.29.62-.17,1.42-.49,2.19-.99,2.34-1.78,4.8-2.31,7.29-.24,1.11-.98,1.54-1.61,2.33-1.75-4.74-1.47-9.83-2.9-14.57-.05-.17.35-.48.66-.87-1.23-1.35-.65-3.5-2.01-4.64-.19-1.03.46-1.34.85-1.79.4-1-.33-1.47-.93-2.05.26-2.81-.1-5.56-1.34-8.15-.77-.04-1.56-.3-2.34.2-.83,3.31.65,6.33,1.29,9.47.52,2.55,1.73,4.97,1.44,7.66-.18,1.75.68,3.39,1.17,4.88.66,2.04.84,3.97.74,5.98-.1,2.1.88,3.87,1.55,5.69.29.78.39,1.49.4,2.25,0,.24-.32.49-.5.73-.16,0-.38.07-.48-.01-5.29-4.25-9.61-9.5-14.66-14.13.6-2.36,1.48-4.67,1.93-6.98,1.02-5.23,2.83-10.21,4.06-15.36.52-2.16,1.32-4.34,2.43-6.27,2.51-4.36,3.4-9.28,5.27-13.86,1.13-2.77,2.07-5.63,2.89-8.51.26-.92,1.1-1.13,1.33-1.97,2.61,1.41,1.78,4.21,2.41,6.2.86,2.69,2.13,5.49,2.06,8.36-.08,2.89,1.25,5.45,1.21,8.35-.03,2.48.93,5.06,1.85,7.43,1.58,4.03,1.46,7.83-.66,11.6-.66,1.18-.07,2.94-1.75,3.63ZM169.26,356.27c.08,1.29,1.52,2.07,1.05,3.44,1.47.6,1.75,2.09,1.86,3.27.16,1.71,1.61,2.57,1.89,4.08.46,3.76-1.04,7.01-2.44,10.5-2.66,6.64-6.07,13.02-7.28,20.25-.45,2.71-1.94,5.41-4.12,7.46-.91-.17-.71-.95-.58-1.42,1.15-4.02,1.95-8.18,4.12-11.84,1.4-2.37,2.4-4.8,2.74-7.6.21-1.7,1.22-3.35,2.04-4.94,3.27-6.38,3.54-8.67,1.78-15.9-.15-.61-.02-1.29-.02-1.93-.19-.22-.29-.43-.35-.65-1.2-2.32-2.3-6-2.35-8.8.8,1.87,1.58,2.95,1.65,4.07ZM162.35,348.64c1.71,3.8,1.96,8.23,3.16,12.29.8,2.72.7,5.8,2.81,7.99-1.25,4.81-1.2,10-4.51,14.11-.29-.04-.6-.07-1.31-.16.79-3.6-1.47-6.9-.95-10.57.05-.32.15-.78-.02-.95-1.59-1.66-.29-4.04-1.43-5.72-.52-.78-.49-1.48-.48-2.24.03-3.43-.87-6.66-1.76-9.95-.57-2.1-.11-4.48-.11-6.47-.37-1.02-1.09-.85-1.79-.97-.99-3.3,1.36-5.77,1.93-8.67,1.58.73,1.71,2.31,2.68,3.88-.15,2.28.56,4.76,1.76,7.44ZM164.4,309.83c-1.19.46-2.39.38-3.7.08v-7.18c.54-.74,1.75-.02,2.14-1.45,1.02.96,1.84,1.74,2.32,2.2,1.02,2.51-.84,4.2-.76,6.34ZM166.27,299.36c-.84-2.46-1.42-4.18-1.92-5.66.77-1.86,1.98-2.29,3.81-1.99.6,2.75.06,4.92-1.89,7.65ZM174.19,306.73c-.61.82-1.48.34-2.33.5-1.01-1.14-2.07-2.32-3.26-3.66.68-.9,1.55-1.51,3.31-1.1.47.64,1.22,1.65,2.28,3.07,0-.09,0,.55,0,1.19ZM177.97,286.42c-1.03.57-2.41.68-2.8,2.11-.15,1.52,1.85,1.67,1.95,3.04.08,1.21-.42,2.59.95,3.45-1.16.86-.89,2.7-2.35,3.34-1.53-1.11-2.06-2.76-2.87-4.42-1.03-2.1.04-3.42.25-5.15.4-3.29,1.44-6.14,3.82-9.58-.03,3.13,1.81,4.93,1.05,7.2ZM252.91,133.99c-1.77,3.15-1.03,6.58-.84,9.81.23,3.87-1.2,7.47-1.1,11.27.09,3.72-.11,7.46.08,11.17.08,1.54-1.34,2.43-1.08,3.98.24,1.41-.46,3.28.23,4.25,1.12,1.56-.41,2.42-.3,3.69.42,4.89-1.3,9.68-.94,14.66.35,4.83.41,9.74-.04,14.56-.31,3.38-1.1,6.74-.77,10.54-2.35-1.29-2.35-3.52-3.46-5-1.41-.29-2.54.1-3.32,1.34,1.2,1.87,1.09,4.39,2.25,5.43,1.69,1.55,3.14.45,4.49,1.44-.47,1.46.58,3.13-.78,4.81-.56.7-.23,2.16-.23,3.27-.01,11.99.03,23.98-.04,35.96-.01,2.31.43,4.64-.82,6.95-.52.97-.41,2.68.37,4.12.46.84-.61,2.03-.57,3.28.09,2.47.56,5.02-.86,7.4-.56.93.4,1.73.97,2.54-.4,1.26-.87,2.53-1.15,3.89-.44,2.18,2.11,3.85.8,5.81-1.22,1.84-.3,3.74-.79,5.67-1.75,2.68-5.05,2.51-7.7,3.18-2.78.7-5.72.83-8.39,2.11-1.68-1.19-3.35.3-5.03,0-2.11-.38-4.04.59-5.74,1.38-2.97,1.36-6.07,1.8-9.14,2.62-3.53.94-7.16,1.21-10.7,2.23-3.59,1.03-7.25,2.35-11.52,2.78.13-1.54-.21-2.21-.96-2.59,0-1.86-.04-3.65,0-5.42.08-3.13-.91-6.05-1.71-9.02-.12-.44-.3-.93-.22-1.35.49-2.73-.51-5.29-1.05-7.85-.73-3.45-1.92-6.8-1.9-10.39,0-.45-.07-.96-.28-1.33-2.88-5.07-2.12-10.09.12-15.11.43-.96-.31-2.33,1.3-3.09-.61-.59-1.14-1.1-1.4-1.34-1.54-.46-2.04,1.57-3.64.42.54-3.08-.32-6.27-1-9.44-.56-2.63-1.5-5.2-2.51-7.7-.57-1.39-.55-2.4.6-3.33-.32-.36-.92-.73-.9-1.07.15-3.16-.85-6.13-1.56-9.11-.66-2.77-1.07-5.6-2.2-8.31-.69-1.66-.03-3.83-.2-5.76-.19-2.18.69-4.45-.6-6.55-1.18-1.91.71-4.46-1.27-6.31-.32-.3.04-1.26-.06-1.89-.36-2.15.64-4.35-.67-6.53-1.1-1.83.6-4.43-1.23-6.29-.16-.16-.06-.63-.02-.95.74-5.28-1.48-10.39-.9-15.63.13-1.21-1.41-2-.42-3.24,1.16-1.46-.37-2.55-.59-3.83-.21-1.26-.11-2.59-.03-3.88.11-1.84-.39-3.69.84-5.51.5-.74.67-2.54-.71-3.47.74-1.11.95-2.54,2.14-3.4,3.16.14,5.71-1.75,8.54-2.76,2.39-.85,4.86-1.67,6.9-3.26,1.25-.97,2.56-1.07,3.91-.88.98-.71,1.86-1.37,1.85-2.64,4.52-2.38,9.69-3.44,14.07-7.04h4.01c4.17-1.87,7.54-3.56,11.86-4.42.11-.12.65-.71,1.1-1.21.43-.13.72-.27,1.01-.3,1.53-.11,3.04.18,4.54-.86.62-.43,2.58-1.02,2.73-.82,1.22,1.67,1.72-.57,2.8-.39,3.26.53,6.28-.99,9.41-1.7,1.22-.27,2.08-1.36,3.46-1.14,1.1.18,2.26.08,3.4.02,1.07-.05,2.3.42,3.06-.82,1.08.78,2.54.96,3.46,2.24.38,2.8-.55,5.88,1.03,8.67.21.37.21,1.06,0,1.43Z"/>
  <path class="cls-1" d="M234.96,67.12c-.77-1.02-.77-1.99,0-3.01.77,1.02.77,1.99,0,3.01Z"/>
  <path class="cls-1" d="M411.33,104.57c-.18-.84.71-1.93-1.19-2.75-1.28,1.6-2.88,3.06-4.25,5.04-1.31,1.89-1.75,4.33-3.75,5.9-2.94.1-6.3-.66-8.24,2.69-.19,2.65,1.63,4.27,3.12,5.87-1.9,7.16-6.42,12.61-9.62,18.73-.81,1.55-2.37,2.86-4.08,3.26-.48,1.41,1.56,1.9.67,3.19-.89.42-1.77.54-2.8-.22v-4.92c-3.08-3.25-7.48-4.49-9.88-8.03-1.43-.47-2.95.42-4.12-1.02-1.49-1.85-3.64-2.17-5.94-2.06-1.85.08-3.8.43-5.29-1.13-3.29,2.03-3.33,6.01-5.73,8.37-.45,4.41-3.48,8.18-3.07,12.86.13,1.44-1.71,3.02-.81,4.39,1.06,1.61-.23,2.74-.17,4.12.15,3.3,1.68,6.43,1.08,9.8-.03.19.58.44.61.69.36,3.1,2.16,5.37,4.52,7.35-.8,2.19-1.27,4.3-2.3,6.1-1.65,2.9-2.76,5.96-3.96,9.06-1.66,4.32-4.12,8.34-6.36,12.42-1.46,2.65-2.75,5.34-3.5,8.41-1.56-.11-2.13,1.52-2.49,1.71-2.98,1.07-4.83-.07-6.76-.55-3.66-.9-7.39-1.56-10.95-2.89-4.68-1.75-9.9-1.51-14.43-3.88-.25-.13-.66-.1-.96,0-1.84.57-3.2-1.14-4.95-.99-1.76.15-3.17-.96-4.77-1.39-3.2-.86-6.18-2.48-9.51-2.64q-2.58-2.54-5.87-3.67c-.45,3.68-4.9,3.61-6.19,6.73.47,2.2-.64,4.66.64,6.92.29.52.47,1.1.81,1.92,1.28-.94,1.53,1.27,2.87.87.56.08.49-1,1.38-.71,2,.66,4.04,1.25,6.11,1.67,3.43.7,6.8,1.65,10.27,2.27,4.72.85,9.27,2.66,13.99,3.76,2.36.55,5.25.5,7.28,2.79,2.8-.52,5.39.78,7.94,1.7.49-.45.76-.91,1.94-.61,8.18,5.5,17.74,7.78,28.52,6.35,1.91-3.86,4.07-7.94,5.93-12.25,1.89-4.39,4.17-8.66,6.65-12.8,2.39-3.99,4.44-8.18,6.17-12.4,2.7-.8,5.16-1.94,7.97-2.28,1.68-.2,3.57-.56,5.28-1.21,1.96-.75,4.08-1.17,5.91-2.13,2.02-1.06,4.19.18,6.38-1.12,1.68-.99,4.41-.2,6.52-.2,1.51-1.06,3.29-1.51,4.54-3.9-.8-2,1.39-3.94,1.11-6.44-.28-2.42-.72-5.07.93-7.29-1.92-2.27-.51-4.98-1.07-6.91-2.82-2.13-4.5-4.96-7.23-6.59-.14-.08-.26-.21-.34-.34-.05-.08,0-.22,0-.35.5-.41,1.12-.96.74-1.62-1.37-2.4-4.75-2.12-6.3-4.46-.03-.04-.05-.08-.06-.11,0,.09-.05.22-.23.39-.34.34-.69.69-1.03,1.03.29.5.91,1.08.81,1.48-.22.88,1.35.98.72,1.92-2.18.35-4.38-.39-7.37,1.43,2.4-4.13,4.14-7.11,5.58-10.26,1.38-3.01,3.5-5.7,5.42-8.44,2.04-2.91,4.23-5.72,6.51-8.77,0-1.36-.6-3.35.13-4.49,1.41-2.21.31-4.39.75-6.52-1.73-1.03.24-2.05,0-3.08-.38-1.64.49-2.73,1.64-3.69.85-.71-.27-1.94.71-2.66,1.12-1.12,2.26-2.26,3.41-3.41ZM378.64,149.95c-1.87-.89-2.74-3.03-4.56-2.05-1.98-2.04-3.87-3.39-4.13-5.87,4.41,1.87,6.65,3.82,8.68,7.92ZM366.48,135.11c.85.17,1.12-.55,1.27-.65.8.91,1.57,1.78,2.48,2.81-2.19-1.66-4.68-1.05-6.88-1.19-.62-.57-1.09-1-1.61-1.47,1.77-.84,3.34-.66,4.73.5ZM342.8,205.19c2.37-5.01,5.07-9.89,6.32-15.34.25-1.1.96-1.6,1.59-2.26.69-.71.26-1.52.48-2.49,1.04-.95,2.23-2.03,3.57-3.25q2.71.04,5.9,2.1c.2,1.34.2,2.59-.65,4.19-1.47,2.79-2.11,5.88-4.46,8.4-2.1,2.24-3.09,5.49-4.44,8.31-1.66,3.5-4.71,6.4-4.98,10.57-.02.36-.64.69-1.17,1.21-2.17.67-3.76-.42-5.6-1.29.79-3.48,1.89-6.89,3.43-10.15ZM348.13,226.13c-1.03.94-2.21,2.02-3.74,3.42-4.52-1.28-9.64-1.53-14.47-3.85-3.3-1.58-7.07-2.53-10.83-3.17-2.34-.4-4.91-.53-6.94-1.9-1.87-1.27-4.25-.57-6.02-1.9-3.23.56-5.96-1.33-8.85-2.12-2.84-.78-5.77-1.56-8.58-2.65-2.65-1.03-5.6-1.39-8.34-2.16-2.68-.76-5.65-1.19-8.27-3.27,1.13-1.63,1.31-3.28,2.62-4.26,1.41,0,2.82,0,4.11,0,.68.68,1.26,1.26,1.86,1.86,3.84-.48,7.09,1.35,10.41,2.98.4-.32.76-.62,1.13-.92,2.71,1.65,5.62,2.58,8.89,2.87,2.98.26,5.63,2.43,8.66,1.82,2.3,2.23,5.27,1.94,7.79,2.91,4.9,1.88,10.01,2.74,15.27,3.02,2.29.12,4.46,1.5,6.7.73,1.44,1.31,3.51,1.31,4.09,3.09h3.11c1.04.85,1.9,1.78,1.39,3.51ZM365.32,198.2c-1.22,2.26-2.24,4.7-3.85,6.63-1.32,1.59-2.19,3.34-2.96,5.13-1.72,4.02-4.05,7.71-5.89,11.66-1.72-1.21-1.91-3.5-3.66-4.59,3.09-10.25,10.25-18.05,14.2-27.52,3.29.23,2.05,3.52,3.59,4.94-1.12,1-.78,2.56-1.42,3.75ZM403.24,182.21c-1.91,1.13-2.96,1.75-4.26,2.53-4.36-1.15-8.27,2.81-12.91,1.92-4.06,1.93-8.57,1.87-12.58,3.12-1-.74-1.91-1.15-1.98-2.69,2.54-.77,5.39-1.2,7.81-2.47,2.79-1.46,5.59-.44,8.34-.96.56-.56,1.13-1.13,1.76-1.76,5.11-.02,9.14-3.34,13.94-5.15.83,2.15-2.21,3.59-.12,5.46ZM395.46,159.29c.27-.06.46-.43.7-.67,1.7.87,3.4,1.74,4.77,2.44,1.27,1.33.09,3.07,1.27,4.31-3.1-1.73-6.19-3.46-10.12-5.66,1.86-.22,2.64-.26,3.38-.43ZM387.22,160.2c5.14,4.4,10.92,7.3,16.4,11.21-3.41,4.47-9,5.36-13.55,8.49-3.99-.46-8.29.18-12.31,1.96-3.24,1.43-6.5.64-9.49.94-1.3-.74-1.47-1.88-2.04-3-2.37.85-4.29-1.73-6.74-.81-1.34-2.2-.88-5.13-3.01-6.86-.44.37-.8.67-1.12.94-.38-.06-.77,0-.97-.18-2.97-2.61-4.12-6.06-4.22-9.87-.11-4.04.06-8.08-.05-12.12-.08-2.84,1.81-5.42.85-8.38,2.97-1.63,1.67-6,5.32-7.64,3.03,3.05,6.05,5.76,8.67,8.82,3.53,4.12,8.11,6.83,12.45,9.84,1.75,1.21,2.89,2.95,4.73,4.21.05.71.11,1.48.18,2.45h4.9ZM391.88,142.51c-1.86-2.87-.64-4.98.69-6.36,1.78-1.84,2.88-4.01,3.91-6.18.7-1.48,1.68-2.52,2.81-3.55.36.36.7.7,1.26,1.26-2.18,5.18-7.3,8.65-8.67,14.82ZM403.13,120.55c-1.45-1.45-2.67-2.67-3.45-3.46,2.44-.13,3.71.87,3.45,3.46Z"/>
  <path class="cls-1" d="M277.02,278.35c-.79-3.22-1.17-3.56-4.64-4.67-2.28-.73-4.57-1.37-6.81-2.27-1.26-.51-2.66-1.89-4.39-1.12-1.03,1.27-1.05,3.15-2.36,4.31-.23,1.72.57,3.68-.41,5.14-1.15,1.72-.39,3.41-.57,5.1-.18,1.69-.64,3.34-.85,4.94-.5,3.76-.16,7.64-.16,11.21,3.93,3.42,8.89,2.92,12.94,4.94,1.16.58,2.77.26,4.06.35,1.1-1.51,2.53-5.06,2.41-6.46-.16-1.84.71-3.83-.71-5.51,1.15-1.82.57-3.85.75-5.79.2-2.14-.56-4.33.85-6.45.57-.85.18-2.51-.12-3.72ZM272.54,288.9c-.84,2.27-.16,5.11-.16,7.69v5.79c-3.53-1.07-6.68-1.95-9.79-2.98-2.58-.85-2.13-3.51-2.76-5.37-.98-2.92,1.48-5.72.92-8.75,1.8-1.55.81-3.62.86-5.43.06-2.07.35-3.97,1.46-5.62,3.08,1.96,6.4,3.28,10.36,4.07-.55,3.46.45,6.95-.91,10.6Z"/>
  <path class="cls-1" d="M288.51,58.38c-2.67-.81-3.6,2.78-6.09,2.08-.07-.02-.21.22-.3.33v3.87c1.94,1.41,2.25,4.19,4.56,5.33h2.53c1.02-.93,1.85-1.69,2.6-2.37v-5.6c-1.25-1.38-2.33-2.58-3.3-3.65ZM288.37,67.07c-.81-1.32-.31-2.6-.31-3.61.73.43,1.4.82,1.8,1.05.1,1.54-.89,1.89-1.49,2.55Z"/>
  <path class="cls-1" d="M268.96,148.74h-2.89c-2.84,3.74-3.19,6.58-1.09,9.63h4.11c3.19-4.35,3.15-6.6-.13-9.63ZM267.06,154.64c-.69-.75-.66-1.29-.18-1.89,1.07.37.77.99.18,1.89Z"/>
  <path class="cls-1" d="M213.43,183.72c-2.72.14-2.94-1.88-3.79-2.12-1.71-2.66,1.72-3.09,1.45-4.86-.31-2.13,2.55-2.45,2.11-4.55h3.39c1.72,2.17,1.38,4.72,1.35,6.09-.7,3.64-3.4,3.9-4.51,5.44Z"/>
  <path class="cls-1" d="M216.9,191.46c2.27.82,2.87,2.88,3.96,4.95-1.48.9-.32,3.34-2.36,4.67h-4.12c-1.66-1.61-3.5-3.34-3.21-6.23,1.57-1.78,4-2.08,5.73-3.39Z"/>
  <path class="cls-1" d="M208.25,160.92c2.12-2.27,1.67-5.83,4.2-8.13h3.23c.28.28.72.74,1.18,1.21q.14,4.91-2.19,8.24c-1.65,0-3.37,0-5.09,0-.45-.45-.91-.9-1.33-1.33Z"/>
  <path class="cls-1" d="M202.33,201.27c.27-3.05.06-6.15.06-9.22,0-.97.41-2.35-.07-2.84-1.69-1.72-.75-3.69-.83-5.5-.09-1.89-.17-3.75-1.08-5.4-.58-1.05,1.9-1.54.26-2.77-.49-.37-.2-1.81-.22-2.76-.03-1.13-.27-2.35.06-3.38.48-1.52-1.12-2.23-1.05-3.49.64-.73,1.5-1.61.94-2.49-1.29-2.06-.81-4.26-.94-6.44-1.12-1.04-2.11-2.2-3.67-2.83-.75-.3-1.63-.86-2.16-.5-2.2,1.52-4.61.67-7.37,1.02-3.2,2.9-4.37,6.09-2.49,10.42.59,1.36,2.01,3.22,1.04,4.82-.86,1.43.06,2.43.08,3.62.02,1.46-.49,3.18.11,4.31,1.15,2.15.81,4.29.84,6.45.03,2.34,1.77,4.4,1.23,5.86,2.69,7.91,2.94,15.32,3.95,22.56.37.37.72.72,1.08,1.08,4.19.15,8.59.88,10.93-3.09,1.23-3.68-.96-6.37-.7-9.43ZM199.44,208.09c-.48.48-.94.94-1.41,1.41h-2.88c-1.47-.64-1.31-2.45-2.57-3.45.96-3.11-1-6-.98-9.18.02-2.87-1.73-5.39-2.95-8.2.79-1.98,2.02-4.14.13-6.31-.08-.09-.03-.32,0-.48.74-5.11-1.56-10.05-.94-15.13.35-2.89-1.76-5.43-.88-8.35,2.25-.75,4.52-1.87,7.45-1.23,1.12.46.95,2.28,2.15,3.22,0,2.84.26,5.77-.08,8.64-.29,2.48,1.45,4.43,1.12,6.9-.32,2.39-.71,5.09.09,7.22,1.13,3.01.94,5.97.73,8.87-.39,5.44,1.59,10.68,1.02,16.06Z"/>
  <path class="cls-1" d="M242.13,292.99c-2.02-1.42-.28-3.79-1.52-5.72-1.01-1.57-1.13-4.05-1.44-6.19-.44-3.04-.46-6.5-3.25-8.88-1.7,0-3.82-.61-5.15.15-1.73.99-3.59.45-5.28,1.39-1.58.88-3.59.94-5.16-.45-1.14,1.06-2.94,1.21-3.67,2.71-1.17.07-2.26.13-3.48.2,0,1.54-.58,3.51.12,4.24,1.35,1.41-.04,3.25,1.25,4.4,1.23,1.1.09,2.65.88,4.02.6,1.04-.51,2.68-.47,4.19.1,3.29,1.6,6.41,1.08,9.78-.16,1.04-.38,2.22.3,3.2.57.93,1.36,1.2,2.44,1.2,1.92,0,3.47-1.03,5.13-1.69,3.15-1.24,6.3-2.31,9.74-2.24,1.76.03,3.53,0,5.29,0,1.66-.63,1.72-2.43,2.19-3.56.85-2.06-.68-4.66.99-6.76ZM237.33,299.53c-2.84,1.01-5.8-.1-8.77,1.09-2.53,1.02-5.18,2.79-8.43,2.01-2.25-8.03-1.92-16.46-3.45-24.99,2.97,1.33,5.73.6,8.64.86.53-.66,1.13-1.41,1.6-2h6.09c1.03,1.03,1.71,1.71,2.43,2.43,0,1.89-.74,4.37.18,5.62,1.25,1.69.3,3.59,1.58,5.27.88,1.15.28,3.49,1.07,5.3.62,1.42-1.41,2.69-.95,4.41Z"/>
</svg>