<?xml version="1.0" encoding="UTF-8"?>
<svg id="Livello_1" data-name="Livello 1" xmlns="http://www.w3.org/2000/svg" viewBox="0 0 274.41 274.41">
  <defs>
    <style>
      .cls-1 {
        fill: #000;
      }

      .cls-1, .cls-2 {
        stroke-width: 0px;
      }

      .cls-2 {
        fill: #fff;
      }
    </style>
  </defs>
  <path class="cls-1" d="M103.85,181.92c-.12-.08-.24-.16-.39-.26-.28.15-.58.3-.93.48-.08.58-.07,1.22-.67,1.68h-.97c-.82.28-1.48.83-2.35,1.03-.8.18-1.49.83-2.4,1.38.11,0-.01,0-.24,0-.44.78-1.35,1.04-2.16,1.14-.83.1-1.28.62-1.96.95-.6.08-1.28.17-2.03.27.13.43.22.74.33,1.11-.54.36-1.07.72-1.61,1.08h-1.22c-.78.98-1.75,1.69-3.1,1.69-.3.3-.58.83-.93.87-.48.07-.72.41-1.1.56-.38.15-.73.34-1.11.5-.37.16-.76.29-1.13.45-.55.23-1.11.28-1.65.23-.27.2-.51.38-.85.64-.27.92-1.05,1.32-2.08,1.56-.62.14-1.21.17-1.84.21-.56.46-1.2.75-2.01.71-.22.26-.47.55-.82.97-1.15.47-2.49.98-3.81,1.55-.58.25-1.15.55-1.64.94-.43.34-.88.53-1.4.68-.72.21-1.44.48-1.86,1.14-.82-.05-1.25.58-1.84.89-.56.29-1.09.66-1.63.99-.58.36-1.34.42-2.19.66-.45.84-1.34,1.43-2.39,1.72-.53-.06-1.06-.13-1.58-.18-.96-.09-1.94-.1-2.89-.27-.49-.09-.93-.44-1.38-.71-.45-.27-.87-.59-1.45-.99-.12-.23-.32-.63-.51-.99.1-.66.78-1.25.17-1.98.08-.45.07-.93.26-1.33.5-1.1.7-2.27.96-3.44.02-.1.21-.22.19-.25-.7-1.02.46-1.86.28-2.83,0-.03.03-.07.06-.09.82-.67.65-1.6.64-2.24.53-1.71,1.38-3.06,1.5-4.7.2-.2.42-.42.65-.65,0-.86.21-1.6.81-2.31.45-.54.62-1.33.87-2.02.15-.42.2-.87.36-1.29.14-.38.29-.75.54-1.1.27-.39.64-.85.55-1.44-.07-.49.75-.64.5-1.22.39-.92.76-1.84,1.17-2.75.26-.59.37-1.21.48-1.84.09-.56.15-1.13.32-1.66.11-.35.4-.64.65-1.01-.12-.24-.27-.53-.47-.91.33-.19.7-.41,1.16-.67.38-1.05.7-2.22,1-3.42.15-.6.51-1.14.81-1.69.43-.78.88-1.55,1.36-2.38-.08-.13-.18-.29-.28-.45.08-.2.17-.41.24-.62.02-.07,0-.16,0-.4.36-.31.81-.7,1.25-1.09-.2-.39-.37-.72-.57-1.11.59-.49.6-1.31,1-1.94.39-.61.57-1.27.75-1.97.18-.71.26-1.48,1.12-1.94.64-.34,1.19-.96,1.39-1.78.09-.35.37-.64.56-.96-.27-1-.23-1.24.38-2.16.12-.19.34-.4.32-.57-.11-.79.49-1.33.63-2.03.13-.65.47-1.26.57-1.91.08-.6.5-.99.66-1.63-.01-.02-.14-.13-.14-.24-.02-.84,0-1.67,0-2.51,0-.04-.02-.09,0-.12.6-.95-.11-1.6-.48-2.36-.39-.79-.97-1.45-1.48-2.13-.56-.74-.85-1.56-1.16-2.4-.13-.34-.32-.67-.51-.98-.32-.51-.66-1.01-1.01-1.49-.52-.71-1.06-1.4-1.61-2.09-.17-.22-.49-.36-.57-.6-.37-1.03-1.11-1.8-1.8-2.6-.29-.34-.64-.65-.97-.96-.26-.24-.64-.41-.77-.7-.43-.91-1.21-1.56-1.7-2.41-.35-.6-.57-1.28-.87-1.91-.17-.38-.34-.75-.66-1.04-.93-.87-1.65-1.88-2.22-3.02-.32-.63-.78-1.19-1.18-1.79-.55-.81-1.09-1.63-1.68-2.51v-1.14c-.23-.18-.44-.45-.72-.54-.75-.26-1.08-.87-1.43-1.48-.33-.58-.62-1.18-.96-1.85.15-.76-.21-1.4-.83-1.96-.38-.34-.58-.77-.62-1.3-.03-.36-.12-.77-.34-1.05-.39-.51-.37-1.07-.37-1.63-.34-.23-.66-.44-.96-.64,0-.08,0-.12,0-.15.08-.33.29-.68.21-.97-.14-.56-.12-1.14-.34-1.69-.12-.31-.11-.68-.18-1.2-.14-.13-.4-.36-.6-.54-.25-.96-.55-1.85-.06-2.77-.23-.65-.6-1.29-.39-2.02.13-.34.27-.68.4-1.03.21-.57.43-1.11,1.11-1.33.31-.1.54-.42.84-.56.33-.16.63-.4,1.06-.35.41.04.87.15,1.22-.22.78.08,1.51-.1,2.2-.47.06-.03.17-.03.23,0,1.02.48,2.09.12,3.13.24.25.03.5.14.77.22.5-.32,1.07-.31,1.62-.12.45.16.84.18,1.31-.04.43-.2.96-.18,1.43-.31.42-.12.83-.32,1.3-.51.42.23.91.42,1.32.72.91.68,1.81,1.14,2.81.2.61.26,1.18.55,1.7.03,1.07.33,1.91.97,2.79,1.59.35-.32.63-.57.98-.88.71.25,1.53.17,2.27.49.17.07.39.05.58.04.52-.03.99.07,1.36.48,2.15,0,4.31,0,6.39,0,.73.37,1.34.87,2.17.72.66.5,1.2.17,1.77-.24.36,0,.76,0,1.16,0,.41-.42.92-.48,1.48-.49.57-.02,1.17.22,1.71-.21.09-.07.33-.04.45.04.48.3.93.34,1.39-.03.08-.06.23-.04.35-.02,1.03.17,2-.22,3.01-.29.55-.04,1.12-.2,1.7-.18.17,0,.34.13.54.22,1.04-.32,2.06-.91,3.2-.69.72-.53,1.39-1.03,1.97-1.45.05-.4.1-.72.15-1.1.8-.48,1-1.46,1.62-2.16.6-.67,1.32-1.37,1.48-2.36,0-.03.05-.06.08-.08.18-.13.37-.25.59-.4.21-.82.43-1.67,1.16-2.34.54-.49.94-1.13,1.45-1.76,0,0-.06-.08-.15-.21.08-.3.18-.65.28-1,.34-.11.69-.23,1.11-.36-.13-.97,1.04-1.43.99-2.42.55-.73,1.11-1.46,1.67-2.2v-.92c.75-1.03,1.62-1.94,2.29-3.02.77-1.24,1.63-2.44,2.44-3.66.2-.31.35-.65.55-.97.2-.32.41-.63.64-.93.23-.3.62-.48.57-.97-.01-.13.22-.3.35-.44.95-1,1.73-2.14,2.54-3.25.19-.25.43-.47.67-.68.73-.6,1.03-1.48,1.43-2.28.05-.1,0-.24,0-.35.31-.31.61-.64.94-.93.34-.3.71-.57,1.09-.85.08-.06.21-.06.32-.09-.18-.51.62-.28.52-.77-.13-.06-.29-.14-.47-.23.02-.1.02-.22.07-.31.58-1.04,1.66-1.59,2.45-2.43.51-.54.84-1.15,1.08-1.83.08-.21.21-.53.35-.55.51-.06.62-.58.98-.74.22-.02.41-.04.65-.06-.14-.16-.22-.24-.34-.36.19-.49.65-.76.98-1.13.36-.4.79-.74.97-1.28.05-.14.12-.28.21-.39.42-.46.8-.95,1.21-1.4.91-1,1.86-1.94,2.38-3.27.69-.09,1.45.15,2.04-.51.45.33.89.66,1.32.99-.18.34-.32.63-.51,1,.19.19.39.43.63.62.23.19.5.49.74.48.52-.02.28.49.57.63.27.14.46.43.71.68-.06.73.63.99.96,1.45.09.43.22.83.26,1.24.04.39,0,.79,0,1.17.24.32.59.6.66.94.12.51.4.99.3,1.56-.11.64.1,1.2.57,1.68.15.15.21.39.38.71-.26,1.17.41,2.14,1.23,3.06-.06.57-.51,1.1-.06,1.74.14.2-.14.7-.24,1.1.26.17.51.33.82.53-.16.21-.32.42-.52.68v.63c.32.24.64.49.93.72.02.64.51,1.22.2,1.74-.34.55-.05,1.08-.22,1.63.28.23.55.46.73.61.1.66.32,1.06.97,1.81v.98c.18.12.38.25.49.33v1.89c-.14.11-.33.26-.53.41.07.14.12.24.16.34.22.55.57,1.02.64,1.66.07.71.64,1.17,1.35,1.44v.94c-.19.02-.38.04-.57.06-.11.23-.22.47-.3.62.35.35.68.68.92.92,0,.63.05.99.37,1.37.42.5.43,1.25.59,1.9.02.07.08.13.11.18.38.28.75.54,1.07.78.12.68.22,1.28.36,2.06.62.38.79,1.22,1.07,1.91-.2.54-.38,1.03-.54,1.47.75.87,1.22,1.72,1.03,2.77.17.17.31.31.5.5-.11.66.19,1.22.67,1.62.12.69.23,1.33.36,2.03.64.67,1.38,1.31,2.6,1.58.1.12.32.4.42.52.8.23,1.45.31,2,.6.53.28.95.77,1.21,1,1.06.26,1.88.39,2.65.67.73.26,1.45.21,2.18.22.16,0,.32,0,.54,0,.02.14.07.29.04.43-.02.14-.11.27-.2.46.16.14.37.31.55.46.62.17,1.22.34,1.91.54.14-.07.36-.23.6-.29.28-.08.6-.15.88-.1.35.07.77.48.99.38.37-.17.61.07.9.05.98-.08,1.81.41,2.7.71.67.23,1.36.39,2.22.63.04.05.18.27.41.62.71-.08,1.54-.18,2.42-.28.19.37.38.73.59,1.14.33.09.73.28,1.12.28.57,0,1.14-.23,1.69-.19.54.04,1.06.38,1.6.43.55.04,1.02.23,1.51.42.78.3,1.6.42,2.4.53.9.12,1.79.31,2.66.53.6.15,1.22.33,1.74.71.12.09.25.2.38.22,1.12.15,2.11.9,3.29.72,1.06-.16,2.08.2,3.13.27.52.04,1.02.41,1.52.65.67.32,1.3.74,1.99.96.35.11.8-.11,1.31-.2.21.11.51.26.84.43,1.23.09,2.51.16,3.79.3.34.04.69.28.99.49.4.29.76.64,1.1.92.92.03,1.82-.17,2.41.67,1.55.18,3.02.46,4.13,1.73.29,0,.61.03.92,0,.91-.1,1.71.21,2.52.56.41.17.84.33,1.27.39.35.05.58.15.68.5.15.5.61.67,1.01.87.4.19.81.05,1.21-.12.35.17.7.34,1.09.53.47.71.21,1.55.29,2.34-.6,1.12-1.57,2.04-1.69,3.5-.28.27-.61.61-.98.91-.35.3-.55.78-1.09.85-.32.9-.88,1.61-1.76,1.99-1.13.5-2.01,1.4-3.19,1.83-.36.13-.59.62-.92.9-.81.3-1.74.25-2.4.91-.07.07-.22.04-.32.08-.8.24-1.57.51-2.15,1.18-.28.32-.75.47-1.18.71h-1.84c-.5.4-.99.75-1.44,1.16-.5.45-.91,1.02-1.46,1.41-.59.43-.99,1.27-1.91,1.02-.76.61-1.24,1.61-2.41,1.45-.85.81-1.04.91-1.95.97-.2.24-.43.51-.62.74-.84-.12-1.44.1-1.99.63-.34.33-.85.47-1.21.79-.33.29-.53.75-.86,1.04-.3.27-.71.39-1.05.62-.94.63-2.02,1.01-2.84,1.84-.17.17-.46.25-.7.31-.51.11-1.04.18-1.6.27-.78.78-1.56,1.57-2.32,2.32-.42.12-.81.23-1.23.35-.2.49-.46.85-1.14.93-.52.06-.99.47-1.5.68-.72.29-1.4.65-2.21.76-.55.08-1.06.49-1.64.78v1.03c.18.27.4.58.67.99-.13.89.37,1.7.92,2.51-.24.46-.48.94-.72,1.42.26.16.48.29.69.42.11.55.29,1.06.29,1.58,0,.45.17.87.07,1.37-.09.45.23.99.37,1.51-.36.25-.25.73-.15,1.05.17.56.3,1.21.84,1.46.12.72.26,1.36.32,2,.05.63,0,1.28.02,1.91,0,.38.23.7.27,1.09.04.39-.33.69-.07,1.14.18.29.05.78.03,1.18-.05.86.4,1.66.26,2.54-.02.1.16.24.24.35-.11.27-.2.51-.29.74.35.46.66.89.96,1.29-.07.19-.21.37-.19.52.07.52.09,1.1.34,1.53.5.84.67,1.8,1.08,2.67.06.13.14.26.25.45-.09.34-.37.66-.06,1.19.34.58.74,1.17.8,1.95.05.65.42,1.25.47,1.96.04.52.4,1.02.68,1.69v1c0,.16-.07.38.01.47.78.93.37,2.02.47,3.04.02.2,0,.4,0,.61.66.39.75,1.13.92,1.75.12.46.17,1,.4,1.39.27.46-.14,1.05.36,1.41-.08.49-.22.97-.22,1.46,0,.45.22.9.19,1.33-.02.22-.21.46-.22.74,0,.21-.14.41-.23.64.16.31.33.64.55,1.06-.21.1-.44.2-.53.24v.86c.26.38.46.76.73,1.07.32.36.17.68.12,1.07-.04.36.07.73-.19,1.02.12.13.2.22.28.3-.67,1.51-.48,3.15-.8,4.83-.44.21-.35.84-.63,1.26.1.25.19.49.31.8-.32.2-.62.4-.85.55.22,1.51-.2,2.77-.43,4.05-.05.28-.17.59-.35.81-.66.79-.94,1.76-1.32,2.69-.22.55-.46,1.09-.67,1.58-2.64.14-3.03.11-5.78-.5-.29-.71-.84-1.16-1.6-1.44-.41-.15-.72-.56-1.1-.82-.65-.43-1.36-.75-2.09-1.03-.74-.28-1.29-.78-1.69-1.48-.15-.26-.4-.47-.61-.72-.24.07-.45.12-.75.21-.48-.16-.94-.69-1.62-.64-.78-.76-1.91-.8-2.79-1.36-.73-.46-1.43-.97-2.16-1.43-.95-.61-1.76-1.35-2.07-2.45h-1.53c-.93-.31-1.55-1-2.2-1.68h-.83c-.35-.2-.59-.39-.87-.48-.62-.2-1.23-.38-1.65-.94-.22-.28-.48-.53-.64-.7-.64-.14-1.15-.23-1.58-.57-.11-.09-.26-.15-.4-.2-.52-.19-1.03-.36-1.52-.68-.5-.34-1.19-.38-1.92-.58-.67-1.1-2.06-1.24-3.18-1.81-.37-.19-.83-.33-1.21-.53-1.08-.58-2.12-1.24-3.16-1.87-.45-.1-.95.11-1.34-.27-.13-.13-.41-.19-.44-.33-.15-.65-.82-.83-1.07-1.35-.74.53-1.36.09-1.91-.2-1.02-.54-1.72-1.48-2.53-2.27-.52-.51-.99-1.09-1.8-1.2-.18-.45-.34-.86-.5-1.28-.68.07-1.39.15-2.03.21-.62-.34-.82-.95-1.34-1.28-.96-.61-1.88-1.28-2.77-2.01-.1-.09-.28-.08-.43-.12-.87-.29-1.67-.7-2.29-1.42h-.88c-.66-.39-1.1-.96-1.94-1.01-.63-.04-1.24-.43-1.86-.68-.28-.11-.52-.31-.86-.24-.53.11-.89-.36-1.36-.47-.48-.11-.97.07-1.49-.17-.53-.25-1.15-.42-1.79-.32-.29.04-.58-.08-.87-.17-.43-.12-.94-.17-1.46.15-.59.37-1.4.18-2.06.5-.33.16-.69.27-1.22.47h-.7c-.4.29-.76.57-1.13.83-.21.15-.45.36-.68.36-1.03.02-1.83.61-2.74.98ZM77.39,190.84c.94-.31,1.82-.61,2.88-.97.07-.07.26-.43.53-.5.82-.21,1.27-.78,1.63-1.48.64.08,1.17-.11,1.57-.57.43-.49.69-.54,1.28-.89.53-.32,1.07-.07,1.54-.32.72-.56,1.49-1.04,2.23-1.57.43-.31.91-.55,1.39-.69.82-.24,1.44-.79,2.21-1.23h1.18c.2-.38.4-.77.54-1.05.94-.62,1.91-.98,2.63-1.73.21-.22.48-.37.72-.56.67-.55,1.4-1,2.25-1.22.99-.99,2.44-1.09,3.54-1.86.06-.04.15-.03.22-.03.63-.02,1.14-.27,1.67-.62.47-.32,1.11-.39,1.67-.58.07-.02.13-.08.19-.12.55-.39,1.11-.79,1.66-1.18.79-.55,1.66-.88,2.64-.84,1.72.07,3.44.18,5.17.23.73.02,1.4.29,2.1.42.9.17,1.48.85,2.28,1.15.52.19,1.02.47,1.43.9.21.22.59.29.89.42.75.31,1.58.42,2.24.95.74.6,1.61.84,2.53.71.37.29.71.53,1.02.82.37.35.75.62,1.3.64.33.01.67.1.97.24.16.07.61.19.21.54.26.44.39.96,1,1.12,1,.26,1.99.58,2.86,1.18.18.12.41.16.61.25,1.16.47,1.95,1.3,2.43,2.45.08.2.15.41.2.54,1.14.31,2.19.59,3.34.91.58.48,1.02,1.25,1.73,1.79.49.37.99.81,1.53.94.73.17,1.23.56,1.61.95.66.23,1.17.37,1.68.67.75.44,1.5,1.07,2.38.86.53.27.96.49,1.38.71.25,0,.49,0,.73,0,.49,0,1.04.19,1.15.59.13.46.5.53.73.58,1.33.28,2.49.92,3.71,1.46.2.09.41.17.62.24,1.81.56,2.14.81,3.14,2.36.06.09.08.19.12.29h.97c.32.32.63.63.94.94h.71c1.1,1.25,2.61,1.73,4.07,2.24.61.5,1.24.95,1.8,1.49.53.52,1.14.85,1.84,1.06.21.06.44.12.61.24.93.7,2,1.14,3.01,1.68.69.36,1.22.93,1.58,1.65,1.17.24,2.14,1.22,3.66,1.02.54.12.96.95,1.88.91.17-.18.39-.4.6-.62v-1.19c.24-.24.51-.44.68-.7.14-.21.24-.48.24-.73,0-.25.36-.45.04-.78-.16-.17-.03-.6-.03-.88.18-.18.32-.32.53-.53-.09-.47-.19-.98-.3-1.57.14-.16.32-.37.41-.47.12-.67.24-1.23.31-1.79.06-.49-.07-.98.22-1.47.13-.22.07-.64-.04-.91-.38-.92-.21-1.89-.13-2.8.11-1.23.2-1.22-.03-2.44-.07-.35-.14-.79.02-1.06.3-.53.16-1.05.2-1.36-.2-.54-.42-.87-.44-1.23-.07-.89-.03-1.77-.22-2.66-.14-.66-.32-1.32-.43-1.98-.15-.93-.64-1.8-.56-2.76.11-1.25-.56-2.16-1.19-3.11-.13-.61.11-1.15.47-1.69-.58-.63-1.15-1.21-1.66-1.84-.23-.28-.37-.64-.49-.99-.12-.35-.29-.68-.27-1.1.02-.4-.14-.81-.25-1.33-.2-.16-.48-.38-.6-.48-.27-.95-.44-1.71-.7-2.45-.4-1.13-.7-2.25-.59-3.47.05-.55.09-1.13,0-1.67-.28-1.5-.31-1.7.04-2.75-.14-.24-.37-.51-.46-.82-.26-.85-.82-1.63-.75-2.56.07-.94-.28-1.74-.68-2.53.27-.29.22-.54.05-.85-.22-.39-.55-.87-.29-1.27.28-.43.11-.82.2-1.19-.22-.28-.46-.43-.5-.81-.13-1.08-.5-2.11-.75-3.16-.13-.56-.31-1.36-1.14-1.53-.22-.44-.85-.38-1.04-.99-.29-.93-.49-1.86-.39-2.82.04-.39.28-.76.47-1.12.17-.33.43-.62.59-.96.18-.37.19-.82.6-1.07.35-.22.68-.5,1-.76.42-.33.82-.7,1.26-1.01.3-.21.64-.42.99-.49.91-.18,1.66-.65,2.45-1.21h1.76c.6-.28,1.03-.71,1.64-.86.98-.23,1.84-.77,2.71-1.25.06-.03.15-.03.22-.05.12.08.25.17.38.25.42-.17.83-.33,1.25-.5v-.83c.47-.48.9-.89,1.52-1.1.41-.14.81-.35,1.23-.5.48-.17.85-.62,1.3-.9.44-.28,1.07-.4,1.32-.78.33-.51.96-.61,1.14-1.06.41-.12.73-.26,1.06-.31.39-.05.79-.01,1.23-.01.44-.7.96-1.33,1.79-1.62.03-.01.06-.06.09-.08.68-.61,1.58-.93,2.2-1.65.25-.29.57-.64.9-.69.79-.13,1.24-.69,1.82-1.12.29-.21.67-.29,1.09-.47.31-.24.72-.53,1.11-.84,1.12-.9,2.4-1.53,3.57-2.35.35-.24.72-.37,1.1-.54.92-.39,1.79-.87,2.76-1.15.17-.05.33-.16.49-.25.23-.13.43-.3.67-.42.46-.24.97-.4,1.38-.7.41-.29.86-.43,1.3-.63.44-.2.7-.79,1.04-1.2.03-.03.05-.06.08-.08.49-.38.98-.75,1.37-1.05v-.86c-.74-.51-1.65-.52-2.2-1.25-.13-.17-.46-.24-.71-.28-.96-.18-1.87-.47-2.72-.96-.58-.34-1.15-.69-1.76-.95-1.86-.79-3.81-1.22-5.88-1.22-.88-.83-2.01-.73-3.03-.71-1.02-.69-2.06-.8-3.05-.71-.68-.35-1.27-.65-1.88-.97-.34,0-.78.13-1.04-.03-.42-.26-.92-.03-1.21-.24-.46-.33-.92-.12-1.36-.21-.18-.04-.35-.11-.53-.17-.32-.1-.64-.3-.95-.29-.6.03-1.11-.23-1.64-.39-.57-.17-1.13-.34-1.7-.51-.68-.19-1.35-.48-2.04-.54-1.25-.11-2.43-.52-3.65-.75-.43-.08-.82-.42-1.24-.44-.7-.03-1.26-.55-1.95-.5-.75.06-1.39-.3-2.08-.46-1.27-.29-2.51-.69-3.78-1.02-1.1-.28-2.27-.41-3.26-1.09-.2-.14-.63.06-1.02.11-.01-.01-.1-.16-.19-.16-1,0-2,.01-2.81-.74-.04-.04-.17.02-.23,0-.85-.49-1.81-.67-2.73-.9-.65-.16-1.28-.48-1.94-.52-.98-.05-1.78-.52-2.62-.95-.06.05-.14.13-.14.13-.88-.06-1.5-.56-2.2-.89-.69-.32-1.34-.74-2.04-1.14-.61.55-1.24,1.11-1.81,1.63-.45,0-.85.1-1.16-.02-.62-.25-1.42-.26-1.68-1.12-.15-.49-.56-.93-.6-1.41-.03-.52-.36-1.06-.01-1.64-.18-.14-.36-.29-.51-.4v-1.12c-.39-.29-.83-.61-1.25-.93-.09-.07-.14-.17-.22-.27.17-.31.33-.6.47-.85-.11-.21-.21-.41-.3-.58-.12-.03-.23-.05-.37-.08,0-.18-.02-.34,0-.49.02-.14.1-.28.13-.42.05-.22.17-.5.09-.66-.3-.61-.36-1.29-.59-1.91-.27-.75-.39-1.47-.35-2.24.03-.56-.04-1.07-.34-1.37-.17-.72-.18-1.4-.49-1.86-.32-.46-.41-.96-.6-1.44-.17-.45-.23-.97-.5-1.34-.39-.51-.49-1.11-.6-1.67-.14-.66-.57-1.13-.82-1.7-.31-.71-.2-1.45-.23-2.18-.5-.47-.5-1.08-.47-1.68-.67-.75-.88-1.66-1.21-2.53-.33-.86-.76-1.67-.97-2.59-.22-.93-.32-1.86-.51-2.8-.34-.56-.65-1.18-.64-1.86.01-.95-.07-1.83-.73-2.58-.12-.13-.18-.32-.26-.46.36-.34.7-.67,1.04-.99-.39-.39-.7-.7-.88-.88-.28-.74-.45-1.35-.73-1.91-.37-.76-.68-1.51-.62-2.38.02-.29-.1-.59-.17-.87-.34-1.27-1.15-2.45-.72-3.84-.38-.26-.7-.47-1-.67v-.98s-.09.08-.13.12c-.16-.27-.32-.55-.48-.81-.27.1-.45.21-.62.22-.45.02-.41.48-.66.67-.31.23-.65.42-.91.69-.37.39-.61.94-1.04,1.22-.5.33-.89.74-1.32,1.13-.09.08-.17.16-.26.24h-.49c-.27.53-.52,1.07-.8,1.59-.12.23-.29.45-.46.65-.23.27-.57.48-.72.78-.23.48-.68.7-.99,1.06-.53.59-1.11,1.21-1.23,2.07-1.22.3-1.65,1.32-2.1,2.32-.15.34-.29.69-.5.99-.36.5-.84.92-1.16,1.44-.8,1.28-1.68,2.49-2.81,3.5-.21.18-.43.34-.58.46.1.72-.09,1.21-.53,1.61-.17.02-.36.04-.42.05-.76.35-.81,1.1-1.22,1.59-.41.48-.69,1.09-1.16,1.24-.28.55-.48.94-.68,1.33-.08.16-.2.32-.25.5-.31,1.26-.95,2.31-1.95,3.14-.62.51-1.02,1.13-.95,2.01.03.38-.2.78-.3,1.18h-.51c-.27.28-.54.57-.82.87-.03.16,0,.39-.11.52-.46.56-.88,1.12-.94,1.89-.02.26-.26.57-.49.73-.63.44-.99,1.14-1.58,1.59v.73c-.9.82-1.07,2.06-1.83,2.99-.38.04-.56.4-.83.67v.8c-.63.47-1.17.87-1.73,1.28.14.26.23.42.36.65-.31.43-.64.89-.97,1.36-.04.15-.06.35-.15.51-.32.59-.79,1.12-.98,1.75-.25.81-.88,1.17-1.48,1.6-.15.11-.33.16-.59.28-.91-.09-1.92-.16-2.92-.28-1.26-.16-2.47.34-3.73.26-.44-.03-.94-.2-1.35.21-.07.08-.38.06-.45-.02-.29-.35-.67-.21-1-.2-1.4.06-2.81.14-4.21.24-.28.02-.58.15-.83.3-.73.45-1.53.44-2.34.4-.25-.39-.65-.21-.98-.23-.64-.02-1.29.06-1.91-.03-.52-.08-1.02-.3-1.56-.38-.73-.1-1.45-.21-2.14.16-.16-.08-.32-.21-.49-.23-.37-.05-.79.1-1.1-.25-.86.07-1.66-.38-2.54-.25-.47.07-1.07.19-1.41-.02-.86-.54-1.83-.38-2.73-.65-1.1-.34-2.18-.75-3.26-.95-.61.37-1.23.13-1.86.22-.13-.2-.24-.35-.25-.37-.39.03-.73.16-.86.05-.37-.32-.87-.29-1.11-.14-.54.34-1.08.1-1.6.21-.52.1-1.02.3-1.58.25-.55-.05-1.12-.01-1.65-.01-.72-.6-1.43-.67-2.06-.1-1.15.28-2.23.42-3.32.33-.71-.06-1.25.31-1.75.69-.63.47-.85,1.16-.56,1.94.06.17.17.39.12.54-.12.39.4.75.02,1.12.36.53.22,1.12.24,1.7.02.72-.13,1.47.47,2.04-.09.11-.16.2-.21.25.29,1.35,1.33,1.98,2.37,2.53v1.14c-.21.17-.49.39-.7.56v1.12c.56.24,1.12.56,1.72.71.64.16.88.54.93,1.13.37.37.86.67,1.07,1.11.43.87,1.04,1.58,1.63,2.32.18.23.4.56.35.79-.13.56.44.73.49,1.13.05.44.29.76.52,1.11.12.18.19.4.27.56-.23.3-.4.54-.64.86.34.17.6.3.86.43l.07-.11c.94.83,1.87,1.66,2.78,2.46,0,.19,0,.31,0,.42-.01,1.1.35,1.97,1.45,2.42.2.08.37.27.54.43.49.47.95.97,1.44,1.43.58.53.88,1.19,1.13,1.93.2.59.27,1.27.81,1.7.61.49.75,1.2.93,1.89.94.19,2.12,1.02,2.47,1.77.03.07-.08.22-.15.38.47.38.95.76,1.49,1.19-.12.33-.25.68-.38,1.02-.04-.02-.08-.05-.12-.07-.11.14-.21.27-.37.47.35.05.57.09.77.12.03.16.06.27.07.34.41.14.79.27,1.09.37.07.2.11.3.15.4.32.83.86,1.55,1.21,2.37.32.74.72,1.42.61,2.26,0,.03.02.07.03.1.14.14.28.28.46.46-.03.23.04.58-.1.75-.48.57-.38,1.23-.46,1.86-.22.51-.39,1.03-.54,1.57-.07.25-.08.53-.12.79-.05.3-.11.6-.13.9-.07.87-.56,1.62-.62,2.51-.03.44-.19.93-.56,1.32-.35.38-.77.86-.81,1.32-.09,1.12-.65,1.98-1.28,2.94v1.1c-.51.44-1.16.73-1.33,1.21-.23.64-.62,1.11-.98,1.64-.14.21-.21.47-.28.72-.1.36-.27.75-.22,1.09.08.51-.46.6-.51,1-.03.25-.2.49-.22.74-.17,1.49-.64,2.85-1.71,3.99v1.63c-.65.14-.8.64-.93,1.17-.26,1.01-.58,1.99-1.19,2.88v1.12c-1,1.66-1.53,3.51-2.65,5.12.31.99-.52,1.74-.68,2.65-.18,1.01-.77,1.72-1.32,2.22-.26,1.07-.48,1.94-.71,2.87-.27.18-.58.39-.88.59v1.58c-.36.59-.65,1.07-.94,1.56v1.26c-.15.11-.33.26-.47.37v.7c.1.05.3.16.57.3-.48.5-.85.9-1.34,1.41-.22.48-.51,1.11-.92,1.99-.04.24-.18.76-.21,1.29-.03.42-.04.84-.25,1.22-.3.53-.24,1.12-.24,1.7,0,.69.06,1.39-.23,2.06-.17.41-.32.84-.39,1.27-.08.46-.06.93-.1,1.4-.02.23.01.5-.1.67-.22.34-.13.65-.08,1,.48,0,.92.04,1.35-.01.45-.05.88-.18,1.4-.3.1-.09.26-.35.46-.39,1.31-.31,2.35-1.11,3.43-1.82,1.28-.85,2.54-1.68,4.07-2.04.24-.06.41-.37.74-.69.18-.11.51-.39.88-.54.69-.28,1.2-.81,2.01-.95,1.27-.22,2.51-.72,3.49-1.66h1.11c.9-.76,1.86-1.02,3.03-.91.51-.47,1.05-.96,1.62-1.47h1.63c.24-.24.46-.46.64-.64Z"/>
  <path class="cls-2" d="M77.39,190.84c-.18.18-.4.4-.64.64h-1.63c-.56.51-1.1,1-1.62,1.47-1.17-.11-2.13.16-3.03.91h-1.11c-.98.93-2.21,1.43-3.49,1.66-.81.14-1.32.68-2.01.95-.37.15-.69.42-.88.54-.33.32-.51.63-.74.69-1.52.36-2.79,1.19-4.07,2.04-1.08.72-2.12,1.52-3.43,1.82-.2.05-.35.3-.46.39-.52.11-.96.25-1.4.3-.43.05-.87.01-1.35.01-.06-.35-.14-.66.08-1,.11-.17.08-.44.1-.67.03-.47.02-.94.1-1.4.08-.43.22-.86.39-1.27.29-.67.23-1.36.23-2.06,0-.58-.06-1.16.24-1.7.21-.38.22-.79.25-1.22.03-.53.17-1.05.21-1.29.41-.88.7-1.51.92-1.99.49-.51.87-.91,1.34-1.41-.26-.14-.46-.24-.57-.3v-.7c.14-.11.32-.25.47-.37v-1.26c.3-.49.59-.97.94-1.56v-1.58c.3-.2.61-.41.88-.59.23-.93.44-1.8.71-2.87.55-.5,1.14-1.21,1.32-2.22.16-.91.99-1.66.68-2.65,1.12-1.6,1.65-3.46,2.65-5.12v-1.12c.62-.88.94-1.87,1.19-2.88.13-.52.28-1.02.93-1.17v-1.63c1.07-1.13,1.54-2.49,1.71-3.99.03-.25.19-.49.22-.74.05-.4.6-.49.51-1-.06-.34.12-.73.22-1.09.07-.25.14-.51.28-.72.36-.52.75-.99.98-1.64.17-.47.82-.77,1.33-1.21v-1.1c.63-.96,1.19-1.82,1.28-2.94.04-.46.46-.94.81-1.32.36-.39.53-.88.56-1.32.05-.89.54-1.64.62-2.51.03-.3.09-.6.13-.9.04-.26.05-.53.12-.79.14-.53.32-1.06.54-1.57.07-.63-.03-1.29.46-1.86.14-.17.08-.52.1-.75-.18-.18-.32-.32-.46-.46-.01-.03-.04-.07-.03-.1.11-.84-.3-1.52-.61-2.26-.35-.82-.9-1.54-1.21-2.37-.04-.1-.08-.21-.15-.4-.3-.1-.68-.23-1.09-.37-.02-.08-.04-.18-.07-.34-.2-.03-.42-.06-.77-.12.16-.2.26-.34.37-.47.04.02.08.05.12.07.13-.35.25-.69.38-1.02-.54-.43-1.02-.81-1.49-1.19.07-.16.18-.3.15-.38-.35-.75-1.53-1.58-2.47-1.77-.18-.69-.32-1.4-.93-1.89-.54-.43-.61-1.11-.81-1.7-.25-.73-.56-1.39-1.13-1.93-.5-.46-.96-.96-1.44-1.43-.16-.16-.33-.35-.54-.43-1.1-.44-1.46-1.31-1.45-2.42,0-.12,0-.24,0-.42-.91-.8-1.84-1.63-2.78-2.46l-.07.11c-.26-.13-.52-.26-.86-.43.24-.32.42-.56.64-.86-.08-.17-.15-.38-.27-.56-.23-.35-.46-.66-.52-1.11-.05-.4-.62-.57-.49-1.13.05-.23-.17-.57-.35-.79-.59-.74-1.2-1.45-1.63-2.32-.22-.44-.71-.75-1.07-1.11-.05-.59-.29-.97-.93-1.13-.6-.15-1.16-.47-1.72-.71v-1.12c.21-.17.49-.39.7-.56v-1.14c-1.04-.56-2.08-1.18-2.37-2.53.04-.05.12-.14.21-.25-.59-.57-.44-1.32-.47-2.04-.02-.57.13-1.17-.24-1.7.38-.37-.14-.74-.02-1.12.05-.15-.05-.36-.12-.54-.29-.79-.07-1.47.56-1.94.5-.38,1.04-.74,1.75-.69,1.09.09,2.17-.05,3.32-.33.64-.57,1.34-.5,2.06.1.54,0,1.1-.04,1.65.01.56.05,1.06-.15,1.58-.25.52-.1,1.06.14,1.6-.21.23-.15.74-.18,1.11.14.13.11.47-.02.86-.05,0,.01.11.17.25.37.63-.08,1.25.15,1.86-.22,1.08.2,2.16.61,3.26.95.89.28,1.87.11,2.73.65.34.22.94.09,1.41.02.87-.13,1.68.32,2.54.25.31.35.72.2,1.1.25.17.02.33.15.49.23.7-.37,1.41-.26,2.14-.16.54.08,1.04.3,1.56.38.63.09,1.27,0,1.91.03.33.01.73-.16.98.23.81.03,1.61.04,2.34-.4.25-.15.55-.28.83-.3,1.4-.1,2.8-.18,4.21-.24.33-.01.71-.15,1,.2.07.08.37.09.45.02.41-.41.91-.24,1.35-.21,1.26.08,2.47-.42,3.73-.26,1,.13,2,.2,2.92.28.26-.12.45-.17.59-.28.59-.44,1.23-.79,1.48-1.6.19-.62.66-1.16.98-1.75.09-.16.11-.36.15-.51.34-.47.66-.93.97-1.36-.13-.23-.22-.39-.36-.65.56-.41,1.1-.81,1.73-1.28v-.8c.27-.27.45-.63.83-.67.76-.93.94-2.17,1.83-2.99v-.73c.6-.45.95-1.15,1.58-1.59.23-.16.47-.47.49-.73.07-.78.49-1.33.94-1.89.11-.13.08-.37.11-.52.28-.3.55-.59.82-.87h.51c.11-.39.33-.8.3-1.18-.06-.88.33-1.49.95-2.01,1-.83,1.64-1.88,1.95-3.14.04-.17.16-.33.25-.5.2-.39.4-.78.68-1.33.47-.14.75-.75,1.16-1.24.42-.49.46-1.24,1.22-1.59.07,0,.26-.03.42-.05.44-.41.63-.89.53-1.61.15-.12.38-.28.58-.46,1.13-1.01,2.01-2.22,2.81-3.5.32-.52.8-.94,1.16-1.44.21-.3.35-.65.5-.99.45-1,.88-2.02,2.1-2.32.13-.86.71-1.47,1.23-2.07.32-.35.76-.58.99-1.06.15-.3.48-.51.72-.78.17-.2.33-.42.46-.65.28-.52.53-1.06.8-1.59h.49c.09-.08.18-.16.26-.24.43-.39.82-.8,1.32-1.13.43-.28.67-.83,1.04-1.22.26-.27.6-.46.91-.69.25-.19.21-.65.66-.67.18,0,.35-.12.62-.22.16.27.32.54.48.81.04-.04.09-.08.13-.12v.98c.31.21.62.42,1,.67-.43,1.38.39,2.57.72,3.84.08.29.2.58.17.87-.06.87.25,1.62.62,2.38.28.56.45,1.17.73,1.91.18.18.49.49.88.88-.34.32-.68.65-1.04.99.08.14.14.33.26.46.66.75.75,1.63.73,2.58,0,.67.3,1.3.64,1.86.19.94.29,1.87.51,2.8.22.92.64,1.73.97,2.59.33.87.54,1.78,1.21,2.53-.03.59-.03,1.21.47,1.68.03.73-.08,1.47.23,2.18.25.58.68,1.04.82,1.7.12.56.22,1.15.6,1.67.28.37.33.89.5,1.34.19.48.28.97.6,1.44.32.46.32,1.14.49,1.86.3.3.37.82.34,1.37-.04.77.09,1.5.35,2.24.22.62.28,1.3.59,1.91.08.17-.05.44-.09.66-.03.14-.1.28-.13.42-.02.15,0,.31,0,.49.14.03.25.05.37.08.09.18.19.38.3.58-.14.26-.3.54-.47.85.08.1.13.21.22.27.43.33.86.64,1.25.93v1.12c.14.11.33.26.51.4-.35.58-.02,1.12.01,1.64.03.48.45.92.6,1.41.26.86,1.06.87,1.68,1.12.31.12.71.02,1.16.02.58-.52,1.2-1.08,1.81-1.63.7.4,1.34.82,2.04,1.14.7.32,1.33.82,2.2.89,0,0,.08-.08.14-.13.84.43,1.64.89,2.62.95.67.03,1.29.35,1.94.52.92.23,1.88.41,2.73.9.06.03.19-.03.23,0,.81.75,1.81.74,2.81.74.09,0,.17.14.19.16.4-.05.82-.25,1.02-.11.99.68,2.16.81,3.26,1.09,1.26.32,2.5.73,3.78,1.02.69.16,1.33.51,2.08.46.7-.05,1.25.47,1.95.5.42.02.81.36,1.24.44,1.22.24,2.4.64,3.65.75.69.06,1.36.35,2.04.54.57.16,1.14.34,1.7.51.54.16,1.04.41,1.64.39.31-.01.63.19.95.29.18.06.35.13.53.17.44.09.9-.12,1.36.21.29.21.8-.02,1.21.24.26.16.7.03,1.04.03.61.31,1.2.62,1.88.97.99-.09,2.04.02,3.05.71,1.02-.02,2.16-.12,3.03.71,2.07,0,4.02.43,5.88,1.22.61.26,1.18.62,1.76.95.85.49,1.76.78,2.72.96.25.05.57.11.71.28.55.73,1.46.74,2.2,1.25v.86c-.39.3-.88.67-1.37,1.05-.03.02-.06.05-.08.08-.34.42-.6,1-1.04,1.2-.44.2-.89.34-1.3.63-.42.29-.92.46-1.38.7-.23.12-.44.28-.67.42-.16.09-.32.2-.49.25-.96.28-1.84.76-2.76,1.15-.38.16-.75.29-1.1.54-1.17.82-2.45,1.45-3.57,2.35-.39.31-.8.6-1.11.84-.42.17-.8.26-1.09.47-.58.42-1.03.98-1.82,1.12-.33.06-.65.41-.9.69-.62.71-1.51,1.04-2.2,1.65-.03.03-.05.07-.09.08-.83.28-1.35.92-1.79,1.62-.44,0-.84-.04-1.23.01-.33.04-.64.18-1.06.31-.18.45-.81.55-1.14,1.06-.25.38-.88.5-1.32.78-.45.29-.82.73-1.3.9-.42.15-.82.36-1.23.5-.62.22-1.05.62-1.52,1.1v.83c-.42.17-.83.33-1.25.5-.13-.08-.25-.17-.38-.25-.07.01-.16.01-.22.05-.87.49-1.73,1.02-2.71,1.25-.61.15-1.04.57-1.64.86h-1.76c-.78.56-1.53,1.03-2.45,1.21-.35.07-.69.28-.99.49-.44.31-.84.67-1.26,1.01-.33.26-.65.53-1,.76-.41.26-.42.7-.6,1.07-.16.34-.41.62-.59.96-.19.36-.42.73-.47,1.12-.1.96.1,1.88.39,2.82.19.61.81.55,1.04.99.83.17,1.01.97,1.14,1.53.24,1.06.62,2.09.75,3.16.05.38.28.54.5.81-.08.36.08.76-.2,1.19-.26.4.06.88.29,1.27.18.31.23.56-.05.85.4.78.75,1.59.68,2.53-.07.93.49,1.71.75,2.56.09.31.32.58.46.82-.35,1.05-.32,1.25-.04,2.75.1.54.06,1.12,0,1.67-.11,1.21.19,2.34.59,3.47.26.73.43,1.5.7,2.45.12.1.4.32.6.48.1.52.26.93.25,1.33-.02.41.15.74.27,1.1.12.35.26.71.49.99.51.63,1.09,1.21,1.66,1.84-.36.54-.6,1.08-.47,1.69.63.95,1.3,1.86,1.19,3.11-.09.96.41,1.83.56,2.76.11.66.29,1.32.43,1.98.19.89.15,1.77.22,2.66.03.35.24.69.44,1.23-.04.31.11.83-.2,1.36-.15.27-.08.71-.02,1.06.23,1.22.13,1.2.03,2.44-.08.91-.25,1.87.13,2.8.11.27.18.69.04.91-.29.49-.15.98-.22,1.47-.08.56-.19,1.12-.31,1.79-.09.11-.27.31-.41.47.11.59.21,1.1.3,1.57-.21.21-.35.35-.53.53,0,.28-.13.71.03.88.32.34-.04.53-.04.78,0,.25-.1.52-.24.73-.18.26-.44.46-.68.7v1.19c-.21.22-.42.44-.6.62-.92.04-1.34-.78-1.88-.91-1.51.2-2.49-.78-3.66-1.02-.36-.71-.89-1.28-1.58-1.65-1.02-.54-2.09-.98-3.01-1.68-.17-.13-.4-.18-.61-.24-.7-.21-1.31-.54-1.84-1.06-.55-.54-1.19-1-1.8-1.49-1.47-.51-2.98-.99-4.07-2.24h-.71c-.31-.31-.62-.62-.94-.94h-.97c-.04-.09-.06-.2-.12-.29-1-1.55-1.34-1.8-3.14-2.36-.21-.07-.42-.15-.62-.24-1.21-.54-2.38-1.19-3.71-1.46-.23-.05-.6-.11-.73-.58-.12-.4-.66-.59-1.15-.59-.24,0-.48,0-.73,0-.42-.22-.85-.44-1.38-.71-.88.21-1.63-.42-2.38-.86-.51-.3-1.02-.43-1.68-.67-.38-.39-.88-.78-1.61-.95-.54-.13-1.04-.57-1.53-.94-.71-.54-1.15-1.31-1.73-1.79-1.16-.31-2.2-.6-3.34-.91-.05-.13-.12-.34-.2-.54-.48-1.15-1.27-1.98-2.43-2.45-.2-.08-.44-.12-.61-.25-.87-.6-1.86-.92-2.86-1.18-.61-.16-.74-.68-1-1.12.4-.35-.05-.47-.21-.54-.3-.14-.64-.23-.97-.24-.55-.02-.92-.3-1.3-.64-.31-.28-.65-.52-1.02-.82-.93.13-1.79-.12-2.53-.71-.66-.53-1.49-.64-2.24-.95-.31-.13-.68-.2-.89-.42-.41-.43-.91-.7-1.43-.9-.8-.3-1.38-.98-2.28-1.15-.7-.13-1.36-.39-2.1-.42-1.72-.05-3.44-.16-5.17-.23-.98-.04-1.85.29-2.64.84-.56.39-1.11.79-1.66,1.18-.06.04-.12.1-.19.12-.56.19-1.19.27-1.67.58-.53.35-1.04.6-1.67.62-.08,0-.17,0-.22.03-1.1.77-2.55.87-3.54,1.86-.85.22-1.57.67-2.25,1.22-.24.19-.51.35-.72.56-.73.75-1.69,1.11-2.63,1.73-.14.27-.35.67-.54,1.05h-1.18c-.77.44-1.38.99-2.21,1.23-.48.14-.96.38-1.39.69-.74.53-1.51,1.01-2.23,1.57-.46.25-1,0-1.54.32-.59.35-.85.4-1.28.89-.41.46-.93.65-1.57.57-.36.7-.81,1.27-1.63,1.48-.27.07-.46.43-.53.5-1.07.36-1.95.65-2.88.97Z"/>
</svg>