<?xml version="1.0" encoding="UTF-8"?>
<svg id="Livello_1" data-name="Livello 1" xmlns="http://www.w3.org/2000/svg" viewBox="0 0 489 489">
  <defs>
    <style>
      .cls-1 {
        fill: #000;
      }

      .cls-1, .cls-2 {
        stroke-width: 0px;
      }

      .cls-2 {
        fill: #fff;
      }
    </style>
  </defs>
  <path class="cls-1" d="M334.84,365.89c.44,1.21.83,2.05,1.18,2.79,3.42,2.54,7.62,3.95,10.17,7.78-2.23,1.92-4.89,1.44-7.39,1.33-2.47-.11-4.93-.59-7.62-.93-1.19-.64-2.45-1.62-4.23-1.66-2.34-.05-4.07-2.06-6.27-2.44-1.42-.24-2.32-2.57-4.11-1.02-1.33-.56-2.66-1.12-4-1.66-1.47-.6-2.65-1.97-4.46-1.73-.11.01-.28-.06-.36-.15-2.88-3.06-7.13-3.68-10.48-5.89-1.03-.68-2.01-1.48-2.9-2.35-.54-.53-.73-1.47-1.31-1.91-2.02-1.55-4.15-2.96-6.38-4.52-.46.38-.87.73-1.34,1.12.69,2.24.95,4.65,3.06,6.24-.59,1.03-1.17,2.04-1.9,3.3-1.45-.38-2.85-.74-4.44-1.15-7.36-6.89-15.57-13.23-22.09-22.5-.23-1.2-.65-3.32-1.13-5.83-.6-.89-1.43-2.12-2.4-3.56,1.76-2.07.8-4.83,1.7-7.35.78-2.18.9-4.87,1.26-7.3.45-3.07,1.23-6.25.49-9.1-.73-2.83-.41-5.55-.75-8.52-3.21-2.29-6.74-4.5-9.47-7.64-2.56-1.43-5.18-2.79-7.67-4.33-1.44-.89-2.49-2.31-3.7-3.49-1.19-1.17-3-1.72-5.19-2.88h-2.69c-2.66,1.94-5.35,4.06-8.21,5.92-1.31.85-2.91,1.32-4.43,1.74-1.57.42-2.92-.45-4.2-1.23-1.25-.77-2.45-1.63-4.25-2.84.05.11-.08-.71-.55-1.01-1.89-1.23-3.72-2.54-5.07-4.33-1.31-1.74-3.7-2.33-4.55-4.49-2.3-.5-2.77-2.85-4.2-4.22-1.31-1.26-2.88-2.13-3.99-3.76-.92-1.36-2.99-1.78-4.21-3.29-1.95-2.42-2.48-2.88-3.26-4.96-1.87-1.33-3.43-2.39-4.94-3.52-1.43-1.08-3.06-2.03-4.17-3.38-2.19-2.68-5.12-4.61-7.26-7.26-2.43-3.01-5.28-5.43-8.45-7.55-.52-.35-.74-1.13-1.18-1.64-1.02-1.15-1.94-2.47-3.17-3.32-2.9-2.01-5.47-4.25-7.22-7.38-.47-.84-1.26-1.7-2.12-2.11-3.19-1.5-4.07-5.47-7.47-6.75-.66-.25-1.05-1.24-1.55-1.89-.51-.65-.88-1.52-1.54-1.92-4.31-2.65-7.18-6.81-10.9-10.07-1.13-.99-2.02-2.17-3.53-2.88-1.17-.55-1.8-2.24-2.86-3.68-2.81,2.43-4.8,5.49-8.31,6.47h-4.33c-1.1-1.11-2.27-2.18-3.31-3.36-.62-.7-1.2-1.51-1.52-2.38-1.52-4.12-3.14-8.22-4.14-12.49-.41-1.77-.01-3.72-.09-5.58-.04-.91-.34-1.81-.63-3.24,1.07-1.05,1.11-2.68-.41-4.12.47-.52.76-.83,1.04-1.14-.27-.3-.77-.59-.8-.92-.34-3.47-.33-6.99-.96-10.4-1.03-5.62-.13-11.34-.98-16.86-.75-4.82-.5-9.55-.6-14.32-.03-1.29-1.13-2.49-.37-3.71.88-1.4-.82-2.71-.44-3.33.97-1.58-.46-2.72-.19-4.11.29-1.53.07-3.15.07-4.46.91-3.56,3.84-4.63,6.81-6.11,2.84.27,5.82-.64,8.81-1.7,1.26-.45,2.62-.66,3.94-.87,1.24-.2,2.5-.34,3.75-.39,4.85-.19,9.79-.95,14.54-.33,6.08.79,12.13.55,18.19.69,1.67.04,3.02,1.22,4.82.95,1.43-.22,2.9.13,4.42.62,2.14.69,4.63.06,6.93.97,1.48.59,3.21.97,4.78.83,1.78-.15,3.25.62,4.8,1.01,4.26,1.06,8.59,2.01,12.47,4.19,1.43.8,2.72,1.87,3.9,2.7.04.6,0,.9.08,1.16.92,3.21.65,4.49-1.57,7.69-.52.75-.91,1.6-.94,2.67-1.16,1.05-2.33,2.1-3.43,3.09,1.19,2.77,3.5,4.24,5.49,5.88,2.02,1.66,2.32,4.93,5.38,5.5.72,1.31.75,3.15,2.69,3.55,2.28,3.38,5.14,6.31,7.34,9.79,1.62,2.58,4.16,4.55,5.97,7.03,4.04,5.51,9.65,9.68,13.17,15.63.57.96,1.56,1.67,2.41,2.45,3.28,3.04,5.4,7.01,8.3,10.35.81.94,1.51,1.99,2.37,2.89,2.91,3,6.1,5.77,7.97,9.63,2.11.6,2.07,2.86,3.23,4.19,1.12,1.28,2.65,2.04,3.66,3.57,3.72,5.64,8.78,10.25,12.47,15.94,1.27,1.97,3.04,3.62,4.65,5.5v4.43c-2.76,5.59-6.49,10.55-8.66,16.89,1.15,1.75,2.42,3.8,3.8,5.77,4.22,6.01,8.56,11.95,12.68,18.02.94,1.38,1.2,3.22,1.78,4.85.4,1.13.8,2.26,1.19,3.37,1.54.8,2.97,1.53,4.69,2.42,2.36.52,5.3-.85,7.93.94.56-.29,1.12-.75,1.75-.86.83-.15,1.73-.14,2.58-.02,5.25.77,10.05-1.3,14.82-2.76,3.24-.98,6.07-3.36,9.02-5.22,3.17-2.01,4.09-2.37,7.62-2.34.41.41.81.81,1.15,1.15,1.01,6.16-2.45,10.47-5.88,14.87,4.22,2.06,8.65,3.34,13.43,3.95,2.47.32,4.94.73,7.42.64,2.9-.11,6.09.12,8.6-1.01,2.34-1.06,4.61-.21,6.88-1.08,2.14-.82,4.74-.44,7-.57,1.28,1.12,2.11,2.11.93,3.68-1.53,2.04-2.14,4.58-3.39,6.77-2.32,4.05-5.54,7.27-9.69,9.49-2.35,1.26-4.74,2.47-7.16,3.73,1.83,1.36,3.58,2.56,5.27,3.8,2.05,1.5,4.08,2.18,6.39,1.94,1.49,1.47,3.17,1.88,5.04,1.75,3.37-.24,6.55,1.19,9.99.99,1.85-.11,3.45-.98,5.24-.97,1.68.01,3.23-.29,4.83-.84,3.38-1.14,6.86-1.71,10.47-1.83,4.19-.13,8.33-1.12,12.57-.84,2.12.14,4,.68,5.79,2.09.11,3.59-1.66,6.57-3.89,9.01-2.84,3.1-5.55,6.43-9.29,8.64-1.08.64-1.85,1.78-2.4,2.34-4.4,1.24-7.78,4.03-12.24,4.02.82,2.65,2.8,3.4,4.7,4.06,2.14.74,4.22,1.67,6.31,2.42,2.08.75,4.44.99,6.64,1.66.65.2,1.36.25,2.05.25,2.58.03,5.17.08,7.75-.02,1.05-.04,2.08-.48,3.25-.77.31.21.76.51,1.21.81,4.69-1.38,9.47-2.01,14-1.7.79.52,1.37.91,1.82,1.21-.61,2.32-2.49,2.82-4.02,3.82-.21-.18-.5-.43-.89-.77-.17.5-.34.98-.49,1.43-1.15.4-2.45.55-3.38,1.22-3.51,2.52-7.64,3.81-11.38,5.87-3.05,1.69-6.23,3.09-9.02,5.25-1.36,1.05-3.23.98-4.73,2.18-1.23.98-3.31.92-5.01,1.3-1.31.3-2.62.66-3.95.84-1.22.16-2.47-.17-3.57.83-.29.26-1.56-.01-1.86-.42-.97-1.32-2.28,1.42-3.05-.37-1.04.24-2.07.49-3.31.78-.84-.47-1.89-1.05-2.99-1.65-1.19.18-2.02,1.28-3.75.51-2.58-1.15-5.52-1.81-8.47-1.34-.91.14-1.78.53-2.75.83-2.42-1.56-4.66-3.74-7.97-3.43-1.75-2.19-5.19-.86-6.82-3.29-1.92-.14-3.7-.45-5.32-1.77-1.27-1.03-3.02-1.3-4.94-.84.17-.09.23-.15.29-.2l-.6-.7-.27.27c.23.2.47.4.59.64ZM241.42,200.59c-.56-.43-1.38-.93-2.02-1.6-.44-.46-.54-1.24-.96-1.74-1.99-2.35-4.07-4.63-6.07-6.97-1.44-1.68-3.04-3.29-4.16-5.17-2.76-4.6-6.43-8.51-9.64-12.76-2.79-3.69-6.51-6.63-9.39-10.34-2.41-3.11-5.24-5.88-7.86-8.83-.34-.39-.51-.93-.73-1.41-1.34-2.94-3.22-5.45-5.67-7.55-1.56-1.34-3.2-2.6-4.65-4.04-1.38-1.37-2.51-2.99-3.84-4.42-1.47-1.58-3.03-3.06-4.55-4.58-.41-.41-.87-.77-1.21-1.23-.96-1.29-1.87-2.61-2.72-3.8,1.76-1.17,3.38-1.95,4.61-3.13,1.27-1.22,2.17-2.84,3.18-4.21.36-1.18.71-2.31,1.08-3.5-.6-.41-1.12-.9-1.74-1.16-2.83-1.16-5.68-2.23-8.62-3.12-6.39-1.94-12.89-3.17-19.52-3.79-.71-.07-1.5.18-2.14-.04-3.26-1.16-6.59-1.75-10.06-1.74-.72,0-1.45-.61-1.89-.81-.91.37-1.5.73-2.14.84-2.39.42-4.64-.54-6.96-.82-2.46-.29-5.04.54-7.41-.85-.43-.25-1.3-.27-1.67,0-1.65,1.22-3.5.64-5.27.84-1.9.21-3.83.97-5.67.77-5.29-.58-9.71,2.57-14.73,3.04-.68.06-1.31.68-2.16,1.14.52.68.84,1.1,1.15,1.52-1.07.4-2.19.82-3.46,1.3.52,4.08-.85,8.04.91,11.84.16.36.19.96,0,1.26-.82,1.24-1.54,2.41-.01,3.63-1.77,1.07-.1,2.08,0,3.15.15,1.42.03,2.87.04,4.3,0,.42-.14,1.04.08,1.24,1.31,1.17.94,2.75.67,3.98-.29,1.33,1.03,2.23.33,3.72-.46.96.56,2.54.58,3.85,0,1.03-.51,2.06-.79,3.07.29.32.58.63,1.01,1.09-.29.51-.6,1.06-.89,1.59,1.77,1.77-.28,4.5,1.56,6.28.22.21-.03.84.04,1.26.18,1.06-1.09,1.89-.13,3.24.61.86.25,2.52.09,3.79-.59,4.68.93,9.22.92,13.86,0,.48.5.94.62,1.45.98,4.19,2.68,8.08,4.88,11.76,5.06,2.25,6.6.12,10.4-5.1h3.55c2.15,2.68,4.98,4.78,7,7.78,1.92,2.85,4.57,5.23,7.01,7.7,1.26,1.28,2.63,2.55,4.18,3.41,1.66.91,2.69,2.17,3.77,3.65,1.01,1.39,2.63,2.33,3.96,3.48.33.28.76.55.89.92.37,1.06.85,1.84,1.95,2.43.95.52,1.47,1.79,2.37,2.48,1.05.8,2.31,1.32,3.47,1.98,1.14.65,1.31,2.05,2.61,2.81,1.92,1.13,3.39,3.06,4.93,4.76,1.43,1.58,3.66,2.15,4.68,4.43.65,1.45,2.71,2.24,4.06,3.42,2.58,2.26,4.22,5.34,7.2,7.35,2.57,1.74,4.54,4.36,6.77,6.6,2.33,2.33,4.62,4.73,7.02,6.99,2.12,1.99,4.44,3.77,6.56,5.77,2.51,2.36,4.82,4.93,7.34,7.27,3.63,3.37,7.21,6.82,11.61,8.9,2.5.37,4.37-.41,6.28-1.85,2.33-1.75,5.04-2.99,7.51-4.4.46-.68.77-1.66,1.39-1.95,2.23-1.05,4.54-1.9,5.35-4.57,2.25-.28,2.03-2.69,3.19-3.7,1.36-1.18,2.17-2.46,2.58-3.53,3.99-2.35,5.51-6.46,8.64-9.01,1.58-1.28,2.69-3.16,4-4.77.06-.07.05-.2.04-.15-.33-.56-.6-1.02-.97-1.65.79-.52,1.42-1.26,2.13-1.34,1.79-.2,2.81-1.22,3.27-2.76.75-2.48,2.35-4.48,3.51-6.73,1.23-2.37,2.18-4.73,1.5-7.71-1.38-1.87-2.85-4-4.47-6.02-1.75-2.18-3.88-4.08-5.41-6.39-2.91-4.4-6.7-8.06-9.79-12.3-1.03-1.41-2-2.85-3.08-4.41ZM373.14,372.57c3,.45,5.77-.36,8.56.85,1.87.81,4.04-.57,6.06-.69,5.23-.31,10.06-1.82,14.68-4.14,6.42-3.22,12.82-6.49,19.22-9.75.14-.07.17-.38.24-.55-.73-.34-1.42-.67-1.84-.86-.86.24-1.48.56-2.12.56-3.45.05-6.9-.13-10.34.09-1.89.12-3.54-.99-5.24-.83-1.93.19-3.66-.42-5.21-1.05-3.55-1.46-7.53-2.04-10.53-4.75-.19-.17-.49-.33-.72-.31-3.4.23-5.3-2.45-7.75-3.77v-2.19c3.45-.88,6.95-1.77,10.44-2.67,3.57-.92,7.04-2.04,9.58-4.96.56-.65,1.13-1.36,1.84-1.81,4.25-2.7,7.75-5.97,8.92-11.13-6.52-.81-12.95.34-19.41.67-.27.01-.55.06-.79.17-5.07,2.19-10.56,2.32-15.89,3.21-4,.66-7.91-.64-11.76-1.69-1.26-.35-2.36-1.46-3.61-1.63-5.98-.79-10.67-4.19-15.42-7.05v-2.96c2.43-1.25,4.63-2.52,6.94-3.54,6.04-2.68,7.84-3.98,10.75-8.19.93-1.35,1.85-2.7,2.79-4.07v-2.68c-.63,0-1.18-.09-1.7.02-1.04.22-2.05.68-3.1.81-1.13.14-2.3-.04-3.44.06-.49.04-.95.64-1.43.65-5.85.05-11.71.28-17.53-.07-2.58-.16-5.04-1.69-7.62-2.28-2.67-.6-4.74-2.42-7.33-3.14-.93-.26-1.74-1-2.78-1.62,2.3-2.55,4.44-4.77,6.41-7.14,1.01-1.21,1.97-2.61,1.42-4.36-1.57-.29-2.73-.18-4,.87-2.91,2.39-6.32,4.07-9.78,5.46-3.99,1.61-8.01,3.46-12.55,3.03-.73-.07-1.5.5-2.28.68-.54.13-1.36.35-1.63.1-1.43-1.38-2.66-.74-4.1-.02-.69.34-1.8.32-2.54.01-3.25-1.35-6.97-.64-9.89-2.65-.67.73-1.12,1.22-1.54,1.67,5.16,7.12,2.81,6.7,13.01,12.25,3-.25,6.15.58,9.07-.89,4.39.56,8.61-1.47,13.08-.78l1.99,1.99c-.97,1.82-1.89,3.63-4.09,4.33-.51.16-.81,1.01-1.15,1.47,1.71,2.54,4.45,2.92,6.65,4.17,1.26.72,2.71,1.73,4,1.64,3.42-.23,6.6.99,9.91,1.13.39.86.77,1.7,1.25,2.77-1.68,1.49-3.09,3.21-5.5,4.07-2.43.87-4.58,2.55-6.94,3.93,3.79,3.62,7.99,6.2,11.74,9.37,2.02,1.71,4.51,3.23,7.38,3.94,2.14.53,4.03,2.04,5.86,3.02,3.3.69,6.47,1.35,9.45,1.97.42,1.02.71,1.72,1.09,2.63-.75.3-1.47.79-2.23.86-6.66.65-13.24-.94-19.89-.85-.36,0-.73-.29-1.1-.44-4.03-1.63-8.67-.69-12.55-2.98-.11-.06-.28-.02-.43,0-2.84.2-5.23-1.09-7.72-2.16-1.82-.78-3.54-1.74-5.52-2.31-3.34-.95-6.51-2.66-8.99-5.32-.54-.58-1.35-.91-1.98-1.42-.77-.61-1.44-1.34-2.23-1.93-.57-.43-.82-1.39-2.15-1.32,1.19,2.63,1.38,5.34,2.79,7.67.23.38.03,1.03.03,1.59h-2.65c-1.81-1.37-3.49-2.59-5.12-3.86-1.53-1.19-3.3-2.21-4.47-3.69-2.66-3.38-5.14-6.92-6.76-10.96-.25-.62-.73-1.19-.79-1.81-.12-1.28.06-2.59-.07-3.87-.1-1.03-1-2.49-.6-2.95,1.19-1.38-.85-2.02-.33-3.34.89-2.24-1.99-3.75-1.78-6.14.06-.65-1.29-1.42-1.95-2.1h-2.64c-.72.72-1.43,1.43-2.01,2.01.26.69.67,1.3.69,1.92.08,2.44.14,4.89,0,7.32-.18,3.19-.1,6.5-.98,9.51-.65,2.21-1.12,4.52-1.41,6.68-.62,4.5.5,8.94,2.78,12.98.72,1.28,1.41,2.6,2.25,3.8,1.1,1.58,2.06,3.56,3.61,4.44,1.81,1.04,2.34,3.03,4.22,4.08,2.09,1.17,4.64,2.38,5.65,5.07.17.44,1.03.62,1.87,1.08v-6.61c.86-.86,1.57-1.57,2.28-2.29h3.41c4.69,4.6,9.53,9.02,15.13,12.45,5.45,3.34,10.96,6.6,17.12,8.58,5.94,1.91,11.64,4.74,18.17,4.85-.19-1.32-1.93-.52-1.82-2.12.04-.57-1.56-1.26-1.73-1.39-1.77-2.48-3.07-4.31-4.24-5.95.52-1.02.88-1.74,1.2-2.37,2.75-2.06,5.92-1.47,8.06.13,2.9,2.17,6.7,2.22,9.29,4.72,3.66.29,6.74,2.89,10.54,2.64,1.62,1.66,3.91.79,5.85,1.43,2.45.8,5.4.79,8.05-.31.1.39.2.78.36,1.38ZM339.47,342.95c-4.66-2.88-9.06-5.98-13.8-8.4-5.21-2.66-8.29-7.69-13.04-10.78-.12-1.63.43-2.48,2.23-2.88,3.08-.69,6.06-1.79,9.02-2.69-.06-.65-.09-.92-.14-1.55-.5,0-1.02-.04-1.55,0-2.24.21-4.21-1.22-6.54-.98-.98.1-2.13-.99-3.14-1.62-1.47-.93-2.89-1.89-4.47-2.68-1.51-.76-2.92-2.13-3.44-4.03-.13-.49-.5-.91-.81-1.46,1.02-.69,1.86-1.27,3.17-2.16-3.43,0-6.46-.39-9.36.08-5.46.89-5.82,1.16-9.62-.1-5.98-1.97-10.58-5.68-13.63-11.04-1,.68-2.02,1.36-3.14,2.12.1.55.11,1.26.36,1.88.65,1.6,1.52,3.11,2.07,4.73.51,1.52,1.29,3.28.93,4.68-.46,1.79,2.21,3.28.18,4.93,1.63,1.52.29,3.57.89,5.2.96,2.6,1.93,5.3,3.48,7.57,1.5,2.19,3.71,3.89,5.65,5.78.13.13.53-.03.94-.07-1.16-2.48-.44-5.02-.68-7.59h4.18c.57,1.86,3.06,1.45,3.75,3.59.47,1.46,2.04,2.83,3.45,3.65,1.49.87,2.67,1.97,3.84,3.13,1.18,1.17,2.98.98,4.3,2.29.95.95,2.32,2.03,3.51,2.61,2.7,1.34,5.84,1.77,8.74,2.77,2.17.75,4.45.73,6.65,1.59,5.3,2.07,9.89,2.26,16.04,1.42ZM274.71,284.73c0-1.72.33-3.66-.1-5.42-.37-1.48-1.62-2.75-2.48-4.11-.29-.45-.69-.87-.84-1.37-.97-3.18-3.93-5.14-4.98-8.25-3.62-3.39-5.64-7.94-8.76-12.12-1.8,1.44-3.75,2.75-5.38,4.37-2.07,2.06-3.82,4.45-5.83,6.58-1.99,2.11-3.8,4.28-5.35,6.8-1.27,2.07-2.19,4.82-5.53,5.36,2.5,3.47,5.6,5.56,8.79,7.32,2.88,1.59,5.12,4.02,8.01,5.54-.17,1.96,1.97,1.51,2.78,2.61.92,1.25,2.59,1.95,3.74,2.76,1.18.43,2.18.78,3.11,1.12,5.22-2.43,9.54-5.89,12.83-11.21Z"/>
  <path class="cls-2" d="M241.42,200.59c1.08,1.55,2.05,3,3.08,4.41,3.09,4.23,6.89,7.89,9.79,12.3,1.53,2.31,3.66,4.21,5.41,6.39,1.62,2.02,3.1,4.15,4.47,6.02.67,2.98-.28,5.34-1.5,7.71-1.16,2.24-2.76,4.25-3.51,6.73-.46,1.54-1.48,2.55-3.27,2.76-.71.08-1.34.82-2.13,1.34.37.63.64,1.09.97,1.65.01-.05.02.08-.04.15-1.31,1.61-2.42,3.48-4,4.77-3.14,2.55-4.65,6.65-8.64,9.01-.41,1.07-1.22,2.35-2.58,3.53-1.15,1-.93,3.42-3.19,3.7-.81,2.67-3.12,3.52-5.35,4.57-.62.29-.93,1.27-1.39,1.95-2.47,1.41-5.18,2.65-7.51,4.4-1.91,1.44-3.78,2.22-6.28,1.85-4.4-2.08-7.98-5.53-11.61-8.9-2.52-2.34-4.83-4.91-7.34-7.27-2.12-2-4.44-3.77-6.56-5.77-2.4-2.26-4.69-4.65-7.02-6.99-2.23-2.23-4.2-4.86-6.77-6.6-2.97-2.01-4.62-5.09-7.2-7.35-1.35-1.18-3.41-1.97-4.06-3.42-1.02-2.29-3.24-2.85-4.68-4.43-1.54-1.7-3.01-3.63-4.93-4.76-1.3-.77-1.48-2.16-2.61-2.81-1.16-.66-2.42-1.18-3.47-1.98-.9-.69-1.41-1.96-2.37-2.48-1.1-.59-1.58-1.37-1.95-2.43-.13-.37-.56-.64-.89-.92-1.34-1.15-2.96-2.09-3.96-3.48-1.08-1.48-2.11-2.74-3.77-3.65-1.55-.85-2.92-2.13-4.18-3.41-2.44-2.48-5.1-4.85-7.01-7.7-2.02-3-4.84-5.1-7-7.78h-3.55c-3.8,5.21-5.34,7.35-10.4,5.09-2.21-3.68-3.9-7.57-4.88-11.76-.12-.51-.62-.97-.62-1.45.01-4.64-1.5-9.17-.92-13.86.16-1.27.52-2.93-.09-3.79-.96-1.36.31-2.18.13-3.24-.07-.42.17-1.05-.04-1.26-1.85-1.77.21-4.5-1.56-6.28.29-.52.6-1.07.89-1.59-.43-.46-.72-.78-1.01-1.09.28-1.01.8-2.04.79-3.07-.01-1.31-1.03-2.88-.58-3.85.71-1.49-.62-2.39-.33-3.72.27-1.24.63-2.82-.67-3.98-.22-.2-.08-.81-.08-1.24,0-1.44.11-2.88-.04-4.3-.11-1.06-1.78-2.08,0-3.15-1.53-1.22-.81-2.39.01-3.63.2-.3.17-.91,0-1.26-1.75-3.8-.38-7.76-.91-11.84,1.28-.48,2.39-.9,3.46-1.3-.32-.42-.64-.84-1.15-1.52.85-.47,1.48-1.08,2.16-1.14,5.02-.47,9.44-3.63,14.73-3.04,1.84.2,3.77-.56,5.67-.77,1.77-.2,3.62.38,5.27-.84.37-.27,1.24-.26,1.67,0,2.37,1.39,4.95.55,7.41.85,2.32.28,4.57,1.24,6.96.82.64-.11,1.23-.47,2.14-.84.45.2,1.17.82,1.89.81,3.47-.01,6.8.58,10.06,1.74.64.23,1.43-.02,2.14.04,6.63.61,13.13,1.85,19.52,3.79,2.94.89,5.79,1.95,8.62,3.12.62.25,1.14.75,1.74,1.16-.37,1.2-.72,2.33-1.08,3.5-1.01,1.37-1.91,2.98-3.18,4.21-1.23,1.18-2.85,1.97-4.61,3.13.85,1.2,1.76,2.52,2.72,3.8.34.46.8.82,1.21,1.23,1.52,1.52,3.09,3,4.55,4.58,1.33,1.43,2.46,3.05,3.84,4.42,1.45,1.45,3.09,2.71,4.65,4.04,2.45,2.1,4.34,4.62,5.67,7.55.22.48.39,1.03.73,1.41,2.61,2.95,5.45,5.72,7.86,8.83,2.87,3.71,6.6,6.65,9.39,10.34,3.21,4.25,6.88,8.15,9.64,12.76,1.13,1.88,2.73,3.49,4.16,5.17,2,2.34,4.07,4.62,6.07,6.97.42.49.51,1.27.96,1.74.64.67,1.46,1.17,2.02,1.6ZM252.28,235.83c-.85-.56-1.91-1.19-2.88-1.93-.78-.6-1.85-1.24-2.09-2.06-.44-1.51-1.6-2.26-2.53-3.26-1.47-1.57-2.88-3.25-4.59-4.52-1.76-1.31-2.96-3.07-4.47-4.56-3.48-3.43-6.72-7.06-9.43-11.15-2.13-.47-2.32-2.84-3.88-3.93-2.15-1.5-4.14-3.24-6.21-4.89h-3.84c-2.68,2.24-5.14,4.3-7.46,6.24-.09,2.9.49,5.17,2.75,5.9,1.32,1.84,2.09,3.56,3.41,4.59,2.28,1.79,3.06,4.95,5.9,6.13.65,2.37,2.97,3.32,4.34,5.08,1.37,1.75,2.75,3.5,4.28,5.1.83.87,1.59,1.79,2.88,2.34,1.08.46,1.57,2.16,2.54,3.08,1.5,1.43,3.65,2.38,4.68,4.05,1.59,2.59,3.8,4.2,6.26,5.67,1.78-.92,3.83-1.19,5.27-2.97,1.37-1.7,3.29-2.95,5.07-4.49v-4.41ZM120.93,119.08c-5.59-3.22-11.86-4.09-17.59-5.08-2.66,1.2-2.63,3.54-3.58,5.3.54,1.88,3,3.42,1.13,5.51.4,1.17.76,2.17,1.09,3.17,1.42,4.3,3.24,8.44,3.94,13.02.45,2.93,2.12,5.68,3.16,8.27,2.57.41,4.73.47,6.51-.72,3.21-2.15,5.73-5.19,9.07-7.19,1.84-3.91,6.01-5.99,7.72-10.13.89-2.15,2-4.08,1.86-6.05-2.25-3.83-6.36-3.49-9.27-5.35-1.42-.9-2.76-.22-4.03-.76ZM206,266.86c.31,2.29,2.4,2.59,3.47,3.93,1.2,1.51,2.43,3,3.43,4.22,1.59.37,2.9.67,4.58,1.06,3.18-2.82,6.63-5.88,10.15-9-.44-1.56-.47-3.12-1.25-4.09-1.46-1.83-3.31-3.36-5.08-4.92-1.1-.98-2.52-1.02-3.36-.91-2.47,1.83-4.55,3.37-6.95,5.15-.15.81-.88,1.45-2.25,1.95-1.1.4-1.86,1.72-2.74,2.6ZM132.71,190.63c3.39,5.76,9.77,10.16,15.09,8.83,1.56-1.47,2.58-2.43,3.44-3.25.29-1.24.56-2.36.74-3.13-.62-1.62-1.13-2.97-1.62-4.26-1.53-1.62-3.09-3.26-4.66-4.92-1.98-.35-3.97-.69-5.86-1.03-2.36,1.65-4.46,3.13-6.03,4.23-.49,1.55-.76,2.44-1.11,3.52ZM202.34,263.21h3.58c3.19-2.79,6.24-5.45,9.5-8.29-1.92-2.18-3.82-4.35-5.56-6.33h-3.89c-.77,1.03-1.58,2.11-2.04,2.74-2.56,1.76-4.72,3.24-6.89,4.73.23,3.68,4.42,4,5.3,7.15ZM167.16,216.48c1.42-1.4,2.73-2.69,4.09-4.03.58-4.47-1.69-7.45-5.69-9.42-1.28-.46-3,.58-4.04-.77-.97.31-1.86.59-2.41.77-1.47,1.46-2.77,2.76-4.11,4.09v3.86c1.44,1.64,2.71,3.09,4.12,4.7,1.43.46,3.19,1.03,4.69,1.52,1.16-.25,2.2-.47,3.36-.72ZM191.19,227.32c-1.15-2.89-2.43-5.44-4.92-7.17h-5.93c-3.87,2.41-4.98,3.65-2.58,10.31,1.23.84,2.46,1.69,3.66,2.51h4.3c3.31-1.03,4.73-2.9,5.48-5.66ZM186.57,164.47c2.97,1.7,2.12,5.73,5.09,7.35.73-1.49,2.21-.54,3.38-.86.69-.69,1.4-1.4,2.1-2.1v-3.32c-1.33-1.38-2.61-2.7-3.87-4-1.76,0-3.47,0-5.18,0-.43.82-.85,1.64-1.53,2.94ZM176.02,146.82c1.73-2.28,1.71-4.51-.3-7.18-1.65-.2-3.77-.44-5.94-.7-.14.76-.13,1.19-.3,1.53-.15.33-.48.58-.71.85.75,1.03,1.31,2.63,2.2,2.84,1.68.4,1.08,2.56,2.98,2.67h2.06ZM179.05,151.74v2.23c1.05,1.48,1.99,2.8,2.83,4h2.88c.84-1.52,1.6-2.88,2.32-4.19-1.33-1.33-2.4-2.41-3.45-3.46-1.5.19-3.18-.56-4.58,1.42ZM101.49,109.54v-.29h-.86v.29h.86Z"/>
  <path class="cls-2" d="M373.14,372.57c-.16-.6-.26-.99-.36-1.38-2.65,1.1-5.6,1.11-8.05.31-1.95-.64-4.24.23-5.85-1.43-3.79.24-6.88-2.35-10.54-2.64-2.59-2.51-6.39-2.55-9.29-4.72-2.14-1.6-5.31-2.19-8.06-.13-.32.63-.68,1.35-1.2,2.37,1.17,1.64,2.47,3.47,4.24,5.95.17.13,1.77.81,1.73,1.39-.11,1.6,1.63.8,1.82,2.12-6.53-.11-12.22-2.94-18.17-4.85-6.16-1.98-11.67-5.24-17.12-8.58-5.6-3.43-10.44-7.85-15.13-12.45-1.11,0-2.26,0-3.41,0-.71.71-1.42,1.42-2.28,2.29v6.61c-.84-.46-1.71-.64-1.87-1.08-1.01-2.68-3.56-3.9-5.65-5.07-1.89-1.05-2.41-3.04-4.22-4.08-1.55-.89-2.5-2.87-3.61-4.44-.84-1.2-1.53-2.52-2.25-3.8-2.27-4.04-3.39-8.48-2.78-12.98.3-2.16.76-4.47,1.41-6.68.88-3.01.81-6.32.98-9.51.14-2.43.07-4.88,0-7.32-.02-.62-.43-1.23-.69-1.92.58-.58,1.29-1.29,2.01-2.01h2.64c.67.68,2.01,1.45,1.95,2.1-.21,2.39,2.67,3.89,1.78,6.14-.53,1.32,1.52,1.97.33,3.34-.4.46.5,1.92.6,2.95.12,1.28-.06,2.59.07,3.87.06.62.54,1.2.79,1.81,1.63,4.04,4.1,7.58,6.76,10.96,1.17,1.48,2.94,2.5,4.47,3.69,1.63,1.27,3.31,2.5,5.12,3.86h2.65c0-.56.2-1.2-.03-1.59-1.4-2.33-1.6-5.03-2.79-7.67,1.32-.08,1.57.89,2.15,1.32.78.59,1.46,1.31,2.23,1.93.63.51,1.44.84,1.98,1.42,2.48,2.66,5.65,4.37,8.99,5.32,1.99.57,3.7,1.53,5.52,2.31,2.49,1.07,4.89,2.36,7.72,2.16.14-.01.32-.06.43,0,3.88,2.28,8.52,1.35,12.55,2.98.37.15.74.45,1.1.44,6.65-.09,13.22,1.5,19.89.85.76-.07,1.48-.56,2.23-.86-.38-.91-.66-1.61-1.09-2.63-2.98-.62-6.15-1.28-9.45-1.97-1.83-.98-3.72-2.49-5.86-3.02-2.87-.71-5.36-2.23-7.38-3.94-3.74-3.17-7.95-5.75-11.74-9.37,2.36-1.38,4.5-3.06,6.94-3.93,2.41-.86,3.82-2.57,5.5-4.07-.48-1.06-.86-1.91-1.25-2.77-3.31-.14-6.49-1.37-9.91-1.13-1.3.09-2.74-.92-4-1.64-2.2-1.26-4.95-1.63-6.65-4.17.34-.46.64-1.3,1.15-1.47,2.19-.7,3.12-2.51,4.09-4.33l-1.99-1.99c-4.47-.69-8.69,1.34-13.08.78-2.93,1.46-6.07.64-9.07.89-10.2-5.55-7.85-5.13-13.01-12.25.41-.45.87-.94,1.54-1.67,2.93,2.01,6.64,1.3,9.89,2.65.73.31,1.85.33,2.54-.01,1.44-.72,2.67-1.36,4.1.02.27.26,1.09.03,1.63-.1.77-.18,1.55-.75,2.28-.68,4.55.43,8.56-1.42,12.55-3.03,3.45-1.39,6.87-3.08,9.78-5.46,1.27-1.04,2.43-1.16,4-.87.55,1.76-.41,3.15-1.42,4.36-1.97,2.37-4.1,4.59-6.41,7.14,1.04.63,1.84,1.37,2.78,1.62,2.59.72,4.67,2.54,7.33,3.14,2.59.58,5.05,2.12,7.62,2.28,5.82.35,11.69.12,17.53.07.48,0,.94-.6,1.43-.65,1.14-.1,2.31.08,3.44-.06,1.05-.13,2.05-.59,3.1-.81.52-.11,1.07-.02,1.7-.02v2.68c-.94,1.37-1.86,2.72-2.79,4.07-2.91,4.21-4.71,5.52-10.75,8.19-2.31,1.02-4.5,2.29-6.94,3.54v2.96c4.75,2.86,9.44,6.26,15.42,7.05,1.25.17,2.35,1.28,3.61,1.63,3.84,1.05,7.76,2.36,11.76,1.69,5.32-.88,10.82-1.01,15.89-3.21.24-.11.52-.15.79-.17,6.46-.33,12.89-1.48,19.41-.67-1.17,5.16-4.67,8.43-8.92,11.13-.71.45-1.27,1.16-1.84,1.81-2.54,2.92-6.01,4.04-9.58,4.96-3.49.9-6.99,1.79-10.44,2.67v2.19c2.45,1.32,4.35,4,7.75,3.77.23-.02.53.14.72.31,3,2.7,6.98,3.29,10.53,4.75,1.55.64,3.28,1.24,5.21,1.05,1.7-.17,3.34.95,5.24.83,3.43-.22,6.89-.04,10.34-.09.63,0,1.26-.33,2.12-.56.42.2,1.11.52,1.84.86-.07.17-.1.47-.24.55-6.4,3.27-12.8,6.53-19.22,9.75-4.62,2.32-9.45,3.83-14.68,4.14-2.03.12-4.19,1.5-6.06.69-2.79-1.21-5.56-.4-8.56-.85Z"/>
  <path class="cls-2" d="M339.47,342.95c-6.16.84-10.75.65-16.04-1.42-2.2-.86-4.48-.84-6.65-1.59-2.89-1-6.03-1.43-8.74-2.77-1.19-.59-2.55-1.67-3.51-2.61-1.32-1.31-3.12-1.11-4.3-2.29-1.18-1.17-2.36-2.26-3.84-3.13-1.42-.83-2.98-2.19-3.45-3.65-.69-2.14-3.18-1.73-3.75-3.59h-4.18c.24,2.57-.48,5.1.68,7.59-.41.04-.81.19-.94.07-1.93-1.88-4.15-3.59-5.65-5.78-1.54-2.26-2.52-4.96-3.48-7.57-.6-1.63.74-3.68-.89-5.2,2.03-1.65-.63-3.14-.18-4.93.36-1.4-.42-3.16-.93-4.68-.55-1.62-1.42-3.14-2.07-4.73-.25-.62-.26-1.33-.36-1.88,1.13-.76,2.14-1.45,3.14-2.12,3.04,5.36,7.65,9.07,13.63,11.04,3.79,1.25,4.15.99,9.62.1,2.89-.47,5.93-.08,9.36-.08-1.31.89-2.16,1.47-3.17,2.16.31.55.67.97.81,1.46.52,1.89,1.93,3.27,3.44,4.03,1.58.8,3,1.76,4.47,2.68,1.01.64,2.15,1.72,3.14,1.62,2.33-.23,4.29,1.19,6.54.98.52-.05,1.05,0,1.55,0,.06.63.08.9.14,1.55-2.95.91-5.94,2.01-9.02,2.69-1.8.4-2.35,1.25-2.23,2.88,4.75,3.09,7.83,8.12,13.04,10.78,4.74,2.42,9.14,5.53,13.8,8.4Z"/>
  <path class="cls-2" d="M274.71,284.73c-3.29,5.31-7.61,8.78-12.83,11.21-.93-.34-1.93-.69-3.11-1.12-1.15-.81-2.82-1.51-3.74-2.76-.81-1.1-2.95-.65-2.78-2.61-2.89-1.53-5.12-3.95-8.01-5.54-3.19-1.76-6.29-3.86-8.79-7.32,3.34-.55,4.26-3.29,5.53-5.36,1.55-2.52,3.36-4.68,5.35-6.8,2.01-2.13,3.76-4.52,5.83-6.58,1.63-1.62,3.58-2.93,5.38-4.37,3.12,4.18,5.14,8.72,8.76,12.12,1.06,3.11,4.02,5.08,4.98,8.25.15.5.56.91.84,1.37.86,1.36,2.12,2.63,2.48,4.11.43,1.76.1,3.7.1,5.42Z"/>
  <path class="cls-2" d="M334.96,365.85l-.7-.6.27-.27.6.7-.17.17Z"/>
  <path class="cls-1" d="M252.28,235.83v4.41c-1.78,1.53-3.7,2.79-5.07,4.49-1.44,1.79-3.48,2.05-5.27,2.97-2.46-1.47-4.67-3.08-6.26-5.67-1.03-1.67-3.18-2.62-4.68-4.05-.97-.92-1.46-2.62-2.54-3.08-1.29-.55-2.05-1.47-2.88-2.34-1.53-1.6-2.91-3.35-4.28-5.1-1.38-1.76-3.69-2.71-4.34-5.08-2.84-1.18-3.63-4.34-5.9-6.13-1.31-1.03-2.09-2.75-3.41-4.59-2.26-.73-2.84-3-2.75-5.9,2.32-1.94,4.78-4,7.46-6.24h3.84c2.07,1.65,4.06,3.38,6.21,4.89,1.56,1.09,1.75,3.46,3.88,3.93,2.7,4.09,5.95,7.72,9.43,11.15,1.51,1.49,2.71,3.25,4.47,4.56,1.7,1.27,3.12,2.95,4.59,4.52.93.99,2.09,1.75,2.53,3.26.24.82,1.3,1.46,2.09,2.06.97.74,2.03,1.37,2.88,1.93ZM218.84,220.38c1.27,3.13,4.23,4.43,6.43,6.66,2.1-2.92,5.11-4.23,7.99-5.47-1.66-4.29-5.92-6.04-8.51-9.42-2.66-3.47-6.13-6.31-9.32-9.49-1.28.5-2.39.92-2.56.99-1.61,1.8-2.61,2.92-3.71,4.15,2.16,3.24,4.39,6.56,6.66,9.96.83-.29,1.5-.42,2.08-.74,1.41-.76,2.84-1.51,4.14-2.44,1.59-1.13,2.56-.34,3.44.74-2.16,1.65-4.33,3.3-6.65,5.06ZM233.09,236.02c2.93-2.6,5.4-4.79,7.6-6.75-1.82-2.21-3.71-4.51-5.51-6.7-2.44,2.44-4.65,4.65-7.11,7.11.23,2.89,3.45,3.79,5.02,6.34ZM243.11,232.24c-3.66.57-4.53,3.75-6.08,5.48,1.82,1.96,3.5,3.76,5.22,5.62,2.78-1.02,4.41-3.59,6.28-5.21-.62-3.59-3.7-4.15-5.42-5.89Z"/>
  <path class="cls-1" d="M120.93,119.08c1.27.54,2.61-.14,4.03.76,2.91,1.85,7.02,1.51,9.27,5.35.14,1.97-.97,3.9-1.86,6.05-1.71,4.15-5.88,6.22-7.72,10.13-3.35,1.99-5.87,5.04-9.07,7.19-1.78,1.19-3.93,1.12-6.51.72-1.03-2.6-2.71-5.34-3.16-8.27-.7-4.58-2.52-8.72-3.94-13.02-.33-1-.69-2-1.09-3.17,1.88-2.09-.59-3.63-1.13-5.51.96-1.76.92-4.1,3.58-5.3,5.74.99,12,1.87,17.59,5.08ZM129.95,124.68c-8.79-3.11-17.54-5.43-26.94-7.25.4,2.26.99,4.1,1,5.94,0,2.01.88,3.67,1.44,5.46.6,1.9,1.26,3.79,2.09,5.59,1.61,3.48,1.38,7.64,4.21,10.94,6.76-1.85,10.05-8.41,15.35-11.9,1.42-2.73,2.89-5.35,2.85-8.78Z"/>
  <path class="cls-1" d="M206,266.86c.88-.88,1.64-2.2,2.74-2.6,1.36-.5,2.1-1.14,2.25-1.95,2.4-1.78,4.48-3.32,6.95-5.15.85-.11,2.26-.07,3.36.91,1.77,1.57,3.61,3.1,5.08,4.92.77.97.8,2.53,1.25,4.09-3.52,3.12-6.96,6.18-10.15,9-1.68-.39-2.99-.69-4.58-1.06-1-1.22-2.23-2.71-3.43-4.22-1.07-1.34-3.16-1.64-3.47-3.93ZM210.76,267.17c.54,1.09,1.01,2.03,1.29,2.59,1.47.75,2.61,1.34,3.61,1.85,1.28-.63,2.47-1.21,3.81-1.87-.35-2.43,3.57-2.01,3.26-4.96-1.11-1.32-2.42-2.87-4.04-4.78-2.17,3.3-5.12,5.11-7.93,7.16Z"/>
  <path class="cls-1" d="M132.71,190.63c.34-1.09.62-1.97,1.11-3.52,1.57-1.1,3.67-2.58,6.03-4.23,1.9.33,3.88.68,5.86,1.03,1.57,1.66,3.13,3.3,4.66,4.92.49,1.28,1.01,2.64,1.62,4.26-.18.76-.45,1.89-.74,3.13-.86.81-1.88,1.77-3.44,3.25-5.32,1.33-11.71-3.07-15.09-8.83ZM146.48,196.86c.97-.85,1.71-1.51,2.38-2.09.5-4.09-2.56-5.94-4.72-8.21h-3.42c-1.09.7-2.11,1.36-3.04,1.96v3.01c2.1,1.73,4.33,3.57,6.47,5.34h2.33Z"/>
  <path class="cls-1" d="M202.34,263.21c-.89-3.15-5.07-3.47-5.3-7.15,2.17-1.49,4.32-2.97,6.89-4.73.47-.62,1.28-1.71,2.04-2.74h3.89c1.74,1.98,3.64,4.14,5.56,6.33-3.26,2.84-6.31,5.51-9.5,8.29h-3.58ZM207.61,252.3c-1.09,2.13-4.68,2.33-5.12,5.5.4.38.81.76,1.46,1.38,2.1-1.49,4.21-2.98,6.69-4.74-1.15-.81-1.96-1.38-3.03-2.14Z"/>
  <path class="cls-1" d="M167.16,216.48c-1.15.25-2.2.47-3.36.72-1.5-.49-3.26-1.06-4.69-1.52-1.41-1.61-2.69-3.07-4.12-4.7v-3.86c1.33-1.32,2.64-2.63,4.11-4.09.56-.18,1.44-.46,2.41-.77,1.05,1.35,2.76.3,4.04.77,4,1.97,6.27,4.95,5.69,9.42-1.36,1.34-2.67,2.64-4.09,4.03ZM158.41,209.08c2.14,1.85,3.22,4.69,6.2,5.01,1.04-.62,2.07-1.24,3.14-1.88v-3.76c-1.93-2.37-4.3-3.5-6.96-2.94-1.01.86-1.77,1.5-2.38,2.02v1.55Z"/>
  <path class="cls-1" d="M191.19,227.32c-.75,2.76-2.17,4.63-5.48,5.66h-4.3c-1.2-.82-2.43-1.67-3.66-2.51-2.41-6.66-1.29-7.9,2.58-10.31h5.93c2.49,1.73,3.78,4.28,4.92,7.17ZM187.67,227.03c-.81-2.29-2.23-3.91-4.72-4.32-1.38-.23-2.48.15-3.12,1.77,1.77,1.17-.06,4.09,2.3,5.07h4.31c.43-.88.83-1.71,1.23-2.52Z"/>
  <path class="cls-1" d="M186.57,164.47c.67-1.3,1.1-2.12,1.53-2.94,1.71,0,3.42,0,5.18,0,1.26,1.3,2.54,2.63,3.87,4,0,1.04,0,2.18,0,3.32-.71.71-1.41,1.41-2.1,2.1-1.17.33-2.65-.62-3.38.86-2.98-1.62-2.13-5.65-5.09-7.35ZM190.77,164.01q-.38,1.99,3.16,2.89c-.99-1-1.41-2.54-3.16-2.89Z"/>
  <path class="cls-1" d="M176.02,146.82h-2.06c-1.9-.1-1.3-2.27-2.98-2.67-.89-.21-1.45-1.81-2.2-2.84.23-.27.56-.52.71-.85.16-.35.16-.77.3-1.53,2.18.26,4.29.51,5.94.7,2,2.67,2.03,4.9.3,7.18Z"/>
  <path class="cls-1" d="M179.05,151.74c1.4-1.99,3.08-1.23,4.58-1.42,1.05,1.06,2.13,2.13,3.45,3.46-.72,1.3-1.48,2.67-2.32,4.19h-2.88c-.85-1.2-1.79-2.52-2.83-4v-2.23Z"/>
  <path class="cls-1" d="M101.49,109.54h-.86v-.29h.86v.29Z"/>
  <path class="cls-2" d="M218.84,220.38c2.32-1.76,4.48-3.41,6.65-5.06-.88-1.08-1.86-1.87-3.44-.74-1.3.93-2.73,1.67-4.14,2.44-.58.31-1.25.45-2.08.74-2.27-3.4-4.49-6.72-6.66-9.96,1.1-1.23,2.1-2.34,3.71-4.15.16-.06,1.27-.49,2.56-.99,3.18,3.18,6.66,6.03,9.32,9.49,2.59,3.38,6.85,5.12,8.51,9.42-2.89,1.24-5.89,2.56-7.99,5.47-2.2-2.23-5.15-3.53-6.43-6.66Z"/>
  <path class="cls-2" d="M233.09,236.02c-1.57-2.54-4.79-3.45-5.02-6.34,2.47-2.47,4.67-4.67,7.11-7.11,1.8,2.19,3.69,4.48,5.51,6.7-2.2,1.96-4.67,4.15-7.6,6.75Z"/>
  <path class="cls-2" d="M243.11,232.24c1.72,1.73,4.8,2.3,5.42,5.89-1.87,1.62-3.49,4.19-6.28,5.21-1.72-1.85-3.4-3.66-5.22-5.62,1.55-1.73,2.42-4.91,6.08-5.48Z"/>
  <path class="cls-2" d="M129.95,124.68c.04,3.43-1.43,6.04-2.85,8.78-5.3,3.49-8.59,10.05-15.35,11.9-2.82-3.29-2.59-7.46-4.21-10.94-.84-1.8-1.5-3.69-2.09-5.59-.56-1.79-1.44-3.46-1.44-5.46,0-1.84-.59-3.68-1-5.94,9.4,1.82,18.15,4.14,26.94,7.25Z"/>
  <path class="cls-2" d="M210.76,267.17c2.82-2.05,5.76-3.86,7.93-7.16,1.62,1.91,2.93,3.46,4.04,4.78.31,2.95-3.62,2.53-3.26,4.96-1.35.66-2.54,1.24-3.81,1.87-.99-.51-2.14-1.1-3.61-1.85-.28-.56-.75-1.5-1.29-2.59Z"/>
  <path class="cls-2" d="M146.48,196.86h-2.33c-2.14-1.77-4.37-3.61-6.47-5.34v-3.01c.93-.6,1.95-1.26,3.04-1.96h3.42c2.17,2.27,5.22,4.13,4.72,8.21-.67.59-1.41,1.24-2.38,2.09Z"/>
  <path class="cls-2" d="M207.61,252.3c1.07.76,1.88,1.33,3.03,2.14-2.48,1.76-4.59,3.25-6.69,4.74-.66-.62-1.06-1-1.46-1.38.44-3.17,4.03-3.37,5.12-5.5Z"/>
  <path class="cls-2" d="M158.41,209.08v-1.55c.62-.52,1.37-1.17,2.38-2.02,2.66-.56,5.03.58,6.96,2.94v3.76c-1.07.64-2.1,1.26-3.14,1.88-2.99-.32-4.06-3.16-6.2-5.01Z"/>
  <path class="cls-2" d="M187.67,227.03c-.4.82-.8,1.65-1.23,2.52h-4.31c-2.37-.98-.53-3.9-2.3-5.07.64-1.62,1.74-2,3.12-1.77,2.5.41,3.91,2.03,4.72,4.32Z"/>
  <path class="cls-2" d="M190.77,164.01c1.75.35,2.18,1.89,3.16,2.89q-3.54-.9-3.16-2.89Z"/>
</svg>