<?xml version="1.0" encoding="UTF-8"?>
<svg id="Livello_1" data-name="Livello 1" xmlns="http://www.w3.org/2000/svg" viewBox="0 0 274.41 274.41">
  <defs>
    <style>
      .cls-1 {
        fill: #fff;
        stroke-width: 0px;
      }
    </style>
  </defs>
  <path class="cls-1" d="M217.71,86.25c-.17-.14-.34-.36-.55-.43-.67-.21-1.36-.45-2.05-.5-.58-.05-1.17.14-1.88.25-.27-.16-.64-.38-.92-.54-1.44.08-2.7.72-4.08.5-.33-.06-.67-.2-1.01-.22-.78-.04-1.51-.18-2.18-.71-.36.06-.73.12-1.16.19-.63-.11-2.48-.41-3.02-.19-.17-.19-.34-.39-.53-.61-.42.18-.8.21-1.22-.09-.26-.19-.67-.22-1.02-.24-.57-.04-1.15-.02-1.73-.01-.77.01-1.41-.38-2.07-.68-.11-.05-.16-.2-.21-.26.15-.45.25-.85.42-1.22.23-.5.51-.97.77-1.45.26-.49.45-.99.44-1.56,0-.21.08-.43.17-.62.25-.54.53-1.07.79-1.6-.04-.03-.08-.06-.12-.09.2-.15.4-.29.55-.41-.04-.34-.07-.61-.1-.86.23-.19.42-.34.6-.5-.02-.02-.05-.03-.07-.05.2-.37.4-.75.62-1.17.07-.61.15-1.29.25-2.05.14-.46.7-.28,1.04-.44.17-.45-.37-.54-.36-.92.12-.05.24-.1.36-.16.68-.33,1.09-.94,1.28-1.61.26-.9.6-1.75,1.06-2.55.18-.31.33-.6.37-.98.06-.54.2-1.06.31-1.6-.15-.46-.3-.93-.44-1.37.1-.33.2-.64.3-.95-.19-.34-.38-.67-.53-.94-.47-.09-.66.13-.81.41-.13-.04-.25-.08-.34-.11-1.18.54-2.18,1.32-3.34,1.79-.17.07-.29.23-.44.36-.14.12-.28.26-.44.36-.63.37-1.27.72-1.93,1.09-.05.15-.12.33-.21.59-.8.45-1.65.92-2.77,1.54-.23.27-.64.77-1.14,1.36-.41.13-.86.51-1.47.53-.21,0-.45.21-.61.38-.51.52-1.11.88-1.75,1.2-.27.13-.5.32-.76.48-.65.4-1.29.82-1.96,1.18-.55.3-1.14.52-1.68.76-.21.88-1.04,1.19-1.38,1.88-.16.01-.3.04-.44.02-.78-.08-1.45.22-2.1.58-.25.14-.43.42-.68.55-.77.39-1.39.95-1.9,1.63-.31-.09-.65-.05-.79.24-.26.53-.75.7-1.21.94-.55.29-1.1.29-1.62-.04-.13-.21-.24-.4-.35-.58-.79-.5-1.53-1.06-2.25-1.64-.37-.3-.64-.75-1.24-.62-.14.03-.35-.15-.48-.28-.15-.15-.26-.35-.3-.41-.63-.36-1.15-.66-1.75-1-.14-.02-.38-.05-.66-.08-.44-.58-.88-1.17-1.27-1.69-.5-.11-.9-.21-1.36-.31-.21-.25-.45-.55-.6-.73-.72-.37-1.33-.68-1.93-1-.19-.1-.38-.3-.57-.3-.56,0-.99-.31-1.51-.53-.09,0-.23,0-.36,0-.13,0-.27-.02-.37-.03q-.42-.56-1.18-.86c-.13-.05-.26-.1-.37-.18-.63-.43-1.32-.62-2.07-.6-.24-.21-.46-.41-.69-.62-.22.17-.41.32-.61.48-.18,0-.37-.02-.59-.03-.37-.51-.71-1.06-1.34-1.21-.38-.73-1.04-.99-1.7-1.24-1.16-.43-2.44-.19-3.6-.65-.02,0-.05,0-.08,0-.7.1-1.32-.21-2-.38-.11-.34-.22-.67-.35-1.06-.4.19-.78.1-1.15-.11-.15-.09-.37-.09-.56-.1-.33-.02-.66,0-.93,0-.34-.2-.62-.36-.86-.51-.22.06-.37.11-.48.14-.45-.18-.88-.3-1.25-.52-.39-.23-.73-.57-1.1-.85-.06-.05-.15-.07-.22-.12-.23-.18-.45-.38-.68-.56-.04-.03-.1-.03-.27-.06-.09.15-.21.36-.29.51-.6,0-1.07-.01-1.53,0-.21,0-.46,0-.64.11-.6.34-1.14.29-1.58-.07-.71-.15-1.16.15-1.57.58-.25-.14-.48-.26-.77-.42-.78.7-1.82.55-2.77.78-.27-.11-.55-.22-.83-.33-.77.61-1.62.75-2.54.54-.16.1-.3.26-.48.3-.63.16-1.19.55-1.88.5-.13,0-.28.02-.4.07-.78.32-1.55.66-2.33.99-.33.09-.69.07-1.04.14-.36.07-.67.25-1.09.18-.38-.07-.81.06-1.21.11-.59.08-1.18.16-1.77.25-.35.05-.7.1-1.04.2-.55.17-1.08.39-1.63.56-.24.08-.51.09-.76.13,0-.03-.01-.05-.02-.08-.83.44-1.67.88-2.6,1.38-.3.05-.72.18-1.15.19-.98.01-1.79.52-2.61.92-.6.29-1.16.58-1.69.61-.42.25-.7.48-1.02.61-1.23.49-2.53.84-3.58,1.72-.06.05-.15.06-.19.08-.18-.04-.34-.07-.39-.09-.95.41-1.82.74-2.64,1.15-.56.28-1.13.53-1.71.77-.3.12-.61.31-.8.55-.24.31-.56.42-.87.59-.38.2-.77.39-1.15.58l.03.07c-.19.03-.37.06-.57.1-.15.17-.29.34-.45.49-.18.16-.37.39-.57.41-.59.07-.93.39-1.09.94-.61.18-.96.61-1.29,1.1-.19.29-.42.58-.68.81-.45.4-.95.73-1.41,1.12-.21.17-.43.37-.56.6-.39.72-.97,1.26-1.54,1.81-.33.33-.68.63-.97.9.03.25.04.38.05.48-.36.33-.74.61-1.03.97-.26.32-.47.67-.92.76-.12.02-.28.15-.3.26-.1.49-.57.71-.8,1.1-.22.37-.48.73-.64,1.13-.23.58-.52,1.08-1.15,1.35.05.43-.23.69-.5.98-.69.72-1.2,1.55-1.43,2.57-.62.48-.83,1.24-1.21,1.91-.15.26-.26.61-.49.74-.5.28-.73.72-.96,1.19-.1.19-.25.35-.38.53-.13.18-.28.34-.38.53-.6,1.1-1.2,2.2-1.78,3.3-.25.46-.46.93-.17,1.41-.36.61-.7,1.17-1.02,1.73-.06.11-.08.26-.09.39-.02.32-.03.63-.03.86-.38.34-.69.6-.97.84.23.73.24,1.36-.12,1.97-.1.16-.16.35-.21.53-.21.71-.47,1.38-1.02,1.92-.14.13-.27.43-.22.57.2.52-.08.91-.25,1.33-.24.6-.54,1.18-.79,1.73.11.26.2.46.24.55-.24.54-.43.98-.63,1.44.07.16.09.24.13.31.33.5.28.97-.04,1.46-.13.2-.29.43-.3.66-.04.59-.01,1.19-.01,1.86-.19.18-.42.4-.6.57.03,1.41-.25,2.73-.3,3.97-.15.27-.25.46-.35.65.19.25.36.46.5.64.03.54.05,1.03.08,1.59-.1.17-.25.4-.4.66.08.46-.05.89-.24,1.34-.15.37-.2.79-.23,1.19-.03.69,0,1.37-.01,2.06-.01.43-.07.86-.12,1.35.09.28.2.61.31.95-.16.59-.32,1.16-.49,1.79v2.2c.18.24.35.46.52.68-.34.51-.49,1.06-.34,1.6.21.73.51,1.43.78,2.17-.44.67-.66,1.38-.34,2.17.04.1.02.22.02.33,0,.65.18,1.23.66,1.71-.05,1.05.12,2.06.28,3.09.1.68.1,1.35.48,1.96.05.09.03.21.06.32.14.52.28,1.03.42,1.55q.08.97.57,1.72v1.1c.86.5.72,1.54,1.1,2.35.31-.06.56-.1.9-.17.1.31.2.6.3.89q-.66.16-.76.48c.31.67.58,1.25.84,1.84.2.06.39.13.65.21-.17.25-.29.44-.41.62.11.68.36,1.28.65,1.87.29.58.52,1.2.78,1.83.17.18.35.38.52.56.04.28.07.52.1.77.51.47,1.01.94,1.53,1.42,0,0,.03.07.01.11-.23.55-.17.99.36,1.36.16.11.27.36.32.56.26,1.13,1.08,1.85,1.84,2.63.41.42.83.87,1.13,1.37.26.42.51.83.85,1.19.34.36.65.74.96,1.12.26.32.5.65.77,1,.23.54.47,1.11.7,1.67.35.07.64.12.95.18.06.3.1.56.14.77.39.33.83.57,1.07.94.71,1.08,1.53,2.06,2.33,3.06.22.28.41.59.68.82.5.42,1.04.79,1.62,1.24.19.44.47.9,1.1.99.7.1,1.13.49,1.31,1.17.03.1.11.19.17.3.65-.03,1.04.43,1.43.79.44.1.84.2,1.2.28,1.02.88,2,1.75,3,2.6.21.18.44.32.68.46.68.4,1.36.81,2.06,1.19.52.28.98.58,1.22,1.15.21.06.39.1.57.15.44.14.89.24,1.27.54.66.52,1.36.98,2.2,1.21.24.06.47.15.69.26.46.22.91.46,1.37.69.29.15.59.28.87.44.28.16.54.33.9.35.31.02.61.2.9.36.33.18.64.41.83.53.5,0,.85-.02,1.19,0,.35.02.7.07.97.1.92.62,1.77,1.19,2.47,1.67.59.14,1.03.2,1.43.34,1.37.47,2.71.99,4.08,1.45.72.24,1.46.44,2.25.2.26.16.51.32.77.46.19.11.38.24.59.28.94.17,1.75.7,2.64,1.01.47.16.95.33,1.41.3.82-.05,1.56.07,2.25.56.29-.1.57-.2.79-.27.57.23,1.13.4,1.62.68.82.46,1.73.46,2.61.54.51.05,1.04-.05,1.54.15.16.06.37-.01.56-.04.3-.03.59-.11.89-.1.35.01.69.12,1.05.15.76.07,1.52.11,2.28.17.5.04,1,.09,1.61.14.1-.05.3-.16.5-.22.34-.1.68-.24,1.02-.24,1.11,0,2.15-.33,3.17-.54.26-.23.48-.43.62-.55.51-.1.92-.14,1.31-.25.98-.29,2.06-.37,2.8-1.23.07-.08.19-.12.29-.15,1.6-.54,3.03-1.49,4.67-1.94.21-.06.39-.19.59-.29.98-.47,1.95-.98,3.01-1.26.16-.04.31-.1.47-.16.57-.72,1.26-1.28,2.11-1.64.22-.09.4-.28.6-.42.18-.13.34-.27.53-.38.84-.52,1.78-.8,2.72-1.21.2-.39.47-.76.98-.84.16.05.32.09.41.11.38-.29.7-.53,1.05-.8.07-.13.16-.29.25-.45.38-.1.66-.26.78-.67.06-.21.26-.39.37-.53.39-.02.69-.03,1.06-.05.25-.58.51-1.17.76-1.74.57-.23,1.1-.44,1.67-.67.26-.84.96-1.36,1.56-1.9-.07-.27-.11-.45-.15-.6.26-.51.74-.6,1.22-.78.12-.28.24-.58.4-.95.37-.34.79-.73,1.31-1.2,0,0,0-.15.07-.25.66-.79,1.03-1.79,1.87-2.46.18-.14.32-.37.4-.59.17-.46.44-.8.86-1.06.2-.12.34-.34.49-.53.27-.34.51-.7.77-1.05.33-.44.65-.87.81-1.41.09-.33.32-.62.54-1.03.06-.3.14-.73.24-1.21.32-.27.68-.56.98-.82.22-.52.37-.98.1-1.47.43-.24.63-.54.7-.99.08-.57.34-1.1.82-1.48.04-.03.06-.09.1-.14.03-.24.06-.48.1-.72.49-.46.98-.91,1.13-1.59.07-.29.11-.59.2-.87.39-1.19.79-2.37,1.2-3.58-.02-.08-.06-.21-.08-.26.39-.77.94-1.37,1-2.23.51-.56.8-1.26.83-2.03.19-.12.35-.22.49-.31.23-.5.4-.98.2-1.43.39-.63.6-1.24.76-1.88.12-.49.16-.99.42-1.47.29-.54.57-1.14.62-1.86-.36.19-.65.35-1,.54v-.45c.24-.06.45-.12.65-.17.09-.23.17-.43.23-.59.26-.14.47-.26.71-.4-.11-.79.21-1.45.68-2.05-.11-.36-.22-.69-.31-1,.08-.24.15-.44.23-.66.3-.18.63-.34.65-.69-.11-.25-.2-.45-.27-.62.19-.24.37-.42.5-.62.14-.23.24-.49.36-.73.03-.72.24-1.41.28-2.1.04-.74.32-1.37.72-2-.18-.25-.35-.49-.52-.73.02-.1.03-.21.05-.32.21-.14.42-.27.66-.42-.14-.46-.28-.89-.38-1.21.17-.6.66-.57.99-.74,0-.5-.49-.62-.6-.94.35-1.17.69-2.32,1.04-3.51-.31-.41-.37-.95-.23-1.45.13-.49.11-.97.13-1.46.01-.27.07-.54.11-.81.07-.48.2-.97.18-1.45-.03-.53-.2-1.06-.31-1.6.22-.42.44-.83.63-1.19-.1-.29-.23-.54-.28-.81-.08-.54-.15-1.08-.16-1.62-.01-.48-.22-.83-.54-1.15-.19-.19-.46-.33-.44-.7.16-.23.34-.49.53-.76-.2-.26-.37-.47-.56-.72.06-.27.12-.56.19-.89-.1-.3-.23-.63-.32-.98-.26-.98-.38-1.09-1.36-1.24.18-.17.34-.3.45-.41.24-.63-.17-1.03-.47-1.48.12-.25.24-.49.31-.64.88-.26,1.66-.49,2.36-.7.36-.46.67-.84.98-1.25-.11-.18-.21-.35-.36-.59.33-.06.59-.1.77-.13,1.06-1.2,2.24-2.21,2.8-3.55.81-.42,1.51-.79,2.22-1.16.02-.25.04-.52.05-.77.1-.11.17-.2.25-.27.63-.56,1.32-1.05,1.8-1.77.15-.23.47-.34.73-.52.13-.33.27-.68.41-1.01.77-.39,1.24-.95,1.3-1.87.67-.24,1.33-.47,1.99-.71.06-.26.12-.49.17-.69.26-.23.54-.38.71-.62.47-.68,1.02-1.28,1.6-1.86.23-.23.41-.51.63-.75.49-.54.99-1.08,1.65-1.8.14-.28.37-.8.64-1.31.11-.22.25-.43.41-.61.4-.44.89-.81,1.04-1.41.33.04.62.08.8.1.83-.42.93-1.47,1.83-1.55.38-.64.96-1.07,1.08-1.85.12-.76.02-1.46-.18-2.21ZM190.96,128.67c-.14.39-.06.87-.04,1.31.04,1.18-.04,2.34-.31,3.5-.06.26-.08.57,0,.82.12.42.02.8-.06,1.19-.21,1.06-.63,2.09-.43,3.18-.14.22-.25.4-.37.58.14.93-.46,1.84.04,2.76-.18.22-.33.4-.39.48-.25.78-.46,1.43-.66,2.08-.06.21-.13.42-.14.63-.04.69-.21,1.35-.52,1.96-.21.43-.37.85-.31,1.35-.44.42-.6.93-.69,1.53-.08.55-.4,1.07-.48,1.62-.22,1.41-.83,2.71-1.18,4.08-.14.54-.44,1.04-.55,1.62-.05.27-.31.5-.52.81-.07.29-.15.65-.05,1.04.12.49-.16.92-.41,1.3-.31.49-.53.99-.59,1.55-.15.11-.28.21-.35.26-.16.4-.29.72-.46,1.16-.06.32.15.82-.29,1.3-.11.06-.32.18-.63.35-.16.34-.35.76-.54,1.18-.02.05,0,.12-.04.16-.44.51-.49,1.12-.5,1.77,0,.33-.23.65-.3.81-.19.6-.37,1.03-.45,1.48-.13.65-.46,1.21-.71,1.81-.05.12-.13.23-.2.35-.13.26-.27.51-.33.82-.22.2-.44.41-.74.69-.02.06-.15.24-.15.41-.01.91-.55,1.58-1.01,2.28-.34.53-.73,1.03-1.05,1.57-.26.44-.46.93-.73,1.5-.21.07-.51.18-.9.32-.07.28-.15.61-.25,1.02-.51.25-.87.7-.96,1.32-.35.23-.67.44-1.02.67-.31,1.03-1.12,1.75-1.76,2.59-.47.6-.98,1.16-1.21,1.92-.49.13-.79.43-1.1.81-.54.67-1.19,1.26-1.82,1.91-.1.25-.22.52-.35.82-.91-.01-1.55.48-2.09,1.12-.65.1-1.21.35-1.67.82-.28.28-.64.5-.97.73-.24.16-.42.33-.49.62-.07.28-.29.42-.57.53-.88.35-1.75.73-2.62,1.11-.17.07-.31.22-.46.33-.2.13-.41.26-.61.38-.11.07-.26.13-.33.23-.55.74-1.35,1.08-2.17,1.41-.51.21-1.01.42-1.54.65-.13-.04-.29-.09-.35-.1-.84.38-1.61.72-2.49,1.12-.12.16-.31.42-.52.7-.28.09-.57.17-.84.28-.22.09-.46.2-.64.36-.61.55-1.27.94-2.11.96-.24,0-.47.13-.7.21-.41.15-.82.29-1.27.27-.16,0-.33.05-.47.11-.63.27-1.25.56-1.68.76-1.25.06-2.31.1-3.41.15-.2.1-.43.22-.64.34-.49-.26-.92-.5-1.31-.71-.57.18-1.09.35-1.43.46-.67-.15-1.17-.26-1.67-.37,0,.02-.01.05-.02.07-.25-.11-.5-.22-.8-.36-.25.1-.53.2-.68.26-.66-.08-1.2-.13-1.73-.22-.32-.05-.62-.18-1.01-.3-.62.25-1.3,0-1.98-.16-.5-.11-.99-.29-1.57-.46-.1-.09-.27-.23-.4-.35-.77-.08-1.5-.16-2.31-.25-.59-.29-1.24-.61-2.01-.66-.34-.02-.66-.34-1.15-.61-.12.02-.4.08-.69.13-.67-.14-.96-.8-1.52-1.14-.52.24-1.02.19-1.55-.08-.25-.13-.63-.02-1.1-.02-.11-.13-.31-.38-.57-.71-.36.05-.78.12-1.21.15-.43.03-.87,0-1.35,0-.16-.39-.3-.74-.46-1.13-.34-.02-.72-.04-1.15-.06-.17-.22-.35-.45-.44-.57-1.85-.91-3.65-1.56-5.38-1.88-1-.54-1.85-1-2.7-1.46,0,.02-.02.04-.03.06-.48-.4-.97-.8-1.41-1.17-.67-.08-1.29-.15-1.9-.22-.3-.35-.57-.66-.79-.92-.57-.14-1.04-.27-1.52-.38-.47-.11-.85-.32-1.1-.78-.26-.47-.74-.74-1.21-.95-1.04-.47-1.92-1.13-2.57-2.07-.03-.04-.08-.07-.13-.12-.38-.11-.78-.22-1.1-.31-.3-.5-.56-.94-.8-1.35-.29.04-.5.06-.75.09-.14-.23-.29-.46-.43-.69-.02.01-.03.03-.05.04-.23-.26-.46-.53-.71-.77-.23-.23-.54-.39-.74-.63-.53-.66-1.37-1-1.82-1.76-.11-.2-.37-.32-.58-.45-.4-.25-.74-.53-.95-.99-.09-.2-.35-.33-.49-.46-.25-.55-.49-1.07-.7-1.55-.27-.15-.48-.27-.57-.32-.3-.44-.52-.76-.74-1.09-.03.01-.05.03-.08.04-.03-.16-.05-.32-.08-.5-.06-.04-.13-.09-.19-.14-.7-.61-1.36-1.26-1.71-2.16-.07-.2-.21-.42-.39-.51-.66-.36-1.02-.98-1.48-1.52-.28-.33-.56-.67-.84-1.01-.34-.4-.7-.79-1.02-1.21-.12-.16-.26-.43-.21-.58.13-.36-.07-.57-.24-.84-.23-.03-.47-.07-.67-.1-.19-.4-.37-.78-.56-1.16-.03,0-.05.02-.08.03v-.6c-.27-.51-.5-.97-.77-1.41-.28-.46-.64-.88-.73-1.44-.6-.61-.63-1.67-1.65-2,.05-.32.1-.6.13-.82-.22-.64-.43-1.22-.61-1.81-.04-.14-.07-.24-.1-.33-.09-.26-.19-.34-.59-.61-.07-.14-.15-.29-.23-.44s-.16-.32-.26-.51c.04-.29.1-.67.17-1.13-.23-.39-.5-.86-.76-1.31-.3.02-.55.04-.81.05-.05-.59.5-.39.72-.72v-1.16c-.19-.05-.39-.11-.66-.19.13-.32.23-.59.36-.91-.13-.16-.28-.35-.44-.56-.08-.65-.17-1.33-.27-2.13-.34-.37-.47-.93-.45-1.56.01-.45-.12-.9-.35-1.32-.29-.55-.35-1.17-.4-1.8-.1-1.16-.27-2.31-.91-3.47.14-.56.31-1.21.49-1.94-.12-.2-.28-.45-.44-.71,0-.07-.03-.16-.01-.24.07-.51.08-1.01,0-1.52-.03-.19-.05-.41.02-.57.25-.58.14-1.13-.06-1.68-.23-.65-.15-1.31-.1-1.95.05-.67.18-1.34.29-2.01.07-.45.16-.9.36-1.35-.06-.24-.12-.47-.2-.75.05-.19.12-.42.19-.7-.22-.07-.41-.14-.64-.21-.17-.61.14-1.1.4-1.53.09-.71.17-1.35.26-2.04.07-.08.18-.2.29-.33-.06-.19-.11-.37-.18-.59.1-.16.21-.35.34-.57-.09-.26-.14-.56-.28-.82-.33-.63-.31-1.19.13-1.76.21-.28.34-.62.49-.9-.08-.32-.14-.58-.22-.92.51-.54.73-1.27.99-2.05.04-.34.08-.74.15-1.31-.17-.4-.23-.95.2-1.51.13-.06.3-.13.46-.19.05-.54.05-1.06.16-1.57.16-.74.37-1.47.6-2.2.12-.38.2-.77.44-1.13.2-.3.23-.71.31-1.08.09-.43.16-.86.2-1.09.4-.77.71-1.36,1.07-2.05-.04-.1-.13-.29-.22-.5.07-.22.14-.45.23-.73.25-.16.52-.34.86-.56.17-.78.57-1.57.48-2.46.27-.18.56-.37.81-.54q.13-.92.7-1.62c.02-.2.04-.42.07-.7.39-.3.79-.62,1.19-.92.29-.69.59-1.38.92-2.17v-.53c.32-.29.62-.57.91-.84.11-.39.21-.75.31-1.12.02.01.04.03.06.04.4-.58.79-1.18,1.21-1.75.22-.3.53-.54.76-.84.25-.32.45-.67.62-1.04.93-.73,1.66-1.61,1.97-2.78.32-.13.6-.25.82-.34.59-.62,1.13-1.22,1.71-1.78.4-.39.69-.84.97-1.31.12-.21.26-.45.45-.57.58-.33.94-.83,1.2-1.44.2-.08.39-.15.6-.23.09-.18.17-.35.27-.51.24-.36.43-.73.84-.98.32-.19.53-.54.82-.84.15-.01.34-.03.57-.06.25-.28.49-.61.94-.67.17-.02.36-.16.47-.31.46-.61,1.15-.79,1.68-1.01.92-.77,1.73-1.46,2.56-2.12.18-.15.43-.28.66-.3,1.12-.09,2.08-.65,3.09-1.04.3-.12.62-.2.92-.32.38-.15.75-.32,1.11-.51.78-.39,1.59-.66,2.45-.8.05,0,.11-.03.09-.02.57-.4,1.09-.76,1.61-1.12,1.16.15,2.08-.54,3.11-.89.36-.12.7-.32,1.03-.51.71-.41,1.48-.5,2.27-.6.53-.06,1.06-.24,1.56-.42.73-.27,1.44-.5,2.23-.32.1.02.22.01.31-.03.6-.28,1.24-.17,1.91-.21.1-.08.22-.19.35-.28.43-.31.87-.58,1.43-.53.4.04.75-.08,1.07-.32.45-.34.98-.43,1.53-.52.92-.16,1.84-.07,2.75-.15.46-.04.91-.14,1.51-.23.06-.04.24-.16.45-.29.24.06.47.12.74.19.8-.36,1.63-.68,2.57-.66.14.23.26.43.37.63.47-.06.5-.52.77-.73.53-.2.56.25.72.58.28-.11.55-.22.85-.34.57.25,1.24.12,1.81.46.17.1.48.01.71-.04.32-.07.62-.18.95-.28.46.43.99.58,1.6.55.4-.01.82.06,1.21.17.41.12.85.27.99.67.57.14,1.07.27,1.57.39.13.03.27.06.4.05.96-.08,1.85.15,2.65.67.74-.09,1.37.16,1.98.48.34.18.67.34,1.08.37.27.02.55.23.78.41.29.23.59.38.97.39.21,0,.44.06.63.15.96.46,1.91.95,2.87,1.41.98.48,1.95.99,2.96,1.39.66.26,1.31.52,1.89.95.2.15.51.18.77.22.59.08,1.18.13,1.78.19.11.26.2.45.3.7.57.13,1.03.51,1.46.94.43.43.94.74,1.6.66.17.16.38.28.47.46.25.52.72.72,1.18.97.65.35,1.29.72,1.9,1.13.27.18.47.45.68.71.29.37.6.65,1.02.9.6.37,1.25.75,1.61,1.39-.37,1.03-1.15,1.67-2.08,2.32-.82.12-1.57.56-2.04,1.42-.09.16-.25.29-.4.41-.25.21-.52.4-.84.65-.25.09-.59.19-.92.32-.45.17-.69.53-.77.99-.06.37-.11.75-.17,1.19.08.14.2.32.31.5-.03,0-.06.01-.08.02.28,1.27.55,2.54.86,3.95-.02.23-.07.6-.09.98-.02.33-.01.66,0,.99.03.71-.03,1.41.13,2.12.11.49-.02,1.03-.07,1.54-.05.51-.14,1.02-.22,1.6.08.18.19.43.31.69-.11.23-.21.45-.31.67.06.25.12.48.19.73-.16.33-.31.65-.46.97-.13.28.08.69-.34.9-.49-.24-.99-.49-1.64-.81-.09-.21-.24-.55-.39-.88-.45-.1-.87-.2-1.31-.29-.95-.94-1.89-1.88-2.88-2.87-.18-.03-.42-.06-.6-.09-.42-.48-.8-.93-1.21-1.41-.21-.02-.45-.05-.7-.08-.44-.41-.88-.82-1.38-1.28-.12,0-.31,0-.5,0-.35,0-.6-.13-.87-.37-.4-.36-.78-.79-1.37-.82-.21-.2-.41-.39-.64-.61h-1.2s0-.05.01-.08c-.61-.23-1.21-.47-1.83-.71-.75-.56-1.44-1.26-2.54-1.24-.32-.64-1.03-.77-1.63-.92-.88-.22-1.7-.55-2.55-.84-.31-.1-.62-.18-1.06-.31-.45-.36-1.07-.59-1.79-.56-.33.02-.64-.05-.95-.19-.34-.16-.71-.24-1.04-.35-.25.21-.44.36-.52.43-.74.15-1.35.28-2.02.41-1.21-.38-2.31.22-3.52.67-.1-.03-.28-.08-.47-.13-.17.15-.34.3-.48.42-.08.02-.13.05-.19.05-.8-.01-1.56.07-2.28.48-.65.37-1.37.52-1.91.38-.56.21-.95.33-1.31.49-.27.12-.48.36-.76.46-.61.23-1.24.41-1.95.64-.32.37-.83.56-1.37.79-.51.21-.98.46-1.57.39-.19.15-.38.3-.61.48-.91-.19-1.44.56-2.12.97h-1.33c-.04-.25-.07-.46-.1-.68-.05,0-.12-.02-.13,0-.11.18-.23.36-.3.55-.06.17-.08.36-.11.57-1.45.15-2.3,1.16-3.18,2.12-.24.13-.48.26-.7.37-.19.39-.36.76-.56,1.16-.11-.07-.21-.14-.31-.2-1.51.91-2.57,2.25-3.54,3.65-.26.05-.47.09-.73.15-.06.22-.12.45-.19.69-.47.56-.88,1.16-1.18,1.84-.17.39-.46.74-.73,1.08-.35.45-.73.88-1.02,1.22-.2.62-.37,1.12-.58,1.75-.44.36-.97.79-1.53,1.26.22,1.06-.56,1.75-1.13,2.48-.63.8-1.27,1.55-1.57,2.54-.14.47-.46.89-.57,1.36-.23,1.06-.81,1.96-1.16,2.96-.09.25-.22.49-.36.78.07.7-.1,1.36-.8,1.79-.02.32-.03.62-.05.98-.12.15-.27.34-.46.58-.13.8-.27,1.66-.43,2.65-.28.33-.71.73-.81,1.33-.02.11-.1.22-.08.31.16.78-.16,1.5-.21,2.27-.24.25-.48.51-.79.84,0,.21.02.48,0,.75-.09,1.03-.18,2.07-.19,3.11,0,.32-.26.64-.47,1.12.05,1.29-.16,2.76.14,4.36-.64,1.1-.86,2.38-.29,3.68-.07.31-.13.58-.19.83.07.17.12.34.21.47.25.39.29.81.31,1.25.04.93.13,1.85.2,2.88.05.07.15.23.28.42-.03.62,0,1.27.27,1.9.08.19.06.43.06.65,0,.75.21,1.35,1.04,1.53.08.02.14.08.27.15-.14.19-.28.37-.43.57.09.39.17.79.27,1.18.05.18.08.41.2.53.62.57.65,1.35.79,2.09.04.23.16.46.28.67.22.37.46.72.65,1.12.3.35.61.7.99,1.15.19.06.5.16.86.28-.08.11-.14.21-.23.34-.04.43.47.32.67.6-.08.26-.16.54-.25.87.72.36.97,1.09,1.34,1.74.14.25.38.48.63.62.46.27.8.56,1.08,1.06.31.55.86.98,1.33,1.44.53.51,1.09,1,1.64,1.49.37.32.75.63,1.21,1.03.04.13.13.39.21.63.73.42,1.46.84,2.14,1.23.16.3.29.54.47.85.31.09.67.19,1.05.3,1.07,1.26,2.35,2.34,3.81,3.13.42.1.81.19,1.17.28.23.22.43.41.56.52,1.17.23,2.23.44,3.29.65.77.39,1.53.77,2.3,1.16-.01.03-.02.06-.03.09h.85c.47.3.95.6,1.48.93.24-.03.56-.07.86-.11.13.17.23.29.33.42.06,0,.11.01.16,0,.58-.19,1.13.06,1.69.07.56,0,1.14-.26,1.7-.11.46.13.92.12,1.38.15.27.02.53.09.88.15.24-.07.55-.17.89-.27.15.07.32.15.51.25.4-.15.83-.23,1.3-.02.09-.11.19-.24.35-.44,1.34-.18,2.74-.53,4.23-.53.21-.21.4-.5.68-.65.27-.15.62-.15,1.05-.24.48-.51,1.2-.83,2.1-1.04.01.03.05.13.09.22.59-.1,1.14-.2,1.73-.3.67-.61,1.6-.73,2.43-1.1.15.04.3.09.46.14.18-.11.37-.23.55-.34.41-.27.76-.6,1.29-.67.22-.03.45-.22.62-.39.37-.37.79-.58,1.32-.58.12,0,.25-.1.4-.17.11-.19.23-.41.36-.63.22-.15.44-.3.7-.47.65.02,1.2-.22,1.77-.61,1.03-.72,1.98-1.53,2.92-2.35.21-.18.43-.34.7-.55.27-.42.29-1.06.78-1.43.17-.13.29-.31.46-.45.46-.38.79-.9.92-1.43.19-.74.66-1.18,1.2-1.6.17-.13.36-.25.6-.41.13-.52.4-1.01.99-1.23.04-.29.08-.56.13-.84.23-.11.46-.2.67-.31.55-.29.82-.86,1.23-1.29.77-.79,1.26-1.77,1.86-2.68.48-.72.96-1.48.99-2.5.3-.14.57-.26.92-.42.09-.3.11-.72.32-1.03.22-.33.61-.55.83-.73.03-.45.04-.72.06-1.03.56-.29.74-.84.79-1.42.03-.35.14-.65.38-.89.28-.27.37-.59.39-.99.19-.08.41-.17.71-.3.2-.51.42-1.06.64-1.63-.43-.21-.92-.35-.74-1.02.34-.1.7-.21,1.08-.32.02-.27.04-.51.04-.61.35-.7.69-1.26.91-1.87.12-.33.26-.68.11-1.1-.16-.43-.01-.86.31-1.22.53-.59.78-1.3.84-2.12.6-.62.58-1.47.8-2.26-.17-.2-.32-.39-.49-.59v-.69c.13-.1.35-.22.49-.41.12-.16.13-.4.19-.59-.19-.23-.35-.42-.56-.67.26-.79.53-1.61.82-2.49-.02-.07-.09-.19-.1-.32-.07-.59-.1-1.2-.2-1.79-.07-.4-.04-.75.16-1.12-.14-.38-.18-.75-.01-1.17.3-.77.41-1.58.38-2.41-.02-.62.17-1.25-.2-1.79.13-.5.24-.95.36-1.43-.21-.75-.28-1.53-.02-2.31.02-.08.03-.16.02-.25-.07-.79-.12-1.57-.23-2.35-.04-.25-.23-.48-.35-.72-.17-.33-.34-.67-.42-1.05-.2-.22-.41-.44-.64-.69.1-.16.19-.32.26-.43-.05-.5-.09-.96-.14-1.51-.09-.12-.24-.31-.42-.54.07-.93-.95-1.46-1.03-2.4.21-.12.37-.21.54-.3,1.2.47,2.57.35,3.64,1.13.27-.18.51-.34.8-.54.13.27.22.46.33.69,1.31.44,2.64.88,4.13,1.37h.56c.59.32,1.1.59,1.68.9.48-.41,1.13-.17,1.74-.24.65-.07,1.26.05,1.75.4,1.61-.21,3.05.43,4.56.63.51.37.76.95,1.01,1.56-.04.06-.11.17-.13.21.13.5.25.94.37,1.38.08.31.17.62.26.94.12.44.23.89.37,1.47.4.33.36.97.52,1.54.27.96.5,1.94.75,2.91.02.08.07.16.07.23-.02.8.09,1.57.32,2.34.08.26-.07.58-.13.98.11.34.2.76.03,1.25ZM167.47,121.66c-.04.22-.1.49-.15.75-.05.32-.1.64-.14.96-.06.51-.14,1.02.06,1.52.04.1.09.22.07.31-.19.72-.05,1.44-.08,2.16-.01.21.04.42.07.63-.15.26-.3.51-.4.68.09.74.18,1.38.25,2.03.02.18-.03.38-.07.56-.1.5-.24.98-.11,1.51.08.32-.04.7-.09,1.21.12.31.15.76-.01,1.27-.13.39-.22.81-.15,1.27.07.4-.11.86-.22,1.27-.28,1.05-.51,2.12-1.01,3.11-.07.14-.13.31-.14.46-.04.54-.21,1.01-.66,1.37.03.51-.11.97-.33,1.42-.19.38-.24.83-.39,1.24-.26.72-.57,1.42-.82,2.14-.15.43-.22.89-.33,1.32-1.15.88-1.98,2.28-2.18,3.69-.16.13-.34.29-.5.43-.41.8-.81,1.57-1.27,2.46-.06.04-.24.16-.43.3-.02.22-.04.44-.06.72-.3.35-.6.78-.97,1.12-.47.44-.8.97-.95,1.33-.93,1.02-1.7,1.86-2.46,2.69.05.18.09.31.11.44.01.1-.01.21-.03.37-.28.03-.54.06-.85.09-.23.33-.48.69-.76,1.08v.77c-.46.22-.92.45-1.34.66-.26.51-.51,1.01-.74,1.46-.35.14-.63.25-.87.35-.4.59-.85,1.06-1.39,1.45-.44.32-.84.7-1.09,1.21-.13.26-.36.47-.55.73-1.03-.12-1.81.37-2.53.99-.1.09-.22.16-.35.22-.8.36-1.6.71-2.43,1.08-.37.5-.72,1.12-1.56.74-.33.44-.45,1.04-1.08,1.28-.19-.1-.43-.22-.69-.36-.13.09-.26.17-.39.26-.49.34-.94.67-1.58.8-.58.12-1.15.3-1.75.32-.23,0-.49.12-.67.27-.39.32-.84.39-1.13.37-1.28.48-2.42.81-3.59,1.01-.23-.18-.42-.33-.66-.51-.13.18-.27.35-.38.53-.1.16-.19.33-.27.48-1.26.33-2.05.32-3.24-.03-.4.1-.82.21-1.06.27-.67-.05-1.16-.11-1.65-.11-.45,0-.86-.05-1.26-.29-.23-.14-.5-.2-.76-.3-.51-.2-1.03-.32-1.5-.63-.32-.21-.78-.21-1.18-.27-.24-.04-.49,0-.74,0-.26-.15-.51-.31-.78-.45-.24-.13-.49-.24-.75-.37h-.83c-.52-.4-1.09-.68-1.72-.9-.48-.16-.89-.52-1.32-.8-.98-.62-1.96-1.25-3.01-1.77-.33-.17-.6-.47-.96-.78-.72-.02-1.38-.36-1.9-.98-.16-.19-.36-.39-.4-.61-.1-.51-.45-.71-.85-.92-.39-.2-.84-.38-1.09-.71-.25-.33-.56-.5-.92-.72-.14-.32-.29-.67-.5-1.13-.12-.09-.34-.25-.55-.4-.45-.75-1.07-1.31-1.8-1.76-.37-.23-.74-.44-.97-.84-.13-.22-.4-.34-.68-.57-.27-1.15-1.06-2.1-1.81-3.07-.21-.27-.29-.63-.34-1.01-.35-.31-.7-.62-1.04-.92-.19-.61-.36-1.18-.53-1.74.02,0,.04,0,.05-.01-.14-.32-.29-.64-.42-.97-.2-.54-.39-1.08-.57-1.62-.05-.15-.1-.31-.11-.47-.07-.57-.12-1.14-.19-1.7-.02-.16-.05-.35-.15-.46-.51-.53-.53-1.26-.82-2,.11-.21.26-.49.43-.82-.15-.16-.33-.36-.56-.61-.06-.26-.15-.58-.19-.9-.03-.33,0-.66,0-1.03-.19-.12-.39-.25-.61-.4.44-.61.59-1.14.36-1.52.04-.92.08-1.66.12-2.42.13-.15.27-.31.38-.45-.1-.74-.17-1.45.02-2.15.02-.08.06-.16.06-.24-.02-1.12.35-2.22.11-3.35-.02-.1.03-.21.04-.31.09-.73.18-1.46.28-2.31.06-.06.22-.2.45-.41-.11-.26-.22-.55-.37-.91-.01-.31.12-.67.43-.86.49-.31.61-.73.56-1.26-.01-.14,0-.27,0-.42.16-.2.32-.38.49-.59,0-.24.02-.48,0-.73-.04-.48.11-.92.29-1.35.25-.6.49-1.22.75-1.82.11-.25.27-.48.45-.79v-.61c.36-.79.67-1.4.92-2.03.54-1.37,1.06-2.75,1.58-4.13.14-.37.34-.69.77-.87.18-.88.36-1.78.56-2.76.23.12.38.2.55.28.03-.02.09-.03.12-.07.53-.8.99-1.63,1.66-2.33.26-.27.4-.65.6-.98.27-.44.54-.88.83-1.31.55-.85,1.08-1.7,1.21-2.73.02-.13.12-.24.19-.38.55-.09.93-.38,1.21-.88.2-.35.52-.62.79-.93.11-.12.27-.24.3-.37.1-.57.54-.76.96-1.03.52-.33,1-.76,1.43-1.21.27-.28.5-.54.93-.58.23-.02.5-.15.65-.32.61-.69,1.5-.99,2.1-1.59.58-.1,1.09-.18,1.64-.27.63-.38,1.3-.79,1.98-1.19.16-.1.35-.21.53-.21.65,0,1.22-.29,1.82-.46.42-.12.85-.2,1.38-.32.58-.38,1.26-.83,2.09-1.37.04,0,.25-.03.51-.05.66-.71,1.56-.39,2.38-.47.74-.42,1.42-.98,2.24-.82.64-.36,1.18-.66,1.78-.99.13.03.31.1.5.11.32.03.68.1.97.02.47-.14.96-.21,1.42-.33.5-.13.99-.25,1.5-.33.35-.05.65-.37,1.01-.59.63,0,.78.05,1.64.64h.86c.14.12.26.22.38.34.28.29.6.44,1.01.49.51.06,1,.23,1.41.59.22.19.52.27.73.37.41-.06.76-.11,1.05-.15,1.03.89,1.55,1.2,2.72,1.19.24.23.5.47.79.75.82.04,1.42.55,1.97,1.16.22.02.44.05.66.07.1.13.2.26.22.28.88.34,1.66.64,2.44.94.04-.05.07-.09.11-.14.21.25.4.53.64.76.49.48,1.01.93,1.7,1.08.3.07.48.25.62.49.14.26.27.53.42.83.86-.11,1.33.55,1.92.96.6.43,1.13.92,1.57,1.54.47.66,1.22,1,1.94,1.36.23.51.44,1.01,0,1.56-.16.03-.34.07-.4.08-.73.59-1.41,1.07-1.98,1.65-.48.48-.93.99-1.5,1.38-.09.06-.16.17-.26.2-1.06.4-1.58,1.38-2.38,2.16-.24.01-.54.03-.95.05-.27.38-.58.82-.88,1.25-.28.03-.52.05-.8.08-.16.22-.32.43-.53.71-.49.3-1.06.63-1.6.98-.16.1-.28.26-.41.4-.54.61-1.08,1.23-1.65,1.87-.25-.07-.5-.08-.64-.2-.51-.44-.98-.92-1.46-1.39-.14-.13-.25-.3-.41-.4-.95-.64-1.9-1.27-2.9-1.93-.17.03-.38.06-.41.06-.92-.34-1.68-.63-2.44-.92-.71.33-1.2-.09-1.67-.53h-.86c-.17-.11-.35-.23-.51-.32-.06,0-.09-.02-.11-.01-.82.47-1.78.18-2.54.44-.49-.06-.89-.11-1.23-.15-.87.47-.57.48-1.48.03-.58.19-1.18.38-1.77.58-.18.06-.38.13-.51.26-.81.74-1.83,1.03-2.84,1.35-.28.09-.52.29-.8.45-.3-.06-.62-.13-.96-.2-.54.67-1.21,1.01-2.08.76-.85.69-1.76,1.3-2.83,1.62-.27.47-.68.77-1.08,1.1-.62.52-1.35.91-1.85,1.57-.28.36-.63.67-.91,1.02-.37.47-.66.99-.65,1.58-.86,1.07-1.71,2.1-2.79,2.61-.5.59-.89,1.04-1.27,1.5-.5.61-1.05,1.18-1.37,1.93-.18.42-.41.82-.57,1.25-.36.44-.81.83-.76,1.48-.2.21-.38.41-.51.55-.49,1.33-1.02,2.58-.75,3.97-.72.7-.51,1.73-1.02,2.46-.03,1.07-.14,2.09-.45,3.1-.1.34-.03.76.05,1.12.1.43.25.83.21,1.28-.04.45.03.88.33,1.27-.11.18-.22.36-.37.62.2.32.41.66.66,1.07.27.9.43,1.94,1.38,2.65-.04.21-.09.45-.15.73.49.51,1.21.93,1.15,1.81,1.23,1.16,2.08,2.56,2.91,3.98.25.43.63.68,1.02.93.35.23.71.43.71.73.62.64,1.13,1.17,1.74,1.81.78.45,1.7.99,2.63,1.52.41.23.82.46,1.28.34.92.42,1.8.83,2.58,1.18.56.19,1.02.35,1.56.54.7-.16,1.48-.09,2.26.15.09.11.19.24.32.4.54-.32,1.06.04,1.59.03.35,0,.63.14.91.33.34.23.69.44,1.04.65.07.04.15.1.22.11.81.06,1.62.26,2.42.16.39-.05.74-.08,1.12.04.47.14.96.2,1.45.3.26-.14.55-.29.84-.45.21.13.39.24.56.34,1-.54,1.98-1.05,3.08-1.33.98-.25,1.88-.7,2.58-1.49.17-.19.49-.24.66-.43.35-.38.64-.79,1.08-1.1.25-.17.35-.54.54-.85.16-.03.35-.07.63-.13.14-.34.3-.73.48-1.16.14-.04.36-.11.59-.19.25-.93,1.13-1.24,1.69-1.86.09-.1.25-.14.32-.24.46-.67.91-1.36,1.38-2.07-.08-.14-.17-.3-.27-.48.27-.11.53-.21.81-.32.12-.28.24-.58.37-.88.53-.28.92-.66,1.11-1.26.08-.26.35-.46.62-.79-.02-.12-.07-.38-.12-.71.21-.11.45-.23.63-.32.22-.54.42-1.04.64-1.54.41-.92.7-1.9,1.3-2.74.27-.38.42-.83.63-1.25.28-.56.22-1.18.23-1.78.27-.37.54-.75.8-1.11-.03-1,.28-1.9.57-2.81.11-.34.23-.68.26-1.03.08-1.25.11-2.51.19-3.77.04-.66-.15-1.18-.66-1.6-.06-.05-.1-.13-.17-.22.03-.84,0-1.7-.89-2.16-.27-.99-.54-1.96-.81-2.96-.62-.38-.94-1.02-1.27-1.65-.14-.26-.3-.52-.49-.75-.38-.46-.78-.91-1.18-1.36-.36-.4-.75-.79-1.1-1.21-.16-.2-.29-.45-.35-.7-.06-.26-.01-.55-.01-.92.22-.16.49-.36.76-.55-.02-.03-.05-.06-.07-.09.19-.03.37-.07.56-.1.33-.23.53-.64,1-.68.11-.01.25-.16.29-.27.2-.51.66-.74,1.08-.96.51-.27.91-.59,1.15-1.12.09-.19.26-.35.42-.49.2-.18.44-.32.7-.51.13-.02.32-.06.53-.09.15-.25.29-.51.46-.81.56-.37,1.25-.55,1.85-.96.63-.43.86-1.12,1.37-1.61.34-.02.66-.03.95-.05.45-.2.51-.59.51-.94.52-.22,1-.36,1.41-.61.42-.25.77-.61,1.1-.88.77-.12,1.27.1,1.66.72.4.64.76,1.32,1.4,1.79.04.03.08.08.11.13.31.63.65,1.24.94,1.87.3.63.55,1.28.67,1.98.28.34.51.71.7,1.09.19.39.32.8.4,1.23.07.37.1.76.22,1.12.16.49.16.96.03,1.45-.04.16-.08.33-.06.48.08.51.19,1.01.3,1.55ZM150.63,135.46c.08.65.09,1.29-.26,1.92-.3.54-.45,1.17-.69,1.75-.17.42-.38.83-.6,1.32.05.21.12.53.21.9-.12-.01-.21-.02-.32-.03-.96,1.55-1.67,3.23-2.12,4.81-.45.6-.78,1.07-1.13,1.52-.35.45-.71.9-1.1,1.32-.48.52-.7,1.17-1.02,1.78-.07.14-.09.35-.2.43-.75.57-1.1,1.5-1.9,2.05.03.74-.48,1.04-.89,1.2-.62.64-1.11,1.15-1.6,1.67-.45.48-.91.93-1.26,1.5-.43.7-1.1,1.18-1.93,1.45-.56.19-1.07.53-1.58.83-.52.29-1.01.64-1.62.75-.13.02-.27.06-.4.05-.7-.09-1.4-.19-2.18-.29-.45.38-1,.01-1.5-.07-.69-.11-1.36-.1-2.04-.12-.3,0-.6,0-.94,0-.27-.25-.55-.51-.89-.82-.27,0-.59,0-.92,0-.36.01-.69-.05-1.04-.19-.32-.13-.69-.14-.9-.17-.95-.37-1.77-.7-2.6-1.03l.02-.08c-.45-.03-.89-.07-1.51-.11-.37-.24-.88-.58-1.39-.93l.03-.07c-.21-.04-.42-.09-.64-.13-.63-.78-1.69-1.14-2.1-2.21-.48-.03-.86-.29-1.25-.62-.65-.55-1.16-1.22-1.77-1.8-.48-.46-.73-1.06-.9-1.68-1.01-.74-1.48-1.85-2.11-2.92-.21-.07-.48-.16-.8-.27.04-.26.08-.47.08-.49-.11-.59-.16-1.02-.27-1.43-.16-.63-.37-1.25-.6-2.01.08-.66.23-1.48.14-2.32-.04-.36.12-.74.2-1.2-.15-.38,0-.85.08-1.34.09-.51-.04-1.05.05-1.56.09-.49-.45-.94,0-1.45.28-.04.6-.08.91-.12-.1-.9-.39-1.74-.24-2.68.43-.47.88-.85,1.49-.94.36-.23.09-.56.12-.82.21-.23.39-.43.57-.62.09-.54.18-1.08.24-1.45.59-.69,1.09-1.24,1.55-1.81.22-.27.43-.58.54-.91.17-.52.45-.85.99-.98.16-.04.29-.14.49-.24.27-.89.91-1.57,1.47-2.31.1-.13.2-.28.34-.35.54-.28.82-.78,1.15-1.28.17-.04.36-.07.45-.09.9-.58,1.51-1.38,2.39-1.86.51-.28.91-.76,1.44-1.23.68.08,1.43-.01,1.9-.77.95-.15,1.86-.36,2.64-.9.38.09.71.25,1.12.08.26-.11.63.02,1.07.06.43-.12.72-.16,1.12-.09.13.02.28.06.44.1.2-.04.38-.12.56-.22.17-.1.34-.21.51-.32.59-.38,1.27-.62,1.91-.92.12-.06.26-.09.43-.16.76.45,1.56-.11,2.31,0,.49.29.93.55,1.37.82.22-.12.43-.23.59-.31.41.27.76.49,1.1.74.33.24.65.5.98.73.69.5,1.4.96,2.05,1.48.37.29.64.7.97,1.07-.53.81-1.15,1.48-1.92,2.02-.24.17-.47.37-.7.57-.1.09-.18.22-.3.28-1.2.68-2.08,1.76-3.2,2.54-.22.15-.46.28-.73.44-.75.93-1.41,2.02-2.48,2.77-.2.34-.31.72-.15,1.17-.11.12-.23.23-.34.35h-1.39c-.37.61-.94.97-1.49,1.37-.21.15-.32.42-.55.73-.69-.01-.74,1.13-1.58,1.06-.56.55-1.11,1.03-1.88,1.21-.27.37-.52.77-.81,1.12-.22.26-.45.53-.82.66-.26.09-.53.33-.65.58-.18.38-.44.61-.79.76-.19,1.27.36,2.04,1.86,2.54.38-.28.79-.59,1.21-.88.4-.28.83-.54.99-1.06.04-.12.14-.25.25-.32.86-.5,1.34-1.46,2.3-1.83.05-.02.08-.08.16-.17.04-.15.09-.36.16-.67.26-.17.57-.37.97-.63.13-.19.31-.46.52-.78.1-.05.24-.14.39-.21.56-.24,1.04-.54,1.39-1.09.3-.48.77-.85,1.39-.96.18-.03.35-.13.51-.2.09-.37-.33-.69.04-1.13.14-.04.37-.1.65-.18.78-.73,1.5-1.62,2.61-2,.14-.27.28-.53.44-.84.34-.1.71-.2,1.09-.31.4-.38.75-.86,1.41-.93.23-.43.35-.92.76-1.24.36-.29.23-.92.84-1.19.16.01.43.03.65.04.6-.26,1.19-.5,1.81-.77.36.17.7.34,1.05.51.11.38.22.74.32,1.1.24.11.49.23.74.34-.1.66-.02,1.21.59,1.57.09.05.15.16.21.25.29.42.59.85.94,1.37.1.2.21.54.41.82.38.55.64,1.14.71,1.78.15.16.27.31.28.32.38,1.16.7,2.16,1.01,3.1-.08.34-.14.6-.17.73.18.65.38,1.17.44,1.7ZM211.35,90.77c-.32.34-.62.65-.92.98-.33.36-.62.76-.98,1.1-.31.3-.68.54-1.08.85-.17.68-.46,1.36-1.3,1.53-.33.58-.64,1.1-1.13,1.53-.37.33-.57.86-.84,1.31-.69.24-1.13.74-1.52,1.33-.24.36-.53.69-.79,1.01-.29.04-.53.07-.82.1.02.19.04.35.06.58-.28.34-.61.73-.94,1.13-.09.1-.18.22-.3.28-1.2.57-1.65,1.75-2.35,2.84-.21.04-.49.09-.82.16-.14.6-.52.99-1.09,1.23-.19.08-.36.25-.51.4-.53.51-1.05,1.03-1.56,1.56-.13.13-.19.32-.28.48-.1.19-.19.39-.29.6-.22.05-.43.1-.75.17-.18.19-.4.48-.66.72-.42.38-.9.48-1.44.19-.38-.21-.8-.36-1.24-.55-.11-.2-.24-.44-.38-.7-.24.09-.45.23-.67.24-.2,0-.39-.14-.6-.22-.23.34-.58.42-.99.42-.51,0-1.03.05-1.65.09-.33-.26-.79-.41-1.34-.28-.42.09-.79-.06-1.15-.32-.56-.42-1.27-.47-1.92-.63-.21-.05-.47.08-.74.13-.55-.24-1.17-.14-1.76-.14-.58,0-1.16.03-1.61-.42-.04-.04-.1-.05-.15-.06-.73-.2-1.47-.39-2.29-.61-.18-.14-.43-.34-.72-.57-.21.05-.44.11-.71.17-.04-.01-.12-.04-.2-.06-.65-.26-1.22-.69-1.96-.8-.53-.08-1.01-.17-1.52.1-.39-.17-.76-.32-1.26-.53-.84.18-1.64-.45-2.54-.62-.07-.01-.12-.16-.2-.27.07-.13.13-.26.21-.36.08-.11.18-.2.33-.36-.04-.31-.09-.65-.15-1.07.07-.11.19-.29.3-.48v-.95c.1-.16.21-.34.32-.51-.22-1.02-.22-2.02-.05-2.95-.09-.73-.21-1.4-.25-2.08-.02-.32.11-.64.15-.96.14-1.03.05-2.05-.23-3.05-.1-.37-.13-.69.05-1.02-.45-1.13-.29-2.28-.32-3.45.79-.26.78-1,1-1.58.33-.2.63-.38.97-.59.17-.02.39-.04.65-.06.27-.29.57-.57.82-.9.47-.61.99-1.15,1.67-1.55.53-.31,1.12-.57,1.46-1.15.11-.19.39-.29.59-.43.62-.44,1.25-.88,1.95-1.37h1.05c.47-.49.95-1,1.56-1.65.37-.19.91-.46,1.48-.75.33-.68.94-1.05,1.68-1.27.23-.07.46-.21.62-.38.53-.56,1.23-.87,1.84-1.31.09-.06.19-.14.29-.15.66-.02,1.14-.49,1.67-.64.68-.58,1.05-1.39,1.81-1.79.22.06.4.12.56.16.31-.08.6-.15.95-.24.13-.18.29-.39.47-.63.5-.22,1.03-.45,1.53-.67.23-.25.45-.5.61-.67.43-.1.76-.18,1.09-.26.12-.28.21-.51.31-.75.78-.21,1.36-.75,1.95-1.34.22-.03.46-.06.69-.09.71-.56,1.37-1.21,2.36-1.54.03.45.05.74.06.96-.15.34-.26.61-.39.88-.08.17-.16.37-.29.49-.53.45-.76,1.07-.94,1.7-.11.4-.31.68-.67.9-.02.22-.04.44-.06.69-.32.33-.6.71-.79,1.18-.17.42-.48.79-.73,1.18-.28.44-.4.9-.08,1.41-.28.42-.54.83-.79,1.21-.32.04-.56.08-.81.11.2.18.39.34.56.49.01.13.07.26.02.34-.3.6-.63,1.2-.94,1.79-.11.22-.33.43-.33.64-.02.79-.61,1.34-.76,2.06-.02.07-.09.14-.15.19-.75.69-1.12,1.61-1.59,2.48.07.32.15.63.23.97.15.17.31.35.45.51.69-.01,1.29,0,1.78.56.7-.14,1.42-.28,2.28-.45.28.15.75.22,1.25.26.56.04,1.1.26,1.77.42.62-.17,1.37-.28,2.01.32,1.05-.23,2.11-.66,2.97.33.36.07.68.13,1.08.2.12-.03.33-.09.52-.15.45.12.87.23,1.33.34.69-.27,1.4-.21,2.12.05.27.1.59.07.89.1.4.04.81.07,1.22.19.59-.21,1.16-.49,1.77-.61.87-.17,1.75-.2,2.53.47.02.12.04.28.06.47-.56.58-.85,1.41-1.68,1.68Z"/>
</svg>