<?xml version="1.0" encoding="UTF-8"?>
<svg id="Livello_1" data-name="Livello 1" xmlns="http://www.w3.org/2000/svg" viewBox="0 0 489 489">
  <defs>
    <style>
      .cls-1 {
        fill: #000;
      }

      .cls-1, .cls-2 {
        stroke-width: 0px;
      }

      .cls-2 {
        fill: #fff;
      }
    </style>
  </defs>
  <path class="cls-1" d="M214.73,137.94c1.25.64,2.41.27,3.54.14,1.7-.21,3.4-.46,5.09-.72,1.27-.19,2.53-.5,3.81-.62,2.49-.23,4.92-.7,7.35-1.26.54-.13,1.1-.17,1.74-.27.26-.14.59-.32,1.02-.55,1.48.38,3,0,4.53-.18.25-.03.5-.11.75-.18.16-.05.31-.17.48-.19,1.91-.26,3.79-.73,5.74-.62.76.04,1.54-.05,2.3-.1.43-.03.85-.1,1.28-.15,1.96-.21,3.93-.41,5.88-.64.51-.06,1-.26,1.5-.37.88-.2,1.76-.37,2.64-.56.29-.06.58-.17.86-.24.25-.07.51-.21.74-.17.95.17,1.88-.12,2.82-.08,1.04.04,2.05-.07,3.06-.33.47-.12,1.03-.04,1.51.08.98.24,1.93.35,2.93.11.41-.1.85-.08,1.28-.12.67-.06,1.3.06,1.84.45.66.48,1.38.6,2.18.61,1.21.01,2.39.21,3.41.96.2.15.45.24.69.33,1.32.51,2.67.96,3.97,1.52,1.23.53,2.52.85,3.8,1.18.41.1.85.14,1.28.12.75-.05,1.43.14,2.12.41.75.29,1.54.51,2.36.65.37.29.74.57.94.72,2.16.68,4.18,1.14,6.05,1.96,1.59.69,3.36,1.1,4.71,2.32.21.19.53.29.81.38,1.55.49,3.1.97,4.73,1.48.22.28.49.6.71.87,1.26.49,2.46.94,3.66,1.41,1.13.44,2.14,1.09,3.08,1.84.66.52,1.34.9,2.14,1.13.4.12.79.34,1.16.54,1.05.57,2.05,1.26,3.15,1.73,1.32.56,2.37,1.53,3.65,2.15.15.07.27.24.43.28,1.13.26,1.75,1.2,2.57,1.87.25.21.43.53.59.82.12.22.14.5.25.73.91,1.77,1.16,3.66,1.1,5.62-.03,1.03.01,2.06,0,3.09,0,.3-.01.61-.11.89-.22.67-.32,1.33-.2,2.03.04.2,0,.43-.04.64-.45,2.15-.77,4.3-.68,6.51.01.37-.07.78-.23,1.12-.35.73-.39,1.49-.3,2.27.07.61.09,1.2-.15,1.78-.03.08-.05.17-.05.25-.16,1.62-.32,3.24-.48,4.86,0,.08,0,.17,0,.26.46,2.56-.15,5.03-.57,7.52-.14.85-.28,1.69-.41,2.54-.17,1.14-.36,2.28-.46,3.43-.07.81.02,1.63,0,2.44-.02.42-.07.86-.23,1.25-.22.54-.28,1.07-.25,1.64.07,1.24.16,2.48-.38,3.68-.16.36-.08.85-.08,1.27,0,.98-.02,1.95-.21,2.94-.24,1.29-.23,2.63-.35,3.95-.15,1.62-.31,3.24-.49,4.86-.15,1.27-.39,2.53-.4,3.83,0,.76-.23,1.52-.34,2.29-.2,1.44-.35,2.9-.58,4.33-.17,1.06-.22,2.13-.25,3.2-.06,1.8-.27,3.58-.74,5.33-.49,1.87-.84,3.77-1.23,5.66-.09.42-.15.86-.12,1.28.1,1.39-.24,2.73-.34,4.1-.04.51-.05,1.03-.01,1.54.1,1.46.29,2.91-.27,4.33-.05.12-.07.25-.07.38-.03,2.47-.78,4.82-1.28,7.21-.16.75-.21,1.53-.27,2.3-.2,2.31-.41,4.61-.57,6.92-.15,2.14-.57,4.24-1.07,6.32-.12.51-.19,1-.07,1.52.13.59.16,1.19-.07,1.78-.03.08-.05.17-.05.25.1,1.39-.39,2.71-.45,4.08-.01.26,0,.52-.01.77-.04.46.02.98-.16,1.38-.82,1.88-.72,3.86-.69,5.83,0,.52,0,1.01-.15,1.52-.16.53-.19,1.1-.29,1.64-.09.51-.2,1.01-.28,1.51-.09.54-.16,1.08-.28,1.62-.11.58-.29,1.15-.31,1.73-.03,1.46.09,2.92-.21,4.36-.07.33-.07.69-.04,1.03.15,1.44-.21,2.8-.6,4.16-.02.08-.08.17-.07.25.07,1.29-.21,2.54-.28,3.82-.09,1.45-.05,2.91-.12,4.36-.02.37-.2.73-.35,1.23.21.92.2,1.96-.05,3.03-.19.79-.2,1.61-.28,2.42,0,.09,0,.17,0,.26-.27,1.73-.54,3.47-.82,5.2-.22,1.35-.44,2.71-.67,4.06-.12.72-.29,1.42-.41,2.14-.24,1.4-.44,2.8-.42,4.22,0,.13.02.27-.02.38-.51,1.38-.35,2.87-.67,4.29-.34,1.51-.71,3.03-.79,4.56-.14,2.53-.75,5-.96,7.51-.08.92-.48,1.73-1.38,2.19-.26.13-.48.35-.8.59.21.21.34.45.53.52.27.1.59.09.89.11,1.7.16,2.75,1.09,3.23,2.7.23.78.37,1.59.63,2.36.43,1.31-.51,2.87-2.17,2.97-.34.02-.69,0-1.1,0-.74-.45-1.61-.52-2.52-.63-1.04-.13-2.05-.55-3.3-.91-.29.09-.82.25-1.41.43-.29-.07-.64-.1-.95-.23-1.5-.6-3.1-.63-4.67-.78-.51-.05-1.04-.09-1.54-.03-.94.11-1.8-.02-2.38-.49-1.47-.19-2.73-.38-4-.49-.54-.05-1.1.09-1.83.16-1.12-.64-2.48-.51-3.91-.19-.96-.59-2.07-.58-3.19-.56-.43,0-.85-.09-1.28-.12-.51-.04-1.01-.06-1.49-.09-.41.44-.76.81-1.15,1.23-.32-.02-.67,0-.99-.07-.81-.21-1.62-.11-2.43-.01-.42.05-.86.12-1.27.07-1.64-.19-3.23-.04-4.83.37-.86.22-1.79.2-2.68.2-.91,0-1.8,0-2.63.47-1.07-.29-2.13-.3-3.19,0-.32.09-.68.02-1.02.03-.73.02-1.46.04-2.19.05-.3,0-.61.04-.88-.05-.78-.26-1.52-.25-2.18.22-1.94-.39-3.82-.2-5.69.02-1.58.18-3.15.17-4.74.13-1.02-.03-2.04.2-3.06.3-.6.06-1.19.09-1.79.14-.59.05-1.19.1-1.78.19-.97.15-1.92.31-2.93.15-1-.16-2.06-.25-3.03.27-.11.06-.24.1-.37.1-1.28.05-2.56.09-3.84.12-.26,0-.55-.11-.76-.03-1.01.4-2.11.38-3.14.63-.49.12-.96.35-1.53.57-1.41-.57-2.93-.62-4.48-.32-.08.02-.18.02-.26,0-1.66-.42-3.23.04-4.71.48-1.98-.11-3.86-.18-5.72.21-.29.06-.59.09-.89.08-.38,0-.77-.11-1.15-.07-.38.03-.74.19-1.13.29-1.41-.18-2.81-.11-4.21.18-1.23.26-2.45.26-3.7.03-.78-.14-1.62-.01-2.43.03-.68.03-1.38.21-2.04.13-.82-.1-1.62-.07-2.43.03-.51.07-1-.01-1.51-.06-.83-.09-1.71.03-2.55.17-.94.17-1.86.18-2.81.09-1.4-.13-2.81-.34-4.22-.02-.21.05-.43.09-.64.06-1.5-.22-2.99.05-4.49,0-1.37-.04-2.73-.06-4.16-.09-1.44.52-2.98.36-4.52.29-.38-.02-.77-.08-1.14-.18-1.06-.27-2.1-.42-3.16,0-.19.07-.42.02-.64.02-1.63,0-3.26,0-4.89.03-.68.02-1.37.12-2.04.23-1.7.27-3.42.15-5.13.25-.17.01-.35-.01-.51.03-1.76.4-3.57.42-5.36.63-1.57.19-3.14.36-4.7.65-.7.13-1.46.11-2.17.02-1.01-.12-1.76-.7-2.11-1.67-.32-.89-.57-1.8-.81-2.71-.19-.72-.12-1.45.11-2.16.25-.79.73-1.35,1.53-1.62.48-.17.96-.36,1.37-.51.08-.16.16-.25.15-.31-.38-2.1-.54-4.24-1.27-6.28-.33-.92-.47-1.92-.62-2.89-.24-1.52-.43-3.06-.64-4.59-.04-.25-.08-.52-.19-.75-.89-1.9-.89-4-1.36-5.99-.41-1.75-.41-3.59-1.13-5.27-.02-1.28-.68-2.49-.46-3.81.02-.12.02-.26,0-.38-.24-1.3-.51-2.6-.74-3.9-.17-.93-.33-1.86-.46-2.79-.11-.76-.34-1.48-.35-2.27,0-.57-.35-1.13-.62-1.89.16-.83-.05-1.82-.3-2.83-.17-.66-.26-1.35-.27-2.03,0-.74-.13-1.44-.26-2.16-.29-1.56-.5-3.13-.75-4.7-.1-.63-.2-1.27-.3-1.9-.04-.25-.13-.5-.14-.76-.12-2.76-.9-5.41-1.3-8.13-.17-1.14-.23-2.3-.38-3.45-.13-.98-.37-1.94-.46-2.92-.21-2.22-.37-4.44-.51-6.67-.15-2.4-.38-4.78-.66-7.17-.23-1.88-.67-3.71-1.02-5.56-.26-1.39-.38-2.8-.6-4.2-.33-2.08-.69-4.15-1.04-6.22-.52-3.09-1-6.18-1.1-9.32-.02-.73-.03-1.46-.35-2.15-.1-.23-.12-.5-.15-.75-.09-.9-.2-1.79-.26-2.69-.1-1.49-.21-2.99-.22-4.49-.03-1.99-.41-3.92-.66-5.88-.22-1.74-.48-3.48-.24-5.25.15-1.12-.12-2.22-.23-3.33-.08-.77-.15-1.54-.2-2.31-.06-.86-.12-1.71-.15-2.57-.07-1.75-.1-3.51-.18-5.26-.05-1.02-.18-2.04-.27-3.06-.05-.55-.08-1.11-.11-1.67-.01-.21,0-.43-.02-.64-.17-2.09-.35-4.18-.53-6.28-.02-.21-.06-.43-.04-.64.14-1.56-.2-3.07-.41-4.6-.31-2.21-.59-4.42-.87-6.63-.25-2-.6-3.98-.89-5.97-.34-2.37-.93-4.71-.95-7.13-.01-1.02-.26-2.04-.4-3.06-.12-.89-.23-1.78-.34-2.67-.03-.21,0-.45-.09-.63-.45-1.02-.35-2.11-.45-3.17-.07-.77-.09-1.56-.32-2.29-.44-1.41-.44-2.88-.67-4.32-.14-.88-.34-1.78-.08-2.68.03-.12,0-.26,0-.38-.2-1.66-.41-3.32-.6-4.98-.16-1.34-.06-2.65.36-3.94.38-1.2,1.15-2.09,2.05-2.91.18-.17.45-.24.69-.34.75-.31,1.51-.61,2.27-.9,1.12-.43,2.24-.86,3.37-1.26.23-.08.51-.05.76-.08.34-.04.7-.03,1.01-.15,1.79-.69,3.65-.91,5.55-1,.34-.02.67-.12,1-.19.25-.05.5-.16.75-.18,1.99-.11,3.88-.66,5.78-1.2.33-.09.68-.24,1-.2,1.1.13,2.12-.21,3.17-.43,1.13-.23,2.28-.42,3.41-.63.8-.15,1.59-.34,2.4-.45,1.23-.17,2.47-.26,3.7-.44,1.23-.18,2.47-.35,3.67-.65,1.75-.45,3.53-.7,5.32-.93,2.17-.28,4.34-.47,6.5-.8,1.4-.21,2.78-.53,4.2-.57.68-.02,1.37-.02,2.05-.1.59-.06,1.17-.21,1.76-.33.75-.15,1.5-.38,2.26-.47,1.32-.16,2.64-.28,3.92-.67.44-.13.93-.13,1.4-.15.94-.04,1.86-.16,2.79-.38,1.92-.45,3.87-.79,5.81-1.12.54-.09,1.12.03,1.67-.02.46-.04.98-.05,1.36-.27,1.34-.77,2.79-1.09,4.28-1.33.13-.02.25-.06.38-.09.68-.47.82-1.1.74-1.91-.18-1.71-.24-3.42-.44-5.13-.18-1.53-.22-3.07-.59-4.59-.36-1.49-.48-3.05-.69-4.57-.09-.64-.16-1.28-.25-1.91-.25-1.74-.5-3.48-.78-5.21-.14-.89-.35-1.76-.53-2.65-.03-.13-.05-.25-.11-.37-.36-.78-.75-1.54-1.08-2.33-.31-.74-.79-1.35-1.43-1.79-1.12-.78-2.25-1.54-3.55-2.05-1.95-.76-3.84-1.68-5.77-2.51-.59-.25-1.21-.45-1.83-.59-1.93-.43-3.87-.79-5.79-1.24-.66-.15-1.34-.4-1.89-.78-1.19-.83-2.52-1.44-3.68-2.35-1.07-.84-1.96-1.75-2.49-3.03-.26-.62-.71-1.17-1.12-1.71-1.16-1.53-1.92-3.24-2.29-5.12-.08-.4.01-.85.07-1.27.1-.68.15-1.35-.03-2.04-.09-.36-.04-.76-.01-1.14.03-.47.21-.97.1-1.4-.29-1.2-.02-2.39-.03-3.58,0-.99-.04-1.97-.07-2.96,0-.04-.02-.09-.01-.13.26-2.02-.02-4.02-.27-6.02-.03-.25,0-.52-.07-.76-.61-1.94-.91-3.91-.75-5.96.1-1.23,0-2.48.07-3.72.04-.81.21-1.61.31-2.41.08-.59.14-1.18.24-2.04.45-.79.41-1.87.24-3.01-.1-.69.06-1.45.2-2.15.11-.54.38-1.05.59-1.56.06-.16.14-.33.26-.44,1.38-1.27,2.91-2.14,4.88-1.7.29.07.59.17.82.35,1.55,1.16,2.69,2.63,3.11,4.56.38,1.76.88,3.5.84,5.33-.01.64.19,1.28.18,1.91-.01,1.11-.07,2.23-.19,3.33-.05.5-.28.98-.48,1.65.5,1.54-.14,3.22-.14,5.01.34.68.39,1.49.38,2.32,0,.47.09.94.14,1.4.19,1.62.43,3.23.56,4.85.14,1.73.58,3.37,1.3,4.94.12.27.2.56.32.84.14.31.23.68.45.92.84.91,1.33,2.11,2.39,2.85.24.16.38.46.56.7.24.3.45.63.73.89,1.38,1.28,2.78,2.54,4.18,3.79.16.14.36.23.54.33.67.38,1.34.77,2.02,1.14.68.37,1.34.76,2.05,1.06,1.34.57,2.68,1.15,4.07,1.6.93.3,1.93.38,2.9.56.5.09,1.03.11,1.5.3.58.23,1.15.32,1.75.32,2.45,0,4.89.01,7.34,0,.34,0,.68-.08,1.02-.12.47-.05.94-.14,1.41-.13,2.53.09,4.96-.45,7.34-1.18.96-.29,1.81-.95,2.69-1.48,1.19-.72,1.89-1.84,2.4-3.1.56-1.39,1.12-2.79,1.73-4.16.46-1.04.65-2.13.8-3.23.04-.25.01-.54.11-.76.87-1.93.8-4.01.95-6.05.12-1.67.15-3.34.24-5.01.07-1.15.22-2.3.27-3.46.04-.9-.03-1.8-.02-2.7,0-.64.07-1.28.12-1.91,0-.09.04-.17.04-.25-.02-1.19-.05-2.38-.08-3.58,0-.21-.06-.43-.06-.64.08-2.31.03-4.63.38-6.93.1-.63.14-1.29.09-1.92-.19-2.42.06-4.8.53-7.16.16-.79.42-1.58.73-2.33.44-1.08,1.4-1.45,2.47-1.58.89-.11,1.79-.2,2.68-.26,1.5-.11,2.87.21,4.16,1.04,1.17.76,2.06,1.8,3.02,2.78.17.18.31.42.4.65.44,1.16.92,2.31,1.27,3.5.25.86.34,1.76.46,2.65.25,1.82.5,3.65.69,5.48.16,1.58.16,3.17.34,4.75.18,1.59,0,3.16.04,4.75,0,.26-.02.52.03.77.49,2.31.18,4.62.07,6.93-.12,2.53-.59,5.02-.83,7.53-.02.17-.03.34-.03.51.06,3.34-.78,6.54-1.54,9.75-.26,1.11-.78,2.07-1.3,3.06-.56,1.06-1.11,2.12-1.91,3.03-.16.19-.23.46-.35.68-.23.41-.43.84-.72,1.2-.81,1.05-1.44,2.22-2.41,3.17-1.2,1.17-2.39,2.29-3.99,2.94-1.1.45-2.14,1.04-3,1.93-.26.27-.61.5-.96.63-1.81.65-3.15,1.88-4.26,3.4-.61.83-1.19,1.68-1.78,2.53-.12.18-.24.36-.31.56-.63,1.68-1.23,3.37-1.74,5.1-.64,2.17-.47,4.33-.47,6.5,0,2.1.14,4.2.21,6.3.03.86.14,1.7.5,2.5ZM223.02,370.6q.69.62,1.28.26c-.4-.35-.86-.23-1.3-.24.33-.72,1-.7,1.64-.76.28.14.54.28.61.32,1.44.13,2.67.24,3.81.34.87-.4,1.66-.77,2.46-1.14.85.67,1.78.72,2.74.71.43,0,.86.05,1.28.12,1.32.21,2.64.2,3.97.01,2.46-.35,4.9-.83,7.41-.67,1.88.12,3.77.01,5.63-.39.33-.07.68-.03,1.02,0,1.33.12,2.65.2,3.98-.02.25-.04.53-.11.77-.04,1.29.35,2.56.03,3.84-.05,1.02-.06,2.04-.23,3.06-.36.68-.09,1.35-.2,2.03-.29.68-.09,1.38-.12,1.95-.57.1-.08.2-.16.28-.23.11-.37.2-.69.28-.96.25-.27.46-.5.86-.95-2.22.56-4.18.28-6.17.46-.49.11-1.02.3-1.56.34-.89.06-1.79.02-2.68.03-1.49.02-3-.2-4.46.35-1.1.42-2.24.45-3.41.39-1.58-.08-3.17-.1-4.73.34-.49.14-1.02.21-1.52.2-1.81-.05-3.58.2-5.42.7-1.72-.54-3.47-.42-5.13.54-.93-.41-1.78-.02-2.63.23-.3-.13-.57-.25-.83-.35-2.28.12-4.54.23-6.99.36-.09.04-.36.15-.63.27-.57-.14-1.14-.22-1.67-.12-1.2.23-2.4.16-3.59.15-2.07-.01-4.11.25-6.14.62-1.27.23-2.52.47-3.82.25-.32-.05-.68.03-1.01.1-1.53.3-3.07.39-4.61.28-1.89-.13-3.77,0-5.65.12-1.5.09-2.99.22-4.48.32-.72.05-1.45.13-2.17.1-1.41-.07-2.83-.15-4.23-.33-2.88-.36-5.73-.13-8.58.25-1.74.23-3.48.35-5.24.23-1.5-.1-2.99-.24-4.49.06-.37.08-.77.02-1.15,0-1.11-.09-2.21-.12-3.31.17-.61.16-1.27.16-1.91.18-1.03.03-2.07-.09-3.09.04-1.42.19-2.82-.06-4.23.01-1.79.09-3.6-.3-5.37.22-.08.02-.17.01-.26.02-1.45.12-2.9.23-4.47.36-.38-.15-.9-.35-1.18-.46-1.15.12-2.04.21-2.93.3-.25.03-.53.04-.75.14-.91.42-1.82.38-2.77.2-.58-.11-1.2-.2-1.73.2-.3,1.12-.25,1.24.86,1.96,1.3-.08,2.63-.15,3.95-.25.38-.03.75-.17,1.13-.24.46-.08.93-.14,1.4-.19,1.11-.11,2.24-.1,3.32-.33,1.24-.26,2.47-.19,3.71-.2,1.37-.02,2.74-.1,4.1-.24,1.02-.11,2.02-.35,3.04-.53.94.16,1.88.2,2.82.25.86.04,1.72.02,2.56.16,3.12.5,6.23.37,9.4-.08.96.29,1.98.21,3,.03.34-.06.7-.17,1.01-.1.73.16,1.45.04,2.18.02,1.03-.02,2.06-.06,3.09-.06,2.57,0,5.15,0,7.72,0,.86,0,1.71.03,2.57.03.34,0,.7.03,1.02-.07.8-.25,1.61-.28,2.42-.22,1.58.11,3.16-.36,4.75-.05.08.02.17,0,.26-.02,1.31-.23,2.63-.37,3.95-.47.78-.06,1.54.13,2.29.05.8-.09,1.59-.34,2.39-.39.81-.05,1.62.12,2.43.09,1.07-.03,2.13-.17,3.2-.25.3-.02.62.03.89-.07,1.2-.44,2.45-.32,3.69-.38.97-.05,1.96-.22,2.89-.5.45-.14.89-.26,1.36-.29ZM204.63,142.89c-.81-.16-1.52-.07-2.25.11-.66.17-1.34.29-2.02.34-.91.08-1.79.21-2.58.71-.68.43-1.43.6-2.22.53-1.97-.17-3.83.44-5.69.86-1.3.29-2.55.73-3.9.69-.17,0-.34.03-.51.07-1.93.39-3.88.69-5.78,1.16-3.43.83-6.93,1.16-10.38,1.87-2.93.61-5.94.82-8.93,1.06-.85.07-1.69.28-2.51.5-.47.12-.91.2-1.39.11-.82-.15-1.61-.03-2.41.23-1.51.5-3.04.9-4.66.91-.3,0-.59.09-.88.15-1.76.37-3.53.76-5.33.86-.7.04-1.37.12-2,.4-.77.34-1.56.38-2.38.44-1.32.09-2.65.21-3.95.46-2.1.41-4.18.97-6.28,1.39-1.59.32-3.2.59-4.82.78-2.01.24-3.9.99-5.89,1.27-.08.01-.16.05-.25.08-.7.21-1.39.42-2.09.64-.29.09-.57.17-.85.28-.79.31-1.58.64-2.59,1.05-.07.15-.28.48-.36.83-.34,1.65-.34,3.32-.14,4.99.17,1.4.52,2.79.17,4.22-.07.28-.02.6.02.9.15,1.19.31,2.38.48,3.57.04.25.12.5.17.75.17.75.46,1.5.48,2.25.05,2.06.2,4.1.53,6.15.19,1.18.3,2.38.61,3.54.19.72.28,1.44.16,2.17-.11.66-.06,1.29.2,1.89.31.73.38,1.49.38,2.27,0,.9.04,1.8.32,2.67.09.28.13.59.16.89.12,1.28.23,2.56.35,3.84.02.25.09.51.14.76.24,1.09.52,2.17.73,3.27.58,3.04.76,6.12,1.05,9.2.02.21-.02.43-.02.64,0,.43-.01.85.02,1.28.12,1.63.28,3.25.39,4.87.12,2.01.19,4.03.3,6.04.05.81.14,1.62.22,2.44.16,1.66.33,3.33.47,4.99.09,1.02.24,2.06.18,3.08-.06,1.08.04,2.14,0,3.21-.09,2.6.57,5.11.7,7.69.07,1.44.47,2.87.2,4.33-.04.24.05.51.08.76.06.47.14.93.18,1.4.1,1.07.14,2.14.28,3.2.27,2.13.64,4.24.88,6.37.17,1.49.3,2.97.56,4.45.34,1.98.52,3.99,1.04,5.95.23.87.39,1.76.54,2.65.24,1.48.4,2.97.65,4.45.37,2.24.82,4.47.92,6.75.06,1.49.16,2.99.26,4.48.07,1.07.14,2.14.28,3.2.2,1.57.52,3.13.66,4.71.16,1.75.19,3.51.81,5.19.6,4.11,1.46,8.19,1.58,12.36.02.79.35,1.51.43,2.26.13,1.16.42,2.27.74,3.39.19.65.23,1.35.33,2.03.14.89.27,1.78.42,2.66.04.25.15.5.17.75.16,1.71.26,3.42.84,5.06.04.12.07.25.08.38.16,1.57.78,3.07.69,4.67.69,2.17.77,4.46,1.31,6.66.2.79.25,1.62.51,2.38.45,1.35.67,2.75.92,4.14.21,1.14.32,2.31.67,3.4.32.99.44,2,.63,3.01.07.38.2.74.31,1.11.22.74.47,1.47.67,2.21.43,1.65.33,3.42,1.03,5.02.08.19.05.43.11.63.1.37.22.73.33,1.1.31.16.56.38.84.41,1.15.12,2.31.25,3.46.24.94,0,1.87-.2,2.81-.29,1.02-.11,2.05-.2,3.08,0,.33.06.68.02,1.02.01,1.29-.04,2.57-.11,3.86-.12,1.32-.01,2.63-.13,3.97-.04,2.74.19,5.49-.12,8.22-.4.78-.08,1.53-.08,2.31,0,.72.08,1.48.2,2.17.07,1.03-.19,2.05-.18,3.08-.19.43,0,.85-.06,1.28-.09.64-.05,1.28-.11,1.92-.15,1.63-.11,3.27-.1,4.88-.33,1.55-.22,3.07-.18,4.61-.07,1.75.12,3.51.28,5.26.33,1.02.03,2.05-.11,3.08-.18,1.84-.13,3.69.05,5.52-.26.84-.14,1.7-.14,2.56-.18.21-.01.42.05.63.07.34.04.68.11,1.02.09,1.58-.1,3.17,0,4.75-.27,1.05-.18,2.13-.14,3.2-.2,2.18-.1,4.32-.74,6.52-.61.04,0,.09-.01.13-.01,1.41-.13,2.81-.29,4.22-.37,2.05-.11,4.11-.19,6.17-.24,2.97-.07,5.9-.37,8.79-1.09.53-.13,1.12-.21,1.65-.13,1.08.16,2.14.11,3.2-.06.8-.13,1.61-.32,2.42-.33,1.25-.02,2.48-.17,3.7-.43.58-.13,1.2-.24,1.78-.18.79.08,1.54.02,2.31-.21.78.29,1.57.24,2.4.13,1.23-.17,2.48-.24,3.72-.3,1.2-.05,2.4-.02,3.61-.06.47-.01.93-.1,1.4-.17.63-.1,1.26-.25,1.89-.3.63-.05,1.17-.26,1.61-.71.33-.33.62-.71.94-1.09.05-2.29-.11-4.55-.4-6.88.36-.56.34-1.23.29-1.93-.15-2.4.13-4.78.29-7.17,0-.08.04-.17.05-.25.26-1.69.7-3.37.74-5.06.04-1.8.24-3.59.28-5.39.01-.55-.2-1.13-.1-1.65.27-1.46.1-2.91.17-4.37.02-.38.03-.79.16-1.14.35-.96.34-1.95.25-2.93-.19-2.02-.06-4.03.15-6.02.23-2.26.22-4.53.51-6.77.17-1.29.16-2.57.19-3.85.03-1.24.03-2.49.04-3.73,0-.73,0-1.45,0-2.18,0-1.55-.12-3.1.03-4.63.14-1.46.12-2.91.15-4.37.01-.73,0-1.46.03-2.19.07-1.62.16-3.25.23-4.87.02-.47-.02-.94-.04-1.42-.04-.73-.16-1.45-.13-2.17.05-1.16.13-2.3-.02-3.46-.04-.29,0-.6.02-.9.06-1.16.12-2.31.18-3.47.03-.56.08-1.11.1-1.67.05-1.11.09-2.22.13-3.33.02-.59.08-1.18.14-1.77.15-1.66.19-3.35.73-4.95.07-.2.12-.42.13-.63.13-1.75.26-3.51.36-5.26.11-1.93.19-3.86.29-5.79.01-.21.06-.42.08-.64.17-1.45.42-2.88.38-4.35-.03-1.16-.05-2.32,0-3.48.03-.9.16-1.79.27-2.68.08-.64.16-1.28.32-1.9.23-.9.02-1.79.05-2.68.03-.89.28-1.78.35-2.67.08-1.16.06-2.32.11-3.48.03-.77.16-1.54.16-2.31,0-1.76.03-3.52.3-5.26.1-.67.08-1.37.07-2.05,0-1.46-.04-2.92-.04-4.38-.01-1.71.3-3.42.04-5.14-.09-.59-.04-1.2.01-1.8.14-1.79.31-3.59.47-5.38.11-1.2.24-2.39.33-3.59.13-1.71.25-3.42.35-5.13.02-.38-.08-.77-.1-1.15-.03-.51-.07-1.03-.03-1.54.12-1.63.28-3.25.39-4.87.04-.55-.05-1.11-.07-1.67-.02-.56-.08-1.11-.05-1.67.12-2.14.26-4.28.39-6.42.11-1.84.19-3.68.35-5.52.16-1.71.44-3.4.62-5.11.07-.64.03-1.29,0-1.93-.03-.94-.15-1.89-.1-2.82.07-1.45-.1-2.92.21-4.36.04-.17.03-.34.02-.51-.06-1.6.22-3.16.39-4.74.14-1.31.51-2.62.17-3.96-.08-.32.01-.68.06-1.02.14-1.06.25-2.13.46-3.18.32-1.65.39-3.28.24-4.98-.11-1.21-.37-2.36-.64-3.53-.07-.28-.27-.52-.38-.72-.73-.42-1.41-.62-2.17-.37-.61.2-1.23.08-1.75-.21-.92-.52-1.82-.98-2.91-.52-.04.02-.09.01-.13,0-1.12-.32-2.22.06-3.33.06-.99,0-1.97-.03-2.96-.04-.6,0-1.2-.05-1.79-.03-.68.03-1.37.11-2.07.18-1.32.74-2.84.92-4.3,1.14-1.6.24-3.23.52-4.87.32-.25-.03-.51.03-.76.08-.84.16-1.68.33-2.51.52-.6.13-1.18.19-1.78,0-.28-.09-.6-.12-.88-.07-1.05.19-2.1.43-3.15.65-1.26.26-2.51.57-3.77.78-.97.17-1.96.31-2.94.31-1.18,0-2.29.26-3.42.53-1.62.38-3.23.89-4.93.84-.38-.01-.77.07-1.15.13-.76.12-1.52.28-2.29.38-3.06.39-6.13.77-9.19,1.14-.68.08-1.38.05-2.05.16-1.91.3-3.75.88-5.52,1.49-1.69,1.9-2,1.95-3.76.65ZM311.23,364.15c.09-.04.17-.08.26-.12-.49-.8-.33-1.59-.1-2.37.57-1.98.98-3.97,1.15-6.05.2-2.34.58-4.67,1.04-6.99.31-1.6.5-3.22.66-4.84.07-.74.18-1.44.44-2.13.15-.39.29-.81.33-1.23.16-1.49.66-2.93.61-4.45,0-.04.02-.08.03-.13.25-1,.48-2,.43-3.05-.01-.25.06-.51.14-.75.57-1.55.78-3.14.61-4.8-.08-.76.04-1.54.12-2.31.11-1.11.26-2.21.39-3.32.07-.64.23-1.29.16-1.91-.13-1.17-.02-2.32.21-3.45.51-2.53.83-5.08.86-7.65.02-1.98.23-3.93.52-5.88.09-.59.19-1.18.33-1.76.21-.92.54-1.81.68-2.74.16-1.1.25-2.22.25-3.33,0-2.63.63-5.19.97-7.77.19-1.4.04-2.81.3-4.19-.28-1.1.17-2.11.41-3.15.15-.62.31-1.25.37-1.88.15-1.49.24-2.99.36-4.48.01-.13.05-.25.06-.38.13-1.28.26-2.56.37-3.84.06-.64.01-1.29.12-1.93.39-2.41.77-4.83,1.25-7.23.44-2.19.8-4.39.74-6.63-.01-.55.09-1.11.16-1.66.09-.72.27-1.44.28-2.17.04-2.46.41-4.86,1.1-7.22.1-.33.14-.67.18-1.01.18-1.66.3-3.33.53-4.98.13-.98.27-1.95.28-2.94,0-.73.08-1.46.18-2.18.07-.51.27-.99.37-1.5.32-1.55.09-3.18.72-4.68.02-.04.02-.09.01-.13-.06-1.12.06-2.22.32-3.31.39-1.63.37-3.31.54-4.97.08-.72.22-1.45.19-2.18-.12-2.93.45-5.81.54-8.72.04-1.2.24-2.39.34-3.59.09-1.07.11-2.14.21-3.21.11-1.07.28-2.13.43-3.19.07-.51.13-1.03.29-1.51.25-.75.27-1.51.27-2.29,0-1.16,0-2.32.08-3.47.11-1.5.28-2.99.46-4.48.17-1.35.49-2.68.32-4.06-.01-.08.03-.17.04-.25.14-1.15.32-2.29.42-3.45.2-2.48.37-4.96.54-7.44.06-.94.13-1.88.14-2.82,0-.9-.07-1.8-.12-2.69-.05-.73-.05-1.46-.2-2.17-.2-.96-.59-1.88-.78-2.85-.15-.8-.57-1.32-1.24-1.69-.53-.29-1.08-.53-1.58-.85-1.23-.78-2.43-1.6-3.64-2.39-.14-.09-.31-.18-.47-.2-1.69-.27-2.92-1.59-4.56-1.98-.12-.03-.22-.13-.32-.21-.96-.86-2.02-1.58-3.11-2.27-.7-.44-1.41-.79-2.19-1.04-.73-.24-1.44-.54-2.15-.86-1.01-.46-1.99-1-3.01-1.44-1.57-.67-3.25-1.1-4.73-1.99-.51-.31-1.02-.62-1.54-.92-.37-.21-.72-.47-1.12-.6-1.42-.47-2.86-.89-4.29-1.33-1.59-.5-3.18-1.02-4.78-1.51-.24-.08-.51-.09-.76-.14-.8-.15-1.63-.22-2.4-.47-2.41-.77-4.88-1.36-7.18-2.46-.27-.13-.56-.22-.86-.27-.23-.03-.47.04-.7.07,0,1.8.02,3.51,0,5.22-.01.68-.06,1.38-.22,2.04-.31,1.21-.43,2.44-.53,3.68-.06.68-.15,1.36-.23,2.04-.07.64-.07,1.29-.24,1.9-.33,1.14-.34,2.29-.23,3.45.15,1.59.05,3.16-.42,4.51.04,1.1.08,2.04.11,2.98.02.56-.02,1.12.02,1.67.18,2.28-.21,4.53-.39,6.8-.18,2.26-.74,4.48-.69,6.77.03,1.2-.04,2.39-.18,3.59-.16,1.4-.21,2.83.11,4.23.15.65.09,1.29-.18,1.89-.22.49-.32.99-.15,1.5.26.82.15,1.62-.08,2.41-.13.46-.15.91-.08,1.39.28,1.88.31,3.76-.31,5.6-.12.35-.09.76-.11,1.15-.04.9-.06,1.8-.11,2.7-.05.85-.16,1.71-.19,2.56-.1,2.61-.17,5.23-.25,7.84,0,.09,0,.17-.03.26-.37,1.58-.29,3.19-.08,4.74.26,1.91-.2,3.76-.21,5.64,0,1.58-.29,3.15-.4,4.73-.11,1.75-.13,3.52-.24,5.27-.16,2.57-.37,5.14-.56,7.7-.1,1.33-.22,2.65-.29,3.98-.06.98-.15,1.98-.06,2.95.1,1.08-.02,2.14-.18,3.19-.22,1.44-.49,2.87-.51,4.34,0,.3-.08.59-.11.89-.04.38-.07.76-.1,1.14-.17,2.31-.35,4.61-.52,6.92,0,.13-.06.25-.07.38-.07.77-.14,1.53-.19,2.3-.05.77.02,1.56-.14,2.31-.32,1.57-.3,3.14-.29,4.72,0,.81.14,1.63.03,2.43-.3,2.21-.6,4.41-.19,6.64.05.29.02.6-.03.9-.36,2.05-.09,4.1-.01,6.16.02.51.04,1.03,0,1.54-.06.85-.16,1.71-.24,2.56-.04.38-.08.77-.09,1.15-.01.64-.07,1.29.01,1.92.14,1.01.25,2.01.17,3.05-.13,1.66-.16,3.34-.22,5-.04,1.15-.08,2.31-.07,3.46.02,2.62-.26,5.22-.46,7.83-.1,1.28-.23,2.55-.3,3.83-.07,1.37-.07,2.74-.11,4.12-.03.9-.1,1.8-.11,2.7-.02,1.37.06,2.75-.03,4.11-.1,1.4.16,2.83-.38,4.19-.03.07.01.17.01.26-.04,1.62-.09,3.25-.13,4.87,0,.09-.02.17-.03.26-.11,1.11-.22,2.22-.33,3.33-.17,1.7-.32,3.4-.34,5.12-.02,2.35-.32,4.7-.14,7.05.06.73.03,1.46.1,2.19.12,1.24.27,2.47.43,3.7.03.24.13.48.2.71,1.17.35,2.3.56,3.47.38.58.14,1.17.33,1.75.29,1.38-.09,2.73.05,4.09.25.72.11,1.44.13,2.17.18.26.02.52,0,.77.04,2.16.33,4.31.65,6.52.47,1.66-.13,3.34.05,5.01.09.64.02,1.29.13,1.92.07,1.84-.17,3.68,0,5.52.06,1.71.07,3.42.09,4.94.13.61-.3,1.03-.5,1.48-.72.56.24,1.1.47,1.65.7ZM161.92,67.05c-.22.74-.21,1.49-.06,2.27.18.97.28,1.95.36,2.93.12,1.45.2,2.91.31,4.36.02.3.05.6.14.89.49,1.69.41,3.39.23,5.11-.04.34-.1.7-.02,1.02.2.73.15,1.44,0,2.17-.07.33-.07.68-.06,1.02.05,1.84.14,3.69.14,5.53,0,.84.05,1.63.47,2.36.81,1.41,1.62,2.82,2.45,4.22.13.21.32.41.53.56,1.53,1.1,3.06,2.2,4.61,3.27.71.49,1.51.81,2.39.87.86.06,1.71.13,2.57.2.38.03.79.03,1.14.15,1.42.48,2.84.97,4.24,1.52,1.63.65,3.24,1.36,4.86,2.04,2.51,1.04,4.71,2.46,6.09,4.91.42.74.86,1.48,1.2,2.07.21.96.35,1.76.56,2.54.53,2.04.79,4.11.75,6.19.18.64.46,1.25.51,1.88.12,1.59.4,3.14.66,4.7.17,1.01.29,2.03.62,3.01.08.24.13.51.11.76-.21,2.12.41,4.18.54,6.27.04.66.27,1.27,1.04,1.55,1.91.02,3.71-.77,5.71-1.15.19-.22.44-.5.63-.71,0-.67.04-1.23,0-1.79-.12-1.32-.3-2.64-.42-3.97-.13-1.36-.14-2.74-.34-4.1-.19-1.29-.21-2.56-.2-3.85.01-1.89.06-3.78.05-5.67-.01-1.7.55-3.29.79-4.94.02-.16.14-.31.22-.46.28-.53.54-1.07.83-1.6.56-.98,1.2-1.88,2.26-2.39,1.85-.89,3.7-1.81,5.56-2.68,1.24-.58,2.51-1.14,3.88-1.35,1.2-.19,2.29-.69,3.39-1.17.27-.12.55-.26.84-.33,1.39-.32,2.65-.99,3.96-1.52,2.19-.89,4.06-2.22,5.63-3.97.34-.38.65-.8.87-1.25.63-1.31,1.21-2.64,1.76-3.84q1.39-1.07,1.66-2.71c.02-.13.04-.25.08-.38.61-1.98.95-4,1.11-6.06.15-2.05.57-4.07.55-6.15-.01-1.15.2-2.3.27-3.46.08-1.28.25-2.55-.11-3.84-.14-.51,0-1.1,0-1.66.02-.9.07-1.8.06-2.7-.01-.81-.13-1.63-.14-2.44-.02-2.62-.15-5.23-.57-7.82-.1-.59-.27-1.18-.28-1.78-.01-1.48-.32-2.9-.77-4.29-.6-1.81-1.28-3.58-3.02-4.63-.43-.26-.9-.5-1.38-.64-1.13-.34-2.3-.22-3.46-.22-.6,0-1.06.3-1.43.75-.37.45-.55.96-.64,1.52-.07.47-.15.93-.21,1.4-.22,1.83-.69,3.62-.64,5.48.02.63-.19,1.27-.27,1.9-.06.42-.12.85-.11,1.27.02.9.18,1.8.13,2.7-.08,1.49-.08,2.98,0,4.47.09,1.66.08,3.34.01,5.01-.06,1.58.1,3.16,0,4.75-.06,1.02.02,2.05-.01,3.07-.01.42-.13.84-.2,1.27-.06.33-.16.66-.19,1-.09,1.11,0,2.26-.27,3.32-.48,1.87-.63,3.79-1.08,5.67-.84,3.52-2.3,6.72-4.28,9.72-.79,1.2-1.83,2.17-3.25,2.6-.98.3-1.99.53-2.96.85-2.71.87-5.53.61-8.29.86-.17.02-.34-.02-.51-.05-.77-.15-1.53-.12-2.3.08-1.86.48-3.76.25-5.64.27-.33,0-.67-.13-1-.2-.42-.09-.83-.21-1.26-.28-1.1-.18-2.21-.3-3.3-.54-1.3-.28-2.66-.49-3.83-1.05-1.72-.82-3.65-1.32-4.98-2.84-.08-.09-.21-.15-.31-.22-.96-.71-1.93-1.41-2.89-2.13-.21-.15-.38-.34-.57-.52-1.38-1.34-2.77-2.69-4.15-4.04-.15-.15-.32-.3-.41-.49-.66-1.35-1.74-2.45-2.22-3.9-.15-.45-.29-.92-.55-1.3-.87-1.26-1-2.74-1.19-4.16-.21-1.57-.21-3.16-.27-4.75-.03-.73-.12-1.44-.32-2.15-.48-1.67-.59-3.37-.38-5.1.08-.64.15-1.27.2-1.91.04-.47.04-.94.07-1.41.05-1.11.17-2.23.14-3.34-.04-1.67-.14-3.34-.28-5.01-.06-.72-.21-1.45-.46-2.12-.24-.63-.67-1.19-.98-1.73-.64-.47-1.22-.9-1.74-1.29-.85-.09-1.29.37-1.58.98-.33.7-.57,1.42-.61,2.22-.03.73-.18,1.45-.26,2.17-.08.68-.18,1.36-.21,2.04-.06,1.29-.08,2.57-.12,3.75-.25.52-.45.95-.64,1.35.15.42.27.78.41,1.18ZM218.53,109.19c-.85-.3-1.53.02-2.18.29-1.66.69-3.3,1.4-4.93,2.17-1.72.81-2.87,2.26-3.99,3.73-.13.16-.17.39-.25.59-.52,1.34-.63,2.76-.64,4.17,0,.9-.15,1.79-.19,2.67-.11,2.31-.08,4.63.04,6.94.13,2.35.46,4.69.66,7.03.07.78.21,1.52.55,2.33,1.22.53,2.41.38,3.61-.18.09-.31.2-.55.22-.79.09-1.32.22-2.65.22-3.97,0-1.28-.12-2.56-.21-3.84-.07-1.07-.18-2.13-.25-3.2-.03-.51.06-1.03,0-1.54-.2-1.82.33-3.47,1.03-5.11.2-.47.37-.95.5-1.44.37-1.38.86-2.69,1.75-3.83.84-1.08,1.66-2.18,2.34-3.36.5-.87,1.08-1.69,1.7-2.66ZM307.35,366.79c-.69.05-1.24.14-1.79.12-1.37-.04-2.73-.14-4.1-.21-.72-.03-1.44-.03-2.16-.06-.68-.03-1.36-.12-2.04-.14-1.37-.05-2.72.19-4.08.31-.18.02-.36.15-.81.35,1.25.22,2.17.57,3.16.62.85.04,1.7.2,2.55.32.97.14,1.94.32,2.91.44,1.02.12,2.06.12,3.06.29,2.69.46,5.35,1.17,8.11,1.08.13,0,.25.05.38.06.6.02,1.18-.04,1.77-.34-.06-1.04-.65-1.53-1.53-1.75-1.97.33-3.8.2-5.42-1.09ZM278.39,365.88c-.2-.03-.39-.06-.59-.08-.63-.04-1.27-.08-1.9-.12-.25-.01-.52-.07-.75,0-.28.08-.57.25-.39.65,1.71.29,2.48.24,3.63-.46ZM289.56,366.99c.9-.09,1.53.15,2.13-.31-.82-.58-1.02-.57-2.13.31ZM225.08,370.92c.59.11.93.24,1.34-.15-.43-.2-.76-.23-1.34.15Z"/>
  <path class="cls-2" d="M278.39,365.88c-1.15.69-1.92.75-3.63.46-.18-.4.1-.57.39-.65.23-.07.5-.01.75,0,.63.03,1.27.07,1.9.12.2.01.39.05.59.08Z"/>
  <path class="cls-2" d="M289.56,366.99c1.1-.87,1.3-.89,2.13-.31-.59.46-1.23.22-2.13.31Z"/>
  <path class="cls-2" d="M225.08,370.92c.59-.37.91-.35,1.34-.15-.41.39-.75.26-1.34.15Z"/>
  <path class="cls-2" d="M223.01,370.61c.44,0,.9-.11,1.3.24q-.59.36-1.28-.26v.02Z"/>
  <path class="cls-1" d="M255.34,222.26c-.17.04-.5.14-.83.16-1.67.1-3.34.21-5.01.26-1.32.03-2.51.5-3.73.91-1.54.52-3.06,1.1-4.59,1.65-1.37.49-2.84.63-4.2,1.17-.42.16-.93.12-1.4.11-.74-.02-1.43.12-2.12.44-.49.22-1.07.31-1.61.34-.78.05-1.53.16-2.26.45-1.05.41-2.14.57-3.27.62-.59.02-1.18.17-1.76.31-.96.22-1.91.48-2.86.73-.58.15-1.18.27-1.73.48-.62.24-1.25.34-1.89.2-1.42-.31-2.83-.04-4.21.2-1.73.3-3.42.81-5.15,1.12-1.05.19-2.13.27-3.2.26-2.29-.02-4.53.34-6.78.65-1.44.2-2.88.44-4.32.67-.51.08-1.01.18-1.52.25-.42.06-.85.15-1.27.12-1.33-.08-2.64.16-3.96.29-1.44.15-2.88.43-4.34.37-.64-.03-1.3-.04-1.92.09-1.29.27-2.55.35-3.43-.09-1.25.02-2.14.12-3.02.04-1.44-.14-2.82.12-4.22.33-.45.07-.93.02-1.39,0-.34-.01-.69-.11-1.02-.07-1.53.17-3.09.14-4.59.55-.37.1-.76.17-1.14.17-2.52,0-4.92.6-7.28,1.42-.56.19-1.16.27-1.74.41-.41.1-.83.2-1.24.32-.74.22-1.45.53-2.23.41-.53-.25-.81-.69-.92-1.2-.23-1.13-.49-2.24-.38-3.43.1-1.1-.02-2.23-.12-3.34-.08-.99.02-1.97,0-2.94-.02-2.04.57-3.98.68-6,.07-1.32.36-2.63.58-3.94.18-1.06.4-2.1.59-3.16.26-1.4.8-2.7,1.37-4,.46-1.06.8-2.17,1.23-3.24.43-1.07.91-2.13,1.35-3.2.2-.47.35-.96.53-1.44.11-.28.19-.58.36-.83.83-1.22,1.24-2.63,1.85-3.95.64-1.4,1.22-2.83,2.19-4.06.21-.27.42-.56.55-.87.97-2.21,2.45-4.11,3.73-6.13.55-.87,1.13-1.72,1.76-2.53.42-.53.92-1.01,1.45-1.44.64-.51,1.19-1.09,1.66-1.77.7-1.02,1.45-1.99,2.42-2.81,1.14-.96,2.18-2.05,3.26-3.09,1.29-1.25,2.8-2.1,4.5-2.66,1.34-.44,2.65-.96,3.97-1.47.36-.14.67-.38,1-.57,1.82-1.06,3.65-2.07,5.73-2.56,1.29-.31,2.52-.81,3.84-1.06,1.35-.25,2.67-.64,4.02-.85.97-.15,1.97-.07,2.95-.13,1.54-.09,3.08-.22,4.62-.32.89-.06,1.78-.11,2.69-.16.21.19.4.35.58.53.36.36.78.53,1.28.46.83-.12,1.61.09,2.41.25,1.05.2,2.12.27,3.43.43.7.59,1.75,1.04,2.86,1.41.36.12.66.39,1,.57.37.21.75.42,1.14.59.67.29,1.34.57,2.03.8,1.89.63,3.45,1.89,5.22,2.74.38.18.76.39,1.13.6.19.1.39.19.55.32,1.44,1.22,2.87,2.44,4.3,3.67.26.22.5.47.77.69,1.21.96,2.47,1.86,3.62,2.88,2.18,1.93,4.28,3.95,5.8,6.49.2.33.44.64.68.93.73.9,1.46,1.78,2.02,2.82.38.71.92,1.34,1.44,1.96.71.85,1.04,1.86,1.37,2.88.33,1.02.68,2.03,1.01,3.05.28.86.55,1.72.81,2.58.05.16.07.34.13.5,1.24,3.03,1.78,6.26,2.73,9.37.37,1.23.86,2.48.89,3.73.04,1.35.44,2.51.93,3.69.15.36.21.74.35,1.1.36.96.34,1.85-.69,2.8ZM184.71,178.9c-.27.17-.48.26-.62.41-.65.73-1.33,1.45-1.92,2.24-1.16,1.54-2.15,3.2-3.71,4.41-.52.4-.88,1.05-1.23,1.63-.3.5-.62,1.04-.45,1.71.5.47.99.94,1.5,1.4,1.3,1.18,2.36,2.59,3.72,3.73.85.71,1.59,1.56,2.37,2.36.93.95,1.95,1.82,2.74,2.87,1.43,1.89,3.29,3.36,4.79,5.19.08.1.17.19.28.27.62.47,1.17.99,1.63,1.63.39.55.95.94,1.69,1.06.35-.68.03-1.32.1-1.95.09-.89.08-1.8.06-2.7-.03-1.67-.08-3.34-.15-5.02-.03-.68-.09-1.37-.25-2.03-.44-1.82-.35-3.66-.28-5.51.03-.85.14-1.71.12-2.56-.02-.72.07-1.36.52-1.94,1.18-.67,2.03-.55,2.77.52.65.95,1.26,1.95,1.78,2.98,1.25,2.49,1.82,5.26,3,7.78.02.04.03.08.04.12.74,2.06,1.49,4.11,2.22,6.18.41,1.17.78,2.36,1.18,3.54.48,1.42.88,2.88,1.49,4.25.76,1.72,1.69,3.37,2.56,5.04.07.13.2.23.38.43.15-.34.31-.56.33-.79.07-.6.07-1.2.11-1.8.03-.56.01-1.12.12-1.66.35-1.86.74-3.7.66-5.61-.01-.38.07-.77.13-1.15.11-.85.31-1.7.34-2.55.08-2.18.03-4.37.21-6.56.15-1.79.24-3.59.28-5.39.05-2.27-.16-4.54.22-6.81.25-1.47.25-2.99.37-4.48,0-.13.05-.25.07-.38.32-1.77.61-3.55.44-5.36-.03-.38,0-.78.1-1.15.37-1.37-.12-2.61-.46-3.9-1.51-.58-2.99-.99-4.54-1.06-1.37-.07-2.74-.09-4.11-.15-.56-.02-1.11-.08-1.67-.11-.36-.02-.69.07-.75.28-.26,1.22.84,1.83.8,2.74-.33.64-.62,1.21-.85,1.64.02.21.03.25.03.3.39,2.53.97,5.05.64,7.64-.03.2.05.42.1.63.09.42.18.84.27,1.24-.17.49-.26,1.05-1.05.86-.34-1.46-.69-2.91-1.03-4.36-.06-.25-.07-.51-.1-.76-.16-1.41-.3-2.81-.47-4.22-.04-.34-.11-.68-.22-1-.32-.93-.67-1.86-1-2.78-.21-.58-.51-1.09-1.09-1.35-1.05.04-1.54.2-2.3.71-.35.24-.69.52-1.08.7-1.6.74-2.92,1.98-4.59,2.59-.19.07-.35.24-.53.37-.53.36-1.06.72-1.59,1.09-.38.27-.77.55-1.13.85-.37.31-.64.69-.63,1.32.84,1.23,1.74,2.54,2.63,3.85.04.78.16,1.54.59,2.21.11.18.15.4.23.6.29.67.55,1.35.87,1.99.5.99,1.05,1.96,1.57,2.95.21.4.24.82.03,1.26-.54.58-1.12.46-1.78.02-.59-1.31-1.03-2.76-1.94-3.98-.02-.03-.03-.08-.05-.12-.37-1.25-1.03-2.33-1.77-3.4-.76-1.11-1.67-2.05-2.75-3ZM164.24,215.72c.1-1.07.15-2.1.3-3.12.18-1.27.41-2.54.66-3.8.16-.8.42-1.57.59-2.37.46-2.14.86-4.29,1.83-6.28.92-1.88,1.17-4.04,2.33-5.83.11-.17.15-.4.2-.61.12-.56.41-1.01.73-1.48.67-1,1.3-2.01,2.1-2.92.33-.38.53-.88.76-1.34.28-.53.45-1.14.82-1.6,1.02-1.26,2.12-2.46,3.2-3.67.28-.32.64-.58.91-.91.97-1.15,1.86-2.36,2.59-3.68.17-.3.32-.64.57-.85.88-.72,1.39-1.74,2.12-2.57.5-.58,1.07-1.1,1.61-1.65.3-.3.64-.58.89-.92.11-.15.06-.43.08-.64-.62-.15-1.02.12-1.43.34-.76.41-1.51.81-2.28,1.2-.91.47-1.83.94-2.75,1.4-.57.29-1.14.59-1.74.83-1.16.47-2.24,1.02-3.2,1.87-1.05.94-2.23,1.74-3.33,2.63-.29.24-.62.53-.73.86-.27.87-.86,1.46-1.49,2.06-.34.33-.61.72-.93,1.07-.63.7-1.27,1.38-1.9,2.08-.26.29-.51.58-.73.89-.44.63-.86,1.28-1.28,1.92-.75,1.15-1.54,2.28-2.22,3.47-.43.75-.79,1.52-1.42,2.13-.18.17-.38.4-.42.63-.19,1.17-.92,2.11-1.29,3.2-.29.85-.62,1.69-.96,2.53-.27.68-.57,1.32-1.05,1.9-.4.49-.64,1.1-.92,1.68-.19.38-.37.78-.5,1.18-.54,1.61-1.56,3.08-1.51,4.82-.26.41-.59.74-.71,1.13-.53,1.84-1.42,3.61-1.34,5.6.01.38-.12.76-.19,1.14-.07.38-.2.75-.23,1.13-.13,1.49-.23,2.99-.35,4.48-.02.3-.04.6-.09.9-.26,1.32-.23,2.65-.05,3.97.05.38.13.79.05,1.15-.28,1.38.06,2.74.09,4.11,0,.34.08.69.51.89.12-.02.3,0,.45-.07,2.26-.98,4.69-1.34,7.06-1.94.99-.25,2.02-.36,3.04-.49,1.25-.17,1.57-.56,1.44-1.77-.06-.55-.12-1.11-.13-1.67-.02-1.07.04-2.14-.01-3.21-.05-1.24-.17-2.48-.29-3.72-.1-.98-.18-1.97-.38-2.93-.19-.95-.07-1.78.49-2.56.12-.17.24-.36.41-.62ZM228.2,176.24c-.65-.84-1.35-1.46-2.18-1.77-1.12-.41-2.05-1.06-3-1.72-.28-.19-.58-.38-.89-.51-1.19-.49-2.39-.94-3.57-1.44-.47-.2-.9-.28-1.39.09-.38.55-.69,1.2-.81,1.94-.23,1.44-.44,2.88-.71,4.31-.38,1.98-.73,3.96-.74,5.98,0,1.07-.07,2.15-.23,3.2-.2,1.29-.18,2.56-.05,3.84.09.89.08,1.8.07,2.69-.02,1.24-.08,2.48-.15,3.72-.04.77-.15,1.53-.21,2.29-.03.47-.07.94-.02,1.4.15,1.34.06,2.66-.49,3.9-.29.66-.39,1.31-.24,2.01.27,1.28.21,2.56.13,3.85-.04.54-.25,1.07-.4,1.6-.12.45-.35.9-.36,1.35-.01,2.1.18,4.19.63,6.3.23.07.46.13.78.22.15-.47.28-.87.4-1.27.55-1.76,1.09-3.52,1.65-5.27.45-1.38.93-2.76,1.4-4.14.18-.52.34-1.06.55-1.57.57-1.38,1.26-2.73,1.36-4.26.03-.49.32-.87.59-1.26.34-.49.63-1.02.87-1.56.57-1.29,1.09-2.6,1.63-3.91.1-.24.21-.48.26-.72.25-1.14.63-2.22,1.28-3.21.18-.28.24-.64.35-.96.5-1.51,1-3.01,1.48-4.52.17-.53.3-1.07.41-1.61.31-1.51.63-3.02.9-4.53.26-1.47.46-2.95.7-4.48ZM169.14,204.97c-.4.15-.64.4-.7.76-.18,1.01-.43,2.02-.47,3.04-.08,2.03-.47,4-.92,5.96-.07.32-.06.66-.09.98.87.71,1.91,1.24,1.77,2.32-.24.84-.81.82-1.32.91.58.76.57.77,1.09.94.45.14.91.29,1.37.35.77.09,1.51.23,2.19.65.28.17.65.2.98.26.88.17,1.77.31,2.65.48.38.07.75.22,1.13.24.87.06,1.68.29,2.26.61.67.05,1.14.06,1.61.13.72.1,1.43.27,2.16.35,1.38.15,2.67.58,3.92,1.18.54.26,1.11.47,1.69.6.85.2,1.63.51,2.38.95.4.24.86.38,1.3.54.52.19,1.06.35,1.59.5.66.19,1.32.37,1.99.52.52.12,1.02.06,1.45-.36.27-.88.58-1.77.82-2.68.12-.44.26-.99.11-1.37-.35-.86-.76-1.76-1.38-2.43-.92-1-2.01-1.84-3.21-2.55-1.25-.74-2.63-1.24-3.76-2.19-.09-.08-.24-.1-.35-.16-1.17-.69-2.28-1.49-3.56-2-.27-.11-.47-.36-.71-.55-.24-.18-.46-.4-.72-.54-1.13-.61-2.26-1.23-3.09-2.2-.95-.1-1.68-.54-2.38-1.05-.52-.38-1.05-.76-1.62-1.04-1.35-.66-2.6-1.47-3.76-2.4-1.5-.25-2.97-.5-4.4-.74ZM246.25,206.26c-.71-.02-1.11.56-1.67.71-1.34.35-2.49,1.08-3.68,1.73-.61.33-1.19.68-1.67,1.19-.35.38-.7.76-1.07,1.12-.24.24-.5.51-.81.62-1.17.41-2.04,1.26-3.02,1.94-.56.39-1.11.82-1.56,1.33-.92,1.04-1.95,1.95-3.13,2.62-.95.54-1.77,1.2-2.59,1.88-.59.5-1.15,1.02-1.87,1.35-.3.14-.57.4-.78.65-1.31,1.55-2.85,2.82-4.59,3.96-.13.43-.2.88.17,1.28.42.25.84.17,1.25.03.82-.28,1.67-.37,2.53-.36,1.51.02,2.98-.18,4.42-.72.72-.27,1.49-.41,2.24-.58,1.05-.23,2.11-.4,3.15-.65.96-.23,1.9-.51,2.9-.52.38,0,.76-.13,1.13-.24.94-.28,1.88-.58,2.82-.89,1.02-.33,2.06-.62,3.05-1.01,2.69-1.06,5.47-1.74,8.33-2.16.24-.04.47-.16.66-.23.29-.65.2-1.25.07-1.84-.26-1.17-.57-2.33-.85-3.5-.4-1.67-.77-3.35-1.21-5-.22-.81-.57-1.6-1.26-2.1-.75.07-1.24.82-2.13.5-.24-.31-.54-.71-.84-1.1ZM217.04,219.48c.29-.39.43-.54.52-.71.45-.78.83-1.61,1.37-2.32.65-.86,1.26-1.72,1.68-2.72.15-.35.4-.66.64-.96,1.61-2,3.25-3.98,4.86-5.99,1.77-2.21,3.54-4.41,5.25-6.67.94-1.24,1.98-2.37,3.08-3.45.43-.42.82-.88,1.19-1.35.74-.94,1.47-1.9,2.19-2.86.39-.51.84-1,1.1-1.58.45-.99.96-1.91,1.74-2.53.22-.63-.02-1.02-.35-1.39-1.17-1.31-2.26-2.69-3.72-3.72-.28-.2-.55-.44-.73-.72-.9-1.41-2.35-2.25-3.48-3.41-.3-.31-.69-.53-1.23-.2-.16.74-.48,1.48-1.03,2.1-.08.09-.14.22-.18.34-.25.91-.55,1.8-.7,2.73-.17,1.03-.49,1.99-.86,2.96-.3.8-.49,1.64-.74,2.46-.4,1.31-.77,2.63-1.21,3.93-.35,1.01-.83,1.97-1.19,2.98-.2.57-.42,1.1-.77,1.61-.34.48-.61,1.04-.79,1.6-.6,1.84-1.22,3.66-2.13,5.37-.14.26-.25.55-.33.84-.5,1.72-1.48,3.28-1.73,5.1-.04.33-.23.64-.37.96-.93,2.08-1.62,4.24-2.06,6.48-.05.27,0,.55,0,1.12ZM218.85,223.73c.19-.13.38-.19.46-.32,1.01-1.65,2.6-2.73,4.01-3.94,2.04-1.76,4.25-3.33,6.43-4.93,1.11-.81,2.19-1.65,3.16-2.63.57-.58,1.18-1.13,1.82-1.62,1.09-.83,2.27-1.54,3.33-2.4,1.29-1.04,2.72-1.77,4.25-2.38.63-.25,1.24-.61,1.77-1.03,1.23-.97,2.32-2.14,3.87-2.63.02-.23.09-.41.05-.56-.38-1.4-.78-2.8-1.18-4.19-.05-.16-.13-.32-.21-.47-.81-1.36-1.62-2.73-2.45-4.08-.3-.48-.69-.88-1.24-.93-1.11.17-1.66.93-2.1,1.78-.51.2-1.04.31-1.44.6-.44.32-.74.81-1.11,1.23-.11.13-.25.24-.36.37-.43.48-.89.93-1.27,1.45-.93,1.29-1.79,2.61-2.86,3.79-.64.7-1.26,1.39-2.02,1.97-.4.31-.78.68-1.06,1.1-.71,1.07-1.36,2.18-2.05,3.26-.23.36-.53.67-.79,1.01-1.14,1.44-2.29,2.88-3.42,4.33-.18.23-.28.53-.44.78-.45.68-.91,1.35-1.38,2.01-.52.73-1.12,1.42-1.55,2.2-.89,1.6-1.69,3.25-2.87,4.68-.06.6-.21,1.22.66,1.56ZM196.23,216.74c.11-.45.24-.69.22-.93-.1-1.02-.21-2.05-.38-3.06-.23-1.35-1.22-2.32-1.86-3.47-.13-.24-.48-.35-.71-.53-.5-.4-1.02-.78-1.47-1.23-1.34-1.32-2.66-2.67-3.98-4.01-.09-.09-.21-.16-.27-.27-1.07-1.72-2.92-2.78-3.92-4.56-.18-.32-.55-.54-.83-.8-.87-.83-1.75-1.64-2.6-2.49-.54-.54-1.02-1.14-1.6-1.79-.67-.03-1.39-.06-2.21-.1-.49-.34-1.06-.72-1.71-1.16-1.19.99-2.05,2.27-2.97,3.24-.46,1.35-.87,2.52-1.25,3.7-.14.45-.23.92-.3,1.38-.07.44,0,.86.48,1.29.65.13,1.45.3,2.26.46.09.06.22.11.3.2.94.99,1.88,1.99,3.19,2.52.08.03.13.11.21.15,1.72,1.05,3.43,2.09,5.15,3.14.04.02.08.03.12.05.85.23,1.54.72,2.2,1.3.32.28.67.54,1.04.75.89.51,1.82.96,2.71,1.48,1.4.82,2.87,1.54,4.17,2.54.88.68,1.86,1.23,2.81,1.79.31.19.7.25,1.21.41ZM195.14,229.79c-.12-.57-.5-.66-.9-.64-.73.05-1.31-.25-1.91-.62-.65-.41-1.35-.77-2.08-1.01-2.36-.77-4.74-1.48-7.12-2.18-.36-.11-.77-.05-1.15-.09-.38-.04-.81.01-1.13-.15-1.09-.55-2.31-.63-3.45-.98-.45-.14-.91-.27-1.37-.34-.84-.14-1.7-.2-2.54-.35-1.86-.34-3.67-.84-5.36-1.71-.28-.15-.63-.17-1-.26-.11.27-.25.45-.26.65-.09,1.11-.17,2.22-.2,3.33-.02.68.08,1.36.13,2.05.05.68.07,1.37.19,2.04.12.66-.08,1.39.46,2.02.31.03.64.11.98.1,2.48-.08,4.96-.17,7.45-.28.43-.02.85-.16,1.27-.15,1.11.02,2.22.13,3.33.11,1.8-.02,3.59-.1,5.39-.16.21,0,.42-.08.63-.13,1.89-.44,3.79-.73,5.74-.6.6.04,1.2,0,1.8-.04.43-.03.86-.1,1.11-.61ZM207.61,218.02c.36-.78.07-1.49-.27-2.19-.7-1.42-1.44-2.83-2.07-4.28-.48-1.1-.93-2.22-1.23-3.38-.54-2.08-1.11-4.14-1.99-6.11-.12-.27-.24-.56-.28-.85-.14-1.08-.62-2.05-1.05-3.03-.57-1.3-1.15-2.59-1.76-3.86-.17-.37-.29-.83-.77-.94-.4.15-.36.48-.35.76.03.64.18,1.29.13,1.92-.09,1.18.08,2.31.33,3.44.17.76.22,1.51.1,2.3-.18,1.23-.19,2.48.05,3.72.08.42.1.85.11,1.28.05,1.69.29,3.33.91,4.91.15.4.26.81.4,1.26-.56,1.07-.75,2.2-.45,3.37.27,1.1.24,2.31,1.11,3.2,2.37-.5,4.66-.99,7.1-1.51ZM216.47,226.11c-.21-.36-.49-.83-.78-1.31-.95-1.59-2.44-2.22-4.19-2.32-.7-.04-1.35-.12-1.95-.53-.39-.27-.83-.47-1.38-.14-.31,1.06-1.16,1.58-2.21,1.84-.45.76-1,1.44-.92,2.11.49,1.04.87,1.85,1.27,2.69.7.18,2.63.19,3.48-.06,1.02-.31,2.11-.36,3.11-.81.45-.2,1.01-.17,1.52-.23.34-.04.69-.03,1.03-.09.56-.1.95-.38,1.02-1.16ZM202.27,223.14c-.55.05-.94.26-1.34.66-.29,1.68-1.03,3.4-.03,5.18.83.45,1.59.27,2.25-.11-.25-1.01-.54-1.89-.68-2.81-.15-.94.12-1.93-.2-2.93Z"/>
  <path class="cls-1" d="M156.99,286.14c.41.65.82,1.28,1.23,1.93.34-.12.58-.19.81-.29.32-.13.62-.32.95-.4,1.38-.32,2.76-.61,4.04-1.24.15-.07.34-.06.5-.09.58-.11,1.15-.23,1.75-.34,1.2-.16,2.43-.38,3.66-.46,1.45-.1,2.75-.57,3.91-1.2,2.12-.15,4.12-.35,6.06-.98.68-.22,1.43-.25,2.15-.36.25-.04.52-.02.77-.08,2.21-.58,4.51-.57,6.75-.91,1.31-.19,2.65-.19,3.97-.31.68-.06,1.35-.23,2.04-.28,1.37-.11,2.74-.17,4.11-.26.43-.03.87-.01,1.27-.15.79-.27,1.58-.31,2.4-.34.94-.03,1.88-.2,2.82-.26,1.54-.11,3.08-.14,4.61-.3,1.02-.11,2.02-.38,3.02-.61,1.96-.46,3.92-.94,5.87-1.42.33-.08.63-.28.95-.37,1.11-.32,2.23-.61,3.35-.91.37-.1.77-.12,1.13-.25,1.99-.7,4.1-.93,6.13-1.44.95-.24,1.94-.37,2.92-.49,2.64-.34,5.26-.84,7.93-.76,1.58.05,3.17-.3,4.74.07,1.04.24,2.09.47,3.11.78.44.13.81.46,1.24.72.38,1.35.62,2.65.24,4.05-.36,1.36-.55,2.77-.81,4.16-.26,1.39-.51,2.78-.76,4.17-.08.42-.16.84-.26,1.26-.13.54-.21,1.1-.42,1.61-.85,2.13-1.19,4.37-1.39,6.63-.07.82-.16,1.62-.53,2.37-.11.22-.2.48-.21.73-.02.89-.35,1.67-.74,2.4.05.89.1,1.75.15,2.68-.82,1.22-.96,2.66-.99,4.14-.01.63-.21,1.27-.3,1.9-.17,1.1-.34,2.2-.5,3.3-.04.3-.02.61-.11.89-.43,1.49-.46,3.04-.61,4.57-.04.41,0,.89.17,1.25.27.53.26,1.07.29,1.63.03.54-.16.99-.56,1.38-.33.33-.61.71-.75.88-.31,1.55-.57,2.84-.89,4.42.21.79-.05,1.83-.35,2.86-.36,1.24-.45,2.52-.54,3.79-.05.72-.11,1.45-.16,2.2-.23.7-.44,1.45-.72,2.17-.12.31-.3.65-.55.85-.68.52-1.38,1.01-2.13,1.42-.77.42-1.6.67-2.3.28-1.95.14-3.69.62-5.49.77-1.84.15-3.68.08-5.52.21-1.75.12-3.49.38-5.24.55-.55.05-1.1.02-1.66.01-1.54-.03-3.08-.05-4.62-.11-1.77-.07-3.49.4-5.24.54-.75.06-1.49.38-2.21.67-1.03.41-2.08.5-3.16.42-.51-.04-1.03-.05-1.54-.05-.65,0-1.27.13-1.87.41-1.03.48-2.09.58-3.25.49-2.22-.17-4.45-.29-6.68.08-.93.15-1.87.18-2.82.1-.89-.07-1.8.01-2.69.1-1.06.1-2.12.26-3.18.42-1.52.23-3.05.46-4.57.72-.79.14-1.57.34-2.33.64h-1.6c-.35.47-.7.95-1.04,1.42-1.05.54-1.71-.18-2.43-.64-.64-1.21-.86-2.47-1-3.75-.17-1.5-.23-1.71-.95-2.98.03-.36.07-.78.12-1.32-.76-.85-.94-1.93-1-3.13-.04-.88-.17-1.78-.27-2.67-.18-1.57-.28-3.16-.76-4.7-.31-1-.24-2.04-.24-3.07,0-.51,0-1.03,0-1.64-.17-.29-.38-.66-.45-.77-.35-1.57-.63-2.86-.95-4.29.07-.23.18-.59.24-.78-.24-1.05-.43-1.93-.63-2.8-.22-.95-.52-1.88-.58-2.88-.03-.46-.44-.9-.68-1.34-.17-.59.32-.97.48-1.65-.17-.92-.3-2.03-.61-3.1-.35-1.19-.55-2.42-1.05-3.57-.3-.68-.25-1.51-.35-2.28-.15-1.19-.23-2.39-.45-3.57-.15-.84-.43-1.66-.75-2.46-.4-1.02-.47-2.09-.64-3.14-.08-.46-.16-.94-.34-1.36-.39-.9-.85-1.78-1.3-2.65-.14-.27-.32-.51-.49-.76-.1-.14-.22-.26-.32-.4-.38-.56-.59-1.18-.29-1.82.32-.7.95-.94,1.89-.88ZM232.29,305.92l-.03-.05s.05.04.05.04c0,.09,0,.18,0,.27-.77.5-.39,1.34-.62,1.99-.21.56-.43,1.11-.56,1.69-.3,1.29-.59,2.59-.83,3.89-.09.48-.23,1.01.21,1.58.58-.3,1.33.12,2-.61.02-1.03.05-2.18.07-3.33.01-.68-.04-1.37.02-2.05.09-1.08,0-2.14-.29-3.18.02-.03.06-.05.05-.08,0-.06-.03-.11-.05-.17ZM248.69,277.47c-.4-.54-.93-.79-1.47-.84-1.24-.11-2.48-.13-3.72-.17-.64-.02-1.28-.04-1.92-.05-.98-.01-1.99-.15-2.94.02-.93.17-1.85.33-2.8.34-.34,0-.69.03-1.02.11-2.38.59-4.79,1-7.21,1.31-1.91.25-3.74.87-5.68,1.01-.58.04-1.2.26-1.69.57-.94.59-1.97.81-3.03,1.01-1.09.2-2.19.39-3.27.68-1.75.47-3.56.51-5.32.87-.46.09-.94.09-1.41.12-1.58.1-3.16.19-4.74.29-.17.01-.35.04-.5.12-.92.49-1.9.44-2.89.41-.38-.01-.77.01-1.15.05-2.17.22-4.35.5-6.52.67-1.58.12-3.17.02-4.69.62-.47.19-1.05.1-1.5.32-.65.31-1.31.4-2,.37-1.09-.05-2.13.14-3.15.51-1.05.38-2.13.67-3.27.58-.08,0-.17.03-.28.05-.26.18-.53.37-.87.61-1.08-.27-2.08.09-3.08.5-.43.18-.91.26-1.37.35-1.09.23-2.18.42-3.21.91-.37.17-.82.19-1.25.23-1.62.13-3.25.08-4.86.4-.94.19-1.84.42-2.37,1.4.09.4.2.81.29,1.23.41,1.92,1.26,3.75,1.31,5.75,0,.16.07.34.16.48.33.53.47,1.09.48,1.71,0,.22.18.43.28.65.2-.05.33-.06.45-.11,1.57-.68,3.13-1.38,4.71-2.03.63-.26,1.3-.46,1.98-.56,1.75-.25,3.45-.64,4.93-1.51.47,0,.87.06,1.23-.01,1.01-.2,2.04-.36,2.99-.73,2-.79,4.15-1.03,6.18-1.71.8-.27,1.68-.33,2.52-.49.38-.07.79-.07,1.13-.22.91-.42,1.89-.55,2.84-.78,1.54-.36,3.09-.71,4.65-.96,1.99-.32,4-.48,5.9-1.24.31-.12.67-.14,1.01-.19,1.95-.27,3.91-.52,5.85-.81,2.2-.33,4.37-.88,6.62-.92.3,0,.59-.11.89-.15,1.91-.25,3.76-.92,5.71-.86.17,0,.34-.06.51-.09,2.31-.46,4.65-.79,7-1,2.43-.21,4.85-.56,7.28-.76,1.09-.09,2.2-.46,3.28.02.99-.38,1.97-.69,3.09-.33v.91c-.49.48-.99.47-1.52.39-.85-.14-1.7-.27-2.52.18-.14.07-.34.03-.5.05-.46.07-.92.14-1.38.21-.46.07-.92.15-1.39.2-.34.04-.69.02-1.02.08-1.27.23-2.55.3-3.84.21-.46-.03-.97-.01-1.39.15-1.55.6-3.21.51-4.8.84-.5.1-1.01.15-1.48.37-.43.2-.87.36-1.21.49-.58,0-1.05-.04-1.51,0-1.11.11-2.21.25-3.31.4-.5.07-1,.18-1.5.28-.75.15-1.51.44-2.26.44-1.61,0-3.15.27-4.71.62-2.67.61-5.44.7-8.09,1.44-.41.11-.85.12-1.27.21-1.84.39-3.69.78-5.53,1.18-2.14.46-4.29.87-6.41,1.39-1.58.38-3.11.93-4.68,1.35-1.15.31-2.33.53-3.49.84-.66.17-1.29.46-1.95.64-2.02.54-4.09.89-6,1.8-.15.07-.34.06-.5.1-.71.15-1.43.3-2.22.46-.25-.03-.59-.08-1-.13-.6.44-1.22.89-1.53,1.12-1.2.75-2.35.36-3.19.97-.19,1.48-.18,1.56.25,2.71.15.4.34.8.41,1.22.3,1.69.95,3.3,1.11,5.01.01.11.12.22.2.36,1.04.4,2,.08,2.94-.37.4.04.78.07,1.17.11.57-.38,1.21-.42,1.86-.39.38.01.78.02,1.15-.08,1.54-.41,3.12-.55,4.7-.71,1.15-.12,2.32-.2,3.21-.95.21-.02.35-.06.46-.03,1.15.36,2.28.21,3.42-.06.62-.15,1.28-.15,1.91-.24.55-.07,1.13-.09,1.65-.27,1.18-.41,2.37-.74,3.65-.54.2-.3.44-.52.52-.79.23-.82.41-1.66.57-2.5.22-1.14.42-2.28.61-3.42.08-.5.3-.91.79-1.09.52-.2,1.06-.38,1.66,0,.2.36.38.81.66,1.18.81,1.1,1.06,2.33.93,3.65-.05.49.03.92.25,1.3.16.05.24.09.32.09,2.49-.08,4.88-.83,7.36-.99.13,0,.25-.08.37-.1,1-.21,2.01-.42,3.02-.61.55-.1,1.13-.09,1.65-.27.94-.33,1.87-.57,2.88-.54.2,0,.43-.08.61-.18.79-.41,1.64-.48,2.5-.52.76-.04,1.53-.13,2.34-.19.2-.49.45-.91.54-1.35.24-1.13.48-2.27.58-3.42.07-.87.22-1.69.49-2.46,1.13-.82,1.83-.67,2.38.47.15.31.26.65.3.98.1.94.15,1.88.22,2.82.04.51-.07,1.04.25,1.48.77.34.88.45,1.48.29,1.45-.39,2.93-.53,4.41-.72.67-.09,1.3-.41,1.93-.61.45-.66.45-.66.45-1.18,0-.38-.02-.78.07-1.15.18-.78.43-1.55.71-2.56.21-.33.69-.5,1.39-.31.61.57.97,1.31,1.02,2.21.05.91.33,1.76.8,2.64.32.03.65.1.98.08,1.62-.13,3.24-.28,4.86-.42.3-.02.6-.02.9.02.3.05.58.18.6.63-.5.63-1.24.93-1.95,1.15-.45-.07-.83-.18-1.21-.18-.38,0-.76.12-1.14.17-.38.04-.77.05-1.15.09-.42.04-.84.09-1.27.14-.15.28-.35.49-.38.72-.12,1.19-.3,2.39-.26,3.59.06,1.88.07,3.75-.05,5.63-.04.6-.01,1.2.06,1.8.04.32.23.61.37.98h2.55c.15.35.27.65.39.95-.84.96-2.1.58-3.08,1.22-.5,1.52-.28,3.03.35,4.5.16.09.27.18.39.2.76.12,1.52.28,2.29.33,1.18.07,2.3-.16,3.21-.97.21-.74.47-1.43.6-2.15.35-1.94.66-3.89.95-5.83.32-2.16.45-4.35.92-6.49.34-1.55.52-3.13.74-4.7.17-1.19.51-2.32.9-3.47.39-1.15.27-2.46.54-3.67.4-1.8.86-3.59,1.08-5.42.14-1.19.55-2.32.64-3.53.07-.93.24-1.86.26-2.81,0-.42.11-.85.2-1.26.22-.96.48-1.91.67-2.88.08-.41.01-.84.01-1.22ZM174.57,333.4c-.46-.57-.87-.61-1.32-.58-.81.06-1.63.07-2.44.15-1.05.1-2.12.18-3.17.68,0,.32-.04.62,0,.9.36,2.2.71,4.39,1.11,6.58.13.71.33,1.42.61,2.08.21.48.36.94.37,1.47.03.85.42,1.54,1.05,2.21.37-.15.72-.3,1.07-.42.4-.14.8-.32,1.22-.38,1.78-.26,3.57-.5,5.35-.72.98-.12,1.96-.24,2.94-.3,1.54-.1,3.08-.14,4.63-.22.43-.02.85-.11,1.28-.16.68-.08,1.36-.21,2.04-.22,1.72,0,3.43.06,5.15.06.68,0,1.37-.07,2.05-.18,1.78-.28,3.54-.65,5.35-.68.94-.01,1.87-.2,2.8-.35,1.82-.3,3.63-.67,5.45-.95.93-.14,1.88-.21,2.82-.22,2.1-.02,4.2.04,6.3,0,1.16-.02,2.33-.06,3.46-.26,1.91-.34,3.83-.45,5.77-.44.47,0,.94-.05,1.41-.08.59-.05,1.19-.2,1.78-.15,1.72.13,3.32-.27,4.9-.87.5-.19.88-.52,1.13-1,.18-.34.36-.69.56-1.01.34-.56.5-1.15.52-1.83.01-.77.16-1.53.25-2.3.08-.68.21-1.35.25-2.03.04-.78.17-1.53.5-2.24.12-.27.19-.57.29-.85.48-1.35.37-2.78.6-4.2-.75-.31-1.49-.48-2.27-.43-.98.06-1.96.1-2.94.15-1.44.09-1.92-.21-2.59-1.62.05-.34.1-.72.15-1.1-.03,0-.06,0-.1,0-.16-1.48-.31-2.96-.47-4.47-.48-.16-.87-.28-1.13-.37-1.13.21-1.53.99-1.98,1.67-.16,1.1.06,2.22-.55,3.14.02.27.02.48.05.69.12.74-.24,1.45-.19,2.15.11,1.64-.17,3.24-.35,4.85-.03.3-.11.61-.06.9.19,1.12-.04,2.21-.07,3.32-.03,1.51-.62,2.82-1.36,4.06-.82.45-1.52.23-2.28-.28-.22-1.29-.37-2.66-.71-3.97-.36-1.36-.91-2.67-1.37-3.98-.17-1.15-.33-2.29-.51-3.43-.1-.64-.13-1.29-.32-1.9-.27-.87-.34-1.76-.44-2.66-.13-1.09-.15-2.22-.69-3.25-.24-.03-.45-.08-.66-.07-.21,0-.41.08-.6.12-.49.49-.53,1.09-.6,1.69-.19,1.7-.16,3.4-.58,5.09-.35,1.42-.88,2.77-1.24,4.17-.11.43-.4.77-.82.94-.69.28-1.44.49-2.12.16-.84-.41-1.67-.34-2.51-.18-2.4.44-4.78,1-7.23,1.19-.51.04-1.01.17-1.49.25-1.73,2.08-2.68,4.63-4.45,6.58-.96-.07-1.63-.44-2.11-1.22,0-.55.08-1.12-.02-1.66-.22-1.26-.55-2.51-.8-3.77-.21-1.05-.43-2.1-.52-3.16-.12-1.54-.12-3.08-.18-4.62,0-.13-.03-.25-.05-.47-.21-.22-.46-.49-.57-.61-1.17.15-2.14.27-3.3.42-.21.14-.61.39-.96.61-.45.86-.7,1.69-.7,2.63,0,.88.06,1.81-.41,2.64-.06.11-.05.25-.08.38-.18,1.01-.36,2.01-.58,3.27.34,1.78.19,5.6-.56,8.5-.47.82-.87,1.52-1.27,2.24-.83.25-1.52,0-2.29-.54-.29-1.17-.6-2.41-.89-3.66-.12-.5-.18-1.01-.25-1.52-.25-1.82-1.06-3.53-1.02-5.42.02-.9-.02-1.8-.09-2.7-.06-.85-.18-1.7-.32-2.55-.05-.27-.24-.52-.4-.83-.25.08-.44.14-.72.23-.11.68-.27,1.35-.33,2.02-.08.94-.13,1.87-.42,2.78-.23.73-.25,1.52-.38,2.28-.23,1.35-.41,2.71-1.04,4.01-.42.17-.85.34-1.19.48q-1.27-.39-1.95-1.06c-.08-1.19-.17-2.46-.25-3.64ZM216.32,317.1c.08-.52.15-.94.21-1.36.2-1.57.47-3.14.55-4.72.07-1.37.08-2.74.44-4.08.17-.62.19-1.26-.09-1.85-.63-.29-1.23-.2-1.82-.09-1.43.27-2.86.52-4.29.8-2.18.44-4.37.86-6.54,1.36-1.25.29-2.5.51-3.78.69-1.42.2-2.81.69-4.26.87-.04,0-.07.04-.23.14-.14.42-.31.94-.47,1.42.29,1.16.18,2.27.08,3.39-.06.68-.13,1.38-.07,2.05.13,1.36.34,2.72.52,4.1.26.17.5.33.75.49.43-.17.82-.33.98-.4.88,0,1.52.06,2.15-.02.63-.08,1.25-.29,1.88-.43.59-.14,1.16-.31,1.64-.71.06-.05.16-.04.28-.07.33.13.68.26,1.05.41.38-.09.77-.14,1.13-.26,1.07-.35,2.16-.52,3.29-.55.77-.02,1.53-.17,2.29-.28.55-.08,1.1-.15,1.64-.29.86-.21,1.8-.09,2.66-.61ZM164.91,314.27c-.12.92.28,5.63.49,6.27.01.04.03.08.04.12.22.91.44,1.83.67,2.74.23.9.47,1.8.72,2.79.98.04,1.88-.26,2.79-.39.89-.13,1.78-.26,2.66-.44.92-.19,1.84-.4,2.75-.66.89-.25,1.88-.19,2.77-.82.11-1.28.06-2.63.36-3.89.31-1.29.11-2.55.19-3.82.08-1.31.52-2.61.2-4-.26.03-.47.02-.66.07-.25.06-.48.17-.74.26-.86-.25-1.69,0-2.54.11-1.44.18-2.9.2-4.31.61-.2.06-.42.02-.64.04-.3.03-.62,0-.88.12-.68.33-1.39.39-2.11.48-.59.07-1.16.25-1.78.39ZM215.83,318.96c-.28.03-.52.04-.76.09-.8.17-1.58.42-2.39.5-1.45.16-2.9.22-4.35.33-.17.01-.34.05-.51.09-.8.15-1.6.3-2.4.44-.76.14-1.58.13-2.25.44-1.17.53-2.36.71-3.62.67-.73-.02-1.45.1-2.13.41-.5.24-.84.61-.93,1.15-.24,1.41-.17,2.83.19,4.2.16.63.27,1.24.29,1.89.02.95.22,1.88.66,2.72.11.2.32.34.53.56.63-.62.73-1.42,1.09-2.08.37-.67.83-1.29,1.29-1.99,1.97.01,3.91-.53,5.72.03,1.46-.41,2.77-.78,4.17-1.18,1.27.55,2.5.15,3.67-.46.45-.64.87-1.24,1.34-1.9.18-1.75.38-3.58.55-5.41.01-.15-.1-.31-.18-.52ZM227.95,315.72c.1-.57.14-.95.22-1.33.11-.5.24-.99.35-1.49.47-2.04.69-4.14,1.36-6.14.26-.77.37-1.59.5-2.39.09-.59.15-1.2-.39-1.71-2.54.42-5.15.44-7.69,1.31,0,.68-.11,1.3.02,1.85.25,1.02.2,2.04.23,3.06.01.47,0,.95.09,1.41.13.61.1,1.22-.1,1.78-.43,1.2-.19,2.36.08,3.58.35.22.7.45,1.07.69.92-.55,1.85-.47,2.75-.23.53-.14,1.02-.27,1.51-.39ZM189.68,309.93c-.17,0-.3-.03-.42,0-1.12.31-2.23.61-3.39.72-.72.07-1.44.24-2.13.44-.64.18-1.38.27-1.62,1.14.09.38.27.8.27,1.21,0,1.44.39,2.79.73,4.21-.39.95-.26,1.91.12,2.79-.09.85-.47,1.67.28,2.39.58-.14,1.15-.35,1.73-.39.89-.05,1.67-.33,2.51-.84.08-.3.17-.67.26-1.04.16-.62.32-1.25.47-1.87.49-1.99.99-3.99,1.47-5.99.11-.46.21-.92.28-1.38.08-.57.06-1.13-.56-1.39ZM223.14,318.23c-.06.41-.13.7-.15,1-.09,1.43.24,2.8.63,4.16.12.41.32.81.36,1.23.13,1.31.2,2.62.31,4.15.59.33.16,1.66,1.34,1.87.55-.49.62-1.11.68-1.76.13-1.53.34-3.06.46-4.59.14-1.79.31-3.57.73-5.32.19-.81-.25-1.39-1.07-1.4-1.1-.02-2.2.12-3.29.67ZM190,321.52c.43,0,.66.06.83-.01.72-.31,1.45-.48,2.24-.49.45,0,.81-.25,1.05-.73.13-.96.34-1.95.07-2.99-.15-.56-.13-1.21,0-1.79.36-1.68.01-3.32-.1-4.98-.02-.33-.16-.66-.27-.98-.02-.07-.13-.1-.26-.21-.21.09-.47.2-.62.26-.24.73-.43,1.33-.64,1.93-.59,1.7-1.25,3.4-1.35,5.21-.07,1.22-.37,2.35-.71,3.49-.11.36-.13.74-.23,1.29ZM183.67,324.88c-.41.5-.31.98-.33,1.45-.07,1.7.43,3.4.06,5.11-.02.08.02.17.02.25.11,1.33.6,2.56.97,3.82.02.07.12.11.23.19.13-.02.29-.04.56-.07.24-.99.5-1.97.71-2.96.14-.63.12-1.29.32-1.89.58-1.8.72-3.68,1.14-5.51.08-.35,0-.74,0-1.09-.22-.08-.36-.18-.46-.15-1.07.27-2.14.57-3.22.86ZM177.28,326.4c-.84-.2-1.48.08-2.14.25-.5.13-.99.31-1.49.37-1.23.15-2.47.24-3.67.35-.4.24-.77.46-1.07.64-.55.08-1.01.15-1.49.22-.2.51-.39.97-.57,1.41.19.48.2.99.72,1.29.29-.13.59-.27.83-.38.41,0,.76.06,1.09-.01,1.09-.25,2.2-.31,3.31-.46,1.22-.16,2.43-.44,3.77-.27.27-.97.53-1.9.77-2.83.04-.15-.02-.33-.05-.56ZM220.55,316.72c.14-1.16.18-2.22.03-3.28-.07-.51-.23-1.03-.17-1.52.23-1.96-.28-3.85-.5-6.06-.23.78-.36,1.3-.54,1.8-.16.46-.23.9-.09,1.38.06.2.11.42.09.63-.07,1.02-.09,2.06-.28,3.06-.22,1.15-.17,2.3-.18,3.45,0,.23.12.47.22.79.5-.09.95-.17,1.42-.25ZM180.58,320.36c-.36.57-.45,1.08-.12,1.68q.65-.53.12-1.68ZM180.74,322.42c-.28.32-.44.5-.72.81.4.06.61.08.94.13-.08-.34-.13-.55-.23-.94Z"/>
  <path class="cls-1" d="M244.09,232.9c.72.03,1.45.05,2.17.1,1.02.07,2.06.06,3.05.29,1.36.31,2.61,1.01,3.45,2.09.64.82,1.02,1.89,1.3,2.91.25.93.43,1.9.47,2.9.06,1.33-.29,2.54-.66,3.77-.23.76-.67,1.38-1.3,1.87-.1.08-.2.16-.3.25-1.52,1.38-3.29,1.86-5.33,1.69-1.48-.12-2.97-.07-4.47.21-1.45.28-2.97.08-4.46-.18-1.01-.18-1.88-.55-2.64-1.22-.74-.66-1.24-1.5-1.76-2.36,0-.56-.01-1.12,0-1.68.02-.91.18-1.78.6-2.61.17-.34.31-.71.39-1.08.41-1.79,1.56-3.03,3.04-3.98.86-.55,1.83-.91,2.75-1.37.42-.21.84-.43,1.22-.69.72-.49,1.45-.92,2.46-.92ZM240.4,236.2c-.65.6-1.28,1.24-1.98,1.79-.9.71-1.33,1.77-2.03,2.63-.12.15-.16.4-.19.61-.15,1.25-.04,2.49.42,3.66.16.42.51.79.84,1.1.31.28.72.45,1.18.72,1.18-.12,2.41-.19,3.63-.39.93-.15,1.84-.42,2.28-1.44.11-.25.42-.42.62-.64,1.22-1.34,2-2.79,1.29-4.66-.09-.24-.14-.49-.22-.79-1.69-1.25-3.61-2.05-5.86-2.59ZM249.49,241.69c-.33.83-.64,1.76-1.06,2.65-.43.91-1.12,1.67-1.91,2.46.32.12.51.26.7.26,1.99.04,4.41-1.67,4.5-4.08.04-1.11.05-2.21-.07-3.32-.15-1.35-.6-2.48-1.89-3.29-.61-.03-1.33-.07-2.12-.11,0,.57.23.95.47,1.35.3.51.6,1.04.78,1.6.25.77.39,1.57.6,2.48Z"/>
  <path class="cls-1" d="M163.13,256.17c-.87.58-1.65,1.11-2.43,1.64-.47.32-.98.53-1.57.46-.25-.03-.51,0-.83,0-.21.34-.41.66-.6.99-.66,1.17-1.59,2.01-2.91,2.35-.7.18-1.39.37-2.13.4-1.53.07-2.71-.65-3.87-1.48-.14-.1-.28-.22-.37-.35-1.35-1.9-2.5-3.85-2.47-6.34.02-1.8.28-3.48,1.04-5.1.36-.77.88-1.34,1.63-1.76.76-.42,1.38-1.02,1.79-1.8.64-1.24,1.77-1.53,3.03-1.5,1.47.03,2.89.33,4.21,1.01.38.2.78.36,1.19.49.84.27,1.58.65,2.15,1.35.08.1.18.18.29.25,1.35.89,2.13,2.19,2.71,3.64.14.36.32.7.5,1.08-.41,1.55-.57,3.17-1.35,4.66ZM152.17,246.68c-1.09.61-1.86,1.52-2.53,2.52-.14.21-.24.46-.29.71-.23,1.13-.57,2.26-.63,3.4-.07,1.32.19,2.65.96,3.78.36.53.78,1.02,1.23,1.48.75.76,1.73.93,2.73.86.78-.06,1.33-.61,1.65-1.29.53-1.12.98-2.27,1.46-3.41.05-.11.06-.25.06-.38.03-.73.16-1.46.07-2.18-.18-1.51-.79-2.88-1.74-4.08-.08-.1-.18-.18-.29-.25-.81-.47-1.6-1-2.69-1.17ZM159.28,255.91c.66.04.91-.32,1.15-.67.52-.75.93-1.55.97-2.47.07-1.57-.73-2.96-2.05-3.52.1,1.15.28,2.24.26,3.33-.01,1.09-.21,2.18-.34,3.33Z"/>
  <path class="cls-1" d="M208.13,250.48c-1.27,1.33-2.68,2.25-4.39,2.7-.25.06-.49.16-.71.29-1.1.65-2.22,1.28-3.28,2-.72.49-1.41.59-2.28.53-1.87-.12-3.26-1.23-4.78-2.06-.34-.19-.64-.61-.78-.99-.39-1.04-.71-2.11-1-3.18-.17-.6.04-1.19.25-1.76.3-.82.31-1.64.3-2.51-.02-1.83.45-3.61,1.9-4.84.65-.55,1.59-.81,2.43-1.09.69-.23,1.38-.4,2.03-.76,1.47-.81,2.93-.37,4.31.28.8.39,1.54.93,2.26,1.47.33.25.57.63.81.98.71,1.02,1.35,2.08,2.1,3.07.79,1.03,1.08,2.22,1.27,3.45.04.28-.04.59-.1.88-.1.5-.22,1-.33,1.54ZM196.1,243.35c-.68.51-1.3.96-1.82,1.34-.2.72-.28,1.33-.53,1.87-.39.86-.41,1.75-.36,2.65.12,2.16,1.43,3.65,3.62,4.04.65-.27,1.45-.58,2.21-.95.29-.14.6-.39.75-.66.54-1.05.85-2.17.55-3.35-.2-.8-.3-1.58-.18-2.41.12-.81-.26-1.43-.98-1.8-1-.52-2.06-.85-3.27-.73ZM199.19,242.22c.47.12.84.22,1.2.32.94.25,1.61.76,1.84,1.76.12.54.32,1.07.47,1.6.34,1.21.56,2.42.15,3.66-.19.57-.09,1.09.29,1.66.27-.04.59,0,.82-.14.87-.51,1.44-1.31,1.98-2.09-.05-.52-.12-.99-.15-1.46-.04-.67-.31-1.25-.67-1.78-1.07-1.58-2.45-2.84-3.93-4.02-.49-.39-1.06-.55-1.68-.45-.11.02-.22.12-.37.21.01.2.03.4.06.74Z"/>
  <path class="cls-1" d="M178.51,256.67c-.61.31-1.21.63-1.82.93-.76.38-1.54.47-2.37.27-.37-.09-.76-.11-1.14-.16-1.39-.15-2.56-.65-3.32-1.9-.2-.33-.45-.62-.79-1.08-.24-1.04-.59-2.24-.77-3.46-.22-1.58-.02-3.12.58-4.64.52-1.33,1.41-2.32,2.38-3.3.82-.82,1.8-1.28,2.97-1.35.55-.03,1.1-.15,1.64-.26.59-.12,1.17-.28,1.74-.42,1.56.39,3.06.88,4.45,1.67.68.39,1.28.86,1.67,1.56.17.3.35.59.54.88,1.21,1.79,1.16,3.73.63,5.68-.29,1.07-.69,2.11-1.12,3.12-.31.74-.91,1.24-1.7,1.45-1.16.31-2.32.59-3.48.89-.03.04-.06.08-.08.12ZM170.77,247.41c-.17,2.39-.04,4.93.91,7.33,1.14.77,2.29,1.09,3.37.86.69-.63,1.27-1.06,1.74-1.61.5-.58,1.01-1.21,1.28-1.9.64-1.61.87-3.31.55-5.11-.23-.29-.45-.67-.77-.95-.31-.27-.7-.58-1.08-.63-.71-.09-1.29-.41-1.89-.76-.37-.21-.77-.37-1.09-.52-1.11.38-1.52.72-2.01,1.6-.29.51-.6,1.02-1,1.7ZM180.28,253.48c.09.05.18.1.27.15.61-.69,1.25-1.37,1.47-2.32.28-1.21.52-2.44.18-3.68-.04-.16-.26-.28-.37-.4-.6.28-.52.77-.48,1.16.13,1.5-.32,2.88-.84,4.25-.1.27-.15.55-.23.83Z"/>
  <path class="cls-1" d="M218.2,253.7c-.91-.25-1.53-.42-2.14-.59-.25-.07-.54-.08-.73-.23-1.59-1.23-3.04-2.56-2.93-4.82.03-.64.04-1.29.13-1.92.31-2.03,1.49-3.51,3.08-4.71.55-.41,1.07-.87,1.65-1.22.54-.33,1.14-.57,1.74-.79.88-.32,1.79-.57,2.86-.91.36.08.9.2,1.45.31.56.11,1.07.32,1.49.7.09.09.18.21.29.25,1.93.68,2.98,2.35,4.28,3.66.2,1,.37,1.92.56,2.84.14.64,0,1.19-.42,1.68-.36.42-.76.82-1.13,1.23-.34.38-.71.75-1.01,1.15-.49.65-1.12,1.08-1.89,1.24-1.36.28-2.62.8-3.85,1.4-1.15.56-2.37.7-3.42.73ZM222.86,243.14c-.16-.14-.32-.29-.48-.43-1.4-1.08-1.69-1.14-3.43-.74-1.18.27-2.09.94-2.8,1.91-.35.48-.7.96-1.1,1.51-.68,1.9.11,3.58.97,5.24.43.08.78.1,1.1.2,1.76.54,3.19-.03,4.41-1.3.6-.62,1.19-1.26,1.41-2.11.36-1.38.52-2.78-.08-4.28ZM226.13,244.11c-.04.49-.1.74-.06.97.17.96.12,1.86-.53,2.66-.09.11-.01.37-.01.65,1.12-.31,1.16-1.26,1.55-1.97-.26-.72.1-1.64-.94-2.31Z"/>
  <path class="cls-2" d="M227.95,315.72c-.48.13-.97.26-1.51.39-.9-.23-1.83-.32-2.75.23-.37-.24-.72-.47-1.07-.69-.28-1.22-.51-2.38-.08-3.58.2-.56.23-1.17.1-1.78-.09-.46-.08-.94-.09-1.41-.03-1.02.02-2.04-.23-3.06-.13-.56-.02-1.18-.02-1.85,2.54-.86,5.16-.89,7.69-1.31.54.51.49,1.12.39,1.71-.13.8-.24,1.62-.5,2.39-.68,2-.89,4.1-1.36,6.14-.12.5-.25.99-.35,1.49-.08.37-.13.75-.22,1.33Z"/>
  <path class="cls-2" d="M189.68,309.93c.62.26.64.81.56,1.39-.07.47-.17.93-.28,1.38-.49,2-.98,3.99-1.47,5.99-.15.62-.31,1.25-.47,1.87-.09.37-.19.74-.26,1.04-.83.51-1.62.79-2.51.84-.58.03-1.15.25-1.73.39-.75-.72-.38-1.54-.28-2.39-.38-.88-.51-1.84-.12-2.79-.34-1.41-.74-2.77-.73-4.21,0-.41-.18-.83-.27-1.21.23-.87.97-.96,1.62-1.14.7-.19,1.41-.37,2.13-.44,1.16-.11,2.28-.41,3.39-.72.12-.03.25,0,.42,0Z"/>
  <path class="cls-2" d="M223.14,318.23c1.09-.55,2.19-.69,3.29-.67.83.02,1.27.59,1.07,1.4-.42,1.75-.59,3.53-.73,5.32-.12,1.53-.33,3.06-.46,4.59-.06.65-.12,1.27-.68,1.76-1.19-.22-.75-1.55-1.34-1.87-.11-1.52-.18-2.84-.31-4.15-.04-.42-.24-.82-.36-1.23-.39-1.36-.72-2.73-.63-4.16.02-.29.08-.58.15-1Z"/>
  <path class="cls-2" d="M190,321.52c.09-.56.12-.94.23-1.29.34-1.14.65-2.27.71-3.49.1-1.8.76-3.51,1.35-5.21.21-.6.4-1.2.64-1.93.15-.06.41-.17.62-.26.14.1.24.14.26.21.1.32.24.65.27.98.11,1.66.47,3.3.1,4.98-.12.57-.14,1.23,0,1.79.27,1.05.06,2.04-.07,2.99-.24.47-.6.72-1.05.73-.78.01-1.52.18-2.24.49-.17.07-.4.01-.83.01Z"/>
  <path class="cls-2" d="M232.29,306.17c.29,1.04.38,2.1.29,3.18-.06.68,0,1.37-.02,2.05-.02,1.15-.05,2.3-.07,3.33-.67.73-1.42.31-2,.61-.44-.57-.3-1.1-.21-1.58.24-1.3.53-2.6.83-3.89.13-.58.35-1.13.56-1.69.23-.66-.15-1.49.62-1.99h-.02Z"/>
  <path class="cls-2" d="M220.55,316.72c-.47.08-.91.16-1.42.25-.09-.33-.22-.56-.22-.79,0-1.15-.04-2.3.18-3.45.19-1,.2-2.04.28-3.06.01-.21-.03-.43-.09-.63-.15-.48-.08-.92.09-1.38.18-.5.31-1.02.54-1.8.23,2.21.73,4.1.5,6.06-.06.49.1,1.02.17,1.52.15,1.06.11,2.12-.03,3.28Z"/>
  <path class="cls-2" d="M180.74,322.42c.09.4.14.6.23.94-.33-.05-.54-.07-.94-.13.28-.32.44-.49.72-.81Z"/>
  <path class="cls-2" d="M232.31,306.18c0-.09,0-.18,0-.27,0,0-.01.01-.01.01.02.06.05.11.05.17,0,.02-.03.05-.05.08h.02Z"/>
  <polygon class="cls-2" points="232.31 305.91 232.26 305.87 232.29 305.92 232.31 305.91"/>
</svg>