<?xml version="1.0" encoding="UTF-8"?>
<svg id="Livello_1" data-name="Livello 1" xmlns="http://www.w3.org/2000/svg" viewBox="0 0 274.41 274.41">
  <defs>
    <style>
      .cls-1 {
        fill: #000;
      }

      .cls-1, .cls-2 {
        stroke-width: 0px;
      }

      .cls-2 {
        fill: #fff;
      }
    </style>
  </defs>
  <path class="cls-1" d="M62.06,114.54c.2-.46.4-.9.63-1.44-.04-.1-.13-.3-.24-.55.25-.55.55-1.13.79-1.73.17-.42.45-.82.25-1.33-.06-.15.08-.44.22-.57.55-.54.81-1.21,1.02-1.92.05-.18.11-.37.21-.53.37-.61.35-1.24.12-1.97.28-.24.58-.51.97-.84,0-.23.01-.54.03-.86,0-.13.02-.28.09-.39.32-.56.66-1.12,1.02-1.73-.29-.48-.08-.95.17-1.41.59-1.1,1.18-2.2,1.78-3.3.1-.19.25-.35.38-.53.13-.18.28-.34.38-.53.24-.47.47-.91.96-1.19.23-.13.34-.48.49-.74.38-.66.59-1.43,1.21-1.91.23-1.02.74-1.85,1.43-2.57.27-.28.54-.55.5-.98.63-.27.92-.77,1.15-1.35.16-.4.42-.76.64-1.13.23-.39.69-.61.8-1.1.02-.11.19-.23.3-.26.45-.09.66-.43.92-.76.29-.35.67-.63,1.03-.97-.01-.1-.03-.23-.05-.48.29-.27.64-.57.97-.9.57-.56,1.15-1.1,1.53-1.81.13-.23.35-.42.56-.6.46-.38.96-.72,1.41-1.12.26-.23.49-.52.68-.81.32-.49.68-.93,1.29-1.1.17-.54.5-.86,1.09-.94.21-.03.4-.25.57-.41.16-.15.3-.32.45-.49.19-.03.38-.07.57-.1-.01-.02-.02-.05-.03-.07.38-.19.77-.38,1.15-.58.31-.16.63-.27.87-.59.19-.25.5-.43.8-.55.58-.24,1.15-.49,1.71-.77.83-.41,1.69-.74,2.64-1.15.05.01.21.05.39.09.05-.02.13-.03.19-.08,1.04-.88,2.34-1.23,3.58-1.72.32-.13.61-.36,1.02-.61.53-.03,1.1-.31,1.69-.61.82-.4,1.63-.91,2.61-.92.43,0,.86-.14,1.15-.19.94-.5,1.77-.94,2.6-1.38,0,.03.01.05.02.08.25-.04.52-.05.76-.13.55-.17,1.08-.39,1.63-.56.33-.1.69-.15,1.04-.2.59-.09,1.18-.17,1.77-.25.4-.05.83-.18,1.21-.11.42.08.73-.1,1.09-.18.35-.07.71-.05,1.04-.14.78-.33,1.55-.66,2.33-.99.12-.05.27-.08.4-.07.68.04,1.25-.34,1.88-.5.18-.05.32-.2.48-.3.92.21,1.77.08,2.54-.54.28.11.56.22.83.33.95-.22,1.99-.08,2.77-.77.29.16.52.29.77.42.42-.43.86-.73,1.57-.58.44.37.98.41,1.58.07.18-.1.42-.1.64-.11.47-.01.93,0,1.53,0,.08-.14.2-.35.29-.51.17.04.23.03.27.06.23.18.45.38.68.56.06.05.15.07.22.12.37.28.7.62,1.1.85.37.22.8.34,1.25.52.11-.03.26-.08.48-.14.25.14.53.31.86.51.27,0,.6-.01.93,0,.19,0,.4.01.56.1.37.21.74.29,1.15.11.13.39.24.72.35,1.06.68.17,1.3.48,2,.38.03,0,.06,0,.08,0,1.16.46,2.44.22,3.6.65.66.25,1.33.51,1.7,1.24.63.15.97.7,1.34,1.21.22.01.4.02.59.03.2-.16.39-.3.61-.48.23.21.45.41.69.62.74-.02,1.44.17,2.07.6.11.08.24.13.37.18q.76.31,1.18.86c.1,0,.24.02.37.03.14,0,.27,0,.36,0,.52.22.95.54,1.51.53.19,0,.38.2.57.3.61.32,1.21.63,1.93,1,.15.19.39.48.6.73.46.11.86.2,1.36.31.39.52.83,1.1,1.27,1.68.28.03.52.06.66.08.6.34,1.12.64,1.75,1,.05.06.15.26.3.41.13.13.34.31.48.28.6-.13.87.32,1.24.62.72.58,1.46,1.14,2.25,1.64.11.19.22.37.35.59.52.33,1.06.32,1.62.04.46-.24.95-.41,1.21-.94.14-.29.47-.33.79-.24.51-.68,1.13-1.24,1.9-1.63.25-.13.43-.41.68-.55.65-.37,1.32-.66,2.1-.58.13.01.27-.01.44-.02.34-.69,1.17-1,1.38-1.88.53-.24,1.12-.46,1.68-.76.67-.36,1.31-.78,1.96-1.18.26-.16.49-.34.76-.48.64-.32,1.25-.68,1.75-1.2.17-.17.4-.37.61-.38.61-.02,1.06-.41,1.47-.53.49-.59.91-1.09,1.14-1.36,1.12-.62,1.97-1.09,2.77-1.54.09-.26.16-.43.21-.59.66-.37,1.3-.72,1.93-1.09.16-.09.29-.24.44-.36.15-.12.27-.29.44-.36,1.16-.47,2.16-1.25,3.34-1.79.09.03.21.07.34.11.15-.29.34-.5.81-.41.15.27.33.6.53.94-.1.32-.2.63-.3.95.14.45.29.91.44,1.37-.11.54-.25,1.07-.31,1.6-.04.37-.19.66-.37.98-.46.8-.79,1.65-1.06,2.55-.2.67-.61,1.27-1.28,1.61-.12.06-.24.11-.36.16,0,.38.53.47.36.92-.34.16-.89-.02-1.04.44-.09.76-.17,1.44-.25,2.05-.23.42-.42.8-.62,1.17.02.02.05.03.07.05-.19.16-.38.31-.6.5.03.25.06.51.1.86-.15.11-.35.26-.55.41.04.03.08.06.12.09-.27.53-.54,1.06-.79,1.6-.09.19-.18.41-.17.62.02.57-.17,1.07-.44,1.56-.26.48-.54.95-.77,1.45-.17.37-.26.77-.42,1.22.04.06.1.21.21.26.66.31,1.3.7,2.07.68.58,0,1.16-.03,1.73.01.35.02.75.05,1.02.24.42.3.8.28,1.22.09.19.21.36.41.53.61.55-.22,2.4.08,3.02.19.43-.07.81-.13,1.16-.19.66.54,1.4.68,2.18.71.34.02.68.15,1.01.22,1.38.22,2.63-.43,4.08-.5.28.17.66.39.92.54.7-.1,1.3-.29,1.88-.25.69.06,1.38.3,2.05.5.22.07.38.29.55.43.19.75.3,1.45.18,2.21-.12.78-.71,1.21-1.08,1.85-.91.08-1.01,1.14-1.83,1.55-.18-.02-.46-.06-.8-.1-.16.61-.64.98-1.04,1.41-.16.18-.3.39-.41.61-.26.51-.5,1.03-.64,1.31-.67.72-1.16,1.26-1.65,1.8-.22.24-.4.52-.63.75-.58.58-1.14,1.18-1.6,1.86-.16.24-.44.39-.71.62-.05.2-.11.43-.17.69-.66.24-1.32.47-1.99.71-.06.92-.53,1.48-1.3,1.87-.13.33-.28.69-.41,1.01-.26.18-.59.29-.73.52-.48.73-1.17,1.22-1.8,1.77-.08.07-.15.16-.25.27-.02.25-.04.52-.05.77-.71.37-1.41.74-2.22,1.16-.55,1.34-1.74,2.35-2.8,3.55-.18.03-.44.08-.77.13.14.24.25.42.36.59-.32.4-.62.79-.98,1.25-.7.21-1.48.44-2.37.7-.07.15-.19.39-.31.64.3.46.7.86.47,1.48-.12.11-.27.24-.45.41.99.14,1.1.26,1.36,1.24.09.34.22.67.32.98-.07.33-.13.62-.19.89.19.25.36.46.56.72-.19.28-.37.54-.53.76-.01.38.26.52.44.7.32.32.53.67.54,1.15.01.54.08,1.09.16,1.62.04.26.17.51.28.81-.2.37-.41.77-.63,1.19.11.54.28,1.07.31,1.6.02.48-.11.96-.18,1.45-.04.27-.09.54-.11.81-.03.49,0,.97-.13,1.46-.13.5-.07,1.04.23,1.45-.35,1.19-.69,2.33-1.04,3.51.11.32.61.44.6.94-.33.17-.83.13-.99.74.1.32.24.75.38,1.21-.25.16-.45.29-.66.42-.02.11-.03.21-.05.32.17.24.34.48.52.73-.4.63-.68,1.25-.72,2-.04.7-.25,1.38-.28,2.1-.12.25-.22.5-.36.73-.13.21-.3.39-.5.62.08.17.16.36.27.62-.02.34-.35.5-.65.69-.07.21-.14.42-.23.66.1.31.2.64.31,1-.47.6-.78,1.26-.68,2.05-.24.14-.46.25-.71.4-.06.17-.14.36-.23.6-.2.05-.41.11-.65.17v.45c.35-.19.64-.35,1-.54-.04.72-.32,1.32-.62,1.86-.26.48-.3.98-.42,1.47-.16.64-.37,1.25-.76,1.88.21.45.03.93-.2,1.43-.14.09-.3.19-.49.32-.03.78-.32,1.47-.83,2.03-.06.86-.61,1.47-1,2.23.02.06.05.18.08.26-.41,1.22-.81,2.4-1.2,3.58-.09.28-.14.58-.2.87-.15.68-.64,1.13-1.13,1.59-.03.24-.07.48-.1.72-.03.05-.06.11-.1.14-.48.38-.74.9-.82,1.48-.07.45-.27.76-.7.99.27.49.13.95-.1,1.47-.31.25-.66.55-.98.82-.09.48-.18.9-.24,1.21-.22.41-.44.7-.54,1.03-.16.54-.48.98-.81,1.41-.26.35-.51.7-.77,1.05-.15.19-.29.41-.49.53-.42.26-.69.6-.86,1.06-.08.22-.22.45-.4.59-.83.66-1.21,1.67-1.87,2.46-.08.09-.08.26-.07.25-.52.48-.94.87-1.31,1.2-.16.37-.28.67-.4.95-.48.18-.96.27-1.22.78.04.15.08.33.15.6-.59.54-1.29,1.06-1.56,1.9-.56.23-1.09.44-1.67.67-.25.57-.51,1.16-.76,1.74-.37.02-.67.03-1.06.05-.1.15-.31.32-.37.53-.11.41-.39.57-.78.66-.09.16-.18.32-.25.45-.35.27-.67.51-1.05.8-.09-.02-.24-.07-.41-.11-.5.08-.77.46-.98.84-.93.42-1.88.69-2.72,1.21-.18.11-.35.26-.53.38-.2.14-.38.32-.6.42-.85.36-1.54.92-2.11,1.64-.16.05-.32.12-.47.16-1.06.28-2.03.79-3.01,1.26-.2.09-.38.23-.59.29-1.64.45-3.07,1.4-4.67,1.94-.1.03-.22.08-.29.15-.74.86-1.81.94-2.8,1.23-.39.11-.8.16-1.31.25-.14.12-.36.32-.62.55-1.02.22-2.06.55-3.17.54-.34,0-.69.14-1.02.24-.21.06-.4.17-.5.22-.61-.05-1.11-.1-1.61-.14-.76-.06-1.52-.1-2.28-.17-.35-.03-.7-.14-1.05-.15-.29-.01-.59.06-.89.1-.19.02-.4.1-.56.04-.51-.2-1.03-.1-1.54-.15-.89-.08-1.79-.08-2.61-.54-.49-.27-1.05-.44-1.62-.68-.22.08-.5.17-.79.27-.69-.49-1.43-.61-2.25-.56-.46.03-.94-.14-1.41-.3-.89-.31-1.7-.84-2.64-1.01-.21-.04-.4-.17-.59-.28-.26-.15-.52-.31-.77-.46-.79.24-1.53.04-2.25-.2-1.37-.46-2.72-.98-4.08-1.45-.41-.14-.84-.2-1.43-.34-.7-.47-1.56-1.05-2.47-1.67-.27-.03-.62-.08-.97-.1-.34-.02-.69,0-1.19,0-.19-.12-.5-.35-.83-.53-.28-.15-.59-.34-.9-.36-.36-.02-.61-.2-.9-.35-.28-.16-.58-.29-.87-.44-.46-.23-.91-.47-1.37-.69-.22-.11-.45-.19-.69-.26-.83-.23-1.53-.69-2.2-1.21-.38-.3-.83-.4-1.27-.54-.18-.06-.36-.1-.57-.15-.23-.57-.7-.88-1.22-1.15-.7-.37-1.38-.78-2.06-1.19-.23-.14-.47-.28-.68-.46-1-.85-1.98-1.72-3-2.6-.36-.08-.76-.18-1.2-.28-.39-.36-.77-.82-1.43-.79-.07-.11-.15-.2-.17-.3-.18-.68-.61-1.08-1.31-1.17-.63-.09-.91-.55-1.1-.99-.59-.44-1.13-.81-1.62-1.24-.27-.23-.45-.54-.68-.82-.81-1-1.63-1.98-2.33-3.06-.24-.37-.68-.61-1.07-.94-.04-.21-.09-.47-.14-.77-.31-.06-.6-.11-.95-.18-.23-.55-.47-1.13-.7-1.67-.27-.35-.51-.69-.77-1-.31-.38-.62-.76-.96-1.12-.34-.36-.59-.77-.85-1.19-.3-.5-.72-.94-1.13-1.37-.76-.78-1.58-1.5-1.84-2.63-.05-.2-.16-.45-.32-.56-.52-.37-.59-.81-.36-1.36.02-.04,0-.11-.01-.11-.52-.49-1.02-.95-1.53-1.42-.03-.25-.06-.49-.1-.77-.17-.18-.35-.38-.52-.56-.26-.63-.49-1.25-.78-1.83-.3-.59-.55-1.19-.65-1.87.11-.17.24-.36.41-.62-.26-.09-.46-.15-.65-.21-.27-.58-.54-1.17-.84-1.84q.09-.32.76-.48c-.1-.29-.19-.58-.3-.89-.33.06-.59.11-.9.17-.38-.82-.24-1.85-1.1-2.35v-1.1q-.49-.75-.57-1.72c-.14-.52-.28-1.03-.42-1.55-.03-.1,0-.23-.06-.32-.38-.6-.38-1.28-.48-1.96-.16-1.03-.33-2.04-.28-3.09-.48-.47-.66-1.06-.66-1.71,0-.11.02-.23-.02-.33-.33-.79-.11-1.5.34-2.17-.27-.73-.57-1.44-.78-2.17-.15-.54,0-1.09.34-1.6-.17-.23-.33-.44-.52-.68v-2.2c.17-.63.33-1.21.49-1.79-.11-.34-.22-.68-.31-.95.04-.49.11-.92.12-1.35.02-.69-.02-1.38.01-2.06.02-.4.07-.83.23-1.19.19-.44.32-.87.24-1.34.16-.26.3-.49.4-.66-.03-.56-.06-1.05-.08-1.59-.14-.18-.3-.39-.5-.64.1-.19.2-.38.35-.65.05-1.24.34-2.56.3-3.97.18-.17.41-.39.6-.57,0-.67-.03-1.27.01-1.86.02-.23.17-.46.3-.66.32-.48.37-.96.04-1.46-.04-.07-.06-.15-.13-.31ZM161.58,156.52c-.03,1.02-.51,1.78-.99,2.5-.6.9-1.09,1.89-1.86,2.68-.42.42-.69.99-1.23,1.29-.21.11-.44.2-.67.31-.04.28-.08.55-.13.84-.6.22-.86.72-.99,1.23-.24.16-.42.28-.6.41-.54.42-1.01.86-1.2,1.6-.13.52-.46,1.05-.92,1.43-.16.13-.29.32-.46.45-.5.38-.51,1.02-.78,1.43-.27.21-.49.38-.7.55-.95.82-1.89,1.63-2.92,2.35-.57.4-1.13.63-1.77.61-.26.17-.48.33-.7.47-.13.23-.25.44-.36.63-.15.07-.28.17-.4.17-.53,0-.95.21-1.32.58-.17.17-.39.36-.62.39-.52.07-.88.41-1.29.67-.18.12-.37.23-.55.34-.16-.05-.32-.1-.46-.14-.83.38-1.76.49-2.43,1.11-.59.1-1.15.2-1.73.3-.04-.1-.08-.2-.09-.22-.9.21-1.61.53-2.1,1.04-.42.09-.77.1-1.05.24-.27.15-.47.44-.68.65-1.49,0-2.89.35-4.23.53-.16.21-.26.33-.35.44-.47-.21-.9-.12-1.3.02-.19-.09-.37-.18-.51-.25-.34.1-.65.2-.89.27-.35-.06-.61-.14-.88-.15-.46-.03-.92-.02-1.38-.15-.56-.15-1.14.12-1.7.11-.56,0-1.12-.26-1.69-.07-.05.02-.1,0-.16,0-.1-.12-.2-.25-.33-.42-.3.04-.62.08-.86.11-.53-.33-1.01-.64-1.48-.93h-.85s.02-.06.03-.09c-.77-.39-1.53-.77-2.3-1.16-1.06-.21-2.12-.42-3.29-.65-.12-.12-.32-.3-.56-.52-.36-.08-.75-.18-1.17-.28-1.47-.79-2.74-1.87-3.81-3.13-.38-.11-.74-.21-1.05-.3-.17-.32-.3-.56-.47-.85-.68-.39-1.41-.81-2.14-1.23-.08-.24-.17-.5-.21-.63-.47-.39-.85-.7-1.21-1.03-.55-.49-1.11-.97-1.64-1.49-.47-.46-1.01-.89-1.33-1.44-.28-.49-.62-.79-1.08-1.06-.25-.15-.48-.37-.63-.62-.37-.65-.62-1.38-1.34-1.74.09-.33.18-.61.25-.87-.2-.28-.71-.18-.67-.6.09-.13.15-.23.23-.34-.37-.12-.67-.22-.86-.28-.39-.45-.69-.8-.99-1.15-.18-.39-.43-.75-.65-1.12-.12-.21-.24-.44-.28-.67-.14-.75-.17-1.52-.79-2.09-.12-.12-.16-.34-.2-.53-.1-.39-.18-.79-.27-1.18.15-.2.28-.38.43-.57-.13-.07-.19-.13-.27-.15-.83-.18-1.05-.78-1.04-1.53,0-.22.02-.46-.06-.65-.27-.62-.3-1.27-.27-1.9-.13-.19-.23-.35-.28-.42-.08-1.03-.17-1.95-.2-2.88-.02-.45-.06-.87-.31-1.25-.09-.13-.13-.3-.21-.47.06-.25.12-.52.19-.83-.57-1.3-.35-2.57.29-3.68-.3-1.6-.09-3.07-.14-4.36.21-.48.47-.8.47-1.12,0-1.04.09-2.07.19-3.11.02-.27,0-.54,0-.75.31-.32.55-.58.79-.84.05-.77.37-1.5.21-2.27-.02-.1.06-.21.08-.31.1-.6.53-1,.81-1.33.16-.99.3-1.84.43-2.65.19-.24.34-.43.46-.58.02-.36.03-.66.05-.98.7-.43.86-1.09.8-1.79.13-.29.27-.53.36-.78.35-1,.93-1.91,1.16-2.96.1-.47.43-.89.57-1.36.3-.99.94-1.75,1.57-2.54.57-.73,1.35-1.42,1.13-2.48.56-.46,1.09-.89,1.53-1.26.21-.63.37-1.13.58-1.75.29-.34.67-.77,1.02-1.22.27-.34.56-.69.73-1.08.3-.68.71-1.28,1.18-1.84.06-.24.13-.47.19-.69.26-.05.47-.1.73-.15.97-1.4,2.03-2.74,3.54-3.65.1.06.2.13.31.2.19-.41.37-.77.56-1.16.22-.12.46-.24.7-.37.88-.97,1.73-1.97,3.18-2.12.04-.21.05-.4.12-.57.07-.19.19-.37.3-.55.01-.02.09,0,.13,0,.03.22.06.43.1.68h1.33c.68-.41,1.21-1.16,2.12-.97.23-.18.42-.34.61-.48.59.07,1.05-.17,1.57-.39.54-.23,1.05-.42,1.37-.79.71-.23,1.34-.41,1.95-.64.27-.1.49-.34.76-.46.36-.17.75-.29,1.31-.49.55.14,1.26,0,1.91-.38.72-.41,1.48-.5,2.28-.48.05,0,.11-.03.19-.05.14-.13.31-.27.48-.42.19.05.37.1.47.13,1.21-.45,2.3-1.05,3.52-.67.67-.14,1.28-.26,2.02-.41.08-.07.27-.22.52-.43.33.11.71.19,1.04.35.31.14.62.21.95.19.72-.04,1.34.19,1.79.56.44.13.75.21,1.06.31.85.28,1.67.62,2.55.84.6.15,1.31.27,1.63.92,1.11-.02,1.79.68,2.54,1.24.62.24,1.22.47,1.83.71,0,.03,0,.05-.01.08h1.2c.23.22.43.41.64.61.59.03.97.47,1.37.82.27.24.52.37.87.37.19,0,.38,0,.5,0,.5.46.94.87,1.38,1.28.24.03.49.05.7.08.41.48.8.92,1.21,1.41.18.03.42.06.6.09.99.99,1.93,1.93,2.88,2.87.44.1.86.19,1.31.29.14.33.29.67.39.88.64.32,1.15.57,1.64.81.41-.21.2-.61.34-.9.15-.32.31-.64.46-.97-.06-.25-.12-.48-.19-.73.1-.22.21-.44.31-.67-.11-.25-.22-.5-.31-.69.08-.58.17-1.09.22-1.6.05-.51.17-1.06.07-1.54-.15-.71-.1-1.42-.13-2.12-.01-.33-.02-.66,0-.99.02-.38.07-.75.09-.98-.31-1.4-.58-2.67-.86-3.95.03,0,.06-.01.08-.02-.11-.18-.23-.37-.31-.5.06-.44.11-.82.17-1.19.08-.46.31-.82.77-.99.33-.13.67-.23.92-.32.33-.25.59-.44.84-.65.15-.12.31-.25.4-.41.47-.86,1.22-1.3,2.04-1.42.93-.65,1.71-1.28,2.08-2.32-.36-.63-1.01-1.01-1.61-1.39-.41-.26-.73-.54-1.02-.9-.2-.26-.41-.53-.68-.71-.61-.41-1.25-.77-1.9-1.13-.46-.25-.93-.46-1.18-.97-.09-.18-.31-.31-.47-.46-.66.08-1.18-.23-1.6-.66-.43-.44-.88-.81-1.46-.94-.11-.24-.19-.44-.3-.7-.59-.06-1.19-.11-1.78-.19-.26-.04-.57-.07-.77-.22-.58-.43-1.22-.68-1.89-.95-1.01-.4-1.98-.91-2.96-1.39-.96-.47-1.91-.95-2.87-1.41-.19-.09-.42-.14-.63-.15-.38,0-.67-.16-.97-.39-.23-.18-.51-.39-.78-.41-.41-.04-.74-.19-1.08-.37-.62-.32-1.25-.57-1.98-.48-.8-.52-1.68-.75-2.65-.67-.13.01-.27-.02-.4-.05-.5-.12-1-.25-1.57-.39-.14-.4-.57-.55-.99-.67-.39-.11-.81-.19-1.21-.17-.61.02-1.13-.12-1.6-.55-.33.1-.63.21-.95.28-.23.05-.54.14-.71.04-.57-.34-1.23-.21-1.81-.46-.29.12-.56.22-.85.34-.16-.34-.19-.79-.72-.58-.27.22-.3.67-.77.73-.12-.19-.24-.4-.37-.63-.94-.03-1.78.3-2.57.66-.26-.07-.5-.13-.74-.19-.2.13-.38.25-.45.29-.6.09-1.05.18-1.51.23-.91.09-1.83,0-2.75.15-.55.1-1.08.18-1.53.52-.32.24-.67.37-1.07.32-.56-.06-1,.22-1.43.53-.13.09-.25.2-.35.28-.67.04-1.31-.07-1.91.21-.09.04-.21.05-.31.03-.79-.18-1.5.05-2.23.32-.5.19-1.03.36-1.56.42-.79.09-1.57.19-2.27.6-.33.19-.67.39-1.03.51-1.02.35-1.95,1.04-3.11.89-.53.37-1.04.72-1.61,1.12.02,0-.03.01-.09.02-.86.14-1.67.41-2.45.8-.36.18-.73.35-1.11.51-.3.12-.62.21-.92.32-1.02.39-1.97.95-3.09,1.04-.23.02-.48.15-.66.3-.83.67-1.64,1.36-2.56,2.12-.52.22-1.22.4-1.67,1.01-.11.14-.3.28-.47.31-.45.06-.7.39-.94.67-.23.02-.42.04-.57.06-.29.31-.51.66-.82.84-.41.24-.6.62-.84.98-.11.16-.18.34-.27.51-.21.08-.4.16-.6.23-.27.61-.63,1.11-1.2,1.44-.2.11-.33.36-.45.57-.28.47-.58.92-.97,1.31-.58.57-1.12,1.17-1.71,1.78-.22.09-.5.21-.82.34-.31,1.17-1.04,2.05-1.97,2.78-.17.37-.38.72-.62,1.04-.23.3-.54.54-.76.84-.42.57-.81,1.16-1.21,1.75-.02-.01-.04-.03-.06-.04-.1.37-.2.73-.31,1.12-.29.27-.59.55-.91.84v.53c-.34.79-.63,1.48-.92,2.17-.4.31-.81.63-1.19.92-.03.28-.05.5-.07.7q-.57.7-.7,1.62c-.25.17-.54.36-.81.54.09.9-.31,1.69-.48,2.46-.33.22-.6.39-.86.56-.09.28-.16.51-.23.73.09.21.18.4.22.5-.36.69-.67,1.28-1.07,2.05-.04.23-.11.66-.2,1.09-.08.37-.11.79-.31,1.08-.24.36-.32.75-.44,1.13-.23.72-.44,1.46-.6,2.2-.11.5-.11,1.03-.16,1.57-.16.07-.33.14-.46.19-.43.56-.36,1.11-.2,1.51-.06.56-.11.97-.15,1.31-.26.78-.48,1.51-.99,2.05.08.34.15.6.22.92-.15.29-.28.63-.49.9-.44.57-.47,1.13-.13,1.76.14.26.19.56.28.82-.13.22-.24.41-.34.57.07.22.12.4.18.59-.11.13-.22.24-.29.33-.09.69-.17,1.34-.26,2.04-.26.43-.57.92-.4,1.53.22.07.41.14.64.21-.08.29-.14.52-.19.7.07.29.14.52.2.75-.2.45-.29.89-.36,1.35-.11.67-.24,1.34-.29,2.01-.05.65-.13,1.31.1,1.95.2.54.31,1.1.06,1.68-.07.16-.05.38-.02.57.08.51.07,1.01,0,1.52-.01.08,0,.16.01.24.16.26.32.52.44.71-.18.73-.35,1.38-.49,1.94.64,1.16.81,2.31.91,3.47.06.62.11,1.25.4,1.8.22.42.36.86.35,1.32-.02.63.11,1.19.45,1.56.1.8.18,1.48.27,2.13.16.21.31.4.44.56-.13.33-.24.6-.36.91.27.08.47.14.66.19v1.16c-.22.33-.77.13-.72.72.26-.02.51-.03.81-.05.26.45.54.92.76,1.31-.07.47-.12.84-.17,1.13.19.38.34.66.48.95.53.36.53.39.69.94.18.59.39,1.18.61,1.81-.03.21-.08.5-.13.82,1.02.34,1.04,1.39,1.65,2,.09.56.45.98.73,1.44.27.44.49.9.77,1.41v.6s.06-.02.08-.03c.18.38.36.76.56,1.16.2.03.44.06.67.1.17.27.37.48.24.84-.05.15.09.42.21.58.32.42.68.81,1.02,1.21.28.33.56.67.84,1.01.46.54.82,1.16,1.48,1.52.17.09.31.32.39.51.34.9,1,1.55,1.71,2.16.06.05.13.1.19.14.03.18.05.34.08.5l.08-.04c.22.33.45.66.74,1.09.09.05.3.17.57.32.22.48.45,1,.7,1.55.15.13.4.26.49.46.2.46.55.74.95.99.21.13.46.25.58.45.45.76,1.29,1.1,1.82,1.76.2.25.5.41.74.63.25.24.47.51.71.77.02-.01.03-.03.05-.04.14.23.28.45.43.69.25-.03.46-.06.75-.09.24.41.51.85.8,1.35.33.09.72.2,1.1.31.05.04.09.07.13.12.66.94,1.54,1.59,2.57,2.07.47.21.95.48,1.21.95.25.46.62.67,1.1.78.48.11.95.23,1.52.38.22.26.49.57.79.92.62.07,1.23.15,1.9.22.44.37.92.77,1.41,1.17,0-.02.02-.04.03-.06.85.46,1.7.92,2.7,1.46,1.73.32,3.54.96,5.38,1.88.09.11.27.35.44.57.43.02.81.04,1.15.06.16.39.3.73.46,1.13.48,0,.92.02,1.35,0,.42-.03.84-.1,1.21-.15.26.33.46.58.57.71.47,0,.85-.11,1.1.02.53.27,1.03.32,1.55.08.57.35.85,1.01,1.52,1.14.29-.06.57-.11.69-.13.49.27.81.59,1.15.61.77.05,1.42.37,2.01.66.81.09,1.54.17,2.31.25.14.12.3.26.4.35.57.17,1.06.35,1.57.46.68.15,1.36.41,1.98.16.39.12.7.24,1.01.3.53.09,1.07.14,1.73.22.15-.06.42-.16.68-.26.3.14.55.25.8.36,0-.02.01-.05.02-.07.5.11,1,.22,1.67.37.35-.11.86-.28,1.43-.46.39.21.82.44,1.31.71.21-.11.45-.23.64-.34,1.1-.05,2.15-.1,3.4-.15.43-.2,1.05-.48,1.68-.76.15-.06.32-.12.47-.11.45.02.86-.12,1.27-.27.23-.08.47-.21.7-.21.85-.02,1.51-.42,2.11-.96.18-.16.41-.27.64-.36.27-.12.57-.19.84-.28.21-.28.4-.54.52-.7.88-.4,1.65-.74,2.49-1.12.06.02.21.06.35.1.53-.22,1.03-.44,1.54-.65.81-.33,1.62-.68,2.17-1.41.08-.1.22-.16.33-.23.2-.13.41-.25.61-.38.16-.11.29-.25.46-.33.87-.38,1.74-.76,2.62-1.11.28-.11.5-.25.57-.53.07-.3.25-.47.49-.62.34-.23.69-.44.97-.73.47-.47,1.02-.72,1.67-.82.55-.64,1.18-1.14,2.09-1.12.13-.3.24-.58.35-.82.63-.65,1.28-1.24,1.82-1.91.31-.38.61-.68,1.1-.81.23-.76.74-1.32,1.21-1.92.65-.83,1.45-1.56,1.76-2.59.35-.23.67-.44,1.02-.67.09-.62.45-1.07.96-1.32.1-.41.19-.75.25-1.02.39-.14.69-.25.9-.32.28-.57.47-1.05.73-1.5.32-.54.71-1.04,1.05-1.57.46-.7,1-1.37,1.01-2.28,0-.18.13-.35.15-.41.31-.28.53-.49.74-.69.06-.31.19-.57.33-.82.06-.12.15-.23.2-.35.25-.6.58-1.16.71-1.81.09-.45.27-.87.45-1.48.06-.16.29-.48.3-.81.01-.65.06-1.25.5-1.77.03-.04.02-.11.04-.16.19-.42.38-.83.54-1.18.3-.17.52-.29.63-.35.44-.49.23-.98.29-1.3.18-.45.31-.77.46-1.16.07-.05.2-.14.35-.26.06-.55.28-1.06.59-1.55.25-.38.53-.81.41-1.3-.09-.39-.02-.75.05-1.04.21-.31.47-.54.52-.81.11-.57.41-1.07.55-1.62.35-1.37.96-2.67,1.18-4.08.09-.55.41-1.07.48-1.62.08-.59.25-1.11.69-1.53-.05-.5.1-.92.31-1.35.31-.61.48-1.27.51-1.96.01-.21.07-.43.14-.63.2-.65.41-1.3.66-2.08.06-.07.21-.26.39-.48-.51-.92.1-1.83-.04-2.76.11-.18.23-.36.37-.58-.2-1.09.22-2.12.43-3.18.08-.39.18-.77.06-1.19-.07-.25-.06-.56,0-.82.27-1.15.35-2.32.31-3.5-.02-.44-.1-.91.04-1.31.17-.49.08-.91-.03-1.25.06-.39.21-.72.13-.98-.23-.77-.34-1.54-.32-2.34,0-.08-.05-.15-.07-.23-.25-.97-.48-1.95-.75-2.91-.16-.57-.13-1.21-.52-1.54-.15-.58-.26-1.03-.37-1.47-.08-.31-.17-.63-.26-.94-.12-.44-.23-.88-.37-1.38.02-.03.09-.14.13-.21-.26-.62-.5-1.19-1.01-1.56-1.51-.2-2.95-.84-4.56-.63-.49-.35-1.1-.47-1.75-.4-.61.07-1.26-.17-1.74.24-.57-.31-1.09-.58-1.68-.9h-.56c-1.49-.5-2.82-.94-4.13-1.37-.11-.23-.2-.41-.33-.69-.29.19-.52.35-.8.54-1.07-.77-2.43-.65-3.64-1.13-.17.1-.34.19-.54.3.08.94,1.1,1.47,1.03,2.4.18.23.33.42.42.54.05.55.09,1.01.14,1.51-.07.11-.16.27-.26.43.23.25.43.47.64.69.08.38.25.71.42,1.05.12.24.32.47.35.72.11.78.16,1.57.23,2.35,0,.08,0,.17-.02.25-.26.78-.19,1.56.02,2.31-.12.48-.23.92-.36,1.43.38.54.18,1.17.2,1.79.03.83-.07,1.64-.38,2.41-.17.42-.12.8.01,1.17-.2.37-.23.72-.16,1.12.1.59.13,1.19.2,1.79.02.13.08.26.1.32-.29.88-.56,1.7-.82,2.49.21.26.37.44.56.67-.06.19-.07.43-.19.59-.14.19-.36.31-.49.41v.69c.17.2.32.39.49.59-.22.79-.21,1.64-.8,2.26-.06.82-.31,1.53-.84,2.12-.32.36-.47.79-.31,1.22.16.42.01.77-.11,1.1-.22.61-.56,1.17-.91,1.87,0,.1-.02.34-.04.61-.38.11-.74.22-1.08.32-.18.66.31.8.74,1.02-.22.57-.44,1.13-.64,1.63-.3.13-.52.22-.71.3-.03.4-.12.72-.39.99-.24.23-.35.54-.38.89-.05.58-.23,1.13-.79,1.42-.02.31-.04.58-.06,1.03-.22.19-.61.41-.83.73-.21.31-.23.73-.32,1.03-.35.16-.62.28-.92.42ZM101.53,167.34c.35.23.67.39.92.72.24.33.7.5,1.09.71.4.21.75.42.85.92.04.22.25.42.4.61.51.62,1.18.96,1.9.98.37.3.63.61.96.78,1.05.52,2.02,1.15,3.01,1.77.44.28.85.64,1.32.8.63.21,1.2.5,1.72.9h.83c.26.13.51.24.75.37.26.14.52.3.78.45.25,0,.5-.03.74,0,.4.06.86.07,1.18.27.48.3,1,.43,1.5.63.25.1.53.17.76.3.4.23.81.29,1.26.29.49,0,.97.06,1.65.11.23-.06.65-.17,1.06-.27,1.19.35,1.98.36,3.24.03.08-.15.17-.32.27-.48.12-.18.25-.35.38-.53.23.18.42.33.66.51,1.17-.19,2.3-.52,3.59-1.01.29.01.73-.05,1.13-.37.18-.15.44-.26.67-.27.61-.02,1.17-.2,1.75-.32.64-.13,1.09-.46,1.58-.8.13-.09.26-.18.39-.26.27.14.5.26.69.36.63-.24.75-.84,1.08-1.28.85.38,1.2-.24,1.56-.74.83-.37,1.63-.72,2.43-1.08.12-.06.24-.13.35-.22.72-.62,1.49-1.12,2.53-.99.2-.26.43-.47.55-.73.25-.51.64-.89,1.09-1.21.54-.39.99-.86,1.39-1.45.24-.09.52-.21.87-.35.23-.45.48-.95.74-1.46.43-.21.89-.44,1.34-.66v-.77c.28-.4.53-.75.76-1.08.31-.03.57-.06.85-.09.01-.16.04-.26.03-.37-.01-.13-.06-.26-.11-.44.76-.83,1.53-1.67,2.46-2.69.15-.36.48-.88.95-1.33.37-.35.67-.77.97-1.12.03-.28.04-.5.06-.72.2-.14.37-.26.43-.3.46-.89.86-1.67,1.27-2.46.16-.14.35-.29.5-.43.19-1.42,1.02-2.82,2.18-3.69.1-.43.18-.89.33-1.32.25-.72.56-1.42.82-2.14.15-.41.2-.85.39-1.24.22-.45.36-.91.33-1.42.44-.36.61-.84.66-1.37.01-.16.07-.32.14-.46.5-.98.73-2.05,1.01-3.11.11-.42.28-.87.22-1.27-.08-.47.02-.88.15-1.27.16-.5.14-.96.01-1.27.04-.52.16-.89.09-1.21-.13-.53.02-1.01.11-1.51.04-.19.08-.38.07-.57-.06-.65-.16-1.29-.25-2.03.1-.17.25-.42.4-.68-.03-.21-.08-.42-.07-.63.03-.72-.11-1.45.08-2.16.03-.09-.03-.22-.07-.31-.2-.5-.13-1.01-.06-1.52.04-.32.09-.64.14-.96.04-.27.1-.53.15-.75-.11-.54-.22-1.05-.3-1.55-.02-.15.02-.33.06-.48.13-.49.13-.96-.03-1.45-.12-.36-.15-.75-.22-1.12-.16-.87-.54-1.64-1.1-2.33-.24-1.4-1-2.6-1.61-3.85-.02-.05-.06-.09-.11-.13-.64-.46-.99-1.15-1.4-1.79-.39-.62-.9-.85-1.66-.72-.33.27-.68.63-1.1.88-.41.25-.89.39-1.41.61,0,.35-.05.73-.51.94-.28.01-.61.03-.95.05-.52.49-.75,1.18-1.37,1.61-.6.41-1.29.58-1.85.96-.17.29-.32.55-.46.81-.21.04-.4.07-.53.09-.26.19-.5.34-.7.51-.16.14-.33.3-.42.49-.24.53-.64.86-1.15,1.12-.42.22-.88.45-1.08.96-.05.11-.18.26-.29.27-.47.05-.67.46-1,.68-.19.04-.38.07-.56.1.02.03.05.06.07.09-.27.19-.54.39-.76.55,0,.37-.05.66.01.92.06.25.19.5.35.7.34.42.74.8,1.1,1.21.4.45.8.9,1.18,1.36.19.23.36.48.49.75.32.63.64,1.27,1.27,1.65.27,1,.54,1.97.81,2.96.9.46.92,1.32.89,2.16.07.09.11.17.17.22.51.42.7.94.66,1.6-.08,1.25-.11,2.51-.19,3.77-.02.35-.15.69-.26,1.03-.29.91-.59,1.81-.57,2.81-.26.36-.53.73-.8,1.11-.02.61.05,1.22-.23,1.78-.21.42-.37.87-.63,1.25-.59.84-.89,1.81-1.3,2.74-.22.49-.42,1-.64,1.54-.19.09-.42.21-.63.32.06.32.1.58.12.71-.27.34-.55.54-.62.79-.18.6-.58.98-1.11,1.26-.13.3-.26.6-.37.88-.28.11-.53.21-.81.32.1.18.19.34.27.48-.47.71-.92,1.4-1.38,2.07-.07.1-.23.14-.32.24-.56.62-1.44.94-1.69,1.86-.23.07-.45.14-.59.19-.18.43-.34.82-.48,1.16-.28.06-.46.09-.63.13-.19.31-.29.68-.54.85-.44.3-.73.72-1.08,1.1-.17.19-.49.24-.66.43-.7.78-1.6,1.24-2.58,1.49-1.1.28-2.07.79-3.08,1.33-.17-.1-.35-.21-.56-.34-.29.16-.58.31-.84.45-.5-.1-.99-.16-1.45-.3-.38-.11-.73-.08-1.12-.04-.81.1-1.62-.1-2.42-.16-.08,0-.15-.06-.22-.11-.35-.21-.7-.42-1.04-.65-.28-.19-.56-.33-.91-.33-.53,0-1.05-.35-1.59-.03-.13-.16-.23-.28-.32-.4-.78-.24-1.56-.32-2.26-.15-.54-.19-1-.34-1.56-.54-.78-.36-1.66-.76-2.58-1.18-.46.11-.88-.11-1.28-.34-.93-.52-1.85-1.06-2.63-1.52-.61-.63-1.12-1.16-1.74-1.81,0-.3-.36-.5-.71-.73-.38-.25-.76-.5-1.02-.93-.83-1.41-1.68-2.82-2.91-3.98.06-.88-.66-1.3-1.15-1.81.06-.29.11-.52.15-.73-.95-.71-1.11-1.75-1.38-2.65-.25-.4-.46-.75-.66-1.07.15-.25.26-.44.37-.62-.3-.4-.38-.82-.33-1.27.04-.45-.12-.86-.21-1.28-.08-.36-.15-.78-.05-1.12.31-1,.42-2.02.45-3.1.51-.73.29-1.76,1.02-2.46-.27-1.39.26-2.64.75-3.97.13-.14.31-.34.51-.55-.05-.65.4-1.04.76-1.48.16-.43.39-.83.57-1.25.32-.75.87-1.32,1.37-1.93.38-.46.77-.91,1.27-1.5,1.08-.5,1.93-1.54,2.79-2.61-.01-.59.28-1.11.65-1.58.28-.36.63-.66.91-1.02.5-.66,1.23-1.05,1.85-1.57.4-.33.81-.63,1.08-1.1,1.07-.32,1.97-.93,2.83-1.62.87.25,1.53-.09,2.08-.76.34.07.66.14.96.2.28-.16.52-.36.8-.45,1.01-.32,2.03-.61,2.84-1.35.14-.12.33-.2.51-.26.59-.2,1.19-.39,1.77-.58.91.45.61.44,1.48-.03.34.04.74.09,1.23.15.76-.26,1.72.03,2.54-.44.02-.01.05,0,.11.01.16.1.34.21.51.32h.86c.47.45.96.86,1.67.53.77.29,1.53.57,2.44.92.03,0,.24-.04.41-.06.99.66,1.95,1.29,2.9,1.93.15.1.27.27.4.4.48.47.95.95,1.46,1.39.14.12.39.13.64.2.57-.65,1.11-1.26,1.65-1.87.13-.14.25-.3.41-.4.55-.35,1.11-.68,1.6-.98.21-.28.37-.49.53-.71.27-.03.52-.05.8-.08.31-.43.61-.87.88-1.25.41-.02.71-.04.95-.05.8-.77,1.32-1.75,2.38-2.16.1-.04.17-.14.26-.2.57-.39,1.01-.9,1.5-1.38.57-.58,1.25-1.05,1.98-1.65.06-.01.24-.05.4-.08.45-.55.24-1.05,0-1.56-.72-.36-1.47-.7-1.94-1.36-.44-.61-.97-1.11-1.57-1.54-.59-.42-1.06-1.07-1.92-.96-.15-.29-.28-.56-.42-.83-.14-.25-.32-.43-.62-.49-.69-.15-1.21-.6-1.7-1.08-.23-.23-.43-.5-.64-.76l-.11.14c-.78-.3-1.55-.6-2.44-.94-.02-.03-.12-.16-.22-.28-.22-.02-.44-.05-.66-.07-.55-.61-1.15-1.12-1.97-1.16-.29-.28-.55-.52-.79-.75-1.17,0-1.69-.3-2.72-1.19-.3.04-.64.09-1.05.15-.21-.1-.52-.18-.73-.37-.42-.36-.9-.53-1.41-.59-.41-.05-.73-.2-1.01-.49-.11-.12-.24-.22-.38-.34h-.86c-.86-.58-1.01-.64-1.64-.64-.36.22-.66.54-1.01.59-.51.08-1,.2-1.5.33-.47.12-.95.19-1.42.33-.3.09-.65.01-.97-.02-.18-.02-.37-.08-.5-.11-.6.34-1.14.64-1.78.99-.82-.16-1.5.39-2.24.82-.81.08-1.72-.23-2.38.47-.26.03-.47.05-.51.05-.83.54-1.51.99-2.09,1.37-.53.12-.96.2-1.38.32-.6.17-1.16.47-1.82.46-.18,0-.36.12-.53.21-.68.4-1.35.81-1.98,1.19-.56.09-1.07.18-1.64.27-.6.6-1.49.9-2.1,1.59-.15.17-.42.3-.65.32-.43.04-.65.3-.93.58-.43.45-.91.88-1.43,1.21-.43.27-.86.46-.96,1.03-.02.14-.19.25-.3.37-.27.31-.59.58-.79.93-.28.49-.66.79-1.21.88-.07.14-.17.26-.19.38-.13,1.04-.66,1.89-1.21,2.73-.28.43-.56.87-.83,1.31-.2.33-.34.71-.6.98-.67.7-1.13,1.53-1.66,2.33-.03.04-.09.05-.12.07-.17-.08-.32-.16-.55-.28-.2.97-.38,1.87-.56,2.76-.43.18-.63.5-.77.87-.53,1.38-1.04,2.76-1.58,4.13-.25.63-.56,1.24-.92,2.03v.61c-.18.32-.34.54-.45.79-.26.6-.5,1.21-.75,1.82-.18.43-.33.87-.29,1.35.02.24,0,.49,0,.73-.17.21-.33.39-.49.59,0,.14-.01.28,0,.42.05.53-.07.95-.56,1.26-.3.2-.44.55-.43.86.14.36.26.65.37.91-.23.2-.38.35-.45.41-.1.85-.19,1.58-.28,2.31-.01.1-.06.21-.04.31.24,1.13-.13,2.23-.11,3.35,0,.08-.04.16-.06.24-.19.7-.12,1.41-.02,2.15-.11.13-.25.3-.38.45-.04.76-.07,1.5-.12,2.42.23.38.08.91-.36,1.52.22.15.42.28.61.4,0,.37-.03.71,0,1.03.03.32.13.64.19.9.23.25.41.45.56.61-.17.33-.32.62-.43.82.29.74.31,1.47.82,2,.1.11.13.3.15.46.07.57.12,1.14.19,1.7.02.16.06.32.11.47.19.54.37,1.09.57,1.62.12.33.28.64.42.97-.02,0-.04,0-.05.01.17.57.35,1.13.53,1.74.34.3.69.61,1.04.92.06.38.14.74.34,1.01.75.97,1.54,1.92,1.81,3.07.28.22.55.35.68.57.24.4.6.61.97.84.72.45,1.34,1.01,1.8,1.76.21.15.42.31.55.4.2.46.36.81.5,1.13ZM107.15,132.52c-.15.94.14,1.79.24,2.68-.32.04-.63.08-.91.12-.46.51.08.97,0,1.45-.09.51.04,1.05-.05,1.56-.08.49-.22.96-.08,1.34-.08.46-.24.84-.2,1.2.1.85-.06,1.66-.14,2.32.23.77.44,1.39.6,2.01.11.41.16.84.27,1.43,0,.02-.04.23-.08.49.31.1.59.19.8.27.63,1.07,1.09,2.19,2.11,2.92.17.62.41,1.22.9,1.68.61.58,1.13,1.25,1.77,1.8.39.33.77.6,1.25.62.41,1.07,1.47,1.43,2.1,2.21.22.05.43.09.64.13-.01.02-.02.05-.03.07.51.34,1.03.68,1.39.93.62.05,1.06.08,1.51.11,0,.03-.01.05-.02.08.83.33,1.65.66,2.6,1.03.21.04.58.04.9.17.34.14.67.2,1.04.19.33-.01.65,0,.92,0,.34.32.62.58.89.82.34,0,.64,0,.94,0,.68.02,1.36,0,2.04.12.5.08,1.05.45,1.5.07.78.11,1.48.21,2.18.29.13.02.27-.02.4-.05.6-.11,1.1-.45,1.62-.75.52-.29,1.03-.64,1.58-.83.82-.27,1.5-.75,1.93-1.45.36-.58.81-1.03,1.26-1.5.49-.52.98-1.03,1.6-1.67.41-.15.92-.45.89-1.2.81-.55,1.16-1.47,1.9-2.05.11-.09.13-.29.2-.43.32-.6.53-1.26,1.02-1.78.39-.42.74-.87,1.1-1.32.35-.45.69-.92,1.13-1.52.45-1.58,1.16-3.26,2.12-4.81.11,0,.21.02.32.03-.09-.37-.16-.68-.21-.89.23-.49.43-.9.6-1.32.24-.58.39-1.21.69-1.75.35-.63.34-1.27.26-1.92-.07-.53-.27-1.05-.44-1.7.03-.13.09-.39.17-.73-.31-.94-.63-1.95-1.01-3.1-.01-.01-.14-.16-.28-.32-.07-.64-.32-1.23-.71-1.78-.2-.28-.31-.62-.41-.82-.36-.52-.65-.94-.94-1.37-.06-.09-.12-.2-.21-.25-.61-.36-.7-.91-.59-1.57-.25-.12-.5-.23-.74-.34-.11-.36-.21-.73-.32-1.1-.35-.17-.69-.34-1.05-.51-.62.26-1.21.51-1.81.77-.23-.01-.5-.03-.65-.04-.61.27-.48.9-.84,1.19-.41.33-.53.81-.76,1.24-.65.07-1.01.55-1.41.93-.38.11-.75.21-1.09.31-.16.3-.3.57-.44.84-1.11.38-1.83,1.27-2.61,2-.28.08-.51.14-.65.18-.36.43.06.76-.04,1.13-.16.07-.33.17-.51.2-.62.11-1.08.48-1.39.96-.35.55-.83.85-1.39,1.09-.15.06-.29.15-.39.21-.21.32-.39.59-.52.78-.39.26-.71.46-.97.63-.07.31-.12.51-.16.67-.08.09-.11.15-.16.17-.96.37-1.45,1.33-2.3,1.83-.11.06-.21.2-.25.32-.16.52-.58.77-.99,1.06-.42.29-.83.6-1.21.88-1.49-.5-2.05-1.26-1.86-2.54.34-.15.61-.38.79-.76.12-.25.39-.49.65-.58.37-.13.59-.4.82-.66.3-.35.55-.75.81-1.12.76-.18,1.32-.66,1.88-1.21.83.07.89-1.08,1.58-1.06.23-.31.34-.58.55-.73.55-.39,1.12-.76,1.49-1.37h1.39c.11-.12.23-.23.34-.35-.16-.45-.05-.83.15-1.17,1.07-.75,1.73-1.83,2.48-2.77.27-.16.51-.29.73-.44,1.12-.78,1.99-1.87,3.2-2.54.12-.06.19-.2.3-.28.23-.19.45-.39.7-.57.77-.54,1.39-1.21,1.92-2.02-.33-.37-.61-.78-.97-1.07-.66-.53-1.37-.99-2.05-1.48-.33-.24-.65-.5-.98-.73-.34-.24-.7-.47-1.1-.74-.16.08-.37.19-.59.31-.44-.26-.88-.52-1.37-.82-.75-.11-1.55.44-2.31,0-.18.06-.31.1-.43.16-.64.29-1.32.53-1.91.92-.35.23-.66.46-1.07.54-.66-.18-.99-.18-1.56-.01-.44-.03-.81-.17-1.07-.06-.41.17-.75.02-1.12-.08-.79.55-1.69.75-2.64.9-.46.76-1.21.85-1.9.77-.53.47-.93.95-1.44,1.23-.88.49-1.49,1.28-2.39,1.86-.09.02-.27.06-.45.09-.33.5-.61,1-1.15,1.28-.14.07-.24.22-.34.35-.57.73-1.2,1.42-1.47,2.31-.2.1-.33.2-.49.24-.54.13-.82.46-.99.98-.11.33-.32.64-.54.91-.46.58-.96,1.12-1.55,1.81-.06.37-.15.91-.24,1.45-.18.19-.36.39-.57.62-.03.26.24.59-.12.82-.61.09-1.07.47-1.49.94ZM187.51,72.56c-.16-.05-.34-.1-.56-.16-.76.41-1.14,1.21-1.81,1.79-.53.14-1.01.62-1.67.64-.1,0-.2.08-.29.15-.61.44-1.31.75-1.84,1.31-.16.17-.39.32-.62.38-.74.22-1.35.59-1.68,1.27-.58.29-1.12.57-1.48.75-.61.65-1.1,1.16-1.56,1.65h-1.05c-.7.49-1.32.93-1.95,1.37-.2.14-.47.24-.59.43-.35.58-.94.83-1.46,1.15-.68.41-1.19.94-1.67,1.55-.25.32-.55.61-.82.9-.25.03-.47.05-.65.06-.34.21-.64.39-.97.59-.22.58-.21,1.32-1,1.58.03,1.17-.13,2.32.32,3.45-.19.32-.16.65-.05,1.02.28,1,.36,2.02.23,3.05-.04.32-.17.65-.15.96.04.67.16,1.34.25,2.08-.17.93-.16,1.93.05,2.95-.11.17-.22.35-.32.51v.95c-.12.18-.23.36-.3.48.06.42.11.77.15,1.07-.15.16-.25.25-.33.36-.08.11-.13.23-.21.36.07.11.12.25.2.27.9.17,1.7.8,2.54.62.5.21.87.37,1.26.53.5-.27.99-.17,1.52-.1.74.11,1.31.54,1.96.8.08.03.15.05.2.07.27-.06.5-.12.71-.17.29.23.55.43.72.57.83.22,1.56.41,2.29.61.05.01.12.03.15.06.46.46,1.03.43,1.61.42.6,0,1.21-.1,1.76.14.26-.05.52-.18.74-.13.65.17,1.36.22,1.92.63.35.26.73.42,1.15.32.55-.12,1.01.03,1.34.28.62-.04,1.13-.09,1.65-.09.41,0,.76-.08.99-.42.2.08.4.23.6.22.22,0,.43-.15.67-.24.14.25.27.49.38.7.44.19.85.34,1.24.55.54.29,1.01.19,1.44-.19.27-.24.49-.52.66-.71.32-.07.53-.12.75-.17.1-.21.19-.41.29-.6.09-.17.15-.35.28-.48.51-.53,1.03-1.05,1.56-1.56.16-.15.32-.32.51-.4.56-.24.94-.64,1.09-1.23.32-.06.61-.12.82-.16.7-1.09,1.15-2.27,2.35-2.84.12-.06.21-.18.3-.28.33-.39.66-.79.94-1.13-.03-.24-.04-.39-.06-.58.29-.04.53-.07.82-.1.26-.33.55-.65.79-1.01.39-.58.83-1.09,1.52-1.33.28-.45.47-.98.84-1.31.49-.43.79-.96,1.13-1.53.83-.17,1.13-.85,1.3-1.53.4-.31.77-.55,1.08-.85.35-.34.65-.74.98-1.1.29-.32.6-.64.92-.98.82-.27,1.12-1.1,1.68-1.68-.02-.18-.04-.34-.06-.47-.78-.67-1.66-.64-2.53-.47-.61.12-1.18.4-1.77.61-.41-.13-.82-.16-1.22-.19-.3-.03-.62,0-.89-.1-.72-.27-1.43-.32-2.12-.05-.46-.12-.88-.23-1.33-.34-.19.05-.4.11-.52.15-.41-.08-.73-.14-1.08-.2-.86-.99-1.91-.56-2.97-.33-.64-.6-1.39-.49-2.01-.32-.67-.17-1.22-.38-1.77-.43-.5-.04-.97-.11-1.25-.26-.87.17-1.58.31-2.28.45-.49-.55-1.1-.57-1.78-.56-.14-.15-.3-.34-.45-.51-.08-.34-.15-.65-.23-.97.48-.88.85-1.8,1.59-2.48.06-.05.14-.12.15-.19.16-.72.74-1.28.76-2.06,0-.22.22-.43.33-.64.32-.6.64-1.19.94-1.79.04-.08-.01-.21-.02-.34-.18-.16-.36-.32-.56-.49.25-.03.49-.07.81-.11.25-.38.52-.79.79-1.21-.32-.51-.19-.97.09-1.41.25-.39.56-.76.73-1.18.19-.47.47-.85.79-1.18.02-.26.04-.47.06-.69.35-.21.55-.5.67-.9.18-.63.41-1.25.94-1.7.14-.12.21-.32.29-.49.13-.27.24-.54.39-.88-.01-.22-.03-.51-.06-.96-.99.34-1.64.98-2.36,1.54-.23.03-.47.06-.69.09-.59.59-1.17,1.13-1.95,1.34-.1.25-.19.47-.31.75-.32.08-.66.16-1.09.26-.16.18-.38.42-.61.67-.5.22-1.02.45-1.53.67-.17.23-.34.45-.47.63-.35.09-.64.16-.95.24Z"/>
  <path class="cls-2" d="M161.58,156.52c.3-.14.57-.26.92-.42.09-.3.11-.72.32-1.03.22-.33.61-.55.83-.73.03-.45.04-.72.06-1.03.56-.29.74-.84.79-1.42.03-.35.14-.65.38-.89.28-.27.37-.59.39-.99.19-.08.41-.17.71-.3.2-.51.42-1.06.64-1.63-.43-.21-.92-.35-.74-1.02.34-.1.7-.21,1.08-.32.02-.27.04-.51.04-.61.35-.7.69-1.26.91-1.87.12-.33.26-.68.11-1.1-.16-.43-.01-.86.31-1.22.53-.59.78-1.3.84-2.12.6-.62.58-1.47.8-2.26-.17-.2-.32-.39-.49-.59v-.69c.13-.1.35-.22.49-.41.12-.16.13-.4.19-.59-.19-.23-.35-.42-.56-.67.26-.79.53-1.61.82-2.49-.02-.07-.09-.19-.1-.32-.07-.59-.1-1.2-.2-1.79-.07-.4-.04-.75.16-1.12-.14-.38-.18-.75-.01-1.17.3-.77.41-1.58.38-2.41-.02-.62.17-1.25-.2-1.79.13-.5.24-.95.36-1.43-.21-.75-.28-1.53-.02-2.31.02-.08.03-.16.02-.25-.07-.79-.12-1.57-.23-2.35-.04-.25-.23-.48-.35-.72-.17-.33-.34-.67-.42-1.05-.2-.22-.41-.44-.64-.69.1-.16.19-.32.26-.43-.05-.5-.09-.96-.14-1.51-.09-.12-.24-.31-.42-.54.07-.93-.95-1.46-1.03-2.4.21-.12.37-.21.54-.3,1.2.47,2.57.35,3.64,1.13.27-.18.51-.34.8-.54.13.27.22.46.33.69,1.31.44,2.64.88,4.13,1.37h.56c.59.32,1.1.59,1.68.9.48-.41,1.13-.17,1.74-.24.65-.07,1.26.05,1.75.4,1.61-.21,3.05.43,4.56.63.51.37.76.95,1.01,1.56-.04.06-.11.17-.13.21.13.5.25.94.37,1.38.08.31.17.62.26.94.12.44.23.89.37,1.47.4.33.36.97.52,1.54.27.96.5,1.94.75,2.91.02.08.07.16.07.23-.02.8.09,1.57.32,2.34.08.26-.07.58-.13.98.11.34.2.76.03,1.25-.14.39-.06.87-.04,1.31.04,1.18-.04,2.34-.31,3.5-.06.26-.08.57,0,.82.12.42.02.8-.06,1.19-.21,1.06-.63,2.09-.43,3.18-.14.22-.25.4-.37.58.14.93-.46,1.84.04,2.76-.18.22-.33.4-.39.48-.25.78-.46,1.43-.66,2.08-.06.21-.13.42-.14.63-.04.69-.21,1.35-.51,1.96-.21.43-.37.85-.31,1.35-.44.42-.6.93-.69,1.53-.08.55-.4,1.07-.48,1.62-.22,1.41-.83,2.71-1.18,4.08-.14.54-.44,1.04-.55,1.62-.05.27-.31.5-.52.81-.07.29-.15.65-.05,1.04.12.49-.16.92-.41,1.3-.31.49-.53.99-.59,1.55-.15.11-.28.21-.35.26-.16.4-.29.72-.46,1.16-.06.32.15.82-.29,1.3-.11.06-.32.18-.63.35-.16.34-.35.76-.54,1.18-.02.05,0,.12-.04.16-.44.51-.49,1.12-.5,1.77,0,.33-.23.65-.3.81-.19.6-.37,1.03-.45,1.48-.13.65-.46,1.21-.71,1.81-.05.12-.13.23-.2.35-.13.26-.27.51-.33.82-.22.2-.44.41-.74.69-.02.06-.15.24-.15.41-.01.91-.55,1.58-1.01,2.28-.34.53-.73,1.03-1.05,1.57-.26.44-.46.93-.73,1.5-.21.07-.51.18-.9.32-.07.28-.15.61-.25,1.02-.51.25-.87.7-.96,1.32-.35.23-.67.44-1.02.67-.31,1.03-1.12,1.75-1.76,2.59-.47.6-.98,1.16-1.21,1.92-.49.13-.79.43-1.1.81-.54.67-1.19,1.26-1.82,1.91-.1.25-.22.52-.35.82-.91-.01-1.55.49-2.09,1.12-.65.1-1.21.35-1.67.82-.28.28-.64.5-.97.73-.24.16-.42.33-.49.62-.07.29-.29.42-.57.53-.88.35-1.75.73-2.62,1.11-.17.08-.31.22-.46.33-.2.13-.41.26-.61.38-.11.07-.26.13-.33.23-.55.74-1.35,1.08-2.17,1.41-.51.21-1.01.42-1.54.65-.13-.04-.29-.09-.35-.1-.84.38-1.61.72-2.49,1.12-.12.16-.31.42-.52.7-.27.09-.57.17-.84.28-.22.09-.46.2-.64.36-.61.55-1.27.94-2.11.96-.24,0-.47.13-.7.21-.41.15-.82.29-1.27.27-.16,0-.32.05-.47.11-.63.27-1.25.56-1.68.76-1.25.06-2.31.1-3.4.15-.2.1-.43.22-.64.34-.49-.26-.92-.5-1.31-.71-.57.18-1.09.35-1.43.46-.67-.15-1.17-.26-1.67-.37,0,.02-.01.05-.02.07-.25-.11-.5-.23-.8-.36-.25.1-.53.2-.68.26-.66-.08-1.2-.13-1.73-.22-.32-.06-.62-.18-1.01-.3-.62.25-1.3,0-1.98-.16-.5-.11-.99-.29-1.57-.46-.1-.09-.27-.23-.4-.35-.77-.08-1.5-.16-2.31-.25-.59-.29-1.24-.61-2.01-.66-.34-.02-.66-.34-1.15-.61-.12.02-.4.08-.69.13-.67-.14-.96-.8-1.52-1.14-.52.24-1.02.19-1.55-.08-.25-.13-.63-.02-1.1-.02-.11-.13-.31-.38-.57-.71-.36.05-.78.12-1.21.15-.43.03-.87,0-1.35,0-.16-.39-.3-.74-.46-1.13-.34-.02-.72-.04-1.15-.06-.17-.22-.35-.45-.44-.57-1.85-.91-3.65-1.56-5.38-1.88-1-.54-1.85-1-2.7-1.46,0,.02-.02.04-.03.06-.48-.4-.97-.8-1.41-1.17-.67-.08-1.29-.15-1.9-.22-.3-.35-.57-.66-.79-.92-.57-.14-1.04-.27-1.52-.38-.47-.11-.85-.32-1.1-.78-.26-.47-.74-.74-1.21-.95-1.04-.47-1.92-1.13-2.57-2.07-.03-.04-.08-.07-.13-.12-.38-.11-.78-.22-1.1-.31-.3-.5-.56-.94-.8-1.35-.29.04-.5.06-.75.09-.14-.23-.29-.46-.43-.69-.02.01-.03.03-.05.04-.23-.26-.46-.53-.71-.77-.23-.23-.54-.39-.74-.63-.53-.66-1.37-1-1.82-1.76-.11-.2-.37-.32-.58-.45-.4-.25-.74-.53-.95-.99-.09-.2-.35-.33-.49-.46-.25-.55-.49-1.07-.7-1.55-.27-.15-.48-.27-.57-.32-.3-.44-.52-.76-.74-1.09l-.08.04c-.03-.16-.05-.32-.08-.5-.06-.04-.13-.09-.19-.14-.7-.61-1.36-1.26-1.71-2.16-.07-.2-.21-.42-.39-.51-.66-.36-1.02-.98-1.48-1.52-.28-.33-.56-.67-.84-1.01-.34-.4-.7-.79-1.02-1.21-.12-.16-.26-.43-.21-.58.13-.36-.07-.57-.24-.84-.23-.03-.47-.07-.67-.1-.19-.4-.37-.78-.56-1.16-.03,0-.06.02-.08.03v-.6c-.27-.51-.5-.97-.77-1.41-.28-.46-.64-.88-.73-1.44-.6-.61-.63-1.67-1.65-2,.05-.32.1-.6.13-.82-.22-.64-.43-1.22-.61-1.81-.16-.55-.16-.58-.69-.94-.15-.29-.29-.58-.48-.95.04-.29.1-.67.17-1.13-.23-.39-.5-.86-.76-1.31-.3.02-.55.04-.81.05-.05-.59.5-.39.72-.72v-1.16c-.19-.05-.39-.11-.66-.19.13-.32.23-.59.36-.91-.13-.16-.28-.35-.44-.56-.08-.65-.17-1.33-.27-2.13-.34-.37-.47-.93-.45-1.56.01-.45-.13-.89-.35-1.32-.29-.55-.35-1.17-.4-1.8-.1-1.16-.27-2.31-.91-3.47.14-.56.31-1.21.49-1.94-.12-.2-.28-.45-.44-.71,0-.07-.03-.16-.01-.24.07-.51.08-1.01,0-1.52-.03-.19-.05-.41.02-.57.25-.58.14-1.13-.06-1.68-.23-.65-.15-1.31-.1-1.95.05-.67.18-1.34.29-2.01.07-.45.16-.9.36-1.35-.06-.23-.12-.47-.2-.75.05-.19.12-.42.19-.7-.22-.07-.41-.14-.64-.21-.17-.61.14-1.1.4-1.53.09-.71.17-1.35.26-2.04.07-.08.18-.2.29-.33-.06-.19-.11-.37-.18-.59.1-.16.21-.35.34-.57-.09-.26-.14-.56-.28-.82-.33-.63-.31-1.19.13-1.76.21-.28.34-.62.49-.9-.08-.32-.14-.58-.22-.92.51-.54.73-1.27.99-2.05.04-.34.08-.74.15-1.31-.17-.4-.23-.95.2-1.51.13-.06.3-.13.46-.19.05-.54.05-1.06.16-1.57.16-.74.37-1.47.6-2.2.12-.38.2-.77.44-1.13.2-.3.23-.71.31-1.08.09-.43.16-.86.2-1.09.4-.77.71-1.36,1.07-2.05-.04-.1-.13-.29-.22-.5.07-.22.14-.45.23-.73.25-.16.52-.34.86-.56.17-.78.57-1.57.48-2.46.27-.18.56-.37.81-.54q.13-.92.7-1.62c.02-.2.04-.42.07-.7.39-.3.79-.62,1.19-.92.29-.69.59-1.38.92-2.17v-.53c.32-.3.62-.57.91-.84.11-.39.21-.75.31-1.12.02.01.04.03.06.04.4-.58.79-1.18,1.21-1.75.22-.3.53-.54.76-.84.25-.32.45-.67.62-1.04.93-.73,1.66-1.61,1.97-2.78.32-.13.6-.25.82-.34.59-.62,1.13-1.22,1.71-1.78.4-.39.69-.84.97-1.31.12-.21.26-.45.45-.57.58-.33.94-.83,1.2-1.44.2-.08.39-.15.6-.23.09-.17.17-.35.27-.51.24-.36.43-.73.84-.98.32-.19.53-.54.82-.84.15-.01.34-.03.57-.06.25-.28.49-.61.94-.67.17-.02.36-.16.47-.31.46-.61,1.15-.79,1.67-1.01.92-.77,1.73-1.46,2.56-2.12.18-.15.43-.28.66-.3,1.12-.09,2.08-.65,3.09-1.04.3-.12.62-.2.92-.32.38-.15.75-.32,1.11-.51.78-.39,1.59-.65,2.45-.8.05,0,.11-.03.09-.02.57-.4,1.09-.76,1.61-1.12,1.16.15,2.08-.54,3.11-.89.36-.12.7-.32,1.03-.51.71-.41,1.48-.5,2.27-.6.53-.06,1.06-.24,1.56-.42.73-.27,1.44-.5,2.23-.32.1.02.22.01.31-.03.6-.28,1.24-.17,1.91-.21.1-.08.22-.19.35-.28.43-.31.87-.58,1.43-.53.4.04.75-.08,1.07-.32.45-.34.98-.43,1.53-.52.92-.16,1.84-.07,2.75-.15.46-.04.91-.14,1.51-.23.06-.04.24-.16.45-.29.24.06.47.12.74.19.8-.36,1.63-.68,2.57-.66.14.23.26.43.37.63.47-.06.5-.51.77-.73.53-.2.56.25.72.58.28-.11.55-.22.85-.34.57.25,1.24.12,1.81.46.17.1.48.01.71-.04.32-.07.62-.18.95-.28.46.43.99.58,1.6.55.4-.01.82.06,1.21.17.41.12.85.27.99.67.57.14,1.07.27,1.57.39.13.03.27.07.4.05.96-.08,1.85.15,2.65.67.74-.09,1.37.16,1.98.48.34.18.67.34,1.08.37.27.02.55.23.78.41.29.23.59.38.97.39.21,0,.44.06.63.15.96.46,1.91.95,2.87,1.41.98.48,1.95.99,2.96,1.39.66.26,1.31.52,1.89.95.2.15.51.18.77.22.59.08,1.18.13,1.78.19.11.26.2.45.3.7.57.13,1.03.51,1.46.94.43.43.94.74,1.6.66.17.16.38.28.47.46.25.52.72.72,1.18.97.65.35,1.29.72,1.9,1.13.27.18.47.45.68.71.29.37.6.65,1.02.9.6.37,1.25.75,1.61,1.39-.37,1.03-1.15,1.67-2.08,2.32-.82.12-1.57.56-2.04,1.42-.09.16-.25.29-.4.41-.25.21-.52.4-.84.65-.25.09-.59.19-.92.32-.45.17-.69.53-.77.99-.06.37-.11.75-.17,1.19.08.14.2.32.31.5-.03,0-.06.01-.08.02.28,1.27.55,2.54.86,3.95-.02.23-.07.6-.09.98-.02.33-.01.66,0,.99.03.71-.03,1.41.13,2.12.11.49-.02,1.03-.07,1.54-.05.51-.14,1.02-.22,1.6.08.18.19.43.31.69-.11.23-.21.45-.31.67.06.25.12.48.19.73-.16.33-.31.65-.46.97-.13.28.08.69-.34.9-.49-.24-.99-.49-1.64-.81-.09-.21-.24-.55-.39-.88-.45-.1-.87-.2-1.31-.29-.95-.94-1.89-1.88-2.88-2.87-.18-.03-.42-.06-.6-.09-.42-.48-.8-.93-1.21-1.41-.21-.02-.45-.05-.7-.08-.44-.41-.88-.82-1.38-1.28-.12,0-.31,0-.5,0-.35,0-.6-.13-.87-.37-.4-.36-.78-.79-1.37-.82-.21-.2-.41-.39-.64-.61h-1.2s0-.05.01-.08c-.61-.23-1.21-.47-1.83-.71-.75-.56-1.44-1.26-2.54-1.24-.32-.64-1.03-.77-1.63-.92-.88-.22-1.7-.55-2.55-.84-.31-.1-.62-.18-1.06-.31-.45-.36-1.07-.59-1.79-.56-.33.02-.64-.05-.95-.19-.34-.16-.71-.24-1.04-.35-.25.21-.44.36-.52.43-.74.15-1.35.28-2.02.41-1.21-.38-2.31.22-3.52.67-.1-.03-.28-.08-.47-.13-.17.15-.34.3-.48.42-.08.02-.13.05-.19.05-.8-.01-1.56.07-2.28.48-.65.37-1.37.52-1.91.38-.56.21-.95.33-1.31.49-.27.12-.48.36-.76.46-.61.23-1.24.41-1.95.64-.32.37-.83.56-1.37.79-.51.21-.98.46-1.57.39-.19.15-.38.3-.61.48-.91-.19-1.44.56-2.12.97h-1.33c-.04-.25-.07-.46-.1-.68-.05,0-.12-.02-.13,0-.11.18-.23.36-.3.55-.06.17-.08.36-.12.57-1.45.15-2.3,1.16-3.18,2.12-.24.13-.48.26-.7.37-.19.39-.36.76-.56,1.16-.11-.07-.21-.14-.31-.2-1.51.9-2.57,2.25-3.54,3.65-.26.05-.47.09-.73.15-.06.22-.12.45-.19.69-.47.56-.88,1.16-1.18,1.84-.17.39-.46.74-.73,1.08-.35.45-.73.88-1.02,1.22-.2.62-.37,1.13-.58,1.75-.44.36-.97.79-1.53,1.26.22,1.06-.56,1.75-1.13,2.48-.63.8-1.27,1.55-1.57,2.54-.14.47-.46.89-.57,1.36-.23,1.06-.81,1.96-1.16,2.96-.09.25-.22.49-.36.78.07.7-.1,1.36-.8,1.79-.02.32-.03.62-.05.98-.12.15-.27.34-.46.58-.13.8-.27,1.66-.43,2.65-.28.33-.71.73-.81,1.33-.02.11-.1.22-.08.31.16.78-.16,1.5-.21,2.27-.24.25-.48.51-.79.84,0,.21.02.48,0,.75-.09,1.03-.18,2.07-.19,3.11,0,.32-.26.64-.47,1.12.05,1.29-.16,2.76.14,4.36-.64,1.1-.86,2.38-.29,3.68-.07.31-.13.58-.19.83.07.17.12.34.21.47.25.39.29.81.31,1.25.04.93.13,1.85.2,2.88.05.07.15.23.28.42-.03.62,0,1.27.27,1.9.08.19.06.43.06.65,0,.75.21,1.35,1.04,1.53.08.02.14.08.27.15-.14.19-.28.37-.43.57.09.39.17.79.27,1.18.05.18.08.41.2.53.62.57.65,1.35.79,2.09.04.23.16.46.28.67.22.37.46.72.65,1.12.3.35.61.7.99,1.15.19.06.5.16.86.28-.08.11-.14.21-.23.34-.04.43.47.32.67.6-.08.26-.16.54-.25.87.72.36.97,1.09,1.34,1.74.14.25.38.48.63.62.46.27.8.56,1.08,1.06.31.55.86.98,1.33,1.44.53.51,1.09,1,1.64,1.49.37.32.75.63,1.21,1.03.04.13.13.39.21.63.73.42,1.46.84,2.14,1.23.16.3.29.54.47.85.31.09.67.19,1.05.3,1.08,1.26,2.35,2.34,3.81,3.13.42.1.81.19,1.17.28.23.22.43.41.56.52,1.17.23,2.23.44,3.29.65.77.39,1.53.77,2.3,1.16-.01.03-.02.06-.03.09h.85c.47.3.95.6,1.48.93.24-.03.56-.07.86-.11.13.17.23.29.33.42.06,0,.11.01.16,0,.58-.19,1.13.06,1.69.07.56,0,1.14-.26,1.7-.11.46.13.92.12,1.38.15.27.02.53.09.88.15.24-.07.55-.17.89-.27.15.07.32.15.51.25.4-.15.82-.23,1.3-.02.09-.11.19-.24.35-.44,1.34-.18,2.74-.53,4.23-.53.21-.21.4-.5.68-.65.27-.15.62-.15,1.05-.24.48-.51,1.2-.83,2.1-1.04.01.03.05.13.09.22.59-.1,1.14-.2,1.73-.3.67-.61,1.6-.73,2.43-1.11.15.04.3.09.46.14.18-.11.37-.23.55-.34.41-.27.76-.6,1.29-.67.22-.03.45-.22.62-.39.37-.37.79-.58,1.32-.58.12,0,.25-.1.4-.17.11-.19.23-.41.36-.63.22-.15.44-.3.7-.47.65.02,1.2-.22,1.77-.61,1.03-.72,1.98-1.53,2.92-2.35.21-.18.43-.34.7-.55.27-.42.29-1.06.78-1.43.17-.13.29-.31.46-.45.46-.38.79-.9.92-1.43.19-.74.65-1.18,1.2-1.6.17-.13.36-.25.6-.41.13-.52.4-1.01.99-1.23.04-.29.08-.56.13-.84.23-.11.46-.2.67-.31.55-.29.82-.86,1.23-1.29.77-.79,1.26-1.77,1.86-2.68.48-.72.96-1.48.99-2.5Z"/>
  <path class="cls-2" d="M101.53,167.34c-.14-.32-.29-.67-.5-1.13-.12-.09-.34-.25-.55-.4-.45-.75-1.07-1.31-1.8-1.76-.37-.23-.74-.44-.97-.84-.13-.22-.4-.34-.68-.57-.27-1.15-1.06-2.1-1.81-3.07-.21-.27-.29-.63-.34-1.01-.35-.31-.7-.62-1.04-.92-.19-.61-.36-1.18-.53-1.74.02,0,.04,0,.05-.01-.14-.32-.3-.64-.42-.97-.2-.54-.39-1.08-.57-1.62-.05-.15-.1-.31-.11-.47-.07-.57-.12-1.14-.19-1.7-.02-.16-.05-.35-.15-.46-.51-.53-.53-1.26-.82-2,.11-.21.26-.49.43-.82-.15-.16-.33-.36-.56-.61-.06-.26-.15-.58-.19-.9-.03-.33,0-.66,0-1.03-.19-.12-.39-.25-.61-.4.44-.61.59-1.14.36-1.52.04-.92.08-1.66.12-2.42.13-.15.27-.31.38-.45-.1-.74-.17-1.45.02-2.15.02-.08.06-.16.06-.24-.02-1.12.35-2.22.11-3.35-.02-.1.03-.21.04-.31.09-.73.18-1.46.28-2.31.06-.06.22-.2.45-.41-.11-.26-.22-.55-.37-.91-.01-.31.12-.67.43-.86.49-.31.61-.73.56-1.26-.01-.14,0-.27,0-.42.16-.2.32-.38.49-.59,0-.24.02-.48,0-.73-.04-.48.11-.92.29-1.35.25-.61.49-1.22.75-1.82.11-.25.27-.48.45-.79v-.61c.36-.79.67-1.4.92-2.03.54-1.37,1.06-2.75,1.58-4.13.14-.37.34-.69.77-.87.18-.88.36-1.78.56-2.76.23.12.38.2.55.28.03-.02.09-.03.12-.07.53-.8.99-1.63,1.66-2.33.26-.27.4-.65.6-.98.27-.44.54-.88.83-1.31.55-.85,1.08-1.7,1.21-2.73.02-.13.12-.24.19-.38.55-.09.93-.38,1.21-.88.2-.35.52-.62.79-.93.11-.12.27-.24.3-.37.1-.57.54-.76.96-1.03.52-.33,1-.76,1.43-1.21.27-.28.5-.54.93-.58.23-.02.5-.15.65-.32.61-.69,1.5-.99,2.1-1.59.58-.1,1.09-.18,1.64-.27.63-.38,1.3-.79,1.98-1.19.16-.1.35-.21.53-.21.65,0,1.22-.29,1.82-.46.42-.12.85-.2,1.38-.32.58-.38,1.26-.83,2.09-1.37.04,0,.25-.03.51-.05.66-.71,1.56-.39,2.38-.47.74-.42,1.42-.98,2.24-.82.64-.36,1.18-.66,1.78-.99.13.03.31.1.5.11.32.03.68.1.97.02.47-.14.96-.21,1.42-.33.5-.13.99-.25,1.5-.33.35-.05.65-.37,1.01-.59.63,0,.78.05,1.64.64h.86c.14.12.26.22.38.34.28.29.6.44,1.01.49.51.06,1,.23,1.41.59.22.19.52.27.73.37.41-.06.76-.11,1.05-.15,1.03.89,1.55,1.2,2.72,1.19.24.23.5.47.79.75.82.04,1.42.55,1.97,1.16.22.02.44.05.66.07.1.13.2.26.22.28.88.34,1.66.64,2.44.94l.11-.14c.21.25.4.53.64.76.49.48,1.01.93,1.7,1.08.3.07.48.25.62.49.14.26.27.53.42.83.86-.11,1.33.55,1.92.96.6.43,1.13.92,1.57,1.54.47.66,1.22,1,1.94,1.36.23.51.44,1.01,0,1.56-.16.03-.34.07-.4.08-.73.59-1.41,1.07-1.98,1.65-.48.48-.93.99-1.5,1.38-.09.06-.16.17-.26.2-1.06.4-1.58,1.38-2.38,2.16-.24.01-.54.03-.95.05-.27.38-.58.82-.88,1.25-.28.03-.52.05-.8.08-.16.22-.32.43-.53.71-.49.3-1.06.63-1.6.98-.16.1-.28.26-.41.4-.54.61-1.08,1.23-1.65,1.87-.25-.07-.5-.08-.64-.2-.51-.44-.98-.92-1.46-1.39-.14-.13-.25-.3-.4-.4-.95-.64-1.9-1.27-2.9-1.93-.17.03-.38.06-.41.06-.92-.35-1.68-.63-2.44-.92-.71.33-1.2-.09-1.67-.53h-.86c-.17-.11-.35-.23-.51-.32-.06,0-.09-.02-.11-.01-.82.47-1.78.18-2.54.44-.49-.06-.89-.11-1.23-.15-.87.47-.57.48-1.48.03-.58.19-1.18.38-1.77.58-.18.06-.38.13-.51.26-.81.74-1.83,1.03-2.84,1.35-.28.09-.52.29-.8.45-.3-.06-.62-.13-.96-.2-.54.67-1.21,1.01-2.08.76-.85.69-1.76,1.3-2.83,1.62-.27.47-.68.77-1.08,1.1-.62.52-1.35.91-1.85,1.57-.28.36-.63.67-.91,1.02-.37.47-.66.99-.65,1.58-.86,1.07-1.71,2.1-2.79,2.61-.5.59-.89,1.04-1.27,1.5-.5.61-1.05,1.18-1.37,1.93-.18.42-.41.82-.57,1.25-.36.44-.81.83-.76,1.48-.2.21-.38.41-.51.55-.49,1.33-1.02,2.58-.75,3.97-.72.7-.51,1.73-1.02,2.46-.03,1.07-.14,2.09-.45,3.1-.1.34-.03.76.05,1.12.1.43.25.83.21,1.28-.04.45.03.88.33,1.27-.11.18-.22.36-.37.62.2.32.41.66.66,1.07.27.9.43,1.94,1.38,2.65-.04.21-.09.45-.15.73.49.51,1.21.93,1.15,1.81,1.23,1.16,2.08,2.56,2.91,3.98.25.43.63.68,1.02.93.35.23.71.43.71.73.62.64,1.13,1.17,1.74,1.81.78.45,1.7.99,2.63,1.52.41.23.82.46,1.28.34.92.42,1.8.83,2.58,1.18.56.19,1.02.35,1.56.54.7-.16,1.48-.09,2.26.15.09.11.19.24.32.4.54-.32,1.06.04,1.59.03.35,0,.63.14.91.33.34.23.69.44,1.04.65.07.04.15.1.22.11.81.06,1.62.26,2.42.16.39-.05.74-.08,1.12.04.47.14.96.2,1.45.3.26-.14.55-.29.84-.45.21.13.39.24.56.34,1-.54,1.98-1.05,3.08-1.33.98-.25,1.88-.7,2.58-1.49.17-.19.49-.24.66-.43.35-.38.64-.79,1.08-1.1.25-.17.35-.54.54-.85.16-.03.35-.07.63-.13.14-.34.3-.73.48-1.16.14-.04.36-.11.59-.19.25-.93,1.13-1.24,1.69-1.86.09-.1.25-.14.32-.24.46-.67.91-1.36,1.38-2.07-.08-.14-.17-.3-.27-.48.27-.11.53-.21.81-.32.12-.28.24-.58.37-.88.53-.28.92-.66,1.11-1.26.08-.26.35-.46.62-.79-.02-.12-.07-.38-.12-.71.21-.11.45-.23.63-.32.22-.54.42-1.04.64-1.54.41-.92.7-1.9,1.3-2.74.27-.38.42-.83.63-1.25.28-.56.22-1.18.23-1.78.27-.37.54-.75.8-1.11-.03-1,.28-1.9.57-2.81.11-.34.23-.68.26-1.03.08-1.25.11-2.51.19-3.77.04-.66-.15-1.18-.66-1.6-.06-.05-.1-.13-.17-.22.03-.84,0-1.7-.89-2.16-.27-.99-.54-1.96-.81-2.96-.62-.38-.94-1.02-1.27-1.65-.14-.26-.3-.52-.49-.75-.38-.46-.78-.91-1.18-1.36-.36-.4-.75-.79-1.1-1.21-.16-.2-.29-.45-.35-.7-.06-.26-.01-.55-.01-.92.22-.16.49-.36.76-.55-.02-.03-.05-.06-.07-.09.19-.03.37-.07.56-.1.33-.23.53-.64,1-.68.11-.01.25-.16.29-.27.2-.51.66-.74,1.08-.96.51-.27.91-.59,1.15-1.12.09-.19.26-.35.42-.49.2-.18.44-.32.7-.51.13-.02.32-.06.53-.09.15-.25.29-.51.46-.81.56-.37,1.25-.55,1.85-.96.63-.43.86-1.12,1.37-1.61.34-.02.66-.03.95-.05.45-.2.51-.59.51-.94.52-.22,1-.36,1.41-.61.42-.25.77-.61,1.1-.88.77-.12,1.27.1,1.66.72.4.64.76,1.32,1.4,1.79.04.03.08.08.11.13.61,1.25,1.37,2.44,1.61,3.85.56.68.94,1.45,1.1,2.33.07.37.1.76.22,1.12.16.49.16.96.03,1.45-.04.16-.08.33-.06.48.08.51.19,1.01.3,1.55-.04.22-.1.49-.15.75-.05.32-.1.64-.14.96-.06.51-.14,1.02.06,1.52.04.1.09.22.07.31-.19.72-.05,1.44-.08,2.16,0,.21.04.42.07.63-.15.26-.3.51-.4.68.09.74.18,1.38.25,2.03.02.18-.03.38-.07.57-.1.5-.24.98-.11,1.51.08.32-.04.7-.09,1.21.12.31.15.76-.01,1.27-.13.39-.22.81-.15,1.27.07.4-.11.86-.22,1.27-.28,1.05-.51,2.12-1.01,3.11-.07.14-.13.31-.14.46-.04.54-.21,1.01-.66,1.37.03.51-.11.97-.33,1.42-.19.38-.24.83-.39,1.24-.26.72-.57,1.42-.82,2.14-.15.43-.22.89-.33,1.32-1.15.88-1.98,2.28-2.18,3.69-.16.13-.34.29-.5.43-.41.8-.81,1.57-1.27,2.46-.06.04-.24.16-.43.3-.02.22-.04.44-.06.72-.3.35-.6.78-.97,1.12-.47.44-.8.97-.95,1.33-.93,1.02-1.7,1.86-2.46,2.69.05.18.09.31.11.44.01.1-.01.21-.03.37-.28.03-.54.06-.85.09-.23.33-.48.69-.76,1.08v.77c-.46.22-.92.45-1.34.66-.26.51-.51,1.01-.74,1.46-.35.14-.63.25-.87.35-.4.59-.85,1.06-1.39,1.45-.44.32-.84.7-1.09,1.21-.13.26-.36.47-.55.73-1.03-.12-1.81.37-2.53.99-.1.09-.22.16-.35.22-.8.36-1.6.71-2.43,1.08-.37.5-.72,1.12-1.56.74-.33.44-.45,1.04-1.08,1.28-.19-.1-.43-.22-.69-.36-.13.09-.26.17-.39.26-.49.34-.94.67-1.58.8-.58.12-1.15.3-1.75.32-.23,0-.49.12-.67.27-.39.32-.84.39-1.13.37-1.28.48-2.42.81-3.59,1.01-.23-.18-.42-.33-.66-.51-.13.18-.27.35-.38.53-.1.16-.19.33-.27.48-1.26.33-2.05.32-3.24-.03-.4.1-.82.21-1.06.27-.67-.05-1.16-.11-1.65-.11-.45,0-.86-.05-1.26-.29-.23-.14-.5-.2-.76-.3-.51-.2-1.03-.32-1.5-.63-.32-.21-.78-.21-1.18-.27-.24-.04-.49,0-.74,0-.26-.15-.51-.31-.78-.45-.24-.13-.49-.24-.75-.37h-.83c-.52-.4-1.09-.68-1.72-.9-.48-.16-.89-.52-1.32-.8-.98-.62-1.96-1.25-3.01-1.77-.33-.17-.6-.47-.96-.78-.72-.02-1.38-.36-1.9-.98-.16-.19-.36-.39-.4-.61-.1-.51-.45-.71-.85-.92-.39-.2-.84-.38-1.09-.71-.25-.33-.56-.5-.92-.72Z"/>
  <path class="cls-2" d="M107.15,132.52c.43-.47.88-.85,1.49-.94.36-.23.09-.56.12-.82.21-.23.39-.43.57-.62.09-.54.18-1.08.24-1.45.59-.69,1.09-1.24,1.55-1.81.22-.27.43-.58.54-.91.17-.52.45-.85.99-.98.16-.04.29-.14.49-.24.27-.89.91-1.57,1.47-2.31.1-.13.2-.28.34-.35.54-.28.82-.78,1.15-1.28.17-.04.36-.07.45-.09.9-.58,1.51-1.38,2.39-1.86.51-.28.91-.76,1.44-1.23.68.08,1.43-.01,1.9-.77.95-.15,1.86-.36,2.64-.9.38.09.71.25,1.12.08.26-.11.63.02,1.07.06.57-.16.9-.17,1.56.01.41-.08.72-.31,1.07-.54.59-.38,1.27-.62,1.91-.92.12-.06.26-.09.43-.16.76.45,1.56-.11,2.31,0,.49.29.93.55,1.37.82.22-.12.43-.23.59-.31.41.27.76.49,1.1.74.33.24.65.5.98.73.68.49,1.4.95,2.05,1.48.37.29.64.7.97,1.07-.53.81-1.15,1.48-1.92,2.02-.24.17-.47.37-.7.57-.1.09-.18.22-.3.28-1.2.68-2.08,1.76-3.2,2.54-.22.15-.46.28-.73.44-.75.93-1.41,2.02-2.48,2.77-.2.34-.31.72-.15,1.17-.11.12-.23.23-.34.35h-1.39c-.37.61-.94.97-1.49,1.37-.21.15-.32.42-.55.73-.69-.01-.74,1.13-1.58,1.06-.56.55-1.11,1.03-1.88,1.21-.27.37-.52.77-.81,1.12-.22.26-.45.53-.82.66-.26.09-.53.33-.65.58-.18.38-.44.61-.79.76-.19,1.27.36,2.04,1.86,2.54.38-.28.79-.59,1.21-.88.4-.28.83-.54.99-1.06.04-.12.14-.25.25-.32.86-.5,1.34-1.46,2.3-1.83.05-.02.08-.08.16-.17.04-.15.09-.36.16-.67.26-.17.57-.37.97-.63.13-.19.31-.46.52-.78.1-.05.24-.14.39-.21.56-.24,1.04-.54,1.39-1.09.3-.48.77-.85,1.39-.96.18-.03.35-.13.51-.2.09-.37-.33-.69.04-1.13.14-.04.37-.1.65-.18.78-.73,1.5-1.62,2.61-2,.14-.27.28-.53.44-.84.34-.1.71-.2,1.09-.31.4-.38.75-.86,1.41-.93.23-.43.35-.92.76-1.24.36-.29.23-.92.84-1.19.16.01.43.03.65.04.6-.26,1.19-.5,1.81-.77.36.18.7.34,1.05.51.11.38.22.74.32,1.1.24.11.49.23.74.34-.1.66-.02,1.21.59,1.57.09.05.15.16.21.25.29.42.59.85.94,1.37.1.2.21.54.41.82.38.55.64,1.14.71,1.78.15.16.27.31.28.32.38,1.16.7,2.16,1.01,3.1-.08.34-.14.6-.17.73.18.65.38,1.17.44,1.7.08.65.09,1.29-.26,1.92-.3.54-.45,1.17-.69,1.75-.17.42-.38.83-.6,1.32.05.21.12.53.21.89-.12,0-.21-.02-.32-.03-.96,1.55-1.66,3.23-2.12,4.81-.45.6-.78,1.07-1.13,1.52-.35.45-.71.9-1.1,1.32-.48.52-.7,1.17-1.02,1.78-.07.14-.09.35-.2.43-.75.57-1.1,1.5-1.9,2.05.03.74-.48,1.04-.89,1.2-.62.64-1.11,1.15-1.6,1.67-.45.48-.91.93-1.26,1.5-.43.7-1.1,1.18-1.93,1.45-.56.19-1.07.53-1.58.83-.52.29-1.01.64-1.62.75-.13.02-.27.06-.4.05-.7-.09-1.4-.19-2.18-.29-.45.38-1,.01-1.5-.07-.69-.12-1.36-.1-2.04-.12-.3,0-.6,0-.94,0-.27-.25-.55-.51-.89-.82-.27,0-.59,0-.92,0-.36.01-.69-.05-1.04-.19-.32-.13-.69-.14-.9-.17-.95-.37-1.77-.7-2.6-1.03,0-.03.01-.05.02-.08-.45-.03-.89-.07-1.51-.11-.37-.24-.88-.58-1.39-.93.01-.02.02-.05.03-.07-.21-.04-.42-.09-.64-.13-.63-.78-1.69-1.14-2.1-2.21-.48-.03-.86-.29-1.25-.62-.65-.55-1.16-1.22-1.77-1.8-.48-.46-.73-1.06-.9-1.68-1.01-.74-1.48-1.85-2.11-2.92-.21-.07-.48-.16-.8-.27.05-.26.08-.47.08-.49-.11-.59-.16-1.02-.27-1.43-.16-.63-.37-1.25-.6-2.01.08-.66.23-1.48.14-2.32-.04-.36.12-.74.2-1.2-.15-.38,0-.85.08-1.34.09-.51-.04-1.05.05-1.56.09-.49-.45-.94,0-1.45.28-.04.6-.08.91-.12-.1-.9-.39-1.74-.24-2.68Z"/>
  <path class="cls-2" d="M187.51,72.56c.31-.08.6-.15.95-.24.13-.18.29-.39.47-.63.5-.22,1.03-.45,1.53-.67.23-.25.45-.5.61-.67.43-.1.77-.18,1.09-.26.12-.28.21-.51.31-.75.78-.21,1.36-.75,1.95-1.34.22-.03.46-.06.69-.09.71-.56,1.37-1.21,2.36-1.54.03.45.05.74.06.96-.15.34-.26.61-.39.88-.08.17-.16.37-.29.49-.53.45-.76,1.07-.94,1.7-.11.4-.31.68-.67.9-.02.22-.04.44-.06.69-.32.33-.6.71-.79,1.18-.17.42-.48.79-.73,1.18-.28.44-.4.9-.09,1.41-.28.42-.54.83-.79,1.21-.32.04-.56.08-.81.11.2.18.39.34.56.49.01.13.07.26.02.34-.3.6-.63,1.2-.94,1.79-.11.22-.33.43-.33.64-.02.78-.61,1.34-.76,2.06-.02.07-.09.14-.15.19-.75.69-1.12,1.61-1.59,2.48.07.32.15.63.23.97.15.17.31.35.45.51.69-.01,1.29,0,1.78.56.7-.14,1.41-.28,2.28-.45.28.15.75.22,1.25.26.56.04,1.1.26,1.77.43.62-.17,1.37-.28,2.01.32,1.05-.23,2.11-.66,2.97.33.36.07.68.13,1.08.2.12-.03.33-.09.52-.15.45.12.87.23,1.33.34.69-.27,1.4-.21,2.12.05.27.1.59.07.89.1.4.04.81.07,1.22.19.59-.21,1.16-.49,1.77-.61.87-.17,1.75-.2,2.53.47.02.12.04.28.06.47-.56.58-.85,1.41-1.68,1.68-.32.34-.62.65-.92.98-.33.36-.62.76-.98,1.1-.31.3-.68.54-1.08.85-.17.68-.46,1.36-1.3,1.53-.33.58-.64,1.1-1.13,1.53-.37.33-.57.86-.84,1.31-.69.24-1.13.74-1.52,1.33-.24.36-.53.69-.79,1.01-.29.04-.53.07-.82.1.02.19.04.35.06.58-.28.34-.61.73-.94,1.13-.09.1-.18.22-.3.28-1.2.57-1.65,1.75-2.35,2.84-.21.04-.49.09-.82.16-.14.6-.52.99-1.09,1.23-.19.08-.36.25-.51.4-.53.51-1.05,1.03-1.56,1.56-.13.13-.19.32-.28.48-.1.19-.19.39-.29.6-.22.05-.43.1-.75.17-.18.19-.4.48-.66.71-.42.38-.9.48-1.44.19-.38-.21-.8-.36-1.24-.55-.11-.2-.24-.44-.38-.7-.24.09-.45.23-.67.24-.2,0-.39-.14-.6-.22-.23.34-.58.42-.99.42-.51,0-1.03.05-1.65.09-.33-.26-.79-.41-1.34-.28-.42.09-.79-.06-1.15-.32-.56-.42-1.27-.47-1.92-.63-.21-.05-.47.08-.74.13-.55-.24-1.16-.14-1.76-.14-.58,0-1.16.03-1.61-.42-.04-.04-.1-.05-.15-.06-.73-.2-1.46-.39-2.29-.61-.18-.14-.43-.34-.72-.57-.21.05-.44.11-.71.17-.04-.01-.12-.04-.2-.07-.65-.26-1.22-.69-1.96-.8-.53-.08-1.01-.17-1.52.1-.39-.17-.76-.32-1.26-.53-.84.18-1.64-.45-2.54-.62-.07-.01-.12-.16-.2-.27.07-.13.13-.26.21-.36.08-.11.18-.2.33-.36-.04-.31-.09-.65-.15-1.07.07-.11.19-.29.3-.48v-.95c.1-.16.21-.34.32-.51-.22-1.02-.22-2.02-.05-2.95-.09-.73-.21-1.4-.25-2.08-.02-.32.11-.64.15-.96.14-1.03.05-2.05-.23-3.05-.1-.37-.13-.69.05-1.02-.45-1.13-.29-2.28-.32-3.45.79-.26.78-1,1-1.58.33-.2.63-.38.97-.59.17-.02.39-.04.65-.06.27-.29.57-.57.82-.9.47-.61.99-1.15,1.67-1.55.53-.31,1.12-.57,1.46-1.15.11-.19.39-.29.59-.43.62-.44,1.25-.88,1.95-1.37h1.05c.47-.49.95-1,1.56-1.65.37-.19.91-.46,1.48-.75.33-.68.94-1.05,1.68-1.27.23-.07.46-.21.62-.38.53-.56,1.23-.87,1.84-1.31.09-.06.19-.14.29-.15.66-.02,1.14-.49,1.67-.64.68-.58,1.05-1.39,1.81-1.79.22.06.4.12.56.16Z"/>
</svg>