<?xml version="1.0" encoding="UTF-8"?>
<svg id="Livello_1" data-name="Livello 1" xmlns="http://www.w3.org/2000/svg" viewBox="0 0 489 489">
  <defs>
    <style>
      .cls-1 {
        fill: #fff;
        stroke-width: 0px;
      }
    </style>
  </defs>
  <path class="cls-1" d="M279.31,216.91c3.14-4.82-.65-9.44-.29-14.15-1.92-.83-.14-3.17-1.72-4.17-2.85-1.8-3.59-5.33-6.53-7.39-2.53-1.77-4.48-4.74-6.78-7.09-.1-.1-.39-.01-.6-.01-.14-.35-.19-.81-.44-1.02-3.13-2.59-6.69-4.53-9.85-7.15-2.47-2.06-6.02-3.45-9.23-3.79-2.55-.28-4.84-1.44-7.37-1.45-2.84,0-5.67,0-8.51,0s-5.51,0-8.27,0c-.83,0-1.58.1-1.5,1.22-3.45-.41-6.5,1.28-9.76,1.88-.03,0,0,.37,0,.56q-4.99,1.25-9.76,4.88c-2.26.84-4.49,1.72-3.66,4.88,2.55,1.18,4.28.72,4.82-2.13.05.03.09.06.14.09,4.31-.34,7.68-2.27,10.03-5.91-.01-.16-.06-.29-.09-.42,3.42,2.25,6.75.18,10.1-.42.52-.24.93-.57,1.25-.97h2.38c1.64.48,3.4.32,5.09.55,10.39.89,20.41,2.82,28.88,9.57,1.09.87,2.47,1.51,3.97,1.06-.01.06-.02.12-.03.19,1.41,4.54,5.57,7.39,7.29,11.71,4.2,10.59,9.83,21.18.37,31.99-1.18,1.35-1.25,3.3-1.38,5.1-.27-.13-.54-.27-.81-.4-.07-1.5.28-2.97-1.12-4.31-1.15-1.09-1.71-2.8-2.54-4.23-1.36.02-3.24-.15-2.01,2.03,1.14,2.02,2.02,4.05,2.51,6.28.1.43,1.16.47.38,1.32-1.12,1.21-1.03,3.69-3.22,3.71-1.76.02-3.17-1.84-3.46-2.99-.76-2.97-2.16-5.95-1.42-9.19.31-1.35,2.68-3.41,4.28-3.59.97-.11,1.96-.03,2.94-.02-1.23-2.49-2.93-4.15-6-3.67-1.5.23-2.61.02-2.8-1.97-.07-.74-1.22-.64-1.98-.08-1.27.94-2.11,2.54-1.33,3.59,2.07,2.79.98,5.79,1.02,8.65.04,2.43.69,4.52,1.66,6.62,3.77,8.14,6.88,7.38,12.32,4.36-.09.26-.19.53-.28.79-1.97,13.76-8.8,23.65-22.42,28.13-1.92.88-3.97.77-6,.75-1.2,0-2.4-.03-3.6,0-2.44.05-4.89.1-7.25-.66-1.61-.28-3.18-.35-4.64.58-.08.07-.12.14-.18.21.24-2.02-1.45-2.61-2.82-3.05-5.95-1.94-10.9-5.6-15.39-9.65-11.09-9.99-20.27-21.02-19.39-37.46.6-11.33,1.88-22.25,9.37-31.46.89-1.09,1.55-2.39,1.66-3.87-.1-.28-.19-.57-.29-.85-1.56.06-3.04-.26-4.4,1.24-2.12,2.32-3.89,4.82-5.36,7.56-1.24,2.33-2.98,4.55-3.56,7.04-1.32,5.65-1.45,11.52-2.41,17.27-.7,4.15-.14,8.51-.13,12.77,0,.58,2.11,8.17,2.44,8.74,3.32,5.68,6.39,11.48,11.4,16.03,5.22,4.74,9.67,10.26,16.58,13,3.47,1.38,8.65,3.89,12.29,4.18.1,1.82,1.52,1.04,2.44,1.22-.08,1.08.63,1.22,1.46,1.22,1.55,0,3.1,0,4.64,0,2.64,0,5.3-.16,7.92.05,2.62.2,4.77-1.39,7.42-1.47,2.65-.09,5.69-1.3,7.78-2.99,3.69-2.98,7.11-6.34,10.66-9.51,1.9-1.7,5.12-3.54,4.05-7.26,2.42-1.76.28-4.66,1.64-6.63,1.32-1.92,2.96-3.63,4.23-5.58.49-.76,1.09-1.74,1.25-2.5,1.37-6.36,5.02-12.27,3.89-19.14-.13-.79-.34-1.83.03-2.4Z"/>
  <path class="cls-1" d="M232.88,234.1c0,.97-.3,2.07.06,2.87.74,1.61,2.39.49,3.6.79v1.22c-1.83.1-1.04,1.51-1.22,2.44-1.47,1.67-2.89,3.37-4.42,4.98-.49.52-.6,1.1-.43,1.6.32.93,1.23.73,2,.73,1.63,0,2.83-1.05,2.74-2.41-.11-1.59,1.14-2.39,1.33-3.69,2.35-.57.76-2.46,1.22-3.66.34-.14.88-.18,1-.43,1.19-2.39-1.16-4.76.02-7.4.37-.83-1.57-3.83-2.65-3.94-3.44-.36-4.92-2.98-7.06-4.86-.71-.63-1.46-.75-2.02-.02-.27.35-.29,1.38-.04,1.55,3.58,2.5,4.3,6.6,5.88,10.22Z"/>
  <path class="cls-1" d="M221.87,183.15c.15-.21-.05-.76-.2-1.1-.23-.52-.44-.13-.87.01-2.33.78-4.69,1.57-7.1,1.98-3.15.53-2.66,4.22-5.01,5.34-.06.03,0,.27,0,.81,5.78.14,9.9-2.65,13.18-7.04Z"/>
  <path class="cls-1" d="M233.27,214.52c-1.44.18-2.91-.48-2.85,1.59.04,1.32.03,2.18,1.85,2.2,3.33.03,6.4,1,8.67,3.7.37.44.84.84,1.35,1.08.29.14.79.02,1.11-.14.68-.33.68-1.24.43-1.56-2.83-3.56-6.51-5.8-10.56-6.87Z"/>
  <path class="cls-1" d="M218.26,229.29c-1.46.03-2.42,1.13-2.46,2.73-.02.8-.09,1.61.02,2.39.16,1.08,1.05.91,1.83.91.79,0,1.65.16,1.8-.95.08-.59.01-1.2.01-1.8,0-.2.05-.41,0-.6-.28-.97.8-2.74-1.19-2.69Z"/>
  <path class="cls-1" d="M218.78,248.65c-.64-.33-.43-1.48-.57-1.52-1.59-.4-2.43-2.69-4.45-1.81-.24.1-.49.76-.38,1.01.73,1.66,1.92,2.94,3.64,3.59.53.2,1.21.03,1.82.03.57-.08,1.52.28,1.59-.44.11-1.18-1.08-.57-1.65-.87Z"/>
  <path class="cls-1" d="M266.54,201.02c.23-.04.35-.63.51-.96-.37-2.03-3.58-4.31-5.33-3.74-.26.08-.61.69-.6.7,1.33,1.16,2.17,2.66,3.12,4.1.22.34,1.53.06,2.3-.1Z"/>
  <path class="cls-1" d="M249.07,241.37c-1.36.11-1.67.68-1.54,1.85.21,1.82,1.56,3.37,2.78,3.06,1.43-.36.71-1.59.8-1.98.34-2.11,0-3.09-2.04-2.93Z"/>
  <path class="cls-1" d="M248.76,255.2c.25,1.02,1.13.76,1.87.87,1.89.28,1.86-.91,1.79-1.96-.02-1.05-.12-1.83-1.25-1.71-1.19.13-2.65,1.81-2.41,2.8Z"/>
  <path class="cls-1" d="M237.79,258.5c-.87.08-2.04-.51-2.45.82-.26.86.49,1.33.91,1.97,1.24,1.91,1.69-.8,2.7-.39.53.21,1.03-.06,1.09-.78-.82-.43-1.06-1.72-2.25-1.61Z"/>
  <path class="cls-1" d="M202.4,244.01c3.23,5.89,7.11,9.43,11.58,10.79.5.15,1.27.31,1.63-.4.4-.78.2-2.04-.49-1.91-2.34.44-1.19-2.43-2.56-2.5-1.94-.1-3.16-1.63-3.61-2.8-1.19-3.09-3.39-5.47-4.93-8.3-1.27-2.33-1.89-4.64-1.65-7.24h0c.93-.18,2.34.6,2.44-1.22h0c1.46-.87,1.67-2.07,1.85-3.78.28-2.64.39-5.52,1.94-7.88,1.21-1.84,3.21-2.8,5.05-3.92.52-.32,1.6-1.11.04-1.46-2.93-.66-3.48-3.42-4.98-5.33-.53-.68-.35-1.92.44-1.94,3.69-.12,7.56-.79,10.65,2.11.88.83,1.62,1.83,3.05,1.47.37-.09.78-.1,1.11-.25.49-.23.34-.46-.09-.86-1.78-1.63-3.39-4.52-5.27-4.69-2.58-.24-4.73-1.8-7.39-1.59-2.35.18-4.34,1.42-6.78,1.56-1.71.1-4.21,2.45-4.3,4.47-.14,2.79-1.78,5.1-1.52,8.01.41,4.63.49,9.36,0,13.97-.54,5.2,1.46,9.46,3.79,13.69ZM204.81,208.49h0c1.15-.09,1.15.7,1.24,1.51.07.61.45,1.06,1.2.92h0c.41.83.99,1.61,1.18,2.49.25,1.15-2.05,4.65-2.91,4.73-.52.05-3.09-3.01-3.13-3.87-.11-2.3.12-4.49,2.43-5.79Z"/>
  <path class="cls-1" d="M235.94,210.59c1.58,1.9,4.94,2.49,7.38,3.95,1.86,1.11,3.18-1.01,4.93-1.26,6.41-.91,9.08-4.17,9.04-11.64,0-.08.15-1.36-.26-2.42-.18-.46-.8-2.21-2-1.19-1.26,1.06-2.06.8-2.98-.27-1.55-1.79-3.8-2.67-5.61-4.19-3.51-2.95-8.27-3.01-12.55-3.19-3.36-.14-4.79,2.37-4.64,6.05.22,5.63,3.35,10.15,6.69,14.17ZM235.47,193.95c3.27.76,6.96.47,9.48,3.68,1.47,1.88,4.17,2.35,5.34,5.02,2.26,5.15.76,8.16-4.73,8.27-.61.01-1.22,0-2.34,0-2.66.63-4.29-.67-6.01-3.5-1.46-2.42-3.28-4.67-4.64-7.25-.51-.97-.69-1.79-.69-2.77,0-2.48,1.21-4,3.58-3.45Z"/>
</svg>