<?xml version="1.0" encoding="UTF-8"?>
<svg id="Livello_1" data-name="Livello 1" xmlns="http://www.w3.org/2000/svg" viewBox="0 0 489 489">
  <defs>
    <style>
      .cls-1 {
        fill: #fff;
        stroke-width: 0px;
      }
    </style>
  </defs>
  <path class="cls-1" d="M283.43,226.38c.03-3.95-1.24-7.61-2.82-11.09-2.07-4.55-4.37-9.03-8.24-12.42-.76-.67-1.35-1.42-1.45-2.75-.88,0-1.29-.21-1.75-.39-3.53-1.41-6.41-4.1-10.14-5.1-2.8-.75-5.5-1.87-8.5-1.69-1.51.09-3.16.32-4.52-.16-4.44-1.57-8.53-1.2-12.61,1.17-2.72,1.57-5.56,3.04-8.53,4.03-1.74.58-3.12,1.55-4.67,2.33-3.11,1.58-4.47,4.67-6.83,6.81-3.03,2.74-4.55,6.29-6.35,9.69-1.17,2.22-1.34,4.85-2.13,7.27-1.65,5.02-3.83,9.85-3.42,15.52.44,6.05,2.18,11.53,6.05,15.87,4.02,4.51,7.62,9.58,12.79,12.93,3.84,2.48,7.59,5.05,12.07,6.6,4.14,1.43,8.53,1.33,12.57,2.9.3.12.83.16.99,0,1.35-1.47,3.1-.95,4.71-.99,7.95-.19,14.8-2.78,20.48-8.58,2.58-2.63,4.08-6.15,7.15-8.18.16-1.06.19-1.93.65-2.92,2.68-5.7,3.99-11.82,4.44-18.06.31-4.23.03-8.51.07-12.77ZM279.33,234.53c.01,2.39-.05,4.77.02,7.16.07,2.16-1.67,3.99-1.04,6.22-2.1,5.11-2.72,10.88-6.97,15.02-.9.88-1.34,2.22-2.22,3.14-3.55,3.75-7.74,5.86-13,6.93-5.73,1.16-11.4,1.02-16.97.62-5.71-.41-10.94-3.16-15.48-6.88-2.96-2.43-5.97-4.77-8.63-7.57-2.06-2.17-3.89-4.6-5.57-6.96-1.94-2.72-2.99-6.31-3.59-9.67-.29-1.61-1.34-2.9-1.28-4.66.1-2.84,1.44-5.27,1.94-7.88.5-2.57,2.3-4.48,2.44-7.29.12-2.28,1.57-4.69,2.76-6.97,3.95-7.6,8.98-14.3,18.96-16.72.69-.17,1.84-.77,2.02-1.07,1.37-2.25,3.88-1.53,5.7-2.46,2.11-1.07,4.01-.53,6.04.44.97.46,2.35.09,3.54.08,1.8-.02,3.65-.26,4.94,1.26.62-.57.99-.9,1.32-1.2,1.27,1.05,2.55,1.98,4.31,2,.8,0,1.66-.3,2.35.49,2.09,2.38,5.87,1.82,7.81,4.66,1.17,1.72,2.93,3.03,2.92,3.28,1.53,2.6,1.53,3.45,1.53,4.28,1.58,2.06,4.1,3.29,4.49,6.4.12.97.45,2.16.63,3.27.44,2.71.88,5.42,1.37,8.13.05.28.44.49.91.99-1.51,1.3-1.28,3.14-1.27,4.95Z"/>
  <path class="cls-1" d="M214.82,245.8c.45-.51.75-.86.94-1.07-1.96-3.73-3.06-7.54-2.88-11.65.11-2.54-.5-4.71-3.08-6.63,0,3.26-.19,6.12.07,8.93.16,1.72.6,3.56,1.13,5.12.9,2.64,1.25,5.53,2.87,7.95,1.94,2.9,3.68,5.93,5.58,8.85.14.21.88.03,1.47.03v-3.4c-2.26-2.63-2.68-6.52-6.09-8.12Z"/>
  <path class="cls-1" d="M246.35,254.02c-.86-1.05-1.6-1.96-2.17-2.66-1.58-.32-2.08,1.43-3.71,1.03.15,1.95-1.79,2.93-1,4.46,1.23,1.27,2.4,2.48,3.54,3.66h4.12c.54-.78,1.75-1.13,1.52-2.42-.66-.66-1.01-1.76-2.24-1.68-.5.31-.99.61-1.48.91-.49-.52-.93-.99-1.33-1.42.6-1.28,1.98-1.4,2.76-1.88Z"/>
  <path class="cls-1" d="M235.36,265.02c2.49,1.9,5.47,2.5,8.34,3.29,3.27.91,6.59.13,9.98.47v-1.84c-6.03-1.13-11.98-2.24-18.32-3.42v1.5Z"/>
  <path class="cls-1" d="M259.47,234.88c-2.56.17-4.91.03-7-1.69-.83-.68-2.1-.75-2.99.67,2.62,4.11,6.68,4.19,10.79,4.1.22,0,.44-.41.57-.55.41-1.17-.6-1.5-1.37-2.53Z"/>
  <path class="cls-1" d="M229.32,228.79c.98-.96,1.99-1.96,2.83-2.79v-2.91c-.88-1.26-1.88-1.69-3.43-1.41-1.5.89-1.43,2.62-2.48,3.61,1.24.96.94,3.24,3.08,3.51Z"/>
  <path class="cls-1" d="M238.95,226.71c.55-.55,1.04-1.03,1.52-1.52,0-1.52-1.02-1.78-1.61-2.73-.34,1.03-1.67,1.19-1.39,2.96.29.26.89.77,1.48,1.28Z"/>
  <path class="cls-1" d="M263.99,203.19c.28-.11.77-.18.81-.35.14-.61-.31-.71-.81-.68-.25-1.44-1.04-1.2-1.97-.63.52.73.96,1.52,1.97,1.65Z"/>
  <path class="cls-1" d="M270.13,205.24c-.71-.03-1.05.32-1.02,1.02.11.28.18.77.35.81.61.14.71-.31.68-.81v-.44c.28.05.74.24,1.53.7-.78-.46-1.24-.65-1.53-.71v-.57Z"/>
  <path class="cls-1" d="M268.31,216.16c-1.04-.85-1.5-1.89-2.75-1.72-1.41.19-2.41-.77-2.52-1.87-.38-3.68-2.61-5.76-6.03-7.31h-10.99c-1.94,2.81-5.75,3.71-7.52,6.75v2.05q2.98.69,5.02,3.96v5.67c2.75-.37,3.12,3.08,5.08,2.9,2.3-.21,2.98,1.83,4.67,2.46,1.74.64,3.34,1.76,5.31,1.97.42,1.22.75,2.53,2.32,2.88,1.09-.14,1.61-.98,2.08-1.85.83-1.54-1.2-2.29-1.04-3.65,1.1-.58.6-2.21,2.41-2.95.76-.79,1.38.99,2.42,1.1.48-.7,1.49-1,1.31-2.2-.67-1-2.46-.7-3-2.3v-3.34c.86-.67,2.04-1.59,3.24-2.54ZM256.69,221.85c-2.18-1.09-4.46-1.89-6.35-3.25-2.85-2.05-3.68-4.74-3.47-9.02,1.06-1.35,2.68-1.68,3.96-2.26,1.74-.37,2.63,2,4.23.8,3.5,3.09,4.94,7.18,7.28,12.11-3.21-1.74-3.91.97-5.65,1.62Z"/>
  <path class="cls-1" d="M231.91,240.12h-4.89c-1.25,1.02-2.16,1.76-2.97,2.42.22,1.68-.31,3.2.26,4.33,2.22,2.43,4.8,2.53,7.49,2.34,1.82-1.75,2.75-3.89,2.54-6.21-.99-1.17-1.84-2.17-2.44-2.88ZM227.18,243.89c.4-1.65,1.77-.2,2.46-1.11.7,1.47,1.08,2.26,1.46,3.05q-2.46.14-3.92-1.94Z"/>
</svg>