<?xml version="1.0" encoding="UTF-8"?>
<svg id="Livello_1" data-name="Livello 1" xmlns="http://www.w3.org/2000/svg" viewBox="0 0 489 489">
  <defs>
    <style>
      .cls-1 {
        fill: #333;
      }

      .cls-1, .cls-2, .cls-3, .cls-4, .cls-5, .cls-6, .cls-7, .cls-8, .cls-9, .cls-10, .cls-11, .cls-12, .cls-13, .cls-14, .cls-15, .cls-16, .cls-17, .cls-18, .cls-19, .cls-20, .cls-21, .cls-22, .cls-23, .cls-24, .cls-25, .cls-26, .cls-27, .cls-28, .cls-29, .cls-30, .cls-31, .cls-32, .cls-33 {
        stroke-width: 0px;
      }

      .cls-2 {
        fill: #1f1f1f;
      }

      .cls-3 {
        fill: #282828;
      }

      .cls-4 {
        fill: #030303;
      }

      .cls-5 {
        fill: #5d5d5d;
      }

      .cls-6 {
        fill: #3e3e3e;
      }

      .cls-7 {
        fill: #1b1b1b;
      }

      .cls-8 {
        fill: #141414;
      }

      .cls-9 {
        fill: silver;
      }

      .cls-10 {
        fill: #191919;
      }

      .cls-11 {
        fill: #1a1a1a;
      }

      .cls-12 {
        fill: #4f4f4f;
      }

      .cls-13 {
        fill: #101010;
      }

      .cls-14 {
        fill: #171717;
      }

      .cls-15 {
        fill: #040404;
      }

      .cls-16 {
        fill: #232323;
      }

      .cls-17 {
        fill: #0d0d0d;
      }

      .cls-18 {
        fill: #424242;
      }

      .cls-19 {
        fill: #070707;
      }

      .cls-20 {
        fill: #1c1c1c;
      }

      .cls-21 {
        fill: #0f0f0f;
      }

      .cls-22 {
        fill: #7a7a7a;
      }

      .cls-23 {
        fill: #080808;
      }

      .cls-24 {
        fill: #fefefe;
      }

      .cls-25 {
        fill: #151515;
      }

      .cls-26 {
        fill: #3c3c3c;
      }

      .cls-27 {
        fill: #131313;
      }

      .cls-28 {
        fill: #414141;
      }

      .cls-29 {
        fill: #212121;
      }

      .cls-30 {
        fill: #090909;
      }

      .cls-31 {
        fill: #121212;
      }

      .cls-32 {
        fill: #202020;
      }

      .cls-33 {
        fill: #e6e6e6;
      }
    </style>
  </defs>
  <path class="cls-4" d="M274.39,192.66c.56,0,1.11,0,1.67,0,.68,1.91,1.82,3.5,3.62,4.43,2.97,1.54,5.28,3.81,6.43,6.85,1.06,2.77,3.63,4.22,4.9,6.85,1.52,3.15,3.85,5.89,3.42,9.71-.1.89.24,1.63.68,2.5,1.51,2.93,1.17,6.41,2.5,9.51.48,1.11-.63,3.07-1.14,4.41-1.02,2.67-.88,5.27-.94,7.94-.02.93-.06,1.86,0,2.78.39,5.05-.86,9.81-2.12,14.66-1.18,4.53-2.81,8.83-4.59,13.11-.46,1.11-.96,2.37-1.83,3.1-3.54,2.94-5.62,7.15-9.02,10.16-3.25,2.88-5.45,6.94-9.71,8.68-3.95,6.72-11.68,7.35-17.59,10.92-2.7-.21-5.02,1.49-7.78,1.39-5.36-.2-10.73-.04-16.1-.07-1.59,0-3.01-.13-4.59-1.01-5.09-2.82-11.04-3.79-16.01-6.85-3.06-1.88-6.84-2.99-8.61-6.61-.39-.35-.72-.76-1.11-1.11-.36-.38-.73-.75-1.11-1.11-.36-.38-.73-.75-1.11-1.11-.32-.36-.5-.78-.52-1.26.09-.48.34-.86.72-1.15.23-.05.46-.11.68-.16.46.09.89.27,1.29.53.19.14.37.28.56.42.38.27.75.56,1.13.84.21.11.41.24.63.35.7.31,1.4.58,2.1.89,7.14,5.53,15.16,9.57,23.85,11.47,13.9,3.04,27.19,1.52,38.83-7.83,6.98-5.61,12.93-12.17,18.48-19.12,4.7-5.88,5.49-13.28,7.08-20.29,1.92-8.47,1.36-17.26,1.99-25.84.83-11.2-4.82-21.01-13.25-28.83-2.51-2.33-5.81-4.17-6.18-8.17.54-1.38,1.4-1.87,2.74-.95Z"/>
  <path class="cls-23" d="M195.37,289.55c-.77-.03-1.14.34-1.11,1.11-.37.34-.74.34-1.11,0-1.21-2.08-3.19-3.53-4.45-5.57-.36-.38-.73-.75-1.11-1.11-.8-1.07-1.38-2.3-2.23-3.34-1.86-.86-2.95-2.3-3.72-4.22-1.2-3.01-3.83-5.18-4.39-8.73-.44-2.84-1.29-5.74-2.07-8.53-1.31-4.68-1.22-9.36-.8-13.95.36-3.94.34-8.04,1.96-11.86.88-2.08-1.02-4.77,1.2-6.69.16-5,3.12-9.03,4.68-13.55.07-.21.6-.27.91-.4.67-.59.48-1.62,1.11-2.23,1.53-2.5,4.09-4.14,5.56-6.68.38-.36.75-.73,1.11-1.11.85-1.04,1.42-2.27,2.23-3.34.38-.36.75-.73,1.11-1.11.38-.36.75-.73,1.11-1.11.38-.36.75-.73,1.11-1.11.38-.36.75-.73,1.11-1.11.38-.36.75-.73,1.11-1.11.38-.36.75-.73,1.11-1.11.38-.36.75-.73,1.11-1.11.61-.64,1.64-.44,2.23-1.11.38-.36.75-.73,1.11-1.11.61-.64,1.64-.44,2.23-1.11.38-.36.75-.73,1.11-1.11.35-.32.76-.49,1.23-.52.23.02.46.04.69.06.18.14.37.28.55.41.06.22.13.44.2.66-.04.23-.07.45-.11.68-.18.42-.42.8-.7,1.16-.14.17-.3.34-.44.51-.29.33-.62.63-.95.92-.65.56-1.37,1.03-2.1,1.48-.33.25-.68.48-1.01.72-.16.14-.32.26-.48.4-.3.29-.62.55-.94.82-.64.53-1.34.99-2.05,1.43-.33.25-.67.49-1,.73-.15.14-.32.27-.47.4-.29.29-.6.57-.91.84-.59.57-1.19,1.13-1.75,1.73-.39.48-.74.98-1.05,1.51-.19.38-.41.73-.64,1.08-.23.36-.49.7-.75,1.04-.12.18-.25.35-.37.53-.22.38-.47.74-.71,1.1-.61.93-1.31,1.78-2.07,2.59-.28.33-.59.63-.91.93-.15.15-.31.29-.46.44-.29.3-.6.58-.92.86-.44.43-.89.85-1.3,1.31-.37.51-.67,1.05-.94,1.63-.17.43-.36.83-.55,1.25-.28.69-.56,1.36-.86,2.05-8.02,21.82-11.44,43.38,3.38,63.97.25.43.48.89.7,1.33.13.2.24.42.36.62.27.38.54.77.82,1.14.15.17.3.35.45.52.33.32.64.66.95.99.17.16.32.33.49.48.34.31.65.65.97.99.78,1.09,2.12,1.98,1.41,3.64Z"/>
  <path class="cls-17" d="M214.29,183.75h1.11c.59-.67,1.65-.42,2.23-1.11.61-.64,1.64-.43,2.23-1.11.6-.65,1.65-.41,2.23-1.11h1.11c.9-1.01,2.46-.04,3.34-1.11,3.35.02,6.44-1.65,9.93-1.2,3.23.41,6.55.1,9.83.08,2.56-.01,5.03.26,6.95,2.23.19,1.77-1.19,1.99-2.37,2.41-7.51.3-15.05-1.26-22.55.22-1.02.03-2.05-.03-3.05.19-.43.12-.87.21-1.31.3-.8.18-1.62.34-2.4.63-.35.16-.71.3-1.06.44-.51.23-1.02.47-1.52.73-.33.18-.67.34-1.01.49-.51.26-1.01.53-1.51.81-.35.21-.71.38-1.07.56-.57.3-1.14.56-1.76.75-.66.18-1.33.23-2.02.16-.72-.11-1.3-.47-1.78-1-.37-.25-.49-.49-.37-.74.12-.25.24-.37.37-.37.61-.64,1.64-.43,2.23-1.11.6-.65,1.65-.41,2.23-1.11Z"/>
  <path class="cls-27" d="M251.02,181.52c.84-.17,2.13.55,2.23-1.11,6.04,1.23,11.21,4.27,16.11,7.82,1.8,1.31,4.34,1.84,5.04,4.43-.84.17-2.13-.55-2.23,1.11-.76.74-1.75.85-2.51.28-5.6-4.18-11.98-7.03-17.89-10.68-.68-.42-.97-1.04-.75-1.85Z"/>
  <path class="cls-27" d="M189.81,203.8c-.14.68.34,1.47-.37,2.04-1.82,1.45-2.94,3.68-5.2,4.64.14-.68-.34-1.47.37-2.04,1.82-1.45,2.94-3.68,5.2-4.64Z"/>
  <path class="cls-25" d="M188.69,285.09c1.99,1.45,4.44,2.53,4.45,5.57-1.99-1.45-4.44-2.53-4.45-5.57Z"/>
  <path class="cls-25" d="M185.35,280.64c1.76.44,2.4,1.61,2.23,3.34-1.76-.44-2.4-1.61-2.23-3.34Z"/>
  <path class="cls-27" d="M193.14,199.34c.18,1.73-.47,2.9-2.23,3.34-.18-1.73.47-2.9,2.23-3.34Z"/>
  <path class="cls-29" d="M226.53,179.3c-.52,2.15-2.24.69-3.34,1.11.52-2.15,2.24-.69,3.34-1.11Z"/>
  <path class="cls-29" d="M217.63,182.64c-.09,1.67-1.38.95-2.23,1.11.09-1.67,1.38-.95,2.23-1.11Z"/>
  <path class="cls-27" d="M212.06,184.86c-.09,1.67-1.38.95-2.23,1.11.09-1.67,1.38-.95,2.23-1.11Z"/>
  <path class="cls-29" d="M219.85,181.52c-.09,1.67-1.38.95-2.23,1.11.09-1.67,1.38-.95,2.23-1.11Z"/>
  <path class="cls-27" d="M184.24,210.48c-.17.84.55,2.13-1.11,2.23.17-.84-.55-2.13,1.11-2.23Z"/>
  <path class="cls-14" d="M203.16,190.43c-.09,1.67-1.38.95-2.23,1.11.09-1.67,1.38-.95,2.23-1.11Z"/>
  <path class="cls-14" d="M206.5,188.2c-.09,1.67-1.38.95-2.23,1.11.09-1.67,1.38-.95,2.23-1.11Z"/>
  <path class="cls-27" d="M214.29,183.75c-.09,1.67-1.38.95-2.23,1.11.09-1.67,1.38-.95,2.23-1.11Z"/>
  <path class="cls-29" d="M222.08,180.41c-.09,1.67-1.38.95-2.23,1.11.09-1.67,1.38-.95,2.23-1.11Z"/>
  <path class="cls-14" d="M200.94,191.55c.03.77-.34,1.14-1.11,1.11-.03-.77.34-1.14,1.11-1.11Z"/>
  <path class="cls-27" d="M190.92,202.68c.03.77-.34,1.14-1.11,1.11-.03-.77.34-1.14,1.11-1.11Z"/>
  <path class="cls-14" d="M208.73,187.09h-1.11c-.03-.77.34-1.14,1.11-1.11.29.25.38.49.29.74-.09.25-.19.37-.29.37Z"/>
  <path class="cls-27" d="M194.26,198.23c.03.77-.34,1.14-1.11,1.11-.03-.77.34-1.14,1.11-1.11Z"/>
  <path class="cls-27" d="M208.73,187.09v-1.11h1.11v1.11h-1.11Z"/>
  <path class="cls-14" d="M195.37,197.11c.03.77-.34,1.14-1.11,1.11-.03-.77.34-1.14,1.11-1.11Z"/>
  <path class="cls-14" d="M196.48,196c.03.77-.34,1.14-1.11,1.11-.03-.77.34-1.14,1.11-1.11Z"/>
  <path class="cls-14" d="M207.61,187.09c.03.77-.34,1.14-1.11,1.11-.03-.77.34-1.14,1.11-1.11Z"/>
  <path class="cls-14" d="M204.27,189.32c.03.77-.34,1.14-1.11,1.11-.03-.77.34-1.14,1.11-1.11Z"/>
  <path class="cls-14" d="M197.6,194.89c.03.77-.34,1.14-1.11,1.11-.03-.77.34-1.14,1.11-1.11Z"/>
  <path class="cls-14" d="M198.71,193.77c.03.77-.34,1.14-1.11,1.11-.03-.77.34-1.14,1.11-1.11Z"/>
  <path class="cls-14" d="M199.82,192.66c.03.77-.34,1.14-1.11,1.11-.03-.77.34-1.14,1.11-1.11Z"/>
  <path class="cls-25" d="M187.58,283.98c.77-.03,1.14.34,1.11,1.11-.77.03-1.14-.34-1.11-1.11Z"/>
  <path class="cls-25" d="M193.14,290.66h1.11v1.11c-.77.03-1.14-.34-1.11-1.11Z"/>
  <path class="cls-25" d="M194.26,291.77c.77-.03,1.14.34,1.11,1.11-.77.03-1.14-.34-1.11-1.11Z"/>
  <path class="cls-25" d="M195.37,292.89c.77-.03,1.14.34,1.11,1.11-.77.03-1.14-.34-1.11-1.11Z"/>
  <path class="cls-25" d="M196.48,294c.77-.03,1.14.34,1.11,1.11-.77.03-1.14-.34-1.11-1.11Z"/>
  <path class="cls-24" d="M251.02,181.52c1.31,1.78,3.85,1.17,5.22,2.55,1.43,1.44,3.16,2.16,4.87,3.01,3.16,1.57,6.4,3.01,8.59,5.93.68.91,1.56.77,2.46.76,1.42,2.66,3.72,4.6,5.96,6.37,3.64,2.88,6.15,6.55,8.43,10.39,1.23,2.07,4.1,3.15,3.75,6.29-.05.48.98,1.47.75,2.39-.73,2.98,1.63,5.52,1.13,8.45,1.99,1.57.82,3.75,1.12,5.64-2.06,1.89-2.64,4.33-2.18,6.88.65,3.62.06,7.19.09,10.77.04,5.28-2.04,10.01-2.77,15.05-1.73,1.25-.43,3.28-1.41,5.01-2,3.56-3.59,7.26-6.83,9.96-1.22,1.02-2.32,2.14-2.85,3.82-.34,1.1-2.11,1.52-1.89,3.1-3.28,1.07-4.59,4.79-7.54,5.96-2.3.91-2.79,3.19-4.73,4.38-1.71,1.05-4.01,1.15-5.35,3.44-.81,1.39-3.88,1.26-5.48,2.43-1.99,1.46-4.54.34-6.46,2.03-.73.64-2.5.1-3.8.1-5.75,0-11.49,0-17.41,0-.93-2.6-4.02-1.72-5.68-3.34-6.99-.65-12.26-4.71-17.44-8.89-.93-.75-1.69-1.33-2.88-1.14-.33-.41-.74-.74-1.11-1.11-.36-.38-.73-.75-1.11-1.11-.37-.37-.7-.78-1.11-1.11-.74-1.11-1.48-2.23-2.23-3.34-.39-.35-.72-.76-1.11-1.11-.36-.38-.73-.75-1.11-1.11-.36-.38-.73-.75-1.11-1.11-.37-.37-.7-.78-1.11-1.11-1.31-3.66-4.26-6.3-5.94-9.76-1.98-4.09-3.17-8.33-4.22-12.73-.81-3.41-.94-6.73-.95-10.13,0-2.01-.51-4.4.39-5.91.95-1.59-2.13-3.48.71-4.37.24-1.91-.75-4.06,1.11-5.65-.26-3.97,1.08-7.58,2.08-11.34.78-2.94,2.53-5.27,3.49-8.02.42-.32.71-.77,1.11-1.11v-1.11c.42-.32.71-.77,1.11-1.11-.03-.77.34-1.14,1.11-1.11.35-.39.76-.72,1.11-1.11.39-.35.72-.76,1.11-1.11.74-1.11,1.48-2.23,2.23-3.34.41-.33.74-.74,1.11-1.11.39-.35.72-.76,1.11-1.11v-1.11c.42-.32.71-.77,1.11-1.11.27-1.21,1.01-1.96,2.23-2.23.35-.39.76-.72,1.11-1.11.37-.37.78-.7,1.11-1.11.74-.37,1.48-.74,2.23-1.11.35-.39.76-.72,1.11-1.11.37-.37.78-.7,1.11-1.11.74-.37,1.48-.74,2.23-1.11.35-.39.76-.72,1.11-1.11.38-.36.75-.73,1.11-1.11.56-.73,1.67-.38,2.23-1.11h2.23c.34-.4.79-.69,1.11-1.11h1.11c.34-.4.79-.69,1.11-1.11h1.11c.34-.4.79-.69,1.11-1.11h1.11c.59-.68,1.66-.4,2.23-1.11h1.11c.59-.68,1.66-.4,2.23-1.11,2.99-.28,5.93.21,9.01-.9,2.01-.72,4.71-.45,7.29.68,2.31,1.02,5.43.21,8.19.21Z"/>
  <path class="cls-23" d="M195.37,289.55c.77-.03,1.14.34,1.11,1.11-.77.03-1.14-.34-1.11-1.11Z"/>
  <path class="cls-23" d="M196.48,290.66c.77-.03,1.14.34,1.11,1.11-.77.03-1.14-.34-1.11-1.11Z"/>
  <path class="cls-23" d="M197.6,291.77c.77-.03,1.14.34,1.11,1.11-.77.03-1.14-.34-1.11-1.11Z"/>
  <path class="cls-14" d="M212.06,187.09c-.09,1.67-1.38.95-2.23,1.11v-1.11h2.23Z"/>
  <path class="cls-14" d="M208.73,189.32c.03.77-.34,1.14-1.11,1.11-.03-.77.34-1.14,1.11-1.11Z"/>
  <path class="cls-27" d="M186.47,212.7c.03.77-.34,1.14-1.11,1.11-.03-.77.34-1.14,1.11-1.11Z"/>
  <path class="cls-27" d="M187.58,210.48c.03.77-.34,1.14-1.11,1.11-.03-.77.34-1.14,1.11-1.11Z"/>
  <path class="cls-27" d="M189.81,208.25c.03.77-.34,1.14-1.11,1.11-.03-.77.34-1.14,1.11-1.11Z"/>
  <path class="cls-27" d="M190.92,207.14c.03.77-.34,1.14-1.11,1.11-.03-.77.34-1.14,1.11-1.11Z"/>
  <path class="cls-27" d="M194.26,202.68c.03.77-.34,1.14-1.11,1.11-.03-.77.34-1.14,1.11-1.11Z"/>
  <path class="cls-27" d="M195.37,201.57c.03.77-.34,1.14-1.11,1.11-.03-.77.34-1.14,1.11-1.11Z"/>
  <path class="cls-27" d="M196.48,199.34c.03.77-.34,1.14-1.11,1.11-.03-.77.34-1.14,1.11-1.11Z"/>
  <path class="cls-14" d="M199.82,196c.03.77-.34,1.14-1.11,1.11-.03-.77.34-1.14,1.11-1.11Z"/>
  <path class="cls-14" d="M200.94,194.89c.03.77-.34,1.14-1.11,1.11-.03-.77.34-1.14,1.11-1.11Z"/>
  <path class="cls-14" d="M204.27,192.66c.03.77-.34,1.14-1.11,1.11-.03-.77.34-1.14,1.11-1.11Z"/>
  <path class="cls-25" d="M188.69,281.75c.77-.03,1.14.34,1.11,1.11-.77.03-1.14-.34-1.11-1.11Z"/>
  <path class="cls-25" d="M189.81,282.86c.77-.03,1.14.34,1.11,1.11-.77.03-1.14-.34-1.11-1.11Z"/>
  <path class="cls-25" d="M190.92,283.98c.77-.03,1.14.34,1.11,1.11-.77.03-1.14-.34-1.11-1.11Z"/>
  <path class="cls-14" d="M205.39,191.55c.03.77-.34,1.14-1.11,1.11-.03-.77.34-1.14,1.11-1.11Z"/>
  <path class="cls-25" d="M192.03,285.09c.77-.03,1.14.34,1.11,1.11-.77.03-1.14-.34-1.11-1.11Z"/>
  <path class="cls-14" d="M209.84,188.2c.03.77-.34,1.14-1.11,1.11-.03-.77.34-1.14,1.11-1.11Z"/>
  <path class="cls-29" d="M226.53,181.52c-.09,1.67-1.38.95-2.23,1.11.09-1.67,1.38-.95,2.23-1.11Z"/>
  <path class="cls-29" d="M223.19,182.64c-.09,1.67-1.38.95-2.23,1.11.09-1.67,1.38-.95,2.23-1.11Z"/>
  <path class="cls-29" d="M219.85,183.75c.03.77-.34,1.14-1.11,1.11-.03-.77.34-1.14,1.11-1.11Z"/>
  <path class="cls-27" d="M217.63,184.86c.03.77-.34,1.14-1.11,1.11-.03-.77.34-1.14,1.11-1.11Z"/>
  <path class="cls-27" d="M215.4,185.98c.03.77-.34,1.14-1.11,1.11-.03-.77.34-1.14,1.11-1.11Z"/>
  <path class="cls-19" d="M214.66,214.35c2.88-.77,5.73-.51,5.41-3.72,2.45-1.02,3.85,1.84,6.21.78v-7.26c-.18-.2-.68-.72-1.18-1.26-1.24.41-2.35,1.49-3.8.68-.67-.81-.21-1.74-.3-2.61,1.61-1.98,4.27-2.25,6.26-3.91,1.88,2.36,2.46,5.33,3.6,7.98.93,2.16-.55,4.63-1.67,6.38-.92,1.43-1.29,3.4-3.5,4.55-3.03-.94-7.09,3.92-11.04-1.62Z"/>
  <path class="cls-19" d="M248.22,289.51c-2.39.15-4.7.21-7.12-1.76-1.95-2.73-1.78-5.88,1.07-8.87,2.4-1.65,4.27.42,6.76,1.06-1.69,3.03,3.41,6.14-.72,9.57Z"/>
  <path class="cls-31" d="M204.27,272.84c.31.13.88.22.91.39,1.19,7.57,3.07,11.98,8.16,19.28,1.17,1.68,2.62,3.32,1.87,5.61-1.08.75-1.84.22-2.35-.56-3.56-5.46-6.92-11.03-9.35-17.12-.7-1.76-.18-3.59-.36-5.38-.65-.74-.62-1.48,0-2.23.37-.35.74-.35,1.11,0Z"/>
  <path class="cls-30" d="M268.25,238.29h-4.37c-3.3-2.48-3.69-5.37-1.44-10.85,1.79-.05,3.18-2.73,5.27-.81.22,1.58-1.22,2.1-2.01,3.14-.49,1.33-.13,2.68-.11,3.94,2.38.57,2.79-1.88,3.41-2.03,1.9-.08,2.12.8,2.71,1.16-.2,2.4-1.78,3.93-3.45,5.45Z"/>
  <path class="cls-13" d="M206.5,203.8c-.13.31-.16.73-.39.92-3.51,3.01-6.02,6.67-7.73,11-.86,2.18-2.42,4.11-3.79,6.06-.5.71-.19,1.38-.33,2.06-.4.35-.77.71-1.11,1.11-.38.4-.8.47-1.28.18-.28-.47-.24-.9.16-1.29v-1.11c.41-.33.74-.75,1.11-1.11-.24-3.52,2.27-6.1,3.17-9.24.38-1.33,6.54-9.17,7.43-9.65.43-.23,1.09-.04,1.64-.04,1.16-.41,1.4.08,1.11,1.11Z"/>
  <path class="cls-13" d="M233.21,256.14c-.07-3.22.64-6.1,2.58-8.86,1.42-2.03,2.03-4.63,2.98-6.99.22-.54.43-.99,1.12-.86,2.07-.11,1.8.96,1.11,2.23.36,2.24-.9,3.94-1.85,5.78-2.3,4.47-3.99,9.12-3.71,14.27.25.25.33.49.25.74-.08.25-.17.37-.25.37-.37.5-.74.5-1.11,0-.65-.6-.41-1.65-1.11-2.23v-3.34c.3-.25.4-.49.3-.74-.1-.25-.2-.37-.3-.37Z"/>
  <path class="cls-8" d="M251.02,249.45v-1.11c2.93-.35.77,2.7,2.23,3.34v2.23c-.3.25-.4.49-.3.74.1.25.2.37.3.37v1.11c1.2,1.28-.15,3.19,1.11,4.45.23,1.71-.72,3.68,1.06,5.07-1.47,1.34-1.64,2.73-.16,4.18-1.51,1.37-.5,3.32-1.11,4.87-.44.55-1,.32-1.85.27-.41-1.73.12-3.78-1.18-5.49-.44-.59-.6-2.23.27-3.09,1.45-1.44.41-3.15.75-4.7-1.01-.9-.04-2.46-1.11-3.34v-3.34c-.28-.25-.37-.49-.28-.74.09-.25.18-.37.28-.37v-2.23c-.64-.74-.64-1.48,0-2.23Z"/>
  <path class="cls-31" d="M189.81,249.57h2.9c1.44,1.48-.39,1.95-.8,3.25-.25.74,1.04,1.07,1.24,1.93-1.33,1.06.08,2.63-.73,3.79-.93,1.35-.42,2.89-.31,4.28.11,1.44,1.95,2.67.57,4.36-2.25-1.17-2.92-3.39-3.51-5.58-.56-2.05-.94-3.94.48-6.12.85-1.31.16-3.61.16-5.91Z"/>
  <path class="cls-21" d="M239.79,212.52c-.67.09-1.02.14-1.37.18-.15-.08-.41-.14-.44-.25-.76-3.05-.09-6.16-.36-9.19,2.71-2.36,1.44-7.59,6.76-8.59-.8,3.27-2.93,5.87-3.16,8.62-.27,3.22-1.78,6.09-1.43,9.23Z"/>
  <path class="cls-21" d="M255.54,201.87c-.29,1.58.4,2.92-.49,4.05-1.7.47-2.18-.89-2.91-1.77-.52-2.16,2.07-3.48,1.07-5.35,2.16-2.25,4.83-2.7,6.86-4.11,1.23.85,1.22,1.61.43,2.38-1.72,1.68-3.45,3.34-4.97,4.79Z"/>
  <path class="cls-27" d="M216.64,204.31c-2.92,2.81-3.68,6.45-5.03,9.5-1.73.1-2.15-1.07-2.94-1.8-.03-3.17,2.44-5.22,3-7.54,1.96-1.11,3.31-.37,4.97-.15Z"/>
  <path class="cls-10" d="M271.05,266.16c-.72-2.29-3.07-4.04-1.75-7.69.37-.29,1.48-1.17,2.59-2.06l1.44,1.44c-.37,2.72.79,5.71-1.16,8.3.65.74.62,1.48,0,2.23-.37.5-.74.5-1.11,0-.62-.74-.65-1.48,0-2.23Z"/>
  <path class="cls-14" d="M271.56,208.95c-.33.65-.83,1.86-2.47,1.42v-9.47c.55-.56,1.02-2.03,2.92-1.33.44,3.06.26,6.21-.45,9.37Z"/>
  <path class="cls-27" d="M258.19,296.79c-2.3,3.99-5.57,4.06-8.61,3.86-.84-.68-1.4-1.13-2.36-1.92,3.96.23,6.44-3.79,10.96-1.94Z"/>
  <path class="cls-14" d="M229.24,277.5c-2.76-1-3.99-3.64-6.09-5.19.25-.97-.39-1.96.44-2.68,2.27-.87,2.48,2.62,4.56,2.09.53,1.82,2.75,3.31,1.1,5.78Z"/>
  <path class="cls-7" d="M253.4,221.95c.71-.63,1.23-1.09,1.57-1.4,1.41-.24,1.71.86,2.47,1.28-1.32,1.87-.67,3.99-.92,5.97-.92.86-1.94.52-3.12.21v-6.07Z"/>
  <path class="cls-2" d="M218.68,221.76q2.81.16,4.51,2.07c-.2,1.16-1.08,1.7-1.98,2.23q-2.14-1.52-2.53-4.3Z"/>
  <path class="cls-11" d="M241,241.66c-.17-.84.55-2.13-1.11-2.23.23-1.93-.9-4.32,2.04-5.52,0,2.51.01,4.95-.04,7.38,0,.13-.58.25-.88.37Z"/>
  <path class="cls-7" d="M206.49,223.27c.34,1.86-.28,3.2-2.11,3.92-1.12.13-1.4-1.01-1.94-1.35.84-1.02,1.72-2.08,2.56-3.1.64-.06,1.15.04,1.49.54Z"/>
  <path class="cls-1" d="M241.12,226.16h1.92v5.4c-2.81-1.22-1.97-3.34-1.92-5.4Z"/>
  <path class="cls-32" d="M234.32,262.82h1.11c-.53,1.56,1.39,2.42,1.13,3.88-.56.67-1.19.75-2.24.18v-4.06Z"/>
  <path class="cls-25" d="M253.24,251.68c-1.06.08-1.07-.64-1.12-1.4-.06-.8.39-1.94-1.1-1.94.08-1.42.97-1.18,2.23-.85v4.19Z"/>
  <path class="cls-16" d="M206.5,203.8c.03-.77-.34-1.14-1.11-1.11,1.14-2.07,2.83-.77,4.39-.56-1.09.56-2.19,1.12-3.28,1.67Z"/>
  <path class="cls-15" d="M218.74,237.2c2.14.52.69,2.24,1.11,3.34.44,1.18-.12,1.36-1.11,1.11-.81-1.48-.81-2.97,0-4.45Z"/>
  <path class="cls-12" d="M218.74,237.2v4.45c-1.51-1.41-1.51-3.05,0-4.45Z"/>
  <path class="cls-5" d="M219.85,245c-1.66-.1-.95-1.38-1.11-2.23.74-.65,1.48-.66,2.23,0v2.23c-.37.54-.74.54-1.11,0Z"/>
  <path class="cls-25" d="M254.35,260.59c-.96.07-1.12-.55-1.11-1.31,0-1.05,0-2.1,0-3.15.96-.07,1.12.55,1.11,1.31,0,1.05,0,2.1,0,3.15Z"/>
  <path class="cls-20" d="M192.03,224.95h1.11c-.27,1.21-1.01,1.96-2.23,2.23-.63-.74-.63-1.48,0-2.23.37-.39.74-.39,1.11,0Z"/>
  <path class="cls-6" d="M271.05,268.39h1.11c-.14,1.05.32,2.16-.51,3.38-.97-1.08-.46-2.31-.6-3.38Z"/>
  <path class="cls-32" d="M220.97,242.77h-2.23v-1.11c.77.03,1.14-.34,1.11-1.11,1.66.1.95,1.38,1.11,2.23Z"/>
  <path class="cls-25" d="M251.02,258.36c2.14.52.69,2.24,1.11,3.34-2.14-.52-.69-2.24-1.11-3.34Z"/>
  <path class="cls-25" d="M251.02,249.45v2.23c-1.04.08-1.17-.64-1.09-1.38.06-.56.41-.97,1.09-.84Z"/>
  <path class="cls-22" d="M219.85,245h1.11c-.13.68.33,1.46-.4,2.07-1.3-.32-.48-1.39-.71-2.07Z"/>
  <path class="cls-32" d="M233.21,260.59c1.66.1.95,1.38,1.11,2.23-1.66-.1-.95-1.38-1.11-2.23Z"/>
  <path class="cls-26" d="M271.05,266.16v2.23c-1.04.08-1.17-.64-1.09-1.38.06-.56.41-.97,1.09-.84Z"/>
  <path class="cls-26" d="M272.16,268.39v-2.23c1.04-.08,1.17.64,1.09,1.38-.06.56-.41.97-1.09.84Z"/>
  <path class="cls-18" d="M203.16,272.84v2.23c-1.04.08-1.17-.64-1.09-1.38.06-.56.41-.97,1.09-.84Z"/>
  <path class="cls-3" d="M190.92,224.95v2.23c-1.04.08-1.17-.64-1.09-1.38.06-.56.41-.97,1.09-.84Z"/>
  <path class="cls-20" d="M193.14,224.95c-.03-.77.34-1.14,1.11-1.11.03.77-.34,1.14-1.11,1.11Z"/>
  <path class="cls-3" d="M192.03,224.95h-1.11c-.03-.77.34-1.14,1.11-1.11v1.11Z"/>
  <path class="cls-20" d="M193.14,221.61c.03.77-.34,1.14-1.11,1.11-.03-.77.34-1.14,1.11-1.11Z"/>
  <path class="cls-9" d="M210.39,246.1c-.52-.36-.52-.73,0-1.09.52.36.52.73,0,1.09Z"/>
  <path class="cls-25" d="M251.02,253.91v1.11c-.54.04-1.03-.07-.88-.74.04-.18.57-.25.88-.38Z"/>
  <path class="cls-25" d="M253.24,255.02c-.54.04-1.03-.07-.88-.74.04-.18.57-.25.88-.38v1.11Z"/>
  <path class="cls-32" d="M233.21,256.14c.54-.04,1.03.07.88.74-.04.18-.57.25-.88.38v-1.11Z"/>
  <path class="cls-32" d="M235.43,262.82v-1.11c.54-.04,1.03.07.88.74-.04.18-.57.25-.88.38Z"/>
  <path class="cls-18" d="M204.27,272.84h-1.11c-.04-.54.07-1.03.74-.88.18.04.25.58.38.88Z"/>
  <path class="cls-28" d="M244.34,285.09c-1.57-.3-1.5-1.32-.6-2.07.59-.49,1.68-.35,1.71.95-.42.33-.79.7-1.11,1.11Z"/>
  <path class="cls-33" d="M244.34,285.09c-.03-.77.34-1.14,1.11-1.11.03.77-.34,1.14-1.11,1.11Z"/>
</svg>