<?xml version="1.0" encoding="UTF-8"?>
<svg id="Livello_1" data-name="Livello 1" xmlns="http://www.w3.org/2000/svg" viewBox="0 0 489 489">
  <defs>
    <style>
      .cls-1 {
        fill: #fff;
        stroke-width: 0px;
      }
    </style>
  </defs>
  <path class="cls-1" d="M380.73,208.12c.01.08.02.16.03.25-.03-.04-.05-.08-.08-.11,0-.04.01-.08.03-.11l.02-.02Z"/>
  <path class="cls-1" d="M382.56,211.61c-.44-.23-.79-.62-1.18-.93.09-.05.17-.1.26-.16-.04-.45-.08-.91-.13-1.4h-.96c.09-.3.16-.53.22-.75-.03-.04-.05-.08-.08-.11,0-.04,0-.08.03-.11l.02-.02c.07-.38.13-.77.19-1.11-.24-.18-.35-.3-.48-.37-.63-.31-1.47-.44-1.87-.93-1.08-1.33-2.75-1.33-4.11-2-1.18-.58-2.49-.94-3.89-1.08-1.32-.13-2.6-.81-3.85-1.35-2.18-.94-4.32-1.96-6.48-2.94-.23-.1-.47-.16-.7-.25-1.12-.44-2.25-.87-3.37-1.31-.84-.33-1.58-.76-2.31-1.33-.78-.61-1.83-.88-2.76-1.3-.39-.18-.78-.48-1.19-.5-.82-.04-1.46-.27-1.82-1.06h-1.05s.03-.08.04-.13c-.48-.25-.97-.49-1.45-.74-.44-.32-.89-.63-1.39-.84-.66-.28-1.41-.37-2.01-.73-1.3-.77-2.45-1.87-3.82-2.41-.98-.38-1.7-1.13-2.69-1.43-.33-.1-.59-.42-.8-.58-.07-1.56-.09-2.99-.23-4.41-.17-1.76-.44-3.52-.69-5.27-.04-.3-.17-.59-.26-.88-.12-.39-.24-.78-.36-1.17.05-.02.1-.04.16-.06-.18-.26-.35-.51-.53-.77l-.13.18c-1.03-.66-2.21-1.17-3.04-2.03-.88-.91-1.98-1.29-3.03-1.78-1.28-.61-2.66-1.01-4.02-1.44-1.8-.57-3.63-1.08-5.44-1.62-1.87-.55-3.74-1.11-5.61-1.67-.05-.01-.07-.1-.18-.24.13-.86.28-1.81.41-2.67-.04-.7-.17-1.35-.11-1.97.11-1.18.36-2.34.5-3.52.13-1.09.21-2.19.31-3.29.07,0,.13,0,.2.01,0-1.34.06-2.69-.03-4.02-.04-.65-.19-1.51-.63-1.86-1.14-.92-2.08-2.19-3.66-2.46-.15-.03-.32-.1-.41-.21-1.07-1.26-2.67-1.68-4.01-2.51-.42-.26-.84-.59-1.31-.72-2.1-.59-4.22-1.11-6.32-1.68-.4-.11-.76-.39-1.15-.57-.36-.16-.73-.31-1.12-.42-.39-.11-.83-.08-1.18-.25-1.27-.62-2.65-.71-4.01-.88-1.3-.16-2.65-.1-3.89-.46-1.61-.46-3.31-.34-4.89-1.01-1-.43-2.2-.38-3.3-.55-.4-.06-.79-.15-1.19-.21-2-.29-4.01-.56-6.01-.86-.86-.13-1.7-.32-2.55-.48h0c-.65-.37-1.32-.29-2.05-.27-1.71.05-3.42-.17-5.13-.12-2.65.08-5.3.36-7.95.43-3.53.09-6.95.94-10.42,1.45-.94.14-1.9.13-2.84.19-.67.12-1.34.39-2.04.49-1.5.23-3.03.27-4.52.56-2.48.48-4.96.96-7.31,1.94-.63.26-1.35.37-1.91.73-1.24.78-2.38,1.7-3.6,2.51-1.37.91-2.61,1.94-3.44,3.37-.8,1.39-1.62,2.74-1.44,4.51.23,2.23.25,4.48-.36,6.69-.05.17,0,.37-.02.56-.04.51-.08,1.01-.12,1.44-1.19.46-2.21.86-3.02,1.17-1.6.45-3,.85-4.41,1.25-.15-.14-.34-.31-.58-.52-.29.4-.52.72-.66.92-3.39.69-6.22,2.19-8.85,4.41.12.76.25,1.55.39,2.48-.42.28-.93.61-1.5.98.27,1.6.05,3.1-1.5,4.15.11.32.22.63.32.91-.21.82-.4,1.6-.54,2.13v5.89c-.11.12-.37.38-.58.59-1.17.19-2.25.34-3.32.55-1.28.25-2.55.77-3.82.79-2.6.04-5.02.93-7.55,1.27-2.29.3-4.59.51-6.88.82-1.31.18-2.61.44-3.9.72-1.49.33-2.97.72-4.45,1.09-.78.19-1.56.38-2.32.62-.74.22-1.46.5-2.18.75-.78.27-1.57.54-2.35.81-1.03.35-2.29-.18-3.15.95v.86c-.44.14-.85.4-1.2.34-1.04-.16-1.72.34-2.22.86-.82,1.8-1.14,3.47-.75,5.23-.14.63-.22,1.26-.21,1.89,0,.68.15,1.35.13,2.03-.05,1.65-.17,3.3-.26,5.02-.4.3-.82.77-1.35.99-1.26.54-2.55.98-3.85,1.42-.53.18-1.1.24-1.65.35-.04-.08-.08-.15-.13-.23-.17.26-.35.53-.52.79l-.12-.23c-2.86.7-5.71,1.4-8.57,2.12-.8.2-1.58.52-2.39.67-.79.15-1.62.15-2.42.25-1.14.14-2.28.34-3.43.48-1.36.17-2.72.43-4.08.41-1.44-.02-2.88-.34-4.33-.52-.15-.02-.34-.01-.45-.1-.87-.66-1.9-.53-2.88-.67-1.13-.15-2.29-.29-3.38-.63-1.84-.56-3.63-1.26-5.43-1.93-1.14-.43-2.12-1.11-2.85-2.15-.92.26-1.37,1.01-1.78,1.79-.19.36-.38.56-.81.21.22-.32.42-.61.62-.89-.33-.36-.74-.62-.9-1-.27-.66-.77-.94-1.37-1.18-1.15-.47-2.3-.91-3.24-1.82-.69-.67-1.5-1.21-2.29-1.76-.51-.36-1.15-.55-1.61-.95-.95-.84-2.02-.84-3.09-.74-1.48,1.56-1.96,3.4-1.97,5.38,0,.44.22,1.05.55,1.29.71.53,1.53.98,2.36,1.29,1.61.6,2.92,1.64,4.29,2.61.45.32.88.65,1.33.98.61.45,1.22.9,1.82,1.36.68.52,1.38,1.04,2.03,1.59.3.26.53.61.66.75,1.23,0,2-.38,2.51-1.31.65.71,1.23,1.34,1.83,1.99.37.05.74.09,1.08.14.29.29.53.6.83.81.39.27.81.53,1.26.66.98.29,1.98.49,2.97.76.74.2,1.46.45,2.19.66.29.09.59.14.89.21.7-.03,6.4.09,7.89.74.14-.29.27-.57.48-1.01.3.15.59.35.91.45.57.18,1.21.52,1.74.41,1.21-.25,2.37-.4,3.58-.12.36.08.74.11,1.11.1,1.72-.03,3.45.06,5.14-.17.83-.11,1.58-.57,2.16-.12,1.16-.06,2.08-.11,3-.16.03.08.07.16.1.24.35-.38.7-.75.91-.98,1.16-.23,2.17-.43,3.07-.61,1.64-1.16,3.57-1.21,5.23-1.97,1.69-.77,3.37-1.56,5.08-2.35.57.67.46,1.34-.14,2.04.23.44.45.86.67,1.29-.24.3-.46.56-.7.86.06.39.13.78.18,1.09.43.54.87.61,1.47.55.93-.09,1.94-.31,2.82.61-.43.37-.82.72-1.23,1.03-1.11.86-2.21,1.71-3.34,2.54-1.05.78-2.11,1.55-3.2,2.27-1.29.86-2.64,1.63-3.93,2.5-1.83,1.24-3.63,2.54-5.44,3.81-.13.09-.26.17-.4.25-1.68.93-3.41,1.8-5.04,2.82-1.4.87-2.7,1.92-4.14,2.96-.29.09-.78.16-1.16.39-.97.62-1.91,1.28-2.82,1.98-1.53,1.18-2.8,2.65-4.34,3.84-1.51,1.17-2.65,2.8-3.99,4.2-1.2,1.25-2.45,2.46-3.73,3.74,0,.23.02.52,0,.79-.03.27-.12.53-.18.79-.07-.05-.14-.1-.21-.16-.52.46-1.12.86-1.53,1.4-.59.78-1.05,1.67-1.56,2.52-.18.29-.29.65-.53.88-.85.78-1.38,1.73-1.78,2.8-.34.91-.67,1.87-1.44,2.57-.19.17-.27.49-.38.74-.22.48-.36,1-.65,1.43-.47.71-.81,1.41-.55,2.02-.43.96-.87,1.7-1.08,2.5-.33,1.24-.58,2.49-1.6,3.4-.13.12-.24.3-.3.47-.41,1.24-.8,2.48-1.18,3.66-.32.24-.59.44-.85.65.18.27.31.48.43.66-.52.98-.38,1.53.86,3.41-.65,1.47-1.33,3.02-2.01,4.57-.19.36-.31.76-.45,1.15-.34.9-.71,1.78-1.02,2.69-.1.3-.02.65-.02.98.07-.03.15-.05.22-.08,1.05.72,2.5-.21,3.53.97.75-.17,1.55-.34,2.4-.53,1.22-.98.75-2.76,1.7-3.9-.23-.57.38-3.18.88-3.65.56.3,1.14.6,1.88.99.36-.68.69-1.31,1.08-2.03.11-.03.36-.12.71-.23-.11-1.33-.21-2.6-.34-3.86-.11-1.05-.42-2.11-.33-3.14.12-1.37.55-2.71.85-4.06.09.03.17.05.26.08.17-.33.35-.67.52-1,.3-.58.5-1.25.91-1.74.63-.77.96-1.58.82-2.38.61-.8,1.1-1.48,1.62-2.14.75-.95,1.53-1.87,2.27-2.83.9-1.18,1.22-2.73,2.42-3.71.05-.04.08-.1.11-.15.78-1.29,1.3-2.72,2.44-3.8,1.08-1.02,2.02-2.17,3.05-3.24.88-.91,1.81-1.78,2.71-2.69.33-.33.6-.71.92-1.05.73-.78,1.46-1.55,2.1-2.23.72-.61,1.34-1.17,2-1.68.46-.36.95-.7,1.46-.98,1.24-.67,2.52-1.27,2.96-2.12,2-1.48,3.61-2.64,5.19-3.85.92-.71,1.77-1.52,2.69-2.25.4-.32.87-.54,1.46-.9.84-.6,1.75-1.59,2.86-1.96,1.58-.53,2.78-1.57,3.98-2.52,1.08-.85,1.97-1.93,3.26-2.56.57-.28.99-.87,1.61-1.44.2-.1.58-.28.95-.48.95-.49,1.79-1.19,2.86-1.46.37-.09.72-.38,1-.65.49-.47.88-1.05,1.39-1.5.6-.53,1.26-1,1.93-1.44.97-.63,1.97-1.21,2.96-1.82l.14.19c.49-.76,1.45-1.27,1.25-2.06.48-.64.81-1.09,1.11-1.5.45-.08.82-.15,1.18-.22.33.35.64.69,1.02,1.09.41-.32.76-.6,1.14-.9-.25-1.22.52-2.58-.74-3.5.08-.28.13-.48.19-.68-.06.03-.12.06-.18.09-.57-.79-1.14-1.58-1.84-2.56-.75-.22-1.74-.66-2.77-.79-1.08-.14-2.17.01-3.03.89-.8.81-1.67,1.55-2.52,2.32.04.04.09.09.13.13-.19.53-.39,1.07-.62,1.69.61.03,1.1.06,1.54.08.49-.32.92-.61,1.35-.89.6.67.6,1.02.1,1.56-.62.68-1.22,1.39-1.86,2.13-1.57.99-3.21,2.02-4.73,2.97-.7-.38-1.31-.84-1.99-1.06-.73-.23-1.53-.22-2.29-.32-.25-.48-.48-.91-.76-1.45-.11-1.37-.23-2.85-.34-4.18.38-.42.61-.68.84-.94-.45-.39-.79-.69-1-.88-.07-1.32-.08-2.47-.21-3.61-.19-1.7-.49-3.39-.67-5.09-.08-.76-.22-1.59.25-2.31.69.26,1.29.48,1.86.7.24.28.48.58.72.86.37-.09.64-.16.93-.24,1.12.47,2.25.94,3.35,1.4,2.35.23,4.41,1.17,6.49,2.29.52.12,1.24.09,1.7.42,1.46,1.04,3.01,1.75,4.75,2.08.67.38,1.36.81,2.09.86,1.02.07,1.91.32,2.79.84.73.43,1.46.93,2.21,1.25,1.12.48,2.31.83,3.43,1.37.85.41,1.83.53,2.74.83,1,.33,1.98.73,2.97,1.08,1.02.37,2.05.72,3.07,1.09.84.3,1.68.63,2.52.94.83.3,1.66.6,2.34.84.73.1,1.38.07,1.91.3,1.25.55,2.44,1.23,3.65,1.86h-.01c1.42-.14,2.66.58,3.99.86.61.13,1.26.23,1.78.54,1.24.75,2.73.95,3.88,1.89.3.25.7.4,1.08.52,1.94.63,3.89,1.21,5.82,1.86,2.33.78,4.58,1.83,6.98,2.43.2.05.36.24.56.33,1.31.6,2.6,1.27,3.95,1.77,1.05.39,2.18.59,3.04,1.36.62.55,1.35.77,2.12.87,1.39.18,2.65.62,3.71,1.47.43-.05.8-.09,1.17-.13-.02.08-.03.15-.05.23.78.25,1.57.48,2.34.76,1.43.52,2.86,1.05,4.27,1.63.36.15.65.48.97.73-.22.37-.35.59-.53.9h1.52c.25.14.52.29.7.39.57-.04,1.03-.11,1.5-.1.94.03,1.21.38,1.11,1.3-.03.25-.04.5-.03.75.03.7.13,1.4.11,2.1-.01.52-.16,1.03-.22,1.37-.19.63-.42,1.09-.46,1.56-.11,1.34-.11,2.69-.23,4.02-.09,1.1,0,2.24-.59,3.37-.47-.09-.89-.14-1.3-.26-2.01-.56-3.79-1.71-5.88-2.13-1.46-.3-2.82-1.08-4.25-1.61-.63-.24-1.3-.38-1.95-.56-1.89-.52-3.8-.95-5.66-1.56-1.31-.43-2.54-1.1-3.8-1.65-.51-.22-1.03-.43-1.54-.64-1-.41-1.97-.92-3.01-1.18-1.5-.38-2.94-.81-4.1-1.8-.33-.06-.66-.05-.93-.17-.74-.32-1.45-.69-2.17-1.04-.36-.17-.72-.36-1.08-.52-.93-.42-1.84-.98-2.82-1.2-.82-.18-1.51-.5-2.24-.86-.9-.45-1.81-1.04-2.86-.56-.27-.19-.46-.4-.71-.5-.63-.26-1.28-.47-1.93-.7-.9-.32-1.78-.72-2.7-.93-1.42-.33-2.92-.35-4.24-1.09-.23-.13-.55-.09-.82-.15-.23-.05-.47-.1-.69-.19-1.04-.41-2.09-.82-3.12-1.26-.88-.37-1.75-.77-2.63-1.16.02-.05.04-.1.07-.15-3.48-.93-6.96-1.87-10.51-2.82-.09-.17-.22-.42-.33-.64-.35-.06-.7-.04-.96-.18-1.27-.74-2.73-.83-4.11-1.12-.83-.18-1.58-.28-2.08-1.07-.04.09-.07.17-.11.26-2.02-.86-4.05-1.71-6.09-2.58-.58.64-1.68.49-1.85,1.64.53.2,1.07.4,1.52.57.1.46.12.84.26,1.17.5,1.2.76,2.42.7,3.73-.05,1.01.06,2.02.1,3.03.02,0,.04,0,.05,0v3.49c-.06,0-.12.01-.18.02.12.28.24.56.35.83-.45.92-.51,1.78.12,2.39.22,1.59-.71,3.06.26,4.45v1.41c-.14.4-.26.81-.23,1.21.05.61.32,1.21.3,1.81-.02,1.04-.1,2.07.03,3.11.04.39-.11.79-.17,1.19,0,.06.02.12.03.18.21.17.42.35.59.49-.09,1.37-.16,2.68-.25,3.98-.07,1.03-.17,2.06-.23,3.09-.01.17.08.36.16.53.84,1.77,1.17,3.52-.19,5.29.69.9.66,2.3,1.8,2.75.54-.03.93-.13,1.27-.06,1.52.31,3.04.66,4.55,1.03.42.1.82.29,1.2.49.55.29,1.06.65,1.62.93.66.33,1.34.6,2.04.91.35-.18.74-.39,1.07-.55,1,.04,1.26.67,1.34,1.47.73.38,1.43.76,1.95,1.03.55-.06.91-.11,1.27-.13.24-.02.54.07.73-.04.71-.4,1.31-.27,1.85.29.61-.36,1.18-.69,1.72-1.01,1.13-.41,2.23-.81,3.24-1.18q.52-1.46,1.91-1.88c.21-.06.42-.11.62-.2,1.63-.74,3.27-1.48,5.01-2.27.28.04.71.11,1.13.18,1.6-.81,2-2.15,1.81-3.78-.33-.74-.69-1.54-.93-2.06.25-1.26.58-2.23.62-3.21.07-1.93-.02-3.86-.04-5.79-.01-1.49,0-2.99,0-4.48,0-.69.04-1.38.04-2.07,0-2.62,0-5.24.02-7.87,0-.22.11-.45.17-.68.55.12,1,.22,1.46.32.1.17.22.35.37.59,1.18-.23,2.34-.24,3.28.68.06.06.18.06.27.07.98.1,1.87.43,2.66,1.04.29.22.67.33,1.02.48.66.27,1.36.47,1.98.81,1.71.93,3.39,1.92,5.08,2.88,1.07.35,2.16.69,3.24,1.06,1.05.36,1.92,1.08,3.05,1.34,1.15.26,2.25.77,3.4,1.1,1.56.45,3.01,1.29,4.51,1.95.21.09.45.14.68.2,1.11.28,2.24.52,3.34.83.84.24,1.66.53,2.47.85.43.17.81.44,1.11.6-.11.5-.14.89-.27,1.25-.35.92.19,1.78.12,2.66-.25,3.04.51,6.08.03,9.12-.01.09.03.19.03.28,0,.9.04,1.8-.03,2.69-.08,1.08-.3,2.15-.36,3.23-.05,1.09.05,2.2.05,3.29,0,3.87-.04,7.73-.03,11.6,0,2.65.07,5.3.11,7.95,0,.66,0,1.31-.02,1.97-.01.91-.03,1.81-.04,2.72-.1,0-.2,0-.3-.01.62,1.11.29,2.14-.15,3.15-1.29.34-1.54.22-2.27-.8-.28-.4-.68-.76-1.1-1.01-1.26-.74-2.17-1.84-3.1-2.91-.33-.37-.56-.83-.84-1.25-.05.05-.09.09-.14.14-.96-.93-1.83-1.99-2.9-2.75-1.36-.96-3.03-1.46-4.16-2.76-.48-.56-.87-1.2-1.3-1.81-.1.1-.19.2-.29.3-.13-.64-.31-1.27-.39-1.92-.2-1.68-.29-3.37-.55-5.03-.38-2.42-.41-4.85-.41-7.29,0-1.46-.1-2.93-.2-4.39-.08-1.19-.65-2.38.01-3.57.04-.07.04-.21,0-.27-.42-.68-.34-1.42-.31-2.17.09-2.91-1.01-5.76-.46-8.7.02-.12-.02-.25-.02-.37,0-.41,0-.82,0-1.23.03,0,.07,0,.1,0v-5.01c.23-.06.45-.12.9-.23-.36-.49-.64-.86-.92-1.24-.09-.66-.18-1.33-.28-2.08-1.01-.17-1.95-1.04-2.89-.14-.17,1.09-.33,2.06-.51,3.23.99,2.32.86,4.93.71,7.55v3.52c.17.3.42.55.47.83.22,1.35.4,2.7.55,4.06.09.8.13,1.61.14,2.41,0,1.17-.11,2.34-.08,3.5.03,1.28.22,2.55.26,3.83.06,1.71,0,3.42.1,5.12.1,1.56.39,3.11.52,4.67.15,1.74.17,3.5.37,5.23.09.74.32,1.59.78,2.14.71.84,1.68,1.47,2.55,2.17.48.39,1,.73,1.64,1.2,2.53.53,3.88,3,5.64,4.15,3.09,3.02,5.88,5.73,8.49,8.28,1.37.02,1.65-.9,2.13-1.54,2.19-.84,4.36-1.63,6.71-1.36.31-.15.57-.36.87-.41,1.53-.22,3.06-.4,4.59-.6.37-.05.74-.11,1.1-.19,1.3-.3,2.58-.68,3.9-.88,1.17-.18,2.37-.14,3.55-.21.31-.02.69.03.91-.12,1.07-.74,2.28-.72,3.43-.75.39.57.76,1.1,1.21,1.76,1.14-.99,2.63-1.25,3.58-2.49-1.67-1.43-2.16-3.35-2.23-5.35-.08-2.4.07-4.8.1-7.2.02-1.91,0-3.82,0-5.73,0-2.28.03-4.57.02-6.85,0-.81-.09-1.62-.15-2.43-.05-.64-.12-1.27-.19-1.99h1.5c1-.77,2.02-1.49,3.37-1.44.14,0,.29-.09.43-.15.93-.41,1.75-1.12,2.87-1.01.13.01.27-.14.41-.2.53-.23,1.05-.51,1.6-.68.93-.29,2.01-.29,2.64-1.17.53-.75,1.33-1.04,2.05-1.5.83-.53,1.57-1.2,1.79-2.28.09-.47.38-.91.62-1.46-.23-1.01.21-2.11-.08-3.3-.31-1.29-.14-2.72-.1-4.08.03-.85.2-1.7.29-2.41,5.01-1.34,9.73-2.96,14.75-3.07.58-.25,1.18-.41,1.78-.54,1.3-.28,2.6-.58,3.92-.81,1.46-.25,2.94-.43,4.41-.65.92-.13,1.85-.25,2.77-.42,1.27-.24,2.53-.53,3.94-.83,0,.72.07,1.28-.01,1.81-.21,1.31-.47,2.59-.3,3.95.18,1.45.1,2.93.15,4.4.06,1.87.2,3.73.19,5.6,0,1.13-.22,2.27-.34,3.4-.05,1.37.06,2.76.05,4.15,0,.99-.1,2-.27,2.98-.29,1.6-.07,2.92,1.53,3.73.15.08.25.27.42.45,1.11-.38,1.74.56,2.63.96.13.25.28.52.42.79,1,.29,1.98.62,2.82,1.17,1.62,1.07,3.16,2.28,4.74,3.41.38.27.79.53,1.22.66,1.15.34,1.99,1.07,2.71,1.99.08.02.21.08.26.05,1.08-.81,2.16-.44,3.27-.07.52.17,1.09.18,1.65.27.08-.48.13-.78.2-1.27,1.4-.65,2.87-1.34,4.34-2,1.72-.78,3.44-1.55,5.17-2.31.99-.44,2-.85,3.01-1.24,1.45-.56,2.9-1.12,4.37-1.63.63-.22,1.31-.32,2.01-.49,0-.83.53-1.17,1.15-1.49.34-.17.73-.49.84-.82.2-.64.21-1.35.31-2.02.1-.62.22-1.25.33-1.87.02,0,.03.01.05.02.24-3.36.49-6.72.73-10.08-.06,0-.13-.02-.19-.03.15-.2.29-.4.36-.5.14-2.44-.8-4.79-.03-7.01v-4.93c.17-.05.36-.11.62-.2-.23-.55-.43-1.03-.63-1.49.26-.31.49-.58.92-1.09-.39-.18-.71-.33-1-.46.1-.48.2-.81.24-1.15.13-1.05.39-2.11.3-3.14-.1-1.06.6-1.8.75-2.73.02-.13.26-.27.43-.32,1.47-.5,2.92-1.1,4.43-1.44,1.63-.36,3.25-.72,4.8-1.37.74-.31,1.54-.54,2.34-.66.75-.11,1.53-.02,2.27-.02.89-1.36,1.7-2.6,2.53-3.86-.12-.24-.24-.48-.36-.72.08,0,.15,0,.23,0,.06-.61.12-1.23.17-1.84.02-.19.02-.38.04-.56.32-2.68.62-5.36.97-8.03.06-.5.3-.97.45-1.46.18-1.01.19-2.03.66-3.02.54-1.13.29-1.52-.87-2.14ZM94.38,211.52c-.93-.92-1.91-1.78-2.88-2.65-.09-.08-.22-.14-.34-.15-.99-.04-1.58-.66-2.12-1.45.01-.22.03-.49.06-.92-.48.15-.86.26-1.39.42.09-.47.17-.84.28-1.42.46.19.83.28,1.14.47,1.04.65,2.04,1.36,3.08,2,1.03.64,2.15,1.15,3.1,1.88.64.49,1.04,1.28,1.59,1.98-.98.79-1.68.66-2.52-.17ZM151.15,213.2c-1.2.6-2.51,1.23-3.79,1.9-.32.17-.57.47-.95.81-1.19.55-2.81.27-3.85,1.29-.55.13-.99.18-1.39.33-1.19.44-2.34,1.01-3.56,1.36-.91.26-1.9.25-2.86.35-.99.1-2,.37-2.96.23-1.49-.21-2.9.55-4.44.05-1.23-.4-2.62-.58-3.9-.44-1.29.14-2.55.23-3.85.27-1.17.04-2.23-.18-3.32-.39-.43.12-.85.23-1.29.35-.16-.19-.32-.37-.47-.55-.02.07-.05.14-.07.21-1.11-.24-2.22-.51-3.34-.73-1.15-.22-2.33-.31-3.46-.6-.77-.19-1.51-.57-2.19-.98-.62-.36-1.15-.86-1.71-1.32-.53-.43-1.01-1.51-1.08-2.46,1.02-.02,1.93.3,2.78.81.21.13.41.33.64.37,1.99.38,3.98.78,5.98,1.09,1.95.31,3.91.5,5.87.79,1.97.29,3.91.29,5.86-.17,1.11-.26,2.28-.27,3.41-.46,1.07-.18,2.13-.47,3.2-.69.7-.14,1.41-.22,2.12-.36,1.74-.35,3.52-.59,5.2-1.14,1.44-.48,2.9-.61,4.36-.88.57-.11,1.1-.48,1.67-.59,1.75-.32,3.25-1.31,4.95-1.76.38-.1.72-.37,1.07-.57.42-.24.83-.5,1.42-.87.11.96.27,1.67.26,2.37,0,.71-.16,1.42-.28,2.34ZM103.7,287.28c-.51.61-.47,1.34-.54,2.04-.11,1.14-.53,2.1-1.67,2.94-.27-.02-.77-.04-1.42-.08.68-1.78,1.26-3.42,1.93-5.02.2-.48.67-.86,1.05-1.32.28.2.5.36.77.55-.03.3.04.7-.12.9ZM158.49,222.68c1.1-.64,2.17-1.31,3.26-1.97.66-.4,1.38-.72,1.97-1.21,1.07-.89,2.06-1.88,3.1-2.81.27-.25.59-.44,1.06-.79.15-.72.35-1.63.54-2.53-.17-.3-.32-.57-.47-.84,1.33-.64,1.74-.5,2.92,1.14-.68.43-1.35.85-1.9,1.2-.39,1.02-.73,1.92-1.07,2.81-1.13.85-2.17,1.92-3.43,2.53-1.46.7-2.21,2.19-3.64,2.85-.36.17-.73.31-1.17.51-.32.49-.7,1.07-1.07,1.65-.13-.13-.26-.25-.4-.38-.14.31-.28.62-.45,1.01-.89-.44-1.36.37-1.92.75-1.21.81-2.3,1.79-3.46,2.67-.39.29-.83.57-1.3.7-1.42.42-2.07,1.94-3.48,2.36-.33.1-.65.21-.92.38-1.56,1.13-3.22,2.15-4.63,3.44-1.18,1.08-2.9,1.47-3.69,3.03-.16.31-.65.44-.98.67-1.48,1.04-3,2.03-4.41,3.16-1.94,1.55-3.85,3.14-5.66,4.83-1,.93-1.79,2.1-2.37,2.8-1.41,1.29-2.49,2.27-3.74,3.41-.72,1.74-2.76,2.93-3.38,5.16-.35.1-.76.21-1.22.34-1.14,1.82-1.48,4.25-3.67,5.28-.79,1.79-1.55,3.49-2.29,5.15-.38.12-.64.2-.98.31.03,1.13-1.38,1.49-1.46,2.66-.03.46-.42.88-.59,1.34-.35.96-.72,1.93-.96,2.92-.15.65-.08,1.36-.11,2.04-.03.71-.14,1.43-.06,2.13.08.67.36,1.31.58,2.07-.18.25-.41.57-.77,1.06-.33-.48-.58-.83-.85-1.24-.16.04-.36.08-.48.11-.6-.35-1.16-.63-1.65-1-.28-.21-.59-.54-.66-.87-.17-.82-.2-1.68-.3-2.6.07-.02.3-.09.52-.15.17-.65.31-1.28.49-1.9.39-1.34.77-2.69,1.21-4.01.39-1.14.86-2.24,1.31-3.36.07-.17.18-.33.27-.49.27-.56.54-1.13.81-1.69-.08-.05-.17-.11-.25-.17.26-.18.52-.35.78-.53-.08-.06-.16-.12-.24-.18.34-.6.68-1.2,1.02-1.81.89-1.58,1.75-3.16,2.67-4.72.48-.82,1.05-1.59,1.61-2.37.59-.83,1.2-1.65,1.82-2.46.13-.17.3-.32.48-.44.82-.51,1.36-1.19,1.37-1.86,1.01-.91,1.8-1.69,2.66-2.37,1.41-1.12,2.27-2.74,3.78-3.81,1.9-1.35,3.58-3.01,5.37-4.51.57-.48,1.2-.88,1.82-1.33.26-.02.54-.05.82-.07-.02-.04-.04-.08-.06-.12,1.45-.92,2.91-1.82,4.34-2.76,1.75-1.14,3.45-2.35,5.22-3.46,1.21-.76,2.51-1.35,3.74-2.09,1.01-.61,1.98-1.3,2.94-1.98,1.42-1.01,2.81-2.06,4.24-3.06.38-.26.87-.36,1.25-.62,1.13-.76,2.2-1.61,3.35-2.34.91-.58,1.91-1.03,2.85-1.58ZM188.87,269.69c-.19.14-.25.47-.41.78-1.46.48-2.96.7-4.49-.52-.14-.26-.36-.7-.64-1.24-.37.06-.75.12-1.14.19-.01.05-.02.09-.04.14-1.82-.68-3.66-1.32-5.46-2.06-.49-.2-.87-.68-1.41-1.11-.22.03-.55.12-.89.13-.76.03-1.41-.21-1.86-.86-.29-.41-.55-.84-.88-1.21-.41-.47-.55-.91-.18-1.27-.15-.61-.25-1-.33-1.4-.16-.85-.38-1.7-.44-2.56-.11-1.52-.08-3.05-.18-4.58-.13-1.89-.34-3.78-.51-5.67-.1-1.09-.17-2.17-.27-3.26-.06-.65-.16-1.29-.23-1.94-.02-.18,0-.37.02-.55.11-1.12.23-2.23.35-3.28-.34-.3-.59-.52-.91-.81.94-.58.97-1.4.6-2.23-.43-.98-.15-1.95-.17-2.94-.03-2.23-.1-4.46-.14-6.68,0-.21.04-.41.08-.73,2.84.24,5.19,1.7,7.73,2.56,1.07.18,2.12.39,2.93,1.33.73.05,1.51.1,2.34.16.1.18.21.39.34.63.2,0,.38.01.56,0,1.2-.08,1.41.15,1.74,1.26.18.63.63,1.19,1.14,1.73,0,.72-.1,1.45.03,2.15.16.86.5,1.69.76,2.54.1.33.18.66.27.99.18.69.41,1.36.54,2.06.11.55.1,1.12.15,1.67.22,2.58.59,5.16.63,7.75.02,1.97.65,3.8.81,5.73.07.86.12,1.73.13,2.59.01,1.5-.03,2.99-.02,4.49,0,1.45.05,2.91.08,4.36.01.64,0,1.24-.62,1.67ZM201.28,256.25c-.12,1.63-.33,3.26-.47,4.89-.04.43.08.87.04,1.3-.05.62-.18,1.24-.28,1.85-.48.03-.75.05-1.06.06-.79,1.54-2,2.44-3.55,2.43-1.13.75-2.09,1.39-3.05,2.02-.22-.26-.43-.51-.55-.66-.18-1.63-.39-3.17-.49-4.72-.06-.99.06-1.99.1-2.98.09-2.2.22-4.4-.61-6.52-.19-.48-.24-1.02-.3-1.54-.14-1.28.01-2.56-.51-3.84-.41-1.03-.29-2.27-.44-3.41-.14-1.08-.28-2.15-.48-3.22-.32-1.68-.7-3.35-1.01-5.04-.08-.45.04-.93.07-1.49-.13-.18-.31-.42-.49-.66-.06-.84-.12-1.66-.18-2.49.07-.07.14-.14.22-.21,1.3.54,2.65.98,3.88,1.65,1.28.69,2.64.96,4.2,1.41.11.13.3.37.49.59,1.27.28,2.51.55,3.8.83-.07.38-.13.68-.19.99.21.24.41.48.68.8.31,4.56.01,9.23.31,14.42-.03.81-.04,2.17-.14,3.53ZM218.48,146.21c1.18-1.29,2.07-2.82,3.69-3.73,2.29-1.28,4.67-2.18,7.24-2.64,1.9-.34,3.77-.87,5.67-1.2,1.78-.31,3.6-.43,5.39-.69,1.64-.24,3.26-.57,4.89-.82,1.67-.25,3.34-.44,5.01-.66.96-.13,1.92-.35,2.88-.37,2.71-.05,5.43.07,8.14-.04,1.38-.05,2.74.14,4.09.12,2.14-.03,4.09.66,6.14.95,1.84.26,3.69.41,5.53.68.61.09,1.19.41,1.93.68.03-.02.23-.16.27-.19,2.66.54,5.18,1.05,7.73,1.57.43-.18.89-.38,1.34-.57l-.02.19c.85.25,1.82.32,2.53.79,1.17.78,2.49.94,3.76,1.28,1.99.54,3.96,1.11,5.81,2.06.51.26,1.18.21,1.69.47.72.36,1.34.89,2.03,1.31.9.55,1.88.99,2.72,1.61.94.69,1.78,1.53,2.68,2.32-1.05,1.01-1.01,1.63.03,2.58-.08,2.02-1.53,3.95-3.43,4.55-1.19.38-2.37.77-3.57,1.13-.48.14-.97.24-1.46.33-2.26.42-4.51.91-6.79,1.21-2.75.37-5.51.76-8.31.45-.54-.06-1.1.15-1.64.15-.83,0-1.65-.09-2.48-.12-.24,0-.49.07-.73.11-.31.05-.61.16-.92.16-1.87,0-3.74.05-5.6-.04-1.24-.06-2.46-.37-3.69-.5-1.39-.15-2.8-.16-4.18-.36-1.56-.23-3.08-.7-4.64-.9-1.22-.16-2.48-.06-3.72-.11-.78-.03-1.55-.11-2.32-.17-.71-.06-1.44-.09-2.14-.22-1.78-.34-3.54-.76-5.32-1.08-1.03-.19-2.08-.3-3.12-.35-1.12-.06-3.57-.75-4.15-1.3-.46.1-.95.2-1.31.28-1.17-.43-2.25-.83-3.34-1.21-1.85-.63-3.8-.72-5.69-1.11-.53-.11-1.02-.43-1.52-.66-.2-.09-.38-.22-.59-.26-1.29-.29-2.6-.52-3.89-.84-1.64-.41-3.26-.88-4.88-1.36-1.17-.35-2.05-1.61-1.99-2.78.01-.24.08-.53.24-.7ZM216.59,159.63c.11-1.72.22-3.43.35-5.35.27-.65.64-1.52,1.07-2.55.42.12.89.19,1.3.39,1.64.82,3.46.95,5.19,1.41,1.67.45,3.34.94,5.02,1.39.54.14,1.1.22,1.65.29,2.76.36,5.49.9,8.11,1.87.4.15.85.19,1.29.26,1.98.3,3.96.56,5.93.88,2.3.37,4.59.88,6.9,1.16,2.07.25,4.17.25,6.25.43,1.43.13,2.84.4,4.27.6.4.06.81.08,1.21.13,1.85.25,3.68.63,5.54.73,3.74.21,7.5.34,11.25.38,2.26.02,4.53-.18,6.79-.29,1.74-.08,3.49-.1,5.22-.3,1.4-.16,2.77-.54,4.15-.82.12-.02.27-.08.37-.04,1.37.58,2.65-.06,3.9-.39,2.08-.55,4.11-1.27,6.16-1.91.06-.11.13-.22.19-.33.19.22.38.44.57.65-.41,1.66-.69,3.14-.48,4.69.14,1.04-.05,2.12-.05,3.19,0,.45.11.91.14,1.36.03.61.13,1.19-.22,1.81-.27.47-.18,1.15-.25,1.72-1.4,1.25-3.01,1.96-4.76,2.55-1.78.6-3.6.73-5.41,1.04-1.6.27-3.32.07-4.76,1.09-.11.08-.31.03-.46.05-1.46.14-2.95.14-4.37.45-2.13.46-4.29.04-6.39.32-1.64.22-3.21-.04-4.82,0-.95.02-1.9.21-2.85.18-1.56-.06-3.11-.28-4.67-.36-.74-.04-1.48.18-2.22.15-1.5-.06-2.99-.22-4.48-.33-.93-.07-1.86-.11-2.79-.2-1.02-.1-2.03-.2-3.04-.38-.44-.08-.84-.42-1.28-.5-.99-.19-2-.3-3.24-.48-.55-.9-1.71-.34-2.68-.46-2.03-.25-4.09-.25-6.11-.65-.98-.19-1.93-.57-2.91-.79-.7-.16-1.42-.18-2.13-.3-.52-.09-1.03-.26-1.53-.48-1.21-.09-2.44-.1-3.47-.93-.1-.08-.31,0-.45-.06-.6-.23-1.19-.47-1.79-.71-.65-.27-1.29-.56-1.93-.83-.62-.26-1.24-.59-1.89-.75-.92-.23-1.86-.35-2.98-.54-.08-.11-.29-.37-.5-.64-.04.06-.07.13-.11.19-.64-.32-1.32-.58-1.92-.97-1.02-.67-1.97-1.44-2.96-2.14-.73-.51-1.49-.98-2.22-1.49-.91-.63-1.2-1.55-1.2-2.68.14-.2.31-.45.49-.7ZM200.05,165.66c1.37-1.19,3.11-1.4,4.72-1.97.97-.34,1.92-.73,2.9-1.05.7-.22,1.44-.37,2.16-.52.86-.18,1.72-.34,2.45-.48.44.2.78.36,1.24.57-.02.36-.04.85-.06,1.3,1.31,1.2,2.59,2.37,3.92,3.59.86-.04,1.53.34,1.79,1.22.53.06.96.11,1.39.16-.03.06-.05.11-.08.17.68.37,1.36.75,2.19,1.2.02.05.15.29.28.53.04-.07.08-.15.12-.22,1,.26,2.01.53,3.01.78.8.2,1.62.37,2.78.63,1.43.95,3.3,1.97,5.4,2.13,1.96.15,3.68,1.04,5.56,1.39.4.07.81.06,1.2.14,1.4.31,2.79.64,4.33.99,1.52,0,3.15-.09,4.76.03.98.07,1.93.47,2.9.71,1.7.42,3.39.96,5.12,1.21,1.97.29,4,.18,5.97.49,1.46.23,2.84.13,4.27-.04.55-.07,1.12.07,1.68.09,1.43.04,2.86.08,4.29.11.63.01,1.27,0,2.11,0,.36.05.95.2,1.52.18,1.27-.06,2.54-.22,3.82-.34.25-.02.53-.09.75-.01.77.26,1.34.02,1.75-.54.75.13,1.45.38,2.13.35,1.67-.08,3.36-.2,5.01-.45,2.98-.45,5.94-1.03,8.91-1.53.62-.1,1.25-.07,1.87-.19.56-.1,1.11-.31,1.75-.5.41-.17.87-.36,1.33-.56.22-.1.44-.34.65-.32,1.2.08,2.11-.7,3.17-1.01.14-.04.32-.12.4-.23.54-.77,1.29-1.3,1.94-1.94.49-.47.48-1.49.62-2.28.08-.45.01-.93.01-1.59.72.1,1.42.03,1.96.29,2.87,1.38,6.02,1.86,8.98,2.94,1.56.57,3.26.9,4.41,2.23-.05.51-.1.98-.15,1.45l.15.13c-.99.68-1.97,1.36-2.96,2.03-.17.12-.38.23-.58.25-1.84.18-3.5.95-5.21,1.58-1.63.6-3.34.98-5.02,1.42-1.47.39-2.94.75-4.42,1.11-.42.1-.84.19-1.26.25-1.2.18-2.4.35-3.6.52-1,.14-2.02.19-3.01.41-2.32.52-4.73-.03-7.04.69-.68.21-1.5.07-2.24-.03-2.13-.29-4.28-.56-6.41-.27-3.03.41-6.02.05-9.04-.08-.33-.01-.67.13-1,.17-.8.08-1.6.22-2.39.19-1.27-.05-2.54-.25-3.81-.34-1.03-.08-2.06-.09-3.09-.13-1.59-.07-3.17-.12-4.76-.23-1.05-.07-2.1-.25-3.15-.34-.56-.05-1.12,0-1.68-.03-.77-.05-1.53-.13-2.29-.27-1.37.22-6.88-.36-7.58-.79-2.55-.23-4.87-1.03-7.28-.78-.22-.24-.41-.44-.59-.62-.08-.04-.14-.08-.2-.08-1.53-.09-3.05-.17-4.58-.28-.33-.02-.66-.15-.99-.24-.36-.1-.71-.23-1.06-.32-1.18-.29-2.42-.22-3.55-.83-.66-.35-1.52-.31-2.27-.51-1.23-.32-2.44-.69-3.66-1.02-.36-.1-.73-.17-1.09-.23-.24-.04-.53.02-.74-.09-2.23-1.18-4.73-1.48-7.08-2.25-.19-.06-.43,0-.64,0,.02-.06.05-.13.07-.19-.56-.25-1.13-.49-1.97-.86-.63-1.22-2.06-1.24-3.46-1.18-.28-.27-.53-.5-.78-.73-.03.07-.06.13-.1.2-.79-.32-1.58-.63-2.36-.95-1.17-.48-2.33-1-3.51-1.46-.75-.29-1.12-.88-1.38-1.56-.21-.55-.07-.98.42-1.4ZM195.64,185.46c.53-.22.86-.35,1.29-.52-.32-.39-.51-.62-.8-.97.26-.15.53-.31.9-.53-.37-.34-.59-.54-.8-.74-.08,0-.15,0-.23,0,.06-1.34.13-2.68.21-4.37-.36-.8.03-1.98.18-3.13.14-1.01.55-1.97.81-2.97.17-.65.28-1.32.44-1.98.03-.14.16-.26.36-.56.38.23.77.41,1.09.67.95.77,2.12,1.03,3.21,1.49.55.23,1.09.49,1.61.81,2.04.34,3.72,1.93,5.92,1.85,1.75,1.13,3.67,1.98,5.74,2.3,1.92.3,3.68,1.01,5.49,1.63,1.53.52,3.11.9,4.67,1.32,1.45.39,2.9.93,4.38,1.05,1.19.1,2.39.88,3.62.12.14-.09.38-.06.56-.03,1.47.31,2.93.68,4.41.93,1.13.2,2.29.25,3.44.38.24.03.5.07.71.18,1,.54,2.06.71,3.29.55,1.07,1.1,2.61.67,3.99.91,1.37.23,2.8.45,4.25,0,.42.19.83.38,1.25.58,0-.04,0-.08.01-.13,1.26.12,2.52.26,3.79.37.49.04.99.02,1.48.02.53,0,1.06-.02,1.59.02,2.16.15,4.32.39,6.49.45,2.96.08,5.93.03,8.89.04.09,0,.19.01.28.03q1.7.28,3.09-.36c.4.16.78.37,1.19.47.42.09.87.07,1.28-.05.85-.13,1.69-.34,2.54-.36,1.21-.03,2.42.13,3.63.13,2.91-.02,5.82-.03,8.73-.16,1.52-.07,3.03-.38,4.54-.59,1.99-.27,3.99-.56,5.98-.83,1.41-.19,2.85-.28,4.24-.59,1.02-.23,1.96-.79,2.96-1.11.8-.26,1.65-.39,2.52-.43,1.12-.98,2.54-1.2,3.95-1.48.41-.08.76-.43,1.17-.56,1.9-.62,3.65-1.55,5.35-2.59.42-.25.8-.56,1.26-.9.4.86.7,1.77.68,2.77,0,.31,0,.64.08.93.49,1.55.5,3.15.5,4.76,0,1.3.26,2.6.22,3.89-.05,1.5.56,3.02-.18,4.5-.08.17.04.43.02.64-.06.49-.07,1.01-.24,1.46-.26.69-.64,1.33-.98,1.99-.07.14-.15.32-.27.37-.98.45-1.61,1.64-2.84,1.38-.98.75-1.6,1.99-3.04,1.75-.5.1-.99.21-1.49.3-1.33.22-2.66.41-3.98.64-.17.03-.32.18-.47.29-1.09.84-2.34.94-3.42.86-.74.38-1.31.8-1.94.95-1.06.26-2.05.62-3.06,1.06-1.29.56-2.74.74-4.12,1.09-1.62.41-3.24.82-4.98,1.26-.37-.13-.87-.31-1.2-.42-2.11.85-4.23.91-6.27,1.35-.98.33-1.96.32-3.01.33-1.54,0-3.07.42-4.61.63-.39.05-.8,0-1.2.02-.61.02-1.23.1-1.84.09-1.37-.02-2.74-.11-4.1-.12-.62,0-1.24.15-1.86.18-1.4.06-2.79.07-4.19.13-.83.04-1.65.19-2.48.21-.45.01-.91-.14-1.39-.23-7.94,1.13-15.87.51-23.76-.69-.84-.24-1.67-.47-2.51-.71-.45-.13-.88-.33-1.33-.44-1.26-.3-2.53-.57-3.8-.84-.21-.05-.43-.06-.63-.14-1.28-.48-2.53-1.06-3.84-1.44-1.33-.39-2.72-.58-4.08-.86-.82-.17-1.63-.39-2.45-.55-.42-.08-.85-.1-1.22-.29-2.14-.76-4.27-1.57-6.43-2.28-1.2-.39-2.47-.57-3.69-.93-.77-.23-1.49-.61-2.24-.91-.59-.24-1.18-.47-1.81-.63-.67-.65-1.43-1.11-2.43-1.19-.28-.02-.52-.39-.81-.52-1.01-.45-2.04-.87-3.07-1.28-.2-.08-.45-.01-.65-.09-.51-.19-1.02-.4-1.51-.64-.3-.15-.62-.56-.85-.51-1.02.25-1.5-.41-1.93-.95-1.52-.51-3.15-.53-4.07-2.26.06-1.66-.31-3.54-.15-5.28ZM224.97,223.06c-1.38-.52-2.46-1.12-3.61-1.32-1.3-.23-2.31-.85-3.38-1.57-.83.2-1.52,0-2.26-.59-.67-.53-1.61-.71-2.41-1.07-.64-.29-1.3-.57-1.88-.95-.51-.33-.93-.8-1.38-1.21-.04.07-.07.15-.11.22-1.04-.38-2.06-.8-3.12-1.12-.85-.26-1.73-.54-2.65-.25-.22.07-.5.04-.74-.02-1.14-.28-2.28-.58-3.49-.72-.15-.23-.3-.47-.41-.64-.93-.68-2.32-.12-2.94-1.35-1.29.13-2.39-1.08-3.72-.43-1.05-.67-2.03-1.41-3.11-1.96-.68-.35-1.49-.51-2.26-.62-.53-.08-.99-.1-1.46-.46-.36-.28-.93-.29-1.4-.42-.03.08-.06.15-.08.23-.16-.18-.33-.36-.37-.41-1.03-.23-1.89-.49-2.77-.6-.9-.12-1.81-.09-2.83-.13-.48-.4-1.13-.9-1.72-1.45-.81-.76-1.65-1.43-2.79-1.59-.97-1.24-2.55-1.37-3.85-1.79-2-.64-3.72-1.84-5.72-2.44-.68-.21-1.28-.66-1.92-1-.03.06-.06.11-.09.17-.37-.34-.73-.67-1.1-1.01-.02.04-.04.09-.06.13-.76-.33-1.5-.73-2.28-.97-1.1-.34-2.22-.63-3.36-.83-.62-.11-1.11-.3-1.53-.79-.2-.23-.56-.32-1.03-.57-.05-.11-.19-.42-.41-.92.63-.17,1.16-.32,1.91-.53.14-.44.32-1.03.56-1.77.18-.05.54-.13.89-.23.67-.21,1.33-.46,2.01-.65.38-.1.8-.05,1.18-.16,1.7-.47,3.39-.99,5.09-1.45.9-.24,1.82-.4,2.73-.61,1.28-.29,2.54-.64,3.83-.88.56-.11,1.16-.02,1.74-.02.6-.08,1.2-.18,1.81-.25,1.89-.23,3.79-.4,5.68-.68,2.31-.35,4.65-.65,6.9-1.25,1.24-.33,2.42-.35,3.65-.37.29,0,.59-.18.88-.29.4-.15.8-.31,1.29-.51.13,1.12.3,2.11.36,3.11.05.9-.04,1.82-.04,2.72,0,.27.09.54.16.89-.09.25-.21.57-.34.95.89.82,1.97,1.29,3.07,1.71,1.46.55,2.98.92,4.36,1.73.98.57,2.18.76,3.35,1.14,1.03.8,2.3,1.08,3.45,1.15.62.44,1.07.86,1.61,1.11,1.2.56,2.43,1.06,3.67,1.54,1.42.55,2.86,1.06,4.3,1.56.28.09.61.01,1.03.01.9,1.03,2.34,1,3.58,1.46.26.09.51.19.77.28,1.01.38,2,.84,3.04,1.11.99.26,2.03.4,3.06.46.78.05,1.46.25,2.1.66.59.38,1.23.49,1.94.52.66.03,1.35.28,1.95.58,1.33.64,2.79.52,4.16.86.12.03.25.02.41.04.22.18.45.38.69.58.01-.04.02-.08.04-.12,1.03.29,2.06.63,3.1.84.97.2,1.98.26,2.96.4.52.07,1.1.07,1.52.32.61.37,1.22.4,1.88.44,1.65.11,3.29.31,4.94.41.98.06,1.97.03,2.96.04.15,0,.31-.03.46,0,2.05.49,4.1.27,6.15-.01.68-.09,1.37-.04,2.06-.05.16,0,.32.04.47.01,2.93-.49,5.88-.43,8.83-.29,1.43.07,2.87.09,4.3.01,2.79-.15,5.58-.35,8.36-.57,1.01-.08,2.02-.26,3.03-.39.01.07.03.14.04.21.49-.26.99-.52,1.48-.78.01.05.03.11.04.16.71-.16,1.42-.36,2.14-.47,1.21-.17,2.44-.19,3.64-.42,1.86-.35,3.78-.08,5.61-.71,1.76-.6,3.57-1.07,5.36-1.58.39-.11.8-.12,1.19-.22,1.04-.27,2.08-.45,3-1.13.49-.37,1.23-.4,1.86-.58,1.56-.44,3.11-.92,4.68-1.31,1.15-.28,2.32-.55,3.49-.64,1.5-.11,2.79-.77,4.11-1.33,1.52-.65,2.94-1.5,4.39-2.29.21-.11.35-.34.53-.51.38-.35.79-.67,1.13-1.05.31-.34.62-.7.8-1.12.56-1.26.93-2.57.94-3.98,0-1.05.15-2.1.24-3.36,3.31,1.24,6.14,3.27,9.51,4.5.75-.4,1.45.13,2.15.6.8.52,1.58,1.09,2.41,1.57,1.94,1.12,3.89,2.21,5.85,3.3.44.24.89.46,1.37.61,1.53.48,3.08.89,4.43,1.82.41.28.96.45,1.46.5.88.09,1.58.48,2.27.98.35.25.74.45,1.12.65.27.14.58.37.85.34,1.01-.1,1.86.19,2.68.76.3.21.71.24,1.06.36,1.29.43,2.58.85,3.86,1.31.29.11.52.4.77.61.01.04.03.09.04.13,0,.02-.02.04-.04.06-.15.04-.32.16-.44.12-2.09-.67-3.97.36-5.92.75-1.61.32-3.23.62-4.83.99-1.16.26-2.28.79-3.44.88-1.46.12-2.65.85-3.96,1.29-.2.07-.4.18-.61.21-1.01.17-2.02.33-3.03.47-.24.03-.49-.03-.83-.05-1.17,1.17-2.69,1.25-4.28,1.01-.18-.03-.37.01-.56.05-1.5.27-2.99.54-4.49.82-.24.04-.49.07-.73.13-.63.15-1.25.41-1.89.46-1.58.13-3.13.32-4.66.79-1.12.34-2.3.47-3.45.77-.56.11-1.12.27-1.69.33-1.17.13-2.38,0-3.45.65-.13.08-.32.13-.45.09-1.71-.55-2.99.52-4.42,1.1-.61.25-1.31.28-2.01.26-.31.14-.62.28-.96.44-.25-.13-.5-.25-.83-.42-1.31.37-2.68.8-4.07,1.14-.66.16-1.37.28-2.03.19-.82-.11-1.48.03-1.82.38-2.75.38-5.23.73-7.63,1.06-.31.22-.54.38-.77.54-.01-.03-.02-.06-.03-.1-.5.15-1,.29-1.49.46-1.23.42-2.59.37-3.73,1.15-.23.16-.7-.01-1.06-.05-1.07-.11-2.06.33-3.08.51-1.31.23-2.61.46-3.92.69-.4.07-.8.15-1.2.2-1.3.17-2.6.34-3.91.47-.3.03-.61-.08-.9-.04-2.49.35-4.98.7-7.58,1.06-1.44-.08-2.89.42-4.36.81-1.01.27-2.01.61-3.04.81-1.21.23-2.45.37-3.68.49-.46.05-.93-.05-1.48-.09-.09.11-.23.27-.37.42-1.42.05-2.89-.12-3.97.72-1.32.14-2.47.26-3.61.38-.01-.06-.03-.11-.04-.17-.26.17-.52.33-.82.53-.67-.59-1.38-.38-2.17-.22-1.08.21-2.2.18-3.3.26-.22-.25-.4-.45-.63-.69-.94.72-1.6-.44-2.48-.38-.32.02-.65-.07-.98-.14-.51-.1-1.03-.21-1.53-.34-.47-.12-.94-.27-1.54-.45-.55-1.07-1.91-.45-2.84-1-.89-.53-1.88-.91-2.89-1.21-.2-.19-.4-.38-.61-.56-.54.15-1.05.28-1.41.38-2.75-1.56-5.66-1.96-8.22-2.49ZM241.84,230.5c-.51-.03-1.12.11-1.51-.13-1.28-.77-2.74-.75-4.11-1.15-.88-.26-1.7-.52-2.43-1.08-.48-.36-1.04-.59-1.57-.88-.04.06-.09.11-.13.17-.26-.37-.51-.74-.86-1.25,3.26.98,6.16,2.37,9.23,3.27.05-.06.11-.11.16-.17.41.31.83.63,1.24.94-.01.08-.02.17-.03.26ZM251.31,235c-.82-.43-1.61-.93-2.47-1.26-1.25-.47-2.58-.73-3.8-1.24-1.03-.43-2.14-.81-2.91-1.85.32-.23.56-.41.85-.62.84.34,1.66.71,2.5,1.01.47.16.97.24,1.47.27,1.45.09,2.92.05,4.35.23,1,.12,1.97.53,2.99.82,2.02-1.25,4.48-.92,6.7-1.57.67-.17,1.33-.37,2-.5.67-.14,1.36-.19,2.03-.32,1.36-.27,2.72-.56,4.15-.7.17-.21.34-.41.52-.63.83-.05,1.75.59,2.34-.18.81-.06,1.48-.1,2.14-.15,0-.05,0-.1,0-.15.53.07,1.05.14,1.61.22.94-.68,1.97-1.01,3.16-.54,1.15-.76,2.44-.88,3.77-.84.34,0,.67-.12,1.01-.14.83-.05,1.67-.05,2.5-.12.45-.04.89-.17,1.33-.27.91-.2,1.82-.42,2.74-.59,1.32-.25,2.64-.45,3.95-.71,1.55-.31,3.08-.65,4.62-.98.06-.01.14.01.18-.02,1.82-1.34,4.18-.8,6.15-1.79.92-.46,2.18-.24,3.28-.36.57-.06,1.14-.16,1.7-.27.95-.19,1.88-.42,2.83-.62.58-.12,1.16-.27,1.74-.34,1.26-.14,2.52-.23,3.78-.35.19-.02.4-.02.55-.11.82-.48,1.66-.77,2.66-.67.31.03.67-.39.97-.66.09-.03.18-.07.27-.07,2.57-.23,5.15-.35,7.69-.71,1.36-.19,2.67-.79,4.01-1.2.29-.09.59-.18.9-.2,1.24-.11,2.49-.14,3.72-.32.94-.14,1.85-.49,2.78-.68,1.2-.25,2.37-.75,3.65-.52.25.04.54-.11.81-.17.36-.09.73-.3,1.08-.26,1.09.1,2.09-.14,3.12-.44.64-.18,1.34-.11,2.19-.17.41-.72,1.41-.63,2.25-.9,1.15-.37,2.31-.74,3.49-1.01.53-.12,1.11-.02,1.68.1,1.06-.74,2.3-.94,3.59-1.11.87-.11,1.69-.6,2.57-.78,1.62-.33,3.25-.57,4.88-.84.18-.03.39-.06.56,0,1.01.28,1.98.13,2.96-.15.59-.17,1.22-.21,1.9-.32.24.48.46.91.78,1.54-.75.27-1.44.63-2.16.74-1.29.19-2.62.17-3.91.34-.6.08-1.15.45-1.75.56-1.49.27-3,.44-4.49.72-1.7.32-3.38.79-5.09,1.08-2.12.36-4.3.43-6.38.93-1.21.29-2.47.36-3.68.92-1.13.52-2.54.45-3.83.63-.39.05-.8.02-1.18.13-1.3.37-2.6.63-3.73.42-3.17.74-6.13,1.42-9.1,2.11.01.06.03.12.04.18-1.13.27-2.25.57-3.39.79-1.58.31-3.16.66-4.76.82-1.9.19-3.6,1.14-5.56,1.18-1.34.02-2.68.59-4.02.91-.21.05-.45.17-.63.12-1.08-.3-1.89.35-2.82.66-1.25.42-2.59.55-3.89.84-.98.21-1.95.47-2.92.64-3.52.54-7.04,1.08-10.56,1.62-.01-.05-.02-.11-.03-.16-.27.16-.53.32-.88.53-1.07-.36-2.11.1-3.2.39-1.41.38-2.88.52-4.32.77-1.08.18-2.15.41-3.24.53-.83.09-1.68.04-2.53.03-1.21-.02-2.37.07-3.41.81-.24.17-.61.3-.88.24-.83-.17-1.52.24-2.27.4-1.36.3-2.76.47-4.13.74-.95.18-1.88.42-2.83.64-.03,0-.07-.02-.1-.03-.53.11-1.05.22-1.58.33-1.4.27-2.8.57-4.21.8-.96.16-1.94.23-2.91.37-1.18.14-2.36.28-3.57.42-.16.24-.3.48-.48.69-.4.5-1.36.68-1.88.4ZM268.38,298.18c-.51.11-.93.25-1.35.27-.59.03-1.19-.04-1.78-.06-.76-.03-1.5-.04-2.09.59-.11.12-.34.14-.52.18-1.91.45-3.82.91-5.75,1.32-.62.13-1.27.09-1.89.16-1.77.32-3.53.63-5.3.96-1.01.19-2,.49-3.01.59-.87.09-1.76-.04-2.69-.07-.1-1.14-.15-2.07-.26-2.99-.22-1.79-.42-3.57-.23-5.39.13-1.21-.18-2.46-.29-3.69l-.28-.1c.27-.16.54-.32.76-.44,0-1.84.09-3.53-.03-5.2-.11-1.51.31-3.06-.26-4.55-.05-.13,0-.31,0-.46.05-.9.13-1.8.15-2.71.03-1.21.03-2.42,0-3.64-.01-.38-.21-.76-.29-1.14-.06-.27-.18-.6-.07-.81,1.41-2.8,1-5.83.8-8.72-.16-2.39.01-4.69.34-7.02.08-.61.53-1.18.83-1.78,1.84.91,3.77,1.19,5.26,2.46,0,.46,0,.86,0,1.27.03,1.62.87,2.46,2.47,2.5.87.02,1.74.11,2.6,0,1.26-.15,2.51-.44,3.76-.69,1.6-.33,3.2-.65,4.78-1.05.75-.19,1.45-.58,2.18-.85.36-.13.74-.22,1.04-.3-.1,1.73-.19,3.36-.28,4.92.32.24.52.39.69.52.29,1.12-.24,2.39.61,3.08-.07.72-.14,1.21-.15,1.71-.02.87-.03,1.75,0,2.63.11,2.71.25,5.41.38,8.11.04.99.07,1.99.11,3.17-.07.37-.2.87-.23,1.37-.08,1.15-.14,2.3-.16,3.45-.03,1.45,0,2.9-.02,4.34,0,.67-.07,1.34-.1,2-.06,1.23-.16,2.46-.13,3.69.02.72.25,1.44.42,2.36ZM284.25,259.52c.37,1.56-.27,3.69-1.96,4.17-.71.2-1.29.83-1.96,1.21-1.73.99-3.54,1.75-5.6,1.74-.21.23-.42.46-.65.71-1.14.23-2.29.46-3.61.73-.05-.66-.13-1.14-.12-1.62.03-.95.24-1.9-.33-2.78-.11-.17-.13-.42-.14-.63-.07-1.46-.11-2.93-.18-4.4-.01-.28-.07-.55-.12-.83-.21-1.17.49-2.18,1.65-2.42.69-.14,1.37-.36,2.06-.54,1.74-.48,3.47-.97,5.21-1.43.29-.08.62-.01.92-.01,0-.03-.02-.06-.03-.09,1.38-.36,2.76-.71,4-1.04.76.62.94,1.22.93,1.96-.03,1.52.36,3.05-.18,4.55-.07.2.05.48.11.72ZM335.99,243.95c-.12.86-.39,1.7-.44,2.55-.06,1.11.08,2.23.05,3.35-.02.77-.22,1.54-.29,2.31-.09.95-.12,1.9-.16,2.85-.06,1.21-.11,2.42-.18,3.63-.03.56-.15,1.11-.18,1.67-.08,1.15-.14,2.31-.19,3.46-.07,1.81-.08,3.62-.18,5.42-.05.83-.27,1.65-.36,2.48-.23,2.13-.42,4.27-.63,6.4-.04.38-.12.76-.22,1.37-2.61-1.82-5.02-3.5-7.49-5.23h-.88c-.25-.29-.55-.65-.71-.84-.67-.16-1.17-.19-1.55-.41-.36-.21-.79-.62-.84-.98-.1-.88.02-1.78.02-2.67,0-1.44-.04-2.88-.06-4.33l-.25-.02c.16-.37.33-.73.43-.97.04-.63.1-1.12.08-1.61-.01-.48-.12-.95-.16-1.42-.04-.43-.07-.87-.07-1.3,0-1.15,0-2.31,0-3.46,0-.44,0-.88-.05-1.31-.08-.71-.14-1.42-.31-2.11-.26-1.09.05-2.16.04-3.23-.01-1.05.16-2.1.17-3.14,0-.76.51-1.73,1.23-1.91,1.18-.28,2.37-.58,3.57-.7,1.19-.12,2.4-.03,3.71-.03.46-.78,1.32-.41,2.06-.49,1.2-.12,2.4-.22,3.71-.35.06.4.18.72.14,1.02ZM360.51,265.4c-.23.99-.55,1.97-.78,2.96-.28,1.18-.45,2.38-.77,3.54-.32,1.14-1.36,1.57-2.33,2.01-.39.18-.85.19-1.24.38-.55.26-1.11.51-1.66.77-.06.03-.13.02-.18.06-.94.62-2,.89-3.06,1.22-1.37.43-2.62,1.25-3.92,1.89-.28.14-.56.28-.85.4-1.11.47-2.27.84-3.31,1.43-.72.42-1.45.54-2.21.61-.71.07-1.44.05-2.16,0-.95-.07-1.83-1.07-1.84-2.03,0-.06-.01-.13,0-.19.52-1.67.07-3.38.16-5.1.23-.27.46-.55.6-.71.07-1.38.02-2.64.23-3.85.14-.84.1-1.54-.44-2.22.53-1.25.69-2.5.34-3.85-.14-.57.14-1.24.18-1.88.16-1.31.39-2.61.48-3.93.08-1.22.02-2.44.02-4,.86-1.24-.32-3.14.53-4.71-.15-.6-.29-1.14-.42-1.65.33-.88.65-1.7,1.02-2.67-.17-.93.09-1.55,1.06-1.77,2.06-.47,4.15-.83,6.53-1.3.44-.16,1.18-.43,2.09-.77.71.25,1.43.07,2.24-.2,1.35-.44,2.79-.59,4.19-.86,1.86-.35,3.72-.7,5.71-1.08.13,1.96-.26,3.8-.49,5.65.71.92.3,1.97.32,2.98.04,1.52.07,3.03.11,4.55,0,.12,0,.24,0,.36-.02,1.77-.04,3.54-.07,5.31-.01.75-.06,1.5-.07,2.25,0,.46.03.92.15,1.38-.19,1.12-.48,2.2.02,3.38.19.45-.04,1.1-.17,1.64ZM379.88,215.16c-.11.77-.23,1.53-.37,2.48-.05.06-.23.27-.41.48.06,0,.12.01.18.02-.05,1.07.05,2.17-.18,3.2-.23,1-.37,1.95-.12,2.95.05.21,0,.44,0,.62q-1.23,1.37-1.03,3.45c-.15.11-.31.24-.5.39,0,0-.02.03,0,.04.42.78.12,1.37-.58,1.7-.61.28-1.29.42-1.96.55-.72.14-1.36.39-2.02.75-.77.42-1.7.57-2.57.8-.96.25-1.94.43-2.9.71-.88.26-1.74.61-2.61.92-.24.08-.49.23-.72.2-1.52-.23-2.69.64-3.95,1.2-.2.09-.41.17-.62.21-1.31.25-2.63.47-3.94.72-.43.08-.84.25-1.26.35-.71.16-1.43.29-2.16.39-1.45.3-2.91.6-4.36.9-.39.08-.83.09-1.17.28-1.22.68-2.61.48-3.9.8-2.06.51-4.19.73-6.24,1.25-.75.19-1.44.1-2.14.17-1.4.13-2.83.04-4.21.65-1.02.45-2.21.72-3.35.08-.89.65-1.82.97-2.95.76-.49-.09-1.06.25-1.58.33-.97.12-1.97.15-2.92.37-1.63.38-3.22.94-4.85,1.3-.74.16-1.55.03-2.55.03-1.4.88-3.53-.21-4.91,1.11-.7.1-1.25.19-1.8.26-.98.13-1.96.21-2.93.37-1.08.18-2.17.28-3.24.64-1.31.44-2.73.66-4.12.79-1.37.13-2.46.87-3.65,1.39-.09.04-.17.08-.27,0-.76.07-1.55.03-2.27.23-1.14.32-2.36,0-3.47.64-.61.35-1.44.32-2.16.47-1.15.23-2.29.49-3.45.71-.76.14-1.62.04-2.29.35-1.29.59-2.69.7-4,1.14-1.42.47-2.89.81-4.29,1.33-1.05.4-2.16.62-3.16,1.03-1.61.65-3.32.79-4.91,1.41-1.48.58-2.99.96-4.61.91-.38-.01-.76.22-1.24.38-.21-.14-.49-.32-.63-.41.05-.58.09-1.02.14-1.46-.04,0-.09,0-.13-.01.16-.26.33-.53.57-.91-.22-.37-.46-.78-.7-1.19-.09,0-.19.01-.28.02.18-1.22.37-2.43.54-3.65.03-.18.02-.38.02-.56-.04-1.7-.12-3.4-.12-5.1,0-.48.2-.97.3-1.45.26-1.26.44-2.55.81-3.78.16-.56.69-1.01,1.06-1.54-.17-.25-.32-.48-.46-.68.3-.65.76-.84,1.42-.93,1.79-.23,3.56-.59,5.34-.88,1.51-.24,3.01-.46,4.52-.69.15-.02.34.02.46-.05,1.42-.85,3.09-.54,4.6-1.04,1.51-.49,3.08-.81,4.65-1.1,2.09-.39,4.2-.66,6.3-1,.95-.16,1.89-.38,2.83-.56.3-.06.61-.09.92-.11.28-.02.58.04.83-.05,2.3-.76,4.72-.87,7.09-1.27,3.04-.52,6.1-.92,9.14-1.45.71-.12,1.38-.56,2.16-.89.96.49,1.88.16,2.81-.42.32-.2.76-.2,1.15-.27.18-.03.42.06.55-.03,1.06-.7,2.29-.77,3.49-.92.59-.07,1.18-.08,1.76-.19,1.47-.28,2.92-.61,4.39-.91.7-.15,1.41-.26,2.11-.43,1.41-.34,2.81-.75,4.23-1.06.98-.21,1.98-.31,2.97-.46.55-.09,1.11-.18,1.66-.28.45-.08.89-.16,1.34-.25,1.48-.52,2.82-1.12,4.38-1.08.77.02,1.54-.37,2.32-.55.9-.21,1.81-.39,2.71-.58.55-.11,1.09-.23,1.64-.3.58-.07,1.17-.08,1.75-.12.28-.02.56-.06.83-.1.73-.11,1.47-.22,2.2-.35.48-.09.95-.25,1.44-.36,1.3-.29,2.61-.58,3.92-.86.12-.03.25-.06.37-.06,2.13,0,4.13-.77,6.22-1.05.68-.09,1.38-.04,2.05-.17,2.64-.48,5.27-1.02,7.91-1.5.51-.09,1.06.02,1.58-.05,1.44-.18,2.87-.45,4.32-.59.83-.08,1.68-.03,2.52.04.52.04.85.74.74,1.44Z"/>
  <path class="cls-1" d="M380.72,208.14s-.03.07-.03.11c0-.04,0-.08.03-.11Z"/>
  <path class="cls-1" d="M375.08,207s.03.09.04.13c0,.02-.02.04-.04.06h.01c0-.06,0-.13,0-.2h0Z"/>
  <polygon class="cls-1" points="267.22 133.99 267.2 134.02 267.24 134 267.22 133.99"/>
  <path class="cls-1" d="M375.08,206.99c0,.07,0,.14,0,.21-.04-.03-.08-.07-.13-.1.04-.04.08-.07.13-.1Z"/>
  <path class="cls-1" d="M327.03,234.05c-.09-.24-.25-.51-.29-.8-.06-.48-.08-.97-.02-1.45.07-.58.24-1.14.36-1.71-.08-.02-.16-.04-.24-.07.18-.32.35-.63.67-1.2.41.83.74,1.49,1.07,2.16.15-.05.35-.12.61-.2.17-.46.35-.95.45-1.2.86-.75,1.6-1.32,2.25-1.97,1.68-1.7,3.85-1.67,5.14.15.21.3.36.76.31,1.11-.23,1.47-.79,2.78-2.12,3.63-.08.05-.19.08-.23.15-.61,1.08-1.75,1.44-2.7,2.07-.94.62-2,.62-3.05.7-.21.02-.46-.17-.67-.31-.49-.32-.97-.66-1.55-1.05ZM332.39,229.48c-.76,1.14-2.31,1.66-2.11,3.39,1.81.41,2.95-1.06,4.38-1.99.08-.22.19-.51.3-.82-.24-.32-.45-.62-.68-.93-.68.12-1.32.24-1.89.35Z"/>
  <path class="cls-1" d="M365.68,222.16c.47-.24,1.11-.55,1.93-.96.08-.09.3-.35.51-.59,2.45-.76,4.31-.3,5.18,1.44,0,.71,0,1.43,0,2.03-.22.67-.33,1.29-.62,1.82-.28.51-.66,1.03-1.13,1.34-.84.56-1.75,1.1-2.7,1.36-.47.13-1.16-.33-1.66-.66-.92-.6-1.34-1.61-1.78-2.56-.12-.26-.09-.61-.06-.9.08-.7.2-1.39.33-2.31ZM368.04,222.88c.14.98.25,1.81.4,2.83.41.07.88.15,1.24.22.32-.51.6-.83.74-1.2.22-.6.55-1.24.12-1.87-.43-.63-1.05-.38-1.62-.24-.26.06-.52.15-.87.26Z"/>
  <path class="cls-1" d="M348.63,231.31c-.63-.49-1.24-.95-1.83-1.44-.16-.13-.3-.33-.37-.52-.46-1.26.18-3.54,1.24-4.33.23-.17.59-.17.87-.29.67-.29,1.32-.61,1.99-.92-.03-.06-.06-.12-.08-.18.6-.15,1.21-.31,1.81-.45,1.47-.33,2.52.73,2.17,2.17-.2.81-.37,1.62-.53,2.44-.22,1.15-1.08,1.82-1.93,2.43-1.22.88-1.26.82-3.33,1.1ZM349.2,228.28c.53.19,1.04.38,1.73.63.24-.76.44-1.4.66-2.1.21-.16.5-.38.84-.64-.25-.28-.42-.48-.7-.79-.35.38-.64.71-.84.92-.63.3-1.16.55-1.7.8v1.17Z"/>
</svg>