<?xml version="1.0" encoding="UTF-8"?>
<svg id="Livello_1" data-name="Livello 1" xmlns="http://www.w3.org/2000/svg" viewBox="0 0 274.41 274.41">
  <defs>
    <style>
      .cls-1 {
        fill: #fff;
        stroke-width: 0px;
      }
    </style>
  </defs>
  <path class="cls-1" d="M196.16,166.18c-.24-.74-.08-1.47-.14-2.2-.02-.22.02-.45,0-.67-.02-.18-.08-.36-.17-.52-.15-.27-.17-.56-.17-.86.01-.39-.03-.79,0-1.17.08-.73-.25-1.29-.62-1.74-.24-.89.28-1.59.29-2.45-.16-.13-.35-.28-.51-.41-.03-.74-.03-1.42.58-1.98-.45-.26-.21-.66-.24-1-.04-.36,0-.72,0-.93-.26-.61-.47-1.08-.67-1.56.08-.17.15-.33.23-.5.15-.02.3-.05.44-.07,0-.8.02-1.56,0-2.31-.03-.73-.17-1.47-.15-2.19.03-1.09-.23-2.12-.59-3.12-.08-.22-.16-.52-.08-.61.24-.26.11-.53.14-.79.02-.19-.05-.42.02-.58.33-.64.05-1.31.15-1.95-.35-.77-.21-1.51.23-2.28-.29-.58-.6-1.18-.89-1.75.12-.23.28-.43.32-.64.09-.64.13-1.29.18-1.8-.23-.5-.4-.87-.58-1.28.23-.19.43-.34.55-.45.08-.44-.09-.81.19-1.12.05-.06.03-.26-.02-.31-.22-.18-.13-.41-.13-.62-.01-.67,0-1.34,0-2.01,0-.28-.1-.62.02-.83.33-.54.03-.8-.35-1.06v-.67c.7-.69.69-1.9-.15-3.37.49-.49.25-1.13.34-1.68.12-.12.22-.22.32-.32,0-.5-.01-1.01,0-1.51.01-.49-.37-.87-.34-1.37.11-.04.21-.08.38-.14-.18-.48-.37-.95-.56-1.46.05-.07.17-.15.17-.23,0-.68.17-1.32.34-1.96.05-.18.03-.4-.03-.57-.15-.43-.34-.85-.28-1.3.06-.51-.21-.95-.17-1.44.02-.29.15-.57.15-.85,0-.36.06-.69.2-.89.22-.14.35-.23.46-.3-.44-.74-.34-1.56-.48-2.33,0-.04.05-.09.07-.14.19-.36.17-.79.04-1.11-.1-.25-.1-.47-.11-.71-.01-1.26,0-2.52,0-3.77,0-.39.03-.75.34-1.04,0-.53-.1-1.08.03-1.58.13-.54.19-1.02-.01-1.55-.08-.21-.09-.55.02-.73.26-.41,0-.92.34-1.27-.16-.18-.28-.32-.39-.45.17-.49.55-.9.19-1.43-.05-.08-.05-.26,0-.32.27-.32.14-.68.15-1.03.02-.61,0-1.23.01-1.84,0-.23.09-.46.14-.7-.04-.07-.14-.16-.14-.25-.03-.87.05-1.75-.16-2.62-.11-.46.1-.98-.17-1.44-.04-.06.04-.2.07-.3.03-.13.08-.25.09-.38.03-.32.06-.63.13-.94.09-.39.04-.83-.09-1.28-.22-.79-.68-1.6-.21-2.46-.09-.87.17-1.75-.15-2.62-.07-.2.03-.48.08-.71.08-.37.11-.7-.06-1.09-.15-.34-.38-.8-.17-1.16.16-.28.12-.52.14-.79.02-.3,0-.61,0-.84-.14-.27-.25-.48-.28-.54.06-.46.1-.76.13-1.03-.16-.15-.26-.24-.37-.35.13-.86-.06-1.64-.68-2.37.15-1.1-.08-2.21-.37-3.4-.39-.32-.85-.71-1.29-1.07.01-.18.02-.31.03-.43.32-.04.66.1.79-.3-.26-.26-.52-.52-.78-.78-.01-.12-.03-.25-.04-.38-.09-.08-.16-.17-.25-.22-.52-.24-1.03-.48-1.51-.82-.46-.33-1.05-.44-1.62-.52-.48-.06-.96-.09-1.44-.18-.2-.04-.38-.17-.55-.28-.09-.05-.16-.19-.25-.21-.68-.13-1.36-.25-2.04-.34-1.05-.14-2.07.26-3.13.16-.37-.32-.73-.74-1.18-.39-.32-.03-.56-.13-.7-.05-.47.26-.9.11-1.31-.07-.39-.17-.79-.28-1.21-.32-.54-.05-1.07-.01-1.61-.14-.76-.18-1.57-.15-2.36-.2-.19-.01-.4.03-.59,0-.35-.08-.69-.2-1.11-.33.57-.49.62-1.24,1.24-1.59.09-.64-.11-1.33.17-2,.05-.12-.08-.3-.09-.45-.03-.48-.49-.93-.02-1.39-.31-.62-.59-1.21-.88-1.78-.58-1.13-1.54-1.62-2.75-1.68-.27.24-.52.46-.82.72-.21-.1-.47-.22-.81-.37h-.9c-.36-.22-.72-.44-1.09-.66-.13.05-.27.11-.42.16-.34.12-.61-.18-.94-.17-.36.01-.79.12-1.08-.03-.4-.2-.94-.04-1.22-.53-.41.09-.81.14-1.18.28-.3.12-.52.15-.82-.04-.2-.13-.47-.22-.76-.19-.75.07-1.41-.18-1.99-.69-.23.07-.45.15-.66.22-.32-.24-.62-.46-.86-.64-.74-.09-1.41-.17-2.03-.24-.69.38-1.32.75-1.97,1.08-.7.36-1.22.88-1.54,1.6-.04.1-.09.19-.19.38.06.51.14,1.13.21,1.68-.49.7-.46,1.36-.22,1.97-.14.21-.27.39-.37.52-.57.03-.78.14-.78.39.05.07.11.16.19.28-.38.54-.53,1.22-.99,1.75-.19.22-.33.55-.17.9.07.14.12.29.17.43-.33.33-.72.43-1.11.44-1.06.03-2.12.01-3.19,0-.12,0-.24-.08-.33-.11-.56.15-1.11.29-1.63.42-.16-.05-.31-.12-.46-.13-1.13-.13-2.24.17-3.37.16-.03,0-.07-.01-.08,0-.34.37-.63.05-.93-.07-.1-.04-.19-.09-.17-.08-.38.06-.64.12-.89.14-.25.02-.52-.05-.75.02-.42.13-.8.28-1.21,0-.06-.04-.21,0-.31.04-.22.08-.42.25-.64.27-.38.03-.71.32-1.1.18-.36-.13-.71-.3-1.09-.46-.43.14-.84.42-1.11.57-.62-.04-1.09-.15-1.52-.08-.22.04-.45.11-.69.14-.23.03-.46.12-.69.16-.16.03-.4.07-.49-.01-.27-.26-.58-.1-.8-.14-.26.13-.47.24-.71.37-.16-.2-.32-.39-.38-.47-.8.17-1.5.01-2.16.11-.64.1-1.26.32-1.91.48-.15-.07-.35-.11-.47-.23-.2-.19-.51-.17-.61-.08-.26.21-.53.09-.79.14-.26.05-.51.11-.77.16-.08.02-.19.04-.25,0-.53-.41-.94.04-1.44.13,0,0-.03-.07-.07-.07-.56-.05-1.12-.13-1.69.05-.45.14-.94.17-1.42.22-.28.03-.56-.02-.84.01-.43.06-.85.29-1.29,0-.05-.03-.19.07-.29.1-.72.19-1.41.46-2.18.4-.57-.04-1.13-.09-1.69-.14-.78-.07-1.57-.12-2.37.11-.58.17-1.25-.09-1.85.19-.05.02-.14.03-.16,0-.24-.29-.57-.11-.86-.17-.15-.03-.29-.11-.37-.14-.75.16-1.41.44-2.12.47-.3.01-.62.04-.9-.05-.54-.16-1.07-.32-1.64-.29-.33.02-.67,0-.95,0-.22-.12-.4-.22-.51-.28-.21.04-.36.09-.51.1-.96.06-1.91.11-2.87.17-.08,0-.16.02-.23.04-1.01.28-1.63.12-2.36-.62-.07-.29-.14-.54-.2-.8-.12-.57-.18-1.15-.36-1.7-.07-.2-.16-.4-.14-.61.06-.6-.1-1.11-.49-1.45.07-.28.12-.48.18-.69-.3-.3-.58-.58-.86-.86-.05-.28.13-.66-.3-.87h-.72c-.27-.31-.49-.57-.72-.84-.02.02-.04.05-.05.07-.25-.14-.5-.27-.77-.42-.13.11-.27.24-.41.36-.51-.1-1.05.14-1.54-.17-.07-.05-.24.06-.37.09-.39.08-.82.3-1.15.2-.38-.11-.74-.09-1.16-.15-.38-.26-.79-.53-1.28-.86-.18.11-.4.25-.62.39-1.31-.51-2.64-.43-3.85-.22-.18.26-.29.41-.43.61-.57-.18-1.13-.35-1.68-.52-.47.25-.91.57-1.46.44-.52.51-1.16.28-1.78.38-.08.21-.16.42-.22.59-.22.1-.4.19-.62.29v.76c-.4.64-.55,1.27-.99,1.77,0,.26.02.54,0,.82-.03.29-.12.57-.18.84.57.31.88.86.64,1.37-.25.54-.1.94.22,1.32.21.25.21.49.09.75-.13.28-.29.55-.41.78-.34.1-.62.17-.89.25-.35.11-.68.28-1.04.32-.73.09-1.46.16-2.19.17-.5,0-.88.19-1.2.53h-1.27c-.34.18-.62.32-.95.49-.42.06-.9-.07-1.39.14-.22.09-.58.14-.87-.09-.11-.08-.34-.1-.47-.04-.5.2-.96.09-1.46.02-.77-.11-1.56,0-2.34-.04-.76-.03-1.52-.12-2.23-.18-.35.25-.65.47-.97.71h-.7c-.12.31-.18.65-.37.92-.18.27-.13.48-.05.75.26.85.71,1.67.59,2.61-.01.09.13.19.12.28-.04.48.47.95.04,1.44.04.58-.15,1.21.28,1.73.25.29.27.65.21,1-.1.64.19,1.23.18,1.86,0,.11.12.22.18.3-.14.25-.25.45-.36.65.7,1.13.61,2.61.39,3.3.06.3.12.47.12.65.01.7,0,1.4.01,2.1,0,.15.07.3.12.47-.03.05-.12.15-.11.23.05.48-.11.97.14,1.45.09.18-.1.5-.17.81.3.26.61.53.79.69.12.43.19.68.27.93-.26.24-.5.46-.75.69.08.42.15.78.23,1.15.08.41-.27.68-.34,1.03.18.2.36.4.58.63-.2.31-.35.64-.58.87-.28.28-.02.71-.31.91.08.32.15.6.25.98.04.02.16.09.31.18-.17.55-.33,1.05-.46,1.55-.11.4-.19.82-.28,1.23.3.42.19.91.15,1.35-.07.75.23,1.46.19,2.2,0,.11.12.22.16.29-.28.64-.54,1.23-.22,1.79-.05.3-.11.53-.12.77-.01,1.17,0,2.35,0,3.52,0,.17.02.34,0,.5-.03.18-.11.35-.16.52-.04.14-.16.34-.1.4.15.18.08.37.1.55.05.51-.13,1.04.17,1.53.12.2-.23.36-.02.63.12.15.02.49.02.74s.02.51,0,.75c-.02.15-.11.29-.17.42.07.1.16.19.17.28.08.5-.13.95-.34,1.36-.19.37-.2.74-.12,1.1.17.78.15,1.31,0,2.15-.07.41-.07.85.05,1.3.11.4.1.87.01,1.28-.09.43-.14.82.02,1.25.26.69.26,1.4,0,2.09-.23.62-.15,1.21-.02,1.8.05.56-.54,1.04-.14,1.66.06.09.07.32,0,.38-.18.17-.13.36-.13.54,0,.67-.07,1.35.02,2.01.08.66-.34,1.31-.02,1.96.02.05.03.14,0,.16-.37.25-.06.66-.26.99-.16.27-.07.69-.08.95.43.66.84,1.21.86,1.95-.35.34-.69.67-1.03.99v1.11c-.18.35-.34.65-.51.97.06.37-.09.79.16,1.17.07.1.04.36-.05.46-.19.23,0,.51-.12.71-.12.23-.17.45-.15.69.02.3-.07.57-.16.86-.29.92-.26,1.86,0,2.85-.22.37-.45.78-.71,1.21.31.65.3,1.32-.13,1.89.06.25.12.45.15.65.13.91-.17,1.79-.17,2.7,0,.32-.02.62-.15.94-.26.66-.19,1.05.13,1.76-.06.23-.15.44-.14.64.03.73.1,1.46.16,2.2.03.34-.09.69.15,1.03.1.14.08.49-.03.63-.19.24-.12.48-.11.71.03.62.11,1.24.16,1.86.02.32-.03.63-.15.94-.12.32.12.7-.16,1.03-.08.1,0,.37.06.54.11.28.27.54.4.79-.19.42-.37.82-.54,1.23-.03.07-.09.14-.09.21,0,.44-.27.8-.33,1.21-.07.45-.04.9-.16,1.36-.11.48,0,1-.03,1.5-.03.51-.12,1.01-.19,1.61.11.07.25.16.4.25-.07.59-.15,1.16-.19,1.72-.03.39-.03.78,0,1.17.03.4.14.79.15,1.19.02.46-.02.92.34,1.29.04.04,0,.16,0,.3-.11.12-.24.28-.36.42.19.59.3,1.11.04,1.68-.21.47-.17,1.02-.01,1.53.09.27.24.51.36.76-.27.55-.42,1.07-.37,1.65.03.42,0,.84,0,1.26,0,.16.02.36-.05.48-.22.34-.14.72-.09,1.04.05.25.18.51.13.77-.05.32.15.57.16.85.03.48.19.92.34,1.37.23.71.44,1.44.35,2.21-.02.18.01.35.09.55.14.36.23.77.22,1.16-.01.63.2,1.2.36,1.79.05.2.13.43.28.55.49.41.67,1.02,1.06,1.49.3.36.59.74.97.99.31.21.73.32,1.11.34.87.04,1.73.25,2.61.2.86-.06,1.73-.01,2.6-.01.1.1.19.2.33.33.55.02,1.05.08,1.56.14.7.08,1.39.31,2.11.21.07-.01.17,0,.23.04.35.24.77.15,1.15.26.41.12.89,0,1.34.04.45.03.9.13,1.38.2.07.07.17.17.26.26,1.05.13,2.08.25,3.03.37.15-.22.26-.37.34-.49h.63c.06.09.15.23.21.33.49,0,.91.02,1.33,0,.4-.02.79-.09,1.28-.15.11.14.27.33.37.46.43.08.79-.07,1.12.18.12.09.43.09.57,0,.39-.27.8-.1,1.2-.15.19-.02.4.02.57-.05.75-.32,1.51-.5,2.33-.47.14,0,.29-.1.45-.16.08.05.16.15.25.17.85.11,1.67-.19,2.51-.21.09,0,.17-.1.21-.13.27.13.47.27.69.34.64.2,1.31.22,1.96.31.89.12,1.8.02,2.7.17.48.08,1.01-.07,1.52-.15.72-.11,1.4.24,2.11.17.39.4.88.36,1.47.3.04-.07.13-.22.18-.3,1.32,0,2.55-.02,3.78,0,.53.01.96-.11,1.31-.56.29.07.57.21.85.2.56-.03,1.15.18,1.7-.14.12-.07.36-.07.49,0,.47.25.96.12,1.45.16.16.01.31.08.46.1.3.03.67.17.88.04.31-.19.59-.14.87-.13.95.04,1.9.12,2.79.19.37-.29.7-.46,1.1-.33.1.1.2.2.28.28.8.1,1.6-.13,2.38.18.29.11.62.15.93.17.98.06,1.97-.13,2.92.19.19-.27.36-.5.57-.78.24.24.43.43.6.6.63,0,1.21-.02,1.8,0,.39.02.77-.03,1.1-.19.49-.23.91-.19,1.36.07.13.07.3.12.45.11.54-.03,1.07.05,1.62-.13.46-.15,1-.02,1.5-.04.23,0,.46-.08.6-.11.28.05.52.03.68.13.31.19.56.14.88,0,.33-.14.76-.24,1.08-.14.24.07.47.1.7.11.32.01.65.06.94-.16.18.29.35-.02.53,0,.23.01.46.02.7-.13.2-.12.61-.13.8,0,.27.19.53.13.79.13,1.06.01,2.12,0,3.19,0,.17,0,.37.06.5-.01.55-.3,1.13-.11,1.7-.15.17-.01.34.1.52.16.2-.14.36-.26.65-.08.55.34,1.18.47,1.84.42.39-.03.78-.01,1.17,0,.16,0,.33.01.47.08.48.22.97.28,1.49.26.53-.02,1.06,0,1.59,0,.27,0,.51.04.78.15.65.27.71.31,1.35,0,.54-.26.9-.05,1.39.23.52-.05,1.11-.11,1.74-.18.08.08.2.19.32.3.62,0,1.23-.02,1.85,0,.54.02,1.09-.12,1.62.15.16.08.42-.02.63-.06.64-.13,1.28-.19,1.9.08.21-.12.41-.23.55-.31.82.23,1.56.59,2.32.6.79,0,1.58.38,2.34.06.26.18.5.34.62.42.75.09,1.36.18,1.98.22.34.02.68.05,1.03-.15.33-.18.66.15,1.01.15.06,0,.14.02.16,0,.35-.37.69,0,1.01.01.26-.18.5-.34.7-.48.38.11.73.2,1.08.3.17.05.34.15.52.16.57.03,1.13.07,1.7.15.94.12,1.91.08,2.87.17,1.36.12,2.74.03,4.11.03.11,0,.27.05.33,0,.31-.3.69-.14,1.03-.15.38-.01.7-.26,1.11-.19.35.06.72.01,1.02.01.35-.18.64-.33.89-.46.27.17.52.33.72.46.08,0,.11,0,.14-.01.49-.26.85-.71,1.39-.9.35-.12.66-.16.93.03.44-.16.85-.31,1.26-.46.39-.14.82-.21,1.17-.42.82-.5,1.62-1.06,2.29-1.77.1-.1.18-.22.3-.29.71-.47,1.23-1.06,1.68-1.8.49-.8.87-1.58.78-2.52.22-.29.43-.57.64-.83.05-.2.08-.41.16-.61.25-.68.49-1.36.39-2.1,0-.05.01-.1.03-.18.21-.2.43-.42.65-.63v-1.12c.16-.3.29-.56.39-.76.12-.06.21-.09.3-.13-.12-.31-.35-.54-.04-.85.13-.13-.07-.42.12-.62.04-.04-.11-.21-.1-.32.02-.23,0-.46.1-.71.29-.72.5-1.47.4-2.27-.04-.3-.11-.68.02-.91.22-.38.08-.75.14-1.12s.14-.73.16-1.1c.04-.8.23-1.56.46-2.19-.05-.28-.03-.51-.13-.63-.3-.34-.16-.65.01-.96.21-.38.21-.75.09-1.16-.06-.2-.12-.45-.05-.61.14-.3.14-.51-.02-.82-.11-.22-.08-.56-.02-.82.19-.77.19-.76,0-1.54-.06-.26-.11-.62.02-.82.23-.35.2-.74.11-1.03ZM151.53,53.04c.16-.27.03-.71.03-1.03.3-.51.55-.99.52-1.59-.02-.35.16-.71.25-1.06.05-.23.2-.41.26-.65.13-.58.5-.82,1.08-.84.17,0,.33,0,.44,0,.21.11.38.2.56.3.32-.31.65-.03.99.03.14.02.3-.08.46-.09.32-.02.64-.02.96,0,.15,0,.31.12.46.1.81-.14,1.52.28,2.29.36.19.02.37.19.52.28.92.08,1.82.16,2.75.25.06.06.16.16.3.3.33-.06.69.09,1.06-.15.16-.1.47.03.7.07.63.09,1.26.14,1.77.58h1.33c.13.13.25.25.35.35.12.55.23,1.09.35,1.71-.1.39-.21.87-.33,1.33.15.16.26.28.35.37.08.48.16.92.24,1.41h-.49c-.08-.08-.2-.19-.29-.28-.37.2-.73.18-1.11.07-.23-.07-.56-.18-.7-.07-.48.35-.88.03-1.27-.1-.25-.08-.45-.1-.69-.03-.67.2-1.35.13-2.02.03-.05,0-.09-.06-.16-.12-.1.06-.2.17-.32.18-.29.03-.6-.04-.86.17-.05.04-.16.02-.25,0-.34-.05-.68-.11-1.02-.17-.34-.06-.7.14-1.03-.15-.11-.1-.38-.02-.57-.02-.61,0-1.28-.15-1.83.04-.58.2-1.16.04-1.73.26-.49.18-1.1.04-1.65.04-.24-.13-.47-.25-.69-.37-.22.08-.42.15-.66.24-.1-.09-.28-.19-.27-.28.04-.49-.39-.92-.06-1.46ZM123.9,65.98c-.08-.58-.15-1.1-.22-1.57.16-.16.26-.26.36-.36v-1.85c-.1-.11-.22-.23-.38-.4.11-.26.23-.55.34-.8-.05-.29-.1-.56-.16-.91.38-.11.7-.2,1.06-.3.2.08.38.14.55.16.17.02.32,0,.47-.04.15-.05.29-.14.43-.27.14-.13.28-.3.43-.51.33-.13.64-.02.94.08.1.04.2.07.3.1.57.15.56.18,1.07-.05.22.11.45.23.72.37.59-.41,1.43-.27,2.01-1.01.11.21.18.36.21.42,1.52.16,2.91.32,4.39.19.06-.07.16-.21.24-.32.67.15,1.28.28,1.72.38.58-.2.35-.59.49-.9.85.17,1.54.9,2.54.67.48-.29,1.04-.48,1.67-.15.14.07.39.04.55-.03.33-.15.64-.36,1.1-.63.36-.09.82.19,1.31.28.13.02.29.1.39.06.41-.18.79-.06,1.21-.02,1.31.14,2.64.34,3.95.17.9-.12,1.8-.15,2.7-.14.31,0,.62.09.93.14.08.92.1,1.71.22,2.49.06.4.28.77.45,1.15.03.07.03.14.03.21,0,.22-.06.45.17.63-.02.02-.05.04-.06.06-.18.73-.14,1.46-.03,2.19.06.39.19.76.43,1.07.13.17.17.32.17.52,0,.12.08.24.13.36-.25.16-.2.48-.12.67.26.64.11,1.3.15,1.95.04.79.27,1.56.17,2.36-.02.13,0,.27,0,.41-.46.29-1.07.3-1.37.89.17.2.36.42.54.63-.04.59-.57.98-.52,1.58.05.56,0,1.12,0,1.66.21.4.43.79.62,1.19s-.1.7-.26,1.02c-.08.16-.26.27-.44.45.19.16.34.29.56.48v.58c.25.4.48.75.69,1.11.16.28.27.54.07.9-.12.21-.16.59-.05.8.21.4.1.8.16,1.25-.15.12-.31.26-.53.44-.75-.06-1.56-.11-2.38-.19-.84-.08-1.55.26-2.27.68h-.96c-.14.14-.28.28-.32.32-.19.48-.33.84-.45,1.15.42.42.79.79,1.22,1.22-.03,0,.08-.03.14,0,.99.62,2.09.22,3.13.33.8-.34,1.63-.07,2.51-.19.34.49.69.98,1.07,1.53-.01.44.32.76.67,1.08v.67c-.39.47-.68.97-.68,1.64,0,.9-.09,1.8-.16,2.7-.02.22-.15.44-.23.66-.86.44-1.74.69-2.7.64-.1.1-.2.2-.34.33-.32,0-.68,0-1.04,0-.32,0-.63-.01-.94.15-.25.13-.56.01-.87.13-.38.14-.84.12-1.28-.03-.33-.11-.7-.06-1.06-.08-.3.36-.76.08-1.14.3-.29.17-.76.02-1.15.04-.37.02-.74.06-1.24.11-.16-.1-.45-.29-.73-.47-.81.52-1.67.4-2.52.26-.13-.02-.17.04-.24.05-.24.02-.55.1-.71-.02-.25-.17-.48-.1-.71-.11-.39-.02-.82.1-1.16-.04-.32-.12-.68-.04-.98-.29-.1-.08-.37-.01-.55.05-.43.15-.83.15-1.34-.02-.23.17-.52.38-.86.63-.27-.12-.6-.27-.93-.42-.55-.12-1.04.13-1.47.37-.72.08-1.39.16-2.03.24-.23.12-.44.22-.49.25-.72-.06-1.29-.1-1.77-.14-.29.2-.51.35-.67.46-.18-.18-.34-.34-.48-.48-.89.21-1.57-.24-2.28-.33-.19.31-.35.58-.53.87h-.31c-.25-.35-.52-.71-.79-1.08.08-.38-.14-.81.17-1.18-.29-.23-.11-.56-.15-.78.11-.21.2-.37.31-.59-.11-.05-.26-.12-.32-.14v-1.32c-.12-.12-.23-.24-.33-.35-.06-.64.06-1.24.29-1.82.08-.19.02-.44.04-.66.05-.48-.09-.96.14-1.45.11-.24-.22-.69-.11-.91.17-.31.22-.66.1-.85-.17-.28-.07-.53-.14-.79-.13-.51-.09-1.05-.3-1.55-.05-.12-.04-.27-.03-.41.02-.35-.04-.69.15-1.03.15-.27-.11-.64.16-.94.08-.09.08-.36,0-.48-.26-.44-.22-.87-.03-1.31-.21-.37-.09-.78-.13-1.18-.21-.3-.43-.6-.64-.89.25-.44.89-.56,1-1.2-.17-.41-.5-.81-.34-1.3-.13-.13-.22-.23-.34-.34v-.71c.1-.06.25-.15.4-.24-.18-.16-.28-.26-.41-.38.03-.35,0-.69.12-1.08.12-.37.16-.86-.1-1.28-.08-.12-.03-.32-.03-.49,0-.84,0-1.68,0-2.57.1-.08.24-.18.31-.23.18-.94-.42-1.69-.28-2.62-.11-.06-.25-.15-.22-.13-.18-.55-.3-.92-.45-1.36.06-.25.33-.29.67-.24ZM145.39,116.84c-.81.67-1.41,1.48-2.15,2.16-.72.67-1.4,1.37-1.87,2.23.42.68-.38,1.23-.2,1.87-.3.13-.55.23-.85.27-.31.03-.62.23-.78.52-.29.51-.66.9-1.18,1.18-.21.12-.45.31-.52.53-.23.62-.82.98-1.09,1.56-.04.09-.15.17-.24.21-.3.12-.55.3-.81.49-.22.15-.54.16-.79.23-.36-.34-.52-.7-.45-1.16-.15-.09-.3-.19-.53-.34.04-.27.09-.61.15-1-.23-.33-.74-.67-.28-1.23-.17-.32-.32-.62-.53-1.02v-.64c-.22-.01-.4-.02-.62-.03v-.62c.1-.03.17-.05.25-.06.02-.05.04-.1.05-.15.13-.53-.1-1.02-.19-1.52-.08-.48-.25-.95-.43-1.41-.18-.47-.37-.97-.42-1.51-.06-.6-.31-1.21-.59-1.76-.22-.43-.17-.92-.45-1.33-.25-.36-.38-.82-.67-1.14-.39-.43-.49-.89-.43-1.47-.31-.29-.49-.59-.53-1-.02-.21-.21-.41-.32-.62-.29-.58-.65-1.1-1.13-1.55-.15-.14-.23-.36-.38-.51-.3-.3-.63-.57-.92-.83-.5.32-.93.27-1.38-.02-.21-.42-.37-.87-.06-1.39.08-.14.06-.4-.1-.62-.19-.26-.29-.6-.45-.97.33-.2.39-.54.5-.97-.12-.3-.45-.62-.54-1.05-.09-.41-.32-.8-.21-1.26.06-.06.14-.14.23-.23.27.06.58-.12.85.16.07.07.29.06.4,0,.28-.14.49-.23.8,0,.19.14.5.09.83.14.11-.13.27-.32.45-.53.5.35,1.01.47,1.56.42.14-.01.29.1.45.12.13.02.29.05.39,0,.34-.2.62-.18.98.01.38.2.8-.06,1.17-.17.49-.15.89-.14,1.39,0,.57.17,1.14.49,1.78.36.28-.06.57-.12.9-.19.12-.13.27-.29.4-.43.67-.16,1.35.12,2.01-.21.84.42,1.75.76,2.78.67.3-.03.62.02.92-.01.44-.04.89.02,1.25.22.33.18.69.19.95.1.93-.31,1.86-.05,2.79-.15.46.23.89.19,1.38.03.29-.1.72-.21.96.17.36-.18.66-.34,1.03-.53.39.07.89-.14,1.35.15.11.07.34.03.47-.05.31-.19.73-.21.94-.08.36.22.7.06.97.13.45-.23.84-.43,1.21-.63.09-.25.18-.46.27-.7.71-.08,1.23.32,1.86.55-.07,1-1.03,1.34-1.52,2.08v.27s-.07.09-.11.13c-.95.94-1.77,1.98-2.55,3.05-.04.06-.04.22-.06.22-.39,0-.44.4-.67.58-.44.35-.91.7-1.16,1.24-.09.19-.28.36-.47.47-.71.41-1.2,1.05-1.75,1.62-.38.4-.61.93-.96,1.35-.5.6-.84,1.31-1.42,1.85-.29.27-.5.63-.76.96.02.4-.22.67-.49.95-.34.34-.74.64-.85,1.17.07.21.14.44.2.64ZM104.13,59.76h.08v.34h-.08v-.34ZM86.6,90.53c-.05-.33-.2-.64-.32-1.01.15-.32.32-.67.52-1.07-.23-.44-.39-.97-.34-1.55.01-.2-.07-.41-.12-.67.29-.61.06-1.34.13-2.04.5-.68-.14-1.36.06-2.01.2-.47.41-.95.61-1.41,0-.04.01-.08,0-.09-.1-.1-.21-.19-.37-.33.07-.65.15-1.31.23-2.06.14-.1.35-.24.44-.31.1-.53-.08-.72-.47-.8,0-.43.06-.88-.02-1.31-.07-.37-.28-.72-.48-1.18v-.55c.15-.09.3-.18.52-.32-.06-.38-.15-.76-.18-1.15-.03-.39,0-.78,0-1.17-.16-.3-.31-.6-.5-.96,0-.4-.01-.87,0-1.34.01-.26-.05-.52.13-.79.1-.15-.12-.49-.13-.75-.02-.53,0-1.06,0-1.52-.14-.26-.24-.47-.36-.69.09-.31.35-.63.03-.94.08-.65-.19-1.32.22-1.95-.14-.05-.24-.08-.36-.12v-.75c.21-.33.64-.09.87-.24.3-.2.58-.12.87-.14.33-.02.67,0,1,0,.45-.43,1.02-.42,1.53-.28.24.07.47.1.7.11.73.02,1.46.04,2.18,0,1.16-.06,2.29.3,3.45.17,1.33.36,2.69.09,4.04.16.31.01.62-.12.94-.15.3-.03.61,0,.87,0,.22.12.4.23.61.35.19-.1.39-.2.6-.31.42.26.9.06,1.34.13.24-.3.57-.13.85-.16.65-.07,1.3.1,1.95-.15.23-.09.6-.16.86.1.05.05.17.07.23.03.41-.23.87-.07,1.27-.19.27-.08.51-.12.78-.14.4-.03.81.1,1.2-.16.1-.06.33-.07.4,0,.32.32.69.08,1.02.17.27-.3.6-.34.97-.36,1.01-.04,2.02-.1,3.03-.17.2-.01.4-.12.6-.16.21-.04.45.07.6-.17.37.02.74-.01,1.1-.02s.73.03,1.09.18c.07.14.14.28.22.43-.03.04-.09.1-.1.11.06.43.12.82.18,1.26.29.27.32.67.26,1.17-.2.16-.45.37-.65.54-.01.44.26.47.5.58,0,.12,0,.26,0,.4-.05.71.06,1.37.49,1.98.28.4.27.91.11,1.4-.16.51-.33,1.02-.26,1.57.03.29.11.57.19.96.11.09.3.25.48.41-.17.25-.32.47-.51.75.05.38.11.82.17,1.27.06.48.15.96.16,1.44.01.45-.06.91-.1,1.43.1.06.27.17.45.3-.01.19,0,.39-.05.56-.16.57-.16,1.23-.03,1.75.07.29.18.69.05.88-.32.44,0,.69.16,1,.08.16.18.31.26.45-.29.22-.51.4-.71.55.12.19.26.33.31.5.15.51.33.96.96,1.01.09,0,.18.12.26.18-.16.59-.76.39-1.06.71.28.58.51,1.18.53,1.83-.33.17-.68.25-.92.59.18.12.32.21.46.3.13.09.26.17.42.29v.71c-.07.01-.15.04-.23.03-.24-.03-.44.02-.6.28.1.07.21.14.35.24-.1.86.1,1.64.56,2.36-.28.15-.51.28-.5.67.15.42.48.93.13,1.53-.01.02-.04.05-.03.07.08.68-.14,1.34-.21,2.02.14.03.22.05.36.07,0,.11.07.28,0,.36-.12.17-.16.33-.16.53.01.78-.01,1.57.02,2.35,0,.16.2.3.27.47.05.12.04.26.06.38-.16.08-.3.16-.44.22-.33-.23-.7-.18-1.07-.07-.35.1-.7.22-.97.31-.31-.2-.52-.37-.76-.48-.16-.07-.46-.14-.54-.05-.53.5-1.08.3-1.67.12-.11.12-.22.24-.31.34.3.56.82.75,1.4,1.06.24-.05.6-.12.97-.19.41-.08.69.21,1.03.34.81-.54,1.34-.51,1.91.43.35,1.28.25,2.44.27,3.59,0,.2.2.43.15.6-.34,1.03-.04,2.09-.18,3.1.37.53.53,1.07.19,1.65-.08.14-.18.27-.29.38-.33.34-.68.66-1,1.01-.54.58-1.09,1.16-1.59,1.77-.18.21-.25.51-.44.93-.36.36-.85.85-1.37,1.37v.66c-.14.1-.24.16-.33.24-.23.22-.41.5-.67.68-.47.34-.78.75-1.04,1.28-.3.63-.53,1.31-1,1.85-.17.2-.32.43-.44.59.06.21.11.38.17.61-.26.02-.47.04-.69.06-.07.11-.15.22-.19.34-.29.91-1.02,1.57-1.41,2.43-.11.24-.34.55-.76.57-.26.02-.46.24-.52.55-.15.79-.64,1.42-1.05,2.08-.08.13-.11.29-.2.53-.2.19-.48.47-.73.72-.1.68-.4,1.23-.87,1.74.12.59-.16,1.07-.63,1.45-.55.46-.92,1.05-1.3,1.64-.03.04-.07.09-.08.14-.07.66-.38,1.2-.84,1.67-.07.07-.09.19-.16.37v.4c-.4.75-.72,1.37-1.08,2.05-.57.33-1.25,1.45-1.28,2.17-.71.59-1.08,1.43-1.49,2.22-.16.32-.35.58-.57.85-.34.43-.64.91-.96,1.36-.08.11-.15.22-.24.32-.36.39-.72.77-.98,1.27-.28.54-.81.95-1.23,1.43-.22-.02-.48.1-.66-.17-.12-.18-.48-.14-.46-.47-.51-.48-.49-1.2-.83-1.75-.19-.41-.67-.55-.89-.96h-.38c-.21-.39-.38-.85-.67-1.2-.28-.35-.69-.6-1.03-.88v-.52c.1-.1.2-.2.34-.34-.45-.17-.18-.9-.78-.94-.09-.15-.19-.27-.24-.42-.13-.46-.47-.8-.64-1.25-.16-.43-.45-.82-.72-1.21-.15-.21-.37-.36-.64-.61-.08-.51-.47-1-.82-1.51-.34.04-.17-.36-.38-.44.02-.56-.44-.88-.67-1.31-.11-.21-.27-.4-.41-.58-.21-.28-.41-.57-.66-.81-.23-.22-.52-.38-.78-.56.13-.5.3-.93.02-1.42-.12-.21-.1-.58,0-.82.14-.37,0-.7,0-1.04,0-1.24-.32-2.46-.19-3.7.03-.26.08-.52.13-.84-.12-.07-.29-.19-.51-.33.12-.17.25-.33.4-.53-.06-.22-.14-.47-.22-.77.13-.09.27-.19.35-.24.11-.67-.19-1.2-.17-1.78.02-.34.22-.61.19-.94-.03-.3.04-.58.16-.86.3-.65.22-1.31-.05-1.93-.1-.23-.07-.36-.02-.58.09-.4.07-.82.1-1.2-.37-.36-.41-.78-.35-1.16.13-.24.24-.41.32-.6.07-.17.1-.35.17-.61-.06-.06-.17-.18-.31-.33v-.66c-.27-.28-.37-.56-.36-.91.02-.85-.27-1.67-.17-2.53.01-.11-.1-.23-.16-.36.21-.46.58-.91.18-1.47-.05-.07.04-.25.07-.38.02-.1.08-.2.08-.3,0-.56-.05-1.14.33-1.62-.07-.79.29-1.66-.46-2.32-.2-.56-.39-1.13-.59-1.68.5-.32.71-.85,1.25-1.16.21.09.47.21.68.3.25-.04.48-.08.76-.13.27-.24.52-.64,1.1-.64.09.08.23.2.4.34.05-.01.12-.04.2-.06.15-.04.33-.15.45-.1.83.32,1.69.06,2.48.17.33.17.63.33.95.5.11-.06.21-.14.34-.17.13-.03.28,0,.43,0,.15-.15.3-.32.48-.51.17,0,.36,0,.54.03.15.02.3.14.44.13.26-.02.52-.15.77-.14.25,0,.5.13.76.21.18-.26.32-.48.51-.77.38.12.76.32,1.16.36.44.04.76.22,1.04.56.8-.33,1.64-.24,2.45-.17.45.04.9.13,1.36.14.11,0,.26.05.33,0,.48-.37.85-.08,1.22.18.31.22.66.32,1.04.33.18,0,.35.07.6.13.1-.06.21-.14.33-.21.12-.08.25-.16.38-.25.12.08.24.16.37.25.13.09.26.17.4.27.31-.11.65-.23,1.04-.36.49.32,1.02.66,1.53.98.3-.05.58-.1.87-.14.39-.07.83.15,1.19-.16.05-.04.19-.04.24,0,.58.44,1.15.04,1.71-.04.33-.04.61-.4.94-.63.14.04.32.09.54.15-.08-.62-.67-.61-.94-1.02-.23.04-.48.08-.8.14-1.14-.33-2.28-.17-3.28.56-.71-.06-1.06-.87-1.73-.69-.32-.25-.6-.46-.88-.67-.51,0-1.01-.04-1.51.01-.39.04-.79.12-1.13.29-.36.18-.7.23-.98.2-.46-.17-.73-.46-1.14-.57-.32-.09-.53-.1-.82.06-.31.17-.62.23-1.04.05-.54-.24-1.13-.37-1.62-.69-.24.05-.47.15-.7.14-.5-.03-.93.2-1.4.26-.43.05-.87.09-1.31.07-.22-.01-.42-.19-.63-.29-.49.27-1.01.52-1.64.47-.87.84-1.9.42-2.87.31-.44-.2-.82-.53-1.35-.3-.48-.32-.97-.2-1.46,0-.2-.11-.41-.22-.65-.36-.35.22-.73.45-1.07.66-.36-.06-.7-.12-.87-.15-.42.18-.68.29-.91.39-.28-.43-.53-.8-.78-1.18.25-.45.43-1.04,1.12-1.22-.19-.4-.36-.76-.56-1.16.26-.26.37-.56.43-.92.05-.31.23-.62.33-.95.12-.35.13-.69.13-1.03,0-.36.03-.73-.03-1.08ZM112.46,127.47l-.05.05s-.08-.09-.12-.14c-.05-.04-.09-.08-.14-.12.02-.02.04-.04.05-.05.04.05.08.09.12.14.05.04.09.08.14.12ZM74.16,48.5c.04.12.09.25.12.35-.18.1-.21-.06-.12-.35ZM69.7,52.61c.36-.08.69-.2,1.03-.21.38-.01.54-.37.93-.42.64-.09,1.25-.36,1.91-.43.29-.03.63-.24.84-.14.36.18.69.11,1.04.14.28.02.56,0,.84,0q.49,0,1.06.34c.26-.07.59.12.84-.17.05-.05.23-.04.32,0,.34.13.66.29,1.1.49.32,0,.76,0,1.21,0,.62,0,1.2.19,1.79.32.47.1.8.33,1.06.68.26.35.41.78.46,1.23.02.23-.11.51.14.69-.11.2-.22.4-.27.5.07.42.11.73.17,1.1.1.07.26.16.44.27v.35c-1.02.43-2.03.2-2.98.04-.37.27-.69.5-1.06.76-.23-.29-.51-.38-.85-.44-.32-.06-.57-.22-.89.01-.11.08-.32.02-.49.02-.56,0-1.12.03-1.68,0-.53-.03-.99.15-1.5.36-.1-.09-.16-.14-.23-.2-.6.33-1.4.07-1.87.75-.19-.1-.32-.2-.46-.23-.31-.07-.57-.25-.98-.07-.42.18-.98.04-1.54.04-.04-.03-.12-.11-.21-.19-.08-.43-.04-.88-.15-1.34-.1-.4-.15-.83-.25-1.28-.18,0-.37-.02-.56-.03-.02-.05-.07-.09-.07-.14-.07-1.05.3-1.97.85-2.81ZM84.6,64.43h-.45s0-.06,0-.09c.15-.02.29-.04.44-.06,0,.05,0,.1.01.15ZM52.27,64.52s.11-.12.22-.24c.31.07.64-.09,1,.12.16.09.51-.05.72-.18.27-.16.47-.09.75-.02.35.09.74.02,1.12,0,.16,0,.32-.11.46-.09.5.09.97-.11,1.44-.2.54-.11,1.07-.3,1.63-.31.42,0,.68-.27.99-.53.23.07.48.14.78.22.18-.23.36-.45.57-.7h3.13c.22-.15.44-.3.77-.52.19.03.5.07.92.13.25-.07.62-.18,1-.28.34-.09.69-.37,1.03,0,.56-.06,1.16.17,1.68-.24.07-.12.17-.28.29-.47.25.12.48.24.78.38.24-.12.47-.33.72-.03.29-.15.59-.3.93-.47h.71c.43.19.75.55,1.22.2.09-.07.27-.04.4-.03.4.02.75.27,1.22.03.33-.17.82-.03,1.24-.03.45,0,.9.02,1.34,0,.23-.01.45-.13.69-.15.52-.05,1.01.03,1.52.29.14-.07.31-.16.55-.28h.77c.34.34.26.78.27,1.19.16.31.32.61.52,1-.02.43-.05.95-.08,1.47,0,.04-.07.08-.1.12.06.2.14.4.16.61.03.34.04.62.41.84.28.17.39.64.25.95-.25.54-.08,1.08-.16,1.62-.12.13-.24.26-.34.37.28.28.51.51.69.68v.79c.14.14.28.27.44.43.03-.1.07-.2.11-.34.06.05.12.08.16.12.05.06.11.13.13.2.02.1,0,.21,0,.39-.18-.07-.29-.11-.45-.17-.3.64-.21,1.33-.22,2.04.37.42.48.9.14,1.39.41.66.79,1.27.37,2.03-.05.09-.04.23,0,.33.25.6-.08,1.19,0,1.79.02.19-.07.35-.14.53-.21.55-.23,1.15-.33,1.73-.04.25.16.53.34.78-.08.95-.16,1.9-.24,2.85.04,0,.08-.01.12-.02.14.42.27.83.43,1.31-.11.17-.26.39-.4.6-.29.42-.39.88-.19,1.36.15.35.14.68-.09.99-.46.64-.36,1.27.02,1.88-.07.11-.13.2-.21.33.16.25.33.51.54.84-.15.33-.37.72-.5,1.14-.11.35-.2.71-.2,1.1.01.53.13,1.09-.14,1.61-.07.13-.05.35.09.54.38.5.29.99-.16,1.45-.62.1-1.26,0-1.89-.12-.55.4-1.26-.12-1.82.4-.46-.28-.91-.55-1.51-.91,0,0-.21.04-.37-.05-.37-.2-.71-.15-1.08-.03-.97.32-1.16.27-2.27.09-.48-.08-.92-.18-1.37-.34-.44-.16-.91.03-1.33.21-.34.14-.59.16-.87-.11-.23-.22-.54-.31-.88-.29-.36.02-.73,0-1.09,0-.24,0-.48-.03-.69.16-.13.11-.33.15-.51.17-.31.03-.61,0-.99,0-.13-.16-.28-.35-.39-.49-.71-.06-1.31.04-1.89.29-.11.05-.33.06-.38,0-.2-.25-.51,0-.69-.17-.25-.24-.4.09-.64.08-1.06-.07-2.12-.03-3.12-.03-.26-.18-.48-.33-.74-.5-.46,0-.96-.02-1.46,0-.26.01-.59.23-.75.14-.46-.29-.96-.02-1.42-.24-.41-.2-.92-.22-1.33-.42-.61-.3-1.23-.36-1.88-.31-.11-.09-.21-.18-.32-.27.06-.11.08-.19.13-.24.27-.28.42-.6.42-1,0-.28.12-.57.15-.85.03-.26-.07-.55.17-.77-.21-.4.12-.81,0-1.2-.07-.22-.2-.42-.3-.64.3-.27.13-.66.12-1-.01-.32.16-.61.04-.96-.11-.32-.02-.71-.02-1.09.18-.03.33-.05.49-.07.03-.35-.19-.43-.45-.5-.23-.54.3-1.03.09-1.54.43-.39.46-.9.34-1.32-.26-.93-.08-1.86-.15-2.79-.05-.73-.06-1.47-.18-2.19-.09-.54-.39-1.04-.3-1.63-.1-.03-.17-.05-.31-.1-.01-.16-.03-.37-.05-.59.1-.02.18-.04.28-.07.29-.46.33-.97.14-1.51-.04-.12-.03-.27-.08-.39-.15-.34.38-.58.08-.99-.18-.25-.08-.69-.1-1.06-.09-.09-.18-.18-.3-.3v-.73c.09-.02.16-.03.28-.06.13-.4,0-.76-.29-1.08v-1.39c-.1-.08-.23-.18-.36-.28.09-.63.52-1.17.32-1.89-.07-.05-.21-.14-.4-.27.16-.29.28-.52.4-.74-.08-.47-.17-.96-.27-1.49ZM52.6,119.94c-.12-.33-.24-.67-.38-1.06.1-.2.21-.43.36-.72,0-.32-.02-.71,0-1.1.02-.29-.1-.59.15-.87.1-.11.1-.44,0-.56-.39-.49.17-.82.1-1.24-.1-.29-.3-.56-.25-.93.06-.46-.12-.93.11-1.38.02-.04-.06-.11-.07-.18-.16-.63.18-1.18.24-1.87-.24-.33-.21-.85-.08-1.25.19-.58.09-1.14.13-1.7.03-.43,0-.43.16-.76-.1-.1-.2-.2-.3-.3-.11-.44.05-.84.13-1.26.07-.42-.42-.86.01-1.28,0-.45,0-.89,0-1.34-.01-.47.06-.96-.08-1.39-.14-.45,0-.87-.08-1.23.22-.25.4-.45.51-.57,1.36.23,2.63.03,3.99-.13.04-.05.13-.18.21-.28h1.26c.08.09.18.19.25.28.08.02.13.05.17.05.53,0,1.06-.02,1.59,0,.55.04,1.1.14,1.64.29.21.06.5.12.64.02.34-.23.7-.17,1.03-.14.81.09,1.57-.24,2.42-.18.14-.25.29-.52.46-.81.85.11,1.58.68,2.49.85.14-.21.27-.42.35-.55h1.32c.26.38.78-.04,1.03.34h2.17c.35-.33.76-.39,1.08-.33.32.14.55.21.74.34.34.23.6.22.94-.05.23-.19.54-.5.96-.11.06-.14.13-.3.18-.42.63.26,1.13.47,1.69.7.65.07,1.38.16,2.12.24.11-.14.22-.27.32-.4.65.17,1.03.85,1.74.71.19.62.13,1.24.38,1.81.07.17,0,.39.01.58.02.23-.08.48.14.71.09.09.06.41-.03.54-.2.27-.18.61-.08.78.29.49.12.98.13,1.45,0,.48.18.99-.15,1.44.08.76-.17,1.54.13,2.29.03.07.03.16.03.24,0,.75.12,1.53-.03,2.26-.16.77-.13,1.52-.12,2.28,0,.46.17.92.27,1.45-.22.35-.18.81-.04,1.25.08.25.13.46,0,.68-.17.31-.16.68-.04.95.1.22.13.42.11.62-.05.45.07.87.24,1.24.12.26.16.54.08.7-.26.53-.07,1.08-.17,1.64-.29.26-.33.63-.31,1.02.01.25-.09.55.02.74.16.28-.07.47-.03.71.04.25.02.5,0,.75-.01.15-.07.3-.12.48.01.01.07.07.12.13-.07.25-.14.5-.25.91-.05.04-.22.17-.45.35-.16-.11-.45-.23-.62-.44-.17-.21-.3-.5-.33-.77-.05-.41-.38-.47-.58-.69-.29-.28-.29-.66-.27-.95-.4-.44-.76-.83-1.15-1.25v-.65c-.17-.17-.31-.31-.47-.48h-.38c-.39-.76-.8-1.49-1.45-1.97-.09-.35-.17-.66-.24-.97-.16-.04-.33-.04-.46-.12-.14-.08-.29-.21-.35-.35-.17-.43-.52-.67-.86-.94-.17-.13-.28-.37-.46-.49-.21-.13-.48-.19-.72-.27-.22-.08-.44-.24-.65-.22-.32.02-.42-.23-.63-.36-1.36.06-2.75-.13-4.21.24-.3.32-.79.6-1.31.76-1.45.44-2.67,1.25-3.75,2.25v.39c-.07.02-.15.06-.22.05-.5-.05-.89.16-1.22.51-.21.23-.42.45-.65.65-.21.18-.44.32-.59.58-.39.66-.82,1.28-1.22,1.89-.57.25-1.24.15-1.68.67-.05.06-.23,0-.3.06-.24.18-.61.16-.69.58-.03.16-.3.33-.54.44-.5.24-.98.55-1.36.98-.14.15-.35.23-.52.36-.44.37-.87.74-1.3,1.12-.58.52-1.25.86-2.01,1.07-.13-.25-.24-.48-.35-.69-.08-.02-.16-.03-.25-.05v-.9c.11-.11.21-.21.31-.31.09-.51-.11-1.05.13-1.57-.02-.06-.1-.18-.11-.3-.02-.45.04-.9-.02-1.34-.06-.44-.08-.85,0-1.29.1-.56-.11-1.1-.31-1.65.16-.32.33-.67.52-1.04ZM49.97,150.03c.03-.13.1-.25.09-.38-.02-.3.08-.57.17-.86.27-.82.39-1.67.35-2.54,0-.06-.01-.12-.02-.18-.02-.18-.02-.37.18-.5-.16-.11-.18-.26-.17-.4,0-.14.05-.28.01-.38-.14-.24-.24-.43-.33-.59.17-.62.27-1.24.52-1.81.11-.25.2-.49.11-.69-.21-.45-.19-.86-.01-1.32.08-.21.09-.52,0-.72-.24-.49-.06-.98-.11-1.46,0-.08.11-.17.17-.24-.35-.59-.08-1.21-.16-1.6.11-.7.62-.81.94-1.12.13-.13.35-.18.44-.32.37-.58.8-1.08,1.42-1.41.07-.04.13-.11.18-.18q.44-.58.92-.79c.23-.37.43-.68.62-.99h1c.08-.2.15-.39.28-.72.68-.57,1.52-1.18,2.41-1.72.68-.42,1.34-.84,1.52-1.69.73-.4,1.46-.8,2.28-1.25.08-.24.18-.56.33-1.02.19-.18.49-.46.86-.81h.56c.45-.27.59-.77,1.08-.86.19-.42.61-.49.96-.68.21-.11.37-.32.58-.51.45.14.87-.12,1.15-.37.73-.63,1.6-.87,2.48-1.13.25-.07.48-.18.86-.33h.68s-.02.04-.02.07c.41.15.82.31,1.24.43.3.09.67.04.92.19.38.23.82.35,1.09.83.45.78,1.08,1.45,1.63,2.18.07.1.07.25.14.5.41.34.85.7,1.18.97.15.37.2.65.35.85.64.84,1.29,1.67,1.78,2.62.09.17.26.29.4.42.19.17.42.31.59.5.15.17.23.4.34.61.09.16.17.32.32.6v.49c.38.7,1.14.8,1.69,1.23,0,.4,0,.79,0,1.17,0,.27.04.51.15.78.29.73.25,1.76.02,2.79-.03.16-.03.34,0,.5.19.82.19.82.02,1.47-.04.16-.1.38-.02.48.26.33.1.69.17,1.09.09.07.22.17.32.25v.73c-.16.16-.32.31-.49.48v.88c.14.19.38.4.47.66.1.3.32.58.08.98-.2.35-.27.8-.24,1.24.03.34.03.68-.14,1.03-.12.25-.13.67,0,.9.22.36.08.7.16,1.06.1.11.23.25.37.4-.27.21-.49.39-.69.54.25.53.07,1.06.15,1.57.1.11.21.23.39.41-.11.19-.22.39-.36.64.13.2.3.46.51.77-.18.3-.4.59-.54.92-.14.33-.21.69-.32,1.1.14.29.32.63.5.98-.13.4-.27.8-.43,1.3-.05.04-.2.17-.41.34-.38,0-.86,0-1.33,0-.27,0-.6-.06-.81.06-.25.15-.48.06-.72.1-.26.05-.53-.08-.78.15-.1.1-.42.09-.56,0-.5-.28-1.02-.09-1.52-.16-.2.1-.38.2-.57.3-.22-.09-.48-.15-.67-.3-.17-.14-.35-.22-.52-.15-.64.27-1.3.11-1.95.16-.32.02-.62,0-.95.14-.36.15-.8.04-1.12-.3h-2.35c-.11.1-.23.22-.34.33h-.5c-.33-.37-.76-.48-1.22-.5-.73-.02-1.45,0-2.18,0-.38,0-.74,0-1.07-.26-.24-.19-.56-.29-.9-.25-.3.03-.62-.01-.92.01-.32.02-.62.03-.95.13-.53.17-1.15.07-1.66-.18-.28-.14-.55-.15-.79-.11-1.11.2-1.26.21-2.21,0-.12-.03-.28,0-.39.06-.52.28-1.11.28-1.67.42-.57.15-1.17.18-1.77.21-.39.02-.78.18-1.18.13-.39.4-1.03.55-1.16,1.16h-.6c0-.1-.04-.19-.02-.26.06-.23.24-.44.04-.68.25-.23.11-.53.11-.79,0-.26.13-.56-.1-.79.17-.35.13-.72.11-1.08-.02-.34.12-.71-.16-1.03-.04-.05-.02-.17,0-.25.1-.43.24-.81.03-1.3-.16-.38-.02-.88-.04-1.33,0-.17-.08-.36-.16-.52-.24-.49-.21-.99-.1-1.5ZM50.23,159.97v.06h-.17v-.06h.17ZM84.45,191.72c-.17.15-.37.32-.56.49-.21.23.07.62-.38.91-.09,0-.28-.01-.46,0-.68.05-1.36.06-2.02.19-.26.05-.35-.22-.65-.1-.37.15-.81.19-1.12.45-.56-.19-1.04-.47-1.59-.38-.2.03-.4.15-.6.15s-.4-.15-.6-.14c-.31.01-.63.09-.94.16-.43.09-.86.2-1.2.28-.39-.06-.7-.11-.99-.15-.32.35-.67.4-.99.37-.2-.26-.36-.47-.52-.67-.51,0-1.01-.1-1.45.03-.38.12-.74.1-1.07.14-.5-.36-1.05-.45-1.6-.5-.53-.05-1.06-.01-1.59,0-.19,0-.37.09-.53.13-.62.12-1.26.11-1.68-.47h-2.05c-.02-.08-.04-.15-.07-.25-.16-.08-.34-.17-.5-.25-.31.08-.6.15-.88.22-.17-.19-.32-.36-.47-.52-.07.02-.11.03-.14.05-.65.39-1.33.28-2.04.18-.5-.07-.92-.35-1.42-.44-.53-.09-.57-.17-1-.65-.07-.08-.17-.12-.26-.17-.34-.2-.65-.45-1.01-.59-.39-.15-.82-.2-1.2-.29-.19.2-.35.35-.52.53h-.57c-.22-.42-.44-.83-.7-1.32.05-.44-.06-.92-.56-1.29.15-.48.29-.96.45-1.45-.16-.12-.29-.22-.39-.29.02-.3-.04-.53.15-.76.11-.14.02-.43.02-.56-.25-.55-.47-1.02-.67-1.5-.04-.1-.05-.25,0-.33.39-.59-.11-.97-.31-1.42-.07-.14-.15-.27-.24-.41-.39-.61-.39-1.3-.5-1.94.32-.32.59-.59.87-.87,0-.08.03-.18,0-.25-.42-1.04-.42-1.16-.17-2.48.03-.16,0-.33,0-.5,0-.81-.11-1.64.03-2.43.14-.74.1-1.47.13-2.2.01-.27-.03-.51-.15-.78-.32-.75-.16-1.57-.18-2.35,0-.05.02-.11.05-.14.36-.35.26-.8.28-1.24-.34-.5-.5-1.03-.18-1.63.11-.2.14-.45.17-.68.03-.25.01-.5,0-.75,0-.38,0-.74.22-1.08.12-.19.13-.45.17-.63.4.06.8.11,1.19.16,0-.04-.01-.07-.02-.11.41-.15.82-.38,1.24-.42.59-.05,1.14-.23,1.71-.32.51-.08,1.1-.21,1.6.13.56-.08,1.15.17,1.7-.16.1-.06.28.01.41-.02.1-.02.18-.1.21-.12.38.06.72.11,1.01.16.16-.16.26-.26.36-.36.33,0,.67.04.99-.01.33-.05.64-.31.95.01.3-.07.61-.14.87-.2.15.15.25.25.36.36.07,0,.15.01.24,0,.54,0,1.07-.02,1.57.27.13.08.31.05.47.07.96.12,1.9-.18,2.86-.18.66,0,1.3.12,1.94.17.64.05,1.3-.07,1.92.04.46.08.9.15,1.36.14.37-.01.75.08,1.11-.15.14-.09.4-.07.57,0,.78.3,1.58.08,2.36.17.13-.12.25-.24.42-.4.24.1.5.21.82.34.23-.11.53-.26.94-.46.18,0,.55-.08.65.34.7-.03,1.28-.65,1.98-.17.27-.18.55-.28.85-.32.3-.04.61-.04.92-.02.08.08.16.16.24.24v.5c-.42.13-.72.45-.78.83-.06.35-.53.72-.03,1.06-.37.87-.19,1.65.17,2.48-.28.22-.57.45-.93.72.18.21.36.41.57.66-.01.3.09.72-.07.99-.2.33.1.74-.26.99-.04.03,0,.16,0,.24-.03.4,0,.79-.14,1.2-.18.51.13,1.1.38,1.67.31.73.86,1.4.76,2.44-.15.15-.38.38-.65.65.15.15.34.34.5.51,0,.45-.47.35-.66.7-.08.29.09.72-.17,1.08-.05.07-.02.22,0,.33.05.29.15.57.15.85s-.11.57-.15.85c-.11.82.15,1.62.2,2.43,0,.02-.09,1.17-.1,1.19-.04.15-.06.31-.11.46-.04.12-.1.24-.17.42.5.92.59,1.9.49,2.91.23.22.46.43.73.69-.06.59-.13,1.2-.2,1.86.1.07.24.16.36.24-.09.52-.17.97-.24,1.41.26.17.48.32.7.47v.56ZM84.5,184.41s-.01-.1-.02-.14h.28s0,.05.01.08c-.09.02-.18.04-.27.07ZM123.46,190.75c.44,1.15.28,2.24-.13,3.4-.21-.04-.42-.08-.62-.1-.32-.03-.68-.15-.95-.04-.5.21-.98.06-1.46.1-.08,0-.17-.11-.23-.16-.2.06-.37.12-.55.17-.2.06-.4.12-.6.17-.2.05-.36-.12-.52-.15-.42-.07-.85-.01-1.28-.17-.39-.14-.84-.15-1.27-.18-.45-.03-.91-.09-1.34.01-.68.17-1.35.16-2.03.14-.26,0-.51-.12-.77-.15-.25-.03-.5,0-.79,0-.18-.1-.38-.21-.5-.28-.45.04-.88.21-1.18.08-.5-.21-1.02-.23-1.44-.1-.72.21-1.43.17-2.12.1-.51-.06-1.02-.14-1.53-.13-.29,0-.61-.12-.86.16-.04.04-.16.02-.24,0-.26-.05-.51-.11-.77-.16-.26-.05-.53.09-.79-.13-.12-.1-.37-.02-.56-.05-.26-.03-.52-.08-.89-.14-.74.42-1.66.55-2.61.48-.65-.05-1.32.15-1.94-.16-.04-.02-.13-.03-.16,0-.53.4-1,.02-1.5-.1-.2-.05-.45-.09-.61,0-.32.18-.65.05-.97.1-.35-.39-.69-.07-1.04.03-.21-.11-.42-.22-.64-.33-.02.01-.05.06-.09.07-.61.05-1.2.26-1.83.25-.31,0-.64-.11-.95.14-.11.09-.41.09-.61-.1-.18-.18-.43-.29-.56-.38-.06-.24-.07-.39-.14-.49-.12-.19-.09-.33,0-.52.16-.36.32-.73.26-1.15-.01-.08.03-.2,0-.25-.58-.67-.22-1.48-.33-2.11-.53-1.13-1.06-2.16-1.02-3.38.01-.42-.12-.84-.19-1.21.15-.15.25-.25.34-.34-.07-.33-.41-.46-.56-.75-.17-.33-.03-.65-.1-.94.18-.18.34-.34.49-.49.04-.27.01-.51-.14-.77-.11-.19.07-.48-.12-.71-.07-.09-.1-.28-.05-.38.23-.47.25-.92,0-1.38-.02-.04,0-.11,0-.17-.06-.7-.1-1.41-.17-2.11-.03-.28-.13-.56-.2-.84.25-.23.48-.43.69-.62.09-.83.02-1.59-.3-2.33.18-.34.3-.66-.06-1.01-.15-.15-.19-.42-.28-.63-.09-.21-.19-.42-.33-.72-.04-.31.02-.68.26-1.05.31-.47.51-1.01.75-1.5.02-.31-.34-.5-.08-.86.15-.21.07-.58.09-.8-.14-.25-.24-.43-.36-.64.1-.19.2-.4.29-.56.14-.69.29-1.33.39-1.99.1-.64.14-1.29.22-2,.39-.21.83-.44,1.27-.67.17.05.35.17.51.15.36-.05.74-.12,1.05-.28.36-.18.7-.24,1.04-.2.19.11.35.2.5.3.07.05.12.12.22.22.41-.06.86-.11,1.31-.2.53-.11,1.22,0,1.66.32.07.05.12.12.19.19.44.03.91-.09,1.3.28.08.07.26.06.39.06.33,0,.67,0,.91,0,.34-.16.6-.28.89-.41.2.28.37.51.53.74h.46c.17-.18.4-.42.66-.68.24.07.53.12.79.23.35.15.65.21.98-.05.29-.23.66-.2,1.03-.16.02.07.04.14.07.28.25.02.52.1.81-.04.38-.18.77-.13,1.15.07.23.12.5.16.72.23.2-.21.36-.37.51-.52.4-.07.8-.22,1.18-.18.39.04.79.21,1.19.14.43-.08.8.12,1.19.2.37.07.7.32,1.07.5.2-.1.4-.21.67-.34h.79c.08-.1.17-.2.3-.35.45.09.93-.11,1.41.16.16.09.45-.05.71-.08.24.03.56.17.81.08,1.09-.37,1.82,0,2.99.38.07-.11.16-.25.22-.36.47,0,.86.02,1.24,0,.43-.03.85.05,1.28-.13.28-.12.7-.14,1.03.08.04.03.1.06.14.06.56-.11,1.06.18,1.58.18.15.14.29.28.44.42-.13.88-.26,1.75-.39,2.6.19.28.35.52.55.81.05.62-.26,1.27-.18,1.96.06.56.29,1.11.19,1.69-.04.23-.06.45-.15.69-.35.88-.22,1.8.05,2.68.06.19.09.36.1.54,0,.53.04,1.06,0,1.59-.06.85.23,1.63.43,2.43.15.64.08,1.04-.42,1.6,0,.5.01,1,0,1.5-.01.38.25.7.18,1.11-.06.35-.1.75,0,1.08.29.93.08,1.86.15,2.79.03.43-.27.82-.17,1.27.11.52.19,1.04.26,1.57.1.72.23,1.46-.1,2.16-.26.55-.27,1.14-.08,1.66ZM123.54,135.87q.21,1.04-.34,1.65v1.31c.27.4.53.78.17,1.25.12.59-.33,1.06-.33,1.62,0,.56,0,1.12,0,1.75.15.12.35.28.49.4v.58c-.25.09-.49.18-.79.29-.21.5.04,1.06.22,1.56.11.33,0,.5-.09.75.05.07.11.16.17.23-.35,1.09-.2,2.11.37,3-.28.48-.51.89-.76,1.34.18.3.35.6.59.99-.07.27-.17.64-.29,1.08.06.12.17.32.23.43-.11.54-.25,1-.28,1.47-.05.67,0,1.34-.02,2.01,0,.31-.09.62-.12.88-.38.32-.76.28-1.14.28-.53,0-1.06,0-1.61,0-.19-.1-.39-.22-.61-.34-.14.05-.31.08-.42.18-.18.18-.44.24-.6.15-.47-.26-.97-.09-1.39-.15-.31.24-.59.45-.89.68-.28-.21-.55-.41-.89-.66h-.76c-.2.1-.43.22-.63.33-.29-.09-.54-.15-.79-.24-.99-.35-.99-.33-2.16-.13-.52.09-1.06.01-1.58.01-.31.16-.61.32-.94.49-.25-.18-.52-.39-.85-.64.03,0-.04-.03-.08-.01-.35.15-.69-.47-1.04-.01-.39,0-.78,0-1.17,0-.39,0-.79-.04-1.17.01-.28.04-.55.22-.85.15-.12-.03-.24-.09-.38-.15-.32.09-.67.19-1.07.3-.41-.15-.86-.34-1.39-.32-1.37.03-2.74,0-4.11.01-.6,0-1.19-.35-1.77-.15-.68.23-1.36.11-2.03.15-.24.01-.46-.08-.69-.14-1.1-.3-2.22-.37-3.26.25-.09.05-.2.06-.33.09-.14-.12-.28-.24-.42-.36-.32.11-.63.23-.96.34-.47-.04-.77-.31-.95-.94,0-.06.02-.31,0-.56-.03-.23-.16-.46-.15-.69.02-.46-.13-.93.1-1.38.2-.39-.02-.83.18-1.27.18-.39.04-.93.04-1.41q.34-.6.34-2.09c-.1-.08-.24-.18-.33-.25v-.74c.37-.25.47-.67.48-1.04.02-.7-.07-1.41-.16-2.11-.03-.21-.22-.41-.39-.71.16-.04.34-.09.42-.1-.05-.55.12-.94-.18-1.27.02-1.04-.18-2.13.67-3,.04-.04,0-.16,0-.32-.37-.25-.56-.68-.68-1.21.13-.26.27-.56.42-.87h.38c.23.37.46.78.73,1.16.17.24.35.57.6.65.4.14.54.44.68.74.22.47.37.98.72,1.38.03.03-.01.13.02.16.3.33.09.86.46,1.15.34.27.68.53.95.74.1.27.15.44.22.61.06.14.13.3.24.4.27.24.38.57.53.87.15.3.23.68.46.89.25.23.4.52.65.74.11.1.17.26.24.4.22.38.36.85.67,1.14.39.37.36.93.74,1.31.32.32.5.79.77,1.25.17.05.43.06.61.19.23.16.5.24.68.14.37-.21.84-.1,1.17-.42.24-.23.44-.49.68-.72.53-.5,1-1.08,1.47-1.65.36-.43.69-.89,1.03-1.33.43-.55.87-1.09,1.3-1.65.06-.07.02-.21.03-.33.6-.64,1.14-1.3,1.37-2.2.08-.3.26-.73.75-.77.19-.53.42-1.06.8-1.51.14-.17.18-.42.26-.64.06-.17.08-.36.17-.51.28-.45.56-.9.89-1.31.56-.69.94-1.69.95-2.66.32-.08.27-.5.62-.64.29-.11.49-.45.72-.68-.22-.22-.44-.44-.7-.7.06-.2.13-.42.19-.64.64-.43,1.33-.79,1.7-1.53.18-.35.51-.63.75-.95.14-.19.38-.4.37-.59-.04-.77.65-1.25.72-1.98.02-.22.35-.43.57-.59.27-.2.62-.32.7-.71.69-.59,1-1.33.87-2.23.25-.05.08-.42.42-.45.16-.01.37-.27.45-.53.05-.16.3-.3.49-.36.6-.18.77-.73.98-1.18.48-1.07.68-1.5,1.35-2.16v-.91c.38-.19.74-.38,1.15-.59.63-1.33,1.68-2.4,2.72-3.56v-.87c.39-.18.76-.38,1.15-.52.14-.05.32,0,.46,0,.44,1.64.45,3.28.39,4.96.17.14.37.3.56.45-.09.22-.11.47-.23.54-.29.18-.52.37-.47.72.05.3.1.66.28.88.59.73.39,1.53.31,2.33-.01.13-.09.26-.08.38.03.47-.12.89-.26,1.32-.16.49-.17,1.01.09,1.5-.12.22-.23.45-.37.72.09.09.2.18.28.29.07.1.11.22.17.33.05-.05.09-.09.2-.2.01.12.02.24.03.36.05-.04.1-.09.15-.13,0,.04,0,.08-.03.12-.28.44-.74.77-.83,1.33-.01.07-.1.14-.1.21.04.96-.3,1.9-.17,2.86.02.15.08.3.11.39-.05.37-.1.7-.12.87.25.32.4.51.56.72-.15.17-.27.31-.39.45ZM124.75,153.48c-.09-.42-.22-.76-.52-1.02-.07-.73.11-1.4.31-2.12-.21-.31-.26-.74-.1-1.11.21-.49.16-1,.09-1.46-.17-1.16-.21-1.47.09-2.44.04-.12.1-.25.1-.38,0-.78.01-1.57,0-2.35,0-.15-.08-.3-.14-.49.11-.31.23-.68.38-1.12-.14-.01-.26-.03-.37-.04-.11-.01-.21-.02-.32-.03-.16-.22-.24-.33-.22-.43.01-.1.12-.2.33-.4.11.06.22.13.32.19.65-.42.08-.96.19-1.51.07-.07.19-.19.33-.33-.08-.32-.18-.67-.27-1.03-.04-.18-.14-.44-.07-.54.26-.33.09-.69.17-1.06.09-.1.21-.22.38-.4-.12-.21-.24-.43-.42-.75.08-.18.2-.44.31-.67.08-.38.15-.75.24-1.22-.09-.04-.25-.12-.36-.17,0-.32-.05-.55,0-.75.22-.75.34-1.51.33-2.3,0-.35.01-.68.13-1.03.1-.29-.07-.67-.14-1.01-.04-.18-.11-.35-.16-.52.12-.22.24-.45.34-.66-.24-.74-.21-1.28-.03-2.25.06-.35.08-.74-.07-1.13-.12-.32-.07-.7-.1-1.1.13-.1.26-.2.4-.3-.05-.1-.08-.18-.12-.24-.08-.11-.18-.2-.24-.32-.03-.07,0-.16,0-.26.11-.11.22-.23.34-.35,0-.25-.01-.5,0-.75.03-.6-.08-1.17-.29-1.72-.06-.17-.04-.38-.04-.57,0-.98,0-1.96,0-2.94-.08-.22-.36-.3-.36-.61,0-.17-.21-.35-.36-.56.08-.15.16-.31.24-.46h.77c.22.26.5.53.71.85.19.28.31.6.51.98-.06.45.11.89.5,1.29.23.23.39.56.5.88.37,1.05.67,2.12,1.07,3.16.14.38.12.77.25,1.15.1.28.22.59.27.9,0,.05.1.09.09.13-.07.44.11.85.16,1.27.04.33-.11.74.03.99.36.62.38,1.35.81,1.93.19.25.32.54.51.85,0,.11.01.28,0,.45-.1,1.09.24,2.1.58,3.11.12.35.21.7.28,1.06.11.52.31,1,.88,1.32.58.33,1.04-.02,1.55-.05.06,0,.15-.1.17-.17.11-.41.46-.55.76-.76.31-.21.56-.54.89-.69.46-.2.68-.7,1.16-.85.48-.15.71-.59,1.05-.9.38-.33.8-.66,1.05-1.07.34-.56.73-1.05,1.18-1.52.09-.09.12-.24.2-.33.53-.59,1.11-1.15,1.59-1.78.58-.78,1.29-1.48,1.61-2.43.51-.19.96-.45,1.17-1,.26-.68.79-1.15,1.3-1.64v-.47c.15-.37.64-.45.84-.85.17-.35.49-.62.75-.94-.18-.19-.3-.33-.41-.45.06-.44.44-.56.71-.85-.19-.03-.35-.06-.55-.09.17-.47.18-.98.79-1.17.34-.11.32-.16.73.05.43-.16.49-.74.98-.84v-.68c-.07-.05-.2-.15-.36-.27.08-.2.14-.36.21-.52.54-.09,1.04-.17,1.68-.28.44-.36.78-.97,1.19-1.53.18-.26.31-.55.51-.79.51-.61.76-1.41,1.39-1.95.29-.24.56-.45.95-.55.26-.06.62-.14.69-.56.03-.18.3-.32.47-.49v-.85c.14-.14.3-.29.49-.48.42.33.8.66,1.03,1.22v1.04c-.2.3-.37.57-.54.84.18.45.38.88.04,1.31.08.48-.18.99.15,1.45.05.07,0,.22.01.33.03.43-.05.85.15,1.28.18.4,0,.89-.19,1.24-.18.34-.2.71-.1.94.22.47.06.92.15,1.35-.14.18-.26.35-.43.58.23.04.38.07.53.09.18.22.22.47.23.74,0,.09,0,.18,0,.26,0,.92,0,1.84,0,2.75.11.11.21.21.34.34,0,.31-.01.64,0,.97.01.23-.08.48.13.7.09.09.07.34.02.48-.29.78-.1,1.58-.16,2.36-.01.15-.06.31-.11.46-.08.19-.07.34.06.52.33.47.31.94-.11,1.38,0,.68-.11,1.4.02,2.07.29,1.54.05,3.09.15,4.63.02.31-.03.62-.2.84-.16.21-.22.46-.13.61.23.39.16.8.14,1.2-.02.66.22,1.28.2,1.94-.01.5-.08,1.01-.23,1.43-.21.56-.05,1.09-.12,1.62-.01.11.09.24.16.35.28.42.4.87.32,1.37-.21.41-.42.83-.61,1.2.09.5.45.89.47,1.42,0,.19.15.38.26.56.2.32.21.31.22.74-.1.1-.2.2-.33.33.07.89-.13,1.82.14,2.83-.12.23-.28.56-.45.89.05.21.13.44.14.67.02.45,0,.89,0,1.34,0,.14,0,.28,0,.42.07,1.05.06,1.12-.31,1.93.09.43.18.8.28,1.27-.07.25-.18.59-.29.95-.35,0-.74.12-.93-.03-.25-.19-.53.31-.66-.11-.25.24-.56.12-.86.16-.09.09-.18.19-.29.31-.5.12-.88-.11-1.2-.46-.6-.03-1.21-.11-1.67.49-1.03,0-2.09,0-3.15,0-.2,0-.4-.15-.6-.15-.4,0-.81-.11-1.19.15-.22.15-.46-.14-.72-.06-.23.07-.49.09-.73.06-.39-.04-.74.1-1.11.17-.37.07-.76-.13-1.11.16-.08.07-.27.03-.41,0-.65-.1-1.31-.21-2.06-.32-.08.07-.21.19-.38.35-.42-.07-.86-.15-1.27-.22-.31.3-.32.3-.67.37-.11-.17-.23-.34-.38-.57-.23.34-.43.64-.72,1.06-.04.02-.22.11-.41.2-.16-.29-.31-.56-.45-.81-.56-.09-1.09-.18-1.6-.26-.19-.1-.37-.2-.58-.31-.05.03-.12.07-.19.11-.44.23-.85.26-1.37.15-.62-.13-1.3-.03-1.96,0-.29,0-.64.17-.87.07-.35-.16-.69-.11-1.03-.14-.16-.02-.32-.04-.47-.09-.34-.11-.68-.14-1.02.02-.12.05-.29.11-.38.06-.63-.32-1.3-.08-1.95-.16-.34.26-.73.15-1.17.16-.11-.3-.32-.61-.32-.93,0-1.18-.28-2.35-.2-3.54.02-.31.12-.61.05-.96ZM160.12,93.25c0-.27.01-.52-.15-.78-.12-.19-.21-.47-.16-.67.06-.21.04-.35-.01-.54-.09-.3-.1-.62-.16-1.03.23-.24.37-.63.49-1.03.22-.78.63-1.06,1.44-1.1.34-.01.68-.13,1.02-.15.33-.03.67-.02,1,0,.21,0,.42-.07.62.12.09.09.34.09.47.03.41-.19.88-.11,1.3-.31.37-.18.78-.32,1.14.14.16.2.49.27.72.38-.02.5-.48.4-.57.75-.07.25-.42.4-.51.7-.03.08-.16.13-.25.19-.17.13-.39.24-.49.41-.57.9-1.17,1.78-1.89,2.57-.44.49-.77,1.07-1.15,1.61-.1.13-.22.24-.34.36-.33.35-.72.65-.85,1.16-.04.16-.27.27-.47.45-.26-.06-.6-.13-.89-.2-.3-.37-.58-.73-.86-1.09-.32-.56.36-.52.56-.84,0-.36,0-.75,0-1.14ZM168.2,93h.44c.4,1.05.3,2.19.57,3.23-.1.1-.16.16-.28.28-.05,0-.16.02-.25,0-.1-.03-.18-.1-.28-.16-.16.05-.33.17-.5.16-.4-.03-.81.13-1.2-.14-.13-.09-.39-.04-.61.11-.63.44-1.29.51-1.93-.08-.02-.24-.09-.56.34-.74.12.1.26.22.42.35.74.11,1.26-.22,1.58-.98v-.88c.55-.36,1.07-.71,1.71-1.13ZM192.36,166.2c-.09.13-.03.38-.03.57,0,1.62,0,3.24,0,4.86,0,.39.09.83-.08,1.14-.18.33.08.71-.24,1.01-.11.1-.02.43-.02.65,0,.39,0,.78,0,1.17-.01.41.06.86-.09,1.22-.16.39.11.84-.24,1.16-.03.03,0,.11,0,.16.08,1.05-.31,2.07-.16,3.12.07.53-.19,1.01-.17,1.52-.29.24-.13.57-.17.86-.15.15-.31.31-.48.47v1.26c-.23.68-.38,1.15-.55,1.64-.55.05-.55.58-.62.94-.21,1.07-.24,1.27-.86,2.25-.05.09-.07.19-.16.43.11,1.2-.84,2.03-1.67,2.97-.7.06-1.43.26-1.97.89-.2.23-.45.26-.7.35-.92.33-1.84.59-2.85.65-.64.04-1.3.07-1.94.15-.37.05-.73.21-1.11.14-.4-.08-.73.19-1.11.18-.42-.01-.84,0-1.26,0h-1.17c-.39,0-.79.04-1.17,0-.69-.09-1.34.19-2.03.19-.66,0-1.28-.26-1.94-.19-.64.06-1.31.11-1.92-.01-.63-.13-1.24-.12-1.87-.14-.43-.01-.82.26-1.27.18-.3-.05-.62.01-.92-.02-.26-.02-.54-.05-.76-.17-.34-.19-.68-.13-1.03-.16-.42-.04-.88-.04-1.25-.2-.25-.11-.47-.12-.7-.12-.95-.01-1.9-.01-2.85,0-.62,0-1.22-.09-1.8-.32-.07-.03-.18-.05-.24-.01-.54.32-1.13.07-1.68.18-.26-.17-.5-.33-.76-.5-.91-.1-1.79.02-2.63.49-.35-.23-.75-.3-1.18-.38-.51-.1-1.02-.13-1.53-.13-.15,0-.3.08-.38.11-.31-.04-.58-.15-.82-.11-1.03.2-1.06.26-1.79-.03-.76-.3-1.59-.3-2.33-.65-.09-.04-.25-.05-.33,0-.49.29-1.02.13-1.53.16-.54.03-1.04-.16-1.56-.29-.18-.05-.38-.04-.57-.04-.59,0-1.2.11-1.75-.03-.91-.23-1.81-.06-2.7-.16-.15.13-.29.26-.43.37-.33-.22-.78-.14-.95-.54-.51.19-.97.37-1.49.36-.45,0-.91.07-1.36.16-.75.15-.75.14-1.54,0-.32-.06-.67,0-.97,0-.25-.43-.49-.83-.78-1.32.09-.99-.2-2.04-.35-3.09.14-.15.27-.29.36-.38-.07-.36-.11-.65-.17-.93-.05-.26-.15-.51-.16-.77,0-.26-.1-.54.13-.79.08-.09.04-.32.03-.48-.05-.73.1-1.47-.14-2.2-.09-.29-.08-.66.12-1.03.35-.64.26-1.38.11-2.07-.08-.35-.14-.68,0-1.02.12-.29.14-.57,0-.85-.16-.29-.1-.57.09-.81-.08-.34-.38-.57-.35-.96.02-.34.14-.72-.15-1.02.22-.51.23-1.03.08-1.57-.11-.43-.3-.85-.26-1.32.03-.29,0-.57.16-.86.27-.49.17-1.06.18-1.51-.25-.5-.57-.9-.18-1.4-.03-.43.08-.86-.07-1.3-.1-.29-.1-.66-.01-.95.19-.6.04-1.2.09-1.8-.37-.36.04-.93-.33-1.29-.06-.96-.13-1.91-.16-2.87,0-.25.11-.51.17-.76.27-.01.49-.09.73.1.13.1.37.03.56.04.45.04.91-.08,1.37.14.22.11.56-.04,1-.08.06.02.28.11.5.16.57.14,1.14.35,1.73.27.33-.05.64-.2.95-.33.17-.07.31-.2.5-.33h.87c.06.09.14.22.28.42.04-.18.05-.26.08-.38.5-.22.69.37,1.09.42.14-.07.3-.16.49-.26.37.22.76.45,1.15.68.33-.15.64-.23.88-.42.24-.18.47-.17.69-.08.59.24,1.19.34,1.81.28.26-.02.51-.13.77-.16.28-.03.56.02.84-.02.14-.02.28-.12.43-.2.3.19.59.38.92.59.36-.28.71-.56,1.17-.92.32.08.74.21,1.18.3.48.1.96.14,1.46-.07,1.23.23,2.5.46,3.75.7.2-.22.36-.38.49-.52.08-.02.13-.04.18-.04.32-.03.62,0,.95-.13.22-.09.59.13.88.24.31.12.61.28.95.44.16-.12.3-.23.55-.41.47.11,1.03.25,1.6.39.15-.23.3-.45.4-.6.92-.34,1.78-.38,2.64.15.11.21.24.48.23.82,0,.24.17.48.3.81.07.56.14,1.23.22,1.9-.03,0-.06,0-.1-.01-.09.24-.27.48-.26.72.03.96-.24,1.9-.2,2.87.04.87.28,1.65.73,2.43-.43.61,0,1.38-.37,2.02.06.67.13,1.35.2,2.06-.13.1-.26.21-.37.29v.51c.17.13.38.27.55.4-.08.56-.18,1.01-.21,1.46-.03.47.08.97-.03,1.42-.15.6-.45,1.2-.29,1.79.15.55.12,1.08.14,1.62.01.43,0,.85-.15,1.28-.12.37,0,.78-.16,1.19-.13.33-.02.75-.31,1.04-.02.02-.05.04-.05.06.07.95-.31,1.85-.35,2.83,0,0,0,.02-.02.04-.54.56-.69,1.35-1.14,1.96-.03.04,0,.11,0,.22.28.23.59.49.87.72h.93c.3-.7.94-1.23,1.16-2.02.08-.29.34-.52.53-.79-.02-.02-.06-.06-.08-.08.04-.38.07-.75.12-1.11.02-.15.09-.3.15-.44.16-.35.34-.7.52-1.07-.09-.3-.32-.56-.05-.96.22-.34.23-.81.23-1.25,0-.56.11-1.13.15-1.69.01-.16-.01-.32-.06-.48-.11-.37-.23-.74-.35-1.1.13-.13.3-.29.41-.4v-.74c-.11-.2-.19-.36-.32-.59.24-.31.52-.65.78-.99-.28-.48-.57-.97-.87-1.49.47-.55.4-1.17.42-1.79.02-.62.13-1.24.15-1.86.03-.64,0-1.29.01-1.93,0-.12.1-.23.15-.34-.07-.22-.15-.45-.23-.7-.18-.11-.38-.24-.59-.37v-.6c.16-.02.31-.04.48-.07-.51-.62-.67-1.32-.67-2.04.37-.43.33-.97.5-1.43.03-.07-.03-.2,0-.25.71-.76.04-1.49-.05-2.23-.03-.25-.23-.47-.28-.72-.05-.24-.01-.5-.01-.72.29-.22.55-.44.86-.67.69.58,1.53.76,2.39.9.22-.24.43-.47.57-.61.35-.11.6-.2.81-.27.09-.17.17-.3.23-.41.08-.04.13-.07.18-.07.31-.06.6.06.82.24.82.68,1.77.83,2.79.76.06,0,.13.02.16,0,.48-.41.83-.05,1.21.2.13.08.28.12.44.19.25-.33.47-.62.69-.91.54.24,1.03.46,1.49.66.63-.19,1.18-.52,1.84-.48.53.03,1.06.03,1.59,0,.45-.02.9.01,1.37-.13.49-.15,1.09-.14,1.48.33.69-.37,1.37-.57,2.12-.52.7-.81,1.7-.88,2.67-1.05.27-.16.56-.34.9-.54.16-.54,1.04-.76.88-1.57h.49c.08.29.16.61.25.92.36-.08.67-.19.98-.27.3-.08.62-.13.95-.2.06-.11.13-.22.2-.33.06-.09.12-.18.2-.29h.48c-.08-.15-.15-.25-.17-.35-.02-.1,0-.21,0-.3-.1-.02-.16-.06-.2-.04-.2.07-.39.15-.6.23-.07.16-.15.34-.25.57h-.54c-.04.12-.08.22-.12.34h-.52c.08-.16.13-.28.19-.41-.05-.05-.12-.13-.16-.17-.26.05-.48.09-.71.14-.19-.31-.53-.4-.74-.7-.19-.26-.62-.34-.92-.48-.4.27-.8.53-1.21.8h-.77c-.3.3-.57.58-.77.78-.49.2-.9-.05-1.3.2-.3.18-.73-.04-1.09.19-.15.09-.46.05-.63-.04-.31-.18-.53-.12-.82.05-.21.12-.48.25-.76.18-.44-.1-.84.12-1.26.2-.07.01-.13.13-.2.13-.45.01-.91-.06-1.34.03-.4.08-.76.32-1.14.48-.07.03-.18.03-.25,0-.71-.33-1.47-.09-2.2-.16-.27-.02-.51,0-.78-.15-.49-.27-1.07-.24-1.6-.16-.42.06-.82.3-1.28.47-.24-.09-.53-.19-.89-.32,0,0,0,0,0,0-.17.19-.4.22-.6.16-.87-.27-1.84-.11-2.6-.63-.18.23-.34.44-.48.64-.42.03-.77-.03-1.12-.21-.27-.14-.63-.12-.99-.18-.04-.04-.12-.12-.2-.19.34-.91.11-1.86.16-2.79.02-.31.11-.66-.15-.94-.04-.05-.02-.16,0-.25.05-.26.15-.51.15-.77,0-.23-.1-.46-.15-.69,0-.03,0-.06,0-.13.1-.08.24-.19.36-.28-.07-.44-.13-.83-.19-1.23-.06-.4.06-.78-.14-1.2-.2-.41.02-.91.19-1.32.09-.23.12-.37.02-.59-.07-.16-.06-.37-.08-.56-.06-.59.15-1.21-.16-1.78-.04-.06-.02-.17,0-.25.07-.28.25-.54.15-.85-.09-.27-.23-.53-.28-.8-.04-.2-.01-.43.06-.62.32-.78.33-1.55,0-2.32-.1-.22-.07-.36.02-.58.15-.39.28-.8.23-1.25-.04-.44.01-.9-.01-1.34-.05-.9.29-1.74.35-2.63,0-.11.13-.22.21-.35-.44-.75-.6-1.55-.56-2.4.01-.27.07-.61-.06-.81-.18-.28-.08-.54-.1-.8-.02-.27-.07-.51-.15-.78-.15-.45.14-1.37.51-2.02-.11-.13-.22-.27-.36-.43v-.99c-.21-.18-.27-.44-.38-.67-.16-.31.02-.49.02-.72,0-.59.09-1.18-.09-1.79-.15-.51-.03-1.1-.03-1.69-.12-.1-.25-.2-.39-.31.33-.23.27-.59.18-.78-.17-.35-.05-.71-.16-1.03-.26-.81-.1-1.63-.16-2.45-.03-.5.13-.94.36-1.41-.05-.07-.11-.15-.18-.24.33-.76.08-1.56.18-2.35-.28-.16-.29-.45-.4-.68-.13-.27-.12-.41.03-.65.1-.16,0-.44.03-.66.03-.2.13-.4.15-.6.02-.15-.01-.32-.06-.47-.33-1.05-.32-1.04-.11-2.17.05-.29-.02-.58.16-.86.06-.1-.16-.34-.14-.5.08-.53-.15-1.01-.19-1.53-.01-.18-.1-.35-.16-.51.28-.62.54-1.23.84-1.84.13-.26.29-.5.48-.72.49-.57,1.14-1,1.43-1.76.16-.41.65-.47,1.03-.52.87-.11,1.74-.1,2.61-.19.62-.07,1.27-.11,1.78-.48.22.05.42.11.63.15.38.08.69.22.81.64.12.43.39.79.58,1.11-.19.85-.21,1.65.01,2.54-.1.16-.26.4-.46.73,0,.22.03.51.12.83.13.44.02.94.04,1.42.02.43.08.85.12,1.34-.17.29-.39.65-.6,1.01.09.18.18.35.32.63-.23,1.05.22,2.03.86,2.98h.9c.26-.26.57-.58,1.06-.67.18-.03.32-.29.5-.48h.27c.17.17.32.32.5.5.52-.65.5-1.36.17-2.2-.07-.07-.28-.19-.38-.38-.14-.27-.36-.57-.18-.9.26-.47.06-.97.13-1.46-.29-.27-.14-.62-.16-.94-.02-.28-.01-.56,0-.84.01-.38-.08-.83.08-1.14.19-.37-.12-.79.21-1.09-.16-.54.11-1.06.06-1.61-.06-.61-.09-1.25.29-1.96.41-.15.95-.34,1.55-.56.42.32.86.1,1.29-.2.47.18.92.41,1.45.34.27-.03.52.02.77.16,1.11.62,1.05.32,1.74-.11.54.04,1,.02,1.44.13,1.12.29,2.25.08,3.37.16.4.03.79.13,1.19.16.39.03.78,0,1.21,0,.12.11.26.23.44.4.12-.13.32-.26.31-.36-.03-.31.18-.44.35-.63v-.78c.24-.31.45-.58.66-.85-.07-.15-.13-.29-.2-.43-.51-.24-.6.48-1.05.41-.51-.01-1.05.15-1.59-.09-.22-.09-.57-.11-.87.08-.41.26-.82-.1-1.24-.13-.15-.01-.29-.13-.44-.14-.43-.02-.86,0-1.28-.17-.56-.24-1.17-.18-1.76-.17-.47-.33-.95-.51-1.5-.21-.07.04-.16.03-.23.04-.03,0-.06,0-.08,0-.64,0-1.29,0-1.93,0-.62.01-1.24,0-1.87.14-.62.13-1.28.03-1.94.03-1.22-.64-1.57-1.71-1.43-3.13,0,0,0,0,0,0-.02.02-.01.05,0-.05,0,.01,0,.03,0,.04.09-.1.19-.19.3-.3v-.88c-.1-.07-.24-.16-.38-.25.09-.29.15-.52.23-.74.23-.69.14-1.4.17-2.11.02-.37-.11-.75.15-1.12.09-.13.09-.44,0-.57-.28-.39-.08-.81-.18-1.24.18-.11.35-.22.54-.34-.02-.06-.03-.16-.08-.21-.16-.15-.34-.28-.43-.35-.01-.25-.02-.36-.02-.46-.18-.08-.37-.13-.51-.23-.32-.24-.71-.07-1.02-.18-.32-.12-.55-.14-.89-.02-.41.14-.91.13-1.35-.16-.04.13-.08.22-.13.38-.59-.08-1.22.14-1.82-.18-.59.09-1.18-.11-1.79.14-.38.16-.88.02-1.33.03-.72.02-1.47-.13-2.13.32-.02.01-.05.02-.08.01-.66-.13-1.28.29-1.95.15-.35-.47-.3-.97-.04-1.47-.21-.17-.41-.33-.6-.48.04-.03.09-.07.13-.1-.21-.7-.42-1.39-.65-2.13-.29-.16-.61-.34-1-.56.18-.12.31-.21.4-.27v-.98c.37-.24.77-.49,1.17-.75-.06-.36-.21-.72-.14-1.02.08-.31.39-.57.6-.86-.09-.17-.2-.37-.25-.46.06-.42.11-.73.15-1-.46-.5-1.01-.86-1.11-1.62q.28-.54,1.08-.95s0-.06,0-.08c-.11-.21-.22-.41-.36-.68.1-.12.23-.25.34-.39.11-.59-.15-1.21.24-1.86-.13-.06-.28-.14-.39-.19,0-.2,0-.31,0-.42.03-1.13-.26-2.24-.19-3.37.02-.37-.16-.76-.26-1.14-.02-.08-.06-.15-.06-.23,0-.45.02-.9-.01-1.34-.03-.4-.13-.79-.21-1.21-.12-.24-.27-.52-.42-.81q.3-.7.3-1.73c.21,0,.42-.03.63-.03.98,0,1.96,0,2.94,0,.23,0,.47.06.71-.13.14-.11.44-.07.65-.03.99.19.98.2,1.88,0,.13-.03.3-.05.41,0,.6.32,1.24.11,1.86.15.28.02.61-.03.85-.17.66-.37,1.24-.03,1.84.12.25.06.56.04.69.41.53-.09,1.08.13,1.66-.19.24.15.52.33.84.53.13-.11.27-.24.44-.38.43.13.9.22,1.33.41.33.14.6.15.92.02.22-.1.44-.1.69.04.54.3,1.13.46,1.76.4.44-.04.9.01,1.34-.01.34-.02.69-.19,1.02-.14.32.05.59.31.91.42.32.11.66.15,1,.23.38.09.76.18,1.14.28.2-.02.48-.13.64-.04.35.2.61.08.89-.07.74.33,1.46.7,2.26.84.1.02.21.05.28.12.26.26.57.36.93.39.22.02.42.19.56.25.21.56.4,1.04.64,1.67-.05.36.09.9-.12,1.45-.11.28-.15.7.09,1.03.07.1.04.26.05.4.01.38.02.74.15,1.11.16.45.23.94.2,1.43-.02.31.05.64.16.93.28.72.15,1.47.15,2.2-.01,1.02.3,2.01.18,3.03.31.68.11,1.41.17,2.11.04.48.13.96.16,1.44.03.5,0,1.01.01,1.51,0,.12.1.23.17.37-.22.29-.23.63-.12.98.16.56.13,1.33,0,1.92-.15.7-.12,1.41.15,2.08.23.57.19,1.15.07,1.69-.07.33.04.7-.12.94-.21.32-.13.64-.14.95,0,.2.13.4.15.6.05.52-.23.99-.17,1.52.06.53.12,1.09-.02,1.58-.11.38-.22.78-.11,1.1.18.55.12,1.08.13,1.62,0,.23.05.46-.12.71-.11.16-.07.5.02.71.16.38.14.71,0,1.09-.09.28-.05.6-.07.9-.07.98-.14,1.96-.2,2.93.23.39.44.75.66,1.13-.18.17-.39.39-.65.64.06.13.18.26.18.4-.03,1.13.38,2.25.15,3.36-.17.85-.12,1.69-.14,2.54,0,.31-.08.64.14.95.11.15.09.46,0,.65-.28.64-.12,1.3-.15,1.95-.03.78,0,1.57-.01,2.35,0,.23.11.5-.14.7-.04.04-.05.17-.02.24.34.94.08,1.91.17,2.87.02.23.08.46.14.77-.02.04-.14.16-.13.27.1.99-.21,1.96-.17,2.95,0,.21-.03.41.11.63.11.17.07.48.01.71-.17.73-.16.92.02,1.81.11.53.09,1.08.2,1.6.06.28-.31.53-.01.79-.22.28-.16.62-.17.94,0,.31,0,.61,0,.92s.02.62,0,.92c-.02.2-.14.4-.15.6,0,.17.13.34.15.52.03.31.03.62,0,.92-.03.29-.1.57-.16.85-.11.55.2,1.06.17,1.61-.03.53-.1,1.08.02,1.59.09.4.14.79.13,1.2,0,.21.06.42-.12.63-.1.11-.1.4-.03.56.26.56.16,1.13.15,1.7-.03,1.38.31,2.74.17,4.12-.03.29.13.61-.16.86-.04.04-.04.18,0,.24.29.49.11,1.02.17,1.53.03.23.08.46.14.74-.03.04-.08.13-.11.17.05.27.12.5.13.73.02.47-.01.95.01,1.43.01.24-.14.41-.16.6-.09.73.03,1.46.23,2.16.15.5.05.98.08,1.46-.29.24-.08.58-.16.86-.33,1.34-.16,2.7-.15,4.04,0,1.02.12,2.08.69,2.97.21.32.02.63.2.93.16.27.18.59-.04.91Z"/>
</svg>