<?xml version="1.0" encoding="UTF-8"?>
<svg id="Livello_1" data-name="Livello 1" xmlns="http://www.w3.org/2000/svg" viewBox="0 0 489 489">
  <defs>
    <style>
      .cls-1 {
        fill: #000;
      }

      .cls-1, .cls-2 {
        stroke-width: 0px;
      }

      .cls-2 {
        fill: #fff;
      }
    </style>
  </defs>
  <path class="cls-2" d="M304.34,178.86c-1.31.95-2.24,2.37-3.9,3.12-.1-.51-.17-.86-.25-1.23.42-.68.94-1.16,1.86-1.19.42-.01.84-.4,1.25-.64.26-.14.5-.31.75-.47l.29.41Z"/>
  <path class="cls-2" d="M364.83,253.55c.05-.41.09-.73.14-1.13,1.13-.22,1.96-1.27,3.24-1.01.15,1.24-1.41,2.26-3.38,2.14Z"/>
  <path class="cls-2" d="M306.44,164.07c-.83-.75-2.12-1-2.46-2.41.63-.1,1.18-.19,1.93-.32.29.78.59,1.61.9,2.45-.12.09-.24.19-.36.28Z"/>
  <path class="cls-2" d="M297.54,160.61c-.72-.04-1.12-.07-1.52-.09-.06-.09-.12-.18-.17-.27.26-.35.53-.71.96-1.29.28.64.44,1,.73,1.65Z"/>
  <path class="cls-2" d="M273.59,195.24c-.33-1.05.19-1.51.89-2.03.25.96-.44,1.34-.89,2.03Z"/>
  <path class="cls-2" d="M266.28,210.78c-.07.42-.12.76-.18,1.15-.83-.66-.82-.71.18-1.15Z"/>
  <path class="cls-2" d="M280.54,183.21c-.03-.19-.06-.38-.1-.57.09-.03.19-.06.28-.09.07.2.14.39.21.59-.13.02-.26.04-.39.06Z"/>
  <path class="cls-1" d="M115.47,176.79c-.49-.68-1.17-.33-1.69-.1-.99-.48-1.97-.76-2.7-1.36-1.51-1.23-2.93-2.59-3.62-4.49-.21-.59-.35-1.23-.39-1.85-.05-.76-.61-1.41-.32-2.25.3-.87.44-1.8.63-2.71.06-.29.13-.58.13-.87-.03-2.07,1.52-3.48,3.55-3.29.51.05,1.04-.06,1.56-.09.92-.04,1.86-.17,2.76-.05.43.06.79.63,1.18.97,2.6-.38,4.7.62,6.44,2.56.2.36.47.76.63,1.2.18.48.43,1.03.34,1.5-.22,1.13-.6,2.23-.95,3.33-.14.45-.33.89-.53,1.32-.22.47-.38,1.02-.73,1.37-1.05,1.03-1.76,2.29-2.62,3.44-.5.67-1.29,1.33-2.39,1.09-.36-.08-.78.14-1.28.25ZM115.36,174.22c.44-.28,1.05-.59,1.56-1.02.72-.6,1.6-1.17,1.98-1.96.6-1.24,1.63-2.39,1.34-3.95-.03-.17.14-.36.13-.54-.02-.39.05-.88-.16-1.13-1.07-1.32-1.98-2.89-4.01-2.93-.32,0-.62-.25-.95-.33-.52-.14-1.05-.36-1.57-.35-.82.01-1.63.18-2.49.29-.09.22-.13.55-.31.68-.87.66-.71,1.38-.4,2.29.37,1.11.38,2.24-.91,2.9-.08.04-.12.18-.25.4,1.22,2.64,2.68,5.08,6.04,5.64Z"/>
  <path class="cls-1" d="M300.74,171.14c-.1.28-.12.53-.24.61-.7.45-.97,1.04-1,1.88,0,.3-.52.78-.87.84-.8.15-1.67.25-2.46.11-1.52-.27-2.27-1.58-3.12-2.71-.1-.14-.02-.54.11-.71.5-.66,1.07-1.26,1.58-1.9.58-.73,1.31-.97,2.2-.75.58.15,1.16.3,1.72.52.22.08.53.32.54.5.06.91.71,1.25,1.53,1.61Z"/>
  <polygon class="cls-1" points="286.92 169.21 286.95 169.16 286.93 169.2 286.92 169.21"/>
  <path class="cls-1" d="M376.8,232.6c.14.08.2.09.21.12.21.89,1.58.82,1.57,1.89,0,.84,0,1.68,0,2.58-1.3.58-2.55.9-3.78-.28-.55-.53-.88-1.09-.53-1.77.58-1.12,1.31-2.14,2.53-2.55Z"/>
  <path class="cls-2" d="M115.36,174.22c-3.35-.57-4.81-3-6.04-5.64.13-.22.17-.36.25-.4,1.29-.66,1.28-1.8.91-2.9-.31-.9-.47-1.63.4-2.29.18-.14.21-.46.31-.68.86-.11,1.67-.28,2.49-.29.52,0,1.05.2,1.57.35.32.09.63.33.95.33,2.03.04,2.94,1.61,4.01,2.93.21.26.14.75.16,1.13,0,.18-.16.37-.13.54.28,1.56-.75,2.71-1.34,3.95-.38.79-1.27,1.36-1.98,1.96-.51.43-1.12.73-1.56,1.02ZM116.53,168.34c.54-.61.71-1.12.49-1.74-.42-1.18-1.52-1.15-2.41-1.41-2.3,1.44-2.36,1.99-.5,3.6.81-.15,1.58-.29,2.42-.45Z"/>
  <g>
    <path class="cls-1" d="M308.95,93.65s0,0,.01,0c0,0,0-.02,0-.02l-.02.02Z"/>
    <path class="cls-1" d="M427.3,178.92c-.06-1.2.07-2.48-.3-3.58-.43-1.32-1.14-2.62-2.02-3.69-.79-.96-1.96-1.61-3-2.34-.86-.6-1.22-1.19-.95-2.19.37-1.41.75-2.83,1.29-4.18.75-1.87.84-3.46-.62-5.13-.74-.85-1.48-1.12-2.45-1.28-1.01-.16-2-.42-3-.63-.44-.09-.9-.26-1.33-.23-1.44.13-2.74-.37-4.04-.83-.39-.14-.76-.41-1.05-.71-.44-.44-.96-.75-1.5-.51-.86.38-1.51.18-1.99-.33-1.11.1-2.09.29-3.05.24-1.2-.06-2.41-.54-3.59-.44-1.1.1-2.06-.17-3.07-.37-.25-.05-.56-.1-.78-.01-1.66.67-2.98,1.74-3.66,3.44-.67,1.66-1.28,3.34-1.94,4.99-.12.3-.35.57-.58.81-.44.45-.93.87-1.39,1.3.08.04.15.08.23.12-.4,1.32-.7,2.67-1.23,3.94-.57,1.37-1.34,2.65-2.04,3.97-.89,1.68-1.8,3.36-2.69,5.04-.07.13-.12.29-.12.43,0,1.18-.63,2.1-1.13,3.12-.74,1.49-1.25,3.1-1.88,4.65-.12.31-.31.6-.46.9-.21.44-.41.88-.61,1.32-.35.78-.69,1.56-1.04,2.34-.25.54-.54,1.07-.79,1.62-.69,1.5-1.38,2.99-2.05,4.5-.29.65-.56,1.31-.8,1.98-.32.88-.58,1.78-.89,2.66-.5,1.41-1.13,2.79-1.49,4.24-.49,1.96-.78,3.97-1.99,5.67-.1.15-.17.34-.19.52-.22,1.6-.55,3.2-.6,4.81-.04,1.5.15,3.04,1.54,4.04.36.26.79.44,1.3.72v.94c-.57-.11-1.02-.2-1.35-.27-.34.36-.58.76-.93.98-1.34.8-2.85,1.38-4.06,2.33-2.52,1.99-3.45,4.79-3.55,7.94-.05,1.66-.02,3.31.35,4.94.17.73,0,1.39-.72,1.73-1.01.49-1.95,1.37-3.22.58-.22-.14-.58-.06-.63-.06-1.48,1.38-2.8,2.63-4.15,3.83-.47.42-1.04.73-1.57,1.07-.93.6-1.88,1.17-2.81,1.78-.52.34-1.02.73-1.53,1.08-.33.23-.7.4-1.01.65-.66.54-1.23,1.24-1.96,1.65-1.18.67-2.44,1.18-3.35,2.25-.19.22-.48.35-.73.51-1.63,1.1-3.54,1.73-4.98,3.16-.52.52-1.21.87-1.86,1.23-.75.41-1.56.72-2.32,1.12-.57.29-1.06.82-1.65.95-1.23.28-2.16,1.01-3.18,1.66-.64.41-1.37.67-2.29,1.1-.19.44-.7.88-1.51,1.09-.66.17-1.21.73-1.86.96-1.05.37-2.03.85-2.89,1.54-2.16,1.76-4.37,3.42-7.11,4.2-.26.07-.45.36-.68.55-.63.51-1.19,1.27-1.9,1.46-.58.16-1,.43-1.44.74-.39.28-.71.66-1.1.95-1.11.82-2.28,1.57-3.37,2.42-1.06.82-2.06,1.73-3.09,2.6-1.43,1.2-2.87,2.39-4.28,3.61-.55.48-1.03,1.04-1.64,1.66-.63-.19-1.1.23-1.61.81-.63.72-1.4,1.32-2.16,1.92-1.01.8-2.06,1.55-3.08,2.33-.08.06-.09.21-.16.29-.25.32-.49.67-.78.95-.99.94-2.01,1.86-3.02,2.79-.14.13-.25.28-.4.39-1.98,1.42-3.94,2.86-4.93,5.19-.19,0-.32.04-.41,0-1.6-.88-3.36-1.17-5.15-1.39-1.34-.17-2.83-.03-3.68-1.5-1.17.47-2.23,1.48-3.29.63-.65.12-1.07.17-1.47.27-.45.11-.91.24-1.34.42-.32.14-.58.44-.91.55-.71.23-1.44.38-2.17.56-.37.33-.81.54-1.24.77-.32.17-.74.31-.9.59-.84,1.4-2.52,1.92-3.37,3.34-.51.84-1.33,1.48-1.96,2.26-.44.54-.94,1.1-1.12,1.74-.29,1.02-.39,2.1-.47,3.16-.1,1.24-.11,2.49-.16,3.74,0,.05-.1.1-.18.19-.69-.39-1.39-.8-2.1-1.18-.44-.24-1.01-.34-1.31-.69-.79-.92-1.93-1.15-2.94-1.43-2.11-.58-4.29-.88-6.36-1.68-1.38-.53-2.45-2.2-2.08-3.65.27-1.08.58-2.15.93-3.2.14-.43.42-.82.64-1.22l.12.06c.05-.37.09-.73.14-1.1.32-.19.7-.28.89-.53.66-.9,1.45-1.77,1.83-2.79.44-1.17,1.37-1.88,2-2.86.1-.15.26-.31.43-.36.89-.26,1.12-1.02,1.42-1.76.42-1.03.85-2.06,1.39-3.04.55-1,1.29-1.89,1.82-2.9.64-1.21,1.1-2.51,1.71-3.73.39-.79.91-1.51,1.44-2.38.13-.44.48-1.05.43-1.62-.06-.81.15-1.23.7-1.3.86-1.37,1.61-2.59,2.48-3.99.54-1.2,1.14-2.64,1.83-4.05.53-1.08,1.62-1.85,1.71-3.17.01-.19.21-.43.38-.54.72-.46.9-1.16.95-1.94.02-.26.02-.55.14-.77.78-1.45,1.97-2.68,2.36-4.35,0-.04.03-.07.05-.1,1.14-1.55,2.3-3.08,3.19-4.79.39-.76.93-1.47,1.19-2.27.54-1.67,1.35-3.11,2.82-4.22-.37-1.98,1.13-3.41,1.51-5.17q1.19-.61,1.66-1.87c.07-.18.13-.35.22-.52.81-1.41,1.63-2.82,2.45-4.22.11-.19.23-.38.36-.57.65-.92,1.35-1.81,1.95-2.77.7-1.11,1.28-2.29,1.96-3.42,1.48-2.45,3-4.88,4.49-7.33.41-.67.78-1.35,1.17-2.03.29-.51.58-1.02.89-1.52.16-.25.49-.46.52-.71.17-1.47,1.73-2.37,1.63-3.96-.01-.22.36-.45.54-.69.5-.68,1.31-1.33,1.41-2.08.17-1.27.74-2.19,1.62-2.98.71-.64,1.03-1.41,1.2-2.34.2-1.13.5-2.27,1.65-2.93.34-.19.56-.6.85-.9,1.06-1.05,1.24-2.53,1.9-3.74.49-.36.95-.76,1.24-1.27.29-.5.41-1.11.61-1.67.1,0,.2,0,.31.02-.25-.73-.51-1.45-.76-2.18.37-.52.58-1.05.67-1.6.1-.64.46-1.03,1.02-1.2.67-.21,1.4-.22,2.04-.48.79-.31,1.66-.64,2.24-1.22.95-.93,1.66-2.12,3.2-2.16.03,0,.06-.04.09-.06,1.86-1.28,3.33-2.86,4.02-5.08.24-.78.54-1.55.88-2.29.28-.61.68-1.17,1.01-1.75.71-1.27,1.81-2.12,3.14-2.57,1.16-.39,2.4-.55,3.54-.8.37-.78,2.57-2.25,3.6-2.36,1.23-.14,2.19-.84,3.19-1.46,1.45-.9,2.56-2.26,4.12-3.04.64-.32,1.13-.92,1.74-1.32,1.4-.93,2.85-1.77,4.23-2.72,1.24-.85,2.41-1.77,3.92-2.18,1.58-.44,3.12-1.05,4.66-1.64.48-.18,1.05-.41,1.31-.8.45-.68,1.06-.93,1.78-1.04,1-.16,2-.26,3.14-.41.22-.32.52-.75.84-1.22h1.31c.38-.28.75-.61,1.16-.86,1.97-1.17,3.66-2.69,5.31-4.25.56-.53.83-1.16.63-1.93-.2-.76-.43-1.51-.61-2.28-.15-.65-.09-1.42-.42-1.95-.8-1.27-.84-2.71-1.15-4.09-.06-.26.14-.66.35-.86.48-.46,1.05-.84,1.58-1.25,1.05-.05,2.19-.1,3.41-.15.23.37.59.75.71,1.2.72,2.56-.1,4.96-.92,7.33-.38,1.09-.96,2.11-1.46,3.18.29.49.56.92.79,1.32.98-.15,1.82-.29,2.85-.45.39-.8,1.12-1.65,1.16-2.53.07-1.37.52-2.62.76-3.93.22-1.16-.01-2.5,1.05-3.51,1.22.3,2.04-.37,2.76-1.27.18-.23.41-.52.67-.58,1.34-.33,2.49-1.01,3.49-1.89.93-.82,1.82-1.74,2.5-2.77.98-1.48,1.8-3.08,2.61-4.66.41-.81.73-1.69.97-2.57.16-.61.12-1.27.15-1.91.06-1.47.52-3.04-1.05-4.11-.08-.06-.13-.19-.17-.29-.55-1.56-1.96-2.3-3.14-3.25-.22-.18-.63-.18-.96-.19-1.21-.04-2.24.53-3.04,1.31-.75.74-1.43,1.66-1.81,2.63-.26.66-.58,1.15-1.04,1.65-.62.68-1.17,1.44-1.73,2.18-.3.39-.55.81-.84,1.2-.67.9-1.41,1.75-2.01,2.69-.51.81-.96,1.68-1.27,2.59-.26.77-.27,1.61-.41,2.55-.48.13-.98.26-1.48.39-.86.23-1.81.3-2.57.71-1.36.73-2.39,1.88-3.11,3.28-.46.89-1.72,1.53-2.43,1.11-.63-.38-1.16-.4-1.79-.08-.59.3-1.27.47-1.82.82-.98.63-1.83,1.48-2.85,2.03-1.37.73-2.85,1.25-4.28,1.89-1.26.57-2.5,1.17-3.74,1.77-.13.06-.26.15-.37.25-1.16,1.1-2.67,1.53-4.09,2.05-.8.3-1.48.65-2.09,1.24-.53.52-1.1,1.17-1.76,1.34-1.51.39-2.64,1.4-3.89,2.19-1.39.87-2.57,2.05-3.87,3.06-.68.53-1.47.94-2.11,1.51-.67.6-1.42.69-2.43.74.23-.54.39-.95.58-1.34,1.1-2.26,2.23-4.51,3.3-6.79.72-1.51,1.15-3.15,2.21-4.52.58-.75.93-1.71,1.22-2.63.35-1.13.65-2.24,1.62-3.02.14-.12.26-.28.35-.44.78-1.49,1.56-2.98,2.32-4.48,1.18-2.35,2.34-4.71,3.5-7.07.15-.3.25-.63.31-.96.26-1.29.56-2.53,1.44-3.61.6-.74,1.27-1.58,1.12-2.72-.03-.25.15-.62.35-.81.68-.66.81-1.49.92-2.36.06-.52.15-1.05.34-1.54.37-.99.2-1.91-.15-2.85-.13-.35-.35-.74-.29-1.06.28-1.51.22-2.98-.35-4.58.52-.18.96-.37,1.41-.48,1.1-.29,1.99-1.1,1.95-1.93-.04-.75-.21-1.49-.28-2.23-.08-.89-.14-1.78-.15-2.67-.01-1.53.63-3.04.07-4.58-.05-.13-.02-.3,0-.45.26-2.27.54-4.54.79-6.81.14-1.27.46-2.58.29-3.81-.36-2.64-.68-5.34-2.2-7.66-.2-.31-.51-.58-.62-.92-.44-1.29-1.51-1.78-2.66-2.2-.49-.18-.94-.5-1.43-.6-1.05-.22-2.29-.74-3.15-.39-.95.4-1.8,1.52-2.26,2.52-.49,1.05-.45,2.33-.67,3.5-.18.95-.42,1.9-.6,2.85-.07.39-.07.81-.04,1.21.07.82.3,1.64.25,2.45-.11,1.84-.17,3.65,0,5.5.32,3.67.41,7.36.61,11.04.02.33.16.66.19,1,.14,1.48.72,2.95.18,4.45-.45,1.27-.96,2.53-1.46,3.78-.09.23-.26.47-.46.62-.93.68-1.89,1.33-2.84,1.97-.11.08-.27.08-.57.15-.11-.41-.24-.78-.31-1.16-.09-.48-.05-1-.22-1.44-.41-1.08-.9-2.13-1.39-3.18-.4-.86-.43-1.92-1.37-2.5-.12-.07-.13-.33-.16-.51-.19-.99-.22-2.05-.61-2.95-.38-.89-.27-1.61.11-2.36.8-1.57,1.07-3.17.52-4.88-.08-.24-.12-.57-.02-.78.45-.91.11-1.76-.11-2.63-.22-.87-.44-1.73-.63-2.61-.21-.95-.34-1.92-.58-2.86-.38-1.56-.82-3.1-1.24-4.65-.06-.21-.15-.47-.31-.58-1.01-.68-1.05-1.75-1.22-2.78-.05-.32-.07-.73-.27-.94-1.03-1.06-1.63-2.37-2.36-3.61-.57-.95-1.17-2.1-2.69-1.53-.16.06-.43-.1-.63-.19-.61-.28-1.21-.57-1.8-.85-.49.36-1.03.66-1.44,1.08-.4.43-.6,1.05-1,1.48-1.51,1.61-2.18,3.51-2.09,5.7.01.33.11.66.19.99.15.61.31,1.21.47,1.82.08.32.15.65.24.97.16.57.34,1.13.48,1.71.29,1.23-.23,2.67.99,3.65.07.06.06.21.09.32.56,2.01,1.1,4.03,1.68,6.03.05.16.31.26.51.42q.27-2.02.86-2.51c-.04-.62-.04-1.22-.12-1.82-.16-1.15-.24-2.33-.57-3.44-.53-1.81-1.16-3.59-.98-5.52.11-1.19.19-2.4.42-3.57.12-.63.42-1.28.8-1.8.56-.79,1.41-.65,1.85.24.16.33.24.71.36,1.07.19.6.2,1.28.91,1.6.13.06.19.31.25.48.46,1.31.91,2.61,1.35,3.92.27.82.37,1.72.79,2.45.81,1.38,1.08,2.85,1.19,4.4.03.45.01.96.23,1.32.92,1.5-.06,2.99.29,4.71-1.23-.35-2.21-.62-3.24-.92-.63.24-1.45.42-2.13.84-.66.41-1.15.37-1.7-.06-.16,1.04-.52,1.99-1.15,2.87-.28.39-.43.99-.4,1.48.11,1.75-.01,3.48.5,5.23.62,2.1-.2,4.3-.03,6.46.02.2-.16.42-.22.63-.4,1.36-.89,2.71-1.17,4.1-.31,1.49-.39,3.03-.63,4.54-.08.54-.32,1.07-.48,1.6-.15.5-.38,1-.43,1.51-.18,1.83-.29,3.67-.45,5.51-.22,2.62-.44,5.24-.7,7.85-.09.93-.35,1.86-.41,2.79-.1,1.57,0,3.15-.19,4.71-.27,2.24-.72,4.45-1.11,6.67-.05.3-.24.57-.42.98-.29-.27-.5-.38-.59-.55-.76-1.5-1.65-2.95-2.2-4.52-.62-1.79-1.11-3.59-1.99-5.31-.66-1.29-.81-2.84-1.39-4.24-.65-1.57-1.31-3.11-2.23-4.53-.89-1.36-1.54-2.86-1.6-4.44-.04-.87-.24-1.27-1-1.43.01-.28,0-.47.03-.65.14-.81-.07-1.37-.8-1.91-.51-.38-.73-1.16-1.05-1.78-.52-1.01-.55-2.42-2.13-2.56-.1,0-.19-.11-.28-.18-1.65-1.33-2.66-3.07-3.31-5.05-.14-.42-.37-.85-.36-1.27.02-1.72.11-3.43.2-5.14.04-.82.14-1.64.23-2.47.15-1.42.34-2.82,1.39-3.94.24-.25.43-.71.38-1.03-.19-1.32-.16-2.73-1.3-3.74-.44-.39-.76-.92-1.2-1.31-.19-.17-.64-.33-.78-.23-.94.68-1.66-.17-2.48-.27-.32-.04-.66-.18-.95-.1-.59.16-1.16.41-1.72.66-.33.15-.69.3-.94.55-1.6,1.57-2.8,3.4-3.4,5.59-.16.58-.49,1.1-.68,1.67-.6,1.78-1.31,3.53-1.71,5.35-.35,1.6-.3,3.28-.48,4.92-.14,1.34.53,2.25,1.39,3.13.64-.62.78-1.19.4-1.98-.59-1.21-.21-2.46.77-3.29.17-.82.22-1.58.5-2.23.43-.99,1.09-1.88,1.54-2.87.75-1.65.99-3.52,2.4-4.86.61-.58,1.09-1.31,1.58-1.92,1.27.3,1.41.4,1.39,1.41-.02.93-.16,1.86-.24,2.8-.1,1.23-.2,2.46-.28,3.69,0,.14.1.28.12.43.11.63.32,1.26.29,1.89-.11,2-.31,3.99-.49,5.99,0,.06-.1.1-.24.23-.37-.17-.8-.37-1.35-.62-.62.6-1.37,1.06-2.28.28-.1-.09-.43.04-.63.11-.77.26-1.53.54-2.29.82-.42.79-.98,1.45-1.56,2.09-.2.22-.55.39-.62.63-.32,1.31-1.35,2.4-1.13,3.88.09.59-.04,1.21.03,1.8.04.35.16.8.41.99.55.42.69.97.75,1.57.07.74.44,1.26,1.1,1.59.4.2.83.39,1.18.66.59.45,1.43.87,1.64,1.48.44,1.33,1.7,1.97,2.27,3.11.52,1.04,1.22,1.87,2.05,2.64.13.12.21.31.28.49.73,1.84,1.45,3.68,2.17,5.52.08.21.22.39.32.6,1.02,2.08,2.1,4.14,3.03,6.26.31.71.5,1.45,1.08,2.02.17.17.25.46.35.7.51,1.24.86,2.57,1.91,3.53.19.17.32.43.41.67.49,1.33,1.01,2.66,1.4,4.02.18.64.13,1.31-.48,1.85-.89.79-1.71,1.66-2.53,2.53-.56.59-1.01,1.31-1.64,1.82-.63.51-.96,1.12-1.17,1.86-.13.47-.34.92-.46,1.39-.33,1.22-.64,2.45-.97,3.67-.08.32-.16.65-.28.96-.18.43-.41.83-.61,1.25-.45.98-.26,2.24-1.41,2.94-.29.17-.47.84-.4,1.22.34,1.74-.91,2.87-1.54,4.22-.58,1.25-1.33,2.42-1.97,3.64-.79,1.52-1.38,3.17-2.34,4.57-.93,1.35-1.32,2.91-2.14,4.29-.34.57-.54,1.22-.86,1.8-.95,1.73-1.91,3.46-2.9,5.17-.98,1.7-1.98,3.38-3,5.05-.58.95-1.22,1.87-1.85,2.8-.48.71-.99,1.4-1.5,2.08-.25.34-.62.61-.8.98-.55,1.14-1.03,2.33-1.56,3.48-.09.19-.35.28-.48.46-.78,1.04-1.63,2.05-2.3,3.16-1.09,1.82-1.81,3.92-3.14,5.53-1.27,1.53-1.89,3.36-3.02,4.93-.86,1.2-1.3,2.69-2.01,4-1.14,2.11-2.3,4.22-3.56,6.27-.73,1.18-1.43,2.43-1.97,3.65-.94,2.14-2.15,4.1-3.34,6.08-1.02,1.7-2.05,3.39-3.07,5.09-.98,1.63-1.94,3.27-2.94,4.89-.33.54-.79,1-1.12,1.54-.86,1.4-1.73,2.8-2.5,4.25-.35.67-.59,1.36-1.36,1.69-.13.06-.15.33-.25.49-.22.33-.47.65-.69.99-.22.34-.46.68-.63,1.04-.18.37-.25.8-.46,1.15-.54.89-1.22,1.71-1.68,2.64-.47.94-1.34,1.57-1.59,2.71-.27,1.23-1,2.37-1.58,3.67-.18-.05-.49-.16-.8-.24-.8-.19-1.59-.51-2.39-.52-1.8-.03-3.6.1-5.4.17-.25.01-.6.03-.74.19-.96,1.04-2.17,1.09-3.22.97-3.95,1.89-7.29,4.21-9.16,8.15-.22.34-.49.69-.66,1.08-.22.5-.38,1.03-.52,1.55-.25.94-.29,1.96-1.22,2.63-.64,3.65-1.28,7.33-1.88,10.79-.98.32-1.75.6-2.53.83-.71.22-1.43.47-2.16.58-1.42.22-1.51,0-1.76-1.41-.22-1.24-.72-2.43-1.11-3.64-.03-.09-.18-.13-.24-.22-.2-.26-.4-.52-.57-.8-.28-.49-.46-1.05-.8-1.48-1.08-1.38-2.18-2.73-3.33-4.04-.43-.48-1.03-.81-1.55-1.22-.22-.18-.42-.38-.62-.58-.99-.96-2.14-1.59-3.51-1.79-.49-.07-.99-.08-1.48-.11,0-.05,0-.1,0-.16-.52.22-1.03.44-1.55.66,0-.04,0-.09,0-.13h-3c-.39-.56-.73-1.03-1.06-1.5-.11-.15-.28-.27-.34-.44-.44-1.24-1.02-2.47-1.25-3.75-.26-1.41-.74-2.64-1.57-3.78-.1-.14-.09-.36-.14-.54-.13-.46-.23-.94-.41-1.38-.35-.85-.77-1.68-1.11-2.54-.69-1.73-1.33-3.49-2.02-5.22-.68-1.72-1.44-3.41-2.1-5.14-.57-1.49-1.05-2.98-1.82-4.42-.87-1.63-1.91-3.29-2.04-5.26,0-.1-.12-.18-.17-.28-.33-.61-.93-1.24-.92-1.84.02-1.14-.84-1.89-.96-2.94-.07-.65-.46-1.26-.7-1.88-.23-.57-.65-1.15-.65-1.72,0-1.15-.51-1.91-1.25-2.43-.19-.83-.29-1.54-.53-2.2-.56-1.53-1.17-3.05-1.81-4.55-.27-.64-.56-1.38-1.07-1.78-.76-.6-1.05-1.11-.36-1.87-.32-.27-.71-.44-.79-.71-.42-1.31-.91-2.57-1.82-3.64-.07-.08-.15-.22-.12-.31.35-1.14-.64-1.85-.88-2.82-.3-.04-.59-.08-.96-.13-.06-.66-.11-1.28-.16-1.88-.75-.26-1.53-.39-1.27-1.5.06-.27-.33-.63-.51-.96-.35-.65-.74-1.28-1.01-1.96-.33-.79-.54-1.63-.82-2.44-.13-.38-.28-.77-.47-1.13-.36-.69-.59-1.56-1.15-2-.84-.65-1.01-1.31-.68-2.23-.87-.38-1.16-.86-1.08-1.85.16-1.93-.29-3.79-1.56-5.36-.22-.28-.52-.71-.45-.98.48-1.69-.94-2.89-.91-4.41-.47-.09-.8-.16-1.21-.24-.04-1.4-.18-2.77-1.31-3.24-.56-1.18-.83-2.15-1.4-2.89-.96-1.23-1.05-3.13-2.65-3.6-.18-.92-.33-1.69-.48-2.47.11-1.27.08-1.3-.4-2.54-.23-.59-.29-1.24-.52-1.83-.17-.43-.44-.85-.77-1.17-.54-.52-1.16-.95-1.74-1.44-.51-.43-.57-.98-.26-1.52.32-.54.72-1.04,1.11-1.59,2.03-.09,3.33.98,4.34,2.57.42.66.87,1.32,1.35,1.94.38.49.89.87,1.26,1.37.83,1.14,1.19,2.62,2.5,3.42.15.09.15.4.23.61.27.73.5,1.48.83,2.19.35.75.8,1.44,1.2,2.17.57,1.05,1.14,2.1,1.67,3.17.26.53.5,1.09.65,1.66.32,1.25.97,2.28,1.63,2.95.34,1.1.54,1.94.87,2.72.4.93.98,1.77,1.37,2.7,1.08,2.59,2.11,5.19,3.14,7.8.79,2.01,1.54,4.03,2.3,6.05.17.45.23.97.47,1.37,1.03,1.7.95,3.88,2.38,5.4.13.14.08.44.15.65.13.39.3.77.42,1.16.19.6.38,1.2.51,1.81.09.43.07.88.1,1.32.1-.04.2-.08.3-.12.29.43.65.83.85,1.3.42,1.02.81,2.06,1.12,3.12.45,1.54.82,3.1,1.23,4.65.08.29.15.58.26.86.63,1.55,1.71,2.87,2.12,4.54.4,1.62,1.05,3.19,1.6,4.77.08.24.18.47.31.69.44.8.99,1.56,1.33,2.4.49,1.24.75,2.58,1.27,3.81.69,1.61,1.72,3.05,2.17,4.82.32,1.28,1.23,2.4,1.86,3.6.19.36.53.74.51,1.09-.11,1.76,1.11,2.99,1.7,4.46.25.62.49,1.23.76,1.84.67,1.54,1.37,3.07,2.02,4.62.51,1.2.99,2.4,1.44,3.62.55,1.49,1.51,2.87,1.16,4.62-.08.42.31.95.53,1.4.13.26.49.43.55.69.16.67.57.7.99.61,1.29-1.19,1.77-2.52,1.17-3.86-.7-1.3-1.4-2.36-1.86-3.52-.97-2.42-1.68-4.95-2.75-7.33-.49-1.08-1.44-1.94-1.39-3.29.01-.35-.53-.71-.52-1.06.02-.88-.54-1.34-1.02-1.92-.29-.35-.67-.89-.58-1.23.27-.98-.38-1.71-.58-2.53-.35-1.42-1.11-2.75-1.73-4.09-.26-.57-.63-1.09-.95-1.63-.56-.97-1.33-1.88-1.61-2.92-.27-1-.54-1.85-1.4-2.33-.13-1.76-.47-3.35-1.83-4.52.08-.4.16-.77.23-1.13-.07.02-.14.03-.21.05-.44-1.21-.87-2.42-1.31-3.63.03-.19-.11-.33-.28-.4-.97-.38-1.57-.99-1.5-2.12.01-.21-.14-.42-.21-.63-.24-.74-.48-1.48-.72-2.22-.16-.5-.29-1.02-.5-1.5-.71-1.63-1.47-3.24-2.18-4.87-.13-.3-.2-.65-.22-.99-.1-1.64-.57-3.16-1.36-4.6-.12-.23-.25-.48-.26-.73-.09-1.71-1.17-3.04-1.67-4.59-.21-.66-.36-1.34-.52-2.01-.05-.21.02-.47-.07-.66-.82-1.85-1.66-3.7-2.49-5.55-.18-.41-.33-.83-.54-1.39-.74-.43-1.73-.88-1.81-2.15.19-.24.37-.47.53-.66,0-.8-.36-1.3-.99-1.7-.54-.35-1.1-.84-.89-1.56.36-1.24-.4-1.85-1.17-2.56-.39-.36-.79-.85-.9-1.34-.27-1.23-.39-2.51-.53-3.56-.3-.69-.56-1.2-.75-1.74-.3-.84-.52-1.69-1.19-2.37-.56-.57-.92-1.28-.49-2.12-.34-.28-.62-.53-.92-.75-.53-.4-1.03-.79-.75-1.58.05-.13.04-.34-.04-.43-.84-.98-1.23-2.15-1.55-3.37-.09-.34-.54-.58-.62-.91-.35-1.31-1.3-2.17-2.18-3.09-.22-.24-.38-.54-.56-.82-.36-.56-.64-1.18-1.07-1.68-.6-.71-1.3-1.33-1.97-1.98-.45-.44-.49-.86-.06-1.38.5-.59,1.06-1.19,1.34-1.89.46-1.16.85-2.38,1.02-3.61.18-1.33.28-2.73.05-4.03-.43-2.35-.31-4.82-1.43-7.04-.87-1.73-1.66-3.5-2.44-5.27-.18-.42-.32-.92-.26-1.36.09-.69.36-1.36.55-2.04.23-.83.44-1.66.69-2.49.52-1.76,1.16-3.49,1.54-5.28.17-.81.09-1.61.84-2.19.18-.14.22-.47.29-.72.33-1.14.67-2.28.95-3.43.21-.82.32-1.66.51-2.49.1-.47.26-.94.39-1.41.36-1.08.72-2.14,1.02-3.21.34-1.18.84-2.34.42-3.63-.09-.27.17-.67.31-.98.09-.19.35-.33.4-.52.3-1.2.61-2.39.81-3.61.14-.88.11-1.79.15-2.73.2-.23.44-.5.66-.76-.54-1.32-.47-1.67.2-2.66.86-1.27,1.77-2.53,2.42-3.91.3-.65.08-1.58-.01-2.37-.02-.16-.59-.44-.81-.37-1.1.33-2.32.56-2.53,1.98-.89.11-1.14-.45-1.16-1.09-.04-1.49-.01-2.99-.01-4.59.19-.14.51-.39.83-.64-.01-.31-.06-.57-.03-.83.13-1.61.16-3.24.47-4.81.18-.91.09-1.66-.22-2.47-.21-.55-.35-1.12-.51-1.68-.22-.75-.33-1.55-.69-2.22-.44-.85-.96-1.73-1.67-2.34-1.33-1.13-1.37-3.19-3.04-4.04-.06-.03-.08-.13-.11-.19-1.72-3.11-3.44-6.22-5.22-9.45-1.49-.35-1.74-1.83-2.29-3.09-.12-.26-.2-.58-.4-.76-.75-.71-1.55-1.37-2.41-2.12-.11.03-.43.2-.72.15-1.66-.24-2.84.72-4.03,1.59-.94.69-1.79,1.5-2.76,2.32-.41.67-.89,1.46-1.39,2.24-.78,1.21-1.13,2.55-1.03,3.96.05.68.3,1.41.68,1.98.78,1.18,1.73,2.24,2.56,3.38.67.92,1.13,2.03,1.91,2.83,1.39,1.44,2.47,3.07,3.54,4.73.63.98.91,2.15,1.77,3.03.65.66.53,1.21-.28,1.75-1.12.74-1.59,1.91-1.96,3.04-.56,1.7-.81,3.47-.69,5.3.08,1.11.15,2.13.83,3.07.45.63.26,1.43-.15,2.06-.43.66-.88,1.39-1.01,2.14-.25,1.55-.18,3.15-.44,4.69-.49,2.9-1.11,5.78-1.7,8.67-.28,1.36-.67,2.71-.88,4.08-.24,1.54-.33,3.1-.51,4.65-.03.25-.08.54-.22.73-.85,1.18-1.04,2.52-1.1,3.92-.02.47-.1.94-.17,1.55-.35-.16-.63-.2-.78-.37-.57-.64-1.11-1.31-1.65-1.98-.51-.64-.89-1.31-1.14-2.14-.32-1.11-.64-2.35-1.94-2.79-.03-.66-.07-1.26-.1-1.84-.92-.45-1.53-1.06-1.73-2.03-.05-.23-.28-.42-.42-.64-.69-1.13-1.69-2.02-2.23-3.31-.53-1.25-1.31-2.52-2.79-3.06-.61-1.58-1.4-3.08-2.68-4.3-.68-.64-1.35-1.32-1.87-2.08-.59-.87-1.02-1.84-2.05-2.31-.18-.08-.28-.33-.42-.5-.47-.58-.94-1.15-1.4-1.74-.12-.14-.31-.32-.3-.46.12-1.04.28-2.07.45-3.1.02-.11.21-.2.33-.28.41-.26.82-.5,1.31-.8-.78-1.26-.11-2.46.27-3.64.3-.93.81-1.79,1.2-2.69.24-.55.31-1.22.67-1.67.97-1.23,1.17-2.75,1.64-4.14.26-.75.29-1.5,1.07-1.98.19-.11.19-.6.21-.92.05-.98.05-1.96,1.08-2.54.2-.11.41-.39.43-.61.09-1.27.63-2.24,1.46-3.23.89-1.06,1.4-2.44,2.09-3.68.34-.61.72-1.21,1.08-1.81.46-.67.45-1.36-.34-1.88-.19-.13-.36-.43-.37-.66-.09-1.59.42-2.96,1.44-4,.12-1.19.21-2.27.34-3.35.13-1.08-.35-1.96-1.12-2.57-.6-.47-1.41-.67-2.12-1-.42-.2-.82-.51-1.26-.6-.66-.13-1.34-.1-2.01-.15-1.48-.11-2.88-.43-4.18-1.22-.44-.27-1.04-.37-1.56-.35-.57.03-1.13.28-1.77.46-.08.38-.18.81-.29,1.28-.81.17-1.01.79-1.11,1.49-.06.37-.13.75-.3,1.08-.99,1.88-1.94,3.77-3.03,5.59-.61,1.02-1.15,2.11-1.62,3.14-.5,1.1-1.02,2.23-1.55,3.33-.34.7-.99,1.33-1.08,2.05-.2,1.57-.83,2.97-1.52,4.31-.69,1.35-.88,2.82-1.33,4.23-.41,1.27-1.06,2.47-1.03,3.86,0,.13-.15.26-.19.41-.1.4-.17.8-.25,1.2-.1.47-.18.95-.31,1.41-.18.61-.45,1.19-.59,1.81-.29,1.28-.5,2.58-.77,3.86-.36,1.67-1.01,3.13-2.82,3.49-.49.58-1.13,1.03-1.3,1.61-.54,1.78-2.23,2.97-2.46,4.89-.02.17-.15.35-.26.5-.76,1-.88,2.08-.55,3.28.2.72.23,1.48.39,2.21.12.58.22,1.2.51,1.69.77,1.29,1.63,2.52,2.47,3.76.11.17.34.28.54.36.49.18.99.32,1.28.41.9-.12,1.61-.21,2.07-.27.79.79,1.41,1.47,2.09,2.07,1.21,1.07,2.4,2.17,3.71,3.12.86.63,1.5,1.31,1.61,2.37.05.53.21.92.66,1.22.27.18.51.45.7.73,1.11,1.64,2.2,3.29,3.29,4.94.08.13.14.35.24.37,1.01.16,1.08,1.32,1.9,1.73.63.32,1.12.95,1.61,1.49.87.97,1.6,2.1,2.57,2.96.95.84,1.95,1.59,2.76,2.61.8,1.02,1.87,1.82,2.75,2.78.91.99,1.73,2.05,2.66,3.15-1.18,1.07-1.31,2.5-1.84,3.75-.08.19-.04.44-.08.66-.11.51-.25,1.01-.37,1.51-.08.31-.19.62-.22.94-.14,1.84-.26,3.68-.38,5.52-.05.75-.18,1.5-.11,2.24.16,1.67.34,3.34.65,4.98.17.9.45,1.87.97,2.59,1.07,1.48,2.31,2.83,3.91,3.8,1.97,1.19,3.97,2.27,6.42,1.85.81-.14,1.64-.16,2.46-.2.86-.04,1.45.62,1.49,1.45.07,1.3-.06,2.71.41,3.87.64,1.59.24,3.51,1.62,4.83.09.09.09.28.13.43.24.97.46,1.95.72,2.92.57,2.14,1.16,4.27,1.75,6.4.21.76.44,1.51.74,2.24.58,1.4,1.19,2.79,1.82,4.17.38.84.71,1.73,1.28,2.44.46.58.66,1.13.65,1.83,0,.31.05.76.26.93,1.37,1.1,1.13,3.02,2.23,4.27.53.61.75,1.48,1.12,2.24.33.67.79,1.32.95,2.03.21.94.41,1.82,1.18,2.17.15.79.17,1.4.38,1.94.39.97.95,1.87,1.35,2.84.24.57.29,1.21.46,1.8.1.34.22.71.42.99.56.79,1.1,1.57.78,2.47.28.46.51.8.7,1.16.68,1.23.58,2.81,1.76,3.82.12.1.1.35.15.53.11.39.25.78.34,1.18.24,1.08.46,2.16.69,3.22.39.34,1.01.62,1.21,1.09.43.98.66,2.05.94,3.09.13.51,0,1.2.29,1.53.94,1.05.8,2.47,1.42,3.6.1.19.09.44.16.65.31.93.63,1.87.95,2.8.14.41.3.81.43,1.23.22.7.22,1.59.67,2.08.98,1.08,1.3,2.33,1.52,3.67.04.26,0,.58.13.77.96,1.31.62,3.05,1.59,4.43.7.99.83,2.38,1.23,3.59.31.95.73,1.88.94,2.85.25,1.15,1.44,2.15.58,3.39.34.52.7.93.89,1.4.57,1.44,1.52,2.74,1.74,4.33.03.21.19.42.34.58.47.53.6,1.08.38,1.77-.09.27-.04.76.15.93.57.52.58,1.19.7,1.85.05.26.03.54.13.77.5,1.18,1.07,2.33,1.53,3.52.33.86.67,1.76.74,2.67.13,1.55-.96,2.7-1.61,3.99-.33.66-.71,1.29-1.02,1.96-.19.4-.26.86-.4,1.29-.37,1.17-.91,2.31-1.08,3.5-.23,1.61-.39,3.24-.35,4.9.05,2.42.66,4.69,1.42,6.9.58,1.69,1.63,3.24,2.63,4.74.55.82,1.38,1.49,2.19,2.07,1.49,1.08,3.06,2.06,4.38,2.94-.23.98-.4,1.82-.62,2.64-.09.34-.27.67-.45.98-.6,1.02-1.22,2.04-1.83,3.05-.66,1.1-1.6,2.05-1.78,3.41-.02.12-.21.21-.29.33-.21.31-.42.62-.58.96-.53,1.1-1.1,2.19-1.56,3.32-.95,2.34-2.5,4.35-3.54,6.64-.07.16-.27.25-.36.4-.41.64-.89,1.26-1.16,1.95-.26.67-.44,1.3-.99,1.84-.36.35-.4,1.01-.61,1.52-.25.61-.51,1.22-.79,1.81-.14.3-.4.54-.5.85-.24.74-.27,1.6-.67,2.24-.7,1.12-1.57,2.12-2.18,3.32-.91,1.79-1.99,3.49-3.02,5.22-.17.29-.48.49-.73.74-.38,1.59-.86,3.15-1.52,4.64-.67,1.54-1.43,3.02-1.47,4.75,0,.29-.24.61-.44.86-.96,1.18-1.65,2.43-1.38,4.06.11.69.18,1.44,0,2.11-.34,1.34-.09,2.6.16,3.89.1.5.08,1.02.1,1.54.06,1.42-.07,2.89.24,4.26.23,1.03.5,2.02.46,3.08,0,.21.19.47.36.65.47.5.42.89-.12,1.31-1.28,1.01-1.54,3.09-.61,4.47.17.26.25.6.32.92.11.47.13.96.25,1.43.33,1.28.69,2.55.99,3.67.33.6.56,1.08.84,1.54.42.69.87,1.37,1.3,2.06.1.16.3.33.28.47-.17,1.08.69,1.67,1.22,2.29,1.6,1.87,3.36,3.6,5.07,5.38.18.18.43.29.66.41.48.26.97.52,1.46.77.72.36,1.42.76,2.17,1.06.81.32,1.65.49,2.44.98.61.37,1.43,1.02,2.42.35.46-.31,1.25-.18,1.88-.14.81.06,1.62.23,2.45.35.49,1.37,1.6,2.03,2.95,2.41.45.13.9.31,1.32.54.64.35,1.45.4,1.91.07.79-.57,1.56-.47,2.39-.5.47-.02.95-.14,1.41-.25.29-.07.58-.34.83-.29,1.11.21,1.93-.61,2.92-.78.43-.08.95-.2,1.23-.49.88-.9,1.93-1.34,3.17-1.44.29-.89.9-1.34,1.76-1.58.35-.1.64-.47.92-.76.7-.73,1.44-1.34,2.5-1.11.39-.36.9-.62,1.07-1.02.31-.76.75-1.19,1.39-1.12.53-.58.86-1.18,1.37-1.46,1.22-.67,1.72-1.93,2.52-2.9.47-.57.82-.94,1.44-.85.33-.71.62-1.34.91-1.95,1.91,0,3.81,0,5.71,0,.45,0,.92.1,1.33-.02,2.11-.61,4.3-.48,6.44-.6,1.47-.08,3-.36,4.49.23.4.16,1-.17,1.51-.29.25-.06.49-.2.73-.21,1.8-.08,3.59-.15,5.39-.2,1.64-.05,3.28-.07,4.92-.09.46,0,1.02.19,1.35,0,.99-.59,2.05-.36,3.07-.42,1.01-.06,1.05.02,1.15,1.04.12,1.22.17,2.47,1.09,3.44.36.38.7.78,1.04,1.17,1.24,1.43,2.07,3.23,3.73,4.3.14.09.23.29.31.46.81,1.71,2.51,2.38,3.94,3.34.8.53,1.73.86,2.54,1.25,1.52.21,2.99.4,4.43.6.31-.39.59-.74.88-1.1.74.06,1.44.11,2.2.17.21-.16.48-.36.69-.52h4.32c.83-.39,1.96-.91,3.08-1.43-.03-.08-.06-.16-.09-.24h1.09c.2-.37.37-.7.49-.91.92-.26,1.73-.52,2.56-.7.71-.15,1.11-.59,1.58-1.12.5-.57,1.29-.9,1.98-1.29.93-.53,1.85-1.13,2.84-1.5,1.49-.55,2.66-1.48,3.7-2.63.07-.08.2-.1.3-.15.45-.25.91-.49,1.53-.84.53.24,1.09-.09,1.52-.7.51-.71,1.03-1.41,1.56-2.1.98-1.26,1.94-2.62,2.37-4.23.21-.77.59-1.38,1.51-1.35.13-.41.24-.75.37-1.16.47-.13.92-.27,1.62-.47,0,.52.06.9-.01,1.25-.1.47-.32.91-.46,1.36-.22.71-.35,1.47-.66,2.14-.8,1.73-1.63,3.44-2.53,5.12-.38.71-.91,1.35-1.44,1.97-.41.48-.91.88-1.4,1.29-.44.37-.9.71-1.16.91-.92,1.03-1.68,1.88-2.4,2.69-2.45.07-3.96,2.32-6.3,2.48-.1,0-.19.12-.28.19-1.11.87-2.34,1.32-3.77,1.04-.2-.04-.54,0-.63.12-.55.76-1.47.62-2.19.96-1.45.69-3.23-.28-4.61.87-.07.06-.28-.1-.42-.08-.7.07-1.41.11-2.1.25-.68.14-1.36.61-2,.54-1.28-.15-2.05.63-3.18,1.24.77.55,1.36,1.07,2.04,1.42.37.19.98-.05,1.33.16.91.54,1.84.18,2.55-.13,1.29-.55,2.59-.63,3.89-.49.95.11,1.78.16,2.33-.34.64.06,1.11.24,1.49.12,1.24-.38,2.55-.69,3.63-1.36.94-.58,1.79-.63,2.4-.48,2.64-1.08,4.97-2.03,7.43-3.03.15-.17.38-.56.71-.82.86-.67,1.84-1.21,2.64-1.95.86-.8,1.57-1.77,2.36-2.66.09-.1.3-.1.39-.21.48-.51,1-1,1.4-1.57.5-.72.81-1.6,1.38-2.24.56-.62.87-1.27,1.08-2.05.28-1.04.65-2.07,1.03-3.08.4-1.05,1.13-2.05,1.23-3.12.08-.92.41-1.45,1.18-2v-3.73c1.76-.97,2.8-2.42,4-3.7.24-.25.29-.74.3-1.12.02-.67-.15-1.36-.08-2.03.26-2.36-.75-4.5-1.15-6.74-.28-1.61-1.04-3.14-1.28-4.75-.44-2.9-1.67-5.6-1.99-8.52-.03-.31-.29-.6-.44-.9-.27-.53-.65-1.04-.79-1.61-.28-1.15-.34-2.36-.64-3.51-.69-2.66-1.31-5.35-2.42-7.89-.17-.4-.19-.86-.29-1.29-.07-.28-.12-.58-.23-.84-.76-1.78-1.55-3.54-2.32-5.32-.69-1.62-1.13-3.35-2.31-4.73-.18-.21-.21-.54-.29-.82-.27-.93-.31-2.01-.84-2.75-1.17-1.65-1.38-3.53-1.77-5.39-.12-.59-.26-1.18-.5-1.73-.4-.92-.87-1.82-1.36-2.7-.24-.44-.26-.93.19-1.05,1.18-.3,1.11-2.1,2.55-2.01.02,0,.04-.06.06-.09.28-.35.5-.78.84-1.02.71-.5.95-1.74,1.93-1.46.62-.56,1.13-.98,1.59-1.44s.94-.95,1.34-1.49c.44-.59.78-1.25,1.15-1.86.45.08.77.15,1.18.22.16-.31.29-.62.47-.89.23-.34.45-.87.75-.94,1.3-.26,1.24-1.47,1.72-2.28.22-.37.22-1,.51-1.15.33-.18.88.03,1.45.09.48-1.17.99-2.41,1.49-3.65.06-.16-.01-.38.01-.56.11-.81.24-1.62.36-2.43.05-.33.17-.65.18-.98.05-1.05.09-2.09.08-3.14-.01-1.26.75-2.11,1.72-2.56,1.34-.62,2.48-1.49,3.65-2.34.89-.64,1.88-1.14,2.77-1.79,1.07-.79,2.07-1.67,3.11-2.5.52-.42,1.09-.79,1.6-1.22,1.02-.86,2.03-1.74,3.04-2.61.04.04.07.09.11.13.15-.38.29-.76.44-1.14,1.03-.29,2.13-.55,2.8-1.23.94-.96,1.91-1.8,2.97-2.63,1.48-1.15,2.99-2.28,4.36-3.6,1.29-1.24,2.98-2.07,4.5-3.08.64-.43,1.3-.84,1.91-1.31,1-.78,1.82-1.78,3.18-2.09.8-.18,1.64-.54,1.95-1.53.08-.24.49-.41.78-.56.95-.48,1.95-.88,2.87-1.42.95-.56,1.38-1.89,2.72-1.94.11,0,.23-.18.32-.31.54-.8,1.64-1.08,1.94-2.1.03-.09.16-.15.25-.22.54-.39,1.08-.79,1.62-1.17.37-.25.73-.52,1.13-.71.76-.38,1.55-.72,2.32-1.08.27-.13.52-.38.79-.4,1-.1,1.72-.69,2.46-1.29.84-.69,1.67-1.41,2.59-1.98.93-.57,1.65-1.62,2.95-1.47.1.01.21-.07.31-.13,1.27-.82,2.51-1.7,4.08-1.86.1-.01.24-.08.28-.17.47-.87,1.23-1.12,2.16-1.12.22,0,.44-.26.65-.42,1.22-.93,2.45-1.86,3.66-2.81,1.56-1.23,3.11-2.47,4.65-3.73.75-.61,1.37-1.42,2.2-1.88,1.14-.65,2.44-.99,3.61-1.58,1.12-.57,2.61-.86,2.48-2.64-.01-.14.21-.29.32-.44.32-.46.63-.92.94-1.38-.02-.07-.04-.14-.06-.21,1.28-.23,2.57-.43,3.85-.69.68-.14,1.39-.31,2-.63.75-.4,1.42-.97,2.1-1.49.82-.61,1.7-1.17,2.43-1.89.85-.83,1.6-1.77,2.31-2.73.56-.75,1.11-1.54,1.44-2.4.78-2.01,1.52-4.04,2.11-6.11.31-1.09.3-2.29.36-3.44.02-.3-.21-.63-.38-.92-.63-1.08-1.27-2.15-1.92-3.21-.27-.44-.57-.86-.84-1.3-.11-.19-.26-.41-.24-.6.09-.88.23-1.76.34-2.61,1.44-.17,1.44-.17,1.72-1.66.04-.21.13-.43.25-.61.71-1.02,1.46-2,2.13-3.04.59-.91,1.1-1.87,1.63-2.81.53-.97,1-1.97,1.57-2.91.36-.59,1.18-1.07,1.24-1.65.11-1.11.71-1.94,1.14-2.87.61-1.33,1.29-2.62,1.98-3.92.42-.79.91-1.55,1.35-2.33.43-.75.77-1.55,1.27-2.24,1.13-1.54,2.21-3.09,2.8-4.93.34-1.08,1-1.52,2.11-1.23,2.1.55,4.11-.28,6.18-.34.24,0,.46-.26.71-.32.93-.24,1.85-.52,2.8-.67.93-.14,1.87-.16,2.81-.18,2.28-.05,3.55-1.52,4.31-3.37.66-1.6,1.5-3.19,1.55-5.01.01-.37.37-.71.53-1.09.18-.44.39-.88.45-1.34.08-.63.07-1.28.04-1.92ZM364.86,129.67c.24-.68.44-1.33.93-1.85.28-.29.63-.51.98-.72.89-.52,1.64-1.13,2.06-2.14.22-.52.72-.94,1.11-1.38,1.12-1.26,2.26-2.5,3.37-3.78.54-.62,1.12-.98,1.97-.71.79,1.34,1.06,2.81,1,4.32-.03.67-.47,1.31-.72,1.97-.15.41-.35.81-.41,1.23-.14,1.08-.61,1.96-1.25,2.84-.98,1.34-1.96,2.68-3.37,3.59-1.18.76-2.44,1.4-3.84,2.19-.3-.67-.56-1.1-.68-1.55-.16-.63-.63-.92-1.15-1.15-.93-.41-.94-.38-1.5-1.35.5-.48,1.27-.9,1.49-1.51ZM421.18,173.57c.33.43.53.69.8,1.05q-1.11.01-.8-1.05ZM411.72,160.15c.71-.2,1.41-.42,2.13-.56.31-.06.67,0,.99.07.69.18,1.35.42,2.04.62,1.27.37,1.5.62,1.24,1.91-.16.78-.55,1.51-.78,2.09-2.03-.27-3.75-.51-5.47-.74-.03.07-.07.14-.1.21-.4-.49-.88-.93-1.17-1.47-.48-.88.06-1.85,1.12-2.15ZM396.23,157.76c1.12-.96,2.33-1.05,3.68-.58.38.13.89.12,1.27-.02,1.88-.72,3.52-.4,4.99.97.5.47.82,1.03.6,1.69-.2.6-.52,1.18-1.34,1.13-.2-.01-.42.09-.61.2-1.1.63-2.07.49-2.97-.54-.75.25-1.33.3-1.88-.37-.22-.27-.89-.17-1.36-.23-.69-.09-1.43-.06-2.08-.28-1.05-.36-1.13-1.26-.3-1.97ZM372.11,213.04c.34-.82.57-1.73.61-2.61.05-1.07.44-1.93,1.04-2.75.17-.23.3-.55.32-.83.06-.84.33-1.58.74-2.32.39-.71.84-1.43.74-2.32-.02-.14.04-.31.13-.43.96-1.27,1.02-2.91,1.76-4.27.2-.36.34-.83.65-1.03.77-.51.74-1.31.98-2.04.35-1.05.88-2.04,1.33-3.05.09-.2.23-.38.27-.58.34-2,1.11-3.78,2.52-5.27.08-.08.13-.19.17-.29.23-.7.4-1.43.69-2.11.55-1.33,1.17-2.64,1.74-3.97.24-.55.45-1.12.64-1.69.72-2.15,1.99-3.97,3.39-5.72.14-.17.32-.34.38-.55.34-1.03.71-2.05.97-3.1.46-1.8,1.65-2.99,3.17-3.89.29-.17.7-.16,1.07-.19.32-.03.66.04.95-.05.89-.26,2.04.18,2.56,1.05.38-.06.67-.12.97-.14,1.56-.07,1.96.45,1.56,1.92-.65,2.37-1.62,4.57-2.96,6.66-1.01,1.58-1.67,3.4-2.51,5.09-.5,1.01-1.06,1.98-1.57,2.98-.96,1.92-1.93,3.83-2.84,5.77-.82,1.76-1.55,3.56-2.37,5.33-.3.64-.78,1.2-1.1,1.83-1.03,2-1.94,4.07-3.08,6.01-.92,1.57-1.25,3.46-2.62,4.81-.37.36-.42,1.03-.65,1.55-1.3,2.95-2.62,5.9-3.92,8.85-.15.34-.33.7-.36,1.06-.07.8-.45,1.28-1.12,1.69-.49.3-.83.84-1.25,1.28-2.15-.32-3.33-1.58-3.45-3.7-.06-1.03.06-2,.46-2.98ZM363.9,230.81c.07-.58.29-1.17.57-1.69.48-.88,1.09-1.69,1.59-2.57.76-1.33,2.11-1.8,3.39-2.28,1.33-.49,2.73-.81,4.13-1.05.62-.1,1.3.18,2.18.32,1.8-1.11,3.45.36,5.22.68.25.05.44.47.66.71-.04.1-.09.21-.13.31-.39,0-.78.04-1.16,0-1.71-.2-3.42-.55-5.14-.59-.79-.02-1.62.49-2.37.89-1.31.7-2.6,1.45-3.82,2.3-.59.41-1,1.08-1.27,1.39-.33,2.32-.62,4.34-.91,6.35-.78.09-1.44.19-2.11.24-.9.07-1.21-.29-1.13-1.2.11-1.26.15-2.54.31-3.8ZM279.54,298.08c.81-.89,1.79-1.39,2.97-1.58.35-.06.67-.3.98-.45.37-1.24,1.21-2.01,2.23-2.65.36-.23.63-.6.94-.92.52-.52,1.03-1.04,1.55-1.57.31-.32.66-.61.9-.97.53-.79,1.22-1.31,2.14-1.56.18-.05.43-.06.53-.18.62-.77,1.3-1.43,2.32-1.6.06-.01.16-.08.17-.14.24-1.31,1.54-1.66,2.3-2.5.44-.48,1.11-.73,1.7-1.1.87-1.86,2.82-2.41,4.55-3.61.32-.86,1.03-1.63,2.12-2.01.07-.02.14-.07.18-.13,1.12-1.67,3.11-2.31,4.46-3.71.1-.11.22-.26.34-.29,1.28-.22,2-1.34,3.07-1.89.32-.16.7-.21,1.15-.34.36-.81,1.1-1.14,2.03-1.18.25-.01.57-.09.71-.26,1.06-1.28,2.51-1.99,3.87-2.85,1.08-.68,2.12-1.42,3.2-2.11.24-.15.54-.18.82-.26.32-.09.71-.1.95-.28.72-.55,1.41-1.01,2.38-1.1.4-.04.79-.62,1.12-1.02.55-.65,1.29-.87,2.07-1.02.26-.05.66-.03.74-.18.53-1.01,1.75-1.05,2.41-1.71.97-.98,2.14-1.51,3.27-2.13.72-.4,1.5-.66,1.83-1.54.08-.21.46-.33.72-.45.49-.23,1.04-.35,1.48-.64,1.58-1.06,3.14-2.15,4.66-3.29.67-.5,1.22-1.16,1.99-1.91,1.13.27,2.13-.28,2.59-1.48.77-.34,1.41-.56,1.99-.89.96-.53,1.89-1.04,3.05-.98,1.1.05,1.75-.75,2.32-1.55.58-.82,1.26-1.16,2.33-.56.21,1.19,1.34,1.82,2.13,2.73.39.45.83.89,1.11,1.4.17.31.22.81.08,1.12-.22.53-.61,1-.95,1.47-1.07,1.48-2.54,2.32-4.25,2.95-.93.34-1.68,1.19-2.51,1.81-.23.17-.42.44-.67.55-2.16.91-4.32,1.83-6.26,3.19-.15.1-.31.21-.48.24-1.65.26-2.97,1.11-4.19,2.2-.23.21-.68.24-1.03.23-.56-.02-1.05.05-1.36.59-.02.03-.04.08-.07.09-1.5.6-2.49,2.09-4.23,2.33-.7.1-1.34.69-2,1.07-.16.09-.24.3-.39.4-1.3.79-2.62,1.56-3.93,2.34-.1.06-.21.11-.32.11-1.7-.1-2.62,1.27-3.83,2.06-1.22.8-2.31,1.78-3.48,2.65-.6.45-1.24.87-1.87,1.29-.45.3-.94.56-1.39.86-.99.65-1.97,1.32-2.95,1.99-.21.15-.51.32-.56.52-.27,1.23-1.33,1.62-2.2,2.26-1.18.87-2.24,1.88-3.37,2.84-.53.35-1.09.73-1.67,1.08-.31.18-.64.38-.98.44-.65.12-1.08.43-1.41,1-.21.37-.57.66-.9.94-.5.42-1.03.83-1.58,1.18-.3.19-.68.25-1.14.41-.72.76-1.41,1.77-2.65,2.1-.12.03-.24.18-.29.31-.27.64-.73.92-1.1.84-.6.53-1.01.9-1.44,1.25-.56.45-1.14.86-1.7,1.3-1.19.93-2.41,1.83-3.56,2.8-.7.6-1.19,1.51-1.97,1.93-1.37.74-2.48,1.73-3.53,2.84-.2.21-.49.37-.77.46-.94.29-1.51.93-1.86,1.92-.35-.1-.72-.11-.96-.3-1.56-1.2-3.12-2.41-4.63-3.68-.74-.62-.67-.84-.02-1.55ZM301.44,181.98c-.1-.51-.18-.86-.25-1.23.42-.68.94-1.16,1.86-1.19.42-.01.84-.4,1.25-.64.26-.14.5-.31.75-.47.1.14.19.27.29.41-1.31.95-2.24,2.37-3.9,3.12ZM307.44,164.07c-.83-.75-2.12-1-2.46-2.41.63-.1,1.18-.19,1.93-.32.29.78.59,1.61.9,2.45-.12.09-.24.19-.36.28ZM319.19,159.73c1.37-.54,2.44-1.47,3.53-2.39.06-.05.09-.13.15-.17,1.33-.94,2.67-1.89,4.01-2.83,1.23-.86,2.48-1.68,3.67-2.58.61-.46,1.21-.78,2-.93,1.28-.23,2.54-.65,3.31-1.84.48-.74,1.1-1.14,2-1.28.6-.1,1.13-.55,1.71-.82,1.76-.82,3.53-1.64,5.29-2.45.17-.08.41-.12.49-.26.54-.84,1.3-.75,1.87-.59,1.46-.77,2.75-1.42,4.02-2.12,1.59-.88,3.69,1.02,3.59,2.8-.06,1.15-.32,1.43-1.53,1.92-.4.16-.71.53-1.06.81-.43.35-.81.79-1.29,1.05-.73.4-1.42.74-1.82,1.57-.16.34-.88.41-1.39.52-1.16,1.5-2.98,1.8-4.56,2.55-1.2.59-2.41,1.16-3.61,1.76-1.6.81-3.25,1.49-4.94,2.1-.53.19-.92.75-1.42,1.08-1.64,1.1-3.32,2.15-4.95,3.26-.42.29-.72.75-1.12,1.07-1.43,1.12-2.77,2.45-4.37,3.26-1.56.79-2.83,2.12-4.7,2.4-.93.14-1.78.83-2.69,1.22-.67.28-1.38.46-2.19.73-.2-1.56-.38-2.89-.56-4.33,1.01-1.45,2.21-2.82,3.98-3.61.26-.12.45-.39.69-.57.63-.47,1.21-1.08,1.92-1.35ZM330.64,79.58c.43-1.66.8-3.33,1.3-4.97.15-.49.66-.88,1.1-1.43.5.44,1.05.74,1.36,1.21,1.25,1.87,2.31,3.81,2.68,6.11.36,2.22.18,4.38-.16,6.56-.06.4-.07.82-.05,1.23.09,1.76.33,3.52.28,5.28-.04,1.49-.28,3-.69,4.43-.27.96-.92,1.83-1.53,2.65-.38.52-1,.73-1.71.46-.36-.14-.79-.11-1.34-.18-.08-.48-.13-1.07-.26-1.64-.17-.76-.45-1.49-.59-2.25-.09-.5-.06-1.04.01-1.55.11-.79.27-1.51-.53-2.14-.26-.2-.27-1.03-.09-1.42.61-1.32.41-2.6.25-3.97-.32-2.78-.75-5.59-.03-8.38ZM328.67,107.3c1.21-.98,2.49-1.88,3.79-2.85.71.91,1.76,1.32,1.85,2.42.05.62.08,1.26-.05,1.85-.05.25-.55.53-.86.55-.46.02-.97-.1-1.38-.31-.85-.43-1.67-.7-2.64-.43-.25.07-.78-.08-.85-.25-.11-.28-.06-.82.14-.98ZM321.99,123.61c.21-1.27.79-2.48,1.19-3.72.08-.24.13-.51.1-.76-.11-1.25.29-2.35.86-3.44.57-1.09,1.09-2.19,2.16-2.93.61-.42,1.17-.83,1.89-.36,1.35-1.19,3.69-.54,4.05,1.14.28,1.28.4,2.61-.17,3.88-.09.21-.21.43-.21.64,0,1.97-1.2,3.47-1.94,5.16-.48,1.09-.74,2.28-1.11,3.43-.1.32-.14.71-.35.93-.81.82-1,1.91-1.41,2.92-.37.94-.85,1.83-1.3,2.74-.28.57-.56,1.14-.87,1.69-.62,1.1-1.26,2.19-1.9,3.29-.11.19-.33.37-.36.57-.24,1.83-1.54,3.14-2.24,4.75-.58,1.34-.93,2.82-1.73,4-.93,1.38-1.44,2.93-2.25,4.33-.33.57-.83,1.04-1.25,1.55-.11-.04-.23-.08-.34-.12.19-1.44.37-2.89.57-4.33.2-1.41.43-2.81.65-4.21.03-.22.02-.46.09-.67.42-1.35.91-2.69,1.28-4.06.32-1.19.45-2.44.79-3.63.38-1.37.9-2.7,1.36-4.05.1-.29.28-.56.3-.85.26-2.75,1.69-5.17,2.13-7.87ZM311.34,98.72c.57-.25,1.17-.27,1.68.19.22.2.41.43.61.65.03-.05.06-.11.09-.16.54.25,1.13.44,1.61.78.42.29.45.86.08,1.18-.24.21-.86.32-1.08.16-.69-.51-1.42-.39-2.15-.33-.55.05-1.06.15-1.32-.5-.21-.54.05-1.78.48-1.98ZM304.51,154.31c.28-1.31.43-2.65.64-3.97.07-.44.1-.91.27-1.31.69-1.6.81-3.27.77-4.98,0-.15-.1-.34-.04-.44,1.06-1.92.39-4.06.74-6.07.29-1.66-.01-3.35.4-5.04.52-2.1.68-4.29,1.05-6.43.13-.76.47-1.49.68-2.24.35-1.3.66-2.61,1.01-3.91.37-1.38.83-2.73,1.12-4.12.32-1.54.49-3.11.72-4.67.15-1.03.4-2,1.51-2.56-.04-.48-.04-.97-.12-1.44-.13-.78.29-1.12.91-1.45.64-.34,1.13-.19,1.49.3.63.88,1.13,1.85,1.76,2.73.47.65,1.04,1.26,1.65,1.78.44.37.68.69.66,1.31-.07,2.28-.07,4.57-.12,6.86,0,.37.02.82-.17,1.1-.66,1.03-.67,2.2-.89,3.34-.42,2.16-.86,4.33-1.79,6.37-.46,1-.55,2.17-.82,3.27-.91,3.76-1.98,7.49-2.68,11.28-.33,1.78-.75,3.49-1.27,5.21-.29.97-.46,1.98-.54,2.99-.22,2.65-1.12,5.11-1.92,7.76-.56-.27-1.05-.49-1.53-.74-.79-.41-1.6-.78-2.35-1.25-1.01-.65-1.45-2.34-1.16-3.67ZM277.17,121.36c-.41.45-.71,1.01-1.05,1.53-.1.16-.17.35-.29.47-.98.97-1.99,1.92-2.01,3.45,0,.12-.17.23-.25.33-1.83-.69-2.43-1.85-1.87-3.68.17-.57.47-1.11.76-1.63.56-1.01,1.15-1.99,1.75-3.02.36.02.68.04,1,.05,1.02-.99,1.08-.98,2.05-.07.21.2.57.23,1.04.4.05.38.1.78.15,1.22-.45.32-.94.56-1.28.94ZM288.95,151.5c-.55-.5-.85-1.3-1.16-2.01-.46-1.05-.81-2.16-1.26-3.22-.71-1.67-1.49-3.32-2.2-4.99-.14-.34-.1-.75-.22-1.1-.21-.63-.44-1.26-.71-1.87-.22-.5-.52-.97-.78-1.45-.05-.1-.04-.26-.12-.31-1.24-.74-1.49-2.15-2.03-3.29-.53-1.13-1.57-1.77-2.11-2.85-.45-.88-.61-1.65,0-2.52.22-.31.22-.77.32-1.16.12-.47.1-1.05.38-1.38.69-.83,1.43-1.69,2.31-2.28.63-.42,1.57-.64,2.3-.52.52.09.92.88,1.37,1.38.29.33.51.77.86,1,.68.46,1.03,1.06,1.15,1.85.17,1.03.34,2.06.56,3.07.07.32.27.61.45.9.63,1.02,1.32,2,1.89,3.06.56,1.06,1,2.18,1.53,3.35,1.1.17,1.16,1.18,1.15,1.98-.02,1.33.56,2.41,1.13,3.49.87,1.64,1.57,3.31,1.98,5.14.2.87.77,1.66,1.18,2.48.68,1.34,1.32,2.7,2.06,4.01.54.96.74,1.53.55,2.72-1.1.1-2.25.25-3.4.27-.57.01-.97.08-1.35.57-.59.76-.64.73-1.99.72-.82-1.3-1.78-2.6-2.14-4.2-.26-1.13-.82-2.03-1.7-2.83ZM298.54,160.61c-.72-.04-1.12-.07-1.52-.09-.06-.09-.11-.18-.17-.27.26-.35.53-.71.96-1.29.28.64.44,1,.73,1.65ZM284.61,172.24c.4-.76.58-1.64,1.03-2.37.86-1.41,1.28-3.1,2.85-4.06.71-.43,1.23-1.19,1.82-1.81.85-.9,1.06-1.29,2.16-.12-.79.85-1.59,1.71-2.38,2.57.03.11.05.21.08.32.44.04.92.22,1.31.09.86-.27,1.91-.33,2.26-1.43,1.61-.92,2.6-2.72,4.52-3.21.21-.05.44-.07.66-.04.92.15,1.86.25,2.75.5,1.65.47,2.41,1.86,3.17,3.24.28.51.68.95.97,1.46.19.33.31.72.38,1.1.12.65.18,1.32.24,1.98.04.44.18.99-.02,1.3-.69,1.09-1.5,2.1-2.27,3.13-.02.03-.07.05-.08.08-.82,1.5-2.07,2.55-3.49,3.43-.06.04-.08.16-.13.18-1.52.48-3.03.99-4.57,1.37-.29.07-.71-.34-1.19-.59-1.37.86-2.58-.22-3.82-.68-2.61-.97-3.94-3.99-3.21-6.68.24-.89.2-1.86.3-2.8h0c-.74.96-1.07,2.01-.95,3.23.08.82.1,1.67-.03,2.48-.3,1.83.59,3.08,1.83,4.21.74.68,1.47,1.37,2.16,2.01.83.32,1.63.68,2.46.93.6.18,1.26.38,1.87.31,1.28-.15,2.55-.37,3.76-.9.4-.18.94-.03,1.46-.03-.04.9-.38,1.44-1.22,1.59-.68.12-1.33.28-1.69.96-.03.06-.09.14-.16.16-1.15.25-2.28.56-3.44.7-.66.08-1.37-.04-2.03-.2-1.22-.29-2.43-.61-3.6-1.05-.6-.23-1.22-.63-1.61-1.13-.67-.84-1.18-1.81-1.73-2.74-.12-.21-.18-.51-.13-.74.22-1.05-.04-2.03-.42-2.96-.54-1.31-.5-2.54.17-3.79ZM281.72,182.56c.07.2.14.39.21.59-.13.02-.26.04-.39.06-.03-.19-.06-.38-.1-.56.09-.03.19-.06.28-.09ZM275.48,193.21c.25.96-.44,1.34-.89,2.03-.33-1.05.19-1.51.89-2.03ZM268.49,214.17c.14-.33.17-.77.41-1,.91-.84,1.32-1.88,1.4-3.08.01-.18.03-.42.14-.53.92-.94,1.2-2.44,2.63-2.87.06-.41.12-.74.18-1.12.58-.31.85-.77.94-1.5.07-.62.57-1.19.89-1.77.31-.55.67-1.08.93-1.65.43-.94.79-1.92,1.21-2.88.29-.68.58-1.32.63-2.12.04-.6.7-1.15,1.08-1.73.28-.42.61-.81.8-1.27,1.02-2.39,1.82-4.9,3.79-6.92.96.33,1.93.67,3.06,1.07.47.86,1.32,1.18,2.47.97.44-.08.94.2,1.41.32.78.19,1.56.39,2.43.61-.42,2.4-.66,4.76-1.3,7-.44,1.55-1.26,3.04-2.4,4.27-.13.14-.3.27-.35.43-.92,2.8-2.66,5.17-4.03,7.74-.42.78-.63,1.72-1.6,1.9-.46,1.54-.9,2.97-1.83,4.21-.49.65-.79,1.44-1.2,2.14-.35.6-.78,1.17-1.11,1.78-.37.68-.65,1.4-.98,2.1-.14.3-.22.71-.46.86-1.02.63-1.31,1.69-1.73,2.69-.18.41-.42.8-.66,1.18-.93,1.44-1.88,2.87-2.82,4.31-.14.22-.3.45-.36.69-.22.79-.64,1.35-1.58,1.44.17.95-.38,1.55-.82,2.25-1.06,1.68-2.07,3.4-2.97,5.16-1.21,2.36-2.35,4.75-3.96,6.89-.83,1.1-1.36,2.44-2.03,3.66-1.13,2.04-2.28,4.07-3.39,6.11-.54.99-.85,2.15-1.57,2.98-.83.97-.88,2.38-1.98,3.14-.15.1-.16.4-.24.6-.25.66-.46,1.35-.77,1.99-.92,1.88-1.86,3.74-2.83,5.59-.84,1.6-1.73,3.16-2.58,4.75-.78,1.47-1.5,2.96-2.3,4.42-.69,1.27-1.47,2.5-2.18,3.76-.14.25-.11.62-.28.84-.17.21-.49.3-.72.44-.3,1.66-1.1,3.01-2.19,4.22-.17.19-.28.44-.43.65-1.2,1.66-2.4,3.32-3.59,4.99-.47.66-.87,1.35-1.33,2.02-.12.17-.33.27-.62.48-.22-.53-.49-.96-.55-1.41-.08-.69-.37-1.18-.96-1.54-.5-.31-.68-.8-.82-1.39-.18-.74-.54-1.49-1.01-2.08-.54-.67-.75-1.38-.67-2.17.07-.64.17-1.38,1.06-1.07,1.11-1.7,1.93-3.45,3.37-4.79.34-.32.42-.93.62-1.4.37-.86.7-1.73,1.13-2.56.16-.3.55-.49.79-.69.21-.48.28-1.06.62-1.34,1.52-1.28,1.78-3.23,2.74-4.81.71-1.17,1.21-2.43,2.25-3.44.66-.64.87-1.71,1.33-2.56.34-.62.66-1.3,1.16-1.78.65-.63.91-1.25.59-2.11-.05-.13,0-.29,0-.44.08.07.15.14.23.21.53-.67,1.11-1.3,1.57-2.01.33-.52.6-1.12.72-1.72.3-1.47,1.19-2.63,1.89-3.89.3-.54.54-1.12.8-1.68.17-.37.26-.87.55-1.08,1.05-.75,1.37-1.94,1.6-3.01.35-1.62,1.25-2.87,2.05-4.23.85-1.44,1.64-2.92,1.53-4.76.25-.16.57-.3.8-.52.26-.25.65-.57.65-.86,0-1,.56-1.68,1.09-2.4.09-.12.18-.25.22-.39.38-1.25.74-2.5,1.14-3.75.1-.31.29-.59.46-.88.22-.36.47-.7.68-1.07.79-1.42,1.45-2.94,2.4-4.26.77-1.08,1.11-2.26,1.58-3.44.48-1.23,1.17-2.38,1.73-3.58.51-1.1.99-2.22,1.47-3.34ZM267.28,210.78c-.07.42-.12.76-.18,1.15-.83-.66-.82-.71.18-1.15ZM223.24,281.72c1.62-.59,1.81-2.19,2.46-3.44.31-.59.56-1.17,1-1.71,1.01-1.24,1.94-2.56,2.79-3.91.86-1.37,1.58-2.83,2.37-4.24.11-.19.21-.43.38-.55,1.25-.87,1.92-2.17,2.64-3.44.78-1.37,1.68-2.67,2.31-4.1.51-1.16,1.4-2.01,2.03-3.05.93-1.53,1.74-3.13,2.6-4.71.09-.16.17-.33.27-.49.89-1.38,1.79-2.75,2.68-4.13.1-.15.22-.39.16-.52-.33-.79.18-1.26.61-1.78.55-.66,1.13-1.3,1.21-2.24.03-.3.29-.59.48-.87.45-.68.96-1.33,1.37-2.04.77-1.32,1.48-2.68,2.24-4.01.61-1.07,1.27-2.12,1.87-3.2.47-.85.89-1.72,1.33-2.59.21-.42.4-.86.67-1.47.2-.06.48-.15.76-.24.04-.13.11-.23.11-.33-.02-1,.13-1.9,1.01-2.56.29-.22.6-.54.7-.87.3-1.04,1.06-1.83,1.39-2.9.39-1.26,1.24-2.47,2.17-3.42.57-.58,1.07-1.15,1.51-1.82.17-.26.51-.4.78-.59.26-1.46,1.94-3.65,3.16-4.07.39.65.07,1.22-.2,1.78-.68,1.41-1.39,2.81-2.08,4.22-.64,1.32-1.29,2.63-1.86,3.98-.85,2-1.85,3.9-2.99,5.77-.86,1.41-1.32,3.07-1.98,4.61-.5,1.15-1.02,2.29-1.56,3.43-.49,1.05-1.03,2.08-1.5,3.13-.33.74-.61,1.43-1.31,2.01-.6.5-.8,1.49-1.16,2.27-.33.71-.62,1.44-1,2.13-.68,1.24-1.57,2.39-1.46,3.94-.45.32-.77.6-.97,1.22-.4,1.24-.63,2.65-1.87,3.49-.2.13-.35.54-.31.79.23,1.3-.57,2.15-1.2,3.11-.79,1.21-1.46,2.51-2.18,3.78-.33.59-.6,1.22-.98,1.77-.72,1.05-1.22,2.19-1.67,3.38-.33.85-.73,1.72-1.29,2.42-1.13,1.41-1.86,2.97-2.2,4.62-.99.92-1.88,1.78-2.17,3.07-.18.83-.42,1.62-1.34,1.9-.49,1.47-.7,3.06-2.2,3.96-.04.37-.08.74-.13,1.11-.04.26-.03.56-.17.76-.6.87-1.24,1.71-1.79,2.45-1.03-1.04-2.14-2.04-3.11-3.15-.58-.67-1.32-.8-2.05-1.07-.28-.1-.65-.38-.68-.61-.04-.31.14-.87.37-.96ZM199.15,304.2c.19-.79.58-1.61.51-2.38-.11-1.22.12-2.37.3-3.54.07-.43.3-.85.49-1.25.55-1.18,1.1-2.36,1.69-3.52.25-.49.6-.92.89-1.39.13-.21.2-.46.34-.67.3-.46.55-1.02.97-1.31.89-.62.94-.56,1.29-1.53.94-.12,1.83-.34,2.29-1.3.05-.1.11-.26.19-.27,1.46-.23,2.46-1.68,4.16-1.39,1,.17,2.17.36,3.01-.71.17-.21.79-.2,1.15-.11.97.23,1.91.57,2.98.9.22.45.49,1.01.71,1.47,1.19.05,2.27.1,3.4.15.14.22.27.43.42.65.77,1.12,1.72,2.16,2.27,3.38.64,1.43,1.75,2.54,2.35,3.96.32.74.42,1.57.66,2.35.37,1.2.87,2.38,1.11,3.6.2.98.11,2.02.12,3.03,0,.37-.09.74-.16,1.25-.78.38-1.63.79-2.53,1.23-.28-.31-.52-.58-.78-.86-1.97.37-3.83.03-5.71-.61-.92-.31-2-.23-3-.21-2.21.04-4.42.14-6.63.24-.33.01-.65.15-1.06.26-.67-.53-1.45-.65-2.39-.44-.77.17-1.67.15-2.43-.08-.99-.3-1.83.09-2.75.17-1.34.11-2.66.75-4.18.21.1-.44.2-.86.3-1.27ZM133.32,120.48c.11,0,.22.01.33.02v1l-.42-.04c.03-.33.06-.66.09-.98ZM133.01,122.59c.17.41.34.66.35.9,0,.33-.14.65-.21.98-.39,1.83-.77,3.65-1.15,5.48-.16.77-.24,1.56-.43,2.32-.14.59-.39,1.16-.59,1.74-.55,1.6-.02,3.39-.88,4.94-.44.81-.72,1.61-.66,2.63.05.78-.55,1.6-.87,2.39-.1.24-.26.47-.32.72-.47,2.04-.98,4.08-1.37,6.13-.17.87-.08,1.8-.13,2.69-.03.51-.11,1.02-.16,1.53-1.46-.17-2.51-1.4-2.6-2.59-.12-1.55.36-2.95.78-4.39.25-.84.33-1.73.47-2.53.23-.65.41-1.13.56-1.62.58-1.96,1.16-3.92,1.72-5.89.16-.58.2-1.19.38-1.76.24-.77.52-1.54.87-2.27.31-.64.47-1.24.27-1.95-.11-.38-.09-.81.09-1.12.42-.54.86-1.06,1.24-1.62.99-1.45,1.56-3.05,1.74-4.81.06-.58.5-1.11.89-1.92ZM129.69,109.73c-.76.24-1.58.31-2.5.46-.08.12-.23.36-.32.5-1.36.08-2.61.14-4.34.24-.46-.2-1.56-.54-1.81-1.6-.28-1.18-.39-2.45-.26-3.65.1-.98.65-1.91,1.05-2.97.8.23,1.39.41,2.07.6.05-.28.11-.62.19-1.04.28.01.59-.07.76.05,1.04.72,2.06,1.47,3.06,2.25.61.48,1.11,1.14,1.78,1.51,1.18.65,1.2,1.73,1.19,2.79,0,.3-.51.75-.86.86ZM120.18,93.35c-.52-1.2-1.55-1.97-2.2-3.04-.64-1.05-1.27-2.11-1.92-3.16-.15-.25-.31-.56-.55-.67-.75-.34-1-.93-1.12-1.68-.08-.51-.28-1.01-.46-1.5-.46-1.25-.77-2.46.35-3.55.2-.19.32-.52.36-.81.18-1.08,1.03-1.72,1.8-2.2.46-.29,1.53-.16,1.96.21.81.7,1.7,1.32,2.43,2.16,1,1.14,1.28,2.59,2.11,3.79,1.1,1.58,1.87,3.35,2.75,5.05.34.65.85,1.2,1.28,1.8.73,1.02,1.54,2,2.16,3.08.84,1.45,1.48,3.01,2.31,4.46.71,1.26.61,2.6.58,3.94,0,.47-.16.94-.24,1.38-.96.17-1.41-.25-1.8-.96-.59-1.08-1.65-1.66-2.76-2.04-1.53-.52-3.1-.88-4.25-2.16-.25-.29-.7-.41-.87-.5-.71-1.29-1.42-2.39-1.93-3.58ZM115.34,140.79c.04-.5.38-.97.45-1.47.26-1.8.48-3.6.72-5.52.1-.07.35-.24.38-.27.56-2.66,1.09-5.11,1.6-7.57.13-.62.15-1.26.26-1.88.19-1.03.41-2.04.61-3.07.08-.44.12-.89.21-1.33.06-.29.07-.68.26-.85,1.35-1.17,1.57-2.93,2.35-4.39.17-.32.7-.57,1.09-.61,1.38-.13,2.78-.16,4.17-.23.04,0,.08.03.11.01,1.12-.57,1.84.14,2.63.87.31,1.67.03,3.39-.2,5.14-.33,2.57-1.39,4.91-2.02,7.37-.2.79-.57,1.55-.83,2.33-.5,1.51-.78,3.14-1.54,4.52-.58,1.06-.36,2.08-.58,3.1-.26,1.23-.43,2.54-1.23,3.6-.04.06-.08.13-.09.2-.24,1.59-.47,3.17-.73,4.76-.11.67-.27,1.32-.39,1.98-.14.81-.27,1.63-.38,2.44-.09.68-.15,1.36-.24,2.17-.9-.51-1.59-1.11-2.37-1.29-.94-.21-1.6-.85-2.42-1.17-.47-.18-1.1.06-1.65.11-.22.02-.44,0-.88,0-.08-.65-.17-1.32-.24-1.99-.26-2.4.77-4.63.96-6.97ZM90.24,117.41c.98.59,1.71,1.41,2.31,2.37.27.43.66.79,1.01,1.17.1.11.32.17.34.28.15.78.79,1.17,1.24,1.73.62.77,1.08,1.68,1.56,2.55.47.85,1.03,1.56,1.75,2.26,1.16,1.13,1.99,2.62,2.95,3.96.32.45.63.92.94,1.38.86,1.25,1.73,2.51,2.59,3.76.59.87,1.18,1.74,1.77,2.6.13.18.4.36.39.53-.03,1.67,1.53,2.54,1.98,3.96.06.2.25.39.43.51.64.46.79,1.05.57,1.83-1.41.23-2.16-.79-2.99-1.6-.45-.44-.78-1-1.2-1.47-.54-.62-1.11-1.21-1.69-1.8-.51-.51-1.08-.97-1.57-1.5-.87-.93-1.76-1.85-2.54-2.86-.89-1.14-1.68-2.37-2.51-3.56-.74-1.06-1.09-2.33-2.09-3.26-.57-.53-.93-1.37-1.19-2.13-.39-1.14-1.28-1.88-1.94-2.81-1.15-1.63-2.16-3.37-3.19-5.09-.38-.62-.28-1.19.32-1.69.29-.24.45-.65.74-1.11ZM78.3,106.54c.1-.74.27-1.47.45-2.19.44-1.8.79-3.62,1.51-5.34.14-.33.15-.76.07-1.11-.32-1.43.42-2.41,1.25-3.41.35-.43.5-1.04.71-1.58.18-.48.28-1,.47-1.48.57-1.46,1.18-2.9,1.75-4.36.33-.85.88-1.64.79-2.64-.02-.25.23-.54.38-.8.41-.71.82-1.43,1.27-2.11.37-.57.81-1.11,1.36-1.87-.24-1.1.48-2.06,1.48-2.89.11-.09.26-.22.28-.34.17-1.6,1.52-2.52,2.21-3.82.45-.86,2.35-1.12,3.18-.47.82.65,1.8.68,2.71.9,1.39.33,1.98.91,1.73,2.33-.11.65-.4,1.27-.6,1.9-.09.28-.14.56-.24.83-.38,1.08-.77,2.17-1.17,3.24-.18.47-.41.91-.59,1.38-.76,1.99-2.11,3.73-2.38,5.95-.1.83-.67,1.59-1.03,2.39-.08.17-.22.32-.24.49-.1,1.31-.57,2.49-1.06,3.7-.67,1.65-1.05,3.42-1.7,5.08-.56,1.41-.86,2.94-1.9,4.16-.32.37-.44.96-.52,1.47-.21,1.33-.32,2.67-.54,4-.08.5-.39.96-.69,1.64-1.15-.62-2.34-1.05-3.25-1.82-1.12-.93-2.44-1.07-3.71-1.46-.57-.17-1.18-.2-1.97-.33,0-.48-.06-.98.01-1.46ZM77.04,123.13c-.31.34-.58.73-.98,1.01-.2.87-.4,1.74-.59,2.57-1.87-.1-2.55-1.72-3.88-2.84-.04-1.57-.09-3.33-.11-5.08,0-.24.18-.49.3-.71.85-1.51,1.7-3.01,2.55-4.51.04-.06.05-.16.11-.19.92-.56,1.78-1.26,2.77-1.63.98-.37,2.07-.24,3.05.27.19.1.43.1.65.13.19.03.49-.04.54.05.81,1.31,2.69,1.5,3.21,3.09.04.14.04.29.04.34-1.35,1.46-2.63,2.86-3.95,4.23-.65.68-1.39,1.28-2.25,2.06-.75-.25-1,.68-1.49,1.22ZM99.25,150.58c-1.82-1.11-3.2-2.7-4.46-4.4-.29-.39-.7-.67-1.05-1.02-.69-.68-1.39-1.34-2.05-2.04-1.01-1.07-2-2.17-3-3.26-.1-.11-.25-.22-.28-.35-.34-1.49-1.68-2.33-2.35-3.62-.78-1.49-1.65-2.94-2.61-4.32-.84-1.19-1.87-2.25-2.82-3.37-.63-.74-.6-1.3-.08-2.26.88-1.61,2-2.95,3.21-4.28.46-.5.88-.62,1.38-.45.99,1.62,1.93,3.17,2.89,4.71.09.14.3.21.43.33.4.39.93.74,1.14,1.22.56,1.3,1.43,2.36,2.33,3.42.35.42.52.99.84,1.45.33.48.73.91,1.08,1.37.18.23.34.47.51.71.27.39.54.79.82,1.17.13.18.4.33.41.51.11,1.11.99,1.63,1.66,2.32.67.69,1.32,1.41,1.92,2.17.24.3.33.73.49,1.09,1.33.92,2.43,2.08,3.37,3.4.24.33.54.63.82.93,1.09,1.16,2.11,2.38,3.38,3.39.86.68,1.12,1.88,1.26,2.7-.83.83-1.46,1.46-2.12,2.13-.29-.08-.6-.17-.97-.28-.73.8-1.3,2.03-2.63,1.2-1.07-1.67-1.75-3.49-3.51-4.56ZM116.28,181.95c-.41.12-.77.4-1.1.8-.35-.09-.71-.18-1.1-.28-.19.3-.36.57-.45.71-1.01.19-1.89.46-2.77.48-.82.01-1.7-.13-2.47-.43-1.27-.51-2.43-1.2-3.15-2.5-.64-1.17-1.43-2.26-2.18-3.38-1.04-1.55-.8-3.23-.54-4.91.1-.66.28-1.31.39-1.97.03-.16-.07-.34-.14-.5-.39-.85-.52-1.71-.22-2.62.09-.28.22-.65.11-.88-.5-1.03.21-1.88.41-2.77.22-.97.72-1.92,1.28-2.76.58-.86,1.38-1.57,2.26-2.54.12-1.08.49-1.51,1.79-1.84.79-.2,1.55-.36,1.62-1.41.01-.18.34-.48.53-.48,1.53-.04,2.74-.97,4.13-1.38.31-.09.66-.15.97-.09,1.27.25,2.63.32,3.45,1.57.08.12.22.23.36.26,1.89.52,2.93,2.12,4.31,3.29,1.54,1.3,2.37,2.91,2.76,4.86.3,1.53.82,3.01,1.18,4.53.15.65.16,1.34.16,2.02,0,.75-.2,1.52-.09,2.25.24,1.7-.54,3.02-1.44,4.29-.2.28-.65.51-1,.55-1.23.12-2.38.35-3.27,1.31-.12.12-.33.18-.5.23-.95.25-1.54.74-1.68,1.82-.06.43-.62.94-1.07,1.12-.79.33-1.69.4-2.52.65ZM153.99,287.2c-.69-2.05-1.58-4.02-2.18-6.13-.59-2.08-.73-4.37-2.15-6.21-.3-.38-.19-1.08-.28-1.71-.66-.28-.87-.84-1.07-1.6-.54-2.03-1.59-3.94-1.95-5.99-.33-1.85-1.48-3.27-1.94-5-.32-1.19-.67-2.38-1.01-3.57-.05-.18-.08-.45-.2-.5-.72-.31-.61-.92-.76-1.54-.58-2.39-1.35-4.73-2.05-7.09-.13-.43-.23-.87-.37-1.3-.13-.4-.29-.8-.44-1.2-.03-.07-.1-.12-.12-.19-.32-1.05-.63-2.1-.95-3.14-.31-1-.62-2-.94-2.99-.56-1.76-1.15-3.51-1.69-5.27-.1-.34,0-.74.03-1.11.1-1.08-.1-2.06-.72-2.98-.6-.88-1.49-1.1-2.64-.38-.22.14-.38.37-.6.52-.38.25-.73.19-.94-.24-.61-1.24-1.23-2.47-1.79-3.73-.13-.28-.09-.68-.03-1,.12-.72-.17-1.31-.67-1.69-.56-.42-.63-.95-.75-1.54-.09-.42-.25-.92-.56-1.18-.56-.47-.72-1.01-.73-1.68,0-.6-.08-1.16-.62-1.61-.31-.25-.39-.78-.55-1.2-.31-.82-1.18-1.36-1.16-2.35,0-.07-.08-.14-.08-.21.29-2.07-1.11-3.46-2.03-5.04-.09-.16-.17-.36-.15-.53.2-1.42-.52-2.56-1.02-3.8-.44-1.09-.55-2.31-.8-3.48-.19-.88-.39-1.76-.56-2.64-.2-1.06-.37-2.13-.56-3.2,0-.04,0-.09-.01-.11-1.26-1.43-.36-3.23-.82-4.82-.42-1.43-.15-3.02.32-3.84.66-.06,1.32-.14,1.99-.19.51-.04.84.11.98.68.23.89.71,1.6,1.6,2.07.39.21.63.81.79,1.29.26.77.35,1.59,1.16,2.05.16.09.25.38.3.59.43,1.74,1.39,3.22,2.25,4.75.29.52.67.98,1.11,1.61.05.5.21,1.04.72,1.67.77.94,1.07,2.27,1.5,3.27.39.57.8.98.96,1.47.35,1.02.72,2.01.93,3.1.29,1.49,1.14,2.87,1.71,4.31.44,1.11.82,2.24,1.22,3.37.14.38.26.77.4,1.15.17.44.37.88.53,1.32.09.24.07.61.23.74,1.12.85.95,2.2,1.4,3.31.52,1.25,1.24,2.42,1.87,3.63.02.03.07.05.08.08.45,1.15.9,2.3,1.36,3.45.16.39.29.85.58,1.13.75.73,1.48,1.35,1.54,2.59.04.84.62,1.65.96,2.47,1.31,3.18,2.63,6.36,3.92,9.54,1.04,2.57,2.09,5.14,3.06,7.74.65,1.74,1.1,3.55,1.74,5.29.42,1.15,1.01,2.23,1.53,3.34.14.3.42.61.4.91-.1,1.51.88,2.51,1.56,3.68.56.96.76,2.14,1.1,3.23.19.59.18,1.32.53,1.77.71.9.88,1.95,1.19,2.97.05.17.03.4.14.52.97,1.08,1.14,2.5,1.61,3.79.29.8.5,1.63.75,2.45.01.04,0,.09.03.11,1.55,1.2,1.47,3.16,1.96,4.77.42,1.38,1.25,2.58,1.49,4.04.18,1.15.83,2.22,1.3,3.41-.9.69-1.66,1.36-2.5,1.89-.88.55-1.86.96-2.78,1.45-.81.43-1.67.77-2.09,1.73-.21.48-.68.4-1.02.03-.1-.11-.16-.25-.22-.39-.9-2.22-2.16-4.31-2.51-6.73-.22-1.57-1.33-2.73-1.81-4.18ZM160.86,329.51c-.64-.65-1.51-1.08-2.28-1.6-.15-.11-.35-.19-.44-.34-1.12-1.68-2.45-3.24-2.63-5.4-.06-.69-.39-1.36-.61-2.04-.05-.14-.17-.27-.18-.41-.1-1.74-.21-3.47-.28-5.21-.02-.56.06-1.12.09-1.68,0-.04-.01-.08,0-.11.75-1.93.93-4.1,2.41-5.73.09-.1.24-.16.26-.16.57.27,1.03.62,1.51.67.51.05,1.05-.2,1.61-.33.83-.64,1.07-1.54.92-2.57-.05-.32-.13-.66-.29-.92-.51-.85-.41-1.61.4-2.09,1.32-.79,2.7-1.49,3.98-2.34.93-.62,1.98-.68,2.97-.8,1.35-.16,2.57-.4,3.35-1.46.73-.13,1.35-.35,1.96-.32,1.39.05,2.83-.13,4.01.99,1,.94,2.26,1.62,3.17,2.63.88.97,1.62,2.15,2.1,3.37.28.73.39,1.42,1.06,1.98.39.32.56.93.27,1.56-.16.36-.2.87-.07,1.24.26.77.11,1.34-.56,1.75-.71.44-1.34,1.07-2.27,1.07-.2,0-.47.09-.6.23-1.65,1.78-4.15,2.54-5.55,4.63-.16.24-.64.27-.98.4-1.01,1.81-2.33,3.37-4.13,4.4-.07.42-.03.85-.21,1.11-.91,1.28-1.88,2.51-2.82,3.76-.2.27-.39.56-.58.83-.59.87-1.14,1.77-1.79,2.59-.26.33-.72.55-1.13.73-.96.42-1.82.46-2.67-.41ZM164.09,425.44c-1.1.53-2.28.88-3.44,1.27-.35.12-.74.08-1.11.14-.68.12-1.4.17-2.03.41-.7.27-1.32.35-2.06.11-.79-.26-1.68-.21-2.44-.51-2.69-1.06-5.4-2.03-7.46-4.3-.87-.96-1.44-2.06-2.23-3.04-.61-.75-1.22-1.55-1.61-2.42-.99-2.17-2.49-4.18-2.18-6.8.08-.72-.11-1.47-.17-2.11.55,0,1.05-.01,1.54,0,.14,0,.35.05.42.15.84,1.35,2.11.36,3.1.71.6.27,1.19.59,1.8.81,1.22.43,2.45.83,3.69,1.19.29.08.65-.01.95-.11.58-.18,1.06-.17,1.59.22.36.27.92.26,1.28.53.52.4.94.94,1.45,1.48.7-.65,1.64-.52,2.53.08.83.55,1.4-.19,2.24-.34.29.23.58.47.91.73,1.23-.54,2.25.28,3.34.65.7.24,1.35.65,2.06.83,1.82.46,3.66.83,5.49,1.22.23.05.5.02.73-.03.59-.13,1.11-.1,1.52.37-.76,1.95-2.18,3.31-3.73,4.57-.92.75-1.87,1.49-2.63,2.38-.96,1.12-2.35,1.25-3.55,1.83ZM184.39,418.92c-.16.28-.48.49-.58.79-.51,1.41-1.12,2.71-2.79,3.08-.16.04-.33.2-.42.34-.87,1.42-2.28,2.09-3.7,2.8-1.2.59-2.3,1.39-3.44,2.11-.38.24-.73.53-1.07.82-.43.36-.84.57-1.24-.03-.4.33-.62.65-.91.74-1.34.39-2.7.75-4.07,1.04-.68.14-1.07-.12-1.5-.74.99-.6,1.75-1.69,3.18-1.29.4-.75.84-1.45,1.78-1.54,1.17-1.42,3.12-1.88,4.15-3.53.48-.77,1.4-1.26,2.48-2.18.28-.69.65-1.97,2.51-1.53.43-.83.84-1.65,1.28-2.51,1.79-.3,3.03-.18,4.85.54-.17.37-.31.75-.51,1.1ZM271,413.98c-.23.14-.24.66-.34.97-1.16,1-2.29,2.03-3.48,2.99-.36.29-.85.54-1.3.58-1.13.11-1.85.82-2.63,1.5-.72.63-1.49,1.24-2.33,1.68-1.32.68-2.7,1.24-4.06,1.82-1.35.58-2.84,1.13-3.9,2.32-.15.17-.44.26-.68.32-1.09.29-2.17.66-3.27.82-1.32.2-2.67.24-4.01.34-.86.06-1.74.21-2.58.1-.98-.13-1.97-.41-2.88-.79-.91-.38-1.74-.96-2.59-1.48-.22-.13-.45-.34-.53-.57-.46-1.41-1.79-2.05-2.68-3.07-.56-.65-1.13-1.29-1.64-1.97-.48-.63-.28-2.16.26-2.72.27-.28.49-.62.8-1.01-.03,0,.05-.04.11-.03,1.59.48,3.18.38,4.76-.01.18-.04.39-.11.54-.06.8.28,1.31-.05,1.54-.58,1.65-.1,3.17-.21,4.69-.28,1.51-.07,3.03-.08,4.54-.13.29-.01.58-.13.87-.14.43-.01.88-.05,1.28.07.7.21,1.31.27,2.06,0,.88-.32,1.87-.37,2.82-.49.76-.1,1.53-.11,2.29-.17.93-.07,1.87-.25,2.8-.19,1.62.1,3.06-.69,4.62-.81.15-.01.32-.04.43-.13.99-.74,2.16-.47,3.25-.59.5-.05,1-.1,1.5-.11.2,0,.4.11.6.18-.1.63-.21,1.21-.85,1.6ZM271.18,351.25c.55,1.55,1.39,2.99,2.1,4.48.08.17.22.32.26.5.38,1.78,1.46,3.26,2.15,4.9.21.51.29,1.08.49,1.6.7,1.89,1.49,3.76,2.1,5.68.5,1.61.72,3.3,1.19,4.92.46,1.6,1.35,3.11,1.56,4.73.3,2.32,1.34,4.38,1.84,6.61.38,1.73.8,3.44,1.21,5.16.14.58.28,1.17.47,1.74.88,2.62,1.39,5.3,1.4,8.07,0,.33,0,.71-.15.99-.43.82-.91,1.63-1.43,2.4-.18.27-.57.4-.86.59-.33-.52-.55-.84-.72-1.11-.65.29-1.19.54-1.73.78-.07-.05-.13-.09-.2-.14-.14.49-.35.97-.4,1.46-.14,1.52-.65,1.9-2.3,1.53-.1-1.09-.82-1.85-1.85-1.87-1.22-.02-2.48.28-3.29,1.58.35.6.72,1.23,1.2,2.03-1.89.46-3.6,1.06-5.41,1.33-1.77.26-3.66.34-5.26,1.03-1.72.75-3.63.35-5.34,1.29-.71-.1-1.52-.29-2.34-.3-1.11-.01-2.22.07-3.32.19-1.51.16-3.01.4-4.51.56-.44.05-.89-.08-1.33-.1-1.34-.05-2.68-.13-4.02-.09-.66.02-1.3.3-1.96.41-1.28.21-2.59.3-3.85.58-3.52.78-7.06-.21-10.57.17-1.48.16-2.95.43-4.43.59-.66.07-1.34,0-2.01,0-.6,0-1.2-.01-1.8.03-1.9.13-3.83.08-5.67.47-1.85.39-3.63-.1-5.45.08-2.88.28-5.78.32-8.66.5-.37.02-.73.28-1.08.31-1.34-.06-2.67-.12-4.01-.18-1.95-.09-3.9-.18-5.85-.25-1.34-.05-2.69-.03-4.03-.11-1.22-.07-2.47-.12-3.65-.4-.41-.1-.67-.84-1-1.28,0-.09.02-.17.03-.26-.77.1-1.58-.16-2.27.55-.2.21-.7.14-1.06.19-.4.05-.8.08-1.19.19-1.22-.32-2.34-.89-3.75-.71-.9.11-1.9-.36-2.83-.65-1.32-.42-2.58-1.2-3.91-1.31-2.09-.16-3.85-1.34-5.9-1.5-1.26-.1-2.5-.38-3.75-.59-.11-.02-.27-.02-.32-.09-.9-1.24-2.39-.98-3.6-1.44-.27-.1-.59-.19-.87-.15-2.39.33-4.33-.75-6.11-2.09-1.22-.92-2.25-2.07-2.63-3.67-.21-.89-.63-1.74-.79-2.64-.1-.53.03-1.13.19-1.66.39-1.29.06-2.46-.31-3.69-.41-1.38-.57-2.84-.86-4.26-.09-.43-.24-.85-.39-1.4.33-.35.7-.76,1.09-1.17-.08-1.35.45-2.57.98-3.79.13-.31.18-.65.3-.96.23-.57.51-1.13.75-1.7.11-.27.17-.57.29-.84.21-.5.43-.99.66-1.49.35-.76.71-1.52,1.07-2.28.27-.57.55-1.13.84-1.69,1.06-2.03,2.13-4.08,3.53-5.89,1.12-1.44,1.54-3.09,2.02-4.77.15-.51.6-.93.89-1.41.71-1.19,1.41-2.38,2.1-3.57.33-.57.7-1.12.94-1.73.64-1.64,1.87-2.95,2.45-4.65.39-1.14,1.18-2.14,1.76-3.22.57-1.07,1.08-2.18,1.65-3.25.58-1.09,1.19-2.17,1.79-3.24.09-.16.25-.29.33-.46,1.1-2.12,2.14-4.28,3.32-6.35.68-1.19,1.61-2.24,2.42-3.36.81-1.13,1.59-2.28,2.41-3.4.97-1.33,1.99-2.62,2.96-3.95.37-.51.81-1.04.96-1.62.18-.72.61-1.06,1.19-1.38.48-.26.91-.62,1.33-.96.52-.42,1.01-.87,1.52-1.3.75-.65,1.49-1.31,2.27-1.92.51-.4,1.15-.65,1.63-1.08,1.3-1.19,3.38-1.1,4.28-2.72,1.77.08,3.07-.49,3.73-1.59.74.37,1.4.26,1.99-.4.17-.19.69-.33.89-.21.96.57,1.64.17,2.31-.54,1.05.44,1.62-.45,2.46-.9,1.22.76,2.33-.24,3.54-.38.5-.06.94-.1,1.47-.03.96.12,1.9-.39,2.52-1.01.86.28,1.65.59,2.46.77.43.09.92-.06,1.38-.07,2.09-.06,4.19-.1,6.28-.19.51-.02,1.02-.22,1.34-.3,1.32.13,2.49.23,3.64.36.55.06,1.16.06,1.62.31.95.51,1.81.24,2.81-.09.82.87,1.91.85,3.07.79.72-.04,1.52.05,2.17.34.65.29,1.15.89,1.7,1.34,1.58,0,3.18,0,4.78,0,.18,0,.37-.04.55-.01,1.12.2,2.23.41,3.34.65.27.06.52.26.77.41.83.51,1.6,1.12,2.68,1.03.28-.02.61.2.88.38.41.27.79.6,1.32.79.08.28.16.56.26.93.29.08.64.13.92.28.37.19.76.41,1.03.72.48.54.98.92,1.69,1.19,1.68.65,3.12,1.71,4.23,3.18.41.54.86,1.04,1.32,1.54,1.29,1.4,2.62,2.77,3.88,4.21.42.48.68,1.11,1.05,1.64.5.66,1.09,1.28,1.49,2,.72,1.31,1.32,2.68,2,4.01.19.36.48.67.73.99.16.21.48.39.49.59.07,1.11.96,1.63,1.55,2.38.36.46.56,1.04.8,1.59.48,1.14.94,2.28,1.41,3.42.04.1.08.25.16.29,1.08.47.95,1.48,1.14,2.39.37,1.73.74,3.47,1.33,5.12ZM285.1,319.65c-.29.93-.57,1.86-.95,2.75-.22.5-.65.9-.96,1.37-1.36,2.02-3.12,3.64-4.95,5.23-1.62,1.42-3.05,3.06-4.58,4.58-.56.55-1.16,1.06-1.77,1.55-.16.13-.4.2-.61.21-.81.06-1.61.08-2.62.12-.72-.86-1.56-1.81-2.32-2.82-.21-.28-.16-.75-.27-1.33-1.78-.64-1.51-2.71-2.35-4.14-.27-.47-.62-.89-.93-1.33-.33-.47-.64-.96-1.01-1.4-.48-.56-1.01-1.08-1.52-1.62-.28-.3-.56-.61-.87-.88-.53-.48-1.08-.95-1.72-1.51-.35-.48-.71-1.19-1.27-1.68-1.49-1.3-3.07-2.5-4.61-3.75-.3-.24-.55-.55-1-1,1.86-.26,1.54-1.9,2.24-2.84.14-.19-.02-.65-.11-.97-.31-1.1-.07-2.05.66-2.93.24-.29.37-.71.47-1.09.18-.68.46-1.14,1.19-1.48.66-.31,1.13-1.05,1.68-1.59.39-.39.8-.76,1.2-1.14.21-.2.4-.43.59-.64.15-.17.28-.47.44-.48,1.4-.15,2.4-1.35,3.89-1.37.63,0,1.29-.62,2.05-.58.66.04,1.33.07,1.99.12.37.03.74.11,1.11.15.22.02.47-.05.67.02,1.19.46,2.47.56,3.67.94.44.14.82.46,1.4.8.49-.07,1,.17,1.65.58,1.52.96,2.81,2.2,4.27,3.22.57.4,1.05.94,1.47,1.49.89,1.16,1.77,2.33,2.53,3.57.42.68.61,1.51.88,2.28.15.42.18.89.35,1.3.88,2.1.66,4.19,0,6.28ZM362.96,256.12c-.29,1.51-1.55,2.28-2.68,3.14-1.79,1.35-3.61,2.68-5.46,3.96-.51.35-1.18.47-1.75.74-.59.28-1.15.63-1.68,1.02-1.33.12-2.23.87-3.25,1.75-1.42,1.22-2.94,2.54-5.06,2.58-.38,0-.75.43-1.12.69-.27.19-.5.44-.77.62-1.68,1.1-3.4,2.13-5.04,3.29-.84.59-1.47,1.48-2.31,2.06-1.31.91-2.69,1.71-3.7,2.98-.11.14-.3.23-.48.29-2.13.71-3.82,2-5.1,3.84-.14.2-.38.42-.6.48-1.78.44-3.05,1.66-4.39,2.78-.2.17-.42.46-.62.45-1.05-.03-1.43.84-2.04,1.42-.43.41-.82.95-1.34,1.17-1.97.85-3.49,2.28-4.97,3.75-.21.21-.41.52-.66.58-1.29.33-2.14,1.27-3.1,2.08-.37.3-.84.48-1.2.79-.73.64-1.59,1.15-1.99,2.1-.08.19-.26.41-.44.49-1.93.8-3.48,2.08-4.9,3.6-.7.75-1.5,1.38-2.45,1.89-.96.52-1.73,1.39-2.59,2.1-.23.19-.48.43-.76.47-1.31.22-2.02,1.2-2.83,2.08-.3.32-.72.53-1.27.92-.45-1.03-.8-1.83-1.21-2.74-.69-.56-1.45-1.27-1.73-2.4.93.08,1.65.09,2.05-.87.11-.26.6-.37.92-.54.42-.22.89-.39,1.27-.66.7-.5,1.19-1.26,2.19-1.42.45-.07.85-.68,1.21-1.08.89-.99,2.03-1.59,3.12-2.31,1-.66,2.21-1.39,2.66-2.71.01-.03.05-.05.13-.12h1.17c.9-.83,1.87-1.74,2.85-2.63.13-.12.31-.24.48-.27,1.36-.23,2.37-.88,3.14-2.07.39-.6,1.13-1.17,1.81-1.33.76-.18,1.05-.73,1.36-1.18.44-.64.98-.94,1.66-1.21.78-.32,1.53-.79,2.19-1.32,1.72-1.38,3.34-2.88,5.08-4.24.71-.56,1.48-1,1.96-1.82.11-.19.44-.24.65-.39.6-.42,1.18-.89,1.79-1.29.92-.61,1.86-1.2,2.8-1.78.18-.11.53-.07.62-.21.59-.98,1.42-1.62,2.48-2.02.37-.14.7-.52,1.07-.55.95-.07,1.57-.64,2.17-1.26.8-.82,1.76-1.27,2.85-1.6,1.53-.47,3.05-1.01,4.15-2.34.28-.33.83-.44,1.38-.71.31-.71.75-1.47,1.88-.92.23-.31.43-.58.63-.84.04.07.08.14.11.21.67-.27,1.36-.52,2.01-.83.9-.43,1.78-.9,2.65-1.4.29-.17.56-.44.75-.71.44-.63.85-1.12,1.77-1.12,1.16,0,2.17-.67,3-1.41.72-.64,1.5-.78,2.42-.83.35-.75.99-1.01,1.79-1.28,1.32-.44,2.52-1.26,3.8-1.84.98-.45,1.79-1.02,2.44-1.9.23-.32.87-.35,1.35-.52q.26,1.46-2.33,2.38ZM365.83,253.55c.05-.41.09-.73.14-1.13,1.13-.22,1.96-1.27,3.24-1.01.15,1.24-1.41,2.26-3.38,2.14ZM377.1,247.5c-1.87.05-3.72.7-5.59.19-.98-.27-1.92-.68-2.78-1.16-.57-.45-1.17-.86-1.7-1.35-.64-.59-1.22-1.26-1.73-1.8.28-1.28.51-2.34.76-3.4.17-.7.34-.85,1.65-1.58.79.37,1.22,1,1.37,1.89.23,1.39,1.6,3.05,2.89,3.6.55.24,1.08.52,1.61.81,1.48.81,2.94,1.68,4.92,1.39-.3.91-.74,1.38-1.41,1.4ZM386.34,236.84c-.1.4-.14.82-.27,1.21-.21.62-.32,1.36-.74,1.8-1.05,1.12-2.25,2.1-3.4,3.13-.05.05-.12.09-.19.11-1.92.53-3.84,1.19-5.75-.02-.16-.1-.33-.26-.49-.26-2.05,0-2.8-1.67-3.82-2.97-.37-.47-.62-1.04-1.01-1.49-2.1-2.39-1.97-5.05-.98-7.82.06-.17.16-.36.3-.46,1.18-.84,2.36-1.68,3.55-2.49,1.76-1.2,3.64-.82,5.52-.42.18.04.34.17.52.22,1.42.38,2.84.75,4.26,1.13,1.07.29,1.92.83,2.2,2,.31,1.34.63,2.68.95,4.03-.23.82-.44,1.56-.63,2.31ZM406.53,185.94c-.31.6-.58,1.23-.81,1.86-.63,1.68-1.9,2.95-2.79,4.46-.73,1.25-1.3,2.6-1.94,3.9-.17.34-.31.68-.51,1-1.02,1.57-2.12,3.1-3.08,4.7-.68,1.14-1.2,2.39-1.79,3.59-.05.1-.06.25-.14.3-1.44.94-1.29,2.76-2.2,4.01-.49.68-.66,1.58-1.03,2.35-.23.47-.56.88-.85,1.32-.15.22-.36.4-.46.64-1.08,2.44-2.11,4.91-3.24,7.33-.29.62-.76,1.23-1.29,1.64-.61.47-1.46.4-1.99-.13-1.08-1.07-2.25-1.85-3.8-1.94-.21-.01-.42-.16-.66-.26-.53-1.21-.39-2.25.35-3.26.28-.38.39-.89.59-1.33.25-.53.51-1.06.78-1.58.07-.13.28-.23.28-.34,0-1.9,1.51-3.12,2.13-4.75.43-1.14,1.16-2.16,1.76-3.23.72-1.27,1.43-2.55,2.16-3.81.34-.58.74-1.12,1.09-1.68.16-.25.4-.52.41-.78.02-1,.5-1.72,1.06-2.52.74-1.05,1.25-2.27,1.82-3.44.72-1.46,1.38-2.95,2.11-4.41,1.33-2.68,2.53-5.44,4.08-7.98,1.03-1.69,1.73-3.55,2.86-5.18,1.16-1.67,1.79-3.58,2.6-5.42.46-1.04,1.13-1.99,1.69-2.95,1.3,0,2.57.01,3.84,0,.71-.01,1.46-.44,2,.48.36.62.84,1.12.73,1.94-.04.3.2.73.44.97.6.58.59,1.18.26,1.85-.84,1.74-1.68,3.48-2.56,5.2-1.27,2.5-2.59,4.97-3.87,7.46ZM412.13,186.73c-.24.22-.63.29-.94.42-.46-.69-.24-1.25.12-1.67.73-.85,1.25-1.75,1.3-2.89,0-.04,0-.08.02-.11.63-1.29,1.24-2.58,1.89-3.86.37-.74.79-1.45,1.21-2.16.33-.56.72-1.08,1.21-1.83.89,1.17.82,2.15.63,3.15-.11.59-.34,1.17-.38,1.76-.1,1.81-1.02,3.19-2.22,4.42-.92.95-1.87,1.87-2.85,2.77ZM422.25,182.36c-.27,2.37-.92,4.67-3.56,6.04-1.18-.16-2.57.82-4.19.62.13-1.06.61-1.74,1.42-2.15,1.4-.71,2.4-1.85,3.46-2.98,1.23-1.31,1.46-2.87,1.56-4.5.07-1.12-.12-2.26.62-3.25.11-.15.05-.43.07-.65.1-.02.19-.03.29-.05,1.33,2.21.6,4.61.34,6.91Z"/>
    <path class="cls-1" d="M265.68,372.2c0-.07-.06-.14-.08-.21-.22-1.09-.43-2.19-.66-3.32-1.09-1.56-2.49-3.07-2.78-5.15-.17-1.17-1.03-2.2-.68-3.48.03-.11-.09-.28-.18-.4-.82-1.16-.86-2.46-.67-3.83-1.12-.61-1.28-1.73-1.48-2.85-.22-1.29-.41-2.61-1.74-3.38-.27-.15-.42-.69-.43-1.06-.03-.69-.16-1.28-.48-1.92-.49-.97-.71-2.06-1.1-3.08-.44-1.17-.82-2.38-1.45-3.45-.35-.61-.81-1.12-.94-1.85-.04-.25-.35-.48-.58-.65-.56-.4-1.15-.75-1.75-1.12-.99-.17-2.05-.36-3.11-.52-.32-.05-.75-.1-.96.06-.67.52-1.38.41-2.12.32-.36-.04-.75-.04-1.1.04-.65.15-1.28.39-1.92.58-.02-.06-.04-.12-.07-.19-.23.33-.47.65-.57.8-1.86.18-3.55,1.02-5.2-.19-.34.75-.9.97-1.64.61-.09-.04-.22-.04-.32-.03-.73.05-1.63-.15-2.15.2-.8.55-1.53.15-2.27.27-.61.1-1.23.3-1.82-.18-.16-.13-.52-.07-.77,0-.96.24-1.82,0-2.5-.4-.47.15-.81.34-1.16.36-1.65.06-3.31,0-4.95.13-2.38.19-4.75.51-7.12.78-.18.02-.35.15-.53.17-.73.07-1.56.36-2.17.12-1.21-.48-2.42-.53-3.65-.48-1.65.06-3.3.24-4.92.36-.54.68-1.05,1.32-1.57,1.98-.68-.34-.81-1.27-1.75-1.34-.69-.05-1.34-.57-2.04-.78-.49-.15-1.13-.32-1.54-.13-1.06.47-2.01.13-3.02-.06-.46-.09-.97-.13-1.42-.04-1.17.24-2.32.57-3.71.92-.02.02-.18.3-.43.43-1.69.88-2.31,2.4-2.58,4.15-.12.79-.07,1.67-.77,2.05-.18.88-.27,1.52-.45,2.14-.52,1.8-1.03,3.6-1.63,5.37-.54,1.62-1.19,3.2-1.88,5.02-.36.15-.86.49-.59,1.31.05.17-.08.47-.22.62-.66.68-.61,1.59-.82,2.41-.09.36-.17.73-.27,1.08-.12.44-.27.87-.39,1.25-.19.33-.54.66-.5.93.21,1.65-.28,3.18-.94,4.58-.54,1.16.04,2.58-1,3.56-.06.05,0,.22,0,.33-.16,1.07-.21,2.18-.5,3.22-.37,1.33-.57,2.66-.24,3.99.15.6.52,1.22.96,1.66.71.71,1.56,1.28,2.35,1.91.28.14.65.1,1.01.03.95-.19,1.9-.53,2.86-.55,1.22-.02,2.45.29,3.68.31.94.02,1.99.81,2.75-.28,1.58.85,3.1,1.66,4.71,2.53.2,0,.65-.14.9.02,1.54,1.03,3.42.83,5.08,1.42.31.11.83-.42,1.17-.33.93.24,1.69-.1,2.5-.4.25-.09.57-.02.85,0,.89.07,1.86.4,2.65.16.98-.3,1.85-.32,2.82-.16.41.07.9-.19,1.33-.35.48-.18.97-.65,1.4-.59,2.24.28,4.49-.4,6.72.11.14.03.29,0,.44,0,1.03-.04,2.07-.09,3.1-.13.44-.02,1.02.15,1.3-.06.65-.5,1.34-.41,2.04-.46,1.65-.11,3.18.63,4.87.48,2.11-.19,4.26-.03,6.39-.06.51,0,1.01-.15,1.51-.23.92.38,2.26-.3,3.01.83.84,0,1.45.47,2.07.95.1.08.34-.02.59-.05-.29-.56-.55-1.04-.88-1.68,2.68-.76,5.15-1.46,7.57-2.14.5-.54.61-1.48,1.66-1.29.13.37.25.71.43,1.21.7-.13,1.37-.25,2.13-.39.1.07.31.21.55.38.3-.45.54-.83.8-1.2.27-.39.55-.77.81-1.13,1.01.13.97.03,2.22-.45.53-.2.92-.43,1.31-.81.4-.39.89-.41,1.31,0,.43.42.86.39,1.32.08.45-.3.91-.58,1.27-.81,2.38.37,4.16-.47,5.44-2.25,0-1.09.27-2.17-.07-3.02-.44-1.1-.82-2.12-.67-3.3ZM242.37,341.97c.05-.24.45-.46.73-.59.48-.23,1-.38,1.74-.65.49.2.43.67.18,1.14-.22.42-.52.81-1.1.24-.16.97-.58,1.65-1.74,2.03.06-.82.05-1.51.19-2.16ZM182.62,353.54c.76-1.83,1.6-3.63,2.38-5.45.19-.44.28-.92.48-1.57,1.49-1.49,1.76-1.5,1.93-2.45.85-.26,1.68-.64,2.53-.72.6-.06,1.24.3,1.66.42.88.31,1.55.55,2.43.86-1.93,3.16-2.75,6.56-3.69,9.93h-7.7c-.01-.28-.15-.7-.03-1.01ZM184.43,375.26c-.48.91-.44,2.11-.58,3.19-.14,1.04-.94,1.49-1.71,1.94-.18.11-.54-.09-.74-.12-1.22.62-2.42,1.12-3.73,1.02-.6.28-1.16.53-1.78.81-.53-.89-.86-1.64-.43-2.53.05-.1.12-.21.12-.31-.06-2.59,1.06-4.97,1.38-7.5.12-.99.46-1.95.68-2.83,1.63.07,3.03.18,4.42.17.78,0,1.39.26,1.94.74.38.33.73.71,1.2,1.18-.38,1.31-.01,2.81-.78,4.25ZM185.85,366.74c-1.01-.13-2.03-.14-3.03-.28-.4-.05-.78-.3-1.2-.48-.58.06-1.27.24-1.93.19-.98-.08-1.28-.43-1.11-1.4.14-.86.5-1.7.8-2.53.35-.97.76-1.91,1.14-2.87.05-.14.1-.29.18-.4.6-.81,1.2-1.62,1.78-2.39,1.43.34,2.83.66,4.23,1,.22.05.53.08.61.23.45.76.95,1.53,1.22,2.36.14.42-.17.99-.29,1.49-.1.4-.24.78-.33,1.18-.22.98-.38,1.98-.64,2.96-.18.68-.63,1.06-1.43.95ZM245.97,373.3c.45.77.65,1.46,1.73,1.35.34,2.8-1.56,4.4-3.04,6.29-.26-.16-.52-.25-.68-.43-.74-.79-1.42-1.64-2.2-2.38-.67-.64-1.46-1.15-2.18-1.74-.35-.29-.79-.57-.94-.96-.47-1.21-1.57-1.75-2.43-2.56-1.36-1.3-2.58-2.74-3.88-4.1-.32-.34-.68-.66-1.08-.89-.82-.46-1.58-.9-2.18-1.71-.72-.99-1.69-1.8-2.53-2.71-.5-.55-.96-1.14-1.51-1.8h-.79c-.05-.42-.1-.78-.16-1.28-.45-.11-.94-.24-1.31-.33-1.1-.98-2.11-1.9-3.13-2.81-.17-.15-.37-.26-.54-.41-1.6-1.35-3.17-2.74-4.81-4.05-.87-.69-1.87-1.21-2.77-1.85-.39-.28-.7-.68-1.2-1.19-.6-.18-1.43-.43-2.54-.77-.44-.33-.7-1.52-1.97-1.26.02.2-.02.41.05.46.73.54,1.51,1.02,2.21,1.59.87.71,1.64,1.52,2.51,2.22.83.68,1.75,1.25,2.6,1.92.84.67,1.64,1.39,2.46,2.08.25.21.52.4.79.59.32.23.65.45.96.69.12.09.18.31.29.33,1.39.3,1.84,1.67,2.83,2.44.97.75,1.7,1.86,2.74,2.45,1.14.65,1.72,1.98,3.07,2.3.19.05.44.24.5.42.26.76.86,1.17,1.46,1.62.55.41,1.09.81,1.37,1.57.2.54.79,1.11,1.56.81.83.97,1.58,1.91,2.4,2.79.48.52,1.04.97,1.6,1.4,1.02.8,2.06,1.48,2.77,2.71.63,1.08,1.87,1.8,2.83,2.68.72.66,1.46,1.3,2.14,1.99.22.22.29.57.48.97-.81.35-1.5.75-2.24.94-1.6.4-3.23.66-4.84,1.01-.71.16-1.15-.07-1.47-.7-.43-.85-.86-1.7-2.02-1.7-.13,0-.29-.1-.39-.2-1.9-1.78-3.7-3.65-5.42-5.61-.83-.94-1.84-1.71-2.77-2.57-.87-.8-1.97-1.34-2.47-2.54-.2-.49-.66-.89-1.06-1.28-.89-.87-1.79-1.72-2.72-2.55-.17-.15-.49-.13-.62-.33-.74-.76-1.44-1.58-2.25-2.26-1.03-.87-2.15-1.61-3.22-2.44-.26-.2-.44-.51-.66-.76-.2-.23-.36-.5-.6-.67-1.71-1.14-3.2-2.51-4.67-3.95-.97-.95-2.24-1.59-3.38-2.38-.6-.41-1.19-.84-1.79-1.26-.07.08-.14.15-.21.23.43.5.86,1.01,1.29,1.51.42.48.85.96,1.45,1.63.26.2.75.54,1.21.93,1.33,1.13,2.65,2.28,3.97,3.43.88.76,1.75,1.52,2.63,2.26.28.24.6.43.91.64.28.19.6.33.84.56.99.97,1.96,1.96,2.94,2.95.48.49.96.98,1.36,1.54,1.99,1.06,3.3,2.83,4.73,4.5.41.47.9.95,1.45,1.2,1.18.53,1.86,1.48,2.48,2.52.21.34.55.61.85.89.92.87,1.82,1.75,2.77,2.58.78.69,1.62,1.32,2.43,1.99.32.26.61.54.93.82,0,.56-.17.82-.78.84-2.7.1-5.4.33-8.1.35-1.79,0-3.19-.9-4.05-2.54-.1-.2-.19-.42-.35-.57-.88-.81-1.77-1.6-2.66-2.4-.48-.44-1.17-.68-1.31-1.44-.03-.16-.21-.38-.36-.41-1.58-.28-2.42-1.49-3.37-2.59-.41-.47-.99-.79-1.48-1.19-1.27-1.05-2.56-2.08-3.77-3.2-.75-.7-1.35-1.55-2.02-2.33-.11.04-.21.08-.32.13.03.31-.04.7.12.92.71.99,1.35,2.02,2.37,2.77.6.44,1.02,1.12,1.52,1.69.07.08.11.23.19.27,1.62.71,2.53,2.3,3.97,3.23.37.23.67.57,1,.87.22.2.4.5.66.59,1.04.33,1.63,1.02,1.75,1.96,1.71.7,2.81,1.87,3.85,3.3-.41.19-.66.38-.94.41-1.37.18-2.82.11-4.11.54-1.57.53-3.04.48-4.62.26-.86-.12-1.78.2-2.79.34-.15-.13-.29-.35-.48-.41-2.09-.69-3.74-2-5.22-3.58-.73-.77-1.78-1.24-2.19-2.32-.05-.14-.28-.22-.44-.31-.42-.26-.91-.44-1.26-.77-1.04-.98-2.01-2.02-3.03-3.02-.15-.15-.43-.16-.72-.26-.18,1.66,1.02,2.37,1.88,3.24.76.76,1.59,1.45,2.28,2.3.25.03.5.06.8.1.21,1.49,1.68,1.83,2.48,2.79.51.61,1.29,1,1.93,1.51.27.22.48.5.77.8-.27.2-.41.39-.56.4-2.63.2-5.32.88-7.88.29-1.88-.44-4.1-.18-5.65-1.82.1-.45.2-.88.32-1.38-1.59-.19-1.19-1.84-2.03-2.65-.27.04-.56.09-.98.15-.27-1.75.3-3.37.51-5,.22-1.64.66-3.26,2-4.55-.78-1.24-.18-2.42.15-3.6.31-1.11.81-2.17,1.21-3.26.12-.32.26-.63.31-.96.22-1.42.6-2.78,1.22-4.09.63-1.31.55-1.35,2.17-1.1.69-1.32,1.41-2.71,2.17-4.17-.7-1.03.07-2.1.11-3.19.05-1.41,1.86-1.13,2.36-2.32-.05-.25-.13-.61-.22-1.04.28-.3.61-.61.88-.96.28-.38.57-.77.75-1.21.38-.96.64-1.1,1.71-1.21.82-.09,1.62-.39,2.42-.6.38.25.71.47,1.05.7,0-.07,0-.15-.01-.22.69-.14,1.38-.27,2.06-.42.17-.04.33-.18.5-.21.58-.1,1.17-.29,1.73-.21.68.09,1.32.43,1.77-.37.45.23.77.39.94.48,1.8-.31,3.42-.81,5.11-.27.27.09.64.21.85.09,2.08-1.08,4.28-.71,6.46-.64.21,0,.43-.02.64-.07.64-.15,1.22-.22,1.76.35.2.21.77.34,1.02.21,1.2-.65,2.34-.29,3.51.03,0-.08,0-.16,0-.23.81-.02,1.63-.1,2.44-.04.51.03,1.06.18,1.49.44s.87.66,1,1.09c.18.59.41.84,1,.68.2.86,1.05,1.54.45,2.34.85,1.26,1.62,2.43,1.8,3.48.56,1.24.96,2.14,1.36,3.03.08.17.11.39.24.5.8.73,1.07,1.73,1.31,2.69.66,2.58,1.21,5.19,1.82,7.78.08.35.26.69.4,1.03.11.29.21.58.34.86.14.28.28.59.5.81.51.5.86,1.02.67,1.79-.07.27.03.59.08.88.27,1.54.55,3.08.88,4.92-.87-.19-1.45-.31-2.3-.49ZM250.06,364.33c-.22-.64-.39-1.29-.56-1.95-.11-.44-.2-.86.32-1.19.25-.16.35-.55.53-.87,1.6.2,2.85-.74,4.35-1.33-.09-.72-.08-1.4-.28-2.02-.1-.32-.51-.68-.84-.77-.83-.21-1.69-.28-2.54-.37-.89-.1-1.64.25-2.31.83-.2.17-.51.22-.87.36-.23-.53-.52-.94-.61-1.4-.34-1.7-1.11-3.22-1.75-4.8-.39-.97-.91-1.89-1.25-2.87-.41-1.18-.26-1.42.84-1.92.44-.2.93-.34,1.33-.6.6-.4,1.15-.9,1.87-1.48-.04,0,.17.02.37.04.3-.49.06-1.72-.41-2.21-.67-.71-1.71-.86-2.69-.35-.11-.51.05-.84.48-1.12,1.11-.73,2.49-.53,3.28.63.59.86.96,1.88,1.57,2.73.64.88,1.18,1.73,1.05,2.87-.02.13.06.3.14.42.61.93,1.24,1.84,1.86,2.77.1.15.23.33.23.49,0,1.66,1.04,2.94,1.57,4.4.44,1.23.89,2.47,1.31,3.71.23.67.61,1.37.58,2.04-.07,1.59.34,3.03.92,4.46.58,1.42,1.2,2.81,1.78,4.22.18.43.3.88.45,1.32-.08.06-.16.12-.23.19-.51-.28-1.02-.55-1.53-.83-.32-.18-.64-.36-.97-.53l-.02.04c-.45.26-.91.49-1.34.78-.2.14-.32.52-.5.54-1.04.14-1.69.93-2.51,1.42-.36.22-.83.28-1.3.44-.16-.32-.33-.54-.37-.77-.35-2.51-1.14-4.89-1.96-7.27ZM260.23,378.45c-1.45.49-2.87,1.07-4.46.91-.29-.03-.66.13-.89.33-.88.72-1.98.73-2.99,1.03-.09.03-.21-.05-.42-.1-.26-1.04.18-2.02.32-3.03.27-1.96,1.48-2.87,3.36-3.15,1.12-.17,2.28-.36,3.32-.8.8-.33,1.65-.81,1.98-1.8.1-.29-.11-.87.52-.85h-.01s.05,0,.05,0l-.02-.02c.12.14.33.27.35.42.18,1.33.32,2.67.48,4.01.08.7.19,1.4.3,2.28-.63.26-1.25.55-1.9.77Z"/>
    <path class="cls-1" d="M241.98,369.66c-.16-.07-.26-.27-.38-.41-.84-.97-1.65-1.97-2.54-2.9-.62-.65-1.36-1.19-2.01-1.82-1.01-.97-1.99-1.98-2.98-2.97-.49-.49-.98-.98-1.7-1.7-.92-.27-2.86-2.05-3.19-3.15-.44-.12-.87-.23-1.31-.35-1.69-1.73-3.07-3.62-5.19-4.72-.35-.18-.62-.51-.93-.77-1.04-.87-2.07-1.73-3.11-2.59-.06-.05-.13-.07-.2-.09-1.15-.42-2.07-1.38-3.38-1.47-.24-.02-.46-.35-.68-.54-.28-.25-.53-.57-.86-.72-.24-.1-.58.03-.98.07.58.58.97,1.02,1.41,1.39,1.72,1.44,3.71,2.53,5.43,3.98.65.54,1.38.99,2,1.55.69.62,1.22,1.42,1.95,1.99,1.08.84,2.34,1.45,3.4,2.32,1.24,1.03,2.34,2.23,3.65,3.49.19.07.72.12,1.04.41.87.77,1.63,1.65,2.46,2.46,1.25,1.22,2.53,2.41,3.8,3.6,1.14,1.07,2.4,2.02,3.23,3.4.2.34.67.65,1.06.71.67.09.96.47,1.26.98.28.48.61.96,1.01,1.33.24.22.67.25,1.01.36.02-.38-.04-.58-.17-.68-1.16-.93-1.64-2.53-3.11-3.17Z"/>
    <path class="cls-1" d="M196.73,369.2c-.71.54-.28,1,0,1.3.77.82,1.61,1.58,2.44,2.34.22.2.49.38.76.47,1.31.42,2.47,1.05,3.34,2.15.2.25.52.43.8.61.96.62,2.08,1.03,2.63,2.17.17.34.55.61.87.84.71.51,1.45.98,2.33,1.56.08-.02.39-.08.67-.14,1.02,1.83,1.32,2.02,2.31,1.38-1.15-1.69-2.86-2.56-4.69-3.47-.11-.4-.25-.91-.38-1.4-.34-.15-.71-.22-.93-.44-1.27-1.26-3.02-1.91-4.14-3.35-.15-.2-.42-.32-.65-.44-.61-.3-1.29-.5-1.84-.89-1.21-.86-2.36-1.8-3.53-2.71Z"/>
    <path class="cls-1" d="M198.67,363.13c0,.23-.05.38,0,.44.68.88,1.35,1.77,2.1,2.59.14.16.61.02,1.03.02-1.06-1.85-1.82-2.57-3.14-3.06Z"/>
    <path class="cls-1" d="M192.65,368.24c.23.63.42,1.17.63,1.73.51-.3.94-.55,1.47-.86-.35-.48-.65-.89-1.07-1.46-.4.23-.7.4-1.03.6Z"/>
    <path class="cls-1" d="M203.63,368.02c-.12-.85-.6-1.4-1.41-1.96q.5,2.08,1.41,1.96Z"/>
    <path class="cls-1" d="M225.26,345.88c.63.22,1.27.43,1.91.64.04-.05.09-.1.13-.15-.35-.21-.73-.4-1.06-.65-.35-.28-.65-.63-.97-.95-.54.5-.54.92,0,1.11Z"/>
    <path class="cls-1" d="M234.3,352.66c-.44-1.29-.84-1.7-1.91-1.91.72.61.78,1.61,1.91,1.91Z"/>
    <path class="cls-1" d="M236.89,354.93c-.39-.56-.73-1.05-1.07-1.55-.1.02-.21.04-.31.06-.02.27-.16.67-.04.8.33.34.52,1.04,1.41.69Z"/>
    <path class="cls-1" d="M238.65,357.02c.01-.81-.27-1.24-.93-1.4.17.49-.09,1.27.93,1.4Z"/>
    <path class="cls-1" d="M237.72,355.6l-.02.02s.01,0,.02,0c0,0,0-.02,0-.03Z"/>
    <path class="cls-1" d="M196.03,360.84c-.12.08-.24.17-.36.25.2.27.4.55.6.82.09-.06.17-.12.26-.18-.17-.3-.33-.59-.5-.89Z"/>
    <path class="cls-1" d="M199.66,351.5c-.16-.4-.33-.79-.49-1.18-.23.62.04.96.49,1.18Z"/>
    <path class="cls-1" d="M200.14,351.74l.24.26.02-.02c-.08-.09-.16-.17-.24-.26-.16-.07-.31-.13-.46-.2-.01,0-.02-.01-.03-.02,0,.01.01.03.02.04.16.07.31.13.46.2Z"/>
  </g>
  <path class="cls-1" d="M116.53,168.34c-.84.16-1.61.3-2.42.45-1.85-1.61-1.8-2.17.5-3.6.89.26,1.99.23,2.41,1.41.22.62.06,1.12-.49,1.74Z"/>
</svg>