<?xml version="1.0" encoding="UTF-8"?>
<svg id="Livello_1" data-name="Livello 1" xmlns="http://www.w3.org/2000/svg" viewBox="0 0 274.41 274.41">
  <defs>
    <style>
      .cls-1 {
        fill: #000;
      }

      .cls-1, .cls-2 {
        stroke-width: 0px;
      }

      .cls-2 {
        fill: #fff;
      }
    </style>
  </defs>
  <path class="cls-1" d="M189.64,169.56c-.51.21-.68.62-.8,1.16-.25,1.15-.41,2.32-1.01,3.38-.24.43-.34.94-.57,1.59-.5.54-1.15,1.21-1.58,2.08-.28.57-.81,1.02-1.32,1.64.04.28.1.68.18,1.17-.22.58-.45,1.26-.36,1.99.01.11,0,.25-.06.35-.29.58-.32,1.2-.29,1.84-.11.24-.23.48-.34.72.11.67.21,1.33.33,2.1-.24.6-.4,1.31-.37,2.07.02.43-.18.88-.14,1.31.09.98.2,1.95.18,2.93,0,.17.1.33.1.32-.15,1.67-.28,3.17-.42,4.83.03.2.1.58.16.93-.2.33-.36.6-.54.89.4.68.48,1.46.73,2.17.34.95.18,1.74-.13,2.63-.25.72-.19,1.53.1,2.29-.35.87-.39,1.78-.39,2.7,0,.5-.12.99-.18,1.49-.18.21-.35.41-.51.6.22.4.43.78.64,1.15l-.09.07c.35.24.69.49,1.07.75-.07.13-.12.23-.2.37-.12-.03-.22-.06-.33-.09-.3.15-.61.3-1.05.51-.14.52-.31,1.14-.49,1.82-.26.21-.56.45-.89.71-.12.29-.25.62-.33.79-.94.63-1.75,1.18-2.55,1.72.02.04.04.08.06.11-.26.03-.52.06-.83.09-.55.59-1.12,1.24-2.18,1.01-.22.3-.46.61-.66.88-.29-.06-.45-.1-.54-.12-.79.43-1.51.82-2.33,1.27-.24-.08-.57-.19-1.03-.34-.78,0-1.38.72-2.11,1.04-.52-.08-.99-.15-1.37-.21-.39.23-.69.41-.89.53-1.27.02-2.44-.12-3.45.57-.8-.18-1.57-.36-2.38-.54-.39.22-.81.45-1.29.71.02,0-.04.03-.09,0-.72-.25-1.48.08-2.2-.16-.67.32-1.33-.1-1.99-.02-.32.04-.64.08-.88.11-.9-.17-1.73-.32-2.57-.48-1.53-.29-2.96-.76-3.89-2.17-.24.08-.47.15-.71.22-.27-.08-.56-.16-.92-.27-1.1-1.31-2.05-2.81-2.73-4.13-.17-.95-.31-1.61-.41-2.28-.06-.38-.1-.77-.08-1.15.03-.93-.13-1.82-.29-2.66.1-.73.19-1.4.29-2.06.14-.9.29-1.8.44-2.7.03-.2.07-.41.1-.61.06-.47.06-.95.2-1.4.17-.56.17-1.11.17-1.67,0-1.05-.01-2.09,0-3.14,0-.32.07-.64.12-1.06-.04-.36-.1-.83-.14-1.14.44-1.18.77-2.22.74-3.34-.03-1.38,0-2.75,0-4.05-.23-.65-.43-1.24-.7-2.02-.16-.13-.47-.39-.82-.68-.1-.26-.22-.56-.28-.71-.61-.57-1.11-1.02-1.59-1.49-.42-.42-.87-.73-1.38-.62-.67-.47-1.26-.87-1.88-1.3-.31.05-.62.12-.94.17-.17.03-.37.1-.52.04-.88-.3-1.78-.1-2.65-.17-1.13.69-2.41.83-3.74,1.17-.51.56-1.34.62-2.11.79-.53.12-.91.33-1.2.81-.21.35-.56.62-.85.92-.52.15-1.09.23-1.18.86-.55.26-1.03.49-1.59.76-.27.53-.89.54-1.5.67-.43.49-.97.89-1.6,1.2-.28.14-.49.44-.76.6-1.13.65-2.25,1.32-3.43,1.88-.57.27-1.25.33-1.97.5-.25.29-.4.87-1.05.83-.38.69-.89,1.19-1.62,1.49-.24.1-.44.29-.65.45-.24.18-.47.36-.68.52-.31-.07-.56-.12-.85-.18-.54.58-1.22.82-1.95.75-1.1.47-2.15.92-3.24,1.39-.15-.04-.35-.13-.55-.13-.43,0-.81-.11-1.17-.35-.23-.16-.54-.26-.82-.27-.31-.01-.59-.07-.81-.26-.72-.63-1.71-.8-2.49-1.45-.1-.25-.22-.55-.33-.81-.32-.13-.59-.24-.74-.3-.68-.86-1.23-1.68-1.91-2.37-.66-.67-.97-1.54-1.52-2.27-.12-.16-.24-.34-.34-.52-.23-.41-.5-.81-.66-1.25-.39-1.07-.37-1.08-1.36-1.99-1.41.17-2.64-.37-3.84-1.26-.35.03-.78.14-1.17-.19-.5-.43-1-.85-1.16-1.52-.13-.54-.23-1.05-.04-1.65.21-.65.18-1.38.27-2.12.81-1.01.89-1.28.82-2.84-1.78-2.31-1.73-1.9-2.65-2.26-.43.07-.84.14-1.18.19-.32-.15-.56-.26-.8-.38-.72.02-1.44-.36-2.1,0-1-.52-1.23-1.6-1.99-2.22-.26-1.7.24-3.17,1.18-4.48v-.98c.34-.69.66-1.39.55-2.17.25-.44.49-.85.69-1.2.14-.99-.03-1.85-.55-2.69.06-.44.12-.9.2-1.55-.21-.58-.49-1.32-.73-2.08-.22-.7-.52-1.37-.81-2.04-.24-.56-.59-.91-1.11-1.06-.89-.26-1.72-.62-2.48-1.14-.09-.06-.21-.11-.32-.14-.81-.28-1.62-.55-2.69-.91-.33.02-.95.06-1.57.09,0,.04,0,.08,0,.12-1.58-.47-3.15-.96-4.73-1.4-.52-.14-.9-.42-1.27-.78-.38-.37-.77-.74-1.19-1.07-.22-.18-.52-.26-.77-.41-.28-.16-.53-.35-.66-.43-.16-.6-.24-1.03-.38-1.44-.13-.39-.32-.76-.48-1.16.2-.54.29-1.09.07-1.69.48-.56.93-1.18,1.06-2.07.18-.14.42-.32.57-.43.25-1.18,1.11-1.73,1.83-2.39.59-.54,1.26-.97,2.01-1.3.21-.09.44-.26.52-.46.22-.52.54-.91,1.04-1.17.15-.08.27-.23.38-.33.13-1.05,1.3-1.57,1.15-2.65.99-.7,1.04-1.81,1.4-2.77.35-.92.4-1.9.47-2.87.02-.28-.07-.58-.11-.88.18-.22.35-.42.6-.73-.1-1.05-.21-2.19-.35-3.61.1-.34.27-.97.46-1.64-.09-.13-.21-.3-.32-.47v-.89c-.12-.26-.23-.5-.36-.76.04-.72-.12-1.46.16-2.19.07-.18.05-.42.02-.62-.1-.67-.23-1.33-.36-2.08.1-.31.23-.7.38-1.14-.72-1.02-.7-2.15-.36-3.32.08-.28.13-.57.15-.86.07-.8.07-1.6.2-2.39.12-.78.35-1.55.55-2.31.06-.23.21-.43.33-.66-.05-.54.09-1.02.44-1.48.26-.34.47-.74.48-1.23.01-.31.2-.61.34-1.01v-1.16c.48-1.19.93-2.31,1.36-3.43.09-.24.08-.53.07-.79-.03-.64.06-1.24.32-1.77-.03-.27-.13-.52-.07-.73.26-1.03.56-2.04.84-3.06.09-.34.16-.69.26-1.1.75-.9.63-2.05.64-3.34.23-.32.54-.75.89-1.23,0-.37-.03-.82,0-1.27.03-.41.02-.87.21-1.21.4-.75.48-1.65,1.15-2.28.15-.14.23-.44.23-.66-.02-.51.24-.92.45-1.34.61-1.22,1.18-2.45,1.63-3.75.13-.38-.05-.87.36-1.16.32-1.33,1.41-2.25,1.86-3.5.04-.11.11-.21.17-.31.49-.7.95-1.41,1.3-2.21.41-.95,1.02-1.79,1.69-2.59.3-.36.55-.77.85-1.14.26-.32.53-.68.87-.9.43-.27.74-.56.85-1.07.04-.16.16-.32.28-.45.57-.64,1.16-1.27,1.72-1.92.27-.31.49-.67.75-.99.34-.41.7-.81,1.06-1.22.22-.04.42-.07.7-.11.68-.56,1.4-1.18,2.14-1.77.46-.37,1.03-.42,1.58-.51.92-.15,1.8-.43,2.52-.98.54-.41,1.1-.67,1.79-.86.09-.17.21-.37.36-.64.33-.12.71-.27,1.12-.42.23.14.45.28.69.43.36-.38.7-.74,1.03-1.09.55.13,1.06.26,1.59.39.49-.98,1.27-1.29,2.33-1.11.7-.36,1.43-.74,2.17-1.11.26-.13.54-.24.82-.33.28-.09.58-.13.85-.25.27-.12.51-.3.85-.51.2.02.48.05.83.09.81-.36,1.7-.76,2.73-1.22.07,0,.33.01.57-.06.59-.18,1.16-.42,1.78-.53.72-.12,1.44-.31,2.16-.44.51-.09,1.03-.09,1.53-.19.58-.11,1.14-.29,1.71-.44.09-.02.17-.06.26-.07,1.04-.07,2.07-.12,3.11-.2.35-.03.7-.1,1.05-.14.21-.02.43-.07.62-.02.92.24,1.89.1,2.79.42.16.06.37.13.51.09,1.09-.34,2.2-.06,3.28-.17.19.13.36.25.51.35,1.11.14,2.11-.32,3.17-.42.36.15.73.31,1.11.45.24.09.49.25.75.02.05-.05.18-.04.26-.02,1.02.34,2.08.06,3.1.25.69.15,1.37.33,2.06.43.3.04.64-.15.95-.14.83.02,1.67-.16,2.48.15,1.03-.14,1.97.38,2.98.38.2,0,.39.11.59.16.26.07.52.19.77.18.93-.04,1.71.39,2.55.68,1.06.37,2.01.98,3.06,1.32,1.16.37,2,1.24,3.09,1.7.27.12.45.46.76.78.44.13,1.01.3,1.63.49.24.57.76.84,1.38,1.06.58.21,1.09.6,1.67.93.52.71,1.12,1.4,1.91,1.91.12.08.22.2.33.3.93.84,1.87,1.66,2.77,2.52.57.54,1.08,1.15,1.55,1.79,1.14,1.02,2.28,2.05,3.45,3.1.03.24.06.5.09.75.07.04.12.09.17.09.77,0,1.32.3,1.5,1.1.02.08.08.16.15.29.2.09.44.2.76.34,0,0,.05.06.09.14.32.62.62,1.26.96,1.87.09.17.29.3.47.38.74.33,1.4.77,1.95,1.36.26.28.47.61.71.92.12.16.21.38.37.5.85.65,1.43,1.55,2.15,2.31.24.25.57.41.9.64.02.18.04.42.06.72.15.12.32.3.53.39.46.2.78.51,1.03.95.15.27.46.45.62.72.18.29.27.64.39.91.88.92,1.73,1.81,2.58,2.71.14.15.25.32.37.49.17.24.27.55.5.7.45.3.63.69.61,1.14.07.09.1.16.15.19.55.33.86.81,1.13,1.41.44.96,1.06,1.84,1.64,2.82-.1.12-.27.31-.42.5.2.64.9.71,1.19,1.2q.05.65-.26,1.12c-.29,1.21.7,1.69,1.2,2.29.43,1.08.81,2.04,1.18,3,.11.27.18.56.27.84.07.22.11.47.23.66.23.35.47.67.51,1.11.03.38.14.75.25,1.11.27.99.54,1.98.8,2.98.23.88.19,1.82.53,2.68.14.35.25.71.41,1.17-.21.25-.29.62-.07,1.09.35.76.48,1.59.39,2.43-.03.29-.09.58-.12.79.14,1.32.28,2.58.43,3.93-.39,1.16.1,2.33.4,3.59-.16.45-.63.93-.25,1.38-.1,1.07-.2,2.01-.28,2.95-.03.3.02.6-.03.89-.05.29-.19.56-.22.64.02.87.14,1.56.02,2.21-.09.49-.14.92.04,1.38.03.08,0,.18,0,.3-.17.21-.36.44-.58.71.13.23.25.46.4.72v1.4c-.11.24-.23.49-.35.76v3.37c-.23.47-.46.92-.7,1.42v.85c-.12.27-.25.54-.38.84.06.21.13.43.2.67-.46.71-1.28,1.11-1.61,1.95.16.48.32.98.5,1.51-.76.93-1.02,2.03-.85,3.19-.35.22-.64.4-.83.53-.11.74-.19,1.35-.27,1.91-.23.18-.39.3-.57.44.07.22.13.41.21.67-.26.57-.54,1.19-.88,1.96-.08.6-.39,1.27-.86,1.9-.5.68-.68,1.46-.63,2.38-.17.19-.39.43-.65.72-.02.18-.04.42-.06.65l-.07-.03c-.21.45-.42.9-.62,1.34-.1.21-.17.44-.29.65-.41.72-.84,1.43-1.24,2.16-.44.79-.83,1.61-1.34,2.37-.17.25-.18.61-.29,1.05-.81.48-.59,1.42-.64,2.29-.54.32-1.06.64-1.59.95.08.98-.2,1.75-.74,2.47-.22.29-.28.7-.46,1.16ZM107.65,52.09c-.35.37-.6.65-.87.92-.45.45-1.02.65-1.62.84-1.06.33-2.1.75-3.13,1.19-.78.34-1.59.69-1.93,1.45-.86.58-1.73.71-2.65.62-.6.31-1.22.59-1.81.93-.53.31-1.05.68-1.54,1.05-.25.19-.49.43-.64.7-.39.66-.86,1.2-1.45,1.36-1.44,1.96-2.78,3.79-4.21,5.74-.06.4-.28.91-.64,1.36-.18.23-.33.49-.47.75-.6,1.18-1.18,2.37-1.79,3.55-.12.23-.34.41-.51.62-.06.07-.11.14-.17.21-.03.27-.06.53-.08.67-.34.62-1.11.71-1.18,1.4.13.31.25.6.41.97-.66.89-.93,1.99-1.62,2.88-.15.19-.25.5-.24.74.05.82-.26,1.5-.73,2.13-.15.21-.35.48-.34.7.06.88-.19,1.7-.39,2.53-.2.86-.44,1.71-.71,2.55-.13.41-.35.8-.5,1.14.11.35.21.63.29.89-.95,1.76-1.35,3.62-1.28,5.66-.55.43-.76,1.15-1.04,1.81.08.34.16.66.19.8-.27.61-.49,1.05-.67,1.52-.09.24-.07.53-.14.78-.23.79-.49,1.57-.72,2.36-.19.65-.35,1.31-.55,2.08-.2.17-.47.41-.74.65.33.61-.12,1.09-.24,1.68.29.4.2.86-.01,1.3-.26.55-.28,1.16-.11,1.66.22.68.09,1.21-.23,1.75.06.14.15.25.15.36.02.36,0,.72,0,1.05.14.3.26.57.44.94-.12.43-.27.93-.41,1.45.29.46.65.91.73,1.52-.12.28-.25.57-.34.77.13,1.04.25,1.97.35,2.8-.17.38-.28.65-.41.94.24.58.48,1.15.73,1.72.08.88-.14,1.78.25,2.76-.65.74-.26,1.76-.54,2.67.32.77-.14,1.3-.62,1.89.05.32.12.7.18,1.12-.47.9-1.09,1.78-1.34,2.84-.04.16-.18.3-.27.45-.12.2-.24.39-.35.6-.35.64-.69,1.3-1.05,1.94-.2.36-.51.67-.67,1.04-.42.94-1.16,1.54-2,2.07-.3.19-.66.34-.86.61-.36.5-.86.81-1.36,1.11-.57.34-1.06.74-1.4,1.32.05.14.1.27.13.36-.18.45-.42.85-.48,1.28-.06.41.07.84.13,1.38,1.24.69,2.59,1.35,3.98,2.02h1.37c.3.13.57.25.73.32,1.18.1,2.25.18,3.34.27.78.39,1.6.78,2.41,1.2.84.43,1.67.89,2.5,1.33.12.28.23.55.34.8.92.16,1.24.38,1.65,1.2.38.77.72,1.56,1.46,2.03.07,3.46.18,3.16.72,4.36.08,1.31-.25,2.68.58,3.86-.15.31-.27.58-.4.83.1,1.21-.27,2.24-.94,3-.14.55-.15.99-.35,1.33-.33.58-.77,1.1-1.25,1.75.19.14.43.25.56.44.27.39.59.58,1.09.64.63.07,1.25.3,1.88.46,0,.02,0,.05-.01.07h.92c.85.51,1.71,1.03,2.51,1.52.29,1.09,1,1.85,1.67,2.72.08.26.21.6.29.94.06.23.13.48.08.69-.11.57-.28,1.12-.42,1.64-.29.31-.56.59-.81.85.25.62.22,1.2-.01,1.84.21.07.4.2.58.18.77-.06,1.4.17,1.76.58,1.02.27,1.84.49,2.61.69.23.57.53.94.99,1.22.33.21.69.48.74.96,0,.1.11.21.2.29.91.83,1.45,1.95,2.16,2.92.38.51.7,1.09.5,1.8-.04.13.1.32.15.48.16.02.27.04.39.05.58.03,1.04.25,1.27.81.27.66.8,1.01,1.43,1.27.25.1.52.15.74.28.81.48,1.66.35,2.5.15.56-.13,1.05-.41,1.44-.84.08-.09.18-.15.26-.21.23.06.42.11.64.17.39-.24.75-.5,1.15-.69.73-.35,1.3-1.07,2.21-1.02.08,0,.16-.06.24-.11.78-.44,1.55-.87,2.32-1.31.26-.28.52-.56.8-.87.33.07.7.28.93.18.81-.32,1.29-1.16,2.18-1.33.03,0,.04-.04.07-.06.7-.48,1.39-.97,2.1-1.45.27-.18.52-.35.87-.4.33-.05.66-.26.95-.47.58-.41,1.12-.87,1.69-1.31.49-.37.99-.73,1.39-1.03.34.07.53.11.73.15.5-.54,1.14-.9,1.45-1.58.08-.17.28-.31.46-.4.74-.37,1.49-.71,2.28-1.08h.87c.63-.67,1.52-.81,2.47-.72.11,0,.23-.06.34-.1,1.02-.33,2.11-.21,3.15-.43.14-.03.3-.03.45,0,.97.22,1.95.44,3,.69.38-.29.8-.11,1.25.11.67.31,1.34.6,1.93,1.06.27.21.61.34.93.49.38.18.75.34.94.77.09.21.31.36.47.54.52.56,1.23.93,1.63,1.62.07.12.21.21.34.28.5.27.78.69.96,1.22.18.53.43,1.03.72,1.68-.06.52-.14,1.19-.21,1.79.17.25.29.41.37.54-.05.26-.17.48-.11.65.28.8.26,1.58.16,2.43-.15,1.26,0,2.55-.22,3.82-.13.72-.18,1.47-.38,2.17-.15.56-.22,1.09-.09,1.54-.31.59-.57,1.11-.81,1.57.14.55.26,1,.37,1.42-.12.34-.22.64-.3.89.05.29.11.52.13.75.13,1.82-.19,3.63-.18,5.44,0,.06,0,.13-.02.18-.29.52-.15,1.04.03,1.52-.2.36-.38.68-.55.99.56.65.59.76.74,1.55.09.49.12,1.06.4,1.43.28.37.26.75.41,1.19.54.41,1.34.6,1.6,1.33.81.15,1.07.21,1.61.62.9.68,1.87.83,2.94.5.39.18.79.37,1.15.54.46-.13.85-.24,1.25-.35.92-.25,1.8-.26,2.66.24.21.12.51.08.74.12.25-.21.45-.38.63-.53.39.05.78.22,1.08.13.68-.21,1.36-.13,2.04-.15.83-.02,1.63-.06,2.46-.28.94-.25,1.95-.17,2.89-.6.53-.24,1.14-.26,1.71-.41.88-.24,1.73-.64,2.69-.5.23-.2.45-.4.68-.57,1.04-.77,1.96-1.7,3.2-2.22.92-.39,1.67-1.03,1.99-2.18,0-.26-.05-.66.01-1.04.06-.37.25-.73.34-1.1.09-.37.17-.75.17-1.13.02-1.8.02-3.59,0-5.39,0-.54.03-1.07.26-1.57.14-.32.12-.62.04-.95-.12-.45-.26-.92-.27-1.38-.01-1.19-.1-2.36-.36-3.53-.03-.14-.05-.32,0-.44.24-.54.13-1.12.16-1.68.06-1.04.12-2.07.18-3.11,0-.03,0-.06,0-.09.24-.79.22-1.56.01-2.36-.1-.36-.11-.8,0-1.16.19-.62.12-1.24.15-1.86,0-.18-.02-.37.02-.54.28-1.07.13-2.18.33-3.26.13-.66.17-1.34.27-2.17,0-.02-.06-.22-.08-.43-.05-.54-.02-1.08.2-1.58.36-.8.25-1.69.51-2.5.13-.42.26-.85.35-1.28.1-.46.15-.92.22-1.39.35-.3.66-.61.79-.99.14-.37.1-.8.13-1.11.47-.29.84-.52,1.2-.74.16.04.31.08.48.12.05-.28.08-.48.11-.64.82-.85.76-.87,1.24-2.06.42-1.04.87-2.08,1.7-2.91.03-.12.07-.27.11-.41.35-1,1.02-1.85,1.38-2.84.09-.25.25-.47.35-.71.12-.3.2-.62.34-.91.5-1.03,1.01-2.06,1.53-3.08.21-.42.39-.87.68-1.23.44-.54.75-1.12.92-1.79.12-.46.36-.88.46-1.34.19-.81.55-1.5,1.14-1.94.38-1.07.62-2.1,1.11-2.99.52-.94.39-2.11,1.19-2.94-.08-.61.08-1.17.55-1.61v-.82c.3-.43.58-.87.68-1.34.08-.39.2-.74.38-1.08.12-.24.26-.47.35-.72.23-.67.44-1.34.7-2.13.06-.31.11-.76.25-1.17.21-.62.35-1.25.34-1.91,0-.32.11-.63.16-.95.07-.44.17-.87.18-1.31.03-.77-.03-1.54.18-2.3.1-.37.18-.75.18-1.13,0-1.71.06-3.41.36-5.1.11-.64.14-1.29.19-1.94.06-.77-.03-1.53.14-2.31.14-.68.14-1.46-.04-2.13-.25-.92-.04-1.81-.09-2.71.37-.62.04-1.21-.06-1.81-.03-.2-.12-.4-.11-.6.04-.86-.14-1.72.15-2.58.07-.2-.03-.46-.08-.69-.2-.83-.52-1.65-.58-2.49-.07-.95-.34-1.85-.52-2.78-.11-.58-.36-1.14-.38-1.72-.03-.81-.18-1.59-.4-2.35-.35-1.18-.65-2.38-1.33-3.46-.38-.6-.73-1.3-.63-2.05-.18-.32-.45-.59-.49-.88-.06-.5-.35-.88-.5-1.32-.23-.67-.42-1.35-.62-2.02-.08-.25-.13-.51-.24-.75-.12-.3-.32-.56-.42-.87-.23-.68-.54-1.3-1.15-1.75-.18-.14-.27-.44-.34-.69-.05-.19-.01-.41-.01-.53-.62-.73-1.28-1.33-1.71-2.06-.41-.7-.88-1.33-1.43-1.92-.4-.42-.75-.92-.87-1.53-.01-.05-.07-.09-.11-.14-.24-.13-.47-.26-.67-.37-.06-.18-.09-.33-.17-.45-.23-.38-.47-.75-.72-1.12-.15-.22-.31-.43-.48-.64-.24-.3-.48-.6-.74-.89-.22-.24-.45-.48-.69-.7-.31-.28-.66-.51-.95-.8-.72-.75-1.41-1.54-2.13-2.29-.95-.98-1.93-1.94-2.88-2.89-.85-1.83-1.28-2.64-3.47-4.06-.5-.75-.91-1.38-1.31-1.98-.24.05-.41.08-.53.1-1.42-1.07-2.72-2.18-3.5-3.64-.91-.29-1.11-.42-1.53-.92-.61-.72-1.21-1.43-1.82-2.15-.43-.18-.82-.44-1.21-.69-.27-.18-.54-.36-.83-.52-.47-.25-.91-.53-1.33-.89-.37-.32-.86-.49-1.31-.72-.68-.35-1.37-.7-2.06-1.03-.66-.32-1.24-.82-2.02-.79-.81-1-1.96-1.34-3.19-1.74-.51.08-1.04-.15-1.45-.52-.52-.03-1,.04-1.41-.11-.42-.16-.77-.52-1.17-.8-.13.05-.27.15-.4.15-1.42-.05-2.86.2-4.28-.14-.37-.09-.75-.16-1.13-.19-1.06-.07-2.13-.12-3.15-.18-.21-.15-.38-.26-.4-.27-1.19.06-2.22.12-3.64.19-.82-.09-2.03-.47-3.21-.22-.46-.17-.87-.33-1.28-.49-.5.27-.97.51-1.41.74-1.31-.6-2.65-.92-4.12-.86-.29.25-.64.48-1.1.31-.14-.16-.29-.33-.48-.54-.38.26-.72.49-1.15.79-.37-.08-.84-.17-1.3-.27.02-.13.03-.18.03-.24,0-.02-.05-.03-.07-.04-.72-.11-.98.54-1.42.88-.75-.08-1.48-.15-2.16-.22-1.02.84-2.16.95-3.34.95-.18.17-.36.33-.55.5-.22.01-.46.03-.69.04-.22.18-.42.35-.54.45-1.02.1-1.94.18-2.9.27-.64.35-1.31.72-1.79.98-1.34.09-2.47.17-3.57.24Z"/>
  <path class="cls-1" d="M184.97,208.49c.23.21.42.39.63.59v.92c-.43.41-.89.83-1.35,1.26-.05-.16-.12-.35-.19-.57.24-.3.56-.58.72-.94.15-.36.13-.8.2-1.27Z"/>
  <path class="cls-1" d="M103.9,234.74c.05.14.11.29.16.43-.06.02-.12.04-.18.06-.04-.15-.08-.3-.12-.45.04-.01.09-.03.13-.04Z"/>
  <path class="cls-1" d="M203.39,88.92c.09-.11.18-.21.26-.32.04.03.07.05.11.08-.08.12-.15.25-.23.37-.05-.04-.09-.09-.14-.13Z"/>
  <path class="cls-1" d="M213.78,148.23c0,.18.02.36.03.55-.04,0-.08,0-.12,0v-.55s.06,0,.09,0Z"/>
  <path class="cls-1" d="M183.28,232.55c-.23.22-.31.29-.41.38-.13-.1-.2-.15-.4-.31.31-.03.44-.04.81-.08Z"/>
  <path class="cls-1" d="M201.7,214.72c-.07-.06-.14-.12-.22-.18.02-.03.04-.06.06-.09l.23.16s-.05.07-.08.1Z"/>
  <path class="cls-1" d="M179.38,60.25c.07-.07.15-.14.22-.2.03.03.05.06.08.09-.08.07-.15.13-.23.2-.02-.03-.05-.06-.07-.08Z"/>
  <path class="cls-1" d="M225.06,222.35l.2.22s-.06.05-.09.08c-.07-.08-.13-.15-.2-.23.03-.02.06-.05.08-.07Z"/>
  <path class="cls-1" d="M183.61,232.62c.01.12.03.23.04.35-.04,0-.07,0-.11.01-.02-.12-.03-.23-.05-.35.04,0,.08,0,.12-.01Z"/>
  <path class="cls-1" d="M212.45,112.86c.11.06.06.03,0,0,.06-.01.13-.03,0,0Z"/>
  <polygon class="cls-1" points="212.11 98.91 212.08 98.85 212.14 98.86 212.11 98.91"/>
  <polygon class="cls-1" points="226.66 222.72 226.68 222.78 226.62 222.77 226.66 222.72"/>
  <path class="cls-2" d="M107.65,52.09c1.1-.08,2.23-.15,3.57-.24.48-.26,1.15-.63,1.79-.98.96-.09,1.88-.18,2.9-.27.12-.1.32-.27.54-.45.23-.01.46-.03.69-.04.19-.18.37-.33.55-.5,1.18,0,2.32-.11,3.34-.95.68.07,1.41.14,2.16.22.44-.34.7-.99,1.42-.88.03.01.07.03.07.04,0,.06-.01.11-.03.24.46.1.93.19,1.3.27.44-.3.78-.53,1.15-.79.19.21.34.38.48.54.46.16.81-.06,1.1-.31,1.47-.06,2.81.26,4.12.86.44-.23.9-.48,1.41-.74.41.16.82.31,1.28.49,1.18-.24,2.38.14,3.21.22,1.42-.07,2.45-.13,3.64-.19.01,0,.18.12.4.27,1.02.05,2.08.1,3.15.18.38.03.76.1,1.13.19,1.42.34,2.85.09,4.28.14.13,0,.27-.1.4-.15.39.28.74.65,1.17.8.4.15.88.08,1.41.11.4.37.94.6,1.45.52,1.23.41,2.39.74,3.19,1.74.78-.03,1.37.48,2.02.79.69.33,1.37.68,2.06,1.03.44.23.94.4,1.31.72.41.36.85.64,1.33.89.29.15.55.34.83.52.39.25.78.5,1.21.69.61.72,1.21,1.43,1.82,2.15.42.5.63.63,1.53.92.77,1.46,2.08,2.57,3.5,3.64.12-.02.28-.05.53-.1.4.6.82,1.23,1.31,1.98,2.19,1.42,2.61,2.23,3.47,4.06.95.95,1.93,1.91,2.88,2.89.72.75,1.41,1.54,2.13,2.29.29.3.64.53.95.8.24.22.47.46.69.7.26.29.5.59.74.89.17.21.33.42.48.64.25.37.49.74.72,1.12.07.12.1.27.17.45.2.11.43.24.67.37.04.04.1.09.11.14.12.61.47,1.1.87,1.53.56.59,1.02,1.21,1.43,1.92.43.73,1.08,1.33,1.71,2.06,0,.12-.04.34.01.53.07.24.15.55.34.69.61.45.91,1.06,1.15,1.75.1.3.3.57.42.87.1.24.16.5.24.75.21.68.39,1.36.62,2.02.15.44.44.82.5,1.32.04.3.3.57.49.88-.1.75.24,1.45.63,2.05.68,1.08.98,2.28,1.33,3.46.23.76.37,1.54.4,2.35.02.58.27,1.14.38,1.72.18.92.45,1.82.52,2.78.06.84.39,1.66.58,2.49.05.23.15.49.08.69-.29.85-.11,1.72-.15,2.58,0,.2.08.4.11.6.1.6.43,1.19.06,1.81.05.9-.17,1.79.09,2.71.18.67.19,1.45.04,2.13-.16.78-.08,1.54-.14,2.31-.05.65-.08,1.3-.19,1.94-.3,1.69-.36,3.39-.36,5.1,0,.38-.08.76-.18,1.13-.21.76-.15,1.53-.18,2.3-.02.44-.12.87-.18,1.31-.05.32-.16.64-.16.95.01.66-.12,1.29-.34,1.91-.14.41-.19.86-.25,1.17-.26.79-.47,1.46-.7,2.13-.09.25-.22.49-.35.72-.18.34-.3.69-.38,1.08-.1.48-.39.92-.68,1.34v.82c-.47.44-.63,1-.55,1.61-.79.83-.67,2-1.19,2.94-.49.89-.73,1.92-1.11,2.99-.59.43-.95,1.13-1.14,1.94-.11.46-.35.88-.46,1.34-.18.67-.49,1.25-.92,1.79-.29.36-.47.81-.68,1.23-.52,1.02-1.03,2.05-1.53,3.08-.14.29-.21.61-.34.91-.1.24-.26.46-.35.71-.36,1-1.03,1.84-1.38,2.84-.05.14-.08.28-.11.41-.83.83-1.28,1.87-1.7,2.91-.48,1.19-.42,1.21-1.24,2.06-.03.16-.06.36-.11.64-.17-.04-.32-.08-.48-.12-.36.22-.73.45-1.2.74-.03.31.01.74-.13,1.11-.14.38-.45.69-.79.99-.07.46-.12.93-.22,1.39-.09.43-.22.85-.35,1.28-.25.82-.15,1.7-.51,2.5-.22.5-.25,1.04-.2,1.58.02.2.08.4.08.43-.1.83-.15,1.51-.27,2.17-.21,1.08-.05,2.19-.33,3.26-.04.17-.02.36-.02.54-.03.62.04,1.24-.15,1.86-.11.35-.09.79,0,1.16.21.8.23,1.58-.01,2.36,0,.03,0,.06,0,.09-.06,1.04-.12,2.07-.18,3.11-.03.56.08,1.13-.16,1.68-.06.12-.04.3,0,.44.26,1.16.34,2.34.36,3.53,0,.46.15.93.27,1.38.09.33.11.63-.04.95-.22.5-.26,1.02-.26,1.57.01,1.8.02,3.59,0,5.39,0,.38-.08.76-.17,1.13-.09.37-.28.72-.34,1.1-.06.38-.01.78-.01,1.04-.32,1.15-1.08,1.8-1.99,2.18-1.23.52-2.15,1.45-3.2,2.22-.23.17-.45.37-.68.57-.96-.14-1.8.27-2.69.5-.57.15-1.19.17-1.71.41-.94.42-1.95.35-2.89.6-.83.22-1.63.26-2.46.28-.68.02-1.36-.06-2.04.15-.3.09-.69-.07-1.08-.13-.17.15-.38.32-.63.53-.23-.03-.53,0-.74-.12-.86-.5-1.74-.49-2.66-.24-.4.11-.79.22-1.25.35-.36-.17-.76-.36-1.15-.54-1.08.33-2.04.18-2.94-.5-.54-.41-.8-.47-1.61-.62-.26-.73-1.06-.92-1.6-1.33-.15-.44-.13-.82-.41-1.19-.28-.37-.31-.94-.4-1.43-.14-.8-.17-.9-.74-1.55.17-.3.35-.63.55-.99-.17-.49-.32-1-.03-1.52.03-.05.02-.12.02-.18,0-1.82.31-3.62.18-5.44-.02-.23-.08-.46-.13-.75.08-.24.19-.55.3-.89-.11-.43-.23-.88-.37-1.42.24-.46.5-.98.81-1.57-.13-.45-.06-.97.09-1.54.19-.71.25-1.45.38-2.17.22-1.27.07-2.56.22-3.82.1-.85.12-1.63-.16-2.43-.06-.16.06-.39.11-.65-.09-.13-.2-.3-.37-.54.07-.6.15-1.27.21-1.79-.28-.65-.54-1.15-.72-1.68-.18-.54-.46-.95-.96-1.22-.13-.07-.27-.16-.34-.28-.4-.69-1.11-1.06-1.63-1.62-.16-.17-.38-.33-.47-.54-.19-.43-.56-.59-.94-.77-.32-.15-.66-.28-.93-.49-.59-.45-1.27-.74-1.93-1.06-.46-.21-.87-.39-1.25-.11-1.06-.24-2.03-.47-3-.69-.14-.03-.3-.03-.45,0-1.04.22-2.13.09-3.15.43-.11.04-.23.11-.34.1-.95-.08-1.84.05-2.47.72h-.87c-.79.37-1.54.72-2.28,1.08-.18.09-.39.23-.46.4-.31.68-.95,1.04-1.45,1.58-.2-.04-.4-.08-.73-.15-.4.3-.9.66-1.39,1.03-.56.43-1.11.89-1.69,1.31-.29.2-.62.42-.95.47-.35.05-.61.22-.87.4-.7.48-1.4.97-2.1,1.45-.02.02-.04.05-.07.06-.89.18-1.38,1.02-2.18,1.33-.24.09-.6-.11-.93-.18-.28.31-.54.59-.8.87-.77.43-1.54.87-2.32,1.31-.08.04-.16.11-.24.11-.92-.05-1.48.68-2.21,1.02-.4.19-.76.46-1.15.69-.22-.06-.41-.11-.64-.17-.08.06-.18.12-.26.21-.39.43-.88.71-1.44.84-.85.2-1.69.33-2.5-.15-.22-.13-.5-.18-.74-.28-.62-.25-1.16-.6-1.43-1.27-.23-.56-.69-.78-1.27-.81-.12,0-.23-.03-.39-.05-.06-.17-.19-.35-.15-.48.2-.71-.13-1.29-.5-1.8-.72-.97-1.26-2.09-2.16-2.92-.08-.08-.19-.19-.2-.29-.05-.48-.41-.76-.74-.96-.46-.29-.76-.65-.99-1.22-.77-.2-1.59-.42-2.61-.69-.35-.41-.99-.64-1.76-.58-.18.02-.37-.11-.58-.18.23-.64.27-1.22.01-1.84.25-.26.51-.54.81-.85.14-.52.31-1.07.42-1.64.04-.22-.03-.47-.08-.69-.09-.34-.21-.68-.29-.94-.67-.88-1.37-1.64-1.67-2.72-.8-.49-1.66-1.01-2.51-1.52h-.92s0-.05.01-.07c-.62-.16-1.24-.39-1.88-.46-.5-.06-.81-.25-1.09-.64-.13-.19-.37-.3-.56-.44.47-.65.91-1.17,1.25-1.75.2-.34.21-.79.35-1.33.68-.76,1.04-1.79.94-3,.12-.25.25-.52.4-.83-.83-1.18-.49-2.55-.58-3.86-.55-1.2-.66-.9-.72-4.36-.74-.47-1.08-1.26-1.46-2.03-.4-.82-.72-1.05-1.65-1.2-.11-.26-.23-.53-.34-.8-.83-.45-1.66-.9-2.5-1.33-.81-.42-1.63-.81-2.41-1.2-1.09-.09-2.15-.17-3.34-.27-.16-.07-.43-.19-.73-.32h-1.37c-1.4-.66-2.75-1.33-3.98-2.02-.06-.54-.19-.97-.13-1.38.06-.43.3-.83.48-1.28-.03-.09-.08-.23-.13-.36.34-.58.83-.98,1.4-1.32.5-.3.99-.6,1.36-1.11.19-.27.56-.43.86-.61.84-.53,1.58-1.12,2-2.07.16-.37.47-.68.67-1.04.36-.64.7-1.29,1.05-1.94.11-.2.23-.4.35-.6.09-.15.23-.29.27-.45.25-1.06.87-1.94,1.34-2.84-.07-.42-.13-.79-.18-1.12.48-.6.94-1.12.62-1.89.28-.9-.1-1.92.54-2.67-.39-.98-.18-1.88-.25-2.76-.24-.58-.48-1.15-.73-1.72.13-.29.25-.56.41-.94-.1-.83-.22-1.76-.35-2.8.08-.19.22-.49.34-.77-.08-.61-.44-1.06-.73-1.52.15-.52.29-1.02.41-1.45-.17-.38-.3-.64-.44-.94,0-.33.01-.69,0-1.05,0-.11-.09-.22-.15-.36.32-.54.45-1.07.23-1.75-.17-.5-.15-1.11.11-1.66.21-.44.3-.9.01-1.3.11-.59.56-1.07.24-1.68.27-.24.54-.47.74-.65.2-.77.36-1.43.55-2.08.23-.79.49-1.57.72-2.36.07-.25.05-.54.14-.78.17-.47.4-.91.67-1.52-.04-.15-.11-.46-.19-.8.28-.66.49-1.37,1.04-1.81-.06-2.04.34-3.9,1.28-5.66-.08-.26-.18-.54-.29-.89.16-.34.38-.73.5-1.14.26-.84.5-1.69.71-2.55.2-.83.45-1.65.39-2.53-.01-.23.18-.49.34-.7.47-.64.77-1.31.73-2.13-.01-.24.09-.55.24-.74.69-.89.96-1.99,1.62-2.88-.15-.37-.28-.66-.41-.97.08-.69.85-.78,1.18-1.4.02-.15.05-.41.08-.67.06-.07.11-.14.17-.21.17-.2.39-.39.51-.62.61-1.18,1.19-2.37,1.79-3.55.13-.26.28-.52.47-.75.37-.45.58-.96.64-1.36,1.43-1.95,2.77-3.78,4.21-5.74.59-.15,1.06-.7,1.45-1.36.16-.27.39-.51.64-.7.49-.38,1-.74,1.54-1.05.58-.34,1.2-.63,1.81-.93.93.09,1.8-.04,2.65-.62.34-.76,1.15-1.11,1.93-1.45,1.02-.44,2.06-.86,3.13-1.19.61-.19,1.17-.39,1.62-.84.27-.27.52-.55.87-.92ZM123.68,157.13s.05-.08.08-.13c-.03.04-.05.09-.08.13-.03.04-.05.08-.08.13l.08-.13ZM89.03,136.84s.05-.09.08-.13c-.03.04-.05.09-.08.13l-.08.13s.05-.08.08-.13ZM133.74,80.59c-.48-.41-.95-.81-1.4-1.19-.72-.06-1.4-.07-1.98.33-.32.27-.64.54-.95.79,0,.27.06.51-.01.69-.38.89,0,1.77.07,2.63.09,1.23.33,2.46.31,3.71,0,.32.02.65.08.97.11.67.25,1.33.37,1.99.16.55.45,1.09.59,1.65.14.57.11,1.18.22,1.75.17.95.39,1.9.6,2.85.12.54.26,1.08.38,1.63-.03,0-.06.02-.09.02.1.21.2.43.31.66-.6.67-.09,1.58-.51,2.33.31.55.22,1.13-.02,1.7.19.66.4,1.31.55,1.96.07.28.04.6,0,.89-.06.55-.15,1.11-.22,1.66.23.3.36.61.41.92.15.96.27,1.92.4,2.9.28.37.56.75.74.99.14.49.23.83.33,1.16.1.34.28.67.3,1.01.09,1.42.13,2.85.19,4.27,0,.18,0,.36,0,.6.68.68.58,1.72,1.03,2.56-.15.17-.29.35-.5.6,1.03,1.08.64,2.47.74,3.6.96.83,1.81,1.57,2.68,2.32.8-.05.99-.2,1.09-.94.08-.57.25-1.09.6-1.55.15-.2.23-.47.35-.71-.27-.3-.51-.57-.78-.87.03-.24.07-.5.1-.76.03-.29.1-.59.07-.88-.11-.97-.26-1.93-.41-3-.3-.56-.37-1.29-.47-2.02-.14-.93-.25-1.87-.7-2.72-.06-.68-.16-1.35-.18-2.03-.03-.66-.45-1.2-.45-1.83-.11,0-.18-.01-.25-.02-.04-.9-.13-1.74-.42-2.51-.2-.07-.33-.11-.5-.17.11-.28.21-.52.24-.58v-1.35c-.12-.25-.26-.54-.4-.83.04-.8-.47-1.58,0-2.34-.26-.29-.49-.54-.7-.78.51-1.19.73-2.31-.04-3.39.13-.17.24-.32.34-.46,0-.21.05-.43,0-.62-.25-.89-.37-1.79-.33-2.72.04-.96.04-1.91-.66-2.69-.04-.04-.04-.11-.07-.2,0-.18,0-.39,0-.6.03-.72,0-1.42-.29-2.1-.15-.34-.26-.75-.23-1.11.06-.99-.24-1.86-.62-2.74-.22-.51-.42-1.02-.16-1.62.13-.29.05-.71-.04-1.05-.13-.51-.13-.99,0-1.49.1-.43.18-.86.27-1.3ZM142.62,148.92c.43-.16.94-.35,1.45-.54.12-.51.23-.96.34-1.43.21-.23.43-.48.66-.74-.08-1.58-.17-3.15-.24-4.56-.7-.55-1.26-.99-1.78-1.4-.62.27-1.18.51-1.68.73-.12.58-.22,1.09-.34,1.67-.49.34-.99.7-1.43,1-.28-.08-.44-.13-.64-.18-.16.31-.29.56-.42.82.42.91.82,1.79,1.23,2.69.33.55.68,1.12,1.05,1.73.31-.13.57-.25.85-.38.28.17.56.34.94.58ZM178.72,183.9c-.22.46.09.63.41.88.05-.43.09-.77-.41-.88ZM162.33,66.38c-.46.35-.45.61-.32.97.1-.31.18-.54.32-.97ZM192.6,87.83c-.05.06-.1.11-.15.17.08.05.15.1.23.14.01,0,.1-.1.09-.11-.04-.07-.11-.13-.16-.2ZM151.82,120.63s-.09-.09-.13-.14c-.1.09-.2.19-.3.28.03.03.06.07.09.1.12-.08.23-.16.35-.24ZM110.18,83.41s-.07,0-.11,0c0,.12.02.24.02.37.04,0,.08,0,.11,0,0-.12-.02-.24-.03-.37ZM180.21,141.58s-.07,0-.11,0c0,.12.02.24.02.37h.11c0-.13-.02-.25-.02-.37ZM137.91,73.35s.05.06.07.08c.08-.07.15-.13.23-.2-.03-.03-.05-.06-.08-.09-.07.07-.15.13-.22.2ZM162.82,65.5c-.06,0-.11-.01-.17-.02,0,.12.01.24.02.37.03,0,.07,0,.1,0,.01-.12.03-.23.04-.35ZM174.42,108.73s-.05,0-.07.01c.01.06.02.12.03.18.03,0,.05-.01.08-.02-.01-.06-.03-.12-.04-.18ZM160.25,75.68s-.03,0-.05,0v.21s.05,0,.07,0c0-.07-.02-.14-.03-.2ZM199.69,119.36s.03,0,.05,0v-.2s-.05,0-.07,0c0,.07.02.13.02.2ZM110.48,85.44l.03-.05h-.05s.02.05.02.05ZM171.36,75.49l-.03.05h.06s-.02-.05-.02-.05ZM124.13,156.9l.03-.05h-.05s.02.05.02.05ZM136.71,174.42l-.03.05h.05s-.02-.05-.02-.05Z"/>
  <path class="cls-1" d="M133.74,80.59c-.09.44-.16.87-.27,1.3-.12.5-.12.99,0,1.49.08.34.16.76.04,1.05-.26.6-.06,1.11.16,1.62.38.88.68,1.76.62,2.74-.02.37.08.77.23,1.11.3.68.32,1.38.29,2.1,0,.21,0,.42,0,.6.03.09.03.16.07.2.7.78.7,1.73.66,2.69-.04.92.07,1.83.33,2.72.05.19,0,.41,0,.62-.11.14-.21.29-.34.46.77,1.08.55,2.21.04,3.39.21.23.44.49.7.78-.47.76.03,1.54,0,2.34.14.28.28.58.4.83v1.35c-.03.06-.12.3-.24.58.17.06.3.1.5.17.29.77.38,1.61.42,2.51.07,0,.14.01.25.02,0,.63.43,1.17.45,1.83.03.68.12,1.35.18,2.03.45.85.56,1.79.7,2.72.11.73.17,1.46.47,2.02.15,1.08.3,2.04.41,3,.03.29-.04.59-.07.88-.03.26-.07.52-.1.76.27.3.51.57.78.87-.12.25-.2.51-.35.71-.35.47-.52.98-.6,1.55-.1.73-.29.88-1.09.94-.86-.75-1.72-1.49-2.68-2.32-.1-1.13.29-2.52-.74-3.6.21-.25.36-.42.5-.6-.45-.84-.36-1.88-1.03-2.56,0-.24,0-.42,0-.6-.06-1.43-.1-2.85-.19-4.27-.02-.34-.2-.67-.3-1.01-.1-.34-.19-.67-.33-1.16-.18-.24-.47-.62-.74-.99-.13-.98-.25-1.95-.4-2.9-.05-.32-.18-.62-.41-.92.08-.55.16-1.1.22-1.66.03-.3.06-.61,0-.89-.15-.66-.36-1.3-.55-1.96.25-.57.34-1.14.02-1.7.41-.75-.09-1.66.51-2.33-.11-.23-.21-.45-.31-.66.03,0,.06-.02.09-.02-.13-.54-.26-1.08-.38-1.63-.21-.95-.43-1.89-.6-2.85-.11-.58-.07-1.19-.22-1.75-.14-.57-.43-1.1-.59-1.65-.13-.66-.26-1.33-.37-1.99-.05-.32-.08-.65-.08-.97.02-1.25-.22-2.47-.31-3.71-.06-.86-.45-1.74-.07-2.63.08-.18.01-.41.01-.69.3-.25.63-.52.95-.79.58-.4,1.25-.39,1.98-.33.45.38.92.78,1.4,1.19Z"/>
  <path class="cls-1" d="M142.62,148.92c-.39-.24-.66-.41-.94-.58-.28.12-.55.24-.85.38-.37-.6-.72-1.18-1.05-1.73-.41-.9-.81-1.78-1.23-2.69.13-.26.26-.52.42-.82.2.06.36.1.64.18.44-.31.94-.66,1.43-1,.12-.58.22-1.1.34-1.67.5-.22,1.05-.46,1.68-.73.51.4,1.08.85,1.78,1.4.07,1.41.16,2.98.24,4.56-.23.26-.45.5-.66.74-.11.47-.22.92-.34,1.43-.5.19-1.02.38-1.45.54Z"/>
  <path class="cls-1" d="M178.72,183.9c.5.11.47.45.41.88-.32-.25-.63-.42-.41-.88Z"/>
  <path class="cls-1" d="M162.33,66.38c-.14.42-.22.66-.32.97-.13-.36-.14-.62.32-.97Z"/>
  <path class="cls-1" d="M192.6,87.83c.06.06.12.12.16.2,0,.02-.08.12-.09.11-.08-.04-.15-.09-.23-.14.05-.06.1-.11.15-.17Z"/>
  <path class="cls-1" d="M151.82,120.63c-.12.08-.23.16-.35.24-.03-.03-.06-.07-.09-.1.1-.09.2-.19.3-.28.04.05.09.09.13.14Z"/>
  <path class="cls-1" d="M110.18,83.41c0,.12.02.24.03.37-.04,0-.08,0-.11,0,0-.12-.02-.24-.02-.37.04,0,.07,0,.11,0Z"/>
  <path class="cls-1" d="M180.21,141.58c0,.12.02.24.02.37h-.11c0-.12-.02-.24-.02-.36.04,0,.07,0,.11,0Z"/>
  <path class="cls-1" d="M137.91,73.35c.07-.07.15-.13.22-.2.03.03.05.06.08.09-.08.07-.15.13-.23.2-.02-.03-.05-.06-.07-.08Z"/>
  <path class="cls-1" d="M162.82,65.5c-.01.12-.03.23-.04.35-.03,0-.07,0-.1,0,0-.12-.01-.24-.02-.37.06,0,.11.01.17.02Z"/>
  <path class="cls-1" d="M174.42,108.73c.01.06.03.12.04.18-.03,0-.05.01-.08.02-.01-.06-.02-.12-.03-.18.02,0,.05,0,.07-.01Z"/>
  <path class="cls-1" d="M160.25,75.68c0,.07.02.14.03.2-.02,0-.05,0-.07,0v-.21s.03,0,.05,0Z"/>
  <path class="cls-1" d="M199.69,119.36c0-.07-.02-.13-.02-.2.02,0,.05,0,.07,0v.2s-.03,0-.05,0Z"/>
  <polygon class="cls-1" points="110.48 85.44 110.46 85.38 110.51 85.39 110.48 85.44"/>
  <path class="cls-1" d="M89.03,136.84s.05-.09.08-.13c-.03.04-.05.09-.08.13,0,0,0,0,0,0Z"/>
  <path class="cls-1" d="M89.03,136.84s-.05.08-.08.13l.08-.13h0Z"/>
  <polygon class="cls-1" points="171.36 75.49 171.38 75.55 171.32 75.54 171.36 75.49"/>
  <polygon class="cls-1" points="124.13 156.9 124.11 156.85 124.16 156.85 124.13 156.9"/>
  <path class="cls-1" d="M123.68,157.13s.05-.09.08-.13c-.03.04-.05.08-.08.13h0Z"/>
  <path class="cls-1" d="M123.68,157.13l-.08.13s.05-.08.08-.13h0Z"/>
  <polygon class="cls-1" points="136.71 174.42 136.73 174.48 136.67 174.47 136.71 174.42"/>
</svg>