<?xml version="1.0" encoding="UTF-8"?>
<svg id="Livello_1" data-name="Livello 1" xmlns="http://www.w3.org/2000/svg" viewBox="0 0 489 489">
  <defs>
    <style>
      .cls-1 {
        fill: #fff;
        stroke-width: 0px;
      }
    </style>
  </defs>
  <path class="cls-1" d="M400.97,105.98h0s.02.03,0,0Z"/>
  <path class="cls-1" d="M413.06,81.5c-.18-.57-1.14-.9-1.83-1.4.24-.88-.09-1.55-1.15-2.09-.19-.09-.33-.33-.43-.53-.24-.51-.38-1.09-.69-1.54-.4-.59-.94-1.08-1.41-1.62-.7-.8-1.03-2.03-2.42-2.04-.13,0-.31-.16-.37-.29-1.07-2.3-3.14-3.53-5.12-4.87-.36-.25-.67-.56-1.01-.85l-.04.27c-1.05-.22-2.11-.44-3.16-.65,0,0-.02-.03-.02-.03-.76-1.61-1.63.49-2.47-.1.26-1.06-.12-1.53-1.29-1.64-.72-.07-1.39-.6-2.08-.92-.67.1-1.46.15-2.2.36-.65.18-1.24.57-1.87.83-.66.27-.93,1.37-1.97.9-.08-.04-.42.51-.67.82.73.08,1.26.15,1.79.21.06.13.13.25.19.38-.63.51-1.18,1.24-1.9,1.5-1.99.73-3.28,2.64-5.46,3.05-.86.16-1.64.75-2.43,1.19-.46.25-.86.64-1.33.88-.92.45-1.93.74-2.78,1.28-.7.44-1.19.43-1.89.05-.44-.24-1.27-.43-1.54-.19-1.19,1.02-2.04-.22-2.99-.39-.96-.17-1.8-.95-2.75-1.28-1.2-.42-3.41-1.51-4.46-2.15-.69-.42-1.54-.6-2.35-.77-.33-.07-.72.16-1.09.26-.03-.4-.06-.81-.1-1.35-.54-.09-1.2-.2-1.74-.29-.77-.54-1.49-1.05-2.29-1.62-.06.43-.12.81-.23,1.54-.35-.86-.44-1.64-.85-1.9-.41-.26-1.15,0-1.62.02,0-.51.05-1.37,0-1.37-.73-.09-1.47-.06-2.29-.06.01-.21.04-.59.06-.91-.7-.26-1.29-.53-1.91-.69-.6-.16-1.23-.18-1.83-.3-.43-.09-1.12-.13-1.23-.38-.34-.82-1.04-.83-1.69-1.02-.66-.19-1.3-.51-1.97-.63-.6-.11-1.24-.02-2.09-.02-.26-.44-.71-.5-1.99.15.13-.29.2-.46.36-.81-.72.08-1.33.15-2.01.23-.1-1.11-.63-1.78-1.94-1.37-.18.06-.49.09-.57,0-.89-1.02-1.13-.11-1.39.49-.37.82-.66,1.68-.99,2.55.11.07.3.19.35.23-.35.7-.65,1.32-.97,1.96-.14-.09-.33-.22-.53-.36-.13.25-.25.5-.32.63.43.63.77,1.13,1.29,1.89.06-.8.08-1.15.11-1.55,1.23,1,1.95,1.97,1.86,3.57-.06,1.04.59,2.13.95,3.27-.9.83-.9,1.02.02,1.93-.29.46-.83.94-.77,1.31.21,1.3.69,2.56.93,3.85.13.72-.03,1.48-.04,2.23,0,.22,0,.46.07.66.4.98.82,1.96,1.27,3.02.2.03.59.08.64.09-.03.94-.37,1.97-.01,2.37.87.97,1,2.02,1.15,3.2.13,1.09.61,2.14.86,3.22.1.46.02.96,0,1.43-.01.76-.26,1.61,0,2.25.36.88,1.25,1.46.79,2.71-.22.59.22,1.58.63,2.2.45.66,1.08,1.12.9,2.08-.12.65-.02,1.34-.02,1.9.42.09.84.18,1.25.27-.33.46-.63.58-.89.76-.26.18-.69.44-.68.64.03.55.12,1.44.43,1.56.94.38.39,1.08.54,1.6.06.21-.13.51-.04.67.74,1.24.75,2.64.87,4,.05.51-.2,1.08-.4,1.58-.29.73-.6,1.47-1.03,2.13-.44.67-1.03,1.23-1.69,2-.04,0-.39-.05-.74-.09-.24.46-.46.89-.7,1.35.37.15.69.27,1.16.46-.83.2-1.6.2-2.13.56-.75.49-1.84.75-1.86,2.04,0,.22-1.18.33-1.31.68-.69,1.92-2.74,2.17-3.94,3.42-.33.34-.55.81-.91,1.11-2.52,2.12-5.06,4.22-7.63,6.28-.46.36-1.12.46-1.81.73.1.23.27.61.46,1.04-.26.08-.51.24-.63.17-1.15-.62-1.56.07-2.02.96-.24.47-.71,1.04-1.18,1.15-1.11.26-1.56,1.14-2.2,1.87-.16.19-.29.41-.48.56-1.61,1.2-3.29,2.32-4.84,3.58-1.5,1.22-2.91,2.55-4.3,3.9-1.66,1.62-3.28,3.29-4.86,4.99-.91.98-1.71,2.06-2.52,3.12-.38.49-.59,1.13-1.03,1.54-.98.92-2.09,1.69-3.07,2.6-1.34,1.25-2.82,2.42-3.86,3.9-.97,1.37-2.2,2.38-3.34,3.52-.59.59-1.22,1.28-1.46,2.04-.17.54.06,1.08-.81,1.1-.25,0-.48.38-.73.56-.33.24-.68.47-1.02.7-.2.13-.44.23-.58.4-1.16,1.41-2.24,2.89-3.48,4.23-1.32,1.43-2.79,2.73-4.18,4.09-1.22,1.19-2.42,2.41-3.64,3.6-1.38,1.35-2.79,2.69-4.17,4.04-.58.57-1.17,1.14-1.71,1.76-1.24,1.44-2.41,2.96-3.69,4.37-1.67,1.84-3.47,3.58-5.14,5.42-1.04,1.15-1.92,2.44-2.93,3.63-1.28,1.51-2.62,2.95-3.91,4.46-.39.46-.58,1.1-1,1.51-1.38,1.36-2.86,2.61-4.23,3.98-1.71,1.72-3.3,3.56-5.05,5.25-.93.9-2.1,1.57-3.13,2.38-.72.56-1.23,1.55-2.38,1.04-.24.33-.47.63-.7.93.07-1.55-2.11-2.5-1.02-4.18.02-.03-.06-.15-.11-.21-.59-.67-.5-1.42-.44-2.26.1-1.46-.08-2.94-.08-4.41,0-1.08-.28-2.39.22-3.19,1.15-1.88-.1-4.01.91-5.81.03-.06.03-.2-.02-.24-.87-.8-.2-1.81-.35-2.7-.07-.4-.08-.84,0-1.24.26-1.19.75-2.35.83-3.54.17-2.29-.73-4.52-.15-6.9.41-1.7.14-3.56.15-5.35,0-.27-.05-.6-.2-.81-.56-.78,0-1.28.37-1.87.19-.31.46-.72.38-1.01-.26-1.01-.14-1.98-.04-2.99.17-1.65.12-3.33.23-5,.05-.74.28-1.46.42-2.19.1-.39-.14-.85-.14-1.31.02-1.46.21-2.92.16-4.38-.02-.53-.11-.89.35-1.29.29-.26.48-.75.51-1.15.14-2.03,1.75-3.38,2.32-5.21.05-.16.33-.23.46-.38.86-1.02,1.93-1.95,2.49-3.11.48-.99.92-1.77,1.97-2.15.22-.08.42-.27.57-.45,1.09-1.33,2.1-2.74,3.28-3.99,1.06-1.13,1.75-2.7,3.47-3.11.06-.01.14-.13.13-.19-.23-1.18.93-1.29,1.45-1.89.47-.54.97-1.06,1.5-1.63-1.16-.58-.66-1-.07-1.28.83-.4,1.94-.48,2.52-1.09,1.01-1.07,1.9-2.23,3.25-2.91.15-.07.24-.28.33-.44.54-.99,1.06-2,2.4-2.05.1,0,.19-.09.25-.12-.24-.15-.45-.28-.8-.49.79-.44,1.47-.74,2.05-1.18,1.07-.8,2.1-1.66,3.11-2.53.2-.17.36-.52.36-.79-.05-1.39.42-1.94,1.79-2.18.4-.07.76-.38,1.14-.58l-.15-.23c-.4.12-.79.23-1.41.41,1.43-1.34,2.61-2.44,3.8-3.56.13.07.35.17.67.34-.39-1.06-.39-1.04.67-1.26.2-.04.34-.32.53-.44.39-.25.79-.51,1.22-.68.82-.33,1.84-.47,1.06-1.77-.08-.13.16-.46.26-.74.31.36.54.62.58.66.8-.89,1.49-1.65,2.21-2.45-.04-.05-.21-.28-.44-.59,1.18-.68,2.31-1.33,3.61-2.07-.71-.2-1.13-.31-1.55-.43.03-.16.06-.31.1-.47.55.09,1.1.18,1.72.28.51-1.08,2.13-1.59,2.03-3.25,1.22.1,1.58-.52,1.3-1.62-.57-.04-1.17.97-1.76.12.88-.3,1.84-.37,2.44-.87,1.24-1.03,2.3-2.29,3.43-3.46.58-.6.98-1.46,2.08-1.32.18.02.47-.51.63-.82.14-.26.07-.68.25-.85.74-.67,1.55-1.26,2.53-2.04,0,.02,0-.32,0-.4.51-.42.87-.69,1.21-.99.46-.4.86-.87,1.35-1.21,1.44-1,1.45-.98,1.8-2.22.89-.18,1.66-.33,2.44-.48-.02-.1-.03-.2-.05-.31-.26-.07-.51-.14-.71-.19.59-.66,1.08-1.31,1.68-1.85.8-.72,1.67-1.37,2.54-2.01.33-.24.73-.37,1.1-.56-.26-.25-.51-.51-.77-.76.03-.11.07-.21.1-.32.47.14.94.35,1.42.39.4.03.82-.13,1.23-.21-.54-1.44.97-1.63,1.48-2.43.22-.34.58-.73.56-1.08-.08-1.3,1.17-1.45,1.74-2.17.33-.42.72-.79,1.08-1.18l-.22-.28c.83.11,1.65.21,2.86.37-.54-.72-.88-1.17-1.25-1.65.32-.33.75-.79,1.27-1.33.14.33.25.6.41.96.58-1.07,1.07-1.99,1.66-3.08.22.61.44,1.19.67,1.84.3-1.33.56-2.5.77-3.45-.46.04-1.05.14-1.63.13-1.33-.03-1.33-.05-2.08,1.4.41-.19.71-.32,1.04-.48.11.7-.19,1.36-.77,1.02-.73-.43-1.11-.05-1.49.25-1.13.88-2.25,1.78-3.26,2.78-1.6,1.59-3.03,3.34-4.66,4.89-1.87,1.77-3.36,3.89-5.62,5.3-1.44.9-2.49,2.4-3.78,3.56-1.91,1.7-3.88,3.32-5.87,5.02.17.13.4.3.86.66-.58.27-.98.43-1.36.64-.57.32-1.16.64-1.66,1.06-.09.08.21.63.32.91-.41.07-1.01,0-1.4.27-.92.63-1.75,1.38-2.59,2.13-.56.5-1.34.99-1.5,1.62-.2.79-.6,1.2-1.15,1.68-.91.8-1.74,1.69-2.61,2.55.38.23.57.35.75.46-1.04.52-2.16.83-2.93,1.51-1.12,1-1.98,2.29-2.97,3.43-1.05,1.21-2.04,2.49-3.18,3.6-1.46,1.41-3.1,2.63-4.57,4.03-.82.77-2.14,1.19-2.12,2.66,0,.09-.14.19-.23.27-1.02.79-2.05,1.56-3.06,2.36-.57.45-1.17.89-1.65,1.43-1.09,1.22-1.98,2.66-3.81,2.91-.17.02-.4.34-.41.53-.05.92-.53,1.45-1.36,1.78-.2.08-.32.4-.46.62-.2.3-.32.69-.58.9-1.72,1.35-3.4,2.78-5.24,3.95-1.35.86-1.36,2.8-3.03,3.35-.31.1-.29.96-.61,1.27-1.02.98-2.2,1.8-3.19,2.8-1.49,1.5-2.83,3.15-4.33,4.65-1.4,1.4-2.95,2.66-4.38,4.04-.99.96-2.19,1.89-2.7,3.09-.59,1.39-.7,3.05-.69,4.6,0,1.25-.85,2.88,1.13,3.74-1.1.01-1.52.24-1.11,1.38.24.67-.15,1.56-.26,2.35-.13.95-.56,1.98-.33,2.83.32,1.2-.11,2.12-.44,3.15-.12.37-.21.77-.2,1.16.02,1.26.45,2.67.03,3.75-.44,1.12-.47,2.05-.37,3.17.06.67-.36,1.43-.7,2.07-.57,1.08-1.85.28-2.66.88-.36.26-1.05.52-1.33.35-1.25-.74-2.44.07-3.64,0-.41-.02-.91.63-1.24.54-2.05-.56-3.85.32-5.42,1.25-1.54.91-2.8,2.28-4.47,3.1-.98.48-1.78,1.31-2.66,1.99-1.47,1.14-3.02,2.19-4.39,3.45-1.4,1.28-2.66,2.71-3.89,4.16-.86,1.01-1.54,2.17-2.35,3.23-.29.38-.82.6-1.03,1-.56,1.06-.87,2.26-1.53,3.24-1.09,1.63-2.66,2.95-3.06,5-.04.22-.24.43-.4.61-.46.52-.99,1-1.4,1.55-.76,1.01-1.46,2.07-2.19,3.12-.72,1.03-1.51,2.02-2.15,3.1-1.17,1.97-2.13,4.06-3.69,5.79-.94,1.04-1.8,2.17-2.58,3.34-.56.84-.98,1.79-1.38,2.73-.23.55-.31,1.16-.46,1.74-.56,1.21-1.41,2.34-2.11,3.55-.33.56-.25,1.37-.58,1.93-1.16,1.98-2.5,3.85-3.62,5.85-.84,1.49-1.46,3.1-2.16,4.67-.31.7-.55,1.44-.9,2.12-.11.22-.46.42-.73.46-.93.14-1.93.05-2.81.33-2.14.67-4.25,1.39-6.47,1.79-2.41.44-4.48,1.94-6.93,2.33-.07.01-.13.09-.19.14-1.35,1.01-2.58,2.3-4.08,2.94-1.69.72-3,1.81-4.38,2.9-1.51,1.19-3.11,2.25-4.66,3.39-.84.62-1.67,1.25-2.44,1.95-.72.65-1.3,1.47-2.05,2.08-3,2.44-5.93,4.94-8.61,7.74-.93.97-1.02,2.16-1.19,3.34-.04.25.34.77.59.82,1.1.22,2.22.36,3.34.43,1.29.08,2.59.04,3.88.06.04,0,.08.13.2.34-.52.45-1.09.9-1.61,1.4-.32.31-.52.78-.88,1.03-1.01.71-2.17,1.23-3.07,2.04-1.05.94-1.88,2.12-2.82,3.19-1.81,2.06-3.66,4.08-5.42,6.17-.49.58-.58,1.57-1.13,2.02-.93.75-1.77,1.45-2.37,2.55-.76,1.41-1.83,2.67-2.77,3.98-1.85,2.6-3.71,5.19-5.55,7.81-.17.24-.13.61-.21.91-.11.43-.17.91-.39,1.29-.79,1.3-1.74,2.5-2.44,3.84-.72,1.39-1.17,2.92-1.82,4.35-.66,1.45-1.46,2.84-2.12,4.3-.5,1.11-.89,2.26-1.3,3.41-.14.4-.18.84-.27,1.26-.09.39-.12.82-.31,1.16-1.48,2.7-2.84,5.43-3.03,8.59-.04.74-.2,1.47-.35,2.19-.14.64-.35,1.26-.53,1.88-.27.97-.47,1.97-.81,2.92-.51,1.39-1.38,2.75.29,3.97.14.1.2.36.25.56.24,1.01.98.99,1.64.64,1.16-.61,2.29-1.29,3.33-2.07.73-.55,1.26-1.36,1.96-1.96.96-.81,1.99-1.56,3.02-2.29,1.6-1.14,3.19-2.29,4.85-3.33,1.39-.87,2.87-1.58,4.32-2.36.29-.16.62-.25.92-.38.08.07.16.15.24.22-.21.55-.41,1.11-.65,1.65-.46,1.05-1.02,2.06-1.38,3.15-.3.92-.2,1.98-.58,2.85-.55,1.25-.66,2.58-1.41,3.85-1.16,1.94-1.58,4.33-2.31,6.52-.45,1.35-1.17,2.68-1.27,4.05-.14,1.93-.3,3.73-1.16,5.55-.84,1.78-1.15,3.81-1.72,5.72-.39,1.32-.89,2.61-1.21,3.94-.54,2.22-.63,4.62-1.54,6.66-.99,2.2-.84,4.5-1.4,6.71-.52,2.05-.51,4.23-.78,6.34-.09.7-.71,1.58-.46,2.04.73,1.33.12,2.5-.04,3.73-.04.31-.19.75-.04.91.98,1.09,2.02,2.13,2.99,3.13.58-.37.95-.55,1.26-.81.79-.66,1.78-1.22,2.27-2.07,1.68-2.88,3.13-5.89,4.75-8.81.75-1.36,1.66-2.63,2.5-3.93.89-1.37,1.71-2.8,2.69-4.1,1.52-2.01,3.16-3.93,4.71-5.92,1.23-1.58,2.39-3.2,3.59-4.8.32-.42.7-.8,1.01-1.22,1.86-2.5,3.7-5.01,5.56-7.52.12-.16.3-.28.44-.44,1.52-1.71,3.14-3.34,4.5-5.16.57-.75,1.08-1.06,1.58-1.09.48.74.82,1.29,1.18,1.82.15.22.51.46.47.63-.24,1.05-.18,1.81.78,2.67.66.59.65,1.9.97,2.88.33,1,.5,2.15,1.11,2.95.61.8,1.61,1.5,2.58,1.8,1.14.35,2.38,1.25,3.64.19.5-.42,1.07-.76,1.56-1.19,1.44-1.26,2.13-2.98,2.98-4.64.98-1.92,1.63-3.89,1.86-6.02.05-.44.1-.9.26-1.31.45-1.09,1.03-2.14,1.44-3.25.68-1.82,1.21-3.7,1.9-5.52.61-1.6,1.39-3.13,2.03-4.71.17-.43,0-1.01.2-1.42.72-1.5,1.37-3.08,2.34-4.42,1.8-2.46,2.66-5.38,4.2-7.95.49-.82,1.09-1.58,1.71-2.31.17-.2.57-.27.87-.27,1.52,0,2.26.82,2.28,2.44,0,.33.02.75.22.97.83.96,1.67,1.92,2.63,2.74.33.28,1.13.42,1.48.22,2.11-1.19,4.02-2.41,5.14-4.91.82-1.84,1.9-3.62,2.72-5.51.09-.21.24-.47.42-.54,1.31-.55,1.66-1.66,1.84-2.91.05-.34.12-.7.29-.98.53-.9,1.16-1.76,1.67-2.67.57-1.02,1.14-2.05,1.58-3.13.5-1.21.82-2.5,1.28-3.73.54-1.44,1.1-2.89,1.76-4.28.37-.77,1.05-1.39,1.46-2.15,1.26-2.32,2.37-4.72,3.71-6.99.74-1.25,1.8-2.32,2.76-3.43,1-1.15,2-2.3,3.09-3.37,1.55-1.54,3.19-2.99,4.78-4.5,1.31-1.24,1.99-3.15,3.94-3.69.5-.14,1.09,0,1.55-.21,1.34-.61,2.64-1.29,3.93-2.01,1.53-.85,2.85-2.13,4.77-2.18.32,0,.63-.55.95-.85l.08.27,9.5-4.01c.08.09.16.18.23.27-.15.47-.3.94-.45,1.41-.17.56-.35,1.12-.49,1.69-.06.26.07.6-.05.81-.72,1.25-1.48,2.46-2.23,3.69-.14.23-.33.43-.48.66-.64.94-1.13,2.02-1.93,2.79-1.99,1.94-4.06,3.81-6.22,5.56-2.13,1.72-4.36,3.32-6.63,4.84-1.85,1.24-3.86,2.24-5.76,3.41-1.25.77-2.42,1.69-3.65,2.49-.28.18-.69.14-1.03.24-.72.2-1.6.23-2.13.67-1.21,1-2.48,1.16-3.69.9-.92.67-1.71,1.24-2.48,1.81.33.61.62,1.14.93,1.71-1.04.72-.94,1.58-.15,2.34.35.33.92.54,1.42.59,1.07.11,2.16.11,3.24.11.23,0,.54-.16.69-.34.43-.54.83-1.12,1.19-1.71.37-.59.79-.87,1.56-.95,1.01-.11,2-.56,2.96-.95,1.51-.61,2.99-1.76,4.5-1.81,1.28-.04,1.89-.89,2.87-1.15.45-.12.9-.26,1.34-.4.73-.22,1.48-.38,2.18-.66,1.25-.5,2.47-1.07,3.72-1.59.49-.21,1.17-.21,1.49-.56.83-.9,1.85-1.17,2.98-1.31.29-.04.57-.26.83-.44.57-.39,1.06-.97,1.69-1.18,1.3-.43,2.7-.55,3.98-1.02,2.91-1.08,5.93-2,8.58-3.55,1.83-1.07,3.85-1.12,5.71-1.89,1.86-.77,3.85-1.12,4.99-2.37,1.07.13,1.99.54,2.57.25.66-.33,1.22-1.11,1.95-.53,1.14.89,1.2-.86,1.98-.67.16.04.32.13.46.12.48-.05.97-.11,1.44-.24.47-.13.95-.3,1.35-.56,1.19-.74,2.84,0,3.86-1.27.3-.37.76-.62,1.15-.93,1.18-.93,2.45-1.76,3.52-2.81.68-.67,1.13-1.62,1.55-2.51.55-1.18,1.24-2.39,1.37-3.64.15-1.43-.25-2.91-.38-4.38-.12-1.3-.21-2.61-.3-3.92-.1-1.38.25-3.02-.39-4.06-.57-.93-.15-1.46-.14-2.17,0-.4-.02-.81-.07-1.21-.05-.44-.22-.88-.22-1.33.02-1.49.15-2.99.1-4.48-.03-.81-.2-1.68-.57-2.39-.35-.68-1.03-1.2-1.57-1.78-.78-.84-.7-1.36.26-2.09.35-.27.68-.58.97-.92.85-1,1.67-2.03,2.63-3.22-.14-.58.24-1.19.85-1.93.74-.9,1.1-2.13,1.53-3.25.26-.67.1-1.68.54-2.08,1.08-.98,1.2-2.12,1.09-3.37,1.42,0,2.8-.01,4.18,0,1.02.01,1.96.26,2.62,1.13,1.72-.65,3.38.15,5.06.26,1.67.11,3.4-.48,5,.4.6.33,1.17.85,1.81.96,1.6.27,3.23.45,4.85.47,1.57.01,3.31.25,4.29-1.51,1.52.57,2.41.03,2.6-1.53.03-.22.27-.5.49-.59.76-.3,1.56-.5,2.31-.81.36-.15.67-.45.99-.69.67-.5,1.34-1,1.99-1.53.68-.56,1.37-1.11,1.99-1.73.87-.87,1.67-1.81,2.51-2.71.37-.4,1.47-.3.92-1.34.32-.13.64-.26.96-.39.46-.19,1.3-.36,1.31-.56.03-1.21,1-1.36,1.74-1.8.2-.12.33-.35.48-.54.27-.33.46-.76.79-.98,1.51-1.02,3.17-1.86,4.57-3.01,1.5-1.23,2.77-2.74,4.17-4.09.31-.3.76-.44,1.15-.66.24-.14.39-.5.6-.82.67-.99,1.37-1.96,2.06-2.94.13-.19.26-.53.4-.53,2.17-.03,2.41-3.09,4.68-2.97.14,0,.32-.35.46-.56.5-.76.93-1.59,1.51-2.28.96-1.15,3.01-1.16,3.28-3.08,0-.03.06-.05.1-.07,1.06-.57,2.47-.61,2.99-2.01.02-.05.26.01.35-.05.27-.19.54-.4.76-.64.26-.28.43-.68.72-.91,1.24-.98,2.51-1.9,2.82-3.62.12-.7.42-1.36.63-2.04l.28.4c.46-.05.98.03,1.35-.18.42-.24.62-.92,1.05-1.08,2.01-.74,2.93-2.66,3.95-4.17.79-1.16,1.42-1.8,2.29-1.86,2.69-2.85,5.14-5.44,7.53-7.98-.09-.11-.26-.33-.43-.55.24-.16.46-.36.72-.47.26-.11.59-.23.84-.16.86.23.96-.28,1.22-.92.26-.63.93-1.62,1.3-1.57,1.3.17,1.55-.91,2.25-1.44.68-.51,1.41-.97,2.11-1.46.16-.11.37-.21.47-.38.75-1.31,1.42-2.69,2.87-3.4.49-.24,1.04-.37,1.57-.54.03.08.06.17.08.25,1.41-1.21,2.82-2.41,4.32-3.7-.41-.19-.8-.37-1.28-.6.24-.43.47-.83.87-1.54.26.74.42,1.17.66,1.85.44-.77.78-1.37,1.12-1.95.28.19.52.36.59.41,1.02-1.09,1.94-2.08,2.89-3.05.1-.1.4.04.57-.03.46-.19.95-.37,1.35-.66.35-.26.53-.75.89-1.01,1.04-.77,2.13-1.46,3.19-2.21.11-.08.15-.27.18-.43.27-1.12,1.13-1.37,2.18-1.42v-1.67c.65.06,1.29.32,1.64.11,1.03-.61,1.95-1.41,2.91-2.13,1.23-.92,2.43-1.87,3.69-2.75,1.9-1.34,3.83-2.64,5.75-3.96-.05-.09-.1-.17-.15-.26-.34.02-.68.03-1.38.06.83-.8,2-1.07,1.55-2.26.11-.04.24-.05.33-.11.45-.32.89-.66,1.25-.94-.39-.88-.78-1.77-1.3-2.93-.16.59-.26.97-.37,1.35-.55-1.19-.9-1.74-1.24-2.29-.1-.17-.28-.36-.26-.52.19-1.54,0-2.91-1.55-3.78.89-.38,1.68-2.54,1.4-3.39-.18-.55-.22-1.15-.37-1.97-.76-1.66-.48-3.68-.46-5.77-.2-.1-.51-.26-.86-.44.3-.99.33-1.88-1.03-2.04.24-.29.5-.5.61-.78.04-.11-.25-.35-.39-.53-.37.3-1.03.58-1.04.89-.02.65-.3.82-.8.89-.72.1-1.45.18-2.17.27.01.07.03.15.04.22.48.1.97.21,1.57.33-.74.71-.98,1.25-.4,2.05.32.44.4,1.1.46,1.68.11.9.1,1.82.17,2.73.07.99.14,1.98.24,2.97.03.32.22.63.2.94-.04.55,0,1.31-.34,1.58-.6.49-.77,1.04-.87,1.72-.05.36-.18.71-.34,1.04-.19.38-.61.73.12,1.01.04.02-.1.52-.16.8-.79-.18-1.59-.31-2.37-.54-.41-.12-.76-.58-1.14-.59-1.33-.04-2.61.18-3.98-.33-1.88-.7-3.92-.97-5.87-1.49-.24-.06-.58-.53-.53-.73.22-.95.56-1.87.91-2.96.02.01-.22-.18-.62-.52,1.91-.04,1.58-2.23,3.02-2.6-.05-.15-.16-.3-.14-.44.05-.28.12-.57.25-.83.24-.47.82-.98.73-1.35-.32-1.34.54-.75.89-.76.8-1.49,1.56-2.91,2.46-4.59-1.28.49-1.37,2.01-2.69,2.1.51-1.58,1.92-2.62,3.07-2.37-.11-.45-.22-.91-.28-1.15.54-.06.91-.11,1.29-.15-.74-.76-.93-1.55-.38-1.87,1.46-.85,2.07-2.2,2.32-3.8,1.46.58,2.19,1.57,2.3,3.2.08,1.27.05,2.67.96,3.69.92-.62,1.77-1.2,2.48-1.68.39-1.86-.68-3.7-.05-5.49-.42-.25-1.38-.67-1.34-.85.32-1.32-.76-1.75-1.47-2.51,1.1-1.7,2.19-3.38,3.34-5.16-.04-.04-.15-.18-.29-.34.2-.14.32-.25.46-.32.16-.08.34-.14.53-.21-.86-1.35-.8-1.43.62-1.84.38-.11.78-.5.97-.86.77-1.46,1.02-3.21,2.44-4.32.21-.16.24-.54.44-1.02-1.24.32-2.25.57-3.25.83-.04-.13-.09-.27-.13-.4.52-.22,1.26-.29,1.52-.68.7-1.03,1.24-.84,1.97.27.35-2.12,1.12-1.08,1.83-.44.14-.17.24-.3.35-.42.79-.81,1.55-1.5.4-2.72-.48-.51-.8-1.76-.5-2.3.54-.97,1.65-1.64.33-3.04,2.53.59,2.13-1.39,2.79-2.38-.34-.31-.64-.59-.95-.87.07-.09.13-.19.2-.28.51.3,1.02.61,1.62.96.11-.61.21-1.18.32-1.74.16-.8.64-1.68.42-2.36ZM396.27,69.58c.83.22,1.48.39,2.27.59-.04.16-.13.48-.24.9.17-.03.31-.07.45-.06.96.06,1.14.29,1.29,1.52.02.14.21.37.29.36,1.15-.17,1.15.88,1.66,1.43.41.44,1.15.59,1.82.9-.07.2-.18.51-.33.93h1.39c-1.3,1.24.16,1.92.35,2.85-2.66-.41-8.3-5.81-8.8-8.39-.31-.08-.62-.16-1.12-.28.49-.37.83-.64.97-.75ZM336.15,90.13c-.39-.9-.8-1.79-1.3-2.9-.13-.07-.59-.33-1.16-.65.38-.31.62-.49.77-.61-.06-.6-.07-1.13-.17-1.66-.04-.22-.2-.47-.38-.59-.97-.6-1.04-1.05-.24-1.99-.96-.73-1.6-1.55-1.26-2.91.14-.57-.2-1.26-.33-1.89-.12-.59-.49-1.25-.32-1.74.44-1.3-.09-2.52-.11-3.77,0-.32-.4-.64-.65-1.01.32-.28.67-.6.95-.86-.29-1.46-.57-2.84-.97-4.85.17-.81,1.35-.08,2.18-.2.97-.14,1.85.34,2.77.57.95.24,1.78.46,2.15,1.53.09-.05.18-.1.27-.15-.08-.39-.1-.8-.25-1.16-.15-.36-.43-.67-.49-1.22.65.28,1.31.55,2.15.9-.52.44-.79.66-1.16.97.86.6,1.62,1.13,2.46,1.72.11-.51.17-.76.28-1.22.29.56.47.93.8,1.56.16-.96,1.48-.85,1.07-1.94.15-.05.34-.19.43-.14.14.09.27.28.29.45.1.7.16,1.4.23,2.11.11-.09.23-.18.34-.27.54.32,1.07.67,1.62.96.71.37,1.44.69,2.16,1.04,1.03.5,2.04,1.04,3.1,1.49,1.78.75,3.38,1.75,4.7,3.18.1.11.39.22.43.17.48-.51.85-.46,1.21.13.02.03.43-.17.75-.31.08.36.15.69.22,1.01.06-.09.13-.18.19-.26,1.11.87,2.22,1.75,3.65,2.88-1.54,1.12-2.93,2.12-4.32,3.13-.1.07-.24.2-.31.17-1.4-.49-1.97.84-2.93,1.3-.61.29-1.36.32-1.94.65-1.32.75-2.58,1.62-3.87,2.42-.27.17-.6.36-.89.35-1.44-.06-2.49.9-3.71,1.31-1.63.54-2.98,2.05-5,1.61-.53-.12-1.33.55-1.87,1.01-.71.61-1.16.58-1.54-.3ZM222.2,233.5c.88-.17,1.8-.18,2.58-.25-.2,1.43-.15,2.72-.59,3.83-.5,1.26.15,2.33.08,3.47-.07,1.24-.14,2.6-.71,3.65-.83,1.54.4,3.01-.29,4.55-.55,1.22-.46,2.72-.73,4.08-.23,1.17-.72,2.12-2.05,2.5-.71.2-1.27.87-1.96,1.18-1.69.76-3.44,1.4-5.13,2.17-.81.37-1.53.95-2.3,1.42-.65.4-1.3.82-1.99,1.15-1.88.9-3.8,1.71-5.67,2.64-1.95.97-3.81,2.11-5.78,3.05-1.97.94-4.03,1.68-6.02,2.59-1.1.51-2.05,1.42-3.19,1.74-2.02.58-3.75,1.63-5.53,2.66-1.55.9-3.4,1.35-4.83,2.39-1.96,1.44-4.24,2.13-6.31,3.3-.11.06-.23.1-.32.18-2.4,2.34-5.93,2.85-8.41,5.36-.08-.37-.17-.56-.12-.61,1.24-1.3.63-3.19,1.3-4.51.77-1.52.78-3.61,2.59-4.5,1.29-.63,1.39-1.91,1.93-2.97.32-.62.88-1.11,1.38-1.62.28-.29.63-.54.98-.74.65-.36,1.32-.66,1.99-.99l.16.29c.09-.35.1-.76.28-1.05,1.02-1.55,2.05-3.11,3.16-4.6.58-.78,1.32-1.44,1.99-2.14.52-.55,1.08-1.06,1.56-1.64,1.33-1.63,2.68-3.25,3.92-4.95.51-.69.66-1.64,1.14-2.36,1.09-1.65,2.23-3.27,3.46-4.82,1.04-1.31,2.27-2.48,3.37-3.74.38-.43.55-1.06.97-1.43,1.31-1.14,2.67-2.23,4.06-3.27.37-.28.92-.34,1.39-.46,1.23-.31,2.46-.6,3.69-.89,1.45-.33,2.92-.6,4.35-.99,1-.27,1.94-.72,2.93-1.03.59-.19,1.22-.27,1.82-.41.29-.07.58-.17.86-.26.47-.16.82-.94,1.47-.28.06.06.32-.03.46-.1,1.41-.68,2.84-.89,4.44-.79,1.17.07,2.38-.59,3.58-.82ZM164.31,254.71c.41-.99.93-1.93,1.44-2.88.22-.41.78-.8.75-1.17-.07-1.05.49-1.74,1.02-2.51,1.03-1.5,1.62-3.17,2.04-4.95.23-.97,1.05-1.78,1.55-2.69.49-.88,1.08-1.76,1.34-2.71.42-1.59,1.04-2.96,2.4-3.98.35-.26.4-.91.64-1.35.46-.85.95-1.67,1.42-2.51.29-.52.56-1.06.83-1.59.85-1.73,2.61-2.9,2.98-4.92,1.68-.56,1.59-2.64,3.03-3.5.53-.32.63-1.34.97-2.02.17-.34.42-.65.67-.95.15-.17.5-.28.52-.44.24-1.99,2.1-2.89,2.98-4.43,1.02-1.79,2.38-3.27,4.01-4.53.08-.06.08-.23.1-.35.35-2.34,2.58-2.97,3.97-4.37.8-.81,1.5-1.76,2.41-2.42,2.43-1.75,4.94-3.39,7.46-5.02.49-.31,1.17-.31,1.74-.52.59-.21,1.15-.5,1.72-.75,1.59-.03,3.05-.27,4.39-1.24.98.61,1.96,1.34,3.24.67.12-.06.36.06.52.15.51.27,1,.57,1.58.9-.6.58-.56,1.13.11,1.84.38.4.61,1.37.39,1.83-.48,1-.27,1.96-.33,2.96-.13,2.26-.39,4.51-.72,6.75-.12.85-.77,1.57.18,2.44.25.23-.05,1.41-.42,1.9-1.27,1.67-.71,3.52-.42,5.18.2,1.14-.2,2.09-.11,3.13.06.65.12,1.3.18,1.95.03.28.18.63.07.81-.52.82,0,1.57.22,2.24.48,1.45-.2,2.73-1.7,2.85-.21.02-.44,0-.62.07-1.42.65-2.81,1.36-4.24,1.98-.77.33-1.67.41-2.4.8-1.49.79-3.14.73-4.7,1.12-1.22.3-2.27,1.33-3.68.71-1.2,1.21-2.87,1.1-4.34,1.5-.78.21-1.7.15-2.51,0-.88-.17-1.54,0-2.25.54-1.69,1.3-2.69,3.06-3.5,4.97-.12.28-.25.62-.48.78-.99.64-1.62,1.55-1.91,2.65-.36,1.36-1.43,2.07-2.31,2.99-.58.61-.91,1.47-1.35,2.21-.74,1.23-1.41,2.51-2.24,3.67-.51.72-1.26,1.28-2.09,2.11.2,1.3-.95,2.24-1.99,3.26-1.23,1.21-2.39,2.49-3.58,3.75-.89.94-3,1.2-3.97.38-.86-.73-1.61-1.58-2.43-2.37-.32-.31-.64-.65-1.02-.89-1.21-.76-1.58-1.58-1.35-2.97.05-.33-.32-.78-.21-1.06ZM143.72,353.66c-.73,1.54-1.5,3.07-2.1,4.66-.78,2.09-1.37,4.25-2.13,6.35-.44,1.22-.99,2.4-1.57,3.55-.78,1.53-1.65,3.01-2.46,4.52-.36.68-.93,1.04-1.59.64-.48-.28-.83-.83-1.15-1.32-.21-.32-.22-.77-.4-1.12-.67-1.31-1.37-2.61-2.05-3.91-.04-.07-.04-.18-.09-.23-1.57-1.61-.82-3.61-.97-5.48-.11-1.38-1.07-2.27-2.24-2.65-1.24-.41-2.42-.27-3.37,1.09-.66.96-1.31,1.8-1.61,2.97-.17.67-.86,1.21-1.3,1.82-.86,1.19-1.69,2.4-2.57,3.57-.71.96-1.47,1.88-2.22,2.81-.71.88-1.46,1.73-2.17,2.61-1.78,2.2-3.59,4.37-5.31,6.61-1.03,1.34-1.87,2.83-2.9,4.17-2.09,2.75-4.29,5.42-6.36,8.18-1.27,1.7-2.38,3.53-3.57,5.29-.33.49-.64,1-1.07,1.39-.13.12-.84-.08-.89-.25-.14-.49-.17-1.06-.1-1.58.33-2.43.66-4.87,1.08-7.28.26-1.47.27-3.27,1.14-4.29,1.19-1.4.84-2.99,1.41-4.41.84-2.12,1.63-4.26,2.28-6.44.41-1.36.55-2.81.79-4.22.16-.93.24-1.87.41-2.79.22-1.2,1.12-2.23,1.4-3.26.81-2.88,2.39-5.35,3.52-8.04.77-1.82,1.17-3.8,1.97-5.6.6-1.36,1.57-2.55,2.38-3.82.38-.59.92-1.13,1.12-1.77.78-2.43,2.62-4.08,4.15-5.95.2-.25.41-.58.43-.87.06-1.4-.92-2.82-2.21-3.32-1.46-.56-3.1-.13-4.16.92-.86.85-1.87,1.56-2.79,2.34-.62.53-1.15,1.2-1.83,1.62-3.02,1.87-6.09,3.65-9.13,5.5-1.33.81-2.61,1.71-3.92,2.55-1.23.79-2.49,1.46-3.81.34.56-2.1,1.04-4.09,1.63-6.05.22-.74.73-1.39,1.02-2.12.38-.98.64-2.01,1.01-2.99,1.31-3.52,2.53-7.08,4.01-10.53.97-2.25,2.23-4.38,3.54-6.45,1.79-2.85,3.79-5.56,5.63-8.38.87-1.33,2.14-1.95,3.55-2.44.82-.28,1.6-.68,2.44-.86,1.01-.21,2.06-.24,3.09-.35.56-.06,1.25.07,1.66-.21,1.41-.96,2.86-.7,4.36-.45.35.06.88.07,1.07-.13.85-.88,1.64-.03,2.44.03.13,0,.37.46.33.66-.25,1.33-.59,2.65-.85,3.99-.08.42-.01.87-.07,1.29-.04.31-.1.71-.3.9-.86.81-.7,1.82-.76,2.84-.09,1.39-.36,2.77-.56,4.16-.11.77-.29,1.54-.35,2.31-.16,2.04-.44,4.09-.35,6.13.07,1.51-.69,2.96-.09,4.55.24.64-.35,1.72-.79,2.46-.88,1.48-.39,2.85.23,4.13.3.63.23,1.66,1.47,1.73,1.71.1,3.31.04,4.24-1.62,1.49-2.66,3.82-4.43,6.23-6.11,2.23-1.56,4.5-3.06,6.78-4.56.5-.33,1.06-.57,1.63-.75.13-.04.53.3.57.52.19.97.35,1.95.42,2.94.03.45-.23.91-.23,1.37,0,1.22-.1,2.47.12,3.66.32,1.71,1.03,3.31.58,5.16-.22.91.23,1.99.42,3.21,0,0,.3.1.67.23v1.77c1.05.25,2.06.48,3.33.78-.77,1.55-1.49,2.92-2.15,4.31ZM257.29,284.35c-.37,1.27-1.45,2.48-2.5,3.38-2.35,2.01-5.38,2.59-8.26,3.46-.69.21-1.38.38-2.06.61-1.49.51-2.94,1.12-4.45,1.54-1.29.36-2.68.39-3.96.79-1.57.5-3.06,1.26-4.6,1.87-1.51.6-3.06,1.12-4.55,1.77-1.41.61-2.74,1.4-4.15,2.01-.63.27-1.39.24-2.05.47-2.18.78-4.34,1.63-6.52,2.41-.58.21-1.22.28-2.02.45.74-.84,1.2-1.75,1.93-2.08,1.21-.53,1.48-1.52,1.91-2.53.2-.48.59-1.08,1.03-1.23,2.76-.98,3.69-3.67,5.35-5.65.24-.28.04-1.05.64-1.34-.11-.09-.22-.19-.26-.21.4-.89.86-1.69,1.14-2.56.44-1.39.44-3.04,1.23-4.15.71-.99.6-1.81.39-2.64-.24-.93.25-1.31.8-1.69,1.18-.82,2.4-1.58,3.6-2.36.16-.1.4-.3.5-.25,1.59.8,2.25-.76,3.27-1.32,1.19-.65,2.31-1.45,3.44-2.2.51-.34.95-.8,1.48-1.09.52-.29,1.11-.44,1.67-.64.3-.11.68-.11.91-.3,1.85-1.42,3.65-2.9,5.5-4.32,1.57-1.21,3.28-2.25,4.75-3.56,1.77-1.57,3.36-3.35,5.12-5.15.06.08.26.29.24.31-.71.78-.09,1.82-.32,2.45-.46,1.26-.03,2.32.04,3.46.02.35.15.69.25,1.03.06.19.29.48.24.54-1.08,1.19.23,2.67-.5,3.91-.12.21.02.84.2.91.96.4.55,1.07.48,1.72-.08.86-.14,1.74-.07,2.59.11,1.45.45,2.88.48,4.33.04,1.75.14,3.6-.34,5.24ZM261.97,241.71c-.88,1.04-1.13,2.26-1.47,3.48-.05.17-.08.35-.18.48-.9,1.19-.89,3.03-2.6,3.65-.21,2.25-2.11,3.25-3.46,4.65-.75.78-1.63,1.44-2.4,2.2-.5.5-.9,1.1-1.39,1.62-.55.58-1.14,1.13-1.74,1.65-1.01.88-1.93,1.95-3.09,2.56-2.24,1.18-3.9,3.06-5.97,4.43-1.1.73-2.08,1.76-3.28,2.21-1.84.68-3.03,2.22-4.7,3.08-.86.44-1.76.9-2.44,1.55-1.03.99-2.66.72-3.58,2.03-.42.59-1.65.58-2.47.93-.55.23-1.04.6-1.57.9-.81.46-1.6.95-2.44,1.35-1.34.64-2.75,1.15-4.07,1.81-1.69.85-3.33,1.82-5.01,2.7-.29.15-.7.09-1.03.18-1.6.46-3.2.92-4.77,1.44-.59.2-.94.22-1.5-.26-.99-.86-1.95-1.26-3.6-.69-1.61.56-2.32,1.24-2.77,2.69-.25.79-1.38.71-2.19.48-1.7-.48-2.25-2.29-3.74-2.94-.15-.06-.24-.33-.28-.52-.32-1.47-.62-2.94-.93-4.42.12-.06.25-.13.37-.19-.47-.11-.93-.2-1.39-.33-.38-.1-.74-.26-1.12-.38-.22-.07-.48-.22-.66-.15-.19.07-.46.39-.42.53.3,1.08-.2,1.88-.77,2.7-.38.54.11,2.43.77,2.7,1.56.64,2.1,1.82,2.45,3.38.21.96.94,1.89,1.66,2.62.53.54.67.9.42,1.58-.08.22.13.7.35.87.74.56.8,1.25.11,1.97-1.99,2.07-4.05,4.09-5.94,6.26-1.38,1.59-2.84,3.23-3.7,5.11-1.43,3.1-3.27,5.95-4.85,8.95-.93,1.78-1.8,3.59-2.64,5.42-.95,2.06-1.76,4.19-2.76,6.23-.87,1.76-2.2,3.27-2.71,5.25-.15.58-.95.96-1.35,1.51-.44.62-.83,1.3-1.1,2.01-.39,1-1.51,2.05-2.61,2.16-.22-1.05-.44-2.11-.6-2.88-.43-.8-.95-1.37-1.04-2-.38-2.69-2.46-2.94-4.4-2.18-1.41.55-1.85,1.78-2.52,2.73-1.7,2.41-3.05,5.07-4.59,7.6-.49.8-1.16,1.49-1.82,2.32-.83-1.05-1.46-1.8-2.03-2.6-.23-.32-.46-.74-.44-1.11.05-1.4.2-2.8.31-4.2.02-.24.1-.52.02-.71-.39-.87-.25-1.65-.03-2.57.3-1.24.01-2.61.25-3.87.24-1.26.83-2.45,1.36-3.94-.48-.44-1.24-1.21-2.06-1.9-1.28-1.07-3.03-.67-4.29.43-1.96,1.7-3.76,3.73-6.48,4.33-.23.05-.47.17-.67.32-1.95,1.48-3.86,3.04-5.86,4.45-1.04.74-2.25,1.23-3.45,1.86-.9-2.92-.03-5.71.24-8.52.14-1.43.11-2.87.27-4.29.07-.58.52-1.1.66-1.68.57-2.35,1.02-4.72,1.65-7.05.44-1.64,1.22-3.2,1.58-4.85.21-.97,0-2.09-.24-3.08-.17-.68-.65-1.24-1.65-1.09-.47.07-1.03-.49-1.69-.83-1.51.27-3.34.56-5.15.91-1,.19-1.99.44-2.97.71-1.52.42-3.07,1.32-4.54,1.19-1.65-.15-2.42.84-3.7,1.38.4-.56.74-1.19,1.22-1.68,1.87-1.94,3.72-3.9,5.69-5.72,1.53-1.41,3.24-2.64,4.86-3.95,1.19-.96,2.34-1.99,3.58-2.88.81-.58,1.94-.8,2.62-1.49,1.31-1.34,3.36-1.58,4.37-3.39,1.17-2.1.81-3.78-1.44-4.6-1.24-.45-2.55-.91-3.85-.97-1.43-.07-2.88.31-4.33.48-.2.02-.41-.07-.62-.11.09-.2.13-.46.28-.6,1.94-1.79,3.82-3.66,5.87-5.31,1.56-1.25,2.87-2.97,5.07-3.24.19-.02.46-.08.55-.22,1.2-1.93,3.32-2.51,5.14-3.54.71-.4,1.26-1.08,1.95-1.52,2.1-1.35,4.25-2.62,6.73-3.2.23-.05.39-.43.55-.61,1.01-.22,2.08-.44,3.15-.68,1.57-.34,3.13-.86,4.72-.97,1.26-.09,2.31-.39,3.36-1.05,1.16-.72,2.12-.02,2.09,1.4-.02.88,1.04,1.92,1.9,2.12.87.2,2.07-.06,2.22,1.46.05.49.65.98,1.09,1.35.77.65.48,1.36.08,1.93-1.25,1.8-2.59,3.53-3.87,5.3-.9,1.24-1.72,2.54-2.69,3.72-.63.77-1.53,1.32-2.19,2.08-.67.76-1.3,1.59-1.75,2.49-.93,1.89-.02,3.33,2.46,4.16.33.11.62.37.92.57-.21.25-.37.57-.63.75-2.5,1.76-5.01,3.5-7.53,5.22-1.69,1.16-3.44,2.22-5.05,3.47-.42.33-.73,1.27-.58,1.78.28.99.74,2.08,2.04,2.2.64.06,1.3.01,2.11.01.21-1.43,1.12-2.29,2.51-3.03,1.39-.75,2.58-1.98,3.67-3.17,1.53-1.68,3.55-2.65,5.31-3.99,2.06-1.56,4.26-2.94,6.4-4.39.07-.05.13-.14.2-.15,2.65-.35,4.43-2.47,6.85-3.36,1.66-.61,3.07-1.88,4.61-2.82.53-.32,1.14-.51,1.71-.77,1.66-.76,3.25-1.89,4.99-2.21,1.88-.35,3.05-1.74,4.69-2.36.46-.17.75-.76,1.16-1.11.22-.18.62-.43.79-.35,1.51.77,2.55-.25,3.69-.91.62-.36,1.22-.75,1.86-1.08,1.77-.92,3.49-2.01,5.36-2.65,1.3-.45,2.18-1.28,3.21-2.02.43-.31,1.12-.24,1.7-.35.24-.04.52-.04.7-.17,1.21-.92,2.51-1.56,4.08-1.59.48,0,1.02-.19,1.42-.46,1.68-1.1,3.58-1.54,5.46-2.13,1.73-.55,3.35-1.49,4.97-2.36.34-.18.33-1.03.67-1.22,1.77-.98,1.02-2.95,1.77-4.34.42-.77.45-1.84.04-2.88-.25-.64.45-1.61.29-2.34-.55-2.51.3-4.93.3-7.39,0-.63.46-1.25.65-1.89.18-.63.57-1.28-.1-1.91-.09-.08.07-.53.21-.75.62-.92.58-2.13,1.7-2.92.58-.41.36-1.88.6-2.84.12-.48.46-.9.79-1.52,1.08,1.46,1.89,2.85,3.44,3.02,1.96.22,3.84.92,5.87.72.94-.09,2.09-.38,2.85.71.1.15.67-.09.97,0,1.02.31,2.38.39,2.95,1.09,1.24,1.52,3.37.66,4.51,2.06,1.22-.64,1.91.73,2.95.78,1.17.05,2.23.37,3.22,1.06.55.38,1.34.38,2,.64.31.12.54.42.84.65.17-.13.39-.3.6-.47.13.04.26.07.39.11-.13.68-.04,1.54-.43,2ZM388.05,141.12c.25,0,.65-.01.71.11.1.2-.03.51-.07.81.83.11,1.73.23,2.69.35-.1-.17-.22-.38-.39-.66.17.06.27.09.37.13.66.3,1.32.64,2,.87.1.03.46-.4.54-.66.11-.38.07-.81.11-1.56.28.5.5.73.54.99.21,1.33.82,1.77,2.18,1.82,1.16.04,2.32.29,3.45.45,0,1.4-1.29,2.92-2.45,3.26-.64.19-1.25.58-1.78,1-2.08,1.65-4.08,3.38-6.18,5-1.28.99-2.66,1.84-4,2.75-.12.08-.34.17-.35.27-.14,1.61-1.68,1.83-2.62,2.65-.35.31-.68.65-1.03.95-1.3,1.12-2.66,2.2-3.91,3.38-.64.6-1.02,1.49-1.68,2.07-.95.85-1.97,1.68-3.09,2.29-1.86,1-3.3,2.37-4.59,4.02-1.02,1.31-2.11,2.64-3.79,3.24-.11.04-.2.14-.3.22-1.68,1.52-3.38,3.01-5.03,4.56-1.92,1.8-3.91,3.54-5.65,5.5-1.29,1.45-2.58,2.8-4.22,3.84-.53.34-.72,1.19-1.23,1.58-2.5,1.92-4.57,4.22-6.3,6.84-.16.23-.4.42-.62.6-1.67,1.37-3.41,2.66-4.99,4.13-1.22,1.13-2.26,2.47-3.37,3.72-.05.06-.1.18-.15.18-1.79,0-2.22,1.97-3.67,2.5-.49.18-.83.75-1.24,1.15-1.1,1.09-2.22,2.15-3.28,3.28-1.06,1.14-1.99,2.39-3.07,3.5-.62.65-1.45,1.09-2.14,1.68-.8.68-1.6,1.37-2.33,2.12-2.04,2.09-4.11,4.12-6.73,5.51-.44.23-.68.94-1.11,1.07-1.54.45-2.23,1.67-2.99,2.88-.05.09-.21.14-.32.16-1.17.14-1.8,1.16-2.69,1.66-2.01,1.12-3.43,2.73-4.78,4.47-.08.1-.17.19-.27.25-1.7.93-3.36,1.98-5.14,2.74-1.03.44-2.25.43-3.39.62-.28.05-.62-.02-.85.1-1.62.88-3.16.75-4.71-.18-.2-.12-.59.13-.87.09-1.74-.2-3.49-.34-5.21-.66-3.18-.58-6.34-1.25-9.5-1.9-1.45-.3-2.88-.85-4.34-.92-.94-.05-1.79.28-1.94-.89-1.56-.11-3.07.31-4.39-.83-.37-.32-1.04-.25-1.56-.42-1.6-.53-3.27-.92-4.76-1.67-1.81-.91-3.62-1.5-5.66-1.68-1.5-.13-2.97-.72-4.45-1.1-.95-.24-1.89-.53-2.85-.69-1.33-.23-1.89-1.17-2.2-2.29-.44-1.6.07-2.97,1.21-4.13,1.48-1.51,2.97-3.01,4.47-4.5.97-.96,1.99-1.88,2.93-2.87.4-.42.65-.99.99-1.48,1.15-1.64,2.25-3.31,3.48-4.87.43-.54,1.19-.81,1.99-1.33-.42-.13-.64-.21-.95-.31.07-.16.14-.48.22-.49,1.24-.09,1.61-1.32,2.49-1.89.44-.29.58-1.01.94-1.47.62-.78,1.2-1.62,1.98-2.22,2.3-1.77,3.99-4.07,5.72-6.34.08-.1.13-.24.23-.29,2.64-1.41,3.97-4.25,6.38-5.88,1.54-1.04,2.82-2.23,3.72-3.84.22-.4.54-.78.64-1.22.36-1.51,1.94-1.72,2.81-2.7,1.52-1.73,3.26-3.27,4.89-4.9.16-.16.19-.45.33-.64.28-.37.57-.98.92-1.02.96-.12,1.3-.54,1.43-1.46.06-.46.49-.9.84-1.27.73-.76,1.54-1.44,2.28-2.2,1.78-1.83,3.56-3.66,5.28-5.54.4-.44.55-1.09.84-1.68.3.17.58.33.92.52,1.19-1.46,2.36-2.95,3.59-4.39.39-.45.89-.86,1.42-1.13,1.58-.82,2.13-2.55,3.31-3.71.32-.32.34-.94.48-1.41,1.37-.1,1.79.29,1.33-1.88,2.84.39,4.55-.96,5.19-3.26.87-.35,1.54-.49,2.06-.85,1.35-.93,2.64-1.96,3.99-2.98.23.2.53.45,1.08.91-.11-.86-.18-1.43-.25-2,1.39-.13,3.28-1.55,3.71-2.74.04-.11.11-.24.2-.3,1.15-.73,2.32-1.43,3.46-2.17.48-.31.93-.69,1.39-1.03-.14-.08-.28-.15-.42-.23.08-.27.07-.68.25-.79.84-.54,1.74-.99,2.62-1.48.1-.06.26-.08.29-.17.55-1.22,1.68-1.79,2.71-2.49.15-.1.15-.41.24-.6.13-.27.33-.79.41-.77.9.19,1.14-.59,1.63-1.01,1.85-1.56,3.72-3.09,5.59-4.63.06-.05.09-.15.15-.19.63-.46,3.35-.06,3.96.38,1.05.75,1.8,1.97,3.46,1.81.65-.06,1.47.68,2.06,1.23.83.78,1.58,1.06,2.49.15,1.04.97,2.02,1.94,3.07,2.84.86.73,1.71.11,2.54-.18.39-.14.74-.38,1.11-.58.16.18.32.37.48.55-.28.16-.55.32-.95.55.14.09.41.3.72.45.63.3,1.3.52,1.9.86,1.45.81,1.44.83,2.56-.03-.23.37-.46.74-.76,1.23.76.05,1.47.3,2.02.11,1.54-.55,2.33.5,3.33,1.25.54.4,1.38.96,1.84.78,1.38-.52,1.84.2,2.24,1.36.33-.26.57-.44,1-.77.29.78.53,1.41.84,2.22,1.04-.25,2.15-.51,3.23-.77.83,1.72,1.67,3.45,2.63,5.46,1.69-.54,3.43-1.12,5.17-1.65.24-.07.61-.05.81.09,1.38.97,2.94.74,4.48.72ZM400.51,98.52c-.28.46-.98.65-1.54.99.5,1.01.69,1.88-.7,2.45-1.67.68-2.01.65-2.92-.89-.35.11-.65.21-1.12.35.07-.35.11-.56.19-.94-1.32-.13-2.68-.27-3.6-.36-1.06-.45-1.81-.72-2.51-1.08-.5-.26-.98-.6-1.4-.99-.47-.43-.85-.97-1.23.06-.02.05-.71-.07-.72-.13-.07-1.19-.89-1.54-1.85-1.84-.39-.12-.68-.54-1.12-.91-.98.53-1.7.11-2.18-.92-.05-.11-.14-.3-.19-.29-1.43.24-1.84-1.4-3.03-1.65-.41-.09-.74-.56-1.02-.97-.95-.22-2-1.8-2.29-2.87-.29-1.06-1.11-1.97-1.81-3.13v-2.45c-.82.85-1.56.09-2.44.54-1.37.71-.92,1.63-.72,2.48.33,1.41,1.01,2.68,2.05,3.76.29.29.21.95.32,1.56.71.09,1.76.07,1.41,1,.66.62,1.23,1.02,1.61,1.56.65.89.9,2.25,2.49,1.87.09-.02.29.07.32.16.42,1.17,1.4.92,2.74.71-1.68,1.24.03,1.42.06,2.16.35-.18.68-.34,1.27-.65.15.22.46.51.54.85.29,1.36,1.22.61,1.91.61.39,0,.85-.23,1.15-.08,1.06.53,2.07,1.15,3.07,1.79.9.59,1.75,1.3,2.82.18-.03.86,1.27,2.48,1.98,2.3,1.5-.38,2.06.71,2.88,1.48.23-.05.46-.16.69-.15.36.02.95.02,1.04.21.16.34.15.9-.03,1.23-.49.91-1.1,1.76-1.68,2.62-1,1.5-1.39,3.41-3.11,4.47-.39.24-.43,1.05-.55,1.39.48.55.89,1.02,1.3,1.49-.82-.15-1.78-.52-1.93-.31-.46.64-.6,1.5-.81,2.11-.61.95-1.17,1.81-1.7,2.63-.53-.6-.31-1.65.85-2.29-1.3-1.27-2.55-2.48-3.85-3.74-.15.19-.48.62-.9,1.15-.73-.63-1.36-1.2-2.02-1.73-1.05-.86-2.52-1.18-3.14-2.6-.09-.22-.66-.24-1.01-.34-1.58-.47-2.61-1.62-3.72-2.77-.68-.71-1.77-1-2.58-1.61-.77-.58-1.4-1.34-2.13-1.99-.99-.89-1.93-1.79-3.21-2.38-.93-.43-1.52-1.58-2.28-2.38-.25-.26-.6-.43-.83-.7-.3-.34-.53-.74-.95-1.35-.12-.18-.37-.57-.63-.96-.15-.22-.28-.47-.48-.63-.27-.21-.59-.35-.89-.52.17-.28.35-.57.53-.88-.45-.25-.94-.53-1.58-.9.41-.36.71-.63.88-.78-.35-.31-.73-.63-1.1-.96.13-.06.25-.13.38-.2-.16-.51-.32-1.01-.48-1.52-.01-.03-.09-.06-.09-.08.02-.62.22-1.51-.81-1.23-.84.22-1.61.53-2.2,1.54-.63,1.06.56,1.77-.15,2.58.58.1,1.04.17,1.49.25,0,.11-.01.22-.02.33-.55.15-1.1.29-1.65.44,0,.07,0,.14,0,.2.89.06,1.78.12,3.04.21-.84.39-1.33.62-2.09.98,1.68,1.58,1.9,4.23,4.53,4.8-.44,1.19.16,2.11,1.42,2.21.12,0,.27.07.35.15,1.44,1.55,2.88,3.11,4.32,4.67.17.18.34.45.55.5,1.49.31,2.15,1.67,3.24,2.47.79.58,1.83.83,2.72,1.3.47.25,1.01.57,1.24,1,.57,1.07,1.21,1.27,2.13.42.42,1.12.78,2.12,2.14,2.42.58.13,1.12.8,1.53,1.34.72.95,2.18,1.09,2.54,2.45.04.16.77.13,1.06.3.97.52,1.94,1.03,3.27,1.74.08.5.23,1.47.38,2.43-.1.02-.2.04-.3.06l-.27-1.68c-.76.93-.61,2.23-1.99,2.57-.21.05-.26.63-.45.93-1.52,2.39-3.06,4.76-4.58,7.15-.32.51-.61,1.04-1.02,1.73-1.77-.94-3.44-1.82-5.22-2.77-.14.1-.42.31-.47.34-.56-.52-1-1.12-1.59-1.4-.49-.24-.99-.59-1.7-.48-.61.1-1.57-.05-1.9-.47-.89-1.12-2.23-.64-3.27-1.18-1.25-.64-2.64-1.46-3.94-1.4-1.13.05-1.67-.49-2.44-.88-.24-.12-.54-.2-.8-.18-1.38.1-2.38-.65-3.37-1.44-.49-.39-1.03-1.08-1.5-1.04-.89.08-.9-.33-.77-1.07-1.68.27-3.44.9-3.58-1.78-.62.24-1.07.41-1.23.47-1.13-1.12-2.22-2.19-3.37-3.33.39-.25,1.02-.64,1.75-1.1.16-.91.25-2.01.58-3.02.39-1.19-.36-1.77-1.06-2.32-.81-.63-1.78-.89-2.74-.22-.55.39-1.04.86-1.62,1.34-.72-1.15-1.36-2.25-1.21-3.68.05-.43-.47-.9-.53-1.38-.24-1.81-.39-3.63-.62-5.44-.05-.36-.2-.84-.47-1.01-1.18-.77-1.15-2.02-1.37-3.16-.12-.61-.15-1.25-.12-1.87.02-.38.14-.99.38-1.09.48-.2,1.03-.91,1.63-.13.15.19.37.32.61.53.27-.34.51-.66.84-1.08.37.17.77.35,1.19.55.98-2.22,3.55-2.2,5.14-3.81-.11-.17-.35-.53-.74-1.1.67.09,1.1.15,1.63.22-1.2-1.56-1.67-1.75-2.64-1.19.24-.46.47-.93.71-1.4,1.27.9,2.31,1.64,3.46,2.46v-1.63c.08-.03.16-.05.25-.08.21.49.42.98.66,1.54.25-.18.44-.25.44-.33.05-2.02,1.85-1.63,2.97-2.12.68-.3,1.28-.38.99-1.38-.12-.43.14-.96.23-1.45.13,0,.25-.01.38-.02.15.75.3,1.51.49,2.43.52-.36,1.19-.6,1.41-1.05.41-.84,1.02-.91,1.8-1.1.97-.25,1.84-.87,2.76-1.34.06-.03.1-.19.14-.19,1.88.08,2.82-1.82,4.48-2.15,1.1-.22,2.22-.32,3.52-.51-.66.78-1.09,1.3-1.52,1.82.09.17.17.33.26.5.7-1.26,1.67-1.2,2.71-.97.1.02.29-.42.46-.67-.52-.06-.94-.11-1.61-.19,1.18-.88,2.62-1.05,2.47-2.69-.02-.25.42-.72.71-.78,1.9-.42,2.99-2.27,4.87-2.73.13-.03.16-.47.24-.73-.24-.02-.48-.07-.71-.03-.16.02-.31.16-.46.25-.07-.11-.14-.22-.21-.33.39-.23.8-.66,1.16-.62.38.04.88.46,1.03.84.42,1.06,1.66,1.87,1.07,3.26,1.43.77.35,2.85,1.88,3.63.18.09.02.83.02,1.35,1.4.7,2.22,1.87,2.11,3.65-.01.23.41.58.7.7.46.2.99.25,1.31.54.28.35.54.72.86,1.04.51.52,1.06.99,1.58,1.49.49.48.88.97,1.76.61.44-.18,1.11.19,1.96.36.94-.64,1.03-.61,1.94,1.08h-1.52c-.01.09-.03.18-.04.26.58.35,1.15.69,1.64.98.25-.3.46-.54.67-.78.14.15.31.27.41.44.72,1.18,1.88,1.47,3.12,1.4,1.28-.08,2.39.3,3.41.66-.47,1.17-.77,2.2-1.3,3.08ZM405.35,87.38c-.38.68-.76,1.39-.91,2.14-.15.79-.98,2.17-1.7,2.35-.12.03-.32.12-.34.09-.64-.97-1.53-.25-2.29-.39-.95-.17-1.87-.5-2.78-.83-.16-.06-.2-.48-.22-.55-1.86-.36-3.64-.71-5.35-1.04,1.04-1.39-1.17-1.1-1.15-2.03-.88.57-1.68,1.08-2.56,1.65-.24-.44-.38-.72-.6-1.13.7-.06,1.3-.11,2.02-.18v-1.37h-.74c-1.09-1.3-2.04-2.44-3.11-3.72-.28-.68-.57-1.65-1.04-2.52-.79-1.47-1.05-3.12-.76-4.62.26-1.33-.81-1.85-.99-2.83-.06-.32-.19-.63-.29-.94.3.06.59.17.89.17.65,0,1.31-.06,1.96-.09,0-.16-.01-.32-.02-.47-.51-.03-1.03-.06-1.54-.09-.01-.11-.02-.21-.03-.32.7-.15,1.4-.29,2.15-.45-.05.22-.09.39-.13.57.07.04.15.12.21.1.64-.16,1.26-.39,1.9-.49,1.11-.17,2.04-.09,2.65,1.19.29.61,1.18,1.06,1.9,1.31.94.34,1.09.67.26,1.4.41.18.76.33,1.12.48.24,3.28,1.31,4.87,2.55,4.2.75.37,1.43.62,2.02,1.01.49.32.81.92,1.32,1.19.82.43,1.75.62,2.58,1.02,1.14.54,2.36.97,2.73,2.46.14.55.76.98,1.27,1.61-.33.36-.74.69-.98,1.12Z"/>
  <path class="cls-1" d="M124.82,263.01c.64.21,1.59-.51,2.24-.31,1.11.34,1.44-.39,1.99-.93.74-.73,1.51-1.44,2.25-2.17.27-.27.52-.56.76-.86.17-.21.26-.5.46-.67,1.23-1.08,2.46-2.15,3.73-3.18.82-.67,1.66-1.31,2.55-1.88,1.33-.85,2.83-1.47,3.57-3.04.14-.29.54-.5.86-.66.47-.23,1-.34,1.45-.59.68-.38,1.28-.94,1.98-1.26,1.19-.54,2.45-.92,3.66-1.43,2.3-.98,4.58-2.02,6.89-2.97.53-.22,1.33.02,1.73-.29,1.5-1.17,3.17-1.78,5.02-1.99.14-.02.32-.12.39-.24.57-.9,1.12-1.82,1.66-2.72-1.2-1-2.46-1.36-3.83-.94-.64.2-1.18.71-1.82.95-.85.32-1.75.52-2.63.77-.48,0-.98,0-1.41.17-.96.38-1.88.88-2.84,1.29-1.58.67-3.18,1.29-4.75,1.97-.68.3-1.29.75-1.97,1.05-1.17.52-2.41.89-3.54,1.48-.82.43-1.46,1.19-2.26,1.68-1.62.98-3.28,1.87-4.94,2.79-.15.09-.34.12-.51.17-.07-.2-.25-.46-.18-.6.23-.45.54-.86.82-1.29.26-.39.65-.76.73-1.19.51-2.67,1.57-5.02,3.59-6.89.08-.08.15-.22.16-.33.14-1.43,1.52-2.1,2-3.32.38-.95,1.19-1.87,1.18-2.79-.02-1.22.55-.88.95-.85.67-1.12,1.24-2.19,1.92-3.18.53-.77,1.34-1.36,1.78-2.16.78-1.4,1.38-2.9,2.05-4.37.39-.86.6-1.85,1.16-2.57.89-1.15,1.56-2.28,1.93-3.75.38-1.54,1.47-2.89,2.15-4.37,1.11-2.4,2.16-4.83,3.21-7.26.18-.42.11-.95.33-1.33.88-1.56,1.81-3.09,2.75-4.62.12-.2.36-.35.58-.46,1.33-.67,2.91-.28,3.83.29,1.28.79,2.73.26,3.94,1.16.83.62,2.16.59,3.27.83.9.19,1.85.64,2.69.48,1.98-.38,3.62.49,5.38.98.76.21,1.59.21,2.13.28.59.33,1,.64,1.46.8,1.58.54,2.99-.17,4.41-.69.7-.25,1.35-.67,2.05-1.03-.43-.62-.61-1.01-.9-1.27-.27-.25-.65-.48-1-.52-.77-.08-1.55,0-2.33-.06-1.3-.11-2.6-.29-3.9-.45-1.24-.15-2.49-.27-3.72-.5-1.55-.29-3.08-.65-4.61-1.02-1.13-.27-2.5-.29-3.29-.98-.91-.79-1.86-.6-2.78-.86-.3-.09-.61-.15-.91-.25-1.27-.43-2.53-.88-3.81-1.29-1.36-.44-2.72-.85-3.87-1.2-2.07.5-2.54,2.26-3.29,3.64-.98,1.82-1.58,3.84-2.33,5.79-.11.29-.22.6-.24.91-.14,1.76-.4,3.43-2.08,4.51-.46.29-.79.85-1.06,1.35-.31.57-.44,1.25-.74,1.83-.27.52-1.04,1.04-.96,1.44.25,1.34-.62,2.22-1.08,3.22-.52,1.14-1.76,1.95-1.42,3.48.07.3-.21.69-.37,1.02-.66,1.31-1.32,2.62-2.02,3.9-.81,1.5-1.69,2.97-2.48,4.48-.36.68-.45,1.55-.91,2.14-.95,1.22-2.06,2.32-3.1,3.46q.88,1.02-.23,1.7c-.09.06-.18.14-.24.23-1.27,1.74-2.63,3.38-3.33,5.51-.61,1.86-1.57,3.62-2.54,5.33-.76,1.35-1.78,2.55-2.66,3.83-.32.47-.48,1.24-.9,1.41-1.26.49-1.14,1.38-1,2.16-.93,1.22-1.78,2.33-2.62,3.44-.02.03,0,.09,0,.12-.42.78-.74,1.66-1.31,2.32-.46.52-.83.99-.46,1.59.41.64.91,1.45,1.54,1.66Z"/>
  <path class="cls-1" d="M317.04,71.32c.08.09.17.18.25.27-.08.39-.15.79-.23,1.18.68-.64,1.12-1.39,1.63-2.09.13-.17.48-.24.74-.25.29,0,.58.11.86.17-.1-.31-.21-.63-.36-1.08,1.34-.78,2.81-1.64,4.37-2.55-1.27-.89-2.3-.55-3.3.23.49,1.04-.28,1.33-.94,1.17-1.95-.48-2.61,1.38-3.89,2.06-.71.38-.97,1.59-1.48,2.5-1.08-1.13-1.76-.21-2.49.48.12.42.24.84.38,1.33,2.22-.13,3.43-1.65,4.45-3.43Z"/>
  <path class="cls-1" d="M351.99,110.97c-.73-1.29-1.57-2.5-2.43-3.85-.17.02-.52.06-.88.1-.04-.49-.08-.91-.12-1.34.31-.03.56-.05.98-.09-.69-.84-1.26-1.54-1.8-2.21.23.02.58.06.95.1-.19-.92-.38-1.83-.58-2.78-.22.26-.41.49-.68.81-.24-.34-.42-.59-.47-.67.71-.78,1.32-1.46,2.04-2.24-.59-.3-.9-.46-1.25-.63.25-.41.47-.77.75-1.23-.45.07-.77.2-1.07.15-.8-.12-1.3,0-1.55.93-.21.81-.77,1.52-1.08,2.32-.17.43-.26.97-.15,1.4.23.91.62,1.78.93,2.67.04.11.09.26.04.35-.75,1.39.04,2.21,1.12,3-.13.24-.26.48-.4.73.11,0,.23,0,.34,0,.05.4,0,.86.18,1.2.59,1.09,1.91,1.58,2.4,2.77.01.03.08.03.11.06,1.03.83,2.04,1.67,1.65,3.38.52-.17.86-.28,1.24-.4.06.39,0,.81.18,1.06.9,1.23,1.83,2.43,2.81,3.6.49.59,1.04,1.15,1.65,1.61.36.27.94.24,1.31.51,1.08.8,2.32,1.52,3.1,2.56,1.06,1.42,2.91.86,4.01,1.97.24.25.73.63.85.56,1.21-.75,1.59,1.39,2.72.75.61,1.59,2.48,1.11,3.49,2.09.35.34,1,.35,1.48.57,1.01.47,2,.98,3.2,1.57.75-.08,1.82-.2,3.2-.35.16-.62.41-1.59.6-2.29-.79-.41-1.48-.53-1.68-.91-.8-1.48-2.21-1.06-3.32-1-.94.06-1.43-.23-2.08-.76-.49-.4-1.24-.5-1.88-.69-.38-.11-1.06-.06-1.12-.25-.39-1.12-1.22-1.08-2.17-1.16-.59-.04-1.14-.58-1.7-.9-.28-.16-.55-.45-.84-.47-.86-.08-1.59-.24-2.27-.91-.52-.51-1.39-.26-1.87-1.37-.49-1.14-2.1-1.77-3.16-2.69-.67-.58-1.3-1.23-1.86-1.92-.51-.63-.8-1.47-1.39-1.99-1.29-1.13-2.61-2.19-3.48-3.73Z"/>
</svg>