<?xml version="1.0" encoding="UTF-8"?>
<svg id="Livello_1" data-name="Livello 1" xmlns="http://www.w3.org/2000/svg" viewBox="0 0 489 489">
  <defs>
    <style>
      .cls-1 {
        fill: #000;
      }

      .cls-1, .cls-2 {
        stroke-width: 0px;
      }

      .cls-2 {
        fill: #fff;
      }
    </style>
  </defs>
  <path class="cls-1" d="M170.95,296.93c1.35-.58,2.71-1.14,4.05-1.75.75-.34,1.48-.75,2.19-1.18.88-.53,1.74-1.11,2.61-1.67.27-2.18-.8-4.07-1.12-6.09-.21-1.32-1.1-2.54-1.72-3.89-1.25.3-2.47.6-3.69.89-.37.09-.76.13-1.14.2-.22.04-.45.05-.65.13-.94.4-1.88.83-2.81,1.24-.09.04-.18.07-.28.09-.98.14-1.9.41-2.82.85-1.88.9-3.95,1.4-5.77,2.44-1.85,1.05-3.84,1.36-5.92,1.44-.82.03-1.65.29-2.43.57-1.09.39-2.13.93-3.21,1.36-.5.2-1.05.3-1.58.42-1.5.35-3.01.68-4.51,1.05-.36.09-.7.31-1.04.49-.71.37-1.42.73-2.1,1.15-.54.33-1.03.76-1.56,1.11-1.34.9-2.62,1.92-4.05,2.64-2.19,1.1-3.92,2.69-5.51,4.49-1.01,1.14-2.11,2.19-3.07,3.37-.52.64-.86,1.43-1.22,2.18-.53,1.1-1.02,2.23-1.51,3.35-.15.35-.26.73-.39,1.09-.46,1.24-.93,2.46-1.37,3.71-.45,1.28-.87,2.56-1.3,3.85-.14.4-.28.79-.43,1.18-.4,1-.55,2,.05,2.99.08.13.09.3.16.55-1.06.52-1.35,1.51-1.66,2.56-.4,1.35-1.03,2.64-1.52,3.97-.15.42-.19.88-.25,1.33-.04.29.02.61-.08.87-.44,1.09-.36,2.19-.22,3.33.07.56-.26,1.18-.43,1.76-.21.71-.3,1.51-.7,2.1-.7,1.06-1.53,2.06-2.44,2.93-.35.33-1.09.26-1.66.33-1.03.4-1.23,1.41-1.57,2.3-.26.69-.42,1.42-.7,2.1-.42,1.04-.89,2.06-1.36,3.14-.69.29-1.42.6-2.19.93-.5-.4-.95-.76-1.39-1.12-.74-1.73-.34-3.46-.16-5.07.2-.64.36-1.19.53-1.74.17-.54.4-1.07.5-1.63.06-.31-.07-.66-.16-.98-.14-.48-.38-.94-.48-1.43-.16-.78-.21-1.58-.35-2.36-.1-.59.09-1.01.65-1.26.07-1.56,1.24-2.92.66-4.59.22-.14.43-.28.84-.53.16-1.33.33-2.8.53-4.27.05-.35.14-.7.26-1.02.25-.66.54-1.3.79-1.96.3-.81,1.04-1.21,2.23-1.17.36.01.71.05,1.07.08.35.03.7.06,1.21.11.06-.71.11-1.36.14-1.79.69-1.22,1.29-2.31,1.92-3.38.7-1.21,1.44-2.41,2.14-3.62.3-.52.57-1.07.8-1.63.53-1.28,1.11-2.52,2.11-3.52.29-.29.49-.67.7-1.03.66-1.14,1.39-2.24,1.93-3.43.59-1.3,1.35-2.37,2.46-3.29,1.04-.85,1.88-1.94,2.8-2.94.7-.75,1.35-1.54,2.08-2.26.53-.52,1.17-.92,1.71-1.41,1.07-.98,2.14-1.96,3.14-3,.47-.49.98-.8,1.63-.96.86-.22,1.51-.72,2.14-1.38.71-.75,1.69-1.27,2.61-1.8,1.28-.73,2.64-1.28,3.8-2.27.83-.71,1.92-1.17,2.96-1.59,1.12-.45,2.14-1.12,3.43-1.23.88-.08,1.69-.72,2.56-1.02,1.09-.38,2.21-.7,3.33-.98,1.62-.4,3.26-.75,4.89-1.12.04.03.08.06.02.01.08.02.03,0-.02,0,1.07-.69,2.31-.75,3.51-.97,0,0,0,0,0,0,.14.02.32.11.43.06.94-.51,1.94-.74,3-.9.87-.13,1.73-.46,2.54-.83,1.46-.67,2.91-1.34,4.49-1.73.83-.2,1.58-.71,2.37-1.08.51-.72-.14-1.1-.51-1.62.08-.66.17-1.36.26-2.02-.73-.92-1.26-1.86-1.41-3.03-.08-.63-.48-1.24-.78-1.83-.36-.71-.36-1.44-.22-2.18.18-.95.01-1.84-.25-2.77-.22-.79-.18-1.65-.28-2.8-.12-.47-.34-1.28-.54-2.09-.46-1.82-.91-3.64-1.36-5.46-.08-.31-.14-.64-.14-.95.01-1.29-.37-2.48-.75-3.69-.25-.79-.46-1.64-.42-2.44.05-1.11-.55-1.96-.86-2.92-.46-1.41-1.01-2.79-1.52-4.18-.14-.39-.33-.77-.42-1.18-.6-2.7-1.16-5.42-1.76-8.12-.28-1.26-.66-2.49-.96-3.75-.22-.91-.36-1.84-.55-2.75-.2-.98-.36-1.98-.66-2.93-.32-1.03-.43-2.07-.51-3.14-.13-1.77-.4-3.53-.61-5.29-.13-1.09-.28-2.18-.36-3.27-.2-2.54-.36-5.09-.56-7.63-.02-.25-.16-.49-.22-.74-.1-.5-.3-1.02-.24-1.51.14-1.1-.12-2.12-.41-3.15-.14-.49-.29-1-.3-1.5-.06-1.65-.61-3.17-1.18-4.67-.37-.98-.16-1.38.82-1.69,2.58-.8,5.28-1.24,7.73-2.45.54-.27,1.02-.68,1.51-1.04,1.18-.87,2.35-1.22,3.88-.68,1.41.5,2.93.41,4.44-.12,1.73-.6,3.58-.88,5.37-1.32.53-.13,1.05-.3,1.58-.46.49-.16.97-.48,1.47-.49,1.72-.05,3.21-.9,4.85-1.22.16-.03.31-.09.46-.16.94-.43,1.89-.78,2.94-.84.27-.01.53-.23.8-.32.71-.21,1.41-.42,2.13-.6.62-.16,1.25-.28,1.88-.41,1.13-.22,2.27-.44,3.41-.64.34-.06.71-.07,1.06-.05.75.04,1.39-.14,1.97-.65.2-.17.53-.25.8-.28,1.37-.1,2.68-.48,3.99-.85,2.31-.64,4.62-1.21,7.01-1.47.55-.06,1.08-.4,1.62-.58.48-.17.97-.3,1.45-.45,1.84-.58,3.67-1.24,5.54-1.72,1.46-.37,2.98-.49,4.47-.78.94-.18,1.87-.46,2.8-.7.19-.05.36-.15.55-.18,1.29-.22,2.59-.4,3.88-.65.72-.14,1.42-.4,2.14-.57,2.17-.53,4.26-1.25,6.29-2.18.67-.3,1.42-.43,2.15-.58,1.76-.38,3.53-.71,5.29-1.1,1.04-.23,2.05-.56,3.08-.8.62-.15,1.25-.26,1.89-.3,1.32-.09,2.47-.64,3.63-1.22.66-.33,1.34-.65,2.04-.85,1.89-.53,3.82-.97,5.71-1.5,1.99-.55,3.95-1.2,5.95-1.72,1.77-.46,3.58-.79,5.37-1.18.56-.12,1.11-.3,1.68-.4,1.97-.33,3.98-.53,5.92-.97,1.51-.34,3.1-.48,4.5-1.3,1.11-.65,2.3-1.11,3.66-1.08.59.01,1.2-.42,1.8-.64,1.22-.43,2.44-.84,3.65-1.28.45-.16.88-.36,1.3-.57,2.65-1.34,5.53-1.81,8.4-2.36,1.58-.3,3.11-.83,4.66-1.27.12-.03.25-.15.36-.14,1.86.28,3.43-.76,5.13-1.17,1.59-.39,3.24-.66,4.76-1.19,1.81-.63,3.76-.96,5.4-2.09.49-.34,1.11-.53,1.7-.66,1.72-.38,3.26-1.4,5.08-1.45.29,0,.57-.11.85-.19,1.2-.36,2.4-.74,3.71-1.14.02-.05.18-.23.16-.4-.09-.93,0-1.96-.39-2.76-.35-.72-.51-1.41-.57-2.15-.08-.96-.1-1.93-.09-2.89,0-.71.2-1.43.14-2.12-.12-1.23.1-2.37.58-3.49.63-1.48,1.23-2.98,1.87-4.46.14-.32.38-.59.56-.86.89-.11,1.62.06,2.17.71.96,1.13,2.1,2.13,2.51,3.63.08.31.15.61.22.92.42,2.02.32,4.09.52,6.13.09.93.27,1.86.5,2.77.11.45.42.85.7,1.4.87-.15,1.68-.27,2.49-.44.8-.16,1.6-.37,2.39-.56,0-.08,0-.15,0-.23.3.16.66.28.9.5.79.74,1.72,1.12,2.78,1.26.25.03.52.1.75.21.98.47,1.99.73,3.08.65,1.15-.09,2.04.54,2.92,1.1.73.46,1.43.67,2.28.4.78-.25,1.5-.09,1.98.62.38.55.66,1.17,1.03,1.73.43.63.84,1.32,1.4,1.82,1.13,1,.92,2.21.64,3.4-.17.74-.26,1.43-.11,2.18.27,1.39.51,2.8.67,4.21.12,1.08.11,2.19.09,3.28-.02,1.42.38,2.74.75,4.08.08.28.22.6.15.84-.26.85.04,1.59.33,2.35.47,1.27.91,2.55,1.35,3.84.09.27.14.57.13.86-.03.57.05,1.08.41,1.55.16.22.23.53.26.81.1,1.15.34,2.26.8,3.34.29.69.32,1.49.49,2.23.32,1.34.69,2.68.98,4.03.11.5.02,1.04.11,1.54.56,3.08,1.26,6.14,1.68,9.24.32,2.36,1.08,4.64,1.02,7.08-.03,1.25.51,2.51.76,3.78.47,2.33.93,4.67,1.37,7.01.5,2.63.98,5.26,1.46,7.89.01.06.03.13.03.19-.03,2.28.77,4.43,1.14,6.64.18,1.05.5,2.07.75,3.1.08.34.18.68.22,1.03.26,2.14.49,4.29.79,6.43.09.61.47,1.18.6,1.79.34,1.61.61,3.24.92,4.86.11.59.27,1.18.4,1.79.99,2.37,1.38,4.92,1.86,7.52.57.7.89,1.56,1.01,2.55.16,1.36.38,2.74,1.24,3.89.3.4.69.74.92.99-.16,1.42-.3,2.69-.41,3.67-.7.68-1.21,1.18-1.72,1.68.03.06.07.12.1.17-.53.1-1.06.19-1.75.32-.29-.42-.59-.85-.85-1.22-.5.04-.82.03-1.13.1-3.42.68-6.86,1.31-10.26,2.09-1.5.34-2.94.98-4.41,1.48-.21.07-.42.16-.64.23-1.23.4-2.46.77-3.68,1.2-1.89.65-3.74,1.42-5.66,1.98-2.23.65-4.51,1.14-6.77,1.69-.94.23-1.89.43-3.08.7-.56.28-.34,1.12-.5,1.75-.36,1.38-1.89,2.28-3.15,1.62-.66-.35-1.21-.89-1.96-1.45-.44.11-1.12.27-1.8.44-.05-.02-.09-.05-.07-.04-.03-.01.02,0,.07.03-1.47.35-2.93.75-4.41,1.04-1.58.31-3.19.46-4.76.82-.86.19-1.69.6-2.48,1.02-1.17.63-2.43.82-3.67,1.07-.69.23-1.38.45-2.07.69-2.23.78-4.46,1.53-6.67,2.36-1.66.62-3.27,1.34-4.91,2-.33.13-.67.24-1.01.33-1.56.41-3.14.73-4.67,1.23-1.16.37-2.22,1.01-3.36,1.44-2.05.77-4.12,1.47-6.3,1.82-.66.1-1.32.27-1.94.51-1.43.55-3.09.42-4.35,1.46-.12.1-.29.18-.44.19-1.45.12-2.64.94-3.94,1.47-.5.21-1.06.31-1.59.42-1.52.32-3.03.67-4.57.9-1.08.16-2.19.14-3.33.2-.14.18-.3.37-.48.58-.08,0-.18.01-.27.03-.7.09-1.4.17-2.09.29-1,.18-2.03.32-2.99.63-1,.32-2.02.71-2.87,1.29-.82.56-1.61.91-2.59.9-1.06,0-2.12,0-3,0-.6.19-1.03.39-1.48.46-1.49.23-3,.36-4.49.62-.72.13-1.39.5-2.1.67-1,.24-2.01.52-3.03.55-1.53.05-2.88.67-4.31,1.05-1.5.4-3.02.72-4.54,1-.91.17-1.84.19-2.77.28-.1,0-.2.01-.28.06-1.85,1.14-4.07.77-6.05,1.46-1.45.5-3.02.64-4.53.96-.31.06-.65.13-.92.29-.95.56-2,.54-3.04.63-.76.07-1.56.15-1.97.79-2.41.55-4.72,1.04-7,1.62-1.24.31-2.43.84-3.67,1.15-1.5.38-3.01.69-4.54.91-1.84.27-3.53.88-5.22,1.63-1.02.45-2.15.72-3.25.88-1.15.17-2.28.35-3.37.79-.49.2-1.08.2-1.62.19-.87,0-1.51.38-1.93,1.08-.69,1.15-1.76,1.54-2.99,1.72-.1-.12-.23-.21-.26-.32-.42-1.47-1.68-1.9-2.89-2.45-.79-.35-1.52-.85-2.29-1.25-.95-.49-1.9-.97-2.87-1.39-1.47-.63-2.98-1.18-4.23-2.22-.14-.12-.32-.25-.38-.41-.37-1.09-.78-2.17-1.06-3.28-.3-1.23-.46-1.35-1.62-.84-.15.07-.3.12-.45.18-.21.38-.42.74-.63,1.1-.04-.05-.07-.1-.11-.15-.71.35-1.41.72-2.12,1.06-.34.16-.71.27-1.06.39-.24.08-.51.1-.75.19-1.21.49-2.41.99-3.62,1.48-.21.08-.45.15-.66.12-1.1-.17-1.9.48-2.77.96-.36.2-.74.41-1.13.53-1.16.36-2.34.65-3.5,1.02-.45.14-.87.4-1.27.67-1.31.88-2.93,1.18-4.12,2.29-.34.32-.87.41-1.29.66-.8.46-1.58.96-2.61,1.59-1.23-.1-2.29,1.01-3.54,1.64-1.03.52-2,1.15-3.24,1.88-.61.49-1.49,1.14-2.31,1.86-1.36,1.19-2.62,2.51-4.03,3.62-1.28,1.01-2.35,2.24-3.73,3.16-.88.59-1.4,1.73-2.08,2.62-.1.13-.12.3-.21.44-1.56,2.44-3.15,4.85-5.18,6.95-.91.95-1.67,2.05-2.49,3.09-.09.12-.11.29-.15.39.03.12.02.22.06.24,1.08.75,1.23,2.15,2.12,3.05.14.14.17.41.22.63.66,2.67.42,5.29-.34,7.92-.37,1.29-.52,2.66-.67,4-.05.45.17.94.3,1.54-.14.09-.34.21-.54.34-1.15.24-2.3.53-3.48.14-.29-.1-.62-.09-.95-.13-.31,1.36-.59,2.64-.9,4.02-.42.76-.75,1.76-1.4,2.47-.7.76-1.64,1.35-2.56,1.83-.55.29-1.11-.19-1.51-.63-.26-.28-.48-.61-.83-1.07.04-.94.09-2.02.14-3.11.01-.22.05-.45.02-.66q-.3-1.96.63-3.86c-.09-.42-.18-.84-.28-1.3-.66.06-1.36.24-2.03.17-.67-.07-1.32-.39-1.95-.58-.62-1.68-.15-2.64,1.25-3.61.51-2.42,1.02-4.86,1.5-7.15.78-.76,1.44-1.32,2.01-1.98.3-.35.52-.84.6-1.29.14-.72.4-1.29,1.12-1.56.81-.31,1.61-.63,2.41-.94h0c-.08-.03-.16-.07-.33-.14.29-.2.52-.36.78-.55.1-.47.2-.97.31-1.48.14-.67.46-1.23.84-1.81.79-1.22,1.39-2.56,2.11-3.83.56-1,1.17-1.97,1.76-2.96.13-.22.3-.42.43-.65.86-1.61,2.03-3.01,3.33-4.26.86-.82,1.9-1.45,2.83-2.19,1.53-1.23,3.06-2.47,4.56-3.73.91-.77,1.82-1.55,2.67-2.38.8-.79,1.64-1.5,2.66-2.02.62-.31,1.12-.86,1.7-1.27.31-.22.66-.39,1.01-.55.82-.36,1.66-.65,2.46-1.04,1.22-.59,2.41-1.24,3.6-1.88,1.22-.65,2.42-1.33,3.65-1.98,1.14-.6,2.27-1.23,3.45-1.74,2.6-1.12,5.15-2.29,7.34-4.15.4-.34.98-.46,1.48-.67l.04-.05ZM169.18,231.23h0c.07.47.11.96.21,1.43.28,1.28.43,2.63.94,3.82.42,1,.84,1.97.88,3.04.04,1.14.41,2.12.94,3.09.18.34.28.72.38,1.1.22.78.33,1.6.65,2.33.54,1.22.86,2.48,1.03,3.8.14,1.12.34,2.23.61,3.33.21.87.57,1.7.86,2.56.63,1.87,1.26,3.74,1.17,5.77.68.46.96,1.09.93,1.85-.03.88-.11,1.76.76,2.43-.36.68-.68,1.3-1,1.91-.05-.01-.1-.03-.15-.04.02.44.05.88.08,1.47.47-.13.81-.23,1.09-.31.14-.49.17-.93.38-1.22.29-.39.68-.83,1.11-.95.98-.29,2.47.38,2.91,1.33.69,1.49,1.26,3,1.09,4.74-.1,1.03.1,2.11.29,3.14.18.96.53,1.9.8,2.85.03.12.03.26.04.39.05.61.15,1.22.15,1.83.01,1.19-.4,2.36-1.9,2.22-.6-.06-1.21-.08-1.81-.06-.29,0-.58.14-.87.22-.19,1.54.35,2.78.94,4.16,1.08-.57,2.13-.96,2.97-1.62.78-.61,1.49-.83,2.62-.5.3.43.78.96,1.07,1.58.5,1.04,1.27,1.95,1.45,3.14.27,1.78.55,3.56.77,5.02.59.97,1.01,1.68,1.41,2.33-.73.96-1.46,1.35-2.54.97-.54-.19-1.14-.24-1.72-.27-.31-.01-.63.16-.97.26.06.52.12.9.16,1.28.21,1.85,1.08,3.14,2.99,3.59.25.06.49.18.71.31,1.4.84,2.79,1.72,4.21,2.53.35.2.81.18,1.25.26.06-.3.12-.42.11-.54-.06-1.81-.3-3.6-.88-5.33-.16-.49-.27-.99-.4-1.49-.25-.99-.08-2.08-.74-2.97-.07-.09-.08-.26-.05-.38.23-.85-.05-1.64-.23-2.47-.48-2.26-.88-4.54-1.32-6.81-.26-1.33-.51-2.66-.8-3.99-.13-.59-.33-1.17-.53-1.74-.2-.58-.64-1.14-.64-1.71,0-2.21-.95-4.2-1.25-6.35-.27-1.98-1.16-3.88-1.67-5.83-.51-1.96-1.42-3.78-1.71-5.82-.19-1.4-.64-2.76-.97-4.14-.51-2.12-1.03-4.25-1.54-6.39-.22-.17-.45-.34-.63-.48.04-.46.1-.78.08-1.1-.07-.99-.15-1.98-.26-2.97-.07-.6-.21-1.19-.31-1.79-.11-.73-.19-1.47-.31-2.2-.13-.85-.3-1.69-.43-2.54-.04-.25,0-.51,0-.77-.18-.2-.35-.38-.54-.58.26-1.06.09-2.04-.22-3.06-.29-.97-.22-2.01-.75-2.96-.25-.45-.17-1.07-.25-1.62-.03-.26-.05-.52-.12-.76-.2-.74-.39-1.48-.63-2.2-.41-1.25-.16-2.66-1-3.8-.13-.17-.07-.49-.08-.74,0-.48.07-.98,0-1.45-.24-1.53-.51-3.05-.8-4.57-.23-1.21-.54-2.4-.77-3.6-.19-.96-.32-1.94-.5-3.07,0-.49.02-1.16,0-1.83-.03-.81-.18-1.62-.12-2.41.14-1.75.29-3.48-.3-5.18-.08-.23-.06-.51-.06-.76,0-1.53,0-3.07,0-4.65-1.08-.22-2.04-.5-2.97.17-.56.4-1.11.28-1.6-.14-.27-.23-.5-.5-.77-.74-.67-.61-1.29-1.27-2.03-1.79-.81-.57-1.75-.96-2.59-1.5-.76-.49-1.54-.74-2.44-.65-.48.6-.3,1.26-.18,1.88.35,1.77.77,3.53,1.14,5.29.07.34.08.71.09,1.06.14,2.93.27,5.87.41,8.8.03.67.22,1.33-.11,2-.11.21.02.56.09.84.14.59.34,1.17.45,1.76.09.5-.04,1.08.16,1.52,1.01,2.27.64,4.84,1.57,7.12.18.44.32.92.37,1.39.3,3.1,1.21,6.04,2.13,8.99ZM252.02,172.11c.09.05.17.09.26.14.01-.03.02-.06.03-.09-.1-.01-.2-.03-.3-.04.14-.07.28-.17.43-.21,1.69-.4,3.39-.78,5.08-1.21,1.5-.38,2.88-1.05,4.31-1.63,2.13-.87,4.39-1.45,6.62-2.04,1.49-.39,3.07-.49,4.57-.86,3.69-.91,7.43-1.73,11.02-2.95,1.83-.62,3.73-.77,5.54-1.36,2.26-.73,4.78-.48,6.9-1.79.08-.05.19-.02.28-.06,1.33-.49,2.68-.93,3.98-1.48.75-.32,1.44-.74,2.17-.55,1.85-.83,3.58-1.59,5.49-1.88.79-.12,1.65-.22,2.34-.59,1.51-.82,3.18-1.07,4.79-1.45,2.73-.64,5.49-1.11,8.24-1.65.18-.04.35-.16.53-.22,1.21-.4,2.42-.79,3.63-1.19.02.06.04.12.06.18.12-.15.24-.29.28-.35.47,0,.86.05,1.23,0,.99-.16,1.98-.33,2.95-.56.94-.22,1.87-.47,2.78-.77,1.65-.53,3.27-1.14,4.93-1.64,1.23-.37,2.36-1.06,3.69-1.09.06,0,.12-.04.18-.07.76-.43,1.49-.91,2.27-1.27,1.31-.6,2.62-1.34,4-1.6,1.07-.2,1.94-.55,2.83-1.11.59-.37,1.26-.67,1.92-.89.82-.28,1.68-.43,2.5-.67,1.02-.3,2.01-.66,3.03-.97.45-.14.92-.29,1.38-.29,1.42-.01,2.83.01,3.89-1.32-1.4-.79-2.74-1.6-4.4-1.59-.71,0-1.39-.1-2.03-.51-.44-.28-1.03-.45-1.56-.45-1.79,0-3.58.09-5.53.16.29.97.53,1.75.74,2.46-.21.41-.42.71-.52,1.04-.28.88-.84,1.36-1.78,1.35-.48,0-.86.15-1.17.56-.18.24-.51.37-.79.52-.65.35-1.32.68-1.97,1.03-.51.27-1.01.55-1.54.83-1.11-.48-2.16-.94-3.28-1.43.56-1.02,1.59-1.77.98-3.11-.69.22-1.36.42-2.01.64-1.41.49-3.01.38-4.28,1.35-.25.19-.69.14-1.03.23-.71.19-1.42.39-2.12.62-.37.12-.7.36-1.07.47-2.1.63-4.2,1.24-6.3,1.86-1.12.33-2.23.67-3.36.97-1.53.4-3.06.78-4.6,1.13-.88.2-1.79.26-2.67.47-1.66.4-3.31.87-4.96,1.3-.6.15-1.22.26-1.84.38-.32,0-.59.2-.89.3-2.26.75-4.52,1.47-6.78,2.2-1.93.62-3.86,1.25-5.79,1.86-1.82.57-3.62,1.21-5.46,1.66-2.01.5-4.06.79-6.09,1.22-2.94.63-5.88,1.25-8.8,1.97-1.85.45-3.65,1.09-5.49,1.6-3.01.84-6.04,1.64-9.05,2.47-.72.2-1.4.52-2.12.7-2.48.63-4.97,1.2-7.45,1.83-1.99.51-4.06.7-5.97,1.57-.89.41-1.89.61-2.86.85-2.35.56-4.55,1.64-6.98,1.91-.15.02-.3.12-.44.18-1.43.61-2.89,1.06-4.45,1.27-1.85.24-3.7.35-5.5,1.04-2.25.86-4.64,1.36-6.97,2.02-.71.2-1.41.44-2.14.59-2.42.5-4.85.96-7.26,1.48-.62.13-1.19.52-1.82.67-1.76.41-3.41,1.16-5.26,1.31-1.37.11-2.71.54-4.06.82-.63.13-1.26.35-1.9.37-1.27.05-2.35.63-3.5,1.06-1.3.49-2.58,1.06-3.92,1.41-1.71.46-3.5.63-5.15,1.35-.61.27-1.3.37-1.97.48-1.4.23-2.81.38-4.2.62-1.69.3-3.36.78-5.09.55-1.07-.14-1.96.18-2.85.67-.97.54-1.94,1.04-3.08.97-.47.42-.92.81-1.51,1.32.85.72,1.6,1.38,2.48,1.78.96.43,2.07.51,2.87,1.3.09.08.23.1.35.16.59.26,1.17.53,1.76.78.38.16.76.37,1.16.43,3.67.61,7.33.51,10.97-.26,1.54-.32,3.07-.74,4.6-1.11l.05-.05c.6-.14,1.2-.26,1.79-.42,1.34-.35,2.66-.78,4.01-1.08,1.34-.3,2.71-.49,4.07-.72.73-.13,1.46-.22,2.18-.38.78-.18,1.53-.48,2.31-.61,1.18-.18,2.38-.2,3.56-.39,1.36-.22,2.72-.51,4.06-.82,1.22-.28,2.42-.65,3.64-.95.98-.24,1.9-.56,2.65-1.28.2-.19.49-.3.76-.38,1.57-.47,3.14-.91,4.71-1.38.83-.25,1.64-.7,2.48-.75,1.03-.06,1.84-.55,2.73-.91.38-.15.73-.6,1.08-.59,1.1.05,1.98-.49,2.93-.86.62-.24,1.24-.53,1.89-.67,1.23-.27,2.49-.41,3.71-.69,1.34-.31,2.72-.52,3.9-1.36.56-.4,1.27-.61,1.94-.84,1.68-.57,3.37-1.08,5.05-1.63,1.43-.47,2.73-1.33,4.3-1.36ZM349.84,240.36c.15.28.37.55.44.85.42,1.71.79,3.42,1.19,5.14.08.35.21.68.31,1.02.15.52.32,1.04.43,1.57.15.72.15,1.5.41,2.18.4,1.06.7,2.13.96,3.22.17.69.22,1.4.36,2.1.46,2.27,1.41,4.42,1.45,6.8.01.63.25,1.53,1.03,1.92,2.77-.64,5.55-1.16,8.26-1.94,2.69-.78,5.31-1.81,7.79-2.67.45-.28.73-.54,1.07-.65,2.02-.66,4.04-1.31,6.08-1.91,1.6-.47,3.23-.86,4.84-1.29.4-.11.78-.28,1.18-.38.46-.11.93-.15,1.4-.22.47-.07.97-.05,1.41-.22,1.12-.43,2.22-.93,3.6-1.52.28-.28.4-.9.22-1.56-.27-.98-.62-1.94-.87-2.92-.53-2.03-1.04-4.06-1.52-6.1-.32-1.34-.34-2.76-1.15-3.97-.12-.17-.12-.43-.15-.65-.17-1.51-.28-3.03-.53-4.52-.28-1.72-.69-3.42-1.04-5.13-.23-1.14-.6-2.28-.64-3.43-.05-1.49-.37-2.86-1.04-4.17-.1-.19-.13-.44-.12-.65.09-1.82.08-3.62-.85-5.25-.02-.8-.13-1.58-.26-2.36-.1-.61-.24-1.2-.34-1.81-.3-1.94-.59-3.88-.89-5.83-.12-.77-.25-1.53-.4-2.29-.37-1.89-.74-3.79-1.13-5.68-.11-.53-.32-1.05-.39-1.58-.21-1.73-.38-3.46-.56-5.19-.11-1.11-.21-2.23-.37-3.89-.46-.98-1.02-2.5-1.15-4.18-.13-1.64-.47-3.26-.74-4.88-.31-1.87-.62-3.75-.99-5.61-.32-1.58-.71-3.14-1.09-4.7-.29-1.19-.56-2.39-.93-3.55-.47-1.5-1.11-2.96-1.54-4.48-.36-1.26-.52-2.57-.75-3.78-.25-1.67-.49-3.25-.72-4.82.04,0,.08-.01.12-.02-.14-.31-.28-.63-.41-.92-.32-.06-.64-.12-1-.18-.22.24-.48.45-.64.72-.85,1.43-1.69,2.87-2.51,4.32-.43.75-.68,1.64-1.24,2.27-.72.82-1.41,1.63-1.96,2.6-.68,1.21-1.2,2.47-1.64,3.78-.12.37-.26.74-.44,1.07-1.03,1.82-2.24,3.56-3.07,5.46-.88,2.02-2.14,3.73-3.47,5.43-.73.94-1.56,1.81-2.19,2.81-1.21,1.93-2.06,4.11-4.05,5.45-.1.07-.17.2-.24.3-.73,1.1-1.41,2.23-2.19,3.29-1.72,2.3-3.5,4.56-5.23,6.81-.47,1.81-.34,3.65.03,5.41.66,3.12.84,6.33,1.75,9.4.05.18.04.39.02.58-.09.93-.19,1.86-.28,2.72.48,1.44,1.24,2.72,1.1,4.24-.02.24.15.5.18.75.22,1.99,1.31,3.77,1.22,5.85-.03.83.4,1.68.64,2.52.16.55.41,1.07.52,1.63.45,2.3.82,4.62,1.3,6.92.4,1.94.9,3.87,1.36,5.8-.02.05-.05.1-.04.08,0,.02.01-.03.03-.08ZM186.48,198.36c1.18.18,2.37.33,3.55.56,1.23.24,2.56.35,3.63.92,1.08.57,2.21.84,3.33,1.19.25.08.49.18.73.26,1.32.39,2.64.76,3.96,1.15.46.14.9.31,1.35.47.24.08.47.21.71.25.75.12,1.46.32,1.92.92,1.19.19,2.35.33,3.48.56.85.18,1.73.38,2.5.76,1.31.66,2.54,1.47,3.81,2.21.19.11.38.24.59.3.86.27,1.72.54,2.6.77.81.21,1.67.28,2.43.59,1.19.49,2.34,1.01,3.61,1.35,2.05.55,4.02,1.37,6.05,1.99,2.47.75,5.04,1.09,7.6,1.41.43.05.84.23,1.25.39.33.13.62.36.95.45,1.27.35,2.53.81,3.9.42.26-.07.57.07.86.11.57.08,1.15.16,1.72.22.58.06,1.17.04,1.74.16,1.68.35,3.35.73,5.01,1.12.72.17,1.39.17,2.06-.22,1.36-.8,2.35-.44,2.97,1.05.27.66.67,1.07,1.44,1.1.34.01.69.17,1.02.3,1.72.64,3.43,1.3,5.15,1.94,1.42.52,2.84,1.01,4.26,1.52,1.39.49,2.76,1.06,4.18,1.45,1.17.32,2.41.37,3.48,1.07.36.24.83.3,1.27.42,1.18.31,2.36.59,3.53.92.4.11.83.27,1.12.54,1.01.95,2.35,1.17,3.57,1.62,1.2.45,2.47.71,3.73.98,1.83.4,3.63.85,5.36,1.57.89.37,1.8.7,2.69,1.09.74.32,1.46.69,2.17,1.07,1.26.67,2.52.8,3.92.32.8-.28,1.25-.89,1.85-1.36.86-.68,1.73-1.36,2.51-2.13.71-.7,1.3-1.51,1.94-2.27.7-.84,1.42-1.66,2.08-2.53,1.06-1.38,2.06-2.8,3.14-4.16,1.48-1.87,3.02-3.7,4.52-5.55.53-.65,1.01-1.34,1.52-2.01.37-.48.78-.94,1.11-1.45.58-.92,1.23-1.76,2.04-2.51,1.03-.96,2.11-1.94,2.89-3.09.73-1.07,1.49-2.09,2.35-3.05.43-.48.85-.97,1.18-1.52.63-1.05,1.42-1.91,2.56-2.54.42-.74.73-1.68,1.36-2.31.83-.84,1.34-1.66,1.25-2.88-.06-.79.55-1.67,1.16-1.7.86-.03,1.37-.45,1.77-1.13.34-.58.7-1.15,1.07-1.7.31-.45.57-1.04,1-1.27,1.09-.58,1.45-1.69,2.15-2.54.77-.94,1.49-1.92,2.22-2.88.54-.71,1.06-1.43,1.58-2.15.23-.31.44-.63.65-.96,1.1-1.67,2.15-3.37,3.32-5,.69-.97,1.67-1.74,2.33-2.72.99-1.5,1.82-3.12,2.71-4.69.33-.59.61-1.21.94-1.81.82-1.49,1.65-2.98,2.46-4.47.2-.37.35-.77.48-1.16.54-1.62,1.14-3.25,2.35-4.48,1.41-1.44,2.33-3.14,3.02-5,.23-.63.53-1.25.88-1.82.92-1.51,1.88-3,2.86-4.56-.16-1.34-.51-1.91-1.47-1.95-1.16-.04-2.34-.06-3.48.12-1.65.27-3.26.77-4.9,1.11-.88.18-1.83.1-2.67.38-1.71.57-3.36,1.31-5.04,1.96-.6.23-1.22.42-1.84.63-1.86.64-3.75,1.19-5.57,1.94-2.26.93-4.47,1.99-6.85,2.64-.67.18-1.3.54-1.95.81-.77.31-1.54.64-2.33.89-.6.2-1.23.3-1.86.43-.18.04-.39-.04-.57,0-1.48.33-2.96.68-4.44,1.01-2.17.49-4.34.99-6.52,1.47-1.07.23-2.16.41-3.23.64-.5.11-.98.31-1.47.44-1.06.26-2.15.47-3.2.76-1.96.54-3.91,1.13-5.86,1.68-.78.22-1.57.38-2.35.57-1.5.36-2.99.72-4.49,1.08l-.03-.04s.04.03.04.03c-.06.08-.11.19-.18.22-1.14.5-2.25,1.11-3.44,1.45-2.11.61-4.24,1.13-6.39,1.54-2.37.45-4.66,1.37-7.12,1.31-.22,0-.44.1-.65.17-.91.3-1.83.61-2.73.93-1,.35-1.98.78-3,1.05-2.18.57-4.38,1.06-6.57,1.6-.9.22-1.77.53-2.66.78-1.4.39-2.81.73-4.19,1.15-.74.22-1.43.57-2.15.85-1.17.45-2.33.92-3.51,1.34-1.1.38-2.38.11-3.35,1.01-.33.31-.86.45-1.33.56-2.04.46-4.1.87-6.14,1.33-.27.06-.51.25-.76.38-.57.29-1.12.64-1.72.85-.91.32-1.87.5-2.79.82-1.51.53-2.97,1.27-4.51,1.66-2.15.55-4.38.81-6.55,1.29-1.28.28-2.71.46-3.73,1.18-1.71,1.19-3.71,1.44-5.52,2.25-1.13.51-2.41.69-3.59,1.12-1.54.56-3.06,1.22-4.57,1.85-2.27.95-4.58,1.74-7.04,2.07-2.33.31-4.64.76-6.95,1.17-1.17.21-2.34.49-3.51.71-1.6.31-3.22.54-4.82.9-2.17.49-4.33,1.07-6.49,1.61-1.35.34-2.69.68-4.03,1.02-.46.12-.77.33-.6,1.04,1.19.42,2.47.86,3.74,1.32.85.32,1.69.68,2.53,1.03h0ZM177.63,199.7c.11.73.18,1.21.25,1.69.42,3.1.84,6.2,1.26,9.29.06.45.13.9.22,1.34.3,1.51.76,3,.86,4.52.1,1.5.33,2.95.65,4.4.52,2.4.99,4.81,1.51,7.22.3,1.41.65,2.8.97,4.21.09.41.06.87.24,1.22.61,1.17.39,2.38.37,3.04.81,4.79,1.53,9.06,2.28,13.52.2.49.57,1.18.74,1.9.63,2.6,1.19,5.22,1.79,7.82.12.53.33,1.04.49,1.56.64,2,1.37,3.97,1.89,6,.62,2.4,1.04,4.85,1.59,7.28.36,1.61.8,3.2,1.18,4.81.39,1.67.69,3.36,1.12,5.02.26,1.02.78,1.99,1,3.01.46,2.15.82,4.31,1.19,6.48.2,1.14.28,2.3.51,3.44.44,2.18.94,4.35,1.45,6.52.15.62.38,1.24.65,1.82.41.87.69.99,1.61.82.28-.05.55-.2.83-.26,1.04-.23,2.07-.53,3.12-.65,1.29-.15,2.54-.34,3.78-.75,1.33-.44,2.62-1.13,4.09-1.05.12,0,.28-.02.37-.1.88-.77,2.05-.72,3.07-1.03,1.41-.43,2.9-.58,4.33-.95,1.93-.5,3.84-1.1,5.77-1.63.46-.13.95-.15,1.43-.2.57-.06,1.16-.04,1.71-.18,1.66-.4,3.31-.82,4.94-1.29,1.72-.49,3.57-.52,5.16-1.45.13-.07.32-.02.48-.06,2.29-.53,4.58-1.07,6.87-1.58.85-.19,1.71-.32,2.57-.45.5-.07,1.03,0,1.52-.11,1.04-.23,2.05-.56,3.09-.8.87-.19,1.76-.31,2.65-.45.96-.15,1.93-.24,2.87-.46.9-.21,1.75-.62,2.65-.82,2.21-.48,4.44-.87,6.65-1.32.88-.18,1.74-.42,2.82-.69.1-.25.34-.65.38-1.06.05-.64,0-1.3-.1-1.93-.26-1.56-.6-3.11-.87-4.67-.35-2.04-.69-4.08-1-6.12-.26-1.71-.48-3.43-.73-5.15-.05-.32-.08-.64-.16-.95-.51-2.04-1.09-4.06-1.54-6.11-.54-2.49-.99-5-1.47-7.5-.11-.57-.31-1.13-.31-1.7-.02-2.1-.62-4.07-1.21-6.05-.11-.36-.23-.72-.38-1.07-.19-.44-.47-.84-.61-1.29-.65-2.02-.91-4.13-1.68-6.13-1.19-3.1-2.07-6.3-2.88-9.52-.31-1.24-.84-2.43-1.27-3.64-.38-1.07-.85-2.11-1.1-3.21-.47-1.97-2.03-3.54-3.98-3.88-1.24-.22-2.46-.51-3.69-.79-1.26-.28-2.5-.63-3.77-.87-1.21-.22-2.44-.3-3.65-.5-1.02-.16-2.12-.22-3.03-.65-.94-.44-1.86-.4-2.81-.52-1.09-.15-2.18-.32-3.23-.61-1.96-.53-3.91-1.13-5.85-1.74-3.42-1.07-6.82-2.17-10.23-3.26-.34-.11-.66-.25-.99-.38-1.08-.4-2.18-.76-3.25-1.21-1.1-.46-2.15-1.03-3.26-1.48-.95-.39-1.95-.65-2.92-1-1.81-.65-3.6-1.33-5.4-1.99-.06-.02-.13-.02-.19-.03-.95-.18-1.92-.32-2.85-.57-1.06-.27-2.1-.62-3.13-.97-1.74-.59-3.41-1.34-5.26-1.62-1.19-.18-2.35-.62-3.53-.93-.44-.11-.89-.18-1.33-.28-.47-.11-.98-.14-1.4-.36-1.32-.67-2.79-.72-4.17-1.14-.18-.06-.39-.08-.58-.05-.38.06-.75.18-1.16.28ZM305.24,238.6c-.72-.04-1.48-.17-2.22-.58-1.32-.74-2.66-1.43-4.01-2.09-1.6-.78-3.22-1.5-4.84-2.24-.2-.09-.44-.23-.64-.2-1.27.18-2.27-.64-3.42-.88-1.22-.25-2.4-.67-3.61-.99-.56-.15-1.28-.08-1.66-.42-.64-.58-1.41-.76-2.14-1.08-2.68-1.15-5.39-2.19-8.25-2.81-.31-.07-.61-.22-.92-.32-1.7-.59-3.41-1.17-5.12-1.75-1.25-.43-2.5-.86-3.75-1.28-1.01-.34-2.01-.7-3.04-.99-.43-.12-.95-.26-1.32.2.43,1.46.85,2.89,1.26,4.31.13.46.2.94.37,1.39.44,1.16.92,2.31,1.37,3.47.07.18.06.38.09.57.34,2.03.63,4.07,1.53,5.97.44.92.69,1.94,1,2.92.41,1.26.81,2.53,1.2,3.79.45,1.45.97,2.87,1.3,4.35.36,1.6.54,3.23.79,4.85.13.86.22,1.72.37,2.57.1.54.3,1.05.42,1.58.14.61.19,1.24.35,1.84.51,1.81,1.21,3.58,1.56,5.41.45,2.34.63,4.74.92,7.11.02.19.04.39.08.58.34,1.44.7,2.88,1.02,4.32.12.53.08,1.1.21,1.62.24,1.04.59,2.05.81,3.09.26,1.23.45,2.47.66,3.71.3,1.76,1.62,2.59,3.3,2.02,2.86-.97,5.83-1.38,8.79-1.82,1.43-.21,2.9-.12,4.29-.71.64-.27,1.37-.33,2.06-.5.59-.15,1.2-.26,1.77-.48,1.93-.75,3.73-1.85,5.81-2.24,2.03-.37,3.87-1.41,5.95-1.68.94-.12,1.82-.72,2.76-.83,1.22-.15,2.23-.69,3.32-1.17,1.29-.57,2.66-1,4.04-1.3,2.28-.5,4.36-1.5,6.47-2.43.26-.12.53-.27.81-.32,1.04-.18,2.02-.47,2.5-1.15,1.2-.31,2.21-.44,3.11-.82,1.44-.61,2.9-1.03,4.46-1.25,1.03-.15,2-.67,3-1.05.47-.18.92-.44,1.39-.62.48-.18.99-.31,1.48-.45,1.09-.3,2.16-.76,3.27-.86,1.96-.17,3.62-1.15,5.44-1.69.68-.2,1.3-.62,1.95-.94.06.06.13.13.19.19.17-.4.5-.81.49-1.2-.04-.96-.17-1.94-.37-2.88-.5-2.31-1.05-4.6-1.61-6.9-.18-.73-.44-1.44-.66-2.17.08-2.91-.86-5.68-1.73-8.4-.75-2.34-1.4-4.7-1.93-7.09-.34-1.56-.35-3.2-.64-4.78-.41-2.19-.97-4.35-1.45-6.52-.17-.79-.22-1.6-.41-2.38-.35-1.37-.86-2.71-1.15-4.09-.51-2.45-.95-4.92-1.33-7.39-.3-1.97-.42-3.97-.71-5.95-.2-1.41-.53-2.79-.85-4.18-.19-.84-.48-1.66-.76-2.6-.59-.39-1.07-.21-1.39.61-.16.41-.32.85-.6,1.19-1.36,1.68-2.74,3.34-4.14,4.99-1,1.18-2.01,2.36-3.04,3.51-.6.67-1.28,1.26-1.86,1.94-.64.76-1.21,1.58-1.82,2.38-1.12,1.46-2.23,2.92-3.35,4.37-1.43,1.86-2.89,3.71-4.3,5.59-.81,1.08-1.56,2.21-2.35,3.31-.35.5-.69,1.02-1.11,1.46-1.02,1.08-2.15,2.05-2.94,3.33-.15.24-.39.43-.6.62-1.92,1.73-3.84,3.45-5.9,5.31ZM186.98,291.91c-.07-.09-.21-.28-.38-.52-.11.22-.15.44-.24.46-1.05.3-1.85.98-2.74,1.57-1.54,1.02-3.11,2.08-5,2.45-.18.04-.35.17-.51.27-1.45.91-2.91,1.78-4.6,2.18-.18.04-.36.13-.53.22-1.27.67-2.51,1.41-3.82,2-2.04.93-4.2,1.64-5.96,3.11-.21.18-.52.23-.79.34-1.12.48-2.28.88-3.36,1.45-1.59.83-3.12,1.77-4.67,2.68-1.52.89-3.07,1.74-4.54,2.71-1.23.81-2.35,1.79-3.55,2.66-2.45,1.78-4.67,3.86-7.13,5.64-1.17.84-2.17,1.92-3.2,2.94-.62.61-1.2,1.27-1.71,1.96-1.15,1.56-2.24,3.15-3.35,4.74-.07.1-.1.24-.15.35-.21.44-.43.88-.64,1.32-.05-.01-.09-.03-.14-.04v1.25c.58-.36,1.17-.57,1.53-.98.76-.88,1.39-1.86,2.07-2.8,1.33-1.83,2.19-4.01,4.12-5.38.73-.52,1.4-1.12,2.09-1.69.4-.33.79-.66,1.18-1.01.43-.38.84-.79,1.27-1.18.84-.75,1.68-1.5,2.52-2.24.41-.36.84-.7,1.26-1.06.34-.29.67-.59.98-.91.54-.56,1.06-1.09,1.83-1.38,1.08-.41,2.11-.94,3.14-1.46,1.07-.53,2.11-1.1,3.17-1.64,1.25-.64,2.46-1.39,3.63-2.12,1.18-.73,2.51-1.25,3.59-2.15.11-.1.3-.1.45-.16.68-.29,1.36-.58,2.05-.86.53-.22,1.07-.43,1.62-.61,1.15-.38,2.34-.61,3.44-1.17,1.12-.57,2.29-1.04,3.47-1.46.81-.29,1.69-.34,2.5-.62.56-.2,1.02-.76,1.58-.88,1.2-.25,1.98-1.05,2.78-1.84.18-.18.39-.43.61-.45,1.18-.12,2.01-.88,2.93-1.51.55-.38,1.14-.76,1.77-.98.52-.18.7-.49.82-.95.18-.71.39-1.42.62-2.26ZM180.11,276.58c-.9-.03-1.38.61-2.03.9-1.21.55-2.49.95-3.76,1.37-1.53.51-3.07,1-4.61,1.46-.99.29-2,.72-3,.72-1.25,0-2.34.33-3.44.82-.2.09-.43.15-.65.2-1.42.29-2.85.56-4.27.86-1.58.34-3.15.71-4.73,1.07-.71.16-1.44.27-2.14.47-.86.25-1.69.57-2.53.86-1.96.68-3.81,1.56-5.48,2.8-.49.36-.96.76-1.49,1.07-1.15.68-2.34,1.31-3.48,1.99-.52.31-.95.78-1.48,1.08-1.2.68-2.43,1.3-3.6,1.91-.27.52-.51.96-.74,1.4.05.07.1.14.14.2.3-.1.64-.15.9-.32,1.19-.76,2.65-1.09,3.59-2.25.04-.05.11-.07.17-.1.8-.47,1.65-.86,2.39-1.41,1.25-.93,2.65-1.43,4.13-1.79,1.16-.28,2.39-.39,3.46-.87.89-.39,1.75-.79,2.7-1.01,1.1-.26,2.18-.73,3.28-.79,2.98-.18,5.61-1.43,8.32-2.44,1.73-.64,3.31-1.67,5.17-1.94.15-.02.29-.14.44-.2.46-.19.92-.41,1.39-.57,1.52-.51,3.05-.97,4.56-1.49,1.03-.35,2.06-.73,3.06-1.17.84-.37,1.64-.84,2.55-1.32-.07-.69,1.25-.6,1.17-1.52ZM108.36,327.24c-.3,1.34-.59,2.68-.9,4.02-.14.59-.3,1.18-.49,1.76-.39,1.18-.74,2.39-1.25,3.52-.42.93-.53,1.82-.37,2.88.75.37,1.48.79,2.25,1.1.86.35,1.72.09,2.56-.17.6-.18.63-.76.83-1.21.05-.11.18-.19.24-.3.19-.4.42-.8.53-1.22.17-.68.25-1.38.37-2.08.19-.24.4-.48.57-.7-.03-.35-.05-.64-.07-.9.22-.43.58-.82.61-1.23.07-.95.28-1.83.6-2.73.21-.6.04-1.34.04-2.05-1.55-.39-3.11-.78-4.61-1.16-.3.17-.53.29-.89.49ZM129.32,344.52c-1.12-.65-2.2-1.27-3.19-1.84-.49-.07-.88-.07-1.24-.19-1.32-.46-2.09-.16-2.61,1.13-.26.65-.37,1.37-.63,2.02-.52,1.34-1.1,2.65-1.69,4.07.53.19.91.38,1.3.45,1.87.31,3.77.46,5.51,1.35.33.17.74.15,1.07.21.65-.41.65-.99.65-1.58,0-.38-.07-.85.12-1.12,1-1.38.34-2.95.7-4.5ZM348.89,132.64c-.21-.69-.4-1.18-.5-1.69-.18-.88-.35-1.77-.43-2.67-.08-.9-.18-1.82-.06-2.71.21-1.58-.2-2.83-1.58-3.84-.28.22-.58.45-.81.63-.13.86-.24,1.62-.35,2.38-.1.69-.24,1.39-.29,2.08-.12,1.72.32,3.39.54,5.07.07.56.17,1.16.94,1.57.63-.78,1.86,0,2.53-.83ZM116.12,319.85c.68-.49.75-1.39,1.07-2.18.66-1.6,1.43-3.16,2.17-4.72.19-.4.49-.76.69-1.16.17-.34.26-.72.4-1.1-.73-.21-1.14-.05-1.33.51-.3.85-.54,1.71-.85,2.55-.48,1.26-.93,2.53-1.9,3.56-.65.69-1.24,1.48-1.29,2.53-.03.62-.21,1.24-.31,1.86-.05.32-.06.64-.1.96.1.03.2.05.31.08.58-.84.84-1.81,1.14-2.89ZM121.73,359c1.49-1.82,1.74-3.2.83-4.35-.91.8-1.27,2.57-.83,4.35ZM347.46,138.31c.5-.2,1.02-.4,1.6-.63-.06-.4-.1-.7-.14-1.04h-1.65q-.26.99.19,1.67ZM180.86,271.91c.11-.77-.27-1.31-1.13-1.61-.04.61-.08,1.2-.14,1.95.52-.14.9-.25,1.26-.35ZM124.45,303.62c.8.03,1.31-.48,1.4-1.4-1.37.52-1.45.61-1.4,1.4ZM130.35,297.58c-.09-.08-.18-.17-.27-.25l-.78.83c.07.07.14.13.2.2.28-.26.56-.52.84-.78ZM129.03,332.85c.07.05.14.1.21.15.07-.14.14-.28.2-.42-.05-.03-.09-.06-.14-.08-.09.12-.18.24-.28.36ZM131.62,296.37l.04.13c.08-.03.17-.05.25-.08-.01-.04-.03-.09-.04-.13-.08.03-.17.06-.25.09Z"/>
  <path class="cls-1" d="M170.9,296.98l-.16-.09s.01-.03.02-.05c.06.03.12.06.18.08l-.04.05Z"/>
  <path class="cls-1" d="M163.54,279.26h0s0,0,0,0Z"/>
  <path class="cls-2" d="M347.46,138.31q-.46-.68-.19-1.67h1.65c.05.34.09.64.14,1.04-.58.23-1.1.43-1.6.63Z"/>
  <path class="cls-2" d="M124.45,303.62c-.05-.8.03-.88,1.4-1.4-.1.93-.6,1.43-1.4,1.4Z"/>
  <path class="cls-2" d="M130.35,297.58c-.28.26-.56.52-.84.78-.07-.07-.14-.13-.2-.2l.78-.83c.09.08.18.17.27.25Z"/>
  <path class="cls-2" d="M129.03,332.85c.09-.12.18-.24.28-.36.05.03.09.06.14.08-.07.14-.14.28-.2.42-.07-.05-.14-.1-.21-.15Z"/>
  <path class="cls-2" d="M131.62,296.37c.08-.03.17-.06.25-.09.01.04.03.09.04.13-.08.03-.17.05-.25.08l-.04-.13Z"/>
  <path class="cls-2" d="M252.02,172.12c.1.01.2.03.3.04-.01.03-.02.06-.03.09-.09-.05-.17-.09-.26-.14h0Z"/>
  <path class="cls-2" d="M160.04,280.24s.1.03.02,0c.06.05.02.02-.02-.01,0,0,0,0,0,0Z"/>
  <path class="cls-2" d="M349.85,270.7s-.1-.04-.07-.03c-.02-.01.02.01.07.04h0Z"/>
  <path class="cls-2" d="M349.84,240.36c-.02.05-.04.1-.03.08-.01.02.01-.03.04-.08,0,0,0,0,0,0Z"/>
  <path class="cls-2" d="M186.48,198.36h0s0,0,0,0Z"/>
  <path class="cls-2" d="M124.26,336.24h0s0,0,0,0Z"/>
  <polygon class="cls-2" points="300.84 160.83 300.8 160.81 300.83 160.84 300.84 160.83"/>
  <path class="cls-1" d="M264.5,188.88c.38-.67.29-1.39,0-2.16-.46-1.19.1-2.26,1.28-2.73.63-.25,1.28-.46,1.64-1.11.07-.13.22-.24.36-.32,1-.53,1.97-1.12,3.01-1.55,1-.41,2.07-.64,3.12-.94.15-.04.33-.03.48.02,1.25.36,2.95,1.42,2.99,3.25.04,1.89-.41,3.65-1.06,5.38-.59,1.58-1.46,2.92-3.15,3.58-.52.2-.93.67-1.4,1-1.97,1.41-2.95.97-4.65-.23-.77-.55-1.4-1.36-1.93-2.15-.36-.53-.43-1.25-.69-2.05ZM271.08,190.78h0c.99-.69,1.54-1.77,2.3-2.66.9-1.04,1.16-2.32,1.15-3.58-.33-.35-.57-.61-.72-.78-2.5-.75-4.14.44-5.46,2.11q-1.33.14-1.75.84c.05.34.1.65.14.97.14,1.15,1.69,2.92,2.82,3.12.49.09,1.01-.01,1.52-.03Z"/>
  <path class="cls-1" d="M297,189.27c-2.33-.12-4.07-1.19-5.11-3.35-.18-.37-.41-.73-.67-1.06-.53-.68-.66-1.46-.68-2.28-.05-1.99.76-3.6,2.16-4.99.56-.56,1.21-.76,1.92-.76,1.32,0,2.65.15,3.97.13,1.49-.03,2.79.47,4.03,1.2.73.43.77,1.21.93,1.94.47,2.01-.61,3.55-1.59,5.1-.71,1.12-1.4,2.26-2.44,3.14-.72.62-1.54.93-2.53.93ZM296.31,186.38h1.24c.36-.3.73-.57,1.05-.89.31-.32.6-.66.83-1.04.24-.4.35-.87.59-1.27.94-1.57.6-2.76-.61-3.26h-5.45c-.8.82-.99,1.8-.38,3.04.68,1.36,1.54,2.5,2.74,3.41Z"/>
  <path class="cls-1" d="M327.07,169.05c.7.1,1.41.14,2.1.31,1.58.39,2.5,1.61,2.41,3.26-.07,1.41-.25,2.82-.39,4.23-.02.16-.05.34-.14.46-1.08,1.41-2.1,2.89-3.88,3.53-.69.25-1.33.15-2.06-.03-2.5-.62-4.04-2.55-5.91-4.04-.46-.37-.62-.86-.4-1.38.27-.68.55-1.38.96-1.98,1.03-1.51,2.5-2.62,3.92-3.7.66-.5,1.78-.41,2.7-.56.22-.04.45,0,.68,0,0-.02,0-.05.01-.07ZM322.89,175.56c.74,1.5,1.81,2.48,3.49,2.53.46-.27.86-.47,1.23-.73.49-.35,1.39-3.44,1.12-3.97-.23-.45-.6-.82-.87-1.18-2.91-.25-4.58.87-4.96,3.34Z"/>
  <path class="cls-1" d="M204.94,292.82c-.27-.42-.49-.89-.82-1.26-.48-.54-.64-1.11-.39-1.79.35-.98.28-1.97.1-2.97-.13-.73-.14-1.48-.27-2.21-.28-1.55-.6-3.1-.9-4.65-.14-.7-.34-1.39-.39-2.1-.06-.9-.5-1.57-1.05-2.23-.25-.31-.43-.69-.55-1.08-.3-.95-.54-1.91-.8-2.87-.44-1.65-.89-3.29-1.3-4.95-.17-.72.02-1.35.79-1.73.16.03.35.05.54.1,1.18.31,2.26.13,3.35-.48,1.59-.89,3.31-1.42,5.18-1.39.56,0,1.12-.22,1.67-.36.71-.18,1.42-.38,2.12-.59.4-.12.8-.25,1.2-.38,1.44-.48,2.88-.96,4.32-1.42.27-.09.57-.07.86-.1.39-.03.79,0,1.16-.1,1.78-.44,3.59-.82,5.27-1.59.09-.04.17-.13.26-.13,1.56-.05,2.9-.86,4.36-1.23,2.09-.53,4.18-1.03,6.28-1.53.31-.07.64-.08.96-.09,1.17,0,2.24-.19,3.37-.64,1.16-.46,2.53-.48,3.81-.56,2.1-.13,4.2-.08,6.3-.24,1.12-.08,1.8.41,2.46,1.19,1.08,1.28,1.2,2.91,1.68,4.4.31.94.42,1.94.61,2.91.15.73.29,1.45.43,2.18.04.22.12.44.14.66.25,2.15.48,4.3.75,6.45.24,1.98.52,3.96.78,5.95.11.8-.08,1.5-.54,2.2-.79,1.18-1.85,2.03-2.95,2.86-.03.02-.05.04-.08.05-1.88.63-3.73,1.42-5.65,1.84-1.52.33-2.95.8-4.4,1.32-1.45.52-3,.78-4.51,1.15-.15.04-.35,0-.46.08-1.17.85-2.53.86-3.89.94-2.81.16-5.61.39-8.35,1.13-.99.27-2.05.23-3.06.41-.85.15-1.68.42-2.53.61-1.16.26-2.32.53-3.5.75-1.27.23-2.55.42-3.83.59-1.27.17-2.56.24-3.83.45-.84.14-1.68.4-2.48.72-.8.32-1.53.52-2.22-.25ZM246.4,282.55c.35-.08.6-.21.28-.72-.37.17-.72.34-1.08.5l.02.22.74.04.03-.03ZM208.27,265.85h0c-.28.07-.55.15-.83.21-1.64.35-3.33.47-4.86,1.23-.39.19-.72.49-1.14.78.23.63.42,1.15.62,1.7.57-.18.99-.31,1.41-.44.75.43.89,1.1.93,1.84.07,1.51.08,3.03.24,4.54.08.77.43,1.52.7,2.39.52-.05,1,0,1.37-.16.92-.42,1.87-.41,2.85-.41,1.2,0,2.39-.13,3.39-1.17-.17-1.97-.34-4.03-.51-6.08,0-.06-.04-.12-.05-.19-.28-1.22-.57-2.45-.83-3.67-.16-.75-.67-1.06-1.41-.88-.62.15-1.25.22-1.88.33ZM230.18,276.15h.08c-.07-1.11-.03-2.25-.22-3.34-.36-2.15-.37-4.35-.93-6.48-.03-.12,0-.26,0-.39-.03-.67-.09-1.34-.09-2.01,0-.86.04-1.72.07-2.58.01-.32.05-.65.09-1.21-2.43.87-4.82,1.09-6.89,2.03-.93.22-1.77.41-2.6.63-1.31.34-2.64.65-3.93,1.06-.51.16-.94.58-1.45.91.19,1.2.36,2.24.53,3.28.19,1.15.34,2.3.57,3.44.22,1.04.42,2.09.82,3.07.45,1.09.68,2.11.28,3.28-.2.58-.21,1.29-.09,1.89.35,1.66.83,3.3,1.28,5.05.37.05.7.13,1.03.14.57.01,1.15.03,1.72-.04,1.18-.15,2.42-.18,3.5-.6,1.33-.52,2.63-1.06,4.04-1.32.79-.15,1.55-.45,2.31-.7.6-.2.73-.63.63-1.24-.15-.86-.2-1.73-.33-2.59-.12-.76-.28-1.51-.43-2.27ZM231.96,259.88c.17,2.2.57,4.37.25,6.57-.04.31.02.64.08.96.14.86.42,1.72.44,2.58.03,1.91.01,3.81.67,5.65.09.24.1.51.16.76.37,1.56.75,3.12,1.13,4.72.73-.07,1.43-.11,2.12-.21,2.11-.3,4.22-.63,6.33-.94.34-.05.72,0,1.03-.11,1.5-.55,2.98-1.15,4.37-1.7.55-.61.19-1.13.05-1.64-.08-.31-.27-.59-.31-.9-.21-1.73-.41-3.46-.58-5.19-.31-3.02-.87-5.98-1.9-8.85-.64-1.8-2.44-2.72-4.28-2.27-1.44.35-2.9.62-4.36.86-.95.16-1.87-.08-2.71-.55-.9-.51-1.66-.43-2.5.25ZM213.11,280c-.38-.43-.91-.27-1.46-.13-.66.16-1.32.29-1.98.43-1.01.21-2.03.42-3.04.61-.52.1-.73.42-.65.9.18,1.14.39,2.27.61,3.4.17.9.26,1.81.71,2.64.22.4.39.83.57,1.21.29-.03.42-.04.55-.06,1.07-.14,2.24-.06,2.73-1.37.03-.08.14-.13.21-.19,1.37-1.25,1.99-2.81,1.88-4.66-.05-.87-.09-1.73-.14-2.78ZM251.85,269.18c.77-1.68.77-1.73.29-3.36-.05-.15-.08-.31-.1-.47-.27-2.61-1.13-5.07-1.88-7.51-.78-.49-1.45-.43-2.18.14.14.39.25.79.41,1.16.63,1.42,1.04,2.87,1.16,4.43.07.97.45,1.93.69,2.89.07.31.18.62.17.93-.02.97.34,1.46,1.44,1.79ZM228.43,285.66c.17.68.61.58.98.61,2.25.14,4.42-.46,6.6-.84,1.25-.22,2.46-.72,3.7-1.03.97-.25,1.96-.41,2.94-.61.59-.12,1.06-.39,1.39-1.04-.29-.06-.49-.13-.7-.13-.93.02-1.87,0-2.8.11-1.21.14-2.41.45-3.62.55-1.25.1-2.28.53-3.14,1.46-.31.34-.76.55-1.11.79-.7-.35-1.27-.63-1.97-.98-.72.35-1.51.73-2.28,1.11ZM251.27,271.65c.14,1,.24,1.82.37,2.64.13.83.48,1.16,1.24,1.12.35-1.61-.16-3.01-.96-4.52-.31.37-.5.58-.65.75ZM249.24,281.14c1.2.24,2.18-.37,2.4-1.39-.42-.02-.82-.05-1.3-.08-.34.45-.67.89-1.1,1.46Z"/>
  <polygon class="cls-1" points="188.21 190.22 188.19 190.15 188.26 190.17 188.21 190.22"/>
  <path class="cls-1" d="M169.18,231.23h0s0,0,0,0Z"/>
  <path class="cls-2" d="M271.08,190.78h0s0,0,0,0Z"/>
  <path class="cls-2" d="M246.36,282.58l-.74-.04-.02-.22c.35-.16.71-.33,1.08-.5.33.51.07.64-.28.72l-.06-.03.03.06Z"/>
  <path class="cls-2" d="M208.27,265.84h0s0,0,0,0Z"/>
</svg>