<?xml version="1.0" encoding="UTF-8"?>
<svg id="Livello_1" data-name="Livello 1" xmlns="http://www.w3.org/2000/svg" viewBox="0 0 274.41 274.41">
  <defs>
    <style>
      .cls-1 {
        fill: #000;
      }

      .cls-1, .cls-2 {
        stroke-width: 0px;
      }

      .cls-2 {
        fill: #fff;
      }
    </style>
  </defs>
  <path class="cls-1" d="M163.18,130.24c-.17.25-.32.48-.49.72v1.19c.24.39.48.8.77,1.27.4.14.71.71,1.36.53.2.28.58.42.64.83.53.23.7.85,1.24,1.12.5.26.83.78.99,1.37.07.26.3.45.5.64.22.21.38.48.6.7.34.34.67.67.62,1.21,0,.07.08.14.1.21.17.7.58,1.31.8,2,.17.53.45,1.02.63,1.55.19.57.18,1.19.34,1.78.12.42.15.86.21,1.25l-.72.72c.4.45.08.82-.15,1.18-.16.25-.37.48-.52.68-.17.87.41,1.42.78,2.03.18.3.47.52.59.88.09.25.29.47.65.52.08.41.17.84.27,1.37.43.33,1,.68,1.47,1.14.23.22.63.19.73.63.05.23.44.37.67.56.52.43.87,1.05,1.51,1.34.07.03.16.11.18.18.24.97,1.27,1.2,1.77,1.92.07.1.3.09.45.12.59.93,1.46,1.59,2.2,2.37.64.68,1.12,1.46,1.48,2.32.17.12.37.22.51.38.41.46.94.76,1.45,1.09.06.04.19.02.22.07.34.51.92.69,1.39,1.02.76.53,1.49,1.04,1.96,1.92.29.56.86,1,1.38,1.41.8.62,1.56,1.25,2.12,2.12.17.26.5.42.77.62.15.11.39.17.46.31.28.55.83.87,1.13,1.42.15.28.39.66.86.6.21.31.67.3.84.73.18.44.64.69,1.09.81.44.12.82.34.99.69.18.36.47.5.75.71.28.2.52.41.75.7.37.47.75,1,1.36,1.24.05.02.08.09.12.12.32.17.24.73.72.72.19.29.37.6.58.88.13.18.29.36.47.47.93.58,1.75,1.37,2.47,2.33.35.47.75.91,1.16,1.33.6.62,1.24,1.21,1.65,1.99.05.1.15.19.24.24.7.39,1.08,1.05,1.43,1.72.06.12.15.26.27.31.9.4,1.39,1.33,2.26,1.78.24.13.45.44.54.71.21.58.68.91,1.12,1.23.55.4,1.05.81,1.38,1.41.08.14.24.25.36.37.61.6,1.18,1.24,1.53,2.04.05.12.2.2.3.29v.89c.21.1.43.2.67.3v.46c.05.07.07.12.1.16.41.47.81.93.97,1.59.09.4.34.78.56,1.14.29.46.5.96.6,1.47.06.34.54.48.37.89.34.51.29,1.14.5,1.69.1.28,0,.63.02.94.02.41-.09.83.15,1.23.1.17.09.49,0,.67-.28.57-.1,1.17-.16,1.75-.02.17,0,.35-.06.49-.16.39-.47.69-.51,1.18-.04.39-.46.74-.55,1.14-.07.31-.53.22-.44.58-.59.13-.68.76-1.08,1.09-.41.35-.78.76-1.15,1.14.04.43-.21.61-.53.78-.87.46-1.71.98-2.69,1.22-.25.06-.45.3-.73.5-.56-.18-1.06.34-1.67.36-.61.02-1.22.12-1.8.18-.67-.44-1.37-.62-2.2-.51-.14-.17-.31-.37-.43-.52-.71-.09-1.23-.63-1.93-.53-.33-.41-.66-.82-.98-1.22-.58.02-.9-.33-1.24-.68h-.68c-.07-.06-.13-.11-.19-.17-.72-.74-1.45-1.48-2.35-2.02-.14-.08-.29-.22-.36-.36-.23-.48-.64-.69-1.08-.91-.26-.13-.53-.32-.71-.55-.18-.23-.52-.24-.63-.58-.08-.25-.49-.28-.59-.6-.05-.15-.24-.24-.35-.37-.75-.81-1.57-1.57-2.24-2.44-.57-.75-1.4-1.19-1.96-1.92-.15-.2-.32-.34-.36-.64-.03-.26-.32-.49-.49-.74-.19-.29-.71-.25-.72-.72-.49-.03-.48-.56-.78-.79-.29-.23-.53-.52-.8-.78-.34-.34-.52-.81-1.01-1.05-.29-.14-.38-.58-.3-.95l-.79-.79c-1.15.21-1.56-.86-2.31-1.42-.01-.2-.02-.39-.03-.66-.09.06-.13.11-.19.12-.19.03-.38.05-.6.08-.07-.28-.07-.58-.34-.74-.82-.5-1.49-1.17-2.18-1.82-.77-.73-1.6-1.39-2.41-2.08-.06-.05-.15-.04-.27-.07-.06-.21-.12-.44-.2-.67-.04-.1-.11-.23-.19-.26-.33-.1-.38-.39-.5-.65-.23-.48-.56-.86-1.06-1.1-.22-.11-.41-.27-.6-.42-.37-.3-.66-.67-1.07-.94-.36-.23-.63-.63-.86-1.01-.33-.54-.59-1.1-1.21-1.39-.14-.07-.18-.34-.32-.46-.52-.46-1.04-.94-1.6-1.34-.28-.2-.47-.44-.63-.73-.12-.23-.07-.42.14-.62-.28-.08-.53-.19-.79-.2-.5-.01-.86-.3-1.23-.56-.25-.18-.45-.44-.68-.66-.12-.12-.23-.26-.38-.33-.87-.39-1.49-1.04-1.96-1.87h-.59c-.84-.91-1.73-1.75-2.46-2.72-.48-.63-1.11-1.03-1.7-1.51-.61-.49-1.17-1.07-1.59-1.74-.39-.63-.89-1.17-1.29-1.79-.18-.28-.38-.54-.61-.78-.25-.26-.55-.48-.81-.71-.22-.2-.51-.36-.7-.62-.22-.3-.52-.54-.78-.8-.24-.24-.45-.56-.74-.72-.66-.34-1.18-.82-1.69-1.38h-.91c-.41.25-.86.68-1.38.81-.56.14-1.08.3-1.61.55-.25-.13-.47-.27-.81-.02-.18.14-.56.02-.78.02-.17.09-.29.15-.41.21-.66-.29-1.29-.57-1.94-.85-.02.06-.05.16-.09.26-.38.17-.69-.05-.99-.22-.21-.12-.39-.3-.6-.42-.39-.22-.81-.39-1.23-.56-.39-.15-.71-.5-1.18-.48-.33-.41-.86-.55-1.15-1.05-.24-.42-.48-.92-1.02-1.13-.14-.05-.22-.25-.33-.37-.22-.24-.41-.53-.67-.71-.38-.26-.63-.54-.77-1-.23-.79-.76-1.43-1.23-1.97-.1-.26-.16-.44-.21-.57-.11-.05-.16-.08-.21-.09-.51-.07-.96.15-1.4.35-.54.25-1.06.54-1.69.52-.14,0-.29.13-.49.22-.07.15-.17.37-.27.59-.42.18-.85.39-1.3.03-.27.19-.71.19-.75.68-.78.24-1.63.35-2.29,1.05-.25-.04-.55.09-.84-.12-.33.25-.64.59-1.02.74-.35.14-.78.07-1.22.09-.38.19-.74.47-1.31.18-.4-.21-.93,0-1.35.21-.45.22-.88.48-1.36.11-.9.09-1.81-.18-2.7.14-.15.05-.34.02-.5.03-.44.04-.9-.13-1.31.17-.04.03-.13.03-.17,0-.35-.24-.75-.15-1.14-.18-.06,0-.12-.1-.16-.14-.3.15-.58.3-.92.47-.61,0-1.24.29-1.93.2-.44-.06-.87,0-1.31-.16-.41-.15-.89.1-1.33-.12-.14-.07-.39.09-.59.1-.6.02-1.21,0-1.81.01-.48.01-.91-.13-1.33-.35-.37.24-.81.28-1.18.1-.26-.13-.5-.1-.74-.09-1.21.04-1.26.04-2.16-.37-.47.29-1.01.17-1.53.19-.55.01-1.1-.04-1.64.01-.55.05-.93-.51-1.5-.33-.09.09-.19.19-.31.31h-1.35c-.24-.17-.49-.33-.78-.53-.1.13-.2.26-.33.43-.42-.26-.81-.5-1.19-.73-.35-.09-.73.12-1.06-.18-.1-.09-.36-.07-.5,0-.34.17-.64.07-.99.03-.55-.06-.97-.31-1.47-.56h-.75c-.29-.15-.53-.27-.76-.39-.09-.15-.19-.31-.29-.47-.28.08-.53.16-.78.24-.13.04-.3.15-.38.1-.45-.29-.94-.16-1.4-.15-.4,0-.81-.06-1.11-.24-.49-.29-1.02-.33-1.54-.46-.08-.02-.17-.02-.23-.06-.73-.44-1.55-.72-2.26-1.2-.34-.23-.78-.33-1.19-.45-.63-.19-1.19-.47-1.71-.89-.54-.43-1.15-.82-1.78-1.09-.43-.19-.89-.34-1.34-.5-.59-.21-1.04-.6-1.48-.99-.45-.4-.86-.85-1.22-1.21-.09-.37-.17-.65-.25-.98h-.53c-.5-.51-.95-.98-1.39-1.42-.6.06-.88-.35-1.17-.69-.44-.54-.84-1.11-1.34-1.6-.74-.71-1.56-1.32-2.41-1.89-.14-.09-.25-.24-.32-.32-.08-.34-.15-.63-.2-.84-.27-.22-.47-.4-.68-.57-.24-.19-.53-.33-.71-.56-.17-.22-.2-.54-.32-.81-.09-.2-.21-.38-.39-.68v-.46c-.1-.02-.18-.04-.24-.05-.3-.52-.57-1.04-.89-1.53-.08-.12-.31-.14-.4-.26-.16-.21-.22-.5-.38-.7-.23-.27-.34-.55-.35-.9,0-.12-.12-.24-.2-.35-.21-.3-.38-.61-.31-.95-.66-.84-1.26-1.66-1.41-2.79-.23-.31-.5-.65-.8-1.05v-.69s-.06.01-.09.02c-.15-.4-.31-.79-.45-1.19-.06-.17-.07-.4-.18-.52-.43-.46-.55-1-.52-1.38-.21-.62-.41-1.04-.49-1.48-.05-.28-.2-.49-.31-.74-.09-.22-.2-.45-.22-.68-.05-.53-.24-.99-.53-1.49,0-.16.09-.45-.02-.61-.59-.84-.44-1.94-1.02-2.83,0-.09,0-.23,0-.38.02-.72.02-1.43-.32-2.11-.06-.13-.3-.39-.06-.61-.21-.34-.19-.76-.46-1.11-.28-.35-.39-.82-.37-1.31.04-.93-.27-1.84-.18-2.77.02-.22-.13-.46-.21-.68-.03-.07-.12-.14-.12-.21,0-.84-.31-1.66-.18-2.51.06-.44.14-.86.52-1.2,0-.55-.02-1.12,0-1.69.05-1.27.02-2.55.21-3.8.11-.73,0-1.47.16-2.17.13-.61.12-1.22.16-1.83.01-.24.05-.53.19-.68.5-.51.52-1.17.68-1.8.09-.35.3-.7.54-.97.3-.33.39-.7.48-1.1.02-.1.1-.19.18-.31-.08-.26-.29-.5-.03-.86.51-.72.92-1.51,1.42-2.34-.09-.04-.2-.09-.34-.15v-.54s0-.05.04-.08c.63-.57.88-1.36,1.12-2.12.09-.27.16-.49.33-.73.39-.57.81-1.15.53-1.8.69-.99,1.34-1.86,1.91-2.79.44-.72,1.09-1.28,1.47-2.05.02-.05.07-.09.12-.12.16-.11.4-.17.46-.31.13-.32.17-.68.27-1.13.43-.37.94-.81,1.45-1.25.29-.26.47-.57.58-.97.2-.71.66-1.29,1.17-1.82.92-.97,1.83-1.95,2.75-2.91.17-.18.25-.43.52-.57.21-.11.43-.39.51-.61.11-.3.49-.21.56-.53.03-.13.27-.24.44-.29.41-.12.73-.32.89-.75.06-.17.16-.36.3-.47.8-.64,1.26-1.57,1.94-2.3.15-.16.23-.37.37-.53.21-.24.42-.48.67-.67.23-.17.52-.28.78-.41.21-.92.92-1.45,1.52-2.06.07-.07.25-.06.28-.13.26-.6.9-.87,1.2-1.4.14-.24.33-.32.49-.48.22-.22.5-.34.7-.63.28-.4.71-.71,1.13-.98.42-.27.8-.64,1.32-.75.1-.02.23-.09.26-.18.2-.5.66-.71,1.02-1.04.39-.35.69-.8.99-1.16,1.01-.22,1.95-.66,2.96-.2.45-.35.76-.9,1.37-1.04.09.06.18.12.32.22.51-.5,1.06-.93,1.82-.93.04-.11.08-.21.12-.32.07.07.15.17.19.16.22-.08.49-.13.64-.29.35-.37.95-.5,1.11-1.07.02-.08.18-.11.27-.17.31-.23.61-.46.92-.68.13-.09.27-.19.42-.24.54-.16,1.07-.35,1.62-.44,1.28-.22,2.52-.53,3.7-1.22.37,0,.8-.02,1.23,0,.27.01.53-.08.81.14.14.11.48,0,.73-.04.13-.02.26-.11.39-.1.34.03.67-.04.96-.19.34-.18.7-.12,1.05-.17.81-.11,1.64-.13,2.44-.34.1-.03.19-.1.25-.13.34.05.66.1.99.13.47.05.92.13,1.27.51h1.61c.12-.15.28-.35.42-.53.58.14,1.13.21,1.62.42.26.12.49.1.73.1,1.55.01,3.1.02,4.65,0,.56,0,1.08.13,1.6.29.16.05.33.05.49.06.37,0,.75,0,1.11,0,.21.15.39.32.61.42.26.12.55.22.84.26.55.07,1.1.09,1.6.12.21.22.37.38.57.58,1.12-.14,2.13.57,3.29.52.15.15.31.31.48.49.07,0,.15.02.24.02.73-.05,1.38.16,2.04.49.59.29,1.23.5,1.81.82.38.2.73.44,1.18.5.55.07.93.52,1.42.72.07.03.15.05.24.08.15.59.72.68,1.18.81.35.1.65.22.95.42.35.23.77.35,1.17.5.68.27,1.14.83,1.73,1.23.36.24.63.63,1.12.63.5.61,1.33.73,1.88,1.3.37.38.87.64,1.33.94.06.04.17,0,.28,0,.66.66,1.36,1.29,1.98,2.01.27.31.61.51.86.83.26.33.52.65.79.96.29.34.65.61,1.02.86.45.3.87.67,1.33.96.44.28.75.73,1.25.93.24.6.91.88,1.14,1.51.08.22.26.45.45.58.49.32.9.7,1.22,1.21.17.27.47.46.73.67.6.47,1.02,1.05,1.06,1.86.17.11.34.28.54.33.48.13.76.44,1.03.84.32.49.73.92,1.15,1.43v.24c.3.32.63.6.86.95.21.33.25.77.54,1.06.26.27.57.5.89.78-.05.31-.09.63-.16,1.05.02.03.09.17.17.34.28.11.6.23.87.34.25.62.48,1.18.59,1.73.16.72.65.8,1.19.99.11.21.21.51.41.71.27.28.08.6.19.88.32.73.77,1.39,1.02,2.17.18.55.63.99.69,1.61.02.18.36.3.45.5.25.53.3,1.14.73,1.6.03.03,0,.11,0,.17.06.67.04,1.35.2,1.99.13.54.11.98-.18,1.44-.06.1.02.33.1.45.24.35.25.72.21,1.09-.48.6-.44,1.31-.27,1.93.26.99.53,1.96.47,3-.02.32-.11.66.15.98.1.12.05.39.01.59-.22,1.24-.18,1.23.09,2.24.12.45.07.95.09,1.43-.42.51-.04.98.07,1.47.03.15.11.32.08.46-.19.77-.19.77,0,1.51.04.16.09.39.01.5-.24.31-.12.65-.16.97-.03.27.12.57-.16.8-.04.03-.04.19,0,.25.29.47.11.99.17,1.47-.31.28-.34.62-.36.99-.03.67-.22,1.32-.18,2,.02.31-.26.57-.35.88-.19.67-.14,1.33-.15,1.92-.3.57-.57,1.08-.51,1.67.04.38-.11.71-.25,1.02-.22.51-.38,1.06-.8,1.52.1.59-.17,1.09-.53,1.55-.44.56-.64,1.19-.68,1.84ZM163.59,103.16h-.75c.01.24.02.45.04.72.26-.26.46-.46.86-1.16-.13.12-.2.15-.19.18.01.08.05.16.07.24.03-.1.06-.21-.02.03ZM56.13,92.98s.02-.02.03-.03c-.04-.05-.08-.09-.12-.14-.02.02-.04.04-.05.05.05.04.09.08.21.26.17.51-.08,1-.69,1.63-.16.43-.2.83-.48,1.17-.28.34-.44.77-.05,1.18-.22.45-.43.88-.72,1.49-.05.36-.13.94-.24,1.67-.08.06-.27.23-.46.38.09.55-.2.92-.52,1.21.09.21.12.38.22.5.08.1.24.15.37.23-.24.33-.45.58-.61.86-.17.3-.34.61-.42.94-.09.34-.04.73-.42.91q.38.73.37,2.01c-.13.26-.24.47-.34.65.2.2.38.38.5.5.09.72-.24,1.3-.17,1.93.07.65.01,1.32.01,2.07.09.05.23.13.35.2-.51.67-.3,1.49-.66,2.09.1.24.19.45.28.68.21.53.45,1.05.38,1.66-.02.18-.06.38.1.56.26.29.25.66.24,1.02-.01.54,0,1.09,0,1.64.11.04.21.07.37.13.04.29.13.6.13.92,0,.43.09.6.15,1.17.06.48.54.7.55,1.18-.05.05-.13.11-.15.18-.03.11-.04.23-.02.34.06.32.06.69.24.93.37.48.22,1.01.3,1.67.1.09.29.26.48.44-.13.21-.27.44-.44.73.33.25.75.41.86.68.16.39.53.45.79.75,0,.29-.03.64,0,.97.03.3-.15.63.13.89-.22.29-.13.62-.13.88.2.13.36.23.44.29.11.45.19.82.32,1.34.14.14.36.35.6.6-.03.04-.09.12-.14.19.27.5.63.97.51,1.48.17.28.27.47.39.66.12.18.23.5.37.51.31.02.27.26.34.39.13.26.23.55.26.84.04.35.17.64.43.86.25.22.52.41.78.61.03.32.05.64-.13.97.39.2.77.39,1.12.57.08.24.15.47.23.71-.13.14-.26.28-.44.47.45.36.85.68,1.25,1,.12,0,.23.01.33.02.26.77.86,1.23,1.43,1.72.29.25.57.56.55.99.37.02.45.29.56.53.6.12.91.6,1.31.96-.06.06-.1.1-.17.17.5.79,1.35,1.18,2.05,1.76.12.94.51,1.67,1.52,1.83.11.4.44.55.63.81h.38c.25.25.38.6.73.82.29.18.43.6.67.94.25-.06.51-.12.79-.19.61.29.91.95,1.45,1.37.55.42,1.03.93,1.45,1.32.45-.07.77-.12,1.16-.18.09.14.18.28.26.41h.81c.38.19.68.46,1,.48.41.03.73.21,1.06.38.38.19.81.32,1.11.67.08.09.23.16.35.18.52.08,1.04.13,1.5.19.36.18.66.34,1,.52.32-.3.73-.16,1.1-.14.53.24,1.07.58,1.63.61.71.05,1.33.25,1.94.55.2.1.38.2.62.18.58-.05,1.14.07,1.68.31.22.1.52-.1.71.18,0,0,.18-.16.26-.15.55.07,1.12-.16,1.66.14.14.08.4-.08.58-.13.84.32,1.7.03,2.38.15.29.16.45.25.62.34.33.17.69.16,1.05.18.84.05,1.7-.18,2.52.16.07.03.17.01.25,0,.83-.21.83-.2,1.51-.02.37.1.75.14,1.12.21.26.05.53.1.81.15.04-.04.1-.09.16-.15.06.06.12.11.22.2.1-.06.21-.12.27-.15.17.05.3.12.42.11.55-.02,1.1,0,1.66-.14.82-.2,1.66.1,2.48.2.04,0,.08.07.08.07.55-.21,1.15-.14,1.64-.47.1-.07.28-.02.42,0,.1.01.2.06.31.09.31.08.62.16.93.25.03,0,.05.07.07.11-.11.11-.21.21-.33.33.09.07.17.14.29.23h.76v-.63c.5-.2.94-.48,1.4-.53.78-.09,1.54-.26,2.34-.21.85.06,1.71.01,2.53.01.27-.18.49-.34.76-.52h1.78c.29-.19.53-.36.78-.53h1.39c.22-.44,1.06-.4.9-1.08-.59-.2-1.12-.37-1.65-.55-.46-.09-.95-.08-1.44-.09-.17,0-.37.02-.49-.06-.34-.24-.62-.09-.92.06-.33-.17-.66-.34-.99-.51-.64-.03-1.3.08-1.91-.18-.38.15-.48-.31-.8-.37-.64-.13-1.28-.28-1.93-.3-.48-.02-.93-.11-1.37-.24-.13-.04-.26-.13-.38-.12-.33.03-.58-.13-.85-.25-.22-.09-.44-.18-.66-.28-.29-.14-.57-.3-.88-.46-.14.13-.3.42-.67.26-.15-.15-.32-.3-.47-.47-.4-.46-.96-.59-1.52-.7-.19-.03-.37-.08-.55-.13-.54-.14-1-.38-1.43-.75h-.49c-.71-.2-1.11-.63-1.71-.7-.33-.04-.63-.27-.95-.41,0-.46-.37-.39-.65-.48-.28-.09-.6-.14-.81-.32-.38-.32-.8-.34-1.22-.37-.62-.25-1.2-.55-1.64-1.07-.04-.05-.15-.06-.22-.09-.85-.34-1.66-.84-2.63-.68-.64-.78-1.66-1.07-2.26-1.91-.2-.07-.43-.14-.74-.24-.37-.33-.74-.75-1.3-1.01-.46-.21-1.02-.53-1.1-1.13-.05-.37-.28-.52-.49-.74h-.48c-.32-.3-.56-.67-.91-.82-.73-.32-1.28-.84-1.84-1.38-.27-.26-.61-.44-.95-.68-.06-.31-.41-.45-.58-.69-.17-.03-.32-.03-.43-.09-.94-.51-1.55-1.36-2.03-2.25-.48-.88-1.15-1.44-1.96-1.92-.18-.8-.66-1.34-1.48-1.58-.18-.76-.69-1.27-1.19-1.6-.12-.33-.14-.57-.27-.73-.74-.92-1.24-2-2.08-2.85-.41-.42-.91-.82-1.13-1.34-.35-.83-.97-1.48-1.33-2.29-.21-.48-.45-.99-1.01-1.21-.12-.05-.21-.19-.26-.24-.14-.67-.14-1.32-.6-1.81-.42-.45-.6-1.01-.83-1.55-.23-.52-.33-1.08-.44-1.63-.12-.58-.41-1.1-.56-1.66-.12-.43-.29-.81-.55-1.15-.2-.26-.19-.49-.1-.77.05-.15.09-.3.12-.43-.22-.22-.43-.38-.58-.59-.15-.21-.35-.44-.3-.73.12-.77-.42-1.41-.39-2.17,0-.22-.17-.44-.26-.66.04-.1.16-.3.12-.33-.21-.19.06-.49-.16-.66-.06-1.18-.13-2.36-.17-3.55-.03-1,0-2.01,0-3.02,0-.17.07-.43-.01-.5-.35-.3.06-.81-.33-1.08v-1.29c0-.63,0-1.26,0-1.9,0-.31,0-.6.17-.88.09-.16.15-.35.17-.53.03-.23.04-.46,0-.69-.08-.46.07-.89.23-1.29.22-.54.13-1.02-.05-1.49.11-.2.22-.38.36-.63-.12-.08-.26-.18-.35-.24.06-.45.2-.85.15-1.21-.12-.82-.08-.81-.01-1.59.04-.42.25-.8.19-1.22-.06-.41.08-.77.19-1.13.13-.41.24-.82.33-1.24.1-.47.19-.95.35-1.41.23-.63.41-1.25.34-1.93-.01-.11,0-.23.03-.33.22-.8.58-1.54.92-2.29.45-1.01.74-2,.09-3.04-.05-.08,0-.22,0-.35.1-.04.21-.06.3-.11.39-.21.65-.47.82-.94.15-.41-.1-.6-.16-.9-.09-.42-.4-.87-.24-1.25.17-.4.1-.75.14-1.11-.14-.11-.24-.19-.37-.29-.64.64-1.26,1.24-1.85,1.86-.16.17-.27.4-.36.62-.15.39-.27.8-.37,1.1-.75.43-1.45.44-2.18.24-.02.14,0,.24-.05.29-.83.95-1.67,1.9-2.49,2.85-.27.31-.61.61-.75.98-.19.48-.77.46-.95.89-.2.49-.65.77-.82.98-.6,1.43-1.54,2.33-2.32,3.33-.22.4-.43.79-.66,1.21-.1.01-.24.03-.37.04-.16.43-.39.81-.46,1.29-.05.34-.37.64-.58.96-.19.29-.38.59-.58.88-.21.32-.44.63-.7,1v.43s-.06-.06-.09-.09c-.05.14-.11.28-.26.35ZM111.31,152c-.03.43.42.37.6.6h1.05c.48.7,1.23.48,1.9.57.27.13.54.22.83.29.39.1.81.13,1.17.3.58.28,1.16.48,1.71.39.3.15.51.26.74.38.13-.07.25-.13.43-.21.27,0,.62,0,.96,0,.55,0,1.11-.02,1.63.24.09.05.2.1.3.1.43,0,.73.22,1,.51.06,0,.11,0,.17.01.81.07,1.63-.13,2.43.15.22.08.55.13.81-.09.09-.07.33-.1.39-.04.24.26.54.16.8.15.81-.03,1.62-.12,2.43-.16.55-.03,1.12.06,1.65-.17.17-.07.35-.15.53-.17.55-.07,1.1-.15,1.65-.16.24,0,.45-.06.61-.19.52-.45,1.19-.5,1.8-.66,1.04-.28,1.97-.72,2.77-1.42.28-.24.52-.58.8-.75.54-.32,1.08-.78,1.77-.61.24-.32.45-.61.67-.9h.6c0-.44.2-.7.59-.84.2-.07.39-.19.55-.34.48-.46,1.16-.65,1.58-1.2.13-.17.41-.23.62-.36.83-.49,1.47-1.18,2.04-1.95.33-.45.56-1.03,1.21-1.15.1-.02.22-.1.26-.19.29-.62.93-.95,1.22-1.56.31-.66.96-1.03,1.4-1.58.15-.19.36-.41.36-.62,0-.57.35-.92.69-1.27.43-.44.73-.95,1.05-1.46.43-.69.76-1.45,1.37-2.02.21-.2.5-.48.5-.73,0-.59.44-.98.55-1.51.03-.13.13-.24.16-.36.06-.24.56-1.52.68-1.7.34-.47.62-.97.53-1.49.19-.36.33-.65.49-.96.02-.33-.07-.76.1-1.05.4-.71.48-1.45.44-2.17.5-.68.4-1.59.98-2.08.09-.81.14-1.56.28-2.3.06-.36.28-.68.43-1.04-.28-.26-.31-.63-.31-1.03,0-.67.33-1.25.54-1.85.09-.25.19-.39.04-.67-.15-.27-.19-.62-.23-.94-.11-.86-.24-1.72-.19-2.6,0-.14-.12-.29-.11-.28.09-.6.16-1.05.25-1.59,0,0-.1-.08-.12-.18-.16-.76-.57-1.47-.53-2.28.03-.66,0-1.32,0-1.98-.44-.64-.3-1.42-.52-2.11-.15-.48-.31-.96-.48-1.5.24-.53.22-.84-.17-1.37-.34-.46-.65-.92-.73-1.51-.01-.07-.09-.13-.12-.21-.28-.78-.58-1.55-.76-2.36-.12-.51-.24-1.08-.64-1.31-.34-.1-.55-.15-.76-.22-.22-.07-.44-.15-.63-.22.07-.2.18-.34.15-.44-.14-.45-.46-.76-.84-.99-.02-.51-.15-.87-.49-1.37-.77-1.17-1.51-2.37-2.33-3.51-.36-.49-.9-.85-1.36-1.27-.1-.09-.23-.17-.3-.28-.47-.69-1.04-1.3-1.6-1.92-.09-.1-.23-.14-.34-.22-.25-.17-.53-.31-.73-.52-.47-.53-1.1-.81-1.69-1.13-.84-.47-1.63-.99-2.33-1.66-.21-.2-.38-.46-.62-.6-.68-.41-1.19-1.06-1.91-1.42-.15-.07-.26-.23-.37-.36-.28-.35-.54-.7-.79-1.02-.15,0-.25.02-.33,0-.74-.28-1.24-.93-1.98-1.25-.36-.15-.57-.66-.85-.99-.36,0-.72.05-1.05-.02-.14-.03-.35-.08-.44-.16-.45-.43-1.08-.48-1.58-.79-.34-.21-.79-.31-1.03-.6-.32-.38-.75-.34-1.11-.46-.58-.2-.94-.59-1.17-1.07-.27-.58-.71-.7-1.24-.7-.79-.8-1.61-1.53-2.69-1.88-.45-.15-.69-.56-1.05-.8-.35-.23-.78-.34-1.17-.5-.05-.02-.08-.08-.12-.12-.3-.34-.71-.5-1.12-.63-.47-.15-.91-.34-1.26-.71-.22-.23-.49-.37-.81-.34-.48.05-.94-.06-1.39-.18-.55-.14-1.08-.3-1.64-.42-.48-.1-.92-.4-1.38-.61-.46-.21-.93-.38-1.42-.54-.47-.15-.87-.5-1.39-.6-.84-.18-1.6-.67-2.52-.6-.18.01-.55-.17-.55-.25.02-.37-.4-.18-.45-.43-.37,0-.74,0-1.11,0-.25,0-.48-.04-.71-.17-.49-.26-1.01-.4-1.58-.36-.57.05-1.08-.13-1.5-.54-.35.31-.76.17-1.09.2-.51-.28-.99-.51-1.56-.52-.47-.01-.91-.26-1.39-.17-.26-.37-.69-.03-1.01-.27-.28-.21-.68-.04-1.03-.21-.3-.15-.73-.02-1.11-.04-.16,0-.31-.1-.46-.13-.84-.12-1.64-.44-2.51-.39-.73.04-1.45-.03-2.17.16-.29.08-.63-.02-.94.03-.26.04-.5.17-.74.29-.28.14-.58-.03-.89.15-.3.18-.77.28-1.08.17-.57-.21-1.12-.02-1.68-.11-.31.33-.72.06-1.04.19-.35.14-.7.25-1.06.35-.46.13-1.03.22-1.18.82-.27.06-.5.25-.8.21-.12-.02-.25.1-.38.11-.59.08-.96.57-1.5.74-.47.15-.84.47-1.1.86-.25.39-.57.69-.87,1.01-.09.1-.21.2-.28.32-.39.66-.79,1.32-1.36,1.85-.15.14-.29.34-.35.54-.04.16.05.35.09.57-.11.11-.31.25-.43.44-.2.31-.49.65-.51.98-.03.56-.16,1.1-.19,1.65-.03.61.06,1.22.1,1.91-.1.06-.28.18-.46.29v.4c-.24.4-.43.73-.6,1.01-.48.22-.76.6-.94,1.03-.27.67-.49,1.35-.69,2.04-.25.84-.51,1.68-.86,2.49-.4.92-.82,1.84-.69,2.84-.18.18-.36.31-.46.47-.11.18-.21.39-.22.59-.01.16.11.34.18.55-.31.28-.6.55-.92.84-.04.43-.09.86-.13,1.3.46.62.02,1.22-.07,1.82-.05.29-.11.66-.44.79v1.16c.1.06.24.15.38.23-.13.52.09,1.01-.2,1.46-.09.14-.1.45,0,.58.31.43.07.86.17,1.27-.52.12-.42.64-.72.84.07.72.02,1.4-.34,1.97.42.62-.03,1.33.34,1.91.1.16.05.44-.16.61-.01.01,0,.06,0-.12.21.75.4,1.31.5,1.88.07.42-.13.94.05,1.27.21.39-.03.83.29,1.19.1.11,0,.43-.06.64-.22.82-.12,1.57.45,2.26-.11.33-.34.7-.18,1.02.2.38.1.76.15,1.03.22.36.39.63.56.9-.09.1-.15.17-.18.2.18.28.35.55.52.82-.17.52-.32,1-.48,1.48-.03,0-.05-.02-.08-.02v.67c.4.48.79.95,1.19,1.43-.09.03-.19.07-.31.11v.42c.22.15.44.3.68.46-.07.08-.12.14-.18.2.08.25.16.5.25.75.19.01.39.02.64.04-.04.34-.07.65-.11,1,.03.13.08.31.09.34.74.74,1.31,1.39,1.19,2.43.93.49,1.31,1.48,2.03,2.11.14.89.54,1.72.4,2.48.31,1,.97,1.52,1.71,1.96.14,0,.29,0,.24,0,.24.24.39.39.53.53,0,0-.03.03-.1.1.09.18.14.41.28.55.45.46.93.89,1.46,1.4-.07.4.16.79.53,1.13.25.23.5.48.73.73.3.33.57.68.86,1.02.26.31.5.63.65,1.01.05.12.1.31.19.34.74.28,1.07.99,1.48,1.55.44.6.85,1.15,1.54,1.46.07.03.21.04.22.08.11.47.52.38.83.47.57.57,1.17,1.11,1.7,1.71.52.59.6.68,1.19,1.02.28.16.68.36.75.61.14.49.66.51.85.92.09.19.45.25.68.39.26.15.5.29.82.33.25.03.47.24.72.32.32.11.59.26.83.5.4.42.87.75,1.35,1.08.64.44,1.47.69,1.68,1.45.36.11.63.16.88.26.25.1.47.24.69.36.41-.2.83,0,1.8.85.55-.08,1.02.09,1.39.53.06.08.18.14.28.15.57.04.83.49,1.16.78-.08.29-.13.51-.2.77h.65c.12-.12.23-.21.32-.32.09-.12.15-.25.23-.39.17.1.28.16.34.19.24-.06.43-.16.6-.14.17.02.32.16.49.26v.68c.09.09.17.17.26.26.53-.08,1.11.14,1.64-.17.07-.04.21.02.31.06.22.1.43.21.71.36ZM187.77,172.76s.08-.06.12-.09c-.19-.17-.38-.34-.58-.51-.46-.41-.88-.9-1.41-1.19-.34-.19-.7-.38-1.05-.58-.37-.22-.71-.51-1.09-.7-.16-.08-.36-.03-.52-.2-.37-.4-.76-.78-1.15-1.16-.38-.36-.76-.71-1.15-1.06-.38-.35-.77-.71-1.14-1.06-.14-.14-.34-.27-.39-.44-.16-.55-.59-.87-.95-1.25-.59-.62-1.28-1.14-1.82-1.81-.42-.52-1.01-.9-1.35-1.51-.11-.2-.37-.33-.57-.48-.3-.23-.68-.41-.9-.7-.2-.27-.36-.52-.68-.65-.39-.16-.61-.49-.86-.83-.48-.67-1.02-1.32-1.58-1.93-.32-.35-.81-.56-1.06-.93-.57-.85-1.4-1.44-2.04-2.18-.59.26-.85.71-1,1.28-.23.24-.49.51-.75.78h-.34c-.22.56-.88.86-.8,1.48-1.03.52-1.64,1.38-2.34,2-.11.38-.18.66-.28,1.01-.65.52-1.34,1.07-2.02,1.61v.63c-.24.07-.5.14-.88.24-.25.37-.56.85-.88,1.33h-.74c-.09.24-.16.44-.21.58-.46.11-.83.2-1.19.29-.35.51-.18,1.08-.23,1.61.47.34.88.71,1.36.98.5.28.98.54,1.14,1.15.03.1.15.17.24.25.87.76,1.39,1.78,2.1,2.66.23.28.44.58.71.82.33.3.7.55,1.07.83-.07.3-.13.57-.19.82.18.88.99.95,1.64,1.23.19.81,1.28.73,1.47,1.41.38.25.7.46.95.62-.14.35-.25.65-.37.96.66.21,1.23.43,1.82.58.34.08.54.25.65.56.08.22.15.45.19.56.75.48,1.51.76,1.75,1.61.57.14.95.5,1.17,1.04.05.12.11.28.22.33.54.29.97.76,1.59.94.27.08.5.33.72.54.52.5.96,1.1,1.55,1.49.51.34.83.77,1.05,1.29.15.36.42.57.7.79.06.04.14.06.19.12.64.78.87.95,1.63,1.29.57.95,1.21,1.76,2.26,2.17.12.31.23.61.29.77.75.55,1.52.84,1.92,1.64.21.41.57.74.8,1.03.24.06.39.06.5.13.23.14.44.32.66.48.24.18.48.37.72.55.22.16.54.28.64.5.17.38.52.58.78.95v.34c.42.08,1.03.42,1.17.7.33.69.87,1.17,1.53,1.46.09.34.26.55.55.75.3.2.74.3.79.76.32.12.36.49.64.69.61.43,1.12,1,1.66,1.51-.17.33-.27.61-.02.99.16.24.33.4.54.58.36.31.78.48,1.17.73.82.53,1.49,1.24,2.23,1.88.09.07.18.14.23.17v.6c.5.43.98.87,1.74.98.24.31.58.63.76,1.02.24.52.46.98,1.12,1,.11,0,.21.18.33.24.12.06.26.08.42.12,1.19.9,2.41,1.82,3.6,2.71.13-.08.23-.14.32-.19.25.27.48.52.71.77.73.2,1.34.56,2.09.67.95.13,1.64.21,2.21-.04.16.13.33.26.47.38.14-.03.24-.02.29-.06.26-.25.54-.44.92-.49.2-.02.39-.17.56-.3.75-.56,1.36-1.26,1.89-2.04.24-.35.6-.62.9-.92.3-.3.43-.78.97-.87-.04-.25-.07-.46-.1-.67-.03-.19-.14-.41-.08-.56.21-.51.13-.98,0-1.51-.11-.49,0-1.03-.03-1.55-.04-.49-.14-.98-.2-1.37-.24-.48-.48-.87-.65-1.29-.17-.43-.33-.85-.65-1.2-.37-.4-.63-.88-.73-1.42-.12-.71-.47-1.32-.88-1.87-.37-.5-.74-1.02-1-1.58-.19-.42-.38-.76-.99-.97h-.77v-1c-.57-.49-1.14-1-1.73-1.48-.63-.51-.95-1.31-1.69-1.71-.1-.05-.14-.22-.19-.34-.06-.15-.68-1.22-.79-1.31-.38-.33-.83-.6-1.13-.99-.31-.41-.64-.77-1-1.13-.1-.1-.19-.23-.32-.28-.48-.18-.69-.6-.91-1.01-.11-.21-.18-.48-.35-.62-.49-.4-.93-.82-1.36-1.28-.43-.46-.99-.8-1.29-1.39-.99-.6-1.64-1.56-2.48-2.32-.12-.1-.18-.26-.3-.43-.52-.2-1.04-.48-1.45-.95-.25-.29-.55-.54-.89-.75-.52-.3-1.03-.65-1.18-1.3-.42-.22-.53-.78-1.04-.93-.22-.07-.43-.25-.6-.42-.46-.46-.97-.86-1.28-1.45-.67-.24-.83-.87-1.1-1.46-.29-.08-.6-.16-1.03-.28-.2-.67-.97-.95-1.45-1.51-.12-.14-.18-.32-.28-.48ZM163.2,102.6c-.1-.88.16-1.75-.17-2.61-.05-.13.02-.33.08-.47.12-.3.14-.58-.02-.87-.14-.26-.29-.52-.25-.85.04-.33-.25-.6-.18-.96.1-.5-.06-.98-.24-1.45-.04-.1-.09-.2-.09-.31,0-1.01-.64-1.81-.88-2.74-.43-.43-.66-.98-.83-1.55-.18-.59-.59-1.06-.73-1.69-.08-.35-.3-.75-.62-1.03-.41-.36-.66-.85-.9-1.34-.42-.82-.84-1.63-1.51-2.32-.52-.54-.88-1.28-.94-2.05-.81-.88-1.65-1.69-2.36-2.61-.38-.48-.88-.88-1.08-1.53-.11-.34-.41-.71-.72-.89-.63-.37-1.11-.9-1.54-1.44-.61-.77-1.21-1.53-1.91-2.22-.23-.23-.37-.58-.62-.77-.67-.5-1.28-1.07-1.94-1.57-.51-.39-.9-.95-1.59-1.15-.34-.1-.72-.4-.89-.72-.22-.42-.54-.75-.76-1.15-.3-.57-.8-.91-1.33-1.21-.3-.17-.68-.24-.92-.46-.5-.45-1.07-.72-1.69-.92-.39-.12-.58-.4-.57-.79-.26-.26-.5-.5-.75-.75-.11,0-.23.04-.33,0-.29-.13-.61-.24-.9-.31-.4-.1-.7-.27-1-.52-.2-.17-.46-.27-.71-.37-.54-.21-1.09-.4-1.55-.56-.19-.34-.34-.6-.47-.83h-.91c-.5-.44-1.3-.47-1.55-1.15-.58-.46-1.08-.09-1.64.1-.63-.33-1.29-.67-1.95-1.01-.12.07-.23.14-.32.2-.52-.43-1.07-.7-1.66-.9-.56-.18-1.17-.32-1.43-.76-.53-.2-.93-.34-1.33-.5-.64-.26-1.27-.58-1.98-.63-.35-.02-.65-.09-.9-.35-.22,0-.45.03-.67,0-.19-.03-.36.3-.54.02-.21.23-.4.22-.66.03-.16-.12-.4-.15-.6-.21-.71-.23-1.48-.25-2.15-.64-.21-.13-.54-.24-.75-.17-.59.23-1.18.09-1.76.11-.46.01-.93.09-1.41-.13-.22-.1-.58-.01-.89.05-.41.08-.84.52-1.29.09-.58.08-1.17-.15-1.75.16-.3.16-.69.15-1.04.18-.34.03-.7-.04-1.03.12-.51-.26-1.1.04-1.58-.14-.56-.22-1.11-.08-1.72-.17-.08.12-.18.26-.29.43-.69-.57-1.26,0-1.88.11-.41.52-1.07.41-1.6.63-.02,0-.08-.07-.1-.1-.35.27-.7.55-1,.78-.53.08-1.02.2-1.51.22-.49.01-1.01.12-1.5-.1-.23.16-.49.35-.74.53v.37c.09.09.17.17.25.25.4,0,.8.02,1.2,0,.41-.03.84-.22,1.21-.14.38.09.76.19,1.14.13.39-.06.75.3,1.14.05.3.31.78-.04,1.08.3.3.35.83,0,1.15.35.41-.07.73.15,1.1.36h.88c.06.21.11.41.18.61.01.03.09.04.18.08.13-.11.28-.24.44-.38.21,0,.49.09.65-.02.46-.31.84-.09,1.24.08.32.14.6.39.93.46.63.12,1.27.17,1.91.18.43,0,.8.12,1.16.38h1.01c.03.18.05.33.08.5h.72c.23,0,.46-.02.69,0,.24.03.47.11.7.17.21.05.42.1.65.16.26-.14.53-.3.88-.03.22.17.55.19.77.25.6.36,1.16.69,1.71,1.03.39.08.82-.22,1.15.14.7.09,1.3.48,1.92.76.62.28,1.19.54,1.74.46.7.3,1.08.97,1.85.86.16.24.4.14.62.18.21.03.42.09.62.17.25.1.47.24.72.34.4.15.82.25,1.21.41.61.26,1.11.74,1.78.91.56.14,1.01.46,1.5.76.67.42,1.3.87,1.95,1.31.18.12.39.21.53.37.41.46.94.76,1.46,1.06.32.19.62.35.83.68.24.37.55.69.8.99.32.06.6.08.85.17.25.09.67-.01.67.46-.05.08-.1.15-.21.31.58-.09.95.1,1.21.54.11.18.3.28.55.33.43.09.84.32,1.26.49.18-.28.37-.01.54.01.67.09,1,.61,1.28,1.1.47.16.96.22,1.32.47.86.6,1.66,1.28,2.48,1.93.37.3.7.64,1.09.9.42.28.81.57,1.14.96.28.33.58.66,1,.89.4.22.74.5,1.19.68.42.17.75.57,1.1.89.88.8,1.74,1.62,2.61,2.43.07.07.19.08.31.13.08.24.16.5.26.78.22.22.46.46.7.7.14,0,.27.02.36.02.49.49.94.93,1.38,1.38.21.22.43.45.54.72.15.37.39.59.74.71.39.14.65.41.69.82.05.44.36.58.56.68.47.73.87,1.37,1.34,2.1.06.33.14.79.21,1.19.25.4.5.76.7,1.14.11.21.1.48.2.69.11.24.31.45.44.68.05.08,0,.22,0,.23.4.47.74.88,1.01,1.19.08.59-.09,1.06.15,1.49-.05.07-.09.14-.12.18.45.77.88,1.51,1.33,2.26h.41ZM162.17,154.11c.4-.29.73-.52,1.05-.77.11-.09.29-.2.29-.3.04-.71.67-1.1.82-1.71.4-.17.76-.33,1.09-.47-.27-1.17-.92-2.16-.88-3.02.3-1.23,1.38-1.25,1.82-1.95h.82c.19-.1.34-.17.53-.27-.16-.29.11-.65-.15-.96-.28-.32-.24-.72-.24-1.11,0-.48-.12-.91-.43-1.29-.13-.16-.25-.38-.25-.58,0-.46-.25-.78-.55-1.07-.23-.22-.45-.45-.67-.67v-.89c-.5-.31-.85-.83-1-1.36-.12-.45-.35-.62-.69-.83-.65-.39-1.34-.75-1.86-1.33-.25-.28-.48-.59-.82-1.01-.08.22-.13.36-.18.5-.04-.03-.09-.06-.13-.08.07.54.15,1.07.21,1.55-.8.4-1.15,1.2-1.92,1.58-.2.51-.4,1.09-.64,1.65-.11.27-.03.55-.28.84-.61.71-1.2,1.45-1.57,2.35-.22.53-.66,1-1.29,1.16-.13.03-.24.12-.36.18v.69c-.41.46-.75,1.02-1.23,1.37-.51.37-.99.78-1.35,1.26-.43.57-.93,1.06-1.43,1.55-.48.47-1,.9-1.51,1.34-.25.21-.52.41-.78.6-.31.22-.72.35-.91.64-.35.54-.79,1.01-1.28,1.34-.5.34-1.07.79-1.75.59-.23-.2-.44-.38-.66-.58-.32.46.34.53.22.87-.07.07-.14.2-.24.22-.42.1-.66.37-.91.72-.46.64-1.11,1.06-1.9,1.06-.41.62-.42.61-1.07.84-.3.11-.58.27-.89.43v.74c-.12.1-.23.2-.36.31.08.69.16,1.38.24,1.98.31.41.71.73.8,1.12.12.5.39.83.71,1.18.15.16.23.38.37.53.21.22.46.4.7.6.17.14.34.29.51.43-.03.02-.05.03-.08.05.09.19.18.39.28.61.31-.07.58-.13.9-.21.32.25.69.53,1.08.83.68.11,1.43-.16,2.18.21.22-.36.61-.23.91-.17.35.07.68.21,1.06.11.36-.55,1.04-.64,1.54-1,.5.1.93-.12,1.31-.36.25-.16.47-.13.76-.16.39-.65,1.12-.92,1.79-1.41.26.05.58.1.96.17.28-.25.6-.55.57-1.15.12-.11.38-.22.46-.41.27-.71.96-.87,1.51-1.13.39-.19.63-.48.88-.75.21-.23.35-.56.24-.91.39-.37.74-.7,1.32-.84.65-.15,1.01-.72.94-1.45.72-.51,1.07-1.25,1.39-1.99ZM129.72,159.19c.12-.55-.21-.7-.52-.96-.42.57-1.1.63-1.66.94-.09.05-.16.15-.29.28.5.09.91.26,1.29.21.4-.05.79-.3,1.19-.46ZM141.08,164.06v-.69c-.2.15-.34.24-.51.36.18.11.31.2.51.32ZM132.67,156.54c-.15.03-.23.04-.34.07.01.17.03.33.04.5.13-.03.21-.04.3-.06v-.51ZM62.6,144.76q-.03.42.23.36c-.05-.09-.12-.19-.23-.36ZM157.7,140.51s.1,0,.15,0c-.02-.1-.04-.19-.06-.29-.03,0-.06,0-.08.01v.29ZM172.67,155.59v.06h.17v-.06h-.17ZM193.18,207.02v-.06h-.17v.06h.17ZM99.18,60.9h-.06v.17h.06v-.17ZM132.11,58.49h-.06v.17h.06v-.17ZM67.81,150.02h-.06v.17h.06v-.17Z"/>
  <path class="cls-1" d="M115.12,168.37c-.09.21-.18.41-.26.61h-.42c-.01-.12-.03-.25-.05-.43.2-.1.4-.2.6-.3.04.04.08.08.13.11Z"/>
  <path class="cls-1" d="M196.85,227.54c.14.06.23.09.39.16-.14.17-.24.29-.39.48v-.64Z"/>
  <path class="cls-1" d="M226.82,102.43h-.35c.08-.17.14-.33.25-.57.04.22.06.36.1.57Z"/>
  <path class="cls-1" d="M208.94,183.86c.09.05.19.12.36.23q-.42.03-.36-.23Z"/>
  <path class="cls-1" d="M197.2,227.42v-.17h.06v.17h-.06Z"/>
  <path class="cls-2" d="M111.31,152c-.29-.15-.49-.26-.71-.36-.1-.04-.24-.1-.31-.06-.53.31-1.11.09-1.64.17-.1-.1-.18-.18-.26-.26v-.68c-.16-.09-.32-.23-.49-.26-.17-.02-.36.08-.6.14-.05-.03-.17-.1-.34-.19-.08.14-.14.28-.23.39-.09.11-.2.21-.32.32h-.65c.07-.25.12-.48.2-.77-.33-.28-.59-.73-1.16-.78-.1,0-.21-.07-.28-.15-.38-.44-.85-.61-1.39-.53-.97-.84-1.39-1.05-1.8-.85-.21-.11-.44-.26-.69-.36-.25-.1-.51-.15-.88-.26-.21-.76-1.04-1.01-1.68-1.45-.48-.33-.96-.65-1.35-1.08-.23-.25-.51-.4-.83-.5-.25-.09-.47-.29-.72-.32-.32-.03-.56-.17-.82-.33-.23-.14-.59-.2-.68-.39-.19-.41-.71-.43-.85-.92-.07-.26-.46-.45-.75-.61-.59-.34-.67-.43-1.19-1.02-.53-.6-1.13-1.14-1.7-1.71-.31-.1-.72,0-.83-.47,0-.04-.15-.05-.22-.08-.69-.31-1.1-.87-1.54-1.46-.41-.56-.74-1.26-1.48-1.55-.09-.04-.14-.22-.19-.34-.15-.38-.39-.7-.65-1.01-.29-.34-.56-.69-.86-1.02-.23-.26-.48-.5-.73-.73-.36-.34-.59-.73-.53-1.13-.54-.51-1.02-.94-1.46-1.4-.14-.14-.19-.37-.28-.55.07-.07.11-.11.1-.1-.14-.14-.29-.29-.53-.53.05,0-.1,0-.24,0-.74-.44-1.4-.97-1.71-1.96.14-.76-.25-1.59-.4-2.48-.72-.63-1.09-1.62-2.03-2.11.12-1.04-.45-1.7-1.19-2.43,0-.03-.05-.21-.09-.34.04-.34.07-.66.11-1-.25-.01-.45-.02-.64-.04-.08-.25-.17-.51-.25-.75.06-.07.11-.13.18-.2-.23-.16-.46-.31-.68-.46v-.42c.12-.04.22-.08.31-.11-.4-.48-.79-.95-1.19-1.43v-.67s.05.02.08.02c.15-.48.31-.96.48-1.48-.17-.27-.34-.54-.52-.82.03-.03.09-.1.18-.2-.17-.27-.34-.54-.56-.9-.05-.27.05-.65-.15-1.03-.17-.32.06-.69.18-1.02-.57-.69-.67-1.44-.45-2.26.06-.21.16-.53.06-.64-.32-.35-.07-.79-.29-1.19-.18-.33.02-.85-.05-1.27-.1-.57-.3-1.13-.5-1.88,0,.17-.01.13,0,.12.21-.17.26-.45.16-.61-.37-.58.08-1.29-.34-1.91.36-.57.41-1.25.34-1.97.3-.21.2-.72.72-.84-.1-.41.14-.85-.17-1.27-.1-.13-.09-.44,0-.58.29-.46.07-.94.2-1.46-.14-.08-.28-.17-.38-.23v-1.16c.33-.13.39-.5.44-.79.09-.59.53-1.2.07-1.82.04-.44.09-.87.13-1.3.32-.29.62-.56.92-.84-.07-.21-.19-.38-.18-.55.01-.2.11-.42.22-.59.1-.17.28-.29.46-.47-.13-1,.29-1.92.69-2.84.35-.81.61-1.64.86-2.49.2-.69.43-1.37.69-2.04.17-.43.46-.81.94-1.03.17-.29.36-.61.6-1.01v-.4c.18-.12.36-.23.46-.29-.04-.7-.13-1.31-.1-1.91.03-.55.16-1.09.19-1.65.02-.34.3-.67.51-.98.12-.19.32-.33.43-.44-.04-.22-.13-.41-.09-.57.06-.2.19-.4.35-.54.57-.53.97-1.19,1.36-1.85.07-.12.18-.21.28-.32.3-.33.62-.63.87-1.01.25-.39.62-.72,1.1-.86.54-.17.92-.66,1.5-.74.13-.02.26-.13.38-.11.3.05.52-.15.8-.21.15-.6.72-.68,1.18-.82.36-.1.71-.21,1.06-.35.32-.13.74.14,1.04-.19.55.08,1.11-.1,1.68.11.31.11.78,0,1.08-.17.31-.18.61-.01.89-.15.24-.12.48-.25.74-.29.31-.05.65.06.94-.03.72-.2,1.45-.13,2.17-.16.87-.04,1.67.27,2.51.39.16.02.31.12.46.13.37.02.8-.11,1.11.04.35.17.75,0,1.03.21.32.24.76-.1,1.01.27.48-.09.93.16,1.39.17.57.01,1.04.24,1.56.52.33-.03.74.12,1.09-.2.43.41.94.59,1.5.54.57-.05,1.09.09,1.58.36.23.13.46.17.71.17.37,0,.74,0,1.11,0,.05.25.47.05.45.43,0,.08.36.26.55.25.91-.07,1.67.42,2.52.6.51.11.91.45,1.39.6.48.15.96.33,1.42.54.46.21.9.51,1.38.61.56.12,1.09.28,1.64.42.45.12.91.23,1.39.18.32-.03.59.1.81.34.35.37.79.55,1.26.71.41.13.82.3,1.12.63.04.04.07.1.12.12.39.17.82.27,1.17.5.36.24.61.65,1.05.8,1.08.35,1.9,1.08,2.69,1.88.53,0,.97.12,1.24.7.23.48.58.87,1.17,1.07.36.12.8.08,1.11.46.24.29.69.39,1.03.6.5.31,1.13.36,1.58.79.08.08.3.13.44.16.33.07.68.02,1.05.02.27.34.49.84.85.99.74.31,1.24.97,1.98,1.25.08.03.17,0,.33,0,.24.32.51.68.79,1.02.11.13.22.29.37.36.72.36,1.23,1,1.91,1.42.24.14.41.4.62.6.69.67,1.48,1.19,2.33,1.66.59.33,1.22.61,1.69,1.13.19.22.48.35.73.52.11.08.25.12.34.22.56.62,1.13,1.23,1.6,1.92.08.11.2.19.3.28.46.42,1,.77,1.36,1.27.83,1.14,1.56,2.34,2.33,3.51.33.51.46.86.49,1.37.39.22.71.54.84.99.03.1-.08.25-.15.44.19.07.41.15.63.22.21.06.41.12.76.22.4.23.52.81.64,1.31.19.81.49,1.58.76,2.36.03.07.11.14.12.21.08.58.39,1.05.73,1.51.39.52.4.83.17,1.37.17.54.33,1.02.48,1.5.22.69.08,1.47.52,2.11,0,.66.03,1.32,0,1.98-.04.82.36,1.52.53,2.28.02.1.12.18.12.18-.08.54-.15.99-.25,1.59,0-.01.12.13.11.28-.05.88.08,1.74.19,2.6.04.32.08.66.23.94.15.27.05.42-.04.67-.21.6-.54,1.18-.54,1.85,0,.4.03.77.31,1.03-.15.36-.36.69-.43,1.04-.13.74-.18,1.49-.28,2.3-.58.49-.48,1.39-.98,2.08.04.72-.05,1.46-.44,2.17-.16.29-.07.72-.1,1.05-.16.31-.31.59-.49.96.09.53-.19,1.02-.53,1.49-.13.18-.62,1.46-.68,1.7-.03.13-.14.24-.16.36-.11.52-.55.92-.55,1.51,0,.24-.28.52-.5.73-.61.58-.93,1.34-1.37,2.02-.32.51-.62,1.03-1.05,1.46-.34.34-.69.7-.69,1.27,0,.21-.21.43-.36.62-.44.55-1.08.91-1.4,1.58-.29.61-.93.95-1.22,1.56-.04.09-.16.17-.26.19-.65.13-.88.71-1.21,1.15-.57.77-1.21,1.46-2.04,1.95-.21.12-.49.18-.62.36-.42.55-1.1.74-1.58,1.2-.15.14-.35.27-.55.34-.39.14-.58.39-.59.84h-.6c-.22.3-.44.59-.67.9-.7-.17-1.24.29-1.77.61-.28.17-.53.51-.8.75-.81.7-1.73,1.15-2.77,1.42-.6.16-1.28.21-1.8.66-.16.14-.37.19-.61.19-.55.01-1.1.09-1.65.16-.18.02-.36.1-.53.17-.53.23-1.1.14-1.65.17-.81.04-1.62.13-2.43.16-.27.01-.56.11-.8-.15-.06-.06-.3-.03-.39.04-.26.22-.59.17-.81.09-.81-.29-1.63-.09-2.43-.15-.06,0-.11,0-.17-.01-.27-.29-.57-.51-1-.51-.1,0-.21-.05-.3-.1-.52-.26-1.07-.25-1.63-.24-.34,0-.69,0-.96,0-.18.09-.29.15-.43.21-.23-.12-.45-.23-.74-.38-.55.09-1.13-.11-1.71-.39-.35-.17-.78-.2-1.17-.3-.28-.07-.56-.17-.83-.29-.67-.09-1.42.12-1.9-.57h-1.05c-.18-.23-.63-.17-.6-.6ZM125.27,106.91c-.23-.22-.45-.44-.71-.69.04-.11.09-.26.14-.43-.4-.45.34-.96-.05-1.4-.33-.31-.66-.63-.99-.94.18-.2.31-.34.45-.48-.18-.47-.35-.89-.57-1.47,0-.05.09-.33-.02-.49-.15-.21-.24-.49-.13-.62.21-.26-.07-.44-.02-.65.05-.21.1-.41.16-.63-.16-.29-.32-.6-.46-.87.22-.35.09-.72.15-1.16-.17-.13-.36-.29-.56-.45.14-.29.27-.55.39-.8-.19-.19-.34-.37-.52-.51-.17-.13-.37-.23-.52-.32-.11-.44.34-.77.05-1.23-.2-.32-.05-.81-.33-1.14-.08-.02-.16-.03-.26-.05v-.74c-.09-.09-.16-.21-.21-.2-.44.02-.61-.27-.78-.6-.12-.24-.27-.51-.49-.64-.6-.35-1.21-.71-1.84-.96-.57-.23-1.01-.53-1.42-.95-.37-.38-.83-.61-1.45-.73-.16-.18-.38-.44-.6-.7-.51.09-.96.16-1.27.22-.34-.3-.57-.5-.78-.69-.49,0-.98.1-1.4-.04-.25-.08-.48-.09-.72-.14-.24-.05-.47-.15-.71-.16-.3-.02-.58.02-.88.14-.66.25-1.38.57-2.08.34-.51-.16-.99-.09-1.52-.16-.74.74-1.49,1.49-2.18,2.18-.21.09-.38.12-.5.21-.4.29-.79.59-1.18.89-.72.57-1.61.84-2.39,1.3-.08.31-.16.62-.26,1.01-.37.1-.78.22-1.27.36-.07.07-.22.21-.33.31-.1.44-.23.8-.44,1.17-.27.47-.61.94-.65,1.55-.02.34-.13.7-.22,1.05-.12.42,0,.91-.12,1.34-.09.33-.15.64-.16.97,0,.06-.1.12-.14.16.32.56.55,1.13.5,1.79-.02.33-.06.68.17.96.45.54.92,1.06,1.39,1.58.14.15.36.23.5.39.25.29.57.61.82.73.66.3,1.34.51,1.92,1.01.35.3.86.62,1.41.2.07-.06.22,0,.34,0h1.12c.62-.63.96-1.46.7-1.71-.06,0-.11,0-.2-.01-.1-.34-.21-.69-.34-1.13-.98-.27-1.91-.78-2.98-.8-.12-.59-.62-.87-.9-1.3-.29-.45-.47-.97-.85-1.35v-1.53c.24-.28.38-.56.34-.92-.06-.48.19-.84.49-1.14-.11-.22-.22-.43-.36-.69.11-.09.21-.17.26-.21.22.05.4.09.59.14.15-.24.31-.44.4-.66.15-.35.39-.6.73-.74.76-.32,1.32-.87,1.85-1.48-.07-.07-.12-.16-.19-.18-.13-.04-.27-.04-.4-.07-.04,0-.05-.09-.11-.19.09-.1.2-.22.27-.3h.59c.09.16.19.32.31.53.89-.09,1.42-.7,1.91-1.41.94-.13,1.93-.27,2.96-.41.24-.23.6-.43.75-.76h.41c.08.24.15.44.23.65h1.63c.63.53,1.48.41,2.11.86.15.11.45.02.6.02.68.37,1.37.61,1.8,1.25.2-.06.37-.11.51-.15.51.26,1.07.01,1.58.16.07.08.15.16.2.22-.14.47-.27.9-.4,1.35.28.21.48.4.42.73.69.56.54,1.5,1.01,2.17.3.42.2.97.18,1.47-.03.63.2,1.17.52,1.75-.18.52.49,1.09.03,1.66.23.52.46,1.02.69,1.52-.08.09-.14.15-.15.16.05.4.09.75.12,1.1.05.63.19,1.22.52,1.77,0,.29-.02.58,0,.86.03.27.16.53.15.79-.02.56.11,1.03.54,1.42.15.14.22.36.34.56-.14.69.26,1.24.5,1.84.03.07.04.21.08.22.47.06.45.49.61.7-.08.37-.14.68-.2.99.21.12.35.2.51.29.21.48.42,1,.66,1.5.41.84.85,1.66,1.26,2.49.12.24.12.54.27.75.27.39.58.75.91,1.09.35.35.75.67,1.15.97.23.18.51.29.75.42.11.23.21.45.3.66.08.05.14.11.22.14.79.31,1.67.38,2.4.86.59-.01.76.48,1.01.87,1.31.01,2.36-.43,3-1.69v-.94c-.1-.19-.17-.33-.2-.39-.76-.31-1.44-.6-2.27-.94-.49.1-.96-.21-1.37-.67-.28-.32-.6-.57-1.12-.56-.25-.32-.5-.69-.8-1.01-.22-.24-.55-.38-.76-.62-.23-.26-.38-.58-.56-.89-.16-.28-.29-.57-.43-.85-.4-.51-1.02-.86-1.24-1.56.22-.2.15-.46.1-.67-.31-.18-.57-.34-.85-.5.16-.16.26-.26.36-.36-.05-.06-.11-.12-.16-.17.06-.09.13-.17.18-.24-.25-.64-.48-1.23-.71-1.83.07-.22.14-.45.22-.7-.14-.05-.24-.08-.25-.09-.29-.42-.53-.78-.83-1.21v-.69ZM140.51,132.42c.86.1,1.66-.07,2.36-.61.08-.38.64-.56.45-1.08-.35-.23-.71-.46-1.09-.71-.68-.05-1.32.12-1.93.39-.17.33-.29.61-.07.98.17.28-.15.74.26,1.01Z"/>
  <path class="cls-2" d="M56.2,93.12c.08-.22.14-.35.19-.49.03.03.06.06.09.09v-.43c.26-.37.48-.69.7-1,.2-.29.39-.59.58-.88.2-.32.53-.62.58-.96.07-.48.3-.86.46-1.29.13-.01.27-.03.37-.04.23-.42.45-.81.66-1.21.78-1,1.72-1.9,2.32-3.33.18-.21.62-.49.82-.98.18-.43.76-.4.95-.89.14-.37.48-.67.75-.98.83-.95,1.66-1.9,2.49-2.85.04-.05.03-.15.05-.29.73.2,1.44.19,2.18-.24.1-.29.21-.7.37-1.1.09-.22.2-.45.36-.62.59-.62,1.21-1.22,1.85-1.86.13.1.23.18.37.29-.04.36.03.71-.14,1.11-.16.38.15.83.24,1.25.06.29.31.48.16.9-.17.47-.43.73-.82.94-.09.05-.2.07-.3.11,0,.13-.04.27,0,.35.64,1.04.35,2.04-.09,3.04-.33.75-.7,1.49-.92,2.29-.03.11-.04.22-.03.33.07.68-.11,1.3-.34,1.93-.16.45-.25.93-.35,1.41-.09.42-.2.83-.33,1.24-.12.36-.25.73-.19,1.13.06.41-.15.8-.19,1.22-.07.78-.11.77.01,1.59.05.36-.08.76-.15,1.21.09.06.23.15.35.24-.14.25-.25.43-.36.63.17.47.27.95.05,1.49-.16.4-.3.83-.23,1.29.04.22.03.46,0,.69-.02.18-.08.37-.17.53-.16.28-.17.57-.17.88,0,.63,0,1.26,0,1.9v1.29c.39.26-.02.78.33,1.08.09.07.01.33.01.5,0,1.01-.02,2.01,0,3.02.03,1.18.11,2.37.17,3.55.22.17-.05.47.16.66.04.03-.08.23-.12.33.09.22.27.44.26.66-.03.76.52,1.4.39,2.17-.05.29.14.52.3.73.15.21.36.37.58.59-.04.13-.07.28-.12.43-.1.28-.1.51.1.77.26.34.43.72.55,1.15.15.56.45,1.08.56,1.66.11.55.21,1.1.44,1.63.23.54.41,1.11.83,1.55.46.49.46,1.14.6,1.81.05.05.13.19.26.24.56.23.8.74,1.01,1.21.36.82.98,1.47,1.33,2.29.22.51.72.92,1.13,1.34.84.85,1.34,1.93,2.08,2.85.13.16.15.39.27.73.5.33,1,.84,1.19,1.6.81.24,1.29.78,1.48,1.58.81.48,1.49,1.04,1.96,1.92.48.88,1.09,1.74,2.03,2.25.11.06.27.06.43.09.17.24.52.39.58.69.34.24.68.43.95.68.56.54,1.11,1.06,1.84,1.38.34.15.59.53.91.82h.48c.21.22.44.37.49.74.08.6.65.92,1.1,1.13.56.26.94.68,1.3,1.01.3.1.53.17.74.24.59.84,1.62,1.13,2.26,1.91.97-.16,1.78.34,2.63.68.07.03.17.04.22.09.44.52,1.02.82,1.64,1.07.42.03.84.06,1.22.37.21.18.53.23.81.32.27.09.65.02.65.48.31.14.62.37.95.41.6.07,1,.5,1.71.7h.49c.43.36.89.61,1.43.75.18.05.36.09.55.13.56.1,1.12.23,1.52.7.15.17.32.33.47.47.37.16.52-.13.67-.26.31.16.59.32.88.46.21.1.44.19.66.28.27.11.52.28.85.25.12-.01.25.08.38.12.45.13.9.22,1.37.24.65.02,1.29.18,1.93.3.32.06.42.51.8.37.62.26,1.27.15,1.91.18.33.17.66.34.99.51.3-.15.58-.31.92-.06.12.08.32.06.49.06.49,0,.97,0,1.44.09.53.18,1.06.35,1.65.55.16.68-.67.64-.9,1.08h-1.39c-.25.17-.5.34-.78.53h-1.78c-.27.18-.49.33-.76.52-.81,0-1.68.05-2.53-.01-.8-.06-1.56.12-2.34.21-.46.05-.89.33-1.4.53v.63h-.76c-.12-.09-.2-.16-.29-.23.12-.12.22-.22.33-.33-.02-.04-.04-.1-.07-.11-.31-.09-.62-.17-.93-.25-.1-.03-.2-.08-.31-.09-.14-.02-.32-.06-.42,0-.49.33-1.1.26-1.64.47,0,0-.04-.07-.08-.07-.83-.1-1.67-.4-2.48-.2-.56.14-1.11.12-1.66.14-.13,0-.25-.07-.42-.11-.06.03-.17.09-.27.15-.09-.08-.15-.14-.22-.2-.06.05-.12.11-.16.15-.28-.05-.55-.1-.81-.15-.37-.07-.76-.11-1.12-.21-.69-.18-.68-.19-1.51.02-.08.02-.18.04-.25,0-.82-.34-1.68-.11-2.52-.16-.36-.02-.72-.02-1.05-.18-.17-.08-.33-.18-.62-.34-.68-.12-1.54.17-2.38-.15-.18.04-.45.2-.58.13-.55-.31-1.11-.08-1.66-.14-.08,0-.25.15-.26.15-.19-.27-.49-.08-.71-.18-.53-.25-1.09-.37-1.68-.31-.24.02-.42-.08-.62-.18-.61-.31-1.23-.51-1.94-.55-.56-.04-1.1-.37-1.63-.61-.37-.01-.78-.15-1.1.14-.33-.17-.64-.33-1-.52-.46-.06-.98-.11-1.5-.19-.13-.02-.27-.08-.35-.18-.3-.35-.72-.48-1.11-.67-.33-.17-.65-.35-1.06-.38-.32-.02-.62-.29-1-.48h-.81c-.08-.13-.17-.27-.26-.41-.4.06-.72.11-1.16.18-.42-.39-.89-.9-1.45-1.32-.55-.41-.84-1.08-1.45-1.37-.27.07-.54.13-.79.19-.23-.35-.38-.76-.67-.94-.35-.22-.48-.56-.73-.82h-.38c-.19-.26-.53-.41-.63-.81-1.01-.16-1.41-.9-1.52-1.83-.7-.58-1.55-.97-2.05-1.76.07-.07.11-.11.17-.17-.41-.36-.71-.85-1.31-.96-.11-.24-.19-.51-.56-.53.01-.43-.26-.74-.55-.99-.57-.49-1.17-.94-1.43-1.72-.1,0-.21-.01-.33-.02-.4-.32-.8-.64-1.25-1,.18-.19.31-.33.44-.47-.08-.23-.15-.46-.23-.71-.35-.18-.73-.37-1.12-.57.18-.33.16-.65.13-.97-.26-.2-.53-.4-.78-.61-.26-.22-.39-.51-.43-.86-.03-.29-.13-.58-.26-.84-.07-.13-.04-.37-.34-.39-.13,0-.25-.33-.37-.51-.12-.18-.22-.37-.39-.66.12-.5-.24-.97-.51-1.48.05-.07.11-.15.14-.19-.25-.25-.47-.47-.6-.6-.12-.52-.21-.89-.32-1.34-.08-.05-.24-.15-.44-.29,0-.26-.1-.59.13-.88-.29-.26-.1-.59-.13-.89-.03-.34,0-.68,0-.97-.27-.3-.63-.36-.79-.75-.11-.28-.53-.43-.86-.68.18-.29.31-.51.44-.73-.19-.17-.38-.34-.48-.44-.08-.66.07-1.19-.3-1.67-.18-.23-.18-.61-.24-.93-.02-.11-.01-.23.02-.34.02-.07.1-.13.15-.18,0-.48-.49-.69-.55-1.18-.07-.57-.15-.74-.15-1.17,0-.32-.09-.64-.13-.92-.17-.06-.27-.1-.37-.13,0-.56,0-1.1,0-1.64,0-.36.02-.73-.24-1.02-.17-.18-.12-.38-.1-.56.07-.6-.18-1.12-.38-1.66-.09-.22-.18-.44-.28-.68.36-.6.15-1.42.66-2.09-.12-.07-.26-.15-.35-.2,0-.75.05-1.42-.01-2.07-.07-.63.26-1.21.17-1.93-.12-.12-.3-.3-.5-.5.09-.18.2-.39.34-.65q.02-1.27-.37-2.01c.38-.18.33-.56.42-.91.08-.33.25-.64.42-.94.16-.28.38-.53.61-.86-.13-.08-.28-.12-.37-.23-.1-.12-.13-.29-.22-.5.32-.3.61-.67.52-1.21.19-.16.39-.32.46-.38.1-.73.19-1.31.24-1.67.3-.61.5-1.04.72-1.49-.39-.41-.23-.85.05-1.18.28-.34.32-.74.48-1.17.61-.63.87-1.12.69-1.63ZM55.66,106.12v.87c.31-.47.3-.99.74-1.29-.13-.21-.22-.36-.41-.67v.76c-.14.14-.22.22-.33.33ZM62.22,89.18c.22-.01.42-.03.65-.04-.24-.31-.44-.55-.65-.82v.86Z"/>
  <path class="cls-2" d="M187.77,172.76c.09.16.16.34.28.48.49.56,1.26.84,1.45,1.51.43.12.74.2,1.03.28.27.59.43,1.22,1.1,1.46.31.59.83.99,1.28,1.45.17.17.38.35.6.42.51.15.62.7,1.04.93.15.65.66.99,1.18,1.3.35.2.64.45.89.75.41.47.93.75,1.45.95.11.17.18.33.3.43.84.76,1.5,1.72,2.48,2.32.3.59.86.93,1.29,1.39.43.46.87.89,1.36,1.28.17.14.24.41.35.62.22.41.43.83.91,1.01.12.05.22.18.32.28.35.36.69.73,1,1.13.29.39.75.66,1.13.99.11.09.72,1.16.79,1.31.05.12.1.29.19.34.74.4,1.06,1.2,1.69,1.71.59.48,1.16.99,1.73,1.48v1h.77c.6.22.8.56.99.97.25.56.62,1.07,1,1.58.41.55.75,1.16.88,1.87.09.54.36,1.02.73,1.42.32.35.48.77.65,1.2.17.42.4.81.65,1.29.06.39.16.88.2,1.37.04.51-.08,1.05.03,1.55.12.52.2.99,0,1.51-.06.15.05.37.08.56.03.21.06.42.1.67-.54.1-.67.57-.97.87-.31.3-.67.57-.9.92-.53.78-1.14,1.48-1.89,2.04-.17.13-.36.28-.56.3-.38.05-.66.24-.92.49-.05.05-.16.04-.29.06-.15-.12-.31-.25-.47-.38-.57.25-1.26.16-2.21.04-.75-.1-1.36-.47-2.09-.67-.23-.25-.46-.5-.71-.77-.09.06-.18.11-.32.19-1.19-.9-2.41-1.82-3.6-2.71-.16-.04-.3-.06-.42-.12-.12-.06-.22-.24-.33-.24-.67-.03-.88-.49-1.12-1-.19-.39-.53-.71-.76-1.02-.76-.11-1.25-.55-1.74-.98v-.6c-.05-.04-.15-.1-.23-.17-.74-.63-1.4-1.35-2.23-1.88-.38-.25-.81-.43-1.17-.73-.21-.18-.38-.34-.54-.58-.25-.38-.15-.67.02-.99-.55-.51-1.06-1.08-1.66-1.51-.28-.2-.32-.57-.64-.69-.05-.47-.5-.56-.79-.76-.29-.19-.45-.41-.55-.75-.67-.29-1.2-.77-1.53-1.46-.13-.28-.75-.62-1.17-.7v-.34c-.26-.37-.61-.57-.78-.95-.1-.22-.42-.33-.64-.5-.24-.18-.48-.37-.72-.55-.22-.16-.43-.34-.66-.48-.11-.07-.26-.07-.5-.13-.23-.29-.6-.62-.8-1.03-.4-.81-1.17-1.1-1.92-1.64-.06-.16-.17-.46-.29-.77-1.04-.41-1.68-1.22-2.26-2.17-.77-.33-.99-.51-1.63-1.29-.05-.05-.13-.07-.19-.12-.29-.22-.55-.43-.7-.79-.22-.52-.54-.95-1.05-1.29-.58-.39-1.03-1-1.55-1.49-.22-.21-.45-.46-.72-.54-.62-.18-1.05-.65-1.59-.94-.1-.05-.17-.21-.22-.33-.22-.54-.6-.89-1.17-1.04-.24-.85-1-1.13-1.75-1.61-.04-.11-.11-.33-.19-.56-.11-.31-.31-.47-.65-.56-.59-.14-1.17-.36-1.82-.58.12-.32.23-.61.37-.96-.25-.17-.57-.37-.95-.62-.2-.68-1.28-.6-1.47-1.41-.66-.27-1.46-.34-1.64-1.23.06-.26.12-.52.19-.82-.37-.28-.74-.53-1.07-.83-.26-.24-.48-.54-.71-.82-.71-.88-1.24-1.91-2.1-2.66-.09-.08-.21-.15-.24-.25-.16-.61-.64-.86-1.14-1.15-.47-.27-.89-.64-1.36-.98.05-.53-.12-1.1.23-1.61.36-.09.73-.18,1.19-.29.05-.13.12-.33.21-.58h.74c.32-.48.64-.96.88-1.33.38-.1.64-.17.88-.24v-.63c.68-.54,1.37-1.1,2.02-1.61.1-.35.18-.63.28-1.01.69-.62,1.31-1.48,2.34-2-.08-.62.58-.92.8-1.48h.34c.26-.27.52-.54.75-.78.15-.57.41-1.02,1-1.28.64.74,1.46,1.33,2.04,2.18.25.38.74.59,1.06.93.56.62,1.1,1.26,1.58,1.93.24.34.47.67.86.83.32.13.48.38.68.65.22.29.6.47.9.7.2.15.45.28.57.48.34.61.92.99,1.35,1.51.54.67,1.23,1.19,1.82,1.81.36.38.79.7.95,1.25.05.17.25.3.39.44.38.36.76.71,1.14,1.06.38.35.77.7,1.15,1.06.39.38.78.76,1.15,1.16.16.17.36.13.52.2.38.19.72.48,1.09.7.34.21.7.39,1.05.58.53.29.94.78,1.41,1.19.19.17.39.34.58.51-.04.03-.08.06-.12.09ZM213.8,207.2c-.23.11-.41.2-.58.28v1.32h.3c-.12-.55.52-.95.29-1.6ZM211.95,209.6c.11.04.14.07.15.06.13-.08.26-.17.39-.26-.02-.02-.04-.05-.06-.06-.2-.11-.29.07-.4.17-.02.02-.04.04-.08.08Z"/>
  <path class="cls-2" d="M163.2,102.6h-.41c-.44-.76-.88-1.5-1.33-2.26.03-.04.07-.11.12-.18-.23-.43-.07-.91-.15-1.49-.27-.31-.61-.71-1.01-1.19,0-.01.04-.15,0-.23-.13-.24-.32-.44-.44-.68-.1-.21-.09-.48-.2-.69-.2-.38-.45-.74-.7-1.14-.07-.4-.15-.86-.21-1.19-.46-.73-.87-1.36-1.34-2.1-.2-.09-.52-.24-.56-.68-.04-.41-.3-.68-.69-.82-.35-.13-.59-.34-.74-.71-.11-.27-.33-.5-.54-.72-.43-.46-.89-.9-1.38-1.38-.09,0-.23-.01-.36-.02-.24-.24-.49-.49-.7-.7-.09-.29-.18-.54-.26-.78-.11-.05-.23-.06-.31-.13-.87-.81-1.74-1.63-2.61-2.43-.35-.32-.68-.72-1.1-.89-.44-.18-.79-.46-1.19-.68-.42-.23-.72-.55-1-.89-.33-.39-.72-.69-1.14-.96-.39-.26-.72-.61-1.09-.9-.82-.65-1.62-1.34-2.48-1.93-.36-.25-.84-.31-1.32-.47-.28-.49-.61-1.01-1.28-1.1-.17-.02-.36-.29-.54-.01-.42-.17-.82-.41-1.26-.49-.26-.05-.44-.15-.55-.33-.26-.44-.63-.62-1.21-.54.1-.16.16-.23.21-.31,0-.47-.42-.37-.67-.46-.25-.09-.53-.11-.85-.17-.25-.3-.56-.62-.8-.99-.21-.33-.51-.49-.83-.68-.52-.31-1.05-.6-1.46-1.06-.14-.16-.35-.25-.53-.37-.65-.44-1.28-.89-1.95-1.31-.49-.3-.94-.62-1.5-.76-.67-.17-1.16-.65-1.78-.91-.39-.16-.81-.26-1.21-.41-.25-.09-.48-.24-.72-.34-.2-.08-.41-.14-.62-.17-.22-.03-.46.06-.62-.18-.77.11-1.15-.56-1.85-.86-.55.09-1.12-.18-1.74-.46-.62-.28-1.22-.67-1.92-.76-.34-.36-.77-.06-1.15-.14-.55-.33-1.11-.66-1.71-1.03-.21-.07-.55-.09-.77-.25-.35-.27-.62-.11-.88.03-.24-.06-.44-.11-.65-.16-.23-.06-.47-.14-.7-.17-.23-.03-.46,0-.69,0h-.72c-.03-.16-.05-.32-.08-.5h-1.01c-.36-.25-.73-.37-1.16-.38-.64,0-1.28-.06-1.91-.18-.33-.06-.61-.32-.93-.46-.39-.17-.78-.39-1.24-.08-.16.1-.44.02-.65.02-.17.14-.31.27-.44.38-.09-.04-.17-.05-.18-.08-.07-.2-.12-.4-.18-.61h-.88c-.36-.21-.68-.43-1.1-.36-.31-.35-.84,0-1.15-.35-.3-.35-.78,0-1.08-.3-.39.25-.74-.12-1.14-.05-.38.06-.76-.04-1.14-.13-.38-.08-.81.11-1.21.14-.4.03-.8,0-1.2,0-.08-.08-.17-.17-.25-.25v-.37c.25-.18.51-.37.74-.53.49.22,1.01.11,1.5.1.49-.01.98-.14,1.51-.22.3-.24.65-.51,1-.78.02.02.08.11.1.1.53-.22,1.19-.11,1.6-.63.61-.11,1.18-.68,1.88-.11.11-.17.21-.31.29-.43.61.09,1.16-.05,1.72.17.48.19,1.07-.12,1.58.14.33-.17.68-.09,1.03-.12.35-.03.74-.03,1.04-.18.58-.3,1.17-.07,1.75-.16.45.43.88-.02,1.29-.09.31-.06.67-.15.89-.05.48.22.94.14,1.41.13.58-.01,1.17.12,1.76-.11.2-.08.53.04.75.17.67.4,1.44.41,2.15.64.2.07.44.09.6.21.25.2.45.2.66-.03.19.28.35-.05.54-.02.22.04.46,0,.67,0,.25.27.55.33.9.35.7.05,1.33.37,1.98.63.4.16.8.3,1.33.5.26.43.86.57,1.43.76.6.19,1.14.46,1.66.9.09-.06.21-.13.32-.2.66.34,1.32.69,1.95,1.01.56-.19,1.06-.56,1.64-.1.24.68,1.05.71,1.55,1.15h.91c.13.23.28.49.47.83.45.16,1,.35,1.55.56.25.1.51.2.71.37.3.25.6.42,1,.52.29.07.61.18.9.31.1.04.22,0,.33,0,.25.25.5.5.75.75-.02.39.18.67.57.79.62.2,1.19.47,1.69.92.25.22.62.29.92.46.53.3,1.03.64,1.33,1.21.21.4.54.73.76,1.15.17.31.54.61.89.72.68.2,1.07.76,1.59,1.15.66.5,1.27,1.07,1.94,1.57.26.19.39.53.62.77.69.69,1.3,1.46,1.91,2.22.43.54.91,1.07,1.54,1.44.31.18.61.55.72.89.2.65.7,1.05,1.08,1.53.71.91,1.55,1.73,2.36,2.61.06.77.42,1.51.94,2.05.67.69,1.09,1.49,1.51,2.32.25.49.49.98.9,1.34.32.29.54.68.62,1.03.14.62.55,1.1.73,1.69.17.57.4,1.12.83,1.55.25.93.89,1.73.88,2.74,0,.1.05.21.09.31.18.47.34.95.24,1.45-.07.36.22.63.18.96-.04.33.11.58.25.85.16.29.13.58.02.87-.06.15-.13.35-.08.47.33.85.07,1.73.17,2.61Z"/>
  <path class="cls-2" d="M162.17,154.11c-.33.74-.68,1.48-1.39,1.99.07.74-.29,1.3-.94,1.45-.57.14-.92.47-1.32.84.11.34-.03.68-.24.91-.26.27-.5.56-.88.75-.55.27-1.24.43-1.51,1.13-.07.19-.33.3-.46.41.03.6-.29.9-.57,1.15-.38-.07-.7-.12-.96-.17-.66.49-1.39.76-1.79,1.41-.28.03-.51,0-.76.16-.38.24-.81.47-1.31.36-.5.36-1.19.45-1.54,1-.39.1-.71-.04-1.06-.11-.3-.06-.69-.19-.91.17-.75-.37-1.5-.11-2.18-.21-.39-.3-.76-.58-1.08-.83-.32.07-.58.13-.9.21-.1-.22-.19-.41-.28-.61.03-.02.05-.03.08-.05-.17-.14-.34-.29-.51-.43-.23-.2-.48-.38-.7-.6-.15-.15-.23-.37-.37-.53-.32-.34-.59-.67-.71-1.18-.09-.39-.5-.72-.8-1.12-.07-.61-.15-1.3-.24-1.98.13-.11.24-.21.36-.31v-.74c.32-.15.59-.32.89-.43.65-.23.66-.22,1.07-.84.8,0,1.44-.42,1.9-1.06.25-.35.49-.62.91-.72.1-.02.17-.15.24-.22.12-.34-.54-.4-.22-.87.23.2.43.37.66.58.68.2,1.25-.25,1.75-.59.49-.33.93-.8,1.28-1.34.19-.29.6-.43.91-.64.27-.19.54-.39.78-.6.51-.44,1.03-.87,1.51-1.34.5-.49,1-.98,1.43-1.55.36-.48.84-.89,1.35-1.26.49-.35.83-.9,1.23-1.37v-.69c.12-.06.23-.14.36-.18.64-.16,1.07-.63,1.29-1.16.37-.9.96-1.64,1.57-2.35.25-.29.16-.57.28-.84.24-.56.44-1.14.64-1.65.77-.38,1.12-1.18,1.92-1.58-.07-.48-.14-1.01-.21-1.55.04.03.09.06.13.08.05-.14.1-.28.18-.5.34.42.56.73.82,1.01.52.58,1.21.94,1.86,1.33.34.21.57.38.69.83.15.53.49,1.05,1,1.36,0,.31,0,.6,0,.89.22.22.44.45.67.67.3.3.54.61.55,1.07,0,.2.12.42.25.58.31.38.43.81.43,1.29,0,.39-.04.78.24,1.11.26.31-.01.66.15.96-.19.1-.34.17-.53.27h-.82c-.44.7-1.51.72-1.82,1.95-.03.86.61,1.85.88,3.02-.33.14-.69.3-1.09.47-.15.62-.78,1.01-.82,1.71,0,.11-.18.22-.29.3-.32.25-.65.48-1.05.77Z"/>
  <path class="cls-2" d="M129.72,159.19c-.4.16-.78.41-1.19.46-.38.05-.79-.12-1.29-.21.14-.13.2-.23.29-.28.56-.31,1.24-.36,1.66-.94.31.26.64.42.52.96Z"/>
  <path class="cls-2" d="M163.59,103.16c-.26.26-.46.46-.72.72-.01-.26-.02-.47-.04-.72h.75Z"/>
  <path class="cls-2" d="M141.08,164.06c-.2-.13-.33-.21-.51-.32.17-.12.3-.22.51-.36v.69Z"/>
  <path class="cls-2" d="M132.67,156.54v.51c-.09.02-.16.03-.3.06-.01-.17-.03-.33-.04-.5.11-.02.19-.04.34-.07Z"/>
  <path class="cls-2" d="M62.6,144.76c.11.17.17.28.23.36q-.26.05-.23-.36Z"/>
  <path class="cls-2" d="M157.7,140.51v-.29s.06,0,.08-.01c.02.1.04.19.06.29-.05,0-.1,0-.15,0Z"/>
  <path class="cls-2" d="M163.73,102.72c-.06.21-.09.31-.12.42-.03-.08-.06-.16-.07-.24,0-.02.06-.06.19-.18Z"/>
  <path class="cls-2" d="M172.67,155.59h.17v.06h-.17v-.06Z"/>
  <path class="cls-2" d="M56.13,92.98s-.09-.08-.14-.12l.05-.05s.08.09.12.14c-.01.01-.02.02-.03.03Z"/>
  <path class="cls-2" d="M193.18,207.02h-.17v-.06h.17v.06Z"/>
  <path class="cls-2" d="M99.18,60.9v.17h-.06v-.17h.06Z"/>
  <path class="cls-2" d="M132.11,58.49v.17h-.06v-.17h.06Z"/>
  <path class="cls-2" d="M67.81,150.02v.17h-.06v-.17h.06Z"/>
  <path class="cls-1" d="M125.27,106.91v.69c.29.43.54.79.83,1.21,0,0,.11.04.25.09-.08.25-.15.48-.22.7.23.6.46,1.19.71,1.83-.05.07-.11.15-.18.24.05.05.1.11.16.17-.1.1-.21.21-.36.36.28.16.54.32.85.5.05.2.12.47-.1.67.22.7.84,1.05,1.24,1.56.14.28.28.57.43.85.17.3.33.63.56.89.21.24.54.39.76.62.3.32.55.69.8,1.01.52-.01.84.24,1.12.56.41.46.88.77,1.37.67.83.34,1.51.63,2.27.94.03.05.1.19.2.39v.94c-.63,1.25-1.69,1.7-3,1.69-.26-.39-.42-.88-1.01-.87-.73-.48-1.61-.56-2.4-.86-.07-.03-.14-.09-.22-.14-.1-.21-.2-.43-.3-.66-.24-.13-.52-.25-.75-.42-.4-.3-.79-.62-1.15-.97-.33-.33-.64-.7-.91-1.09-.14-.21-.15-.51-.27-.75-.41-.84-.85-1.66-1.26-2.49-.24-.5-.45-1.02-.66-1.5-.16-.09-.3-.17-.51-.29.06-.31.12-.62.2-.99-.17-.22-.15-.65-.61-.7-.03,0-.05-.14-.08-.22-.24-.6-.65-1.15-.5-1.84-.12-.2-.19-.43-.34-.56-.43-.39-.56-.86-.54-1.42,0-.26-.13-.52-.15-.79-.03-.28,0-.57,0-.86-.33-.54-.47-1.14-.52-1.77-.03-.35-.08-.7-.12-1.1.01-.01.07-.07.15-.16-.22-.5-.45-1.01-.69-1.52.46-.57-.21-1.14-.03-1.66-.32-.59-.55-1.12-.52-1.75.02-.5.12-1.05-.18-1.47-.48-.67-.32-1.61-1.01-2.17.06-.33-.14-.52-.42-.73.13-.44.26-.88.4-1.35-.05-.06-.13-.14-.2-.22-.52-.15-1.07.1-1.58-.16-.15.04-.32.1-.51.15-.43-.63-1.12-.88-1.8-1.25-.16,0-.45.09-.6-.02-.63-.45-1.48-.33-2.11-.86h-1.63c-.07-.21-.14-.41-.23-.65h-.41c-.15.34-.52.53-.75.76-1.03.14-2.01.28-2.96.41-.49.71-1.02,1.32-1.91,1.41-.12-.21-.22-.37-.31-.53h-.59c-.07.08-.18.2-.27.3.06.1.07.18.11.19.13.03.27.03.4.07.07.03.12.12.19.18-.52.61-1.09,1.16-1.85,1.48-.34.14-.59.39-.73.74-.09.22-.25.42-.4.66-.19-.04-.36-.09-.59-.14-.05.04-.15.12-.26.21.14.26.25.47.36.69-.3.3-.55.66-.49,1.14.04.36-.1.64-.34.92v1.53c.37.38.56.9.85,1.35.28.43.78.71.9,1.3,1.07.02,2,.53,2.98.8.13.43.23.79.34,1.13.09,0,.15.01.2.01.25.25-.09,1.08-.7,1.71h-1.12c-.11,0-.27-.05-.34,0-.54.41-1.06.1-1.41-.2-.58-.5-1.26-.71-1.92-1.01-.25-.11-.57-.44-.82-.73-.14-.16-.36-.24-.5-.39-.47-.52-.94-1.04-1.39-1.58-.23-.28-.2-.63-.17-.96.05-.66-.17-1.23-.5-1.79.04-.04.14-.1.14-.16.01-.33.07-.64.16-.97.12-.42,0-.91.12-1.34.1-.35.2-.71.22-1.05.04-.61.38-1.07.65-1.55.21-.37.34-.73.44-1.17.11-.1.26-.24.33-.31.49-.14.9-.25,1.27-.36.1-.39.18-.7.26-1.01.79-.47,1.67-.73,2.39-1.3.39-.31.78-.61,1.18-.89.13-.09.29-.13.5-.21.69-.69,1.44-1.44,2.18-2.18.52.07,1.01,0,1.52.16.7.23,1.42-.09,2.08-.34.31-.12.59-.16.88-.14.24.02.47.12.71.16.24.05.47.06.72.14.42.13.91.04,1.4.04.21.19.45.39.78.69.31-.05.76-.13,1.27-.22.23.26.45.52.6.7.63.12,1.08.34,1.45.73.4.42.85.72,1.42.95.63.25,1.24.62,1.84.96.22.13.37.4.49.64.17.33.34.63.78.6.06,0,.12.11.21.2v.74c.1.02.18.04.26.05.28.33.13.82.33,1.14.29.46-.16.79-.05,1.23.16.1.35.19.52.32.18.14.33.32.52.51-.12.25-.25.51-.39.8.19.16.39.32.56.45-.06.44.07.82-.15,1.16.14.27.3.57.46.87-.05.21-.11.42-.16.63-.05.21.23.38.02.65-.1.13-.02.4.13.62.11.15.02.44.02.49.23.58.39,1,.57,1.47-.14.15-.27.29-.45.48.33.31.66.62.99.94.39.44-.35.96.05,1.4-.05.17-.1.32-.14.43.26.25.48.47.71.69Z"/>
  <path class="cls-1" d="M140.51,132.42c-.42-.27-.1-.73-.26-1.01-.22-.37-.1-.65.07-.98.6-.27,1.25-.45,1.93-.39.37.24.73.48,1.09.71.2.52-.37.69-.45,1.08-.71.54-1.51.7-2.36.61Z"/>
  <path class="cls-1" d="M55.66,106.12c.11-.11.19-.19.33-.33v-.76c.19.31.28.47.41.67-.44.3-.43.82-.74,1.29v-.87Z"/>
  <path class="cls-1" d="M62.22,89.18v-.86c.21.27.41.51.65.82-.23.01-.44.03-.65.04Z"/>
  <path class="cls-1" d="M213.8,207.2c.24.65-.41,1.05-.29,1.6h-.3v-1.32c.17-.08.36-.17.58-.28Z"/>
  <path class="cls-1" d="M211.95,209.6s.06-.07.08-.08c.11-.1.2-.28.4-.17.02.01.04.04.06.06-.13.09-.26.17-.39.26-.01,0-.05-.02-.15-.06Z"/>
</svg>