<?xml version="1.0" encoding="UTF-8"?>
<svg id="Livello_1" data-name="Livello 1" xmlns="http://www.w3.org/2000/svg" viewBox="0 0 274.41 274.41">
  <defs>
    <style>
      .cls-1 {
        fill: #fff;
        stroke-width: 0px;
      }
    </style>
  </defs>
  <path class="cls-1" d="M227.61,108.06c-.38-.19-.73-.36-1.08-.53-.4.17-.82.31-1.21.12-.4-.2-.86-.37-1.01-.87-.11-.35-.33-.45-.68-.5-.43-.06-.86-.21-1.27-.39-.81-.35-1.62-.65-2.52-.56-.31.03-.63,0-.92,0-1.11-1.27-2.59-1.55-4.13-1.73-.58-.84-1.49-.64-2.41-.67-.34-.29-.7-.64-1.1-.92-.3-.21-.64-.45-.99-.49-1.27-.14-2.56-.21-3.79-.3-.33-.17-.62-.32-.84-.43-.51.09-.96.31-1.31.2-.69-.23-1.33-.64-1.99-.96-.5-.24-1-.61-1.52-.65-1.04-.07-2.07-.43-3.13-.27-1.19.18-2.17-.57-3.29-.72-.14-.02-.26-.13-.38-.22-.52-.37-1.14-.55-1.74-.71-.87-.22-1.76-.41-2.66-.53-.8-.11-1.63-.23-2.41-.53-.48-.19-.96-.38-1.51-.42-.54-.04-1.06-.39-1.6-.43-.56-.04-1.13.19-1.69.19-.39,0-.79-.19-1.12-.28-.21-.41-.4-.77-.59-1.14-.89.1-1.71.2-2.42.28-.23-.35-.38-.57-.41-.62-.85-.24-1.55-.4-2.22-.63-.88-.3-1.71-.79-2.7-.71-.29.02-.53-.22-.9-.05-.22.1-.64-.31-.99-.38-.28-.06-.6.02-.88.1-.24.07-.46.22-.6.29-.69-.19-1.29-.36-1.91-.54-.18-.15-.39-.32-.55-.46.08-.19.17-.32.2-.46.02-.14-.03-.29-.04-.43-.22,0-.38,0-.54,0-.73-.01-1.45.04-2.18-.22-.77-.28-1.59-.41-2.65-.67-.26-.23-.68-.72-1.21-1-.55-.29-1.2-.37-2-.6-.1-.12-.32-.4-.42-.52-1.22-.27-1.96-.92-2.6-1.58-.12-.7-.23-1.34-.36-2.03-.48-.4-.77-.96-.67-1.62-.19-.19-.33-.33-.5-.5.19-1.05-.28-1.9-1.03-2.77.16-.44.34-.92.54-1.47-.28-.69-.45-1.53-1.07-1.91-.13-.77-.24-1.37-.36-2.06-.32-.23-.69-.5-1.07-.78-.03-.05-.09-.11-.11-.18-.16-.65-.17-1.39-.59-1.9-.32-.38-.37-.74-.37-1.37-.24-.24-.57-.57-.92-.92.08-.16.19-.39.3-.62.19-.02.38-.04.57-.06v-.94c-.71-.27-1.28-.72-1.35-1.44-.06-.65-.42-1.11-.64-1.66-.04-.1-.09-.2-.16-.34.2-.16.38-.3.53-.41v-1.89c-.12-.08-.32-.21-.49-.33v-.98c-.64-.75-.87-1.15-.97-1.81-.18-.15-.45-.38-.73-.61.18-.54-.12-1.07.22-1.63.32-.51-.18-1.1-.2-1.74-.29-.22-.61-.47-.93-.72v-.63c.2-.26.36-.47.52-.68-.31-.2-.56-.36-.82-.53.1-.4.38-.9.24-1.1-.45-.64,0-1.17.06-1.74-.82-.92-1.49-1.89-1.23-3.06-.17-.32-.23-.56-.38-.71-.46-.48-.68-1.03-.57-1.68.1-.57-.19-1.05-.3-1.56-.08-.34-.43-.62-.67-.94,0-.38.03-.78,0-1.17-.05-.41-.17-.81-.26-1.24-.33-.46-1.02-.72-.96-1.45-.25-.25-.44-.54-.71-.68-.28-.15-.05-.65-.57-.63-.24.01-.51-.29-.74-.48-.23-.19-.43-.43-.63-.62.19-.38.34-.66.51-1-.44-.33-.88-.66-1.32-.99-.59.66-1.34.42-2.04.51-.52,1.33-1.47,2.27-2.38,3.27-.41.45-.79.95-1.21,1.4-.1.11-.17.25-.21.39-.18.53-.61.88-.97,1.28-.34.37-.8.64-.98,1.13.11.12.19.21.34.36-.24.02-.43.04-.65.06-.35.16-.47.68-.98.74-.14.02-.27.34-.35.55-.25.68-.57,1.29-1.08,1.83-.79.84-1.87,1.39-2.45,2.43-.05.09-.05.21-.07.31.18.09.34.17.47.23.1.49-.7.26-.52.77-.11.03-.24.03-.32.09-.37.27-.74.54-1.08.85-.33.29-.62.62-.94.93,0,.12.04.26,0,.35-.4.81-.7,1.68-1.43,2.28-.24.2-.49.42-.67.68-.81,1.11-1.59,2.25-2.54,3.25-.13.14-.37.31-.35.44.05.49-.34.67-.57.97-.23.3-.44.61-.64.93-.2.31-.35.66-.55.97-.81,1.22-1.67,2.41-2.44,3.66-.67,1.08-1.53,1.99-2.29,3.02v.92c-.56.74-1.11,1.47-1.67,2.2.05.98-1.12,1.45-.99,2.42-.41.13-.76.25-1.11.36-.1.35-.19.7-.28,1,.09.13.15.2.15.21-.51.63-.92,1.27-1.45,1.76-.72.67-.95,1.52-1.16,2.34-.22.15-.41.27-.59.4-.03.02-.08.05-.08.08-.16.99-.89,1.69-1.48,2.36-.62.7-.82,1.68-1.62,2.16-.05.38-.1.7-.15,1.1-.58.43-1.25.93-1.97,1.45-1.14-.22-2.16.37-3.2.69-.2-.08-.37-.21-.54-.22-.57-.02-1.15.14-1.7.18-1.01.07-1.98.46-3.01.29-.11-.02-.27-.04-.35.02-.47.36-.91.32-1.39.03-.12-.07-.36-.11-.45-.04-.53.43-1.14.19-1.71.21-.56.02-1.07.07-1.48.49-.4,0-.8,0-1.16,0-.57.41-1.11.74-1.77.24-.83.15-1.44-.35-2.17-.72-2.08,0-4.23,0-6.39,0-.37-.41-.84-.51-1.36-.48-.19.01-.41.03-.58-.04-.75-.32-1.57-.24-2.27-.49-.34.31-.63.57-.98.88-.88-.62-1.72-1.25-2.79-1.59-.52.52-1.09.23-1.7-.03-1,.94-1.9.48-2.81-.2-.41-.31-.9-.5-1.32-.72-.48.19-.88.39-1.3.51-.47.13-1,.11-1.43.31-.47.22-.86.2-1.31.04-.56-.2-1.13-.2-1.62.12-.27-.08-.51-.19-.77-.22-1.04-.12-2.12.24-3.13-.24-.07-.03-.17-.03-.24,0-.69.38-1.41.55-2.2.47-.35.37-.81.26-1.22.22-.43-.04-.73.2-1.06.35-.3.15-.53.47-.84.56-.68.21-.9.75-1.11,1.33-.13.35-.27.69-.4,1.03-.21.73.16,1.37.39,2.02-.49.91-.19,1.8.06,2.77.2.18.46.42.6.54.07.52.06.88.18,1.2.22.55.19,1.13.34,1.69.07.29-.13.64-.21.97,0,.04,0,.08,0,.15.3.2.62.41.96.64,0,.57-.02,1.13.37,1.63.21.28.31.69.34,1.05.04.53.24.96.62,1.3.62.55.98,1.19.83,1.96.35.67.64,1.27.96,1.85.35.61.68,1.23,1.43,1.48.28.09.49.37.72.54v1.14c.59.88,1.13,1.69,1.68,2.51.4.59.87,1.15,1.18,1.79.57,1.14,1.29,2.16,2.22,3.02.32.3.49.67.66,1.04.29.64.52,1.31.87,1.91.49.85,1.27,1.49,1.7,2.41.14.29.52.46.77.7.33.31.67.61.97.96.69.8,1.42,1.57,1.8,2.6.09.24.4.38.57.6.55.69,1.09,1.38,1.61,2.09.36.48.69.99,1.01,1.49.2.31.39.64.51.98.31.84.59,1.66,1.16,2.4.52.68,1.09,1.34,1.48,2.13.37.76,1.08,1.41.48,2.36-.02.03,0,.08,0,.12,0,.84,0,1.68,0,2.51,0,.11.13.23.14.24-.16.64-.57,1.03-.66,1.63-.09.65-.43,1.26-.57,1.91-.14.7-.74,1.24-.63,2.03.02.17-.2.39-.32.57-.6.92-.65,1.16-.38,2.16-.19.31-.48.61-.56.96-.21.82-.76,1.45-1.39,1.78-.86.45-.94,1.23-1.12,1.94-.18.7-.36,1.36-.75,1.97-.4.63-.4,1.44-1,1.94.2.39.37.72.57,1.11-.44.39-.89.77-1.25,1.09,0,.24.02.32,0,.4-.07.21-.16.41-.24.62.1.16.2.31.28.45-.48.83-.93,1.6-1.36,2.38-.3.55-.67,1.1-.81,1.69-.29,1.19-.61,2.37-1,3.42-.46.27-.83.48-1.16.68.2.38.35.68.47.91-.25.38-.54.67-.65,1.01-.17.53-.23,1.11-.32,1.66-.1.63-.21,1.25-.48,1.84-.41.91-.78,1.83-1.17,2.75.24.58-.57.74-.5,1.22.08.59-.29,1.05-.55,1.44-.25.36-.4.72-.54,1.1-.15.42-.2.87-.36,1.29-.25.69-.42,1.48-.87,2.02-.6.71-.81,1.45-.81,2.31-.23.23-.45.45-.65.65-.12,1.64-.97,2.99-1.5,4.7,0,.64.17,1.57-.64,2.24-.03.02-.07.07-.06.09.19.97-.98,1.81-.28,2.83.02.02-.17.15-.19.25-.26,1.16-.45,2.33-.96,3.44-.18.4-.18.88-.26,1.33.61.73-.07,1.32-.17,1.98.19.37.39.76.51.99.58.4,1,.72,1.45.99.44.27.89.62,1.38.71.95.17,1.92.18,2.89.27.53.05,1.05.12,1.58.18,1.06-.29,1.94-.88,2.39-1.72.85-.24,1.61-.3,2.19-.66.54-.33,1.07-.69,1.63-.99.59-.31,1.02-.94,1.84-.89.42-.66,1.15-.93,1.86-1.14.52-.15.97-.34,1.4-.68.49-.38,1.06-.69,1.64-.94,1.32-.57,2.66-1.09,3.81-1.55.35-.42.6-.7.82-.97.81.04,1.45-.25,2.01-.71.63-.03,1.23-.06,1.84-.21,1.03-.24,1.81-.64,2.08-1.56.34-.26.58-.44.85-.64.54.05,1.11,0,1.65-.23.37-.16.76-.29,1.13-.45.37-.16.73-.35,1.11-.5.38-.15.62-.49,1.1-.56.35-.05.63-.57.93-.87,1.35,0,2.32-.71,3.1-1.69h1.22c.54-.36,1.07-.71,1.61-1.08-.11-.37-.2-.68-.33-1.11.75-.1,1.43-.19,2.03-.27.68-.33,1.13-.85,1.96-.95.81-.1,1.71-.36,2.16-1.14h.24c.91-.54,1.6-1.2,2.4-1.38.88-.2,1.54-.75,2.35-1.03h.97c.6-.46.59-1.1.67-1.68.35-.18.65-.34.93-.48.15.1.28.18.39.26.9-.37,1.71-.96,2.74-.98.23,0,.47-.21.68-.36.38-.26.74-.54,1.13-.83h.7c.53-.2.89-.31,1.22-.47.66-.32,1.47-.14,2.06-.5.51-.32,1.03-.27,1.46-.15.29.08.59.21.87.17.64-.09,1.26.07,1.79.32.52.25,1.01.06,1.49.17.47.11.83.57,1.36.47.34-.07.58.13.86.24.62.25,1.23.64,1.86.68.84.05,1.28.63,1.94,1.01h.88c.62.73,1.42,1.13,2.29,1.42.14.05.32.04.43.12.88.73,1.8,1.4,2.77,2.01.52.33.73.94,1.34,1.28.64-.07,1.36-.14,2.03-.21.16.41.32.82.5,1.28.81.11,1.27.69,1.8,1.2.82.79,1.51,1.73,2.53,2.27.56.3,1.18.73,1.91.2.25.52.92.7,1.07,1.35.03.14.31.2.44.33.39.37.89.16,1.34.27,1.05.62,2.08,1.28,3.16,1.87.38.2.84.35,1.21.53,1.13.56,2.51.71,3.18,1.81.73.2,1.42.25,1.92.58.49.33,1,.5,1.52.68.14.05.28.11.4.2.43.34.94.43,1.58.57.16.17.43.42.64.7.42.55,1.03.74,1.65.94.28.09.52.29.87.48h.83c.65.68,1.26,1.38,2.2,1.68h1.53c.31,1.1,1.12,1.84,2.07,2.45.73.47,1.43.97,2.16,1.43.88.56,2.01.6,2.79,1.36.68-.05,1.14.48,1.62.64.3-.08.51-.14.75-.21.22.25.46.46.61.72.4.69.95,1.2,1.69,1.48.73.28,1.44.6,2.09,1.03.38.25.69.67,1.1.82.77.28,1.31.72,1.6,1.44,2.76.61,3.14.64,5.78.5.21-.5.45-1.04.67-1.58.38-.92.66-1.9,1.32-2.69.18-.22.3-.52.35-.81.24-1.28.65-2.53.43-4.05.23-.15.53-.34.85-.55-.12-.31-.21-.55-.31-.8.27-.42.18-1.05.63-1.26.32-1.68.13-3.32.8-4.83-.08-.09-.16-.17-.28-.3.26-.29.15-.67.19-1.02.05-.39.2-.71-.12-1.07-.28-.31-.47-.68-.73-1.07v-.86c.09-.04.32-.14.53-.24-.22-.42-.38-.74-.55-1.06.09-.23.22-.43.23-.64,0-.29.2-.52.22-.74.04-.44-.19-.89-.19-1.33,0-.49.14-.97.22-1.46-.51-.36-.1-.95-.36-1.41-.23-.39-.27-.93-.4-1.39-.17-.62-.26-1.36-.92-1.75,0-.22.02-.42,0-.61-.1-1.02.31-2.12-.47-3.04-.08-.09-.01-.31-.01-.47v-1c-.29-.67-.64-1.17-.68-1.69-.05-.7-.43-1.31-.47-1.96-.06-.77-.46-1.37-.8-1.95-.31-.53-.04-.85.06-1.19-.11-.19-.19-.32-.25-.45-.42-.86-.58-1.82-1.08-2.67-.25-.43-.27-1.01-.34-1.53-.02-.15.12-.33.19-.52-.3-.4-.62-.82-.96-1.29.09-.23.18-.47.29-.74-.08-.11-.25-.24-.24-.35.14-.87-.31-1.68-.26-2.54.02-.4.15-.88-.03-1.18-.27-.45.1-.75.07-1.14-.04-.39-.26-.72-.27-1.09-.02-.64.04-1.28-.02-1.91-.05-.64-.2-1.28-.32-2-.54-.25-.67-.9-.84-1.46-.1-.32-.21-.8.15-1.05-.14-.52-.46-1.05-.37-1.51.1-.49-.07-.91-.07-1.37,0-.52-.18-1.03-.29-1.58-.21-.13-.43-.26-.69-.42.24-.48.48-.96.72-1.42-.56-.82-1.05-1.62-.92-2.51-.28-.41-.49-.72-.67-.99v-1.03c.58-.29,1.09-.7,1.64-.78.81-.11,1.49-.47,2.21-.76.51-.21.99-.62,1.5-.68.67-.07.94-.43,1.14-.93.41-.12.81-.23,1.23-.35.76-.76,1.54-1.55,2.32-2.32.56-.09,1.09-.16,1.6-.27.25-.05.54-.14.7-.31.81-.82,1.9-1.21,2.84-1.84.34-.23.75-.35,1.05-.62.33-.3.52-.75.86-1.04.36-.31.87-.46,1.21-.79.55-.53,1.15-.75,1.99-.63.19-.23.42-.5.62-.74.91-.06,1.1-.16,1.95-.97,1.17.17,1.65-.84,2.41-1.45.92.26,1.32-.59,1.91-1.02.54-.39.95-.96,1.46-1.41.45-.41.94-.76,1.44-1.16h1.84c.42-.25.9-.39,1.18-.71.59-.67,1.36-.94,2.16-1.18.11-.03.26-.01.32-.08.66-.66,1.58-.61,2.4-.91.33-.27.56-.76.92-.9,1.18-.43,2.06-1.33,3.19-1.83.88-.39,1.44-1.09,1.76-1.99.54-.07.74-.56,1.09-.85.36-.31.69-.65.98-.91.12-1.46,1.1-2.37,1.69-3.5-.08-.79.18-1.63-.29-2.34ZM220.66,112.28c-.39.3-.88.67-1.37,1.05-.03.02-.06.05-.08.08-.34.42-.6,1-1.04,1.2-.44.2-.89.34-1.3.63-.42.29-.92.46-1.38.7-.23.12-.44.28-.67.42-.16.09-.32.2-.49.25-.96.28-1.84.76-2.76,1.15-.38.16-.75.29-1.1.54-1.17.82-2.45,1.45-3.57,2.35-.39.31-.8.6-1.11.84-.42.17-.8.26-1.09.47-.58.42-1.03.98-1.82,1.12-.33.06-.65.41-.9.69-.62.71-1.51,1.04-2.2,1.65-.03.03-.05.07-.09.08-.83.28-1.35.92-1.79,1.62-.44,0-.84-.04-1.23.01-.33.04-.64.18-1.06.31-.18.45-.81.55-1.14,1.06-.25.38-.88.5-1.32.78-.45.29-.82.73-1.3.9-.42.15-.82.36-1.23.5-.62.22-1.05.62-1.52,1.1v.83c-.42.17-.83.33-1.25.5-.13-.08-.25-.17-.38-.25-.07.01-.16.01-.22.05-.87.49-1.73,1.02-2.71,1.25-.61.15-1.04.57-1.64.86h-1.76c-.78.56-1.53,1.03-2.45,1.21-.35.07-.69.28-.99.49-.44.31-.84.67-1.26,1.01-.33.26-.65.53-1,.76-.41.26-.42.7-.6,1.07-.16.34-.41.62-.59.96-.19.36-.42.73-.47,1.12-.1.96.1,1.88.39,2.82.19.61.81.55,1.04.99.83.17,1.01.97,1.14,1.53.24,1.06.62,2.09.75,3.16.05.38.28.54.5.81-.08.36.08.76-.2,1.19-.26.4.06.88.29,1.27.18.31.23.56-.05.85.4.78.75,1.59.68,2.53-.07.93.49,1.71.75,2.56.09.31.32.58.46.82-.35,1.05-.32,1.25-.04,2.75.1.54.06,1.12,0,1.67-.11,1.21.19,2.34.59,3.47.26.73.43,1.5.7,2.45.12.1.4.32.6.48.1.52.26.93.25,1.33-.02.41.15.74.27,1.1.12.35.26.71.49.99.51.63,1.09,1.21,1.66,1.84-.36.54-.6,1.08-.47,1.69.63.95,1.3,1.86,1.19,3.11-.09.96.41,1.83.56,2.76.11.66.29,1.32.43,1.98.19.89.15,1.77.22,2.66.03.35.24.69.44,1.23-.04.31.1.83-.2,1.36-.15.27-.08.71-.02,1.06.23,1.22.13,1.21.03,2.44-.08.91-.25,1.87.13,2.8.11.27.18.69.04.91-.29.49-.15.98-.22,1.47-.08.56-.19,1.12-.31,1.79-.09.11-.27.31-.41.47.11.59.21,1.1.3,1.57-.21.21-.35.35-.53.53,0,.28-.13.71.03.88.32.34-.04.53-.04.78,0,.25-.1.52-.24.73-.18.26-.44.46-.68.7v1.19c-.21.22-.42.44-.6.62-.92.04-1.34-.78-1.88-.91-1.51.2-2.49-.78-3.66-1.02-.36-.71-.89-1.28-1.58-1.65-1.02-.54-2.09-.98-3.01-1.68-.17-.13-.4-.18-.61-.24-.7-.21-1.31-.54-1.84-1.06-.55-.54-1.19-1-1.8-1.49-1.47-.51-2.98-.99-4.07-2.24h-.71c-.31-.31-.62-.62-.94-.94h-.97c-.04-.09-.06-.2-.12-.29-1-1.55-1.34-1.8-3.14-2.36-.21-.06-.42-.15-.62-.24-1.21-.54-2.38-1.19-3.71-1.46-.23-.05-.6-.11-.73-.58-.12-.4-.66-.59-1.15-.59h-.73c-.42-.22-.85-.44-1.38-.71-.88.21-1.63-.42-2.38-.86-.51-.3-1.02-.43-1.68-.67-.38-.39-.88-.78-1.61-.95-.54-.13-1.04-.57-1.53-.94-.71-.54-1.15-1.31-1.73-1.79-1.16-.31-2.2-.6-3.34-.91-.05-.13-.12-.34-.2-.54-.48-1.15-1.27-1.98-2.43-2.45-.2-.08-.44-.12-.61-.25-.87-.6-1.86-.92-2.86-1.18-.61-.16-.74-.68-1-1.12.4-.35-.05-.47-.21-.54-.3-.14-.64-.23-.97-.24-.55-.02-.92-.3-1.3-.65-.31-.28-.65-.52-1.02-.82-.93.13-1.79-.11-2.53-.71-.66-.53-1.49-.64-2.24-.95-.31-.13-.68-.2-.89-.42-.41-.43-.91-.7-1.43-.9-.8-.3-1.38-.98-2.28-1.15-.7-.13-1.36-.39-2.1-.42-1.72-.05-3.44-.16-5.17-.23-.98-.04-1.85.29-2.64.84-.56.39-1.11.79-1.66,1.18-.06.04-.12.1-.19.12-.56.19-1.19.27-1.67.58-.53.35-1.04.6-1.67.62-.08,0-.17,0-.22.03-1.1.77-2.55.87-3.54,1.86-.85.22-1.57.67-2.25,1.22-.24.19-.51.35-.72.56-.73.75-1.69,1.11-2.63,1.73-.14.27-.35.67-.54,1.05h-1.18c-.77.44-1.38.99-2.21,1.23-.48.14-.96.38-1.39.69-.74.53-1.51,1.01-2.23,1.57-.46.25-1,0-1.54.32-.59.35-.85.4-1.28.89-.41.46-.93.65-1.57.57-.36.7-.81,1.27-1.63,1.48-.27.07-.46.43-.53.5-1.07.36-1.95.65-2.88.97-.18.18-.4.4-.64.64h-1.63c-.56.51-1.1,1-1.62,1.47-1.17-.11-2.13.16-3.03.91h-1.11c-.98.93-2.21,1.43-3.49,1.66-.81.14-1.32.68-2.01.95-.37.15-.69.42-.88.54-.33.32-.51.63-.74.69-1.52.36-2.79,1.19-4.07,2.04-1.08.72-2.12,1.52-3.43,1.82-.2.05-.35.3-.46.39-.52.11-.96.25-1.4.3-.43.05-.87.01-1.35.01-.06-.35-.14-.66.08-1,.11-.17.08-.44.1-.67.03-.47.02-.94.1-1.4.08-.43.22-.86.39-1.27.29-.67.23-1.36.23-2.06,0-.58-.06-1.16.24-1.7.21-.38.22-.79.25-1.22.03-.53.17-1.05.21-1.29.41-.88.7-1.52.92-1.99.49-.51.87-.91,1.34-1.41-.26-.14-.46-.24-.57-.3v-.7c.14-.11.32-.25.47-.37v-1.26c.3-.49.59-.97.94-1.56v-1.58c.3-.2.61-.41.88-.59.23-.93.44-1.8.71-2.87.55-.5,1.14-1.21,1.32-2.22.16-.91.99-1.66.68-2.65,1.12-1.6,1.65-3.46,2.65-5.12v-1.12c.62-.88.94-1.87,1.19-2.88.13-.52.28-1.02.93-1.17v-1.63c1.07-1.13,1.54-2.49,1.71-3.99.03-.25.19-.49.22-.74.05-.4.6-.49.51-1-.06-.34.12-.73.22-1.09.07-.25.14-.51.28-.72.36-.52.75-.99.98-1.64.17-.47.82-.77,1.33-1.21v-1.1c.63-.96,1.19-1.82,1.28-2.94.04-.46.46-.94.81-1.32.36-.39.53-.88.56-1.32.05-.89.54-1.64.62-2.51.03-.3.09-.6.13-.9.04-.26.05-.53.12-.79.14-.53.32-1.06.54-1.57.07-.63-.03-1.29.46-1.86.14-.17.08-.52.1-.75-.18-.18-.32-.32-.46-.46-.01-.03-.04-.07-.03-.1.11-.84-.3-1.52-.61-2.26-.35-.82-.9-1.54-1.21-2.37-.04-.1-.08-.21-.15-.4-.3-.1-.68-.23-1.09-.37-.02-.08-.04-.18-.07-.34-.2-.03-.42-.06-.77-.12.16-.2.26-.34.37-.47.04.02.08.05.12.07.13-.35.26-.69.38-1.02-.54-.43-1.02-.81-1.49-1.19.07-.16.18-.3.15-.38-.09-.19-.23-.38-.4-.57-.52-.56-1.36-1.06-2.07-1.2-.09-.35-.17-.7-.3-1.02-.13-.33-.32-.62-.63-.87-.54-.43-.61-1.11-.81-1.7-.25-.73-.56-1.39-1.13-1.93-.5-.46-.96-.96-1.44-1.43-.16-.16-.33-.35-.54-.43-1.1-.44-1.46-1.31-1.45-2.42,0-.12,0-.24,0-.42-.91-.8-1.84-1.63-2.78-2.46-.02.04-.04.08-.07.11-.26-.13-.52-.26-.86-.43.24-.32.42-.56.64-.86-.08-.17-.15-.38-.27-.56-.23-.35-.46-.66-.52-1.11-.05-.4-.62-.57-.49-1.13.05-.23-.17-.57-.35-.79-.59-.74-1.2-1.45-1.63-2.32-.16-.33-.48-.58-.78-.85-.1-.09-.2-.18-.29-.27-.02-.3-.1-.54-.24-.73-.15-.19-.37-.32-.69-.4-.6-.15-1.16-.47-1.72-.71v-1.12c.21-.17.49-.39.7-.56v-1.14c-1.04-.56-2.08-1.18-2.37-2.53.04-.05.12-.14.21-.25-.59-.57-.44-1.32-.47-2.04-.02-.57.13-1.17-.24-1.7.38-.37-.14-.74-.02-1.12.05-.15-.05-.36-.12-.54-.29-.79-.07-1.47.56-1.94.5-.38,1.04-.74,1.75-.69,1.09.09,2.17-.05,3.32-.33.64-.57,1.34-.5,2.06.1.54,0,1.1-.04,1.65.01.56.05,1.06-.15,1.58-.25.52-.1,1.06.14,1.6-.21.23-.15.74-.18,1.11.14.13.11.47-.02.86-.05,0,.01.11.17.25.37.63-.08,1.25.15,1.86-.22,1.08.2,2.16.61,3.26.95.89.28,1.87.11,2.73.65.34.22.94.09,1.41.02.87-.13,1.68.32,2.54.25.31.35.72.2,1.1.25.17.02.33.15.49.23.7-.37,1.41-.26,2.14-.16.54.08,1.04.3,1.56.38.62.09,1.27,0,1.91.03.33.01.73-.16.98.23.81.03,1.61.04,2.34-.4.25-.15.55-.28.83-.3,1.4-.1,2.8-.18,4.21-.24.33-.01.71-.15,1,.2.07.08.37.09.45.02.41-.41.91-.24,1.35-.21,1.26.08,2.47-.42,3.73-.26,1,.12,2,.2,2.92.28.26-.12.45-.17.59-.28.59-.44,1.23-.79,1.48-1.6.19-.62.66-1.16.98-1.75.09-.16.11-.36.15-.51.34-.47.66-.93.97-1.36-.13-.23-.22-.39-.36-.65.56-.41,1.1-.81,1.73-1.28v-.8c.27-.27.45-.63.83-.67.76-.93.94-2.17,1.83-2.99v-.73c.6-.45.95-1.15,1.58-1.59.23-.16.47-.47.49-.74.07-.78.49-1.33.94-1.89.11-.13.08-.37.11-.52.28-.3.55-.59.82-.87h.51c.11-.39.33-.8.3-1.18-.06-.88.33-1.49.95-2.01,1-.83,1.64-1.88,1.95-3.14.04-.17.16-.33.25-.5.2-.39.4-.78.68-1.33.47-.14.75-.75,1.16-1.24.42-.49.46-1.24,1.22-1.59.07,0,.26-.03.42-.05.44-.41.63-.89.53-1.61.15-.12.38-.28.58-.46,1.13-1.01,2.01-2.22,2.81-3.5.32-.52.8-.94,1.16-1.44.21-.3.35-.65.5-.99.11-.25.22-.5.35-.74.37-.72.84-1.35,1.75-1.58.09-.64.44-1.15.84-1.61.13-.15.27-.3.4-.45.32-.35.76-.58.99-1.06.15-.3.48-.51.72-.78.17-.2.33-.42.46-.65.28-.52.53-1.06.8-1.59h.49c.09-.08.18-.16.26-.24.43-.39.82-.8,1.32-1.13.43-.28.67-.83,1.04-1.22.26-.27.6-.46.91-.69.25-.19.21-.65.66-.67.18,0,.35-.12.62-.22.16.27.32.54.48.81.04-.04.09-.08.13-.12v.98c.31.21.62.42,1,.67-.43,1.38.39,2.57.72,3.84.08.29.2.58.17.88-.06.87.25,1.62.62,2.38.28.56.45,1.17.73,1.91.18.18.49.49.88.88-.34.32-.68.65-1.04.99.08.14.14.33.26.46.66.75.75,1.63.73,2.58,0,.67.3,1.3.64,1.86.19.94.29,1.87.51,2.8.22.92.64,1.73.97,2.59.33.87.54,1.78,1.21,2.53-.03.59-.03,1.21.47,1.68.03.73-.08,1.47.23,2.18.25.58.68,1.04.82,1.7.12.56.22,1.15.6,1.67.28.37.33.89.5,1.34.19.48.28.97.6,1.44.32.46.32,1.14.49,1.86.3.3.37.82.34,1.37-.04.77.09,1.5.35,2.24.22.62.28,1.3.59,1.91.08.17-.05.44-.09.66-.03.14-.1.28-.13.42-.02.15,0,.31,0,.49.14.03.25.05.37.08.09.18.19.38.3.58-.14.26-.3.54-.47.85.08.1.13.21.22.27.43.33.86.64,1.25.93v1.12c.14.11.33.26.51.4-.35.58-.02,1.12.01,1.64.03.48.45.92.6,1.41.26.86,1.06.87,1.68,1.12.31.12.71.02,1.16.02.58-.52,1.2-1.08,1.81-1.63.7.4,1.34.82,2.04,1.14.7.32,1.33.82,2.2.89,0,0,.08-.08.14-.13.84.43,1.64.89,2.62.95.67.03,1.29.35,1.94.52.92.23,1.88.41,2.73.9.06.03.19-.03.23,0,.81.75,1.81.74,2.81.74.09,0,.17.14.19.16.4-.05.82-.25,1.02-.11.99.68,2.16.81,3.26,1.09,1.26.32,2.5.73,3.78,1.02.69.16,1.33.51,2.08.46.7-.05,1.25.47,1.95.5.42.02.81.36,1.24.44,1.22.24,2.4.64,3.65.75.69.06,1.36.35,2.04.54.57.16,1.14.34,1.7.51.54.16,1.04.41,1.64.39.31-.01.63.19.95.29.18.06.35.13.53.17.44.09.9-.12,1.36.21.29.21.8-.02,1.21.24.26.16.7.03,1.04.03.61.31,1.2.62,1.88.97.99-.09,2.04.02,3.05.71,1.02-.02,2.16-.12,3.03.71,2.07,0,4.02.43,5.88,1.22.61.26,1.18.62,1.76.95.85.49,1.76.78,2.72.96.25.05.57.11.71.28.55.73,1.46.74,2.2,1.25v.86Z"/>
</svg>