<?xml version="1.0" encoding="UTF-8"?>
<svg id="Livello_1" data-name="Livello 1" xmlns="http://www.w3.org/2000/svg" viewBox="0 0 489 489">
  <defs>
    <style>
      .cls-1 {
        fill: #fff;
        stroke-width: 0px;
      }
    </style>
  </defs>
  <path class="cls-1" d="M289.78,211.25c-4.3-6.56-9.3-12.32-16.53-15.63-1.6-.73-2.81-1.88-4.12-2.89-.38-.29-.76-.57-1.17-.83-.6,0-1.37.25-1.78-.04-4.28-2.98-9.11-3.53-14.14-3.68-2.06-.06-4.22.85-6.26-.84-2.07-1.71-3.79,1.65-5.95.9-1.73-.6-2.52,1.52-4.31,1.3-3.78-.45-6.94,1.4-9.9,3.57-.01.24-.05.43-.1.58-.33.95-1.32.56-2.09.61-.08,0-.15.01-.22.03-.74,2.85-3.95,2.77-5.55,4.82-3.05,3.92-7.26,6.82-10.19,10.92-2.76,3.85-6.69,6.93-7.63,11.97-.06.33-.6.53-.81.87-2.75,4.38-5.14,8.9-4.85,14.33.04.8.3,1.77-.04,2.4-2.35,4.34-1.44,9.09-.93,13.42.53,4.52,1.44,9.18,4.13,13.38,2.23,3.46,5.1,6.59,6.52,10.57.1,0,.19.02.28.03.92.15.98.73.94,1.35-.02.36-.07.73,0,1.05.86.17,2.15-.51,2.39.92.02.09.03.19.03.3-.05,1.19,1,1.62,1.67,2.22.81.71.76,1.52.75,2.37,0,.09,0,.19,0,.28,1.21-.15,2.15.17,3.04,1.15.86.95,1.53,2.26,3.01,2.5.2,0,.38.03.57.05,1.94.22,3.19,1.6,4.54,2.81.3.27.61.54.94.78,2.55,1.96,3.88,2.56,8.09,3.56.12.03.24.06.37.09,1.7,1.46,3.87,1.22,5.77,1.2.86,1.05,1.48,1.81,1.99,2.45h7.96c.57-2.34,2.44-.75,3.63-1.22h2.42s0,.05,0,.09c.02-.03.04-.05.06-.09h3.57c-.08-1.08.62-1.22,1.45-1.22,1.53,0,3.07,0,4.6,0h2.42c-.08-1.11.65-1.22,1.48-1.22,2.33,0,4.66,0,6.99,0,2.14-.64,3.71-2.51,6.22-2.53,1.16,0,2.57-.86,3.41-1.77,2.84-3.04,6.21-5.54,8.59-9.07,1.04-1.55,2.9-2.66,3.51-4.49,1.78-5.32,2.87-10.87,4.96-16.08.74-1.86,1.25-3.59,1.17-5.57-.04-1.12.42-2.26.64-3.31.73-3.58,1.01-7.21-.23-10.97-1.7-5.17-4.36-10.09-4.22-15.85.03-1.23-1.95-2.79-.69-4.14,1.62-1.73-1.49-2.61-.37-4.02-.21-.14-.4-.29-.6-.44-2.41-1.82-3.8-4.52-5.4-6.96ZM221.19,215.27c.52,1.47.87,2.47,1.16,3.31.02-.03-.49.8-.73,1.19-1.89.26-2.22-.96-3.03-1.5.17-1.02,1.07-1.43,2.6-3.01ZM215.69,254.95h-4.17c-2.02-2.14-3.24-4.92-3.98-7.83-.8-3.13.83-5.99,1.69-9.03,2.6,0,1.87,1.61,1.84,2.6-.04,1.1-1.56,1.73-1.17,3.12.45,1.62,1.26,3.08,1.55,4.81.19,1.17,1.51,2.16,2.35,3.26,2.36-2.63-.56-4.03-.26-5.87.76-1.04,1.84-.46,2.97-.66,1.04,2.07,2.1,4.19,3.37,6.71-1.09.76-2.23,1.55-4.17,2.89ZM226.83,238.12c-.34-1.22,1.6-1.31,1.06-3-1.08-.7-2.53-1.65-4.46-2.9-.71.17-1.25,1.96-2.79,2.74v4.97c-1.04-.88-2.17-1.84-3.43-2.91,1.4-7.36,2.2-8.19,8.81-8.67,1.38,1.15,3.06,2.29,4.35,3.79.43.49,1.22,1.11,1.26,1.84.13,2.7-.44,5.5,1.25,7.95-1.08,1.22-1.01,2.81-1.49,4.22-.41,1.23-1.7,2.16-2.27,2.84-2.57.2-4.14-.25-4.7-2.38-1.18-.17-1.74-1.06-2.39-2.13,1.38-.06,2.88-1.36,3.6.91,2.41.12,3.72-.93,3.64-3.49.09-1.83-2.37-2.05-2.43-3.78ZM233.91,281.2c-1.4,1.99-2.31,3.28-3.46,4.91-2.72-2.74-4.84-4.88-7.39-7.45-.56-.59,1.25-2.6-.82-3.05-.16-2.09,2.37-4.66,5.97-5.91-.75,2.37-1.39,4.42-2.16,6.86.43,1.06.87,2.67,2.25,3.73.28.41.44.16.87-.13,2.06-1.36.96-3.64,1.3-5.17,1.87-1.07,2.42.35,3.44,1.18v5.02ZM238.93,210.13v-5.31c1.06-1.15,1.95-2.61,3.63-3.2.56-2.51,3.18-2.36,4.77-3.82,2.73,1.41,4.56,3.84,4.76,6.61.26,3.59,1.37,7.7-2.27,10.58-.29.22-.56.36-.82.44-2.1,1.01-4.31,1.13-6.37.22-1.67-.74-3.27-1.64-4.88-2.46-.79-1.49,1.37-1.81,1.18-3.06ZM243.11,257.23c-1.63-1.8-4.16-.37-6.19-1.11-.5-1.03-.96-2.01-1.61-3.35,2.5-.07,4.93-.63,7.22,1.21,1.42-.77,2.88-1.57,4.38-2.39.72.72,1.14,1.14,1.56,1.57-1.2,2.04-3.14,3.17-5.36,4.07ZM253.44,282.4c-1.04,1.25-2.07,1-4.81-1.12q2.09-1.67,4.81-1.24v2.36ZM256.26,274.37c-.61-1.09-.61-2.16.01-3.28,1.25.56,2.08,1.4,2.04,2.82-.61.76-1.3.8-2.05.46ZM266.33,282.89c-.77.35-1.46.3-2.01-.45-.15-1.53.89-2.2,1.98-2.93.62,1.25.69,2.32.03,3.38ZM277.6,249.34c-1.11,2.31-3.5,3.48-5.98,4.56-2.65-1.1-5.58-1.91-6.07-5.46v-4.95c1.68-1.24,2.7-3.34,4.83-4.18-.09-1.16.72-1.34,1.51-1.19,1.45.28.74,1.54.91,2.4,1.85-.28,3.63.75,3.47,2.25-.25,2.37,1.58,4,1.33,6.56ZM276.78,219.45c-1.87-1.79-3.27-3.12-4.65-4.45h-6.59c-.32,1.72-1.43,1.64-2.25.65-.53-.64-.38-1.84,1.04-1.87.31-1.94,2.49-.99,3.31-2.14,1.64,2.07,2.76-1.71,4.53-.33,2.28,1.77,5.01,2.99,6.18,5.12-.43.84-.9,1.73-1.57,3.02ZM286.1,272.14c.19,1.89-.51,3.17-2.42,3.65.06,1.22-1.2,1.47-1.72,2.44-.58-.54-1.12-1.04-1.72-1.6.38-1.09,1.08-1.8,2.23-2.05-.09-1.14.69-1.14,1.5-1.24.6-.07,1.05-.45.92-1.19-.05-1.36,1.42-1.43,1.7-2.74.92,1.5,1.21,2.44-.49,2.74ZM284.96,232.47c-.37-.36-.48-1.91.34-2.73,1.82-.64,2.53.81,3.18,1.87,1.48,2.43,1.77,5.45,3.67,7.7,1.66,1.22,1.66,2.42,0,3.65-3.42-2.76-4.06-7.47-7.18-10.48ZM294.54,254.18c-.07.61-.42,1.08-1.13.94-1.15.07-1.34-.66-1.25-1.5.07-.61.43-.97,1.17-.96,1.12.01,1.29.69,1.2,1.52Z"/>
  <path class="cls-1" d="M305.49,253.07c-.18-3.01.01-6.04-.07-9.06-.03-1.14.22-2.24-.45-3.44-1.74-3.09-2.27-6.51-1.96-10.06.06-.71-2.27-7.96-2.23-8.71.15-2.82-3.11-2.44-3.81-4.38-2.24-4.13-6.15-7.27-7.21-12.07-.3-1.36-1.34-1.91-2.12-2.74-1.92-2.05-3.91-4.04-5.93-5.99-3.2-3.09-7.14-4.79-11.35-5.95.12-1.88-1.73-1.05-2.53-1.82-3.32-3.2-7.29-4.63-12.03-4.32-4.58.3-9.21.2-13.8,0-1.71-.08-2.94.65-4.3,1.29-1.53,0-3.07,0-4.6,0-.82,0-1.52.14-1.45,1.22-3.11-.17-4.81,2.5-7.26,3.65-1.32.3-2.12,1.11-2.42,2.43-1.46.87-3.15,1.28-4.39,2.57-7.31,7.65-15.05,14.8-20.61,24.12-4.54,7.62-6.37,15.73-7.66,24.19-.83,5.4,1.37,10.56,1.23,15.91,0,.35.22.71.36,1.06,2.69,6.58,5.89,12.82,11.72,17.25v1.22c.72,1.71,1.93,2.93,3.63,3.65.72,1.71,1.93,2.93,3.63,3.65,1.57,2.18,2.75,4.85,6.05,4.86.47,1.92,1.75,2.63,3.63,2.43,2.39,3.3,6.3,3.55,9.68,4.86,1.36,1.53,3.49,1.46,5.14,1.89,3.61.96,7.52,2.99,11.1,1.52,1.97-.81,3.71-.66,5.54-.98,3.13,0,6.26,0,9.39,0,.82,0,1.58-.09,1.49-1.22h1.21c2.73,0,5.46,0,8.19,0,.82,0,1.57-.1,1.48-1.22,4.54-.31,8.58-1.7,11.8-5.12.78-.83,1.32-2.07,2.71-2.17,1.98.37,2.79-.44,2.42-2.43-.03-.84.37-1.25,1.21-1.22,1.98.37,2.79-.44,2.42-2.43.54-1.85,2.31-2.64,3.4-4.02.59-.75,1.22-1.31,1.51-2.41,1.37-5.24,3.14-10.37,4.7-15.55.29-.97,1.58-1.31,1.27-2.5-.73-2.83,1.41-5.18,1.25-7.96ZM301.28,253.62c-.21,1.05-.68,2.19-.64,3.31.08,1.99-.42,3.71-1.17,5.57-2.09,5.21-3.18,10.76-4.96,16.08-.61,1.83-2.47,2.94-3.51,4.49-2.38,3.53-5.75,6.03-8.59,9.07-.84.9-2.25,1.76-3.41,1.77-2.5.02-4.08,1.89-6.22,2.53-2.33,0-4.66,0-6.99,0-.82,0-1.56.11-1.48,1.22h-2.42c-1.53,0-3.07,0-4.6,0-.82,0-1.52.14-1.45,1.22h-3.57s-.04.05-.06.09c0-.03,0-.05,0-.09h-2.42c-1.19.46-3.06-1.13-3.63,1.22h-7.96c-.52-.63-1.14-1.4-1.99-2.45-1.9.02-4.07.26-5.77-1.2-.13-.03-.25-.06-.37-.09-4.21-1-5.54-1.6-8.09-3.56-.33-.24-.63-.51-.94-.78-1.35-1.21-2.6-2.59-4.54-2.81-.19-.02-.37-.06-.57-.05-1.48-.24-2.15-1.55-3.01-2.5-.89-.98-1.83-1.3-3.04-1.15,0-.09,0-.19,0-.28,0-.84.06-1.65-.75-2.37-.67-.59-1.72-1.03-1.67-2.22,0-.11-.02-.21-.03-.3-.24-1.43-1.52-.74-2.39-.92-.06-.32-.01-.69,0-1.05.04-.63-.02-1.21-.94-1.35-.09-.01-.18-.03-.28-.03-1.42-3.98-4.29-7.11-6.52-10.57-2.7-4.19-3.6-8.86-4.13-13.38-.51-4.33-1.42-9.08.93-13.42.34-.62.08-1.59.04-2.4-.28-5.43,2.1-9.94,4.85-14.33.21-.33.75-.54.81-.87.94-5.03,4.87-8.12,7.63-11.97,2.93-4.1,7.14-7,10.19-10.92,1.59-2.05,4.8-1.97,5.55-4.82.07-.01.15-.02.22-.03.78-.04,1.77.35,2.09-.61.05-.16.09-.35.1-.58,2.96-2.17,6.12-4.02,9.9-3.57,1.8.22,2.59-1.9,4.31-1.3,2.16.75,3.88-2.61,5.95-.9,2.04,1.68,4.2.78,6.26.84,5.02.15,9.86.7,14.14,3.68.41.28,1.18.04,1.78.04.41.26.79.54,1.17.83,1.31,1.01,2.52,2.16,4.12,2.89,7.23,3.31,12.23,9.08,16.53,15.63,1.6,2.44,2.99,5.14,5.4,6.96.2.15.39.3.6.44-1.12,1.41,1.99,2.28.37,4.02-1.26,1.35.73,2.91.69,4.14-.15,5.76,2.52,10.69,4.22,15.85,1.24,3.76.96,7.39.23,10.97Z"/>
  <path class="cls-1" d="M213.52,246.01c-.3,1.84,2.62,3.24.26,5.87-.84-1.1-2.16-2.09-2.35-3.26-.28-1.73-1.09-3.19-1.55-4.81-.39-1.38,1.13-2.02,1.17-3.12.03-.99.77-2.59-1.84-2.6-.85,3.04-2.48,5.9-1.69,9.03.74,2.91,1.97,5.69,3.98,7.83h4.17c1.93-1.34,3.07-2.14,4.17-2.89-1.27-2.52-2.33-4.64-3.37-6.71-1.13.2-2.21-.38-2.97.66Z"/>
  <path class="cls-1" d="M276.26,242.78c.16-1.5-1.62-2.53-3.47-2.25-.67,2.25,1.54,3.93,1.14,6.6-.94.68-2.22,1.6-3.06,2.2-.56-.6-1.61-1.73-2.78-2.99.4-1,1.69-2.19,1.08-3.87.29-1.34,2.65.02,2.42-1.94.03-.84-.37-1.25-1.21-1.22-2.13.84-3.15,2.94-4.83,4.18v4.95c.5,3.55,3.43,4.36,6.07,5.46,2.48-1.08,4.86-2.26,5.98-4.56.25-2.56-1.59-4.19-1.33-6.56Z"/>
  <path class="cls-1" d="M230.47,275c-.34,1.53.77,3.81-1.3,5.17-.43.29-.59.54-.87.13-1.38-1.06-1.82-2.67-2.25-3.73.77-2.44,1.41-4.48,2.16-6.86-3.59,1.25-6.13,3.82-5.97,5.91,2.07.45.26,2.45.82,3.05,2.56,2.58,4.68,4.71,7.39,7.45,1.15-1.64,2.06-2.92,3.46-4.91v-5.02c-1.03-.83-1.57-2.24-3.44-1.18Z"/>
  <path class="cls-1" d="M249.81,215c-.27.16-.54.31-.82.44.26-.08.53-.22.82-.44Z"/>
  <path class="cls-1" d="M272.17,211.31c-1.77-1.38-2.9,2.4-4.53.33-.82,1.16-3,.2-3.31,2.14.84-.03,1.24.37,1.21,1.22h6.59c1.39,1.33,2.78,2.66,4.65,4.45.67-1.29,1.13-2.19,1.57-3.02-1.17-2.13-3.9-3.34-6.18-5.12Z"/>
  <path class="cls-1" d="M242.53,253.98c-2.29-1.84-4.72-1.27-7.22-1.21.64,1.34,1.11,2.32,1.61,3.35,2.02.74,4.55-.69,6.19,1.11,2.22-.91,4.16-2.04,5.36-4.07-.42-.42-.84-.85-1.56-1.57-1.5.82-2.96,1.61-4.38,2.39Z"/>
  <path class="cls-1" d="M288.48,231.61c-.65-1.07-1.36-2.51-3.18-1.87-.82.82-.71,2.37-.34,2.73,3.12,3.02,3.76,7.72,7.18,10.48v-3.65c-1.9-2.25-2.19-5.27-3.67-7.7Z"/>
  <path class="cls-1" d="M252.09,204.42c-.2-2.78-2.03-5.2-4.76-6.61-1.59,1.46-4.21,1.3-4.77,3.82-1.68.59-2.56,2.05-3.63,3.2v5.31c.18,1.25-1.98,1.57-1.18,3.06,1.62.82,3.22,1.71,4.88,2.46,2.06.92,4.27.8,6.37-.22.27-.13.55-.28.82-.44,3.65-2.87,2.53-6.98,2.27-10.58ZM246.77,213.87c-.61.36-.77,1.48-1.12,1.35-3.18-.93-3.09-3.49-4.3-5.09,0-.16,0-.32,0-.48-.02-1.91-.24-3.86,1.13-5.49.03-.04.05-.08.08-.11,1.52-.2,1.94-1.87,3.3-2.45,1.41-.27,1.82,1.18,2.82,1.87-.53,3.4.93,7.07-1.28,10.3-.25-.06-.45-.01-.62.09Z"/>
  <path class="cls-1" d="M248.63,281.28c2.74,2.13,3.77,2.37,4.81,1.12v-2.36q-2.72-.43-4.81,1.24Z"/>
  <path class="cls-1" d="M221.62,219.78c.24-.39.75-1.23.73-1.19-.29-.84-.65-1.84-1.16-3.31-1.53,1.58-2.43,1.99-2.6,3.01.81.54,1.14,1.76,3.03,1.5Z"/>
  <path class="cls-1" d="M283.97,273.33c-.81.1-1.59.1-1.5,1.24-.03.84.37,1.25,1.21,1.22,1.91-.48,2.61-1.76,2.42-3.65h-1.21c.14.74-.31,1.12-.92,1.19Z"/>
  <path class="cls-1" d="M256.27,271.09c-.62,1.12-.62,2.19-.01,3.28.75.35,1.44.31,2.05-.46.04-1.43-.79-2.26-2.04-2.82Z"/>
  <path class="cls-1" d="M282.47,274.57c-1.15.26-1.85.96-2.23,2.05.61.56,1.14,1.06,1.72,1.6.52-.97,1.78-1.22,1.72-2.44-.84.03-1.24-.37-1.21-1.22Z"/>
  <path class="cls-1" d="M264.32,282.43c.55.75,1.23.8,2.01.45.66-1.06.59-2.13-.03-3.38-1.09.73-2.13,1.4-1.98,2.93Z"/>
  <path class="cls-1" d="M293.34,252.66c-.75,0-1.1.35-1.17.96-.09.84.1,1.57,1.25,1.5.71.14,1.06-.33,1.13-.94.09-.83-.09-1.51-1.2-1.52Z"/>
  <path class="cls-1" d="M231.63,233.97c-.04-.73-.83-1.35-1.26-1.84-1.29-1.49-2.98-2.64-4.35-3.79-6.61.48-7.4,1.31-8.81,8.67,1.26,1.07,2.39,2.03,3.43,2.91v-4.97c1.53-.78,2.07-2.57,2.79-2.74,1.93,1.26,3.39,2.2,4.46,2.9.54,1.69-1.4,1.78-1.06,3,.06,1.73,2.52,1.95,2.43,3.78.08,2.55-1.22,3.61-3.64,3.49-.72-2.27-2.22-.97-3.6-.91.65,1.07,1.21,1.95,2.39,2.13.57,2.13,2.13,2.58,4.7,2.38.58-.68,1.86-1.61,2.27-2.84.48-1.41.41-3,1.49-4.22-1.69-2.45-1.11-5.25-1.25-7.95Z"/>
  <path class="cls-1" d="M264.33,213.78c-1.42.03-1.57,1.23-1.04,1.87.81.99,1.92,1.06,2.25-.65.03-.84-.37-1.25-1.21-1.22Z"/>
  <path class="cls-1" d="M284.89,272.14h1.21c1.7-.3,1.41-1.24.49-2.74-.28,1.32-1.75,1.38-1.7,2.74Z"/>
  <path class="cls-1" d="M292.15,239.31v3.65c1.66-1.22,1.66-2.42,0-3.65Z"/>
  <path class="cls-1" d="M271.58,240.53h1.21c-.16-.86.55-2.12-.91-2.4-.79-.15-1.6.03-1.51,1.19.84-.03,1.24.37,1.21,1.22Z"/>
</svg>