<?xml version="1.0" encoding="UTF-8"?>
<svg id="Livello_1" data-name="Livello 1" xmlns="http://www.w3.org/2000/svg" viewBox="0 0 489 489">
  <defs>
    <style>
      .cls-1 {
        fill: #fff;
        stroke-width: 0px;
      }
    </style>
  </defs>
  <path class="cls-1" d="M314.94,233.17c-1.97.64-3.71,1.22-5.47,1.77-.89.28-1.78.4-2.74.23-.45-.08-.98.24-1.46.42-.72.27-1.42.57-2.24.66-.18.25-.33.52-.54.74-1.15,1.16-.85,2.43-.28,3.69.46,1.02,1.08,2,2.2,2.31,1.56.43,3.1,1.11,4.83.46,1.8-.68,3.73-.76,5.63-.57,1.6.15,2.64,1.27,2.9,2.94.08.52.11,1.06.1,1.59,0,1.41-.02,2.82-.07,4.23-.02.66-.09,1.32-.2,1.98-.37,2.21-.65,4.45-1.17,6.62-.46,1.9-.45,3.85-.83,5.73-.24,1.2-.6,2.41-1.39,3.48-1.16,1.58-1.58,3.49-1.98,5.37-.05.26-.08.56-.23.75-1.71,2.06-1.44,4.75-2.43,7.2-.08.06-.41.18-.54.41-1.04,1.87-2.96,2.19-4.75,2.59-.89.2-1.93-.09-2.87-.31-.98-.23-1.94-.57-2.87-.97-.64-.27-1.27-.65-1.8-1.1-1.5-1.3-2.93-2.68-4.42-3.98-.56-.49-1.22-.87-1.84-1.3-.8-.54-1.65-.2-2.42-.02-.56.13-1.05.63-1.51,1.03-1.03.89-2.03,1.83-3.03,2.75-1.62,1.49-3.28,2.94-4.85,4.49-1.22,1.2-1.31,2.7-.14,4.02,1.13,1.27,2.23,2.57,3.34,3.87.23.27.5.56.58.88.32,1.4,1.3,2.37,2.16,3.41,1.03,1.24,1.59,2.57,1.38,4.21-.08.61-.04,1.24.01,1.86.09,1.12-.29,2.06-.95,2.95-1.27,1.71-2.96,2.95-4.66,4.16-1.68,1.2-3.45,2.26-5.13,3.45-.74.53-1.33,1.26-2.01,1.88-.49.45-1.02.84-1.51,1.29-.48.45-.86,1.01-1.39,1.39-1.63,1.17-2.62,2.95-4.11,4.23-.19.16-.41.3-.64.4-.72.32-1.44.61-2.17.92-1.42.6-3.5.17-4.49-1.01-.5-.6-.87-1.31-1.3-1.97-.39-.62-.84-1.21-1.15-1.86-.82-1.7-1.6-3.43-2.36-5.16-.25-.57-.57-1.01-1.05-1.45-.92-.86-1.62-1.96-2.42-2.95-.26-.33-.49-.71-.81-.98-.67-.57-1.32-1.21-2.1-1.58-.77-.37-1.67-.52-2.53-.65-1.32-.2-2.54-.6-3.71-1.28-1.14-.67-2.46-.63-3.74-.68-.57-.02-1.14,0-1.85,0-1.66.91-2.21,2.61-2.35,4.45-.13,1.75-.05,3.51-.09,5.27-.03,1.45-.61,2.63-1.4,3.88-1.07,1.69-2.61,1.72-4.19,1.9-1.05.12-2.11.21-3.16.17-2.86-.1-5.72-.3-8.59-.42-.65-.03-1.3.11-1.95.2-.77.11-1.47.35-2.3-.08-.62-.31-1.47-.15-2.22-.21-.36-.03-.79.18-.96-.4-.04-.14-.46-.19-.72-.25-1.9-.41-3.57-1.27-4.84-2.74-.97-1.12-1.28-2.58-1.66-3.97-.45-1.62-.13-3.21.14-4.83.4-2.36.34-4.76,0-7.13-.29-2.02-2.44-2.93-4.19-1.95-1.38.77-2.79,1.5-4.15,2.31-.55.33-1.09.76-1.48,1.27-1.22,1.59-2.98,2.59-4.28,4.1-.79.91-1.76,1.76-2.83,2.3-.81.41-1.88.37-2.84.38-.89,0-1.4-.73-1.86-1.37-2.44-3.43-4.85-6.88-7.26-10.33-.48-.69-.84-1.46-1.34-2.12-.47-.62-1.05-1.16-1.59-1.73-.12-.13-.27-.24-.36-.39-.99-1.51-2.07-2.97-2.92-4.56-.46-.87-.58-1.93-.77-2.93-.25-1.29-.49-2.59-.6-3.9-.1-1.12.79-2.14,1.92-2.46.28-.08.65-.23.75-.46.38-.81,1.13-1.06,1.84-1.41,1.06-.53,2.11-1.09,3.11-1.73.5-.32.94-.8,1.3-1.3,1.06-1.49,1.49-3.04.52-4.8-.47-.84-.9-1.77-1.04-2.71-.31-2.05-1.48-3.67-2.41-5.42-.51-.96-2.06-1.52-3.27-1.2-1.3.35-2.58.63-3.92.3-.16-.04-.37-.01-.52.05-1.9.85-3.93.89-5.95.91-1.31.02-2.65-.06-3.87-.64-2.43-1.16-3.99-2.95-4.22-5.74-.06-.74-.25-1.48-.34-2.22-.15-1.27-.29-2.54-.4-3.81-.16-1.8-.33-3.6-.42-5.41-.07-1.27-.04-2.55-.03-3.82,0-.62.09-1.24.06-1.86-.09-2.39.71-4.53,1.75-6.61.07-.14.24-.22.37-.32,1.18-.92,2.46-1.54,4.01-1.46.8.04,1.59,0,2.39.03.48.02.98.06,1.43.2,1.41.44,2.83.53,4.31.41,1.36-.11,2.73-.11,4.09-.06,1.42.05,2.54-.71,3.71-1.29.46-.23.8-.7.89-1.37.21-1.57.6-3.11.9-4.67.08-.39.09-.79.13-1.18.24-2.55-2.1-4.49-4.26-5.27-.38-.14-.71-.21-.95-.61-.13-.22-.51-.29-.78-.42-.4-.19-.89-.28-1.19-.56-1.01-.94-2.33-1.22-3.5-1.82-1.57-.8-3.2-1.42-4.85-2-.23-.08-.4-.33-.6-.49-.38-.3-.73-.74-1.16-.86-1.92-.53-3.07-1.96-4.1-3.48-.93-1.38-1.82-2.81-2.54-4.31-.67-1.42-1.11-2.95-1.61-4.45-.17-.51-.45-1.11-.34-1.58.45-1.95.79-3.97,2.36-5.46,1.15-1.09,2.1-2.37,3.6-3.07.53-.25.96-.76,1.39-1.21,2.49-2.57,5.39-4.55,8.56-6.18.35-.18.7-.39.99-.66,1.54-1.41,3.54-2.06,5.25-3.19,1.11-.73,2.36-.55,3.53-.62,1.5.8,1.84,2.34,2.5,3.65.66,1.3,1.31,2.59,2.65,3.34.15.08.27.23.39.36,1.66,1.84,3.72,3.21,5.56,4.82,1.06.92,1.96,2.02,2.94,3.03.27.28.57.54.87.79.5.41,1.02.79,1.65,1.29.2-.02.61-.06,1.02-.11.26-.04.59-.01.76-.17,1.15-1.07,2.79-1.42,3.73-2.86,1.19-1.84,3.02-2.92,5.11-3.57,1.52-.47,2.53-1.92,2.41-3.51-.06-.86-.37-1.7-.55-2.55-.06-.3-.08-.6-.1-.91-.12-1.98-.06-3.94-.44-5.93-.6-3.15-.81-6.37-1.13-9.56-.13-1.26.35-2.41.87-3.54.62-1.33,1.56-2.38,2.86-3.02.9-.45,1.86-.82,2.84-1.07,2.09-.54,4.2-.97,6.31-1.46.34-.08.66-.24,1-.33.89-.24,1.78-.46,2.67-.7.54-.14,1.1-.26,1.62-.45.95-.35,1.87-.94,2.84-1.06,1.1-.14,2.27.04,3.39.21.75.12,1.46.27,2.16.82.9.72,1.23,1.58,1.44,2.57.26,1.24.48,2.5.62,3.76.21,1.88.3,3.78.53,5.65.11.95.41,1.88.62,2.83.24,1.08.47,2.15.69,3.23.36,1.75,1.46,2.81,2.95,3.76,1.17.75,2.32.22,3.44.51.11.03.29,0,.37-.09.71-.72,1.61-.63,2.53-.74-.13-.04-.26-.09-.48-.16,1.1-.36,2.14-.69,3.17-1.04.23-.08.46-.23.63-.4.4-.4.83-.8,1.14-1.28.27-.43.55-.96.55-1.45-.02-2.38-.16-4.77-.19-7.15-.03-2.12.11-4.24-.35-6.34-.06-.29-.02-.62.04-.91.36-1.54.54-3.17,1.44-4.48.85-1.23,1.65-2.53,3.37-2.98,1.28-.33,2.46-1.14,3.62-1.83.9-.54,1.79-.78,2.84-.89,1.83-.18,3.63-.63,5.45-.96.3-.06.59-.17.9-.2,1.8-.16,3.61-.21,5.39-.47,1.27-.18,2.45.16,3.64.36,1.81.31,3.62.74,5.27,1.66.52.29,1.16.41,1.76.55,1.94.42,3.43,1.41,4.08,3.36.2.6.17,1.28.25,1.92.06.48.15.96.18,1.44.01.29-.05.6-.13.89-.26.88-.56,1.75-.83,2.63-.17.54-.23,1.14-.5,1.63-.73,1.3-.87,2.84-1.7,4.1-.07.1-.08.25-.11.37-.4,1.57-.93,3.12-1.16,4.71-.19,1.33-.24,2.75.03,4.05.39,1.89,1.18,3.57,3.13,4.58.97.5,1.8,1.09,2.93.88.38-.07.88-.16,1.08-.43.82-1.12,1.96-1.94,2.52-3.34.53-1.32,1.66-2.35,2.93-3.12.52-.31.98-.71,1.5-1.03.63-.39,1.28-.74,1.92-1.12.43-.25.83-.58,1.29-.76,2.27-.89,4.68-.77,7.05-.79.77,0,1.49.41,2.03,1.05.95,1.12,2.12,1.93,3.51,2.45.43.16.83.51,1.14.86.95,1.09,1.77,2.32,2.8,3.33.93.92,2.02,1.7,3.12,2.42,1.36.89,2.79,1.64,3.7,3.1.58.93,1.44,1.67,2.13,2.53.81,1.01,1.43,2.05,1.21,3.49-.19,1.29-.12,2.63-.11,3.94.01.82-.28,1.42-.91,1.96-.76.65-1.42,1.39-2.53,1.5-.33.03-.61.49-.93.71-.76.52-1.54,1-2.3,1.52-1.05.72-2.18,1.35-3.09,2.21-.78.74-1.62,1.32-2.48,1.93-1.5,1.07-2.89,2.3-4.37,3.4-.86.64-1.41,1.46-1.98,2.35-.46.72-1.25,1.23-1.92,1.8-.54.46-.78,1.03-.9,1.7-.24,1.26.19,2.44.44,3.64.06.3.41.56.66.8.15.15.4.19.57.33,1.04.85,2.1.88,3.25.19.44-.26,1.01-.31,1.5-.51.48-.2.92-.47,1.39-.69.88-.41,1.73-.92,2.65-1.18,1.56-.43,3.15-.83,4.81-.57.6.09,1.03.36,1.45.82,1.3,1.41,1.4,2.93.63,4.61-.18.4-.34.83-.37,1.26-.23,2.86-.4,5.72-.63,8.58-.13,1.63-.26,3.26-.52,4.87-.09.56-.56,1.06-.75,1.41ZM288.87,182.19s-.05-.04-.08-.06c.03.01.06.03.1.04-.33.26-.79.46-.95.8-.33.71-.5,1.5-.74,2.25-.26.84-.09,1.56.56,2.16.2.18.4.36.53.59,1.42,2.38,3.57,4.23,4.79,6.76.58,1.21,1.38,2.32,2.03,3.5.6,1.07,1.1,2.2,1.71,3.26.18.32.54.58.87.75.87.46,1.74.18,2.67.06,1.22-.15,1.83-.92,2.58-1.63.28-.26.5-.61.8-.83,1.62-1.21,3.24-2.43,4.91-3.57,1.45-.99,2.51-2.49,4.23-3.11.26-.09.54-.39.62-.65.37-1.2,1.32-1.9,2.22-2.79-.06-.28-.17-.61-.2-.95-.03-.35-.04-.71.02-1.06.21-1.14-.5-2.1-.62-3.17-.01-.11-.13-.23-.23-.31-.53-.45-1.07-.88-1.61-1.32-.88-.72-1.76-1.45-2.64-2.17-.89-.72-1.78-1.43-2.67-2.15-1.16-.93-2.32-1.88-3.49-2.8-.93-.73-1.82-1.57-2.86-2.12-1.56-.83-3.3-1-5.02-.53-1.87.51-3.22,1.83-4.45,3.24-.22.26-.31.63-.46.95-.13.28-.24.57-.39.84-.74,1.33-1.48,2.66-2.23,3.99ZM178.68,250.21c-.07.01-.15.02-.22.03.31,2.04.6,4.09.95,6.13.2,1.13.5,2.24.76,3.35.12.52.21,1.04.38,1.54.67,2,1.72,3.88,1.94,6.02.14,1.31.96,2.35,1.41,3.54.66,1.72,1.09,3.54,2.5,4.87.03.03.05.08.06.12.4.88.73,1.8,1.21,2.63,1.73,2.99,4,5.57,6.34,8.08.75.8,1.52,1.6,2.33,2.34.58.53,1.19,1.08,1.88,1.44,1.91,1,3.87,1.9,5.81,2.84.71.35,1.55.57,2.09,1.1.91.9,2.09,1.14,3.18,1.48,3.5,1.09,7.17,1.31,10.78,1.84,1.08.16,2.22.03,3.27.3,2.14.54,4.29.46,6.45.48,1.5.02,3.01.05,4.48.31,1.32.24,2.6.38,3.93.25,1.67-.15,3.36-.13,5.02-.34,1.82-.23,3.65-.38,5.36-1.3,1.22-.65,2.67-.89,4.01-1.3,1.38-.43,2.78-.82,4.15-1.29.55-.19,1.05-.55,1.55-.87.55-.35,1.05-.79,1.62-1.1,1.47-.8,3.07-1.4,4.42-2.36,1.15-.82,2.39-1.41,3.65-1.96,1.42-.62,2.8-1.24,3.82-2.49.72-.88,1.52-1.69,2.29-2.54.15-.16.28-.34.43-.5,1-1.05,1.96-2.13,3.01-3.12.8-.76,1.76-1.35,2.54-2.12.71-.71,1.33-1.53,1.9-2.35.82-1.18,1.59-2.39,2.36-3.61.37-.6.66-1.24,1.02-1.85.9-1.52,1.87-2.99,2.71-4.55.48-.88.73-1.89,1.11-2.82.97-2.41,2.02-4.78,2.9-7.22.47-1.31.68-2.72.98-4.1.46-2.06.98-4.11,1.31-6.19.21-1.32.48-2.67.07-4.05-.26-.87-.23-1.77.04-2.72.21-.75.41-1.46.74-2.17.3-.62.47-1.33.55-2.02.24-2.23.44-4.47.6-6.7.11-1.45.28-2.92.15-4.35-.13-1.3-.52-2.61-1.02-3.81-.29-.69-.5-1.28-.32-2.01.07-.29.08-.61.07-.92-.06-1.36-.26-2.73-.17-4.08.18-2.84-1.14-5.21-2.2-7.67-.63-1.45-1.44-2.81-2.15-4.23-.76-1.53-1.29-3.17-2.47-4.48-.59-.65-1.09-1.39-1.58-2.12-.79-1.17-1.51-2.38-2.31-3.54-.32-.46-.97-.75-1.15-1.24-.42-1.14-1.36-1.74-2.24-2.34-2.52-1.71-5.12-3.28-7.66-4.96-2.08-1.38-4.3-2.37-6.78-2.76-.52-.08-1.04-.21-1.56-.27-1.48-.17-2.97-.33-4.45-.45-.74-.06-1.49-.06-2.23-.03-1.54.08-3.08.31-4.61.28-2.56-.07-5.01.23-7.29,1.47-.15.08-.32.16-.49.2-1.99.39-3.98.79-5.98,1.15-2.65.48-5.3.94-7.95,1.37-1.17.19-2.36.29-3.53.47-1.04.16-2.1.29-3.11.6-2.65.81-5.26,1.72-7.9,2.55-.88.27-1.8.42-2.71.59-1.43.26-2.87.44-4.29.73-.99.2-1.94.63-2.93.75-2.1.26-4.15.58-5.99,1.74-.93.58-1.96,1-2.95,1.47-.67.32-1.36.61-2.03.94-1.6.78-2.62,2.26-4.01,3.31-.55.42-1.06.91-1.49,1.45-1.09,1.33-2.13,2.69-3.18,4.05-1.16,1.49-2.2,3.07-3.38,4.55-1.17,1.47-2.04,3.17-2.54,5.03-.25.93-.6,1.87-1.09,2.68-1,1.65-1.31,3.46-1.33,5.31,0,.91-.13,1.74-.38,2.58-.09.29-.19.59-.26.89-.33,1.59-.67,3.19-.96,4.79-.1.54-.17,1.13-.08,1.67.22,1.32.3,2.6.05,3.94-.23,1.2-.25,2.45-.25,3.68,0,2.12.09,4.24.16,6.36.02.62.09,1.23.16,1.84.25,1.92.51,3.84.77,5.76ZM161.8,184.91c-.59.25-1.25.42-1.77.78-1.25.9-2.46,1.85-3.62,2.85-.96.83-1.75,1.88-2.76,2.65-1.39,1.07-1.88,2.61-2.14,4.12-.31,1.78-.01,3.6.78,5.3.62,1.33,1.33,2.58,2.2,3.75,1.09,1.48,2.47,2.61,4.13,3.41,1.18.57,2.47.99,3.5,1.75,1.38,1.03,3.06,1.29,4.52,2.1,2.06,1.15,4.44,1.66,6.38,3.11.51.39,1.12.46,1.77.3,1.48-.36,2.01-1.53,2.48-2.78.29-.78.59-1.56.92-2.33.24-.56.52-1.1.82-1.64.67-1.23,1.23-2.55,2.09-3.63,1.28-1.62,2.53-3.26,3.78-4.89.98-1.27.78-3.19-.08-4.33-1.06-1.39-1.95-2.95-3.54-3.87-.18-.1-.28-.34-.43-.5-1.2-1.19-2.41-2.38-3.62-3.56-.06-.06-.18-.04-.24-.1-.54-.45-1.11-.87-1.61-1.36-.42-.42-1.29-.46-1.2-1.35,0-.06-.21-.13-.31-.22-.47-.4-.94-.79-1.39-1.2-.9-.81-1.85-1.38-3.16-1.45-1.53-.08-2.86.47-4.18,1-1.17.47-2.35,1.03-3.3,2.06ZM251.67,173.97c.78-.3,1.6-.17,2.49.08.96.27,2.03.39,3.01.25,1.25-.18,2.59.17,3.75-.57,2.44-.18,4.88-.1,7.19.69,1.02.35,1.67.1,2.41-.46,1.13-.86,1.55-2.12,1.82-3.41.32-1.52.67-3,1.54-4.33.28-.42.4-.96.53-1.47.12-.47.16-.95.25-1.43.48-2.33.91-4.66,1.16-7.03.02-.21-.02-.45-.1-.65-.39-1.02-.71-2-1.49-2.89-.68-.77-1.52-1.16-2.27-1.72-2.27-1.67-4.83-1.98-7.55-1.43-.91.18-1.82.31-2.74.42-.96.11-1.96.06-2.89.28-1.78.42-3.63.77-5.21,1.73-1.14.69-2.39,1.19-3.24,2.39-.77,1.09-1.11,2.22-1.47,3.46-.57,1.96-.33,3.87,0,5.77.2,1.18.39,2.34.39,3.54,0,.8.07,1.6.03,2.39-.11,1.87.41,3.41,2.39,4.38ZM152.69,249.91s-.09.01-.14.02c0,.27,0,.53,0,.8-.01,1.42,0,2.87.76,4.11,1.3,2.11,2.43,3.28,5.1,2.72,1.22-.25,2.51-.15,3.77-.22.82-.04,1.65-.03,2.44-.18,1.68-.32,3.35-.76,5.03-1.09,1.46-.29,2.95-.44,4.4-.75.98-.22,1.38-.84,1.33-1.84-.03-.61-.14-1.23-.28-1.83-.36-1.58-.84-3.1-.64-4.8.16-1.34-.1-2.73-.2-4.09-.15-2.07-.29-4.13-.48-6.19-.11-1.22-.65-1.73-1.88-1.77-1.5-.05-2.98.02-4.48.34-.96.21-2.07.25-2.99-.03-1.1-.34-2.18-.35-3.11.04-1,.42-1.79.21-2.65-.11-1.3-.48-2.62-.24-3.94-.19-.28.01-.6.21-.81.41-.83.84-1.36,1.82-1.47,3.03-.16,1.66-.41,3.32-.59,4.98-.05.47-.05.96.01,1.43.24,1.74.51,3.48.78,5.22ZM312.57,251.37c.03-.31.07-.61.1-.92.18-1.8-1.29-3.4-3.1-3.41-2.51-.01-5.04.08-7.53-.14-1.2-.11-2.04.42-2.97.85-.31.14-.55.68-.61,1.07-.31,2.13-.55,4.26-1.23,6.32-.11.33-.26.66-.32,1-.51,2.75-1.52,5.32-2.73,7.83-.66,1.38-1.77,2.54-2.03,4.12-.04.23-.28.43-.45.63-.68.86-.47,2.04.34,2.76,1.43,1.29,2.75,2.71,4.19,3.98,1.34,1.19,2.22,2.81,3.89,3.72,1.2.65,2.38.52,3.59.53.15,0,.34-.12.45-.24.6-.64,1.2-1.25,1.51-2.14.77-2.15,1.68-4.25,2.49-6.38.37-.98.79-1.99.91-3.02.18-1.6.69-3.06,1.42-4.47.14-.27.3-.55.38-.84.96-3.69,1.37-7.47,1.71-11.25ZM251.24,301.91c.12,1.37.7,2.31,1.95,2.81.22.09.43.3.56.51.53.8.92,1.74,1.57,2.42,1.26,1.32,1.83,3.02,2.54,4.6.98,2.17,1.84,4.37,3.37,6.24.3.37.6.65,1.11.52.94-.24,1.86-.51,2.64-1.14,1.09-.89,2.18-1.82,3.39-2.52.71-.41,1.05-1,1.49-1.59.47-.63.97-1.27,1.58-1.76.79-.63,1.68-1.13,2.54-1.67,2.3-1.43,4.24-3.28,5.98-5.34.18-.21.34-.56.3-.82-.11-.83-.22-1.67-.5-2.45-.41-1.11-.95-2.18-1.5-3.23-.45-.86-.87-1.77-1.52-2.47-.93-1-1.66-2.1-2.37-3.26-.3-.49-1.04-.89-1.64-.99-1.18-.19-2.1.33-3.06,1.21-.44.41-.97.77-1.53.99-.77.31-1.6.49-2.4.71-2.05.56-3.57,2.05-5.36,3.07-.92.53-1.81,1.04-2.82,1.39-1.12.38-2.22.86-3.26,1.42-.77.41-1.47.81-2.35.41-.29.36-.53.67-.74.93ZM205.13,172.28c-.03.79-.16,1.59-.09,2.37.19,2.06.45,4.12.71,6.18.14,1.06.79,1.78,1.86,1.93,1.7.23,3.41.43,5.13.51.82.04,1.76-.03,2.45-.4,2.65-1.42,5.57-2.01,8.43-2.69,1.73-.42,2.31-1.53,2.28-2.9-.05-1.93-.29-3.87-1.45-5.55-.17-.25-.3-.58-.3-.87.02-1.65-.68-3.31-.03-4.96-.38-1.58-.57-3.25-1.23-4.7-.39-.86-1.46-1.51-2.35-2.03-1.41-.83-2.92-.81-4.41-.07-.46.23-.94.46-1.43.63-2.11.75-4.28,1.32-6.34,2.24-1.24.56-2.17,1.47-2.8,2.47-.62.98-.63,2.34-.9,3.54-.02.08,0,.18.04.26.51,1.32.53,2.68.42,4.06ZM181.66,276.52c-2.21,1.16-4.39,2.3-6.56,3.46-.34.18-.64.56-.99.61-.96.14-1.53.81-2.18,1.39-1.61,1.45-1.86,2.92-.91,4.87.63,1.28,1.19,2.6,1.8,3.89.17.35.41.67.63.99.75,1.07,1.51,2.14,2.27,3.2.3.42.61.85.96,1.22.28.3.65.53.96.8,1.19,1.04,1.73,2.53,2.61,3.8.92,1.33,1.94,2.39,3.78,2.31.64-.67,1.76-.92,2.03-2.06.03-.11.16-.21.26-.29,1.88-1.46,3.67-3.06,5.68-4.32,1.46-.92,2.15-2.1,2.55-3.86-1.31-1.24-2.69-2.47-3.98-3.78-.7-.71-1.26-1.56-1.86-2.36-1.13-1.5-2.36-2.95-3.35-4.55-.98-1.58-2.24-2.99-2.98-4.73-.1-.24-.46-.38-.73-.59ZM209.76,300.54c-.63.27-.99.84-1.16,1.57-.1.43-.26.84-.43,1.24-.56,1.29-1.06,2.57-1.23,4-.28,2.43,0,4.55,1.79,6.46,1.06,1.13,2.16,1.53,3.61,1.47,1.93-.09,3.87-.13,5.81-.17.3,0,.6.08.9.17,1.91.54,3.82,1.03,5.84.67,1.59-.28,2.99-1.82,3.12-3.43.1-1.21.06-2.48.43-3.61.48-1.45.24-2.79-.06-4.17-.33-1.48-1.56-2.33-3.09-2.32-1.76,0-3.55.05-5.29-.19-3.36-.46-6.69-1.1-10.23-1.7ZM311.5,222.31c0-.97,0-1.95,0-2.92.01-2.06-1.34-3.19-3.36-2.77-.78.16-1.54.38-2.31.59-1.02.28-2.03.57-3.04.86-.57.16-1.91,1.63-1.98,2.24-.03.25-.04.53.05.76.7,1.86.68,3.77.45,5.71-.18,1.52-.14,3,.94,4.25.4.47.87.74,1.51.61,1.46-.3,2.94-.43,4.38-.93,1.63-.56,2.29-1.73,2.87-3.13.7-1.71.43-3.49.49-5.25Z"/>
  <path class="cls-1" d="M248.94,194.34c-.39.05-.77.1-1.18.15,1.58.15,3.14.24,4.68.45,2.42.33,4.66,1.26,6.87,2.26.83.37,1.7.66,2.55,1.02.69.29,1.37.6,2.03.95,1.83.97,3.62,2.04,5.17,3.41,1.21,1.07,2.19,2.39,3.04,3.78.99,1.62,2.13,3.16,2.64,5.02.56,2.04,1.16,4.07,1.63,6.13.45,1.97.66,4,1.13,5.96.55,2.3.85,4.59.41,6.94-.1.56-.12,1.13-.14,1.7-.03.79-.06,1.54-.27,2.33-.28,1.04-.29,2.18-.22,3.27.07,1.31-.2,2.55-.57,3.76-.43,1.39-.97,2.75-1.45,4.12-.31.87-.68,1.74-.89,2.63-.44,1.95-1.33,3.61-2.8,4.98-.25.23-.4.58-.61.86-.46.62-.6,1.48-1.45,1.79-.07.03-.15.13-.16.2-.21,1.36-1.45,1.96-2.21,2.89-.57.69-1.43,1.14-2.15,1.71-1.38,1.09-2.74,2.2-4.11,3.29-.94.75-2.01,1.22-3.15,1.65-1.32.49-2.67.86-4.02,1.24-1.18.33-2.31.7-3.43,1.24-1.09.53-2.37.67-3.59.89-2.81.5-5.63.95-8.46,1.38-.69.1-1.43.12-2.12,0-1.42-.24-2.81.08-4.21.03-1.93-.07-3.86-.25-5.79-.38-.95-.06-1.93-.03-2.85-.21-1.11-.22-2.23-.54-3.27-.98-1.53-.64-3.01-1.42-4.5-2.15-.16-.08-.32-.15-.45-.26-1.42-1.26-2.88-2.48-4.23-3.81-.68-.67-1.19-1.52-1.77-2.29-.18-.25-.29-.57-.51-.77-1.79-1.59-2.7-3.79-3.96-5.74-1.02-1.57-1.67-3.37-2.48-5.08-.62-1.31-1.17-2.66-1.82-3.96-.72-1.43-.92-2.93-.85-4.49,0-.18.09-.36.05-.52-.65-2.85-.03-5.71-.02-8.56.01-2.04.66-4.08,1.03-6.12.33-1.78.53-3.6,1.03-5.33.83-2.86,1.82-5.62,4.09-7.82,1.09-1.05,2.46-1.62,3.47-2.68.45-.48.91-.95,1.4-1.38.56-.49,1.15-.95,1.77-1.36.96-.63,1.95-1.21,2.93-1.82.15-.09.28-.23.44-.3,2.24-.87,4.08-2.41,6.1-3.65,1.53-.94,3.25-1.57,4.87-2.37.55-.27,1.04-.65,1.56-.97.26-.16.52-.35.81-.44,2.05-.61,3.98-1.55,6.09-2.04.96-.22,1.83-.36,2.82-.33.98.03,1.97-.35,2.95-.53.91-.16,1.83-.29,2.72.15.14.07.36.1.5.04,1.62-.65,3.24,0,4.92.12ZM273.29,225.43s.02,0,.04,0c-.06-1.01-.03-2.04-.19-3.03-.27-1.78-.64-3.54-1-5.3-.11-.56-.3-1.11-.53-1.64-.78-1.77-1.59-3.53-2.41-5.28-.12-.26-.35-.48-.55-.7-.5-.55-1.11-1.03-1.51-1.64-1-1.54-2.36-2.72-3.71-3.91-.69-.6-1.5-1.21-2.36-1.43-1.57-.4-2.85-1.31-4.28-1.94-1.09-.48-2.19-.98-3.34-1.26-2.49-.59-5.01-1.06-7.52-1.55-2.31-.45-4.65-.56-6.97-.14-2.3.41-4.57.97-6.84,1.49-.42.1-.86.25-1.2.49-1.32.94-3.05,1.2-4.18,2.46-.08.09-.24.12-.35.19-.7.43-1.41.87-2.11,1.31-.26.16-.49.38-.76.49-.79.32-1.47.74-1.99,1.45-.38.53-.94.92-1.41,1.4-.27.27-.58.54-.74.88-1.8,3.67-2.95,7.55-3.54,11.6-.42,2.88-.38,5.76.58,8.5,1.01,2.9,1.65,5.95,3.32,8.6.47.75.62,1.7,1.07,2.47.78,1.37,1.67,2.68,2.54,3.99.24.36.59.66.84,1.01.76,1.08,1.42,2.22,2.25,3.24.72.88,1.73,1.54,2.4,2.44,1.41,1.92,3.51,3.06,5.16,4.7.98.97,2.27,1.63,3.43,2.42.14.09.34.1.5.16.53.2,1.06.4,1.57.63.64.28,1.25.71,1.92.85,2.12.43,4.25.79,6.39,1.11,1.18.18,2.21-.19,3.17-.99,1.16-.97,2.48-1.16,3.93-.49.38.17.99.12,1.38-.07,1.22-.6,2.4-1.28,3.55-2,.67-.42,1.45-.84,1.86-1.46.93-1.42,2.25-2.2,3.74-2.81.53-.22,1.12-.35,1.56-.68,1.95-1.47,3.77-3.04,4.02-5.73.05-.56.29-1.11.44-1.66.41-1.48.83-2.96,1.21-4.45.19-.72.12-1.56.46-2.19.86-1.64.65-3.35.56-5.07-.11-2.16-.25-4.32-.37-6.48ZM208.86,213.75c-.41.54-.85,1.09-1.26,1.67-1.33,1.87-2.51,3.79-2.88,6.14-.48,3-1.13,5.98-1.69,8.97-.15.78-.27,1.57-.31,2.36-.15,3.21.38,6.33,1.17,9.43.41,1.63.94,3.2,1.65,4.74.62,1.35,1.26,2.66,2.13,3.87.67.92,1.15,1.97,1.75,2.95.73,1.2,1.45,2.41,2.26,3.54.64.89,1.39,1.7,2.14,2.49,1.55,1.64,3.27,3.06,5.33,4.06,2.64,1.29,5.55,1.62,8.34,2.37.19.05.43-.05.64-.1.42-.1.78-.22,1.26-.02.39.16.95-.02,1.4-.14.45-.12.87-.37,1.36-.58.1-.45.2-.91.3-1.42-.71-.52-1.4-.98-2.04-1.49-1-.8-1.97-1.64-2.96-2.45-.92-.75-1.86-1.48-2.76-2.25-.71-.6-1.39-1.23-2.05-1.88-.5-.5-1-1.01-1.4-1.58-1.13-1.63-2.26-3.26-3.28-4.96-1.07-1.78-1.9-3.7-3.01-5.45-1.56-2.46-2.21-5.16-2.58-7.97-.11-.87-.32-1.73-.41-2.6-.05-.43.07-.89.12-1.37-.49-.38-.71-.95-.7-1.65,0-.43-.08-.85-.13-1.28-.04-.3-.13-.59-.12-.89.04-1.18.18-2.37.17-3.55-.04-2.38-.18-4.76-.24-7.14-.02-.91-.15-1.82.24-2.74.19-.44.12-1.15-.55-1.52-.57.14-1.15.28-1.89.46Z"/>
</svg>