<?xml version="1.0" encoding="UTF-8"?>
<svg id="Livello_1" data-name="Livello 1" xmlns="http://www.w3.org/2000/svg" viewBox="0 0 489 489">
  <defs>
    <style>
      .cls-1 {
        fill: #343434;
      }

      .cls-1, .cls-2, .cls-3, .cls-4, .cls-5, .cls-6, .cls-7, .cls-8, .cls-9, .cls-10, .cls-11, .cls-12, .cls-13, .cls-14, .cls-15, .cls-16, .cls-17, .cls-18, .cls-19, .cls-20, .cls-21, .cls-22, .cls-23, .cls-24, .cls-25, .cls-26, .cls-27, .cls-28, .cls-29, .cls-30 {
        stroke-width: 0px;
      }

      .cls-2 {
        fill: #0b0b0b;
      }

      .cls-3 {
        fill: #4d4d4d;
      }

      .cls-4 {
        fill: #262626;
      }

      .cls-5 {
        fill: #f8f8f8;
      }

      .cls-6 {
        fill: #1d1d1d;
      }

      .cls-7 {
        fill: #373737;
      }

      .cls-8 {
        fill: #222;
      }

      .cls-9 {
        fill: #060606;
      }

      .cls-10 {
        fill: #181818;
      }

      .cls-11 {
        fill: #272727;
      }

      .cls-12 {
        fill: #141414;
      }

      .cls-13 {
        fill: #191919;
      }

      .cls-14 {
        fill: #323232;
      }

      .cls-15 {
        fill: #101010;
      }

      .cls-16 {
        fill: #010101;
      }

      .cls-17 {
        fill: #171717;
      }

      .cls-18 {
        fill: #232323;
      }

      .cls-19 {
        fill: #0d0d0d;
      }

      .cls-20 {
        fill: #353535;
      }

      .cls-21 {
        fill: #0f0f0f;
      }

      .cls-22 {
        fill: #080808;
      }

      .cls-23 {
        fill: #fefefe;
      }

      .cls-24 {
        fill: #151515;
      }

      .cls-25 {
        fill: #9b9b9b;
      }

      .cls-26 {
        fill: #131313;
      }

      .cls-27 {
        fill: #050505;
      }

      .cls-28 {
        fill: #f1f1f1;
      }

      .cls-29 {
        fill: #0c0c0c;
      }

      .cls-30 {
        fill: #0e0e0e;
      }
    </style>
  </defs>
  <path class="cls-9" d="M263.29,300.1h-1.21c-3.35.57-6.72,1.62-9.91-.56.41-1.66,1.84-1.79,3.15-2.11,2.19-.24,4.44-.02,6.58-.78.9-.24,1.81-.38,2.74-.46,2.64-.27,5.42.38,7.89-1.11,21.94-8.31,25.5-27.5,27.87-47.3.36-3.03-1.09-5.87-2.06-8.74-2.21-6.48-4.24-13.01-3.21-20.03.4-.92.93-1.65,2.11-1.36.7,1.93,3.97,1.56,3.82,4.37-.04.74,2.29,7.98,2.23,8.68-.32,3.54.22,6.95,1.96,10.03.67,1.19.42,2.29.45,3.43.08,3.01-.11,6.03.07,9.04.16,2.77-1.99,5.12-1.25,7.94.31,1.19-.98,1.53-1.27,2.49-1.57,5.17-3.34,10.28-4.72,15.51-.29,1.09-.92,1.66-1.51,2.4-1.09,1.37-2.87,2.17-3.41,4.01-.64.98-1.44,1.79-2.42,2.43-.84-.03-1.24.37-1.21,1.21-.64.98-1.44,1.79-2.42,2.43-1.39.1-1.94,1.34-2.72,2.17-3.23,3.41-7.28,4.8-11.83,5.11-3.08,1.62-6.63-.47-9.7,1.21Z"/>
  <path class="cls-22" d="M202.67,278.28c-5.84-4.42-9.05-10.64-11.75-17.21-.14-.35-.37-.71-.36-1.06.15-5.33-2.06-10.48-1.23-15.87,1.3-8.44,3.13-16.53,7.68-24.13,5.57-9.29,13.33-16.42,20.65-24.05,1.24-1.29,2.94-1.7,4.4-2.56.97.31,1.59.9,1.58,1.99-5.43,6.95-12.44,12.4-17.88,19.4-12.42,15.97-15.82,41.42-3.79,56.09,1.26,1.54,2.31,3.31,2.41,5.43-.11,1.05-.74,1.66-1.71,1.96Z"/>
  <path class="cls-19" d="M237.83,186.13c1.37-.64,2.6-1.36,4.32-1.28,4.6.21,9.24.3,13.83,0,4.74-.31,8.73,1.12,12.05,4.31.8.77,2.65-.06,2.53,1.82.21,1.92-1.23,2.07-2.54,2.37-5-.47-9.6-2.62-14.64-3.25-9.7-1.22-18.68,1.22-27.73,3.92-1.62-.53-2.14-1.49-1.17-3.03,2.46-1.15,4.16-3.8,7.27-3.64,1.82-1.43,4.26.28,6.06-1.21Z"/>
  <path class="cls-15" d="M268.14,192.19c.92-.18,2.32.6,2.42-1.21,4.22,1.16,8.17,2.86,11.38,5.94,2.03,1.94,4.02,3.92,5.94,5.97.78.83,1.82,1.38,2.12,2.73,1.07,4.79,4.99,7.92,7.23,12.04-.84-.03-1.24.37-1.21,1.21-2.61.66-3.56-1.49-4.59-3.01-5.54-8.17-11.59-15.74-20.86-20.05-1.29-.6-2.94-1.54-2.43-3.62Z"/>
  <path class="cls-17" d="M251.17,301.32c-1.84.32-3.58.17-5.55.98-3.58,1.47-7.5-.56-11.12-1.52-1.65-.44-3.79-.36-5.15-1.89-.53-1.52.3-2.32,1.53-2.91,5.14-.47,9.49,3.55,14.72,2.57,1.44.02,2.88-.17,4.32-.28.59.05,1.12.26,1.58.64.31.86.42,1.68-.32,2.4Z"/>
  <path class="cls-16" d="M230.56,296.47c-.4.81-.81,1.62-1.21,2.43-3.39-1.31-7.3-1.56-9.7-4.85-.32-1.85,1.02-1.92,2.25-2.11,3.19.94,6.37,1.89,8.66,4.54Z"/>
  <path class="cls-16" d="M216.01,291.62c-3.31,0-4.48-2.68-6.06-4.85-.52-.53-.5-1.04.04-1.54,3.5-.97,4.98,1.51,6.56,3.83.26.94.16,1.82-.54,2.56Z"/>
  <path class="cls-8" d="M216.01,291.62v-2.43c3.47-1.2,5.38.2,6.06,3.64-.92.18-2.32-.6-2.42,1.21-1.88.19-3.16-.51-3.64-2.43Z"/>
  <path class="cls-17" d="M251.17,301.32v-2.43c.4-.28.81-.28,1.21,0-.08,1.12.66,1.21,1.49,1.21,2.74,0,5.47,0,8.21,0,.09,1.13-.67,1.21-1.5,1.21-3.14,0-6.28,0-9.42,0Z"/>
  <path class="cls-16" d="M209.95,285.55v1.21c-1.71-.72-2.92-1.93-3.64-3.64-.98-1.46-.59-2.37,1.1-2.76,2.23,1.05,3.98,2.34,2.54,5.19Z"/>
  <path class="cls-19" d="M263.29,300.1c-.08-1.12.66-1.21,1.49-1.21,2.74,0,5.47,0,8.21,0,.08,1.12-.66,1.21-1.49,1.21-2.74,0-5.47,0-8.21,0Z"/>
  <path class="cls-26" d="M207.52,280.7c-1.81.1-1.03,1.51-1.21,2.43-1.71-.72-2.92-1.93-3.64-3.64.73-.65,1.56-1.05,2.56-1.06,1.26.25,2.58.45,2.29,2.27Z"/>
  <path class="cls-13" d="M224.49,190.98c.18.92-.6,2.32,1.21,2.43,0,2.04-1.03,1.98-2.42,1.21-.84.03-1.24-.37-1.21-1.21.29-1.32,1.1-2.13,2.42-2.43Z"/>
  <path class="cls-13" d="M237.83,186.13c.08,1.08-.62,1.21-1.45,1.21-1.54,0-3.08,0-4.61,0-.08-1.08.62-1.21,1.45-1.21,1.54,0,3.08,0,4.61,0Z"/>
  <path class="cls-16" d="M205.1,279.49h-2.42v-1.21c-.03-.84.37-1.24,1.21-1.21,2.03,0,2,1.02,1.21,2.43Z"/>
  <path class="cls-19" d="M291.18,287.98c.29-1.32,1.1-2.13,2.42-2.43.37,1.98-.44,2.79-2.42,2.43Z"/>
  <path class="cls-19" d="M287.54,291.62c.29-1.32,1.1-2.13,2.42-2.43.37,1.98-.44,2.79-2.42,2.43Z"/>
  <path class="cls-23" d="M205.1,279.49c-.18-.92.6-2.32-1.21-2.43-1.42-3.97-4.3-7.09-6.54-10.54-2.7-4.18-3.61-8.84-4.14-13.34-.51-4.32-1.42-9.06.93-13.38.34-.62.08-1.59.04-2.39-.28-5.41,2.11-9.92,4.87-14.29.21-.33.75-.54.81-.87.94-5.02,4.89-8.1,7.65-11.94,2.94-4.09,7.15-6.98,10.21-10.89,1.6-2.04,4.82-1.97,5.56-4.81.92-.18,2.32.6,2.42-1.21,2.96-2.16,6.13-4.01,9.92-3.56,1.8.22,2.59-1.9,4.32-1.3,2.17.75,3.89-2.6,5.97-.9,2.04,1.68,4.21.77,6.27.83,5.04.15,9.88.69,14.17,3.67.41.28,1.18.04,1.78.04,1.83,1.14,3.24,2.77,5.31,3.71,7.24,3.3,12.26,9.05,16.57,15.59,1.73,2.63,3.2,5.58,6.01,7.37-1.12,1.41,1.99,2.28.37,4.01-1.26,1.34.73,2.9.7,4.13-.15,5.74,2.52,10.66,4.23,15.81,1.24,3.75.97,7.37.23,10.94-.22,1.05-.68,2.19-.64,3.3.08,1.98-.43,3.71-1.17,5.56-2.09,5.19-3.19,10.73-4.97,16.03-.61,1.83-2.47,2.94-3.52,4.48-2.39,3.52-5.77,6.02-8.61,9.05-.84.9-2.26,1.75-3.42,1.76-2.51.02-4.09,1.88-6.23,2.53-2.66,1.58-5.83-.43-8.49,1.21h-2.42c-1.82,1.43-4.26-.28-6.06,1.21h-6.06c-.98,1.1-2.68.05-3.64,1.21h-7.98c-.52-.63-1.14-1.39-2-2.44-1.91.02-4.08.26-5.79-1.2-4.53-1.06-5.85-1.62-8.49-3.64-1.91-1.39-3.3-3.67-6.06-3.64-1.49-.24-2.16-1.54-3.02-2.49-.89-.98-1.83-1.29-3.04-1.15-.01-.94.15-1.85-.75-2.64-.67-.59-1.73-1.02-1.67-2.21-.1-1.81-1.51-1.03-2.42-1.21Z"/>
  <path class="cls-19" d="M264.51,297.68c-.08-1.11.65-1.21,1.48-1.21,2.34,0,4.67,0,7.01,0,.08,1.11-.65,1.21-1.48,1.21-2.34,0-4.67,0-7.01,0Z"/>
  <path class="cls-19" d="M256.02,298.89c-.08-1.08.62-1.21,1.45-1.21,1.54,0,3.08,0,4.61,0,.08,1.08-.62,1.21-1.45,1.21-1.54,0-3.08,0-4.61,0Z"/>
  <path class="cls-17" d="M246.32,300.1c.57-2.34,2.44-.75,3.64-1.21-.57,2.34-2.44.75-3.64,1.21Z"/>
  <path class="cls-2" d="M225.71,245.54c2.42.12,3.73-.93,3.64-3.48.09-1.82-2.37-2.04-2.43-3.77-.35-1.22,1.6-1.31,1.06-3-1.08-.7-2.54-1.64-4.48-2.9-.72.17-1.26,1.95-2.79,2.74v4.96c-1.04-.88-2.17-1.84-3.43-2.9,1.41-7.34,2.2-8.17,8.83-8.65,1.38,1.15,3.07,2.29,4.36,3.78.43.49,1.23,1.1,1.26,1.83.14,2.69-.44,5.48,1.25,7.93-1.08,1.21-1.02,2.8-1.49,4.21-.42,1.23-1.7,2.16-2.28,2.84-2.58.2-4.15-.25-4.72-2.37-.32-1.13-.03-1.65,1.21-1.21Z"/>
  <path class="cls-30" d="M209.26,238.26c2.61,0,1.88,1.61,1.84,2.59-.04,1.1-1.56,1.73-1.17,3.11.46,1.61,1.27,3.08,1.55,4.8.19,1.17,1.51,2.15,2.35,3.25,2.37-2.63-.56-4.02-.26-5.85.76-1.04,1.85-.46,2.98-.66,1.04,2.06,2.11,4.18,3.38,6.69-1.09.76-2.24,1.55-4.18,2.89h-4.18c-2.02-2.14-3.25-4.91-3.99-7.81-.8-3.13.84-5.97,1.69-9.01Z"/>
  <path class="cls-21" d="M272.99,240.69c1.86-.28,3.64.74,3.48,2.24-.25,2.36,1.59,3.99,1.34,6.54-1.12,2.3-3.51,3.47-5.99,4.55-2.66-1.1-5.59-1.9-6.09-5.44v-4.94c1.68-1.23,2.71-3.33,4.84-4.17,1.13-.57,1.48.17,1.74,1.04.02,2.16-2.41,3.74-1.18,6.96,1.71-2.15.3-4.52,1.33-6.13.17-.22.35-.44.52-.66Z"/>
  <path class="cls-19" d="M230.55,286.16c-2.72-2.73-4.85-4.86-7.41-7.43-.57-.59,1.25-2.59-.82-3.04-.16-2.08,2.38-4.65,5.98-5.89-.75,2.37-1.39,4.41-2.16,6.84.43,1.06.87,2.66,2.26,3.72.28.4.44.15.87-.13,2.07-1.36.96-3.63,1.3-5.16,1.88-1.06,2.42.35,3.45,1.17v5.01c-1.4,1.98-2.31,3.27-3.47,4.9Z"/>
  <path class="cls-19" d="M242.68,201.89c.56-2.51,3.19-2.35,4.78-3.81,2.74,1.41,4.57,3.83,4.77,6.6.26,3.58,1.38,7.68-2.28,10.55-1.22.92-2.16.54-2.94-.61-.77-3.01,1.17-6.15-.38-9.14-1.1-1.54-3.04-.16-4.28-1.22-.44-.86-.32-1.65.32-2.36Z"/>
  <path class="cls-6" d="M264.51,214.01c.32-1.94,2.5-.98,3.32-2.14,1.64,2.06,2.77-1.7,4.54-.33,2.29,1.77,5.02,2.98,6.19,5.1-.44.84-.9,1.72-1.57,3.02-1.88-1.79-3.27-3.12-4.66-4.44h-6.61c-.68-.13-1.08-.53-1.21-1.21Z"/>
  <path class="cls-12" d="M247.05,251.73l1.56,1.56c-1.21,2.03-3.15,3.16-5.38,4.06-1.64-1.8-4.17-.36-6.2-1.11-.5-1.03-.97-2-1.61-3.34,2.51-.07,4.94-.63,7.24,1.2,1.42-.77,2.88-1.56,4.39-2.38Z"/>
  <path class="cls-29" d="M292.39,243.12c-3.43-2.76-4.07-7.45-7.2-10.46-.37-.36-.48-1.9.34-2.73,1.82-.64,2.53.8,3.18,1.87,1.48,2.42,1.77,5.44,3.68,7.68.82,1.21.82,2.43,0,3.64Z"/>
  <path class="cls-4" d="M247.53,214.01c.1,1.81,1.51,1.03,2.42,1.21-2.34,1.41-4.87,1.69-7.2.65-1.67-.74-3.27-1.63-4.89-2.45-.8-1.49,1.37-1.81,1.19-3.05.62-.66,1.38-.8,2.22-.61,2.14,1.34,3.64,3.61,6.26,4.25Z"/>
  <path class="cls-27" d="M241.47,210.38h-2.42v-5.3c1.07-1.14,1.95-2.61,3.64-3.19v2.43c.95,2.29.45,4.29-1.21,6.06Z"/>
  <path class="cls-18" d="M253.59,280.1v2.36c-1.04,1.24-2.08,1-4.83-1.12q2.1-1.67,4.83-1.24Z"/>
  <path class="cls-1" d="M221.26,215.5c.52,1.47.87,2.47,1.16,3.3.02-.03-.49.8-.73,1.19-1.89.26-2.23-.95-3.04-1.5.17-1.01,1.07-1.42,2.6-3Z"/>
  <path class="cls-26" d="M282.69,274.64c-.09-1.14.69-1.14,1.51-1.24.61-.07,1.06-.45.92-1.19.4-.48.81-.48,1.21,0,.19,1.88-.51,3.16-2.42,3.64-1.14.33-1.54-.08-1.21-1.21Z"/>
  <path class="cls-10" d="M256.43,271.18c1.25.56,2.08,1.39,2.04,2.82-.61.76-1.3.8-2.06.45-.61-1.09-.61-2.16.01-3.27Z"/>
  <path class="cls-20" d="M282.69,274.64c-.03.84.37,1.24,1.21,1.21.06,1.22-1.2,1.46-1.72,2.43-.58-.54-1.12-1.03-1.73-1.59.38-1.09,1.09-1.79,2.23-2.05Z"/>
  <path class="cls-24" d="M266.52,282.94c-.78.35-1.46.3-2.01-.45-.15-1.53.89-2.19,1.98-2.92.62,1.25.69,2.31.03,3.37Z"/>
  <path class="cls-25" d="M293.66,255.25c-1.15.07-1.35-.66-1.25-1.5.07-.61.43-.97,1.18-.96,1.12.01,1.3.69,1.21,1.52-.07.61-.42,1.08-1.13.94Z"/>
  <path class="cls-7" d="M225.71,245.54c-.84-.03-1.24.37-1.21,1.21-1.18-.17-1.74-1.06-2.39-2.12,1.38-.06,2.88-1.36,3.6.91Z"/>
  <path class="cls-29" d="M264.51,214.01c.84-.03,1.24.37,1.21,1.21-.32,1.71-1.44,1.63-2.25.65-.53-.64-.38-1.83,1.04-1.86Z"/>
  <path class="cls-14" d="M286.33,272.22h-1.21c-.05-1.35,1.43-1.42,1.71-2.73.92,1.5,1.21,2.43-.49,2.73Z"/>
  <path class="cls-11" d="M292.39,243.12v-3.64c1.66,1.22,1.66,2.42,0,3.64Z"/>
  <path class="cls-3" d="M271.78,240.69c.03-.84-.37-1.24-1.21-1.21-.09-1.15.72-1.34,1.52-1.18,1.46.28.74,1.54.91,2.4-.4.57-.81.57-1.21,0Z"/>
  <path class="cls-28" d="M271.78,240.69h1.21c-.67,2.25,1.55,3.92,1.14,6.58-.95.68-2.23,1.59-3.07,2.2-.56-.6-1.62-1.73-2.79-2.99.4-1,1.69-2.19,1.08-3.86.29-1.34,2.65.02,2.43-1.94Z"/>
  <path class="cls-5" d="M241.47,210.38c.03-2.1-.38-4.28,1.21-6.06,1.53-.2,1.95-1.86,3.3-2.44,1.41-.26,1.83,1.18,2.83,1.87-.53,3.39.93,7.05-1.28,10.27-1.17-.29-1.29,1.6-1.75,1.44-3.18-.93-3.1-3.48-4.31-5.07Z"/>
</svg>