<?xml version="1.0" encoding="UTF-8"?>
<svg id="Livello_1" data-name="Livello 1" xmlns="http://www.w3.org/2000/svg" viewBox="0 0 274.41 274.41">
  <defs>
    <style>
      .cls-1 {
        fill: #000;
      }

      .cls-1, .cls-2 {
        stroke-width: 0px;
      }

      .cls-2 {
        fill: #fff;
      }
    </style>
  </defs>
  <path class="cls-1" d="M107.5,134.33c.42.23.85.47,1.34.74h.72c.19.26.37.51.57.78.2-.1.37-.19.58-.29.48-.07,1.02.11,1.51-.17.11-.06.24-.08.34-.15.64-.43,1.4-.76,1.89-1.33.5-.59,1.22-1.04,1.43-1.91.16-.66.61-1.25.93-1.88v-.91c.23-.17.48-.36.76-.58-.02-.05-.05-.11-.06-.13.03-.46.07-.89.09-1.32.03-.65.15-1.28.29-1.91.02-.08.04-.15.03-.23-.05-.84.32-1.55.64-2.28.05-.12.12-.23.19-.36-.06-.15-.13-.29-.2-.47.19-.61.37-1.25.34-1.94-.01-.3.06-.62.16-.91.23-.69.12-1.41.15-2.11.03-.6-.06-1.2.14-1.8.09-.27.07-.61-.07-.92-.1-.22-.06-.51-.08-.74.12-.22.22-.41.33-.62v-1.46c.14-.28.28-.52.38-.79.06-.18.14-.46.05-.58-.25-.36-.02-.65.04-.85-.14-.6-.26-1.1-.37-1.58.17-.21.3-.37.4-.5q-.19-.59-.02-1c-.21-.71-.22-1.61-.02-2.46.03-.15.02-.32.02-.47,0-.51.01-1.01,0-1.52-.03-1.08.28-2.14.16-3.23.22-.47.16-.98.15-1.47,0-.2-.08-.4-.11-.54.04-.4.08-.76.12-1.12.04-.31-.1-.63.13-.92.07-.08.06-.27.02-.38-.31-.8-.1-1.62-.14-2.43-.01-.27.13-.55.14-.83,0-.33-.07-.66-.12-1.12.05-.09.15-.3.28-.56,0-.39.07-.85-.01-1.29-.23-1.19.02-1.84.31-2.69-.05-.36-.12-.66-.13-.97-.02-.48.02-.96-.01-1.44-.03-.43.07-.82.19-1.22.12-.39.22-.79.28-1.19.04-.25.08-.53-.15-.75.07-.73-.15-1.47.12-2.2.06-.16.1-.4.02-.54-.24-.46-.14-.93-.14-1.4,0-.53-.07-1.02-.24-1.53-.12-.34-.08-.72-.11-1.09.12-.16.24-.3.3-.39-.04-.31-.1-.56-.11-.81-.02-.53,0-1.06,0-1.6,0-.17-.06-.35-.11-.64-.01.02.07-.06.08-.15.07-.83.15-1.66.19-2.5,0-.19-.11-.39-.15-.59-.07-.45.16-.86.22-1.29.01-.1.08-.19.09-.29.07-.99.14-1.99.21-3.02.04-.02.13-.07.22-.12.35-1.4.17-2.83.21-4.25,0-.17-.07-.35-.1-.53-.02-.13-.07-.26-.05-.38.15-.8.32-1.61.5-2.5.23-.2.51-.45.83-.72-.32-.33-.22-.66-.05-1.01.33-.7.32-.7.32-1.7.54-.73,1.07-1.44,1.6-2.14.52-.68,1.05-1.35,1.62-2.09.63-.36,1.35-.76,2.06-1.16.16-.09.32-.18.45-.3.42-.37.94-.48,1.45-.39.25.05.53.06.75.15.49.2.98.11,1.54.15.45.34.94.72,1.45,1.08.25.18.52.32.78.47.25.13.51.23.75.37.12.07.19.21.3.3.39.3.78.59,1.19.89-.08.14-.13.23-.18.32.03.03.05.09.1.11.74.37,1.02,1.15,1.53,1.73.12.14.42.38.15.68-.03.03.05.18.11.26.3.39.4.88.64,1.31.34.6.5,1.24.48,1.93.1.19.2.37.31.59,0,.55-.02,1.13,0,1.72.03.57.03,1.16.19,1.7.09.32.08.61.13.92.1.66.09,1.34.28,1.99.02.07.03.15.03.23.05,1.26.1,2.52.16,3.79.02.34-.14.68,0,1.03.13.33.22.68.31.98-.22.99-.21,1.94-.01,2.98-.15.44-.21.95-.03,1.51.1.31.08.69,0,1-.23.94-.06,1.89-.09,2.84,0,.11.11.22.19.38-.22.33-.44.64-.69,1,.08.16.19.36.31.61,0,.03,0,.11,0,.19-.02.95.26,1.88.17,2.83-.01.11.09.23.15.37-.03.05-.1.12-.11.19-.08.59-.19,1.18-.2,1.77-.02.92-.28,1.82-.17,2.75-.25.47-.15.98-.15,1.47,0,.17.08.34.13.55-.13.22-.21.47-.06.77.07.13.13.34.07.45-.25.48-.1.99-.15,1.48-.13,1.23-.21,2.47-.16,3.71-.22.39-.06.78-.03,1.18.04.57-.15,1.16-.26,1.83.07.2.17.49.25.69-.04.33-.1.58-.11.83-.01,1.2,0,2.4,0,3.59,0,.36.09.74-.14,1.08-.05.07-.04.22,0,.31.33.74.05,1.52.17,2.24-.12.24-.23.44-.35.69.3.73.49,1.5.22,2.37.07.38.15.83.24,1.32-.03.12-.11.29-.12.46-.02.34-.02.69,0,1.04.06,1.16-.09,2.31-.16,3.47-.02.44,0,.87.14,1.31.15.46.16.97.27,1.69.11.28.33.78.88,1.11.08-.07.23-.14.26-.24.2-.66.69-1.19.8-1.9.05-.32.09-.62-.1-.87.27-1,.71-1.94.78-2.98.02-.33.07-.67.19-.98.16-.39.18-.74,0-1.12-.06-.13-.03-.31-.03-.46.23-.24.45-.47.68-.72-.33-.69-.16-1.41-.19-2.11,0-.12.08-.24.11-.36.09-.38.23-.73.21-1.14-.01-.41.13-.81.45-1.12-.16-.17-.32-.35-.48-.53.15-.7.34-1.37.35-2.08,0-.45.18-.9.25-1.36.04-.28.06-.58.05-.86-.03-.62.08-1.25-.13-1.88-.17-.5.12-1.01.21-1.52.06-.38.2-.84.06-1.16-.26-.57.01-1,.17-1.47.08-.24.21-.47.35-.76-.08-.69.13-1.46-.14-2.25,0,0,.03-.05.03-.09.04-.44,0-.91.12-1.32.13-.42.2-.78,0-1.2-.08-.17-.03-.42-.03-.63,0-2.05,0-4.1,0-6.15,0-.25-.05-.51-.09-.88.02-.09.08-.32.09-.54.06-.68-.11-1.37.16-2.03.05-.14.06-.34,0-.47-.25-.53-.11-1.09-.16-1.69.09-.11.21-.25.33-.39,0-.79.03-1.59-.01-2.39-.03-.53.09-1.04.19-1.55.15-.77.2-1.9.04-2.56-.04-.17-.08-.4,0-.53.47-.75.2-1.51.04-2.25-.08-.37-.12-.69,0-1.06.09-.24.09-.53.05-.78-.22-1.17-.23-1.73.1-2.67.09-.27.11-.49-.06-.73-.09-.12-.12-.28-.18-.42.2-.91.39-1.8.57-2.62-.05-.4-.08-.73-.12-1.03.61-.72.49-1.54.51-2.43.12-.2.28-.47.46-.75-.19-.54-.15-.64.25-1,.29-.26.52-.58.77-.88.22-.27.18-.53-.02-.78.06-.26.12-.51.2-.86.6-.24.64-.98,1-1.51.35-.51.71-.95,1.36-1.07.15-.03.33-.1.41-.21.41-.57,1.14-.72,1.58-1.22h1.22c.36-.24.76-.51,1.25-.84.68.07,1.43.14,2.13.21.89.33,1.72.65,2.56.94.77.27,1.34.79,1.84,1.4.17.2.31.42.47.65-.03.64.49,1.1.66,1.73-.05.11-.11.25-.18.42.2.28.41.58.57.8.14.33.25.59.39.93-.14.71.5,1.39.32,2.17.28.57.53,1.11.68,1.72.17.66.26,1.34.58,1.98.33.67.45,1.44.32,2.21.11.22.22.42.34.67,0,.65,0,1.34,0,2.03,0,.34.04.68.07,1.02.02.26.09.52.07.77-.01.28-.13.55-.14.83,0,.24.03.47.01.71-.03.38-.12.77.11,1.16.11.18,0,.47.03.71.04.46-.13.95.15,1.39.06.1.06.3,0,.39-.29.39,0,.9-.3,1.27-.03.03-.01.11,0,.16.05.28.16.56.14.83-.02.27-.23.54-.14.83.09.28-.24.52-.02.8.03.03-.04.14-.06.21-.12.38-.12.76,0,1.15.05.17,0,.38-.01.56.04.46.08.92.12,1.36-.18.19-.33.35-.49.52v.64c.08.09.18.22.28.32.1.6-.03,1.15-.3,1.67.06.12.11.23.18.37-.1.28-.2.57-.33.9.08.23.18.52.29.83-.04.09-.1.21-.15.31.06.1.1.19.16.3-.22.42-.55.85-.12,1.34-.13.26-.24.49-.36.74v1.1c-.17.28-.34.56-.47.77.13.67.25,1.25.35,1.74-.15.28-.25.46-.32.59-.19,1.67-.37,3.3-.55,4.87.13.26.24.46.31.6-.28.52-.54.99-.78,1.42.3.63.08,1.25.18,1.84.11.57-.44,1.11-.05,1.67-.14.27-.28.54-.44.85v4.34c-.16.31-.31.61-.52,1.01.06.39.13.87.19,1.36.06.49,0,.97.12,1.48.11.45.15.99-.07,1.48-.07.16-.05.36-.05.54.01.76-.06,1.49-.29,2.23-.11.36.05.81.14,1.22.04.22.17.43.26.63-.07.3-.15.59-.24.98.06.11.17.31.27.5.07.01.12.04.15.02.33-.15.53-.4.51-.78-.07-.9.31-1.72.44-2.58.1-.69.1-1.41-.02-2.1.19-.5.38-1.03.56-1.53-.02-.3-.36-.55-.01-.85-.19-.23-.37-.45-.56-.68.16-.22.36-.49.56-.76,0-.42-.01-.82,0-1.21.05-1.02.03-2.06.18-3.06.13-.85.19-1.7.28-2.54.09-.87.02-1.75.02-2.63,0-.36,0-.72.14-1.08.12-.3-.09-.67.15-1,.08-.1.02-.31.02-.47,0-.51,0-1.01,0-1.51.17-.26.33-.52.51-.8-.06-.16-.11-.3-.13-.34.04-.43.11-.76.09-1.09-.04-.77.02-1.52.34-2.21.23-.49.09-.98.16-1.53.24-.36.5-.77.55-1.38-.09-.14-.23-.37-.41-.65.29-.85.33-1.78.34-2.72,0-.94.1-1.89.16-2.88.09-.16.19-.37.3-.58.05-.78-.08-1.57.13-2.35.03-.12-.08-.28-.13-.46.64-.57.74-1.33.83-2.16.12-1.1.02-2.23.42-3.3.09-.23.11-.52-.11-.79.55-.63.63-1.52,1.13-2.17-.08-.24-.14-.43-.18-.55.44-.67.84-1.27,1.23-1.88.29-.45.58-.89,1.04-1.21.27-.18.43-.51.64-.78.59-.75.74-.86,1.56-1.24.14-.06.27-.15.4-.24.49-.32.91-.74,1.55-.83.26-.04.48-.3.75-.47.79.12,1.61.19,2.39.65h.72c.65.53,1.08,1.29,1.93,1.53.34.97,1.02,1.73,1.54,2.58-.06.17-.12.34-.17.47.03.09.04.15.07.18.43.48.62.91.91,1.67.27.69.63,1.35.95,2.02-.07.98.06,1.92.43,2.83-.2.28-.14.57-.04.88.15.48.09,1.64-.1,2.12.09.26.19.55.32.9-.14.27-.28.61-.01.9-.11.33-.26.61-.27.91,0,.24.17.48.3.8v.69c-.28.23-.6.5-.94.78v.44c.26.34.51.67.81,1.06.06,1.09.12,2.24.18,3.37-.2.21-.36.39-.51.55.13.69.26,1.37.4,2.13.04,0,.16.02.36.05.22-.32.44-.66.72-1.08.37-.05.71-.29.8-.63.52-.38.93-.69,1.39-1.03.55.19,1.15.29,1.76.01.48.24.97.49,1.46.74.27.58.64,1.07,1.14,1.51.31.27.58.63.59,1.14,0,.31.18.67.39.9.4.43.62,1.02,1.13,1.35.32.72,1.01,1.26,1.05,2.12,0,.07.08.13.13.21-.42.59-.02,1.02.35,1.45-.07.26-.14.51-.22.81.2.23.43.48.62.69.08,1.54.28,3.04.2,4.55.3.96.11,1.94.15,2.91,0,.23-.1.45-.11.68,0,.3.05.6.08,1-.27.18-.61.39-.93.6,0,.66.42.95.87,1.19.11.43.22.82.33,1.24-.19.4,0,.9-.11,1.34-.11.44.13.85-.04,1.39-.18.29-.42.69-.11,1.18.07.12.03.31,0,.47-.05.47-.19.93-.03,1.43.07.21-.16.52-.29.89v3.27c-.1.18-.2.39-.33.63.08.72-.15,1.5.21,2.26-.58.48-.72,1.12-.68,1.83.03.45.02.91,0,1.36-.04.73-.1,1.46-.16,2.19,0,.03,0,.06,0,.08-.4.64-.4,1.32-.13,1.97-.23.4-.44.75-.66,1.13,0,.17,0,.35,0,.54.01.18.04.35.08.66-.14.31-.34.75-.53,1.19.4.71.43,1.41-.18,2.09-.07.75-.14,1.53-.23,2.5-.12.18-.36.52-.59.86-.06.08-.11.18-.14.27-.16.54-.28,1.09-.57,1.58-.11.18-.07.45-.1.68-.24.09-.47.18-.72.27-.12.31-.24.62-.36.95.16.59.29,1.19.04,1.81-.12.29-.07.62.15.9-.22.74-.46,1.47-.65,2.21-.15.57-.48,1.07-.53,1.68-.02.22-.28.43-.44.64v1.15c-.22.13-.43.26-.64.39-.09-.06-.16-.1-.29-.19-.15.29-.29.58-.43.87.03.02.05.03.08.05-.2.17-.4.35-.49.42-.45,1.05-.45,2.12-1.22,2.89-.14.59-.14,1.27-.65,1.75-.23.94-.78,1.72-1.26,2.54-.15.26-.23.57-.37.84-.08.16-.17.34-.31.43-.68.46-1.25,1.03-1.71,1.71-.1.15-.25.27-.39.4-.32.27-.64.54-.96.81-.24.2-.49.39-.73.59-.1.08-.23.17-.28.28-.37.77-.97,1.35-1.5,1.99-.27.33-.63.56-.84.97-.2.38-.54.7-.86,1.01-.33.33-.73.6-1.06.93-.3.29-.54.64-.81.96-.23.28-.46.57-.69.85-.32.38-.63.76-.94,1.13-.21-.08-.38-.14-.53-.19-.36.13-.56.41-.61.7-.09.48-.39.71-.83.9-.09.82-.75,1.37-1.1,2.13-.67.21-.99.97-1.66,1.14-.42.77-.31,1.18-1.69,1.72-.39.78-1,1.45-1.62,2.12-.84.89-1.59,1.87-2.35,2.83-.12.15-.19.37-.23.57-.05.25-.22.34-.41.4-.58,1.34-1.15,2.67-1.7,3.95-.33.31-.63.59-.92.86v.74c-.16.31-.31.61-.44.86-.05.67-.1,1.3-.15,1.92-.29.25-.54.47-.84.73.15.39.32.84.5,1.31-.17.18-.32.36-.49.55v.63c.08.09.16.18.29.33-.47.32-.4.89-.61,1.35.05.15.11.32.17.49-.13.16-.24.3-.36.44.13.21.25.4.4.63-.24.27-.47.52-.73.8.11.16.23.32.38.54-.28.22-.55.44-.82.66v.94c.09.17.19.37.3.58-.08.24-.17.48-.26.74,0,.02.03.06.04.1.08.72.17,1.44.22,2.17.02.25-.07.51-.15.75-.19.54-.09,1.12-.29,1.67-.1.29.04.67.06,1,.02.28.11.59.04.85-.18.7-.2,1.39.04,2.17-.1.19-.21.39-.32.62.05.9-.12,1.79-.37,2.73-.21.19-.47.42-.71.64.1.38.19.72.29,1.1-.09.18-.2.38-.32.63v.94c-.48.74-.94,1.44-1.43,2.19.07.04.17.1.31.18-.16.62-.94.96-.8,1.67-.37.46-.65.98-1.09,1.28-.41.28-.6.7-.95,1.01-.43.39-.83.79-1.34,1.08-.45.25-.74.64-.81,1.22-1.1,1.05-2.52,1.79-3.66,3.05-.52.32-1.15.71-1.79,1.1-.35.21-.7.46-1.1.52-.4.06-.68.28-.91.56-.89,1.08-2.11,1.67-3.35,2.22-.3.13-.63.21-.96.26-.59.09-1.19.13-1.86.21-.14.07-.34.17-.63.32-.49-.06-1.06-.18-1.63-.18-.57,0-1.14.1-1.7.16-.3.15-.6.31-1.01.52-.56-.09-1.22-.2-2.04-.33.02,0-.12.05-.23.1-.58-.09-1.14-.18-1.79-.28-.46.12-1.02.38-1.63.29-.5-.08-1-.23-1.49-.35-.12-.03-.24-.11-.36-.12-.91-.06-1.83-.09-2.75-.17-.51-.05-1.03-.11-1.5-.33-.41-.19-.85-.17-1.27-.3-.15-.04-.34-.03-.43-.12-.17-.17-.35-.19-.57-.21-.25-.02-.5-.11-.74-.17-.16-.2-.32-.41-.48-.62-.28,0-.55.02-.81,0-.22-.02-.5-.04-.65-.17-.22-.2-.46-.07-.66-.18-.23-.12-.44-.27-.58-.36-.35-.09-.62-.19-.89-.23-.81-.13-1.59-.38-2.41-.49-.59-.08-1.15-.25-1.59-.7-.51-.51-1.01-1.02-1.52-1.52-.23-.23-.34-.5-.42-.81-.2-.78-.33-1.56-.34-2.38,0-.38-.18-.82-.41-1.13-.3-.39-.48-.75-.54-1.25-.1-.73-.33-1.45-.78-2.05.03-.52,0-1.01-.22-1.48-.07-.16-.09-.35-.09-.53-.01-.45.03-.91-.01-1.36-.09-.9-.21-1.8-.36-2.69-.04-.2-.16-.37-.02-.58.04-.06,0-.18,0-.28-.03-.34-.19-.75-.06-1,.3-.54-.08-.95-.12-1.41-.01-.14-.13-.28-.23-.47,0-.37.01-.79,0-1.21,0-.2-.08-.4-.11-.6-.02-.15-.08-.33-.04-.46.28-.88.2-1.79.13-2.67-.14-1.5-.14-3-.13-4.51,0-.54.12-1.09.15-1.63.03-.53-.06-1.07.02-1.59.13-.82.39-1.64.28-2.46-.08-.57-.24-1.16-.11-1.71.15-.61.13-1.2.12-1.8,0-.57-.06-1.15-.16-1.71-.18-1-.2-1.6,0-2.62.03-.15.02-.32,0-.48-.03-.59.06-1.14.47-1.6.08-.09.11-.23.18-.38-.06-.73.04-1.47.3-2.19-.22-.92-.51-1.85-.15-2.81.03-.07.02-.16.06-.22.07-.11.17-.2.26-.3-.46-.79-.63-1.61-.37-2.52.16-.57-.09-1.12-.33-1.63-.21-.44-.5-.84-.77-1.25-.1-.15-.23-.31-.38-.4-.64-.38-1.29-.75-1.95-1.11-.1-.06-.26,0-.45,0-.51-.76-1.34-1.05-2.22-1.32-.42-.38-.89-.7-1.53-.79-.47-.07-.82-.48-1.07-.88-.16-.26-.34-.42-.59-.58-.36-.23-.67-.53-1-.8-.96-.8-1.94-1.59-2.87-2.42-.28-.25-.45-.63-.91-.56-.64-.59-1.26-1.17-1.89-1.72-.17-.14-.43-.17-.6-.31-.53-.45-1.05-.92-1.32-1.43-.6-.43-1.07-.86-1.62-1.13-.62-.3-.69-1.07-1.38-1.31-.04.02-.13.07-.24.13-.17-.18-.39-.34-.52-.56-.17-.31-.39-.53-.7-.7-.49-.29-.74-.8-1.08-1.23-.16-.21-.3-.43-.5-.6-.55-.45-.93-1.06-1.11-1.75-.15-.59-.36-1.17-.56-1.81,0-.01.05-.1.1-.21-.28-.34-.55-.69-.5-1.18.02-.19-.06-.41-.16-.59-.41-.73-.48-1.52-.47-2.33,0-.29-.06-.55-.14-.84-.14-.5-.21-1.01-.19-1.54.01-.57.13-1.16-.15-1.71.2-.64-.22-1.32.14-1.94-.15-1.03.35-2,.33-3.02,0-.45,0-.91,0-1.36,0-.62.13-1.23.28-1.83.03-.1.04-.21.03-.31-.02-.5.02-.99.28-1.44.04-.06.05-.15.04-.23-.11-.95.17-1.88.17-2.83,0-.25.11-.5.15-.75.11-.77.18-1.54.33-2.3.16-.78.15-1.59.41-2.35.06-.17.03-.36.06-.54.03-.17.07-.35.08-.39-.17-2.14-.13-4.16.12-6.3.06-.14.18-.39.32-.68-.17-.21-.34-.4-.52-.63,0-.43,0-.88,0-1.33,0-.51.03-1.01,0-1.52-.03-.49-.13-.98-.22-1.65-.02-.04-.13-.24-.25-.48v-.73c.19-.2.41-.43.6-.64.24-.84-.53-1.22-.81-1.95.11-.86.23-1.84.35-2.83-.1-.13-.21-.27-.37-.47.34-.27.65-.53,1-.81-.16-.26-.31-.52-.42-.7.51-.95.99-1.85,1.5-2.8.48-.31,1-.64,1.6-1.03.09-.11.25-.32.37-.48.86-.24,1.75-.23,2.39-.92.13-.14.36-.19.52-.27.59.28,1.14.54,1.72.82h.68c.87-.48,1.16-.43,1.63.3h.9c.34.33.66.62.97.93.32.32.61.69.97.95.44.31.91.62,1.42.77.77.23,1.25.69,1.5,1.39.27.12.49.22.75.34-.08.3-.15.54-.21.77.33.35.64.69.95,1.02-.09.57.06,1.09.31,1.58.16.31.37.61.5.94.21.57.29,1.15.02,1.74-.09.18-.12.39-.18.6.3.68.61,1.35.96,2.15v.59c.19.3.34.54.47.74.06,1.18.06,2.32.2,3.44.11.91.35,1.8.88,2.59.12.18.15.43.22.65.12.41.28.79.73.93.27.37.33.75.01,1.17.94,1.54,1.85,3.09,2.21,5.01.16.17.39.43.49.8.18.63.51,1.16,1.13,1.49.63.34.98.99,1.6,1.45ZM82.05,154.66c.05.1.07.26.16.32.62.42,1.14.9,1.44,1.61.08.18.27.33.44.46.41.33.81.66,1.02,1.17.07.16.25.27.38.4,1.15,1.13,2.26,2.31,3.49,3.35.44.37.85.76,1.34,1.07.42.26.77.62,1.16.93.29.24.58.48.87.71.7.55,1.42,1.07,2.05,1.71.23.24.52.43.81.61.17.1.41.09.58.19.18.12.3.33.48.46.47.32.88.71,1.4.98.39.2.75.49,1.03.82.42.49.93.76,1.53.92.44.12.94.2,1.28.47.46.36,1.06.42,1.5.79.71-.04,1.18.45,1.72.79.62.39,1.29.69,1.77,1.27.14.17.42.25.54.43.49.78,1.11,1.48,1.35,2.41.12.47.37.92.26,1.42-.06.27-.2.52-.28.73.22.5.21.96.07,1.42-.11.37-.14.7.05,1.06.11.2.13.44.2.73-.19.27-.4.59-.61.9.15.16.29.31.39.42.06.28.16.51.13.72-.16,1.19-.06,2.41-.33,3.7-.05.11-.16.35-.27.58.13.25.24.48.34.68-.22.64-.73,1.2-.32,1.92.02.03-.04.09-.04.14,0,.44-.04.87-.09,1.31-.06.58,0,1.17-.02,1.76-.03.6-.1,1.19-.16,1.79-.03.36.06.72-.14,1.08-.08.15-.02.42.04.61.23.62.35,1.22,0,1.84-.11.19-.17.44-.18.66-.03.73-.14,1.47.06,2.2.17.62.36,1.24.06,1.88-.22.47-.16.97-.16,1.47,0,1.17,0,2.34,0,3.51,0,.25-.05.5-.08.76.07.22.15.46.23.7-.17.2-.34.39-.47.54-.03.43.34.52.47.81.02.8-.04,1.64.16,2.47.14.6.17,1.23.35,1.81.1.34.16.66.13,1-.02.25-.14.5-.14.75,0,.25.13.5.14.75,0,.17-.09.34-.11.39.17.39.33.69.43,1,.11.31.16.64.25.96.07.27.22.54.23.81.02.84.44,1.58.6,2.38.12.61.48,1.19.78,1.75.16.29.37.62.64.76.27.14.43.34.48.57.09.42.35.68.56.84.42.15.72.22.99.36.5.26.99.55,1.46.86.24.16.43.39.66.61h.64c.17.39.58.26.87.41.55.3,1.15.42,1.74.58.58.16,1.19.33,1.68.73.04.03.1.03.2.05.13-.05.29-.12.45-.18,1.15.42,2.29.78,3.54.93.45-.35,1.04.08,1.57-.1.09-.03.23.09.35.14.68.26,1.35.54,2.1.19.2-.09.52-.1.7,0,.33.19.67.14,1,.13.94-.03,1.88.08,2.83-.13.55-.12,1.15-.13,1.7-.23.63-.11,1.25-.08,1.88-.11.19,0,.39.08.57.13.9-.34,1.81-.6,2.86-.63.15-.18.33-.41.49-.61h.74c.35-.37.64-.67.91-.95.2,0,.35-.02.46-.02.22-.18.39-.35.6-.46.77-.4,1.49-.89,2.28-1.24.14-.06.27-.15.39-.24.32-.22.63-.45.96-.7.08-.25.17-.54.28-.92.43-.36.87-.83,1.4-1.15.56-.33,1.03-.72,1.45-1.18.73-.82,1.44-1.67,2.18-2.53v-1.06c.77-.73.94-1.73,1.25-2.64.3-.88.53-1.77,1.04-2.4.14-.68.26-1.23.36-1.79.08-.46.17-.91.2-1.38.07-1.07.11-2.15.17-3.23,0-.12.09-.24.11-.36.13-.71.4-1.41.06-2.05.06-.3.1-.53.14-.75.04-.23.08-.45.13-.72-.04-.09-.09-.24-.15-.37.13-.26.24-.49.34-.7,0-.32,0-.61,0-.9-.01-.29-.08-.57,0-.87.07-.27-.01-.55.11-.85.12-.27.06-.62.07-.96.1-.12.22-.26.28-.33-.12-.59-.4-1.06-.27-1.59.16-.63.28-1.26.3-1.7.19-.58.31-.96.44-1.36q-.28-.69-.13-1.36c.06-.25.12-.5.16-.75.14-.84.36-1.65.8-2.39-.02-.55.06-1.09.32-1.58.54-.99.73-2.08.84-3.27.18-.14.41-.33.64-.51.28-.83.3-1.76,1.1-2.3.14-.09.25-.29.28-.46.11-.68.7-1.14.82-1.81.02-.14.16-.3.29-.36.5-.21.6-.85,1.13-1.01.66-.95,1.51-1.7,2.42-2.4.48-.37.93-.77,1.44-1.2.05-.15.13-.37.19-.55.3-.46.83-.66,1.09-1.13.13-.23.33-.38.53-.52.38-.28.82-.44,1.15-.79.11-.11.33-.11.5-.18.12-.05.22-.12.34-.19-.13-.16-.23-.3-.35-.46.09-.2.13-.42.25-.57.58-.71,1.14-1.44,1.77-2.09.49-.5,1.1-.88,1.62-1.35.27-.24.6-.54.66-.85.1-.52.45-.75.82-.84.68-.16,1.05-.65,1.46-1.12.1-.11.18-.26.3-.33.44-.26.73-.65.98-1.09.23-.39.38-.86.89-1.03.46-.15.68-.52.88-.93.13-.28.29-.59.53-.75.73-.5,1.25-1.21,1.92-1.77.65-.54.96-1.29,1.33-2,.11-.22.16-.48.22-.64.31-.23.67-.24.79-.56-.05-.11-.09-.2-.12-.26.74-.79,1.22-1.69,1.67-2.81.04-.05.21-.22.37-.4.21-.31,0-.75.29-1,.32-.27.22-.71.45-1.01.22-.29.44-.58.63-.84-.05-.42-.09-.83-.12-1.09.27-.46.54-.78.64-1.13.15-.58.41-1.1.61-1.61.08-.55.16-1.06.23-1.54.22-.31.43-.61.62-.88v-.72c.34-.64.5-1.29.48-1.96.51-.47.45-1.22.88-1.71.03-.63.4-1.16.53-1.76.14-.63.15-1.29.21-1.87.21-.44.4-.83.59-1.21-.19-.24-.19-.48-.09-.68.12-.06.19-.1.29-.15.04-.7.09-1.4.14-2.1,0-.1.11-.18.13-.28.16-.7.39-1.4.35-2.13-.01-.19-.04-.39.02-.55.28-.8.35-1.63.29-2.46-.05-.69.09-1.37.22-2.02.14-.7.21-1.42.41-2.11.06-.23.07-.51-.09-.77-.09-.14-.11-.39-.04-.53.24-.51.13-1.04.14-1.56,0-.81.28-1.61.17-2.43,0-.05.02-.1.03-.15.14-.58.28-1.15.28-1.75,0-.55.14-1.06.48-1.53-.38-.94-.12-1.95-.28-2.93-.16-.96.03-1.98.06-2.97-.15-.45-.3-.91-.44-1.34.21-.69.38-1.34.33-2.03-.02-.28.04-1.18.08-1.41.15-.81.18-1.62-.09-2.4-.13-.38-.35-.72-.52-1.05.3-.53.62-.99.06-1.46-.03-.02.01-.11-.01-.15-.28-.55-.1-1.14-.15-1.52-.21-.46-.38-.76-.49-1.07-.19-.56-.22-1.2-.53-1.67-.35-.52-.42-1.1-.62-1.59-.44-.38-.88-.68-1.31-.79-.38-.55-.51-1.17-1.22-1.38-.47.66-.95,1.33-1.44,2.02.14.83-.25,1.54-.59,2.26-.07.43-.05.96-.31,1.25-.46.52-.54,1.21-.98,1.68.28.42.59.73.35,1.3-.17.4-.05.92-.21,1.37-.02.05-.02.13,0,.16.33.37.11.76-.02,1.1-.18.47-.12,1.06-.62,1.36v.75c.46.82.48.88-.14,1.98v.76c.13.19.23.33.33.47-.12.35-.23.67-.33.93.24.52.2,1.04.09,1.51-.16.69-.32,1.36-.27,2.07.05.74-.05,1.45-.32,2.14-.07.17-.12.33-.19.52.11.13.27.24.3.37.14.6.33,1.2.35,1.81.02,1.1-.08,2.2-.12,3.21-.15.29-.25.5-.32.62-.06,1.06-.08,2.04-.2,3-.09.73-.1,1.51-.54,2-.1.51-.16.89-.25,1.27-.17.75-.34,1.5-.65,2.2-.08.18-.23.44-.38.46-.4.05-.6.41-.96.48-.16.4-.32.78-.42,1.02-.68.66-1.27,0-1.8.15-.62-.42-.77-1.06-1.07-1.59-.01-.69.09-1.38-.18-2.03-.14-.33-.13-.66-.15-1-.02-.49-.06-.98-.09-1.57.15-.16.38-.41.59-.63q-.16-.55-.02-1.24c.09-.45.29-.89.01-1.26.16-.83.56-1.53.47-2.34-.02-.16-.03-.33,0-.48.23-.89.34-1.79.31-2.7,0-.26.02-.5.12-.76.11-.27.08-.64,0-.93-.15-.5-.11-.94,0-1.44.1-.45.38-.91.07-1.42-.1-.17.05-.5.08-.75.01-.1.08-.26.04-.29-.33-.28.19-.64-.11-.9.22-.94.28-1.93.73-2.7-.11-.52-.26-.95-.27-1.37,0-.37.18-.74.23-1.12.09-.64.15-1.29.22-1.93,0-.05.02-.13,0-.16-.26-.3-.13-.66-.15-.99-.05-1.11.27-2.2.16-3.31-.02-.21,0-.43,0-.63.11-.22.22-.42.33-.63v-.7c.11-.14.21-.26.32-.39-.33-1.25-.11-2.52-.18-3.7.15-.31.29-.53.37-.77.11-.31.31-.67.23-.95-.11-.4-.02-.74.03-1.11.02-.13.04-.28,0-.4-.27-.8-.11-1.62-.15-2.43,0-.2.05-.41.1-.61.19-.81.34-1.61-.05-2.25.06-.47.1-.8.15-1.17.13-.26.28-.55.44-.86-.11-.21-.21-.41-.33-.63,0-.41.07-.86-.01-1.26-.21-1-.17-2.02-.29-3.02-.03-.29.06-.62.16-.91.11-.32-.14-.57-.11-.89.06-.77-.02-1.55-.06-2.33,0-.15-.1-.29-.1-.3.06-.35.1-.57.13-.78-.27-.25-.6-.38-.66-.76-.1-.62-.44-1.15-.69-1.71-.12-.25-.23-.51-.29-.65-.61-.79-1.15-1.49-1.77-2.31-.19-.02-.52-.11-.85-.09-.33.02-.65.14-.94.21-.39.53-1.09.44-1.5.86-.32.38-.61.82-1.02,1.08-.63.4-.93.99-1.25,1.62-.28.54-.37,1.21-.86,1.51-.25,1.06-.77,1.99-.53,2.98-.14.27-.25.47-.34.65,0,1.43-.49,2.65-1.33,3.74.2.43.38.82.55,1.19-.25.36-.42.69-.23,1.09-.09.17-.18.35-.27.52-.05.45.08.9-.16,1.33-.06.11,0,.31.06.45.2.47.06.86-.25,1.22-.1.12-.21.23-.28.3.05.44.11.82.13,1.21.07.89-.18,1.75-.36,2.61-.05.25-.1.5-.12.76-.01.16.06.36-.02.47-.17.27-.12.55-.15.84-.03.31-.15.61-.14.91.04.83-.26,1.57-.5,2.35.15.31.3.62.46.95-.2.34-.4.67-.6,1.01.09.22.19.46.27.7.1.27-.02.49-.11.74-.06.18,0,.41.06.61.07.27.18.53.27.8-.23.39-.46.76-.67,1.11.29.56.1,1.13.18,1.69.09.1.19.22.35.41-.11.29-.34.61-.34.94,0,.38.18.75.13,1.15,0,.02,0,.06-.02.07-.2.2-.13.45-.13.68,0,.71-.22,1.36-.43,2.06.34.43-.06.78-.16,1.07.12.7.23,1.31.31,1.82-.15.29-.38.53-.32.64.16.34-.17.64,0,.95.09.1.17.2.22.25-.26.41-.51.8-.74,1.15,0,.4.04.72.13,1.06.11.44-.06.92-.11,1.38-.13,1.2-.14,2.41-.19,3.58-.17.33-.32.63-.48.94v.62c-.37.62-.7,1.17-1.07,1.78h-.6c-.43.39-.73.85-1.28.95-.83-.22-1.33-.9-1.97-1.31-.08-.78-.18-.98-.58-1.42-.16-.43-.36-.76-.39-1.1-.09-.93-.36-1.81-.61-2.5.05-.45.13-.74.11-1.01-.04-.38-.19-.75-.22-1.13-.04-.57-.1-1.16,0-1.71.07-.42.07-.83.05-1.24,0-.09-.04-.17-.03-.26.07-.47.15-.92-.08-1.38-.07-.15-.08-.42,0-.54.22-.33.13-.67.14-1,.01-.96,0-1.91,0-2.83.12-.22.22-.41.32-.6,0-.18,0-.36,0-.55.05-.95-.19-1.94.46-2.8.07-.1-.05-.34-.07-.52-.04-.28-.06-.57-.08-.76.14-.27.24-.46.35-.67-.09-.45.12-.97-.17-1.44.12-.57.24-1.14.36-1.69-.02-.25-.04-.5-.05-.73.14-.17.25-.3.28-.34.07-1.48.14-2.82.21-4.16,0-.11,0-.21,0-.27.13-.25.24-.46.31-.61.04-1.93-.2-3.84.63-5.54-.17-.55-.31-1.04-.46-1.53.11-.21.21-.41.32-.62.05-.87.11-1.73.14-2.59.02-.48,0-.96,0-1.44.1-.12.21-.24.32-.37-.03-.33.06-.65-.13-.99-.1-.18-.1-.52,0-.7.2-.34.12-.67.13-1,.02-.51-.11-1.05.04-1.51.14-.42.07-.75-.03-1.02.06-.29.13-.48.15-.68.05-.7-.09-1.41.15-2.11.07-.2-.04-.46-.08-.69-.09-.51-.25-1-.24-1.53,0-.49.14-1-.13-1.48-.06-.11.02-.3.04-.46.03-.18.09-.35.1-.53.01-.48,0-.96,0-1.43-.1-.19-.19-.37-.28-.55.1-.2.2-.41.28-.57-.23-.46-.44-.88-.65-1.3.14-.94-.22-1.79-.47-2.66-.21-.74-.41-1.49-.46-2.25-.03-.47-.12-.91-.29-1.35-.3-.79-.57-1.58-.8-2.39-.22-.76-.59-1.38-1.29-1.78q-.19-.69-.77-.98c-.08.04-.14.1-.21.1-.1,0-.21-.01-.3-.06-.66-.39-1.37-.47-2.1-.36-.37.16-.74.37-1.13.41-.42.05-.73.22-1.03.49-.37.33-.77.61-1.13.89-.3.93-1.05,1.47-1.68,2.13.06.2.13.42.19.64h-.09c-.04.36-.08.71-.12,1.07-.21.35-.42.7-.61,1.02.08.32.14.6.2.83-.2.22-.36.4-.49.54-.04.43.05.83-.16,1.2-.09.17-.08.41-.08.61,0,.22.1.45.06.65-.16.75-.22,1.52-.54,2.23-.15.33-.28.66-.4.96.17.26.31.5.43.69-.19.51-.16.96.04,1.41-.08.16-.2.31-.24.48-.04.19-.09.48,0,.58.32.33.29.64.08.99-.07.12-.07.29-.11.43.09.2.19.41.23.5-.07.48-.12.84-.19,1.28-.06.11-.16.29-.29.53.07.51.14,1.07.22,1.66.08.05.18.12.31.21-.1.31-.33.64-.28.92.07.37-.12.62-.19.92-.05.2-.11.47-.02.62.22.33.09.66.14.96-.27.36-.45.76-.29,1.13.13.29.12.56.12.84,0,.45-.07.89-.06,1.33,0,.43.07.86.1,1.26-.27.44-.43.81-.22,1.33.14.35.32.78.07,1.27-.17.33-.01.81-.18,1.22-.06.14.01.36.08.52.14.35.07.66-.05.9.1.59.21,1.12.27,1.66.02.22-.08.45-.1.68-.03.29-.12.61-.03.86.22.57.11,1.15.14,1.72.02.4-.18.93-.4,1.38-.17.34-.28.71-.43,1.11.08.09.18.18.24.29.15.24.38.49.26.79-.2.51-.21,1,0,1.51.06.14.04.32,0,.47-.09.42-.21.84-.31,1.26-.09.35-.17.7-.17,1.07,0,.62.1,1.25-.13,1.87-.09.23-.01.52-.01.73.13.25.23.46.33.65-.41.5-.17,1.08-.31,1.61-.15.54-.14,1.13-.19,1.64-.13.14-.21.23-.2.22.09.64.04,1.16.05,1.67-.59.7-.25,1.32.13,1.93-.23.28-.37.58-.48.95-.15.52-.14,1.04-.13,1.56.01.37-.02.74-.18,1.07-.39.79-.46,1.63-.49,2.49-.02.52-.25,1.03-.38,1.55-.07.27-.05.57-.08.86-.03.31-.11.61-.15.91-.03.26,0,.51-.15.76-.11.16-.14.38-.17.58-.14.95-.6,1.75-1.22,2.46-.22.26-.52.45-.7.61v.68c-.55.85-1.11,1.65-2.18,1.84-.09-.03-.21-.06-.33-.1-.24-.09-.54-.12-.7-.29-.57-.6-1.13-1.22-1.32-2.14-.16-.14-.36-.31-.58-.51.12-.6-.23-1.04-.48-1.55.08-.7-.12-1.44.16-2.16.06-.16.07-.4,0-.55-.29-.64-.17-1.33-.27-1.99-.14-.86-.02-1.76.24-2.43-.05-.46-.19-.78-.09-1,.19-.42.1-.83.13-1.24.02-.24-.03-.49.01-.72.18-.95.17-.94,0-1.83-.04-.24.06-.5.08-.66-.03-.25-.13-.47-.06-.58.23-.38.19-.81.09-1.16-.13-.47-.14-.93-.12-1.4.03-.68.11-1.35.16-2-.17-.35-.43-.64-.31-1.04.15-.49.29-.98.46-1.46.18-.53.24-1.04.03-1.59-.1-.26-.13-.63-.01-.86.34-.66-.08-1.2-.12-1.56.08-.88.14-1.55.21-2.34-.17-.42-.16-.98-.02-1.55.09-.35.2-.7.22-1.05.04-.58-.01-1.17.02-1.76.03-.6.13-1.19.14-1.79,0-.3-.14-.61-.14-.91,0-.36-.11-.66-.27-.9.14-.63.29-1.22.41-1.82.07-.35.05-.74.18-1.06.18-.42.18-.77,0-1.2-.15-.37-.31-.81-.17-1.22.23-.65.14-1.3.14-1.95,0-.46.13-.86.29-1.27-.09-.28-.19-.56-.26-.86-.04-.15-.01-.32,0-.48.04-1.16-.03-2.31.13-3.47.22-1.57-.14-3.16-.14-4.74,0-.1-.08-.19-.08-.29,0-.52-.02-1.04,0-1.56.01-.36.17-.76.07-1.08-.18-.55-.1-1.09-.14-1.64-.05-.68-.03-1.37-.19-2.02-.09-.38-.04-.79-.18-1.14-.25-.6-.29-1.21-.27-1.84,0-.35.03-.69,0-1.04-.05-.54-.12-1.08-.34-1.57-.44-.98-.75-2.01-1.23-2.98-.15-.31-.27-.54-.61-.61-.28-.06-.44-.25-.53-.52-.06-.19-.14-.38-.21-.57-.6-.41-1.07-.95-1.61-1.42-.54-.48-1.13-.9-1.65-1.31h-1.33c-.9.27-1.22,1.15-2.03,1.16-.46.43-.84.85-1.24,1.25-.43.42-.79.91-1.15,1.34-.33.95-.65,1.87-.71,2.87-.19.22-.38.45-.66.78.09.36.21.83.32,1.3-.2.28-.41.58-.56.78.05.64.1,1.18.13,1.56-.21.45-.34.74-.47,1,.39.69-.41,1.41.15,2.04-.64.72-.75,1.56-.66,2.4-.13.16-.23.28-.31.37-.08.58.11,1.14-.16,1.67-.06.11.02.3.05.45.04.17.09.35.12.46-.2.32-.36.58-.52.82.13.25.23.45.34.66-.01.24.05.52-.05.71-.2.38-.13.69.03,1.04.13.28.21.57.28.76-.05.26-.11.44-.11.61-.01.77,0,1.54,0,2.32,0,.13-.01.27.03.39.07.22.17.43.27.64.11.23-.15.45,0,.71.1.18.02.47.02.71,0,1.65.02,3.3,0,4.95,0,.62-.1,1.25-.16,1.87,0,.02-.01.05-.02.07-.17.6-.24,1.21-.31,1.83-.08.71-.29,1.4-.44,2.12.1.2.21.43.29.6-.06.32-.16.58-.14.82.04.59-.11,1.13-.31,1.55.06.39.11.67.14.94.05.62-.04,1.24.14,1.88.12.44.14,1-.02,1.41-.18.46-.05.8.07,1.2-.26.32-.21.71-.17,1.06.04.36-.1.69-.11,1.04-.01.35-.2.7-.32,1.08.22.33.08.7-.08,1.05.12.33.23.64.32.92-.23.54-.39,1.08-.29,1.62.08.45.26.89.03,1.34.21.59-.13,1.07-.32,1.59.29.37.65.74.28,1.3-.06.09-.01.26-.01.39,0,.43,0,.85,0,1.2-.14.32-.26.58-.36.82.3.22.49.44.51.62-.11.59-.19,1.04-.28,1.53.03.08.13.2.12.31-.05.91-.11,1.83-.18,2.74,0,.12-.1.23-.16.34.11.23.21.44.29.59-.2.36-.39.7-.52.92-.08.49-.14.84-.2,1.28.15.34.22.74.03,1.2-.12.27-.13.67,0,.93.17.35.08.66.12.97-.14.08-.24.14-.32.19.03,1.24-.09,2.39-.56,3.29-.09.74-.22,1.31-.22,1.88,0,.64-.11,1.23-.32,1.82-.13.36-.16.75-.22,1.07-.5,1.05-.68,2.13-.94,3.08-.2.16-.32.25-.45.35v.94c-.36.33-.45.48-.5,1.2-.46.62-.84,1.19-1.28,1.69-.45.51-.89,1.05-1.53,1.36-.39.19-.8.35-1.16.58-.39.25-.73.58-1.11.88-.16-.03-.31-.05-.46-.08-.18-.03-.38-.14-.52-.08-1.04.4-2.12.34-3.18.29-.78-.04-1.52-.27-1.9-.99-.67-.29-1.36-.45-1.87-.84-.5-.38-1.01-.72-1.43-.93-.38-.52-.67-.92-1.01-1.4-.07-.72-.39-1.48-.59-2.27-.12-.44-.32-.81-.65-1.12-.23-.22-.47-.47-.59-.76-.38-.86-.71-1.75-1.07-2.63-.17-.4-.35-.8-.53-1.19-.12-.25-.35-.49-.37-.74-.03-.39-.22-.68-.35-1.02-.13-.33-.18-.69-.3-1.03-.15-.44-.35-.85-.48-1.29-.13-.45-.04-.92-.16-1.39-.17-.65.1-1.32.28-1.97-.24-.83-.34-1.72-.89-2.35-.07-.32-.14-.57-.19-.83-.07-.38-.13-.76-.2-1.14-.06-.33-.05-.7-.21-.97-.29-.47-.31-.91-.08-1.38-.36-.38-.75-.73-.67-1.3-.35-.46-.25-1.08-.62-1.56-.49-.63-.87-1.34-1.31-2.03v-.72c-.36-.26-.67-.49-.98-.72-.48-.35-.96-.7-1.6-.68-.11,0-.23-.09-.34-.15-.7-.32-1.37-.71-2.19-.65-.15.01-.31-.02-.45-.08-.54-.24-1.1-.29-1.73-.2-.24.63-.76.91-1.39.94-.74.7-1.35,1.44-1.86,2.23.09.25.15.45.22.64-.13.16-.24.3-.35.43.07.16.13.3.2.44-.22.42-.25.82-.07,1.28.11.27.1.6-.06.92-.21.41-.35.85-.55,1.35.16.29.31.66.06,1.04.16.37.17.74-.06,1.11.16.26.33.52.49.77.04.64.02,1.26.13,1.89.13.71.04,1.45.16,2.19.08.46.16.99-.12,1.47-.07.11,0,.31.02.46.03.18.13.35.11.52-.04.6.15,1.21-.14,1.79-.05.1-.04.3.02.38.19.24.13.51.12.76-.05.75-.13,1.51-.21,2.32-.21.27-.32.64-.26,1.05.04.26-.04.97-.09,1.24-.1.5-.34.98-.2,1.52.08.3.12.61.16.82-.15.3-.26.51-.35.68v2.57c-.1.2-.19.38-.25.49.13.61.24,1.15.34,1.63-.15.37-.29.69-.41,1.02-.22.61-.16,1.24-.16,1.87,0,.43-.11.81-.35,1.16-.11.17-.2.35-.29.5.11.3.21.56.3.83-.22.41-.18.84-.07,1.28.05.19.03.4.02.6-.01.18-.11.36-.09.53.11.82-.34,1.64-.01,2.46.04.09.03.24-.02.31-.21.23-.13.51-.13.76,0,.78-.07,1.57.23,2.33.11.03.23.05.42.1-.04.25-.08.5-.11.75-.02.18-.12.39-.05.53.21.48.11.98.16,1.48.17.12.33.24.53.38-.18.14-.31.25-.49.4Z"/>
  <path class="cls-2" d="M82.05,154.66c.18-.15.32-.26.49-.4-.21-.15-.36-.26-.53-.38-.05-.5.05-1-.16-1.48-.06-.14.03-.35.05-.53.03-.25.07-.5.11-.75-.19-.04-.31-.07-.42-.1-.3-.76-.24-1.55-.23-2.33,0-.26-.08-.53.13-.76.05-.06.06-.22.02-.31-.33-.82.12-1.64.01-2.46-.02-.17.08-.35.09-.53.01-.2.03-.41-.02-.6-.11-.44-.15-.87.07-1.28-.1-.27-.19-.53-.3-.83.08-.15.17-.33.29-.5.24-.35.35-.73.35-1.16,0-.63-.07-1.26.16-1.87.12-.33.26-.65.41-1.02-.1-.48-.22-1.02-.34-1.63.06-.11.15-.29.25-.49v-2.57c.09-.17.19-.38.35-.68-.04-.21-.08-.52-.16-.82-.15-.54.1-1.02.2-1.52.05-.27.13-.99.09-1.24-.06-.41.05-.78.26-1.05.08-.81.16-1.56.21-2.32.02-.25.07-.52-.12-.76-.07-.08-.07-.28-.02-.38.29-.58.1-1.2.14-1.79.01-.17-.09-.34-.11-.52-.02-.15-.09-.35-.02-.46.28-.48.2-1.01.12-1.47-.12-.73-.03-1.48-.16-2.19-.12-.63-.1-1.25-.13-1.89-.16-.25-.32-.51-.49-.77.24-.37.22-.74.06-1.11.24-.38.09-.75-.06-1.04.2-.5.34-.94.55-1.35.16-.31.17-.65.06-.92-.18-.45-.15-.86.07-1.28-.06-.15-.13-.29-.2-.44.11-.14.22-.28.35-.43-.07-.2-.13-.39-.22-.64.51-.79,1.12-1.53,1.86-2.23.63-.03,1.15-.31,1.39-.94.63-.09,1.19-.04,1.73.2.14.06.3.09.45.08.82-.06,1.49.33,2.19.65.11.05.23.15.34.15.64-.01,1.12.33,1.6.68.31.23.62.46.98.72v.72c.44.69.82,1.4,1.31,2.03.37.48.27,1.1.62,1.56-.08.57.31.92.67,1.3-.23.47-.22.91.08,1.38.16.26.15.64.21.97.07.38.13.76.2,1.14.05.25.11.5.19.83.55.62.64,1.51.89,2.35-.18.64-.45,1.32-.28,1.97.12.47.03.94.16,1.39.13.44.33.86.48,1.29.11.34.17.7.3,1.03.13.33.32.63.35,1.02.02.26.25.49.37.74.19.39.37.79.53,1.19.36.87.69,1.76,1.07,2.63.13.28.36.54.59.76.33.32.54.68.65,1.12.21.79.53,1.55.59,2.27.34.48.63.88,1.01,1.4.41.21.93.55,1.43.93.51.39,1.2.55,1.87.84.37.71,1.12.95,1.9.99,1.06.05,2.15.12,3.18-.29.14-.06.35.05.52.08.15.03.3.05.46.08.37-.3.72-.63,1.11-.88.36-.23.77-.39,1.16-.58.64-.31,1.08-.85,1.53-1.36.44-.51.82-1.08,1.28-1.69.05-.71.13-.86.5-1.2v-.94c.13-.1.25-.19.45-.35.26-.95.45-2.03.94-3.08.06-.31.09-.71.22-1.07.22-.59.32-1.19.32-1.82,0-.57.13-1.13.22-1.88.47-.9.58-2.05.56-3.29.08-.05.19-.11.32-.19-.04-.31.05-.63-.12-.97-.12-.26-.11-.66,0-.93.2-.46.12-.86-.03-1.2.07-.43.13-.79.2-1.28.12-.22.31-.55.52-.92-.08-.16-.18-.36-.29-.59.05-.11.15-.22.16-.34.07-.91.13-1.83.18-2.74,0-.12-.09-.24-.12-.31.09-.49.17-.94.28-1.53-.02-.18-.22-.4-.51-.62.11-.24.22-.5.36-.82,0-.35,0-.78,0-1.2,0-.13-.05-.3.01-.39.36-.56.01-.93-.28-1.3.18-.52.52-1,.32-1.59.23-.45.05-.89-.03-1.34-.1-.54.06-1.08.29-1.62-.1-.27-.21-.58-.32-.92.16-.35.31-.71.08-1.05.12-.38.31-.73.32-1.08.01-.35.15-.68.11-1.04-.04-.35-.1-.74.17-1.06-.12-.4-.25-.75-.07-1.2.16-.42.15-.97.02-1.41-.18-.63-.09-1.25-.14-1.88-.02-.28-.08-.55-.14-.94.2-.42.35-.96.31-1.55-.02-.25.08-.5.14-.82-.08-.17-.19-.4-.29-.6.16-.72.36-1.42.44-2.12.07-.62.14-1.23.31-1.83,0-.02.02-.05.02-.07.06-.62.15-1.24.16-1.87.02-1.65,0-3.3,0-4.95,0-.24.08-.52-.02-.71-.15-.27.11-.48,0-.71-.1-.21-.2-.42-.27-.64-.04-.12-.03-.26-.03-.39,0-.77,0-1.54,0-2.32,0-.17.06-.35.11-.61-.07-.19-.15-.48-.28-.76-.16-.35-.23-.66-.03-1.04.1-.19.04-.47.05-.71-.11-.21-.21-.41-.34-.66.15-.24.31-.5.52-.82-.03-.11-.08-.29-.12-.46-.03-.15-.11-.34-.05-.45.27-.53.08-1.09.16-1.67.08-.09.18-.22.31-.37-.09-.85.02-1.68.66-2.4-.56-.63.24-1.35-.15-2.04.12-.26.26-.56.47-1-.03-.38-.08-.92-.13-1.56.15-.21.36-.5.56-.78-.12-.47-.23-.94-.32-1.3.28-.33.47-.56.66-.78.06-1,.38-1.92.71-2.87.36-.43.72-.92,1.15-1.34.4-.4.78-.82,1.24-1.25.81,0,1.13-.89,2.03-1.16h1.33c.52.41,1.11.83,1.65,1.31.53.47,1,1.01,1.61,1.42.07.19.15.38.21.57.08.27.25.46.53.52.35.07.46.3.61.61.48.97.8,2,1.23,2.98.22.5.29,1.04.34,1.57.03.34.01.69,0,1.04-.02.63.02,1.24.27,1.84.15.35.09.76.18,1.14.15.65.14,1.35.19,2.02.04.54-.04,1.09.14,1.64.1.32-.06.72-.07,1.08-.01.52,0,1.04,0,1.56,0,.1.08.19.08.29,0,1.58.35,3.17.14,4.74-.16,1.16-.09,2.31-.13,3.47,0,.16-.03.33,0,.48.07.3.18.58.26.86-.15.41-.29.81-.29,1.27,0,.65.09,1.3-.14,1.95-.14.4.02.84.17,1.22.17.42.17.77,0,1.2-.14.32-.11.71-.18,1.06-.12.6-.27,1.19-.41,1.82.16.24.27.54.27.9,0,.3.14.61.14.91-.02.6-.12,1.19-.14,1.79-.03.58.02,1.17-.02,1.76-.02.35-.14.7-.22,1.05-.14.57-.16,1.13.02,1.55-.07.79-.13,1.46-.21,2.34.05.36.46.9.12,1.56-.12.23-.08.6.01.86.21.55.15,1.06-.03,1.59-.17.48-.31.97-.46,1.46-.12.4.13.69.31,1.04-.06.65-.14,1.32-.16,2-.02.46-.01.92.12,1.4.1.34.14.77-.09,1.16-.07.12.03.33.06.58-.02.16-.12.42-.08.66.16.88.17.88,0,1.83-.04.23,0,.48-.01.72-.03.41.06.82-.13,1.24-.1.22.04.54.09,1-.26.67-.38,1.56-.24,2.43.11.66-.02,1.35.27,1.99.07.15.07.39,0,.55-.28.72-.08,1.46-.16,2.16.25.51.6.96.48,1.55.22.19.42.37.58.51.2.91.75,1.54,1.32,2.14.16.17.46.2.7.29.12.04.24.07.33.1,1.07-.19,1.64-.99,2.18-1.84v-.68c.19-.16.48-.35.7-.61.62-.71,1.07-1.51,1.22-2.46.03-.2.06-.42.17-.58.16-.24.13-.5.15-.76.03-.31.12-.61.15-.91.03-.29,0-.59.08-.86.14-.52.37-1.03.38-1.55.03-.87.1-1.7.49-2.49.16-.32.19-.69.18-1.07-.01-.52-.02-1.03.13-1.56.1-.36.25-.67.48-.95-.39-.62-.73-1.23-.13-1.93-.01-.51.03-1.04-.05-1.67,0,.01.07-.08.2-.22.05-.51.04-1.1.19-1.64.15-.52-.09-1.11.31-1.61-.1-.19-.2-.4-.33-.65,0-.21-.07-.5.01-.73.23-.62.13-1.25.13-1.87,0-.37.09-.72.17-1.07.1-.42.22-.84.31-1.26.03-.15.05-.34,0-.47-.21-.51-.2-.99,0-1.51.11-.29-.11-.54-.26-.79-.06-.11-.16-.2-.24-.29.15-.4.27-.77.43-1.11.22-.45.41-.98.4-1.38-.03-.57.08-1.15-.14-1.72-.09-.25,0-.57.03-.86.02-.23.13-.46.1-.68-.06-.53-.17-1.06-.27-1.66.12-.24.19-.55.05-.9-.07-.16-.14-.38-.08-.52.17-.41,0-.89.18-1.22.25-.48.07-.91-.07-1.27-.21-.53-.05-.9.22-1.33-.03-.4-.09-.83-.1-1.26,0-.44.06-.89.06-1.33,0-.28,0-.55-.12-.84-.16-.37.02-.76.29-1.13-.05-.3.08-.63-.14-.96-.09-.14-.03-.41.02-.62.07-.3.26-.55.19-.92-.05-.28.18-.61.28-.92-.13-.09-.23-.16-.31-.21-.08-.59-.15-1.15-.22-1.66.13-.24.23-.43.29-.53.06-.44.12-.79.19-1.28-.04-.09-.14-.3-.23-.5.03-.14.04-.3.11-.43.2-.36.24-.66-.08-.99-.1-.1-.05-.39,0-.58.04-.17.16-.32.24-.48-.2-.45-.23-.9-.04-1.41-.12-.19-.27-.43-.43-.69.13-.3.26-.63.4-.96.32-.71.39-1.48.54-2.23.04-.2-.06-.43-.06-.65,0-.21-.01-.44.08-.61.21-.38.12-.77.16-1.2.13-.14.29-.32.49-.54-.06-.24-.12-.51-.2-.83.19-.32.4-.67.61-1.02.04-.35.08-.71.12-1.07h.09c-.07-.22-.13-.44-.19-.64.64-.67,1.39-1.21,1.68-2.13.36-.28.76-.56,1.13-.89.3-.27.61-.44,1.03-.49.39-.05.76-.25,1.13-.41.73-.11,1.44-.02,2.1.36.08.05.2.06.3.06.07,0,.14-.06.21-.1q.59.29.77.98c.71.41,1.08,1.02,1.29,1.78.23.81.5,1.61.8,2.39.17.44.25.88.29,1.35.05.77.25,1.51.46,2.25.24.87.6,1.72.47,2.66.21.42.42.83.65,1.3-.08.16-.18.37-.28.57.09.18.19.36.28.55,0,.48,0,.96,0,1.43,0,.18-.07.35-.1.53-.02.15-.1.35-.04.46.27.48.14.99.13,1.48,0,.53.15,1.02.24,1.53.04.23.14.49.08.69-.24.7-.1,1.41-.15,2.11-.02.2-.08.4-.15.68.11.28.17.6.03,1.02-.15.46-.02,1-.04,1.51-.01.33.07.67-.13,1-.11.18-.1.52,0,.7.2.34.1.67.13.99-.11.13-.21.25-.32.37,0,.48.02.96,0,1.44-.04.86-.09,1.73-.14,2.59-.11.21-.22.41-.32.62.14.48.29.97.46,1.53-.83,1.71-.59,3.61-.63,5.54-.08.15-.19.36-.31.61,0,.05,0,.16,0,.27-.07,1.34-.13,2.68-.21,4.16-.03.03-.14.17-.28.34.02.23.04.48.05.73-.12.55-.24,1.12-.36,1.69.29.46.08.98.17,1.44-.11.22-.21.4-.35.67.02.19.05.48.08.76.02.18.15.42.07.52-.65.86-.41,1.85-.46,2.8,0,.19,0,.37,0,.55-.1.19-.2.38-.32.6,0,.91,0,1.87,0,2.83,0,.33.08.67-.14,1-.09.13-.08.39,0,.54.23.46.16.91.08,1.38-.01.08.03.17.03.26.01.42.02.82-.05,1.24-.09.56-.04,1.14,0,1.71.03.38.18.75.22,1.13.03.27-.05.55-.11,1.01.26.7.53,1.57.61,2.5.03.34.23.67.39,1.1.4.44.49.65.58,1.42.64.41,1.14,1.08,1.97,1.31.55-.1.85-.57,1.28-.95h.6c.36-.61.69-1.16,1.07-1.78v-.62c.16-.31.31-.61.48-.94.05-1.17.06-2.39.19-3.58.05-.46.22-.94.11-1.38-.09-.34-.12-.66-.13-1.06.22-.35.47-.74.74-1.15-.05-.05-.13-.15-.22-.25-.18-.31.15-.61,0-.95-.05-.11.17-.35.32-.64-.09-.51-.19-1.11-.31-1.82.1-.29.51-.64.16-1.07.21-.69.44-1.34.43-2.06,0-.23-.07-.48.13-.68.02-.02.02-.05.02-.07.05-.4-.13-.77-.13-1.15,0-.32.22-.64.34-.94-.16-.19-.26-.31-.35-.41-.08-.57.12-1.13-.18-1.69.21-.35.44-.72.67-1.11-.09-.27-.2-.53-.27-.8-.05-.2-.12-.43-.06-.61.09-.25.2-.48.11-.74-.09-.24-.19-.47-.27-.7.2-.34.4-.67.6-1.01-.16-.32-.31-.64-.46-.95.24-.78.54-1.53.5-2.35-.01-.3.11-.61.14-.91.03-.28-.02-.57.15-.84.07-.11,0-.31.02-.47.02-.26.06-.51.12-.76.18-.86.43-1.72.36-2.61-.03-.39-.08-.77-.13-1.21.07-.07.18-.18.28-.3.31-.36.45-.75.25-1.22-.06-.14-.12-.34-.06-.45.24-.43.1-.88.16-1.33.09-.17.18-.35.27-.52-.18-.4-.01-.73.23-1.09-.17-.37-.36-.77-.55-1.19.84-1.09,1.32-2.32,1.33-3.74.09-.17.2-.38.34-.65-.24-.99.28-1.92.53-2.98.49-.31.58-.97.86-1.51.33-.63.62-1.21,1.25-1.62.41-.26.7-.7,1.02-1.08.41-.42,1.11-.34,1.5-.86.3-.07.62-.19.94-.21.33-.02.66.07.85.09.63.82,1.16,1.52,1.77,2.31.06.14.18.39.29.65.26.56.6,1.08.69,1.71.06.38.4.51.66.76-.04.21-.07.44-.13.78,0,.01.09.15.1.3.04.78.12,1.56.06,2.33-.02.33.22.57.11.89-.1.29-.19.61-.16.91.12,1.01.07,2.02.29,3.02.09.41.01.85.01,1.26.11.22.22.42.33.63-.16.31-.31.61-.44.86-.05.37-.09.7-.15,1.17.39.63.24,1.44.05,2.25-.05.2-.11.41-.1.61.03.81-.13,1.63.15,2.43.04.12.02.27,0,.4-.05.37-.14.71-.03,1.11.08.27-.12.64-.23.95-.09.24-.22.47-.37.77.07,1.18-.16,2.45.18,3.7-.11.13-.21.25-.32.39v.7c-.11.21-.22.42-.33.63,0,.2-.02.41,0,.63.11,1.11-.21,2.2-.16,3.31.02.33-.11.69.15.99.03.03.01.1,0,.16-.07.64-.13,1.29-.22,1.93-.06.38-.24.75-.23,1.12,0,.43.16.85.27,1.37-.45.77-.51,1.75-.73,2.7.3.26-.22.63.11.9.04.03-.03.19-.04.29-.04.26-.19.58-.08.75.31.51.03.98-.07,1.42-.11.5-.15.95,0,1.44.09.29.12.66,0,.93-.1.26-.13.51-.12.76.02.92-.08,1.81-.31,2.7-.04.15-.02.32,0,.48.09.81-.31,1.5-.47,2.34.28.36.08.81-.01,1.26q-.15.69.02,1.24c-.21.22-.44.47-.59.63.04.59.07,1.08.09,1.57.02.34,0,.66.15,1,.27.64.16,1.34.18,2.03.3.54.45,1.17,1.07,1.59.53-.15,1.12.51,1.8-.15.1-.24.25-.62.42-1.02.36-.07.56-.43.96-.48.14-.02.3-.28.38-.46.31-.7.47-1.45.65-2.2.09-.38.15-.76.25-1.27.44-.5.45-1.28.54-2,.12-.96.13-1.94.2-3,.06-.13.17-.33.32-.62.04-1.01.14-2.11.12-3.21-.01-.61-.2-1.21-.35-1.81-.03-.14-.19-.24-.3-.37.07-.18.12-.35.19-.52.27-.69.37-1.4.32-2.14-.05-.71.11-1.38.27-2.07.11-.47.14-.99-.09-1.51.09-.26.2-.58.33-.93-.09-.13-.2-.28-.33-.47v-.76c.62-1.1.6-1.15.14-1.98v-.75c.49-.3.44-.89.62-1.36.13-.33.35-.72.02-1.1-.03-.03-.02-.11,0-.16.16-.45.04-.97.21-1.37.24-.57-.07-.88-.35-1.3.44-.47.52-1.16.98-1.68.26-.29.24-.82.31-1.25.34-.72.73-1.43.59-2.26.5-.7.97-1.37,1.44-2.02.7.21.84.83,1.22,1.38.44.1.88.41,1.31.79.2.49.26,1.07.62,1.59.31.46.34,1.11.53,1.67.1.31.27.6.49,1.07.05.38-.13.97.15,1.52.02.04-.02.13.01.15.56.47.25.93-.06,1.46.16.33.39.67.52,1.05.27.78.24,1.59.09,2.4-.04.23-.1,1.12-.08,1.41.06.68-.12,1.34-.33,2.03.14.42.29.88.44,1.34-.03.99-.22,2.01-.06,2.97.16.98-.1,1.99.28,2.93-.34.46-.48.98-.48,1.53,0,.6-.15,1.18-.28,1.75-.01.05-.04.1-.03.15.11.82-.16,1.61-.17,2.43,0,.52.1,1.05-.14,1.56-.07.15-.05.4.04.53.16.26.15.54.09.77-.2.69-.27,1.41-.41,2.11-.13.65-.27,1.33-.22,2.02.06.83-.01,1.66-.29,2.46-.06.17-.03.37-.02.55.04.74-.19,1.43-.35,2.13-.02.1-.12.18-.13.28-.05.7-.1,1.4-.14,2.1-.1.05-.17.09-.29.15-.1.21-.1.44.09.68-.19.38-.38.77-.59,1.21-.06.58-.07,1.24-.21,1.87-.13.59-.49,1.13-.53,1.76-.43.49-.37,1.24-.88,1.71.02.67-.14,1.32-.48,1.96v.72c-.19.27-.4.57-.62.88-.07.48-.15.99-.23,1.54-.2.5-.46,1.03-.61,1.61-.1.36-.37.67-.64,1.13.03.25.08.66.12,1.09-.19.26-.41.55-.63.84-.23.3-.13.74-.45,1.01-.3.25-.09.7-.29,1-.16.17-.33.35-.37.4-.46,1.12-.94,2.02-1.67,2.81.03.07.07.15.12.26-.12.32-.48.34-.79.56-.05.16-.1.42-.22.64-.37.72-.67,1.46-1.33,2-.67.56-1.19,1.27-1.92,1.77-.24.16-.4.48-.53.75-.19.42-.42.78-.88.93-.51.17-.66.64-.89,1.03-.25.44-.54.82-.98,1.09-.12.07-.2.22-.3.33-.41.47-.77.96-1.46,1.12-.38.09-.73.31-.82.84-.06.32-.39.61-.66.85-.52.47-1.13.85-1.62,1.35-.64.65-1.2,1.38-1.77,2.09-.12.15-.16.37-.25.57.12.15.22.29.35.46-.12.07-.23.15-.34.19-.17.07-.39.07-.5.18-.33.35-.78.52-1.15.79-.2.15-.4.3-.53.52-.26.47-.79.66-1.09,1.13-.06.19-.14.4-.19.55-.51.43-.96.83-1.44,1.2-.91.7-1.76,1.45-2.42,2.4-.53.17-.63.8-1.13,1.01-.13.05-.26.22-.29.36-.12.67-.72,1.13-.82,1.81-.03.17-.14.37-.28.46-.81.54-.82,1.48-1.1,2.3-.23.18-.46.37-.64.51-.11,1.19-.3,2.28-.84,3.27-.26.49-.34,1.03-.32,1.58-.44.74-.65,1.55-.8,2.39-.04.25-.1.5-.16.75q-.15.67.13,1.36c-.13.4-.26.79-.44,1.36-.01.44-.14,1.07-.3,1.7-.13.53.15,1,.27,1.59-.06.07-.18.21-.28.33-.02.34.04.69-.07.96-.13.29-.04.57-.11.85-.08.3,0,.58,0,.87.01.29,0,.59,0,.9-.1.21-.22.44-.34.7.05.13.11.27.15.37-.05.26-.08.49-.13.72-.04.23-.09.45-.14.75.34.64.07,1.34-.06,2.05-.02.12-.11.24-.11.36-.06,1.08-.1,2.15-.17,3.23-.03.46-.12.92-.2,1.38-.1.56-.22,1.11-.36,1.79-.5.63-.74,1.53-1.04,2.4-.31.91-.48,1.91-1.25,2.64v1.06c-.74.86-1.44,1.71-2.18,2.53-.42.47-.9.86-1.45,1.18-.54.31-.98.79-1.4,1.15-.12.38-.21.67-.28.92-.34.25-.65.48-.96.7-.13.09-.25.18-.39.24-.79.36-1.51.84-2.28,1.24-.21.11-.37.28-.6.46-.11,0-.26.01-.46.02-.27.28-.56.58-.91.95h-.74c-.16.2-.35.43-.49.61-1.05.03-1.95.3-2.86.63-.18-.04-.38-.14-.57-.13-.62.03-1.24,0-1.88.11-.55.1-1.15.1-1.7.23-.95.21-1.89.1-2.83.13-.33.01-.67.06-1-.13-.18-.1-.5-.1-.7,0-.75.35-1.42.07-2.1-.19-.12-.04-.26-.17-.35-.14-.53.18-1.12-.25-1.57.1-1.25-.15-2.39-.5-3.54-.93-.15.06-.32.13-.45.18-.1-.02-.16-.02-.2-.05-.49-.4-1.1-.58-1.68-.73-.6-.16-1.19-.28-1.74-.58-.29-.16-.7-.03-.87-.41h-.64c-.23-.22-.42-.45-.66-.61-.47-.31-.96-.59-1.46-.86-.27-.14-.57-.21-.99-.36-.21-.15-.46-.41-.56-.84-.05-.23-.21-.43-.48-.57-.28-.14-.49-.47-.64-.76-.3-.57-.66-1.14-.78-1.75-.16-.81-.58-1.54-.6-2.38,0-.27-.15-.54-.23-.81-.09-.32-.14-.65-.25-.96-.11-.31-.26-.61-.43-1,.02-.05.12-.22.11-.39-.01-.25-.14-.5-.14-.75,0-.25.12-.5.14-.75.02-.34-.03-.66-.13-1-.17-.59-.2-1.22-.35-1.81-.2-.83-.14-1.67-.16-2.47-.14-.29-.5-.38-.47-.81.13-.15.3-.35.47-.54-.08-.24-.16-.49-.23-.7.03-.26.07-.51.08-.76,0-1.17,0-2.34,0-3.51,0-.5-.06-1,.16-1.47.3-.64.11-1.26-.06-1.88-.2-.73-.09-1.47-.06-2.2,0-.22.07-.47.18-.66.36-.62.23-1.22,0-1.84-.07-.19-.13-.46-.04-.61.2-.36.11-.72.14-1.08.05-.6.13-1.19.16-1.79.03-.58-.04-1.18.02-1.76.05-.44.1-.87.09-1.31,0-.05.06-.11.04-.14-.41-.72.1-1.28.32-1.92-.1-.2-.21-.43-.34-.68.11-.23.21-.46.27-.58.27-1.3.18-2.51.33-3.7.03-.21-.08-.43-.13-.72-.1-.1-.24-.26-.39-.42.21-.31.42-.62.61-.9-.08-.29-.1-.53-.2-.73-.19-.35-.16-.69-.05-1.06.14-.46.15-.92-.07-1.42.08-.21.22-.46.28-.73.11-.5-.13-.95-.26-1.42-.24-.93-.86-1.63-1.35-2.41-.12-.18-.39-.26-.54-.43-.48-.58-1.15-.88-1.77-1.27-.54-.34-1.01-.83-1.72-.79-.44-.37-1.03-.43-1.5-.79-.34-.27-.84-.35-1.28-.47-.61-.16-1.11-.43-1.53-.92-.28-.33-.65-.63-1.03-.82-.52-.26-.93-.65-1.4-.98-.18-.12-.3-.34-.48-.46-.17-.1-.41-.09-.58-.19-.29-.17-.58-.37-.81-.61-.62-.64-1.35-1.16-2.05-1.71-.29-.23-.58-.48-.87-.71-.38-.31-.74-.67-1.16-.93-.49-.31-.9-.7-1.34-1.07-1.24-1.04-2.35-2.22-3.49-3.35-.13-.13-.32-.24-.38-.4-.21-.51-.61-.84-1.02-1.17-.16-.13-.36-.28-.44-.46-.3-.7-.82-1.19-1.44-1.61-.09-.06-.12-.23-.16-.32Z"/>
</svg>