<?xml version="1.0" encoding="UTF-8"?>
<svg id="Livello_1" data-name="Livello 1" xmlns="http://www.w3.org/2000/svg" viewBox="0 0 489 489">
  <defs>
    <style>
      .cls-1 {
        fill: #000;
      }

      .cls-1, .cls-2 {
        stroke-width: 0px;
      }

      .cls-2 {
        fill: #fff;
      }
    </style>
  </defs>
  <path class="cls-1" d="M395.43,79.89c1.05.22,2.11.44,3.16.65.01-.09.03-.18.04-.27.34.28.65.6,1.01.85,1.97,1.35,4.05,2.58,5.12,4.87.06.13.25.29.37.29,1.39,0,1.71,1.24,2.42,2.04.47.54,1.01,1.03,1.41,1.62.31.46.44,1.03.69,1.54.1.2.24.44.43.53,1.06.54,1.39,1.21,1.15,2.09.69.49,1.66.82,1.83,1.4.21.68-.26,1.56-.42,2.36-.12.56-.21,1.13-.32,1.74-.6-.36-1.11-.66-1.62-.96-.07.09-.13.19-.2.28.3.28.6.55.95.87-.67.98-.26,2.96-2.79,2.38,1.32,1.4.21,2.06-.33,3.04-.3.53.02,1.79.5,2.3,1.15,1.22.4,1.92-.4,2.72-.11.12-.21.25-.35.42-.71-.64-1.48-1.68-1.83.44-.72-1.11-1.26-1.3-1.97-.27-.27.39-1,.47-1.52.68l.13.4c1-.26,2.01-.51,3.25-.83-.2.48-.24.86-.44,1.02-1.43,1.11-1.67,2.86-2.44,4.32-.19.36-.59.75-.97.86-1.42.41-1.48.48-.62,1.84-.19.07-.37.12-.53.21-.14.07-.26.18-.46.32.19.23.36.43.29.34-1.15,1.78-2.24,3.46-3.34,5.16.71.76,1.79,1.19,1.47,2.51-.04.17.92.59,1.34.85-.63,1.79.44,3.63.05,5.49-.7.48-1.56,1.06-2.48,1.68-.92-1.03-.88-2.42-.96-3.69-.11-1.63-.84-2.62-2.3-3.2-.25,1.61-.86,2.95-2.32,3.8-.55.32-.36,1.11.38,1.87-.37.04-.75.09-1.29.15.06.24.17.7.28,1.15-1.15-.25-2.56.79-3.07,2.37,1.32-.09,1.41-1.61,2.69-2.1-.9,1.68-1.66,3.1-2.46,4.59-.34,0-1.2-.58-.89.76.09.37-.5.88-.73,1.35-.13.25-.21.54-.25.83-.02.13.09.29.14.44-1.43.37-1.11,2.56-3.02,2.6.41.34.64.54.62.52-.35,1.09-.69,2.01-.91,2.96-.05.2.3.67.53.73,1.95.51,3.99.79,5.87,1.49,1.37.51,2.65.29,3.98.33.39.01.74.47,1.14.59.77.23,1.58.37,2.37.54.06-.28.21-.79.16-.8-.73-.28-.31-.63-.12-1.01.16-.32.29-.68.34-1.04.1-.68.27-1.22.87-1.72.33-.27.3-1.04.34-1.58.02-.31-.17-.62-.2-.94-.1-.99-.17-1.98-.24-2.97-.06-.91-.06-1.82-.17-2.73-.07-.58-.14-1.24-.46-1.68-.58-.8-.34-1.34.4-2.05-.6-.13-1.08-.23-1.57-.33-.01-.07-.03-.15-.04-.22.72-.09,1.45-.17,2.17-.27.5-.07.78-.25.8-.89,0-.31.67-.59,1.04-.89.14.18.43.42.39.53-.11.27-.37.49-.61.78,1.36.16,1.33,1.05,1.03,2.04.34.18.65.33.86.44-.02,2.1-.3,4.11.46,5.77.15.82.19,1.41.37,1.97.27.84-.52,3-1.4,3.39,1.55.87,1.75,2.24,1.55,3.78-.02.16.16.35.26.52.34.55.69,1.1,1.24,2.29.1-.38.2-.75.37-1.35.51,1.16.91,2.05,1.3,2.93-.37.28-.81.61-1.25.94-.09.06-.22.07-.33.11.45,1.19-.72,1.46-1.55,2.26.7-.03,1.04-.05,1.38-.06.05.09.1.17.15.26-1.92,1.32-3.85,2.62-5.75,3.96-1.25.88-2.46,1.83-3.69,2.75-.96.72-1.88,1.52-2.91,2.13-.36.21-1-.05-1.64-.11v1.67c-1.06.05-1.91.3-2.18,1.42-.04.15-.07.35-.18.43-1.06.74-2.15,1.44-3.19,2.21-.35.26-.54.75-.89,1.01-.39.29-.88.47-1.35.66-.17.07-.47-.07-.57.03-.95.96-1.86,1.96-2.89,3.05-.07-.05-.31-.21-.59-.41-.33.58-.68,1.18-1.12,1.95-.24-.68-.4-1.11-.66-1.85-.4.71-.63,1.11-.87,1.54.48.22.88.41,1.28.6-1.5,1.29-2.91,2.49-4.32,3.7l-.08-.25c-.52.18-1.07.3-1.57.54-1.45.7-2.12,2.09-2.87,3.4-.09.16-.3.26-.47.38-.7.49-1.43.95-2.11,1.46-.7.53-.95,1.61-2.25,1.44-.38-.05-1.05.94-1.3,1.57-.26.64-.36,1.15-1.22.92-.25-.07-.58.05-.84.16-.26.11-.48.31-.72.47.17.22.34.43.43.55-2.4,2.54-4.85,5.14-7.53,7.98-.87.05-1.5.69-2.29,1.86-1.02,1.51-1.94,3.43-3.95,4.17-.42.16-.63.84-1.05,1.08-.37.21-.89.13-1.35.18-.09-.13-.19-.27-.28-.4-.22.68-.51,1.34-.63,2.04-.3,1.72-1.58,2.65-2.82,3.62-.3.23-.46.63-.72.91-.22.24-.49.45-.76.64-.09.06-.33,0-.35.05-.51,1.4-1.93,1.44-2.99,2.01-.04.02-.1.04-.1.07-.26,1.92-2.31,1.93-3.28,3.08-.58.69-1.01,1.52-1.51,2.28-.14.21-.31.56-.46.56-2.27-.12-2.51,2.93-4.68,2.97-.13,0-.27.34-.4.53-.69.98-1.39,1.95-2.06,2.94-.21.31-.36.68-.6.82-.39.22-.84.36-1.15.66-1.4,1.35-2.67,2.86-4.17,4.09-1.41,1.15-3.06,1.99-4.57,3.01-.33.23-.53.65-.79.98-.15.19-.28.42-.48.54-.74.44-1.7.59-1.74,1.8,0,.2-.85.38-1.31.56-.32.13-.64.26-.96.39.55,1.04-.54.94-.92,1.34-.84.9-1.64,1.84-2.51,2.71-.62.62-1.31,1.18-1.99,1.73-.65.53-1.32,1.02-1.99,1.53-.32.24-.63.54-.99.69-.76.31-1.56.5-2.31.81-.21.09-.46.37-.49.59-.19,1.56-1.08,2.1-2.6,1.53-.98,1.76-2.72,1.52-4.29,1.51-1.62-.01-3.25-.2-4.85-.47-.64-.11-1.21-.63-1.81-.96-1.6-.88-3.34-.3-5-.4-1.68-.11-3.34-.91-5.06-.26-.66-.87-1.6-1.12-2.62-1.13-1.38-.02-2.76,0-4.18,0,.11,1.25,0,2.39-1.09,3.37-.44.4-.28,1.41-.54,2.08-.43,1.12-.79,2.35-1.53,3.25-.61.74-1,1.35-.85,1.93-.97,1.19-1.79,2.22-2.63,3.22-.29.34-.62.65-.97.92-.96.73-1.04,1.25-.26,2.09.54.58,1.22,1.1,1.57,1.79.37.71.54,1.58.57,2.39.05,1.49-.09,2.99-.1,4.48,0,.44.16.88.22,1.33.05.4.07.81.07,1.21-.01.71-.44,1.24.14,2.17.64,1.04.3,2.68.39,4.07.09,1.31.18,2.61.3,3.92.13,1.46.54,2.95.38,4.38-.13,1.25-.82,2.46-1.37,3.64-.42.89-.87,1.84-1.55,2.51-1.06,1.05-2.33,1.88-3.52,2.81-.39.3-.84.56-1.15.93-1.02,1.27-2.68.53-3.86,1.27-.41.26-.89.42-1.35.56-.47.13-.96.18-1.44.24-.15.02-.31-.08-.46-.12-.78-.18-.84,1.56-1.98.67-.73-.57-1.29.2-1.95.53-.58.29-1.5-.11-2.57-.25-1.13,1.25-3.13,1.61-4.99,2.37-1.86.77-3.88.82-5.71,1.89-2.65,1.55-5.67,2.47-8.58,3.55-1.28.47-2.68.59-3.98,1.02-.62.21-1.12.79-1.69,1.18-.26.18-.54.4-.83.44-1.13.14-2.15.41-2.98,1.31-.32.35-1,.35-1.49.56-1.24.52-2.46,1.09-3.72,1.59-.7.28-1.45.45-2.18.66-.45.13-.89.28-1.34.39-.99.26-1.59,1.1-2.87,1.15-1.52.05-2.99,1.19-4.5,1.81-.96.39-1.95.84-2.96.95-.77.08-1.19.35-1.56.95-.37.59-.76,1.17-1.19,1.71-.15.18-.45.34-.69.34-1.08,0-2.17,0-3.24-.11-.49-.05-1.07-.26-1.42-.59-.8-.77-.89-1.62.15-2.34-.31-.57-.6-1.11-.93-1.71.78-.56,1.56-1.14,2.48-1.81,1.21.25,2.49.1,3.69-.9.53-.44,1.41-.47,2.13-.67.34-.09.75-.06,1.03-.24,1.24-.8,2.4-1.72,3.65-2.49,1.9-1.17,3.9-2.18,5.76-3.41,2.27-1.52,4.51-3.12,6.63-4.84,2.16-1.75,4.22-3.62,6.22-5.56.8-.77,1.29-1.85,1.93-2.79.15-.22.34-.43.48-.66.75-1.22,1.51-2.44,2.23-3.69.12-.21-.02-.55.05-.81.14-.57.32-1.13.49-1.69.14-.47.3-.94.45-1.41-.08-.09-.16-.18-.23-.27-3.17,1.34-6.33,2.67-9.5,4.01-.03-.09-.05-.18-.08-.27-.32.3-.62.84-.95.85-1.92.05-3.24,1.33-4.77,2.18-1.29.71-2.59,1.4-3.93,2.01-.45.21-1.05.08-1.55.21-1.95.54-2.64,2.45-3.94,3.69-1.59,1.51-3.22,2.96-4.78,4.5-1.08,1.07-2.09,2.22-3.09,3.37-.96,1.11-2.02,2.18-2.76,3.43-1.34,2.27-2.45,4.67-3.71,6.99-.41.76-1.09,1.38-1.46,2.15-.66,1.39-1.22,2.84-1.76,4.28-.46,1.23-.78,2.51-1.28,3.73-.44,1.08-1.01,2.11-1.58,3.13-.52.91-1.14,1.77-1.67,2.67-.17.29-.25.65-.29.98-.17,1.25-.53,2.37-1.84,2.91-.19.08-.33.34-.42.54-.82,1.89-1.9,3.68-2.72,5.51-1.12,2.5-3.03,3.72-5.14,4.91-.36.2-1.15.07-1.48-.22-.95-.82-1.8-1.78-2.63-2.74-.19-.22-.21-.64-.22-.97-.02-1.62-.77-2.45-2.28-2.44-.3,0-.7.07-.87.27-.62.73-1.22,1.49-1.71,2.31-1.54,2.57-2.4,5.49-4.2,7.95-.97,1.33-1.62,2.91-2.34,4.42-.2.41-.03.99-.2,1.42-.64,1.59-1.42,3.12-2.03,4.71-.7,1.82-1.23,3.69-1.9,5.52-.41,1.11-.99,2.15-1.44,3.25-.17.4-.22.86-.26,1.31-.23,2.13-.88,4.1-1.86,6.02-.85,1.66-1.54,3.38-2.98,4.64-.49.43-1.06.77-1.56,1.19-1.27,1.06-2.51.16-3.64-.19-.97-.3-1.96-.99-2.58-1.8-.61-.8-.78-1.95-1.11-2.95-.32-.98-.32-2.29-.97-2.88-.96-.86-1.01-1.61-.78-2.67.04-.17-.32-.41-.47-.63-.36-.53-.7-1.08-1.18-1.82-.49.03-1.01.33-1.58,1.09-1.37,1.82-2.99,3.45-4.5,5.16-.14.15-.32.27-.44.44-1.86,2.5-3.7,5.02-5.56,7.52-.31.42-.69.8-1.01,1.22-1.2,1.6-2.36,3.22-3.59,4.8-1.55,1.99-3.2,3.9-4.71,5.92-.98,1.3-1.81,2.73-2.69,4.1-.84,1.31-1.75,2.57-2.5,3.93-1.61,2.92-3.07,5.93-4.75,8.81-.49.85-1.49,1.41-2.27,2.07-.31.26-.68.44-1.26.81-.97-1-2.02-2.04-2.99-3.13-.15-.16,0-.61.04-.91.16-1.23.78-2.4.04-3.73-.25-.46.36-1.34.46-2.04.27-2.11.26-4.29.78-6.34.56-2.21.41-4.51,1.4-6.71.92-2.04,1.01-4.44,1.54-6.66.32-1.33.82-2.62,1.21-3.94.57-1.91.88-3.94,1.72-5.72.85-1.82,1.01-3.62,1.16-5.55.1-1.37.82-2.7,1.27-4.05.73-2.2,1.15-4.58,2.31-6.52.75-1.27.86-2.6,1.41-3.85.38-.86.28-1.93.58-2.85.36-1.08.92-2.1,1.38-3.15.23-.54.43-1.1.65-1.65-.08-.07-.16-.15-.24-.22-.31.13-.63.22-.92.38-1.45.77-2.93,1.49-4.32,2.36-1.66,1.04-3.25,2.2-4.85,3.33-1.03.73-2.06,1.47-3.02,2.29-.7.6-1.23,1.41-1.96,1.96-1.05.78-2.18,1.46-3.33,2.07-.66.35-1.4.36-1.64-.64-.05-.2-.11-.45-.25-.56-1.67-1.22-.8-2.58-.29-3.97.35-.95.54-1.94.81-2.92.17-.63.39-1.25.53-1.88.16-.72.31-1.46.35-2.19.19-3.16,1.54-5.89,3.03-8.59.19-.34.22-.77.31-1.16.1-.42.13-.86.27-1.26.41-1.15.8-2.31,1.3-3.41.66-1.45,1.46-2.84,2.12-4.3.65-1.43,1.1-2.96,1.82-4.35.7-1.34,1.65-2.55,2.44-3.84.23-.37.28-.85.39-1.29.08-.3.04-.68.21-.91,1.83-2.61,3.69-5.21,5.55-7.81.94-1.32,2-2.57,2.77-3.98.6-1.1,1.44-1.8,2.37-2.55.56-.45.64-1.43,1.13-2.02,1.76-2.09,3.61-4.11,5.42-6.17.94-1.07,1.77-2.25,2.82-3.19.9-.81,2.07-1.33,3.07-2.04.36-.25.55-.72.88-1.03.52-.5,1.09-.95,1.61-1.4-.12-.21-.16-.34-.2-.34-1.29-.02-2.59.01-3.88-.06-1.12-.07-2.24-.21-3.34-.43-.25-.05-.63-.57-.59-.82.16-1.18.26-2.37,1.19-3.34,2.68-2.8,5.62-5.3,8.61-7.74.75-.61,1.33-1.43,2.05-2.08.77-.69,1.6-1.33,2.44-1.95,1.54-1.14,3.15-2.21,4.66-3.39,1.39-1.09,2.7-2.18,4.38-2.9,1.5-.64,2.73-1.94,4.08-2.94.06-.05.12-.13.19-.14,2.44-.39,4.52-1.89,6.93-2.33,2.22-.4,4.33-1.12,6.47-1.79.88-.28,1.88-.19,2.81-.33.27-.04.61-.24.73-.46.35-.68.58-1.42.9-2.12.7-1.57,1.32-3.18,2.16-4.67,1.12-2,2.46-3.87,3.62-5.85.33-.56.25-1.36.58-1.93.7-1.21,1.55-2.34,2.11-3.55.15-.58.23-1.19.46-1.74.4-.94.82-1.89,1.38-2.73.78-1.17,1.65-2.3,2.58-3.34,1.56-1.73,2.52-3.82,3.69-5.79.64-1.08,1.43-2.07,2.15-3.1.73-1.04,1.43-2.1,2.19-3.12.42-.56.94-1.03,1.4-1.55.16-.18.35-.39.4-.61.4-2.06,1.98-3.37,3.06-5,.65-.98.97-2.19,1.53-3.24.21-.4.74-.62,1.03-1,.8-1.06,1.49-2.22,2.35-3.23,1.23-1.45,2.5-2.88,3.89-4.16,1.37-1.25,2.92-2.31,4.39-3.45.88-.68,1.68-1.52,2.66-1.99,1.67-.82,2.94-2.18,4.47-3.1,1.57-.93,3.36-1.82,5.42-1.25.34.09.84-.56,1.24-.54,1.21.07,2.4-.74,3.64,0,.28.17.97-.09,1.33-.35.82-.6,2.09.21,2.66-.88.34-.65.76-1.41.7-2.07-.1-1.12-.07-2.05.37-3.17.42-1.08-.01-2.48-.03-3.75,0-.39.08-.79.2-1.16.33-1.02.77-1.94.44-3.15-.23-.85.19-1.88.33-2.83.11-.79.5-1.68.26-2.35-.41-1.15.01-1.37,1.11-1.38-1.98-.85-1.12-2.48-1.13-3.74-.01-1.54.1-3.21.69-4.6.51-1.2,1.72-2.13,2.7-3.09,1.42-1.38,2.98-2.64,4.38-4.04,1.5-1.5,2.84-3.15,4.33-4.65.99-1,2.17-1.82,3.19-2.8.32-.31.31-1.17.61-1.27,1.67-.55,1.68-2.5,3.03-3.35,1.84-1.17,3.52-2.6,5.24-3.95.27-.21.39-.6.58-.9.14-.22.26-.55.46-.62.83-.32,1.31-.85,1.36-1.78.01-.19.25-.51.41-.53,1.83-.25,2.73-1.68,3.81-2.91.48-.54,1.08-.98,1.65-1.43,1.01-.8,2.04-1.57,3.06-2.36.09-.07.23-.18.23-.27-.02-1.47,1.3-1.89,2.12-2.66,1.48-1.39,3.11-2.62,4.57-4.03,1.15-1.11,2.14-2.38,3.18-3.6.99-1.15,1.85-2.43,2.97-3.43.77-.69,1.88-.99,2.93-1.51-.18-.11-.38-.23-.75-.46.87-.86,1.7-1.75,2.61-2.55.55-.48.95-.89,1.15-1.68.16-.63.94-1.12,1.5-1.62.83-.75,1.67-1.5,2.59-2.13.38-.26.99-.2,1.4-.27-.1-.28-.41-.83-.32-.91.5-.42,1.08-.74,1.66-1.06.38-.21.78-.37,1.36-.64-.46-.35-.69-.53-.86-.66,1.99-1.69,3.96-3.32,5.87-5.02,1.3-1.15,2.34-2.66,3.78-3.56,2.26-1.41,3.75-3.54,5.62-5.3,1.63-1.55,3.07-3.3,4.66-4.89,1.01-1.01,2.14-1.9,3.26-2.78.39-.3.77-.68,1.49-.25.58.34.89-.32.77-1.02-.33.15-.63.29-1.04.48.75-1.45.75-1.43,2.08-1.4.58.01,1.17-.09,1.63-.13-.21.95-.47,2.12-.77,3.45-.24-.64-.45-1.22-.67-1.84-.59,1.09-1.09,2.02-1.66,3.08-.15-.36-.27-.63-.41-.97-.52.54-.96,1-1.27,1.33.36.48.7.93,1.25,1.65-1.21-.16-2.04-.26-2.86-.37l.22.28c-.36.39-.75.76-1.08,1.18-.57.72-1.82.87-1.74,2.17.02.35-.34.73-.56,1.08-.51.8-2.02.99-1.48,2.43-.41.08-.83.24-1.23.21-.48-.04-.95-.25-1.42-.39-.03.11-.07.21-.1.32.26.25.51.51.77.76-.37.18-.77.32-1.1.56-.87.64-1.74,1.29-2.54,2.01-.6.54-1.09,1.19-1.68,1.85.2.05.45.12.71.19.02.1.03.2.05.31-.77.15-1.55.3-2.44.48-.35,1.24-.37,1.22-1.8,2.22-.49.34-.9.81-1.35,1.21-.34.3-.7.58-1.21.99,0,.08,0,.43,0,.4-.98.78-1.79,1.37-2.53,2.04-.19.17-.12.59-.25.85-.16.31-.45.85-.63.82-1.1-.14-1.5.72-2.08,1.32-1.13,1.17-2.19,2.43-3.43,3.46-.6.5-1.55.57-2.44.87.6.85,1.19-.16,1.76-.12.28,1.11-.08,1.72-1.3,1.62.1,1.67-1.52,2.18-2.03,3.25-.61-.1-1.17-.19-1.72-.28l-.1.47c.42.11.83.23,1.55.43-1.3.75-2.43,1.4-3.61,2.07.23.31.4.54.44.59-.72.8-1.41,1.56-2.21,2.45-.04-.05-.26-.3-.58-.66-.11.28-.34.61-.26.74.78,1.3-.23,1.45-1.06,1.77-.43.17-.82.43-1.22.68-.2.12-.33.4-.53.44-1.05.22-1.06.2-.67,1.26-.33-.16-.54-.27-.67-.34-1.19,1.12-2.37,2.22-3.8,3.56.61-.18,1.01-.3,1.41-.41.05.08.1.16.15.23-.38.2-.74.51-1.14.58-1.37.24-1.84.79-1.79,2.18,0,.26-.15.61-.35.78-1.01.87-2.04,1.73-3.11,2.53-.58.43-1.26.73-2.05,1.18.34.21.55.34.8.49-.07.03-.16.12-.25.12-1.34.06-1.86,1.07-2.4,2.05-.09.16-.18.37-.33.44-1.36.68-2.24,1.84-3.25,2.91-.58.61-1.69.69-2.52,1.09-.59.28-1.08.7.07,1.28-.52.57-1.03,1.08-1.5,1.63-.52.6-1.68.71-1.45,1.89.01.05-.08.17-.13.19-1.71.41-2.41,1.98-3.47,3.11-1.17,1.25-2.18,2.66-3.28,3.99-.15.18-.35.37-.57.45-1.04.38-1.49,1.17-1.97,2.15-.57,1.17-1.63,2.09-2.49,3.11-.13.15-.41.22-.46.38-.56,1.83-2.18,3.18-2.32,5.21-.03.4-.22.89-.51,1.15-.46.41-.37.76-.35,1.29.05,1.45-.14,2.92-.16,4.38,0,.46.24.92.14,1.31-.15.73-.37,1.45-.42,2.19-.11,1.66-.06,3.34-.23,5-.11,1.01-.22,1.98.04,2.99.07.29-.19.7-.38,1.01-.36.58-.93,1.09-.37,1.87.15.21.21.54.2.81,0,1.79.26,3.65-.15,5.35-.57,2.38.32,4.61.15,6.9-.09,1.19-.58,2.35-.83,3.54-.09.4-.08.83,0,1.24.15.9-.52,1.9.35,2.7.04.04.05.18.02.24-1.01,1.81.24,3.93-.91,5.81-.5.81-.22,2.11-.22,3.19,0,1.47.18,2.95.08,4.41-.06.84-.14,1.59.44,2.26.05.06.13.18.11.21-1.08,1.68,1.09,2.63,1.02,4.18.23-.3.45-.6.7-.93,1.16.51,1.66-.48,2.38-1.04,1.03-.81,2.19-1.47,3.13-2.38,1.74-1.69,3.33-3.53,5.05-5.25,1.37-1.37,2.85-2.62,4.22-3.98.42-.42.61-1.06,1-1.51,1.28-1.5,2.63-2.95,3.91-4.46,1.01-1.19,1.89-2.48,2.93-3.63,1.67-1.85,3.46-3.58,5.14-5.42,1.28-1.41,2.45-2.92,3.69-4.37.53-.62,1.12-1.19,1.71-1.76,1.38-1.35,2.79-2.69,4.17-4.04,1.22-1.19,2.42-2.41,3.64-3.6,1.39-1.37,2.86-2.66,4.18-4.09,1.24-1.34,2.32-2.82,3.48-4.23.14-.17.39-.27.58-.4.34-.23.69-.46,1.02-.7.25-.18.48-.56.73-.56.86-.02.64-.56.81-1.1.24-.76.87-1.45,1.46-2.04,1.15-1.14,2.38-2.15,3.34-3.52,1.04-1.48,2.52-2.65,3.87-3.9.98-.91,2.09-1.68,3.07-2.6.44-.41.66-1.05,1.03-1.54.82-1.06,1.61-2.14,2.52-3.12,1.58-1.7,3.2-3.37,4.86-4.99,1.38-1.35,2.8-2.68,4.3-3.9,1.56-1.27,3.23-2.39,4.84-3.58.19-.14.32-.37.48-.56.63-.73,1.09-1.61,2.2-1.87.47-.11.94-.67,1.18-1.15.46-.88.87-1.58,2.02-.96.12.07.37-.1.63-.17-.19-.43-.36-.81-.46-1.04.68-.27,1.35-.37,1.81-.73,2.57-2.05,5.1-4.16,7.63-6.28.36-.3.58-.76.91-1.11,1.2-1.25,3.25-1.51,3.94-3.42.12-.35,1.3-.45,1.31-.68.01-1.3,1.11-1.55,1.86-2.04.53-.35,1.3-.36,2.13-.56-.47-.18-.79-.31-1.16-.46.24-.47.46-.89.7-1.35.35.04.7.08.74.09.66-.77,1.25-1.33,1.69-2,.43-.65.74-1.4,1.03-2.13.2-.5.45-1.07.4-1.58-.12-1.36-.13-2.76-.87-4-.1-.16.09-.47.04-.67-.15-.52.4-1.22-.54-1.6-.32-.13-.4-1.01-.43-1.56-.01-.2.42-.46.68-.64.26-.18.57-.29.89-.76-.42-.09-.84-.18-1.25-.27,0-.56-.1-1.25.02-1.9.18-.96-.46-1.42-.9-2.08-.42-.62-.85-1.61-.63-2.2.46-1.25-.42-1.83-.79-2.71-.26-.64-.02-1.49,0-2.25,0-.48.09-.98,0-1.43-.25-1.08-.72-2.13-.86-3.22-.14-1.18-.28-2.23-1.15-3.2-.36-.4-.02-1.43.01-2.37-.05,0-.44-.06-.64-.09-.45-1.06-.88-2.03-1.27-3.02-.08-.2-.08-.44-.07-.66.01-.74.17-1.51.04-2.23-.24-1.3-.72-2.55-.93-3.85-.06-.38.48-.85.77-1.31-.92-.91-.92-1.1-.02-1.93-.36-1.14-1.01-2.23-.95-3.27.09-1.6-.63-2.57-1.86-3.57-.03.4-.05.75-.11,1.55-.52-.76-.86-1.26-1.29-1.89.07-.13.19-.38.32-.63.2.14.39.27.53.36.32-.65.62-1.26.97-1.96-.05-.03-.24-.16-.35-.23.33-.87.63-1.72.99-2.55.27-.6.5-1.51,1.39-.49.09.1.39.06.57,0,1.32-.41,1.85.26,1.94,1.37.68-.08,1.29-.15,2.01-.23-.15.35-.23.51-.36.81,1.28-.65,1.73-.59,1.99-.15.85,0,1.49-.09,2.09.02.67.12,1.31.43,1.97.63.65.19,1.35.19,1.69,1.02.11.26.8.3,1.23.38.61.12,1.24.14,1.83.3.62.16,1.21.43,1.91.69-.02.32-.05.7-.06.91.82,0,1.56-.03,2.29.06.06,0,0,.86,0,1.37.48-.02,1.21-.28,1.62-.02.41.26.49,1.04.85,1.9.11-.74.17-1.11.23-1.54.8.57,1.52,1.08,2.29,1.62.54.09,1.2.2,1.74.29.04.54.07.94.1,1.34.36-.1.76-.33,1.09-.26.8.17,1.66.35,2.35.77,1.05.64,3.26,1.73,4.46,2.15.95.33,1.79,1.11,2.75,1.28.96.17,1.8,1.41,2.99.39.27-.23,1.1-.04,1.54.19.69.38,1.19.39,1.89-.05.86-.54,1.87-.83,2.78-1.28.47-.23.86-.62,1.33-.88.79-.44,1.58-1.03,2.43-1.19,2.18-.42,3.47-2.32,5.46-3.05.72-.26,1.27-.99,1.9-1.5-.06-.13-.13-.25-.19-.38-.53-.06-1.07-.12-1.79-.21.25-.31.59-.86.67-.82,1.04.47,1.31-.63,1.97-.9.63-.26,1.22-.65,1.87-.83.74-.21,1.54-.26,2.2-.36.68.32,1.36.85,2.08.92,1.17.11,1.56.58,1.29,1.64.84.59,1.71-1.51,2.47.1-1.05-.56-1.4.65-2.16.84.06.17.12.48.18.48.56-.01,1.17.03,1.67-.18.23-.1.22-.73.32-1.12ZM262.28,249.06c.15,1.17,1,.84,1.94.89,1.46.08,2.89.62,4.34.92,3.16.65,6.32,1.32,9.5,1.9,1.72.31,3.47.46,5.21.66.29.03.68-.21.87-.09,1.55.93,3.1,1.07,4.71.18.23-.13.56-.06.85-.1,1.14-.19,2.36-.18,3.39-.62,1.78-.76,3.43-1.81,5.14-2.74.11-.06.2-.16.27-.25,1.35-1.74,2.77-3.35,4.78-4.47.89-.5,1.52-1.52,2.69-1.66.11-.01.27-.07.32-.16.76-1.21,1.45-2.43,2.99-2.88.44-.13.67-.84,1.11-1.07,2.62-1.39,4.69-3.42,6.73-5.51.73-.75,1.53-1.45,2.33-2.12.69-.58,1.52-1.03,2.14-1.68,1.08-1.11,2.01-2.37,3.07-3.5,1.05-1.13,2.18-2.19,3.28-3.28.4-.4.75-.97,1.24-1.15,1.45-.53,1.88-2.51,3.67-2.5.05,0,.1-.12.15-.18,1.12-1.25,2.15-2.59,3.37-3.72,1.58-1.46,3.32-2.76,4.99-4.13.22-.18.47-.37.62-.6,1.73-2.62,3.79-4.92,6.3-6.84.51-.39.7-1.24,1.23-1.58,1.64-1.04,2.94-2.4,4.22-3.84,1.74-1.96,3.73-3.7,5.65-5.5,1.65-1.55,3.35-3.04,5.03-4.56.09-.08.18-.18.3-.22,1.68-.6,2.77-1.93,3.79-3.24,1.29-1.65,2.73-3.02,4.59-4.02,1.12-.6,2.14-1.43,3.09-2.29.65-.59,1.04-1.47,1.68-2.07,1.25-1.18,2.6-2.25,3.91-3.38.36-.31.68-.64,1.03-.95.93-.82,2.47-1.03,2.62-2.65,0-.1.23-.18.35-.27,1.34-.91,2.72-1.76,4-2.75,2.09-1.62,4.1-3.35,6.18-5,.53-.42,1.14-.81,1.78-1,1.15-.34,2.44-1.86,2.45-3.26-1.13-.15-2.28-.4-3.45-.45-1.36-.05-1.97-.49-2.18-1.82-.04-.26-.26-.49-.54-.99-.04.75,0,1.18-.11,1.56-.07.26-.44.69-.54.66-.69-.23-1.34-.57-2-.87-.1-.04-.2-.07-.37-.13.17.28.29.49.39.66-.97-.13-1.86-.24-2.69-.35.04-.29.17-.6.07-.81-.06-.12-.46-.12-.71-.11-1.53.03-3.09.26-4.48-.72-.2-.14-.57-.16-.81-.09-1.75.53-3.48,1.11-5.17,1.65-.97-2.01-1.81-3.74-2.63-5.46-1.08.26-2.19.53-3.23.77-.31-.81-.54-1.44-.84-2.22-.42.33-.66.51-1,.77-.39-1.16-.86-1.88-2.24-1.36-.46.17-1.3-.38-1.84-.78-1-.75-1.79-1.8-3.33-1.25-.55.2-1.26-.05-2.02-.11.31-.49.53-.86.76-1.23-1.12.86-1.11.84-2.56.03-.61-.34-1.28-.56-1.9-.86-.31-.15-.58-.36-.72-.45.39-.23.67-.39.95-.55-.16-.18-.32-.37-.48-.55-.37.2-.72.44-1.11.58-.82.29-1.68.91-2.54.18-1.05-.89-2.02-1.86-3.07-2.84-.9.91-1.65.63-2.49-.15-.59-.55-1.41-1.3-2.06-1.23-1.66.16-2.42-1.06-3.46-1.81-.61-.44-3.33-.84-3.96-.38-.06.05-.09.14-.15.19-1.86,1.54-3.74,3.07-5.59,4.63-.5.42-.73,1.2-1.63,1.01-.08-.02-.29.5-.41.77-.09.2-.09.5-.24.6-1.03.7-2.16,1.27-2.71,2.49-.04.08-.19.11-.3.17-.88.48-1.77.94-2.62,1.47-.18.11-.17.52-.25.79.14.08.28.15.42.23-.46.35-.91.72-1.39,1.03-1.14.74-2.31,1.44-3.46,2.17-.09.06-.16.19-.2.3-.43,1.19-2.32,2.61-3.71,2.74.07.57.14,1.13.25,2-.55-.46-.84-.71-1.08-.91-1.35,1.02-2.64,2.05-3.99,2.98-.52.36-1.2.5-2.06.85-.64,2.3-2.35,3.65-5.19,3.26.46,2.17.04,1.78-1.33,1.88-.15.47-.16,1.09-.48,1.41-1.19,1.17-1.73,2.89-3.31,3.71-.53.28-1.03.68-1.42,1.13-1.23,1.44-2.4,2.93-3.59,4.39-.34-.19-.62-.35-.92-.52-.28.59-.44,1.24-.84,1.68-1.72,1.88-3.5,3.71-5.28,5.54-.74.76-1.55,1.44-2.28,2.2-.35.37-.78.81-.84,1.27-.13.91-.48,1.34-1.43,1.46-.34.04-.64.65-.92,1.02-.14.19-.17.48-.33.64-1.63,1.63-3.36,3.17-4.89,4.9-.87.99-2.45,1.19-2.81,2.7-.1.43-.42.81-.64,1.22-.9,1.61-2.18,2.81-3.72,3.84-2.41,1.62-3.74,4.47-6.38,5.88-.1.05-.15.19-.23.29-1.73,2.27-3.41,4.57-5.72,6.34-.77.59-1.36,1.44-1.98,2.22-.36.46-.5,1.18-.94,1.47-.88.57-1.25,1.8-2.49,1.89-.09,0-.15.32-.22.49.31.1.53.17.95.31-.8.52-1.56.79-1.99,1.33-1.23,1.57-2.33,3.24-3.48,4.87-.34.49-.59,1.05-.99,1.48-.94.99-1.96,1.91-2.93,2.87-1.5,1.49-2.99,2.99-4.47,4.5-1.14,1.16-1.65,2.53-1.21,4.13.31,1.13.87,2.07,2.2,2.29.96.16,1.9.45,2.85.69,1.48.38,2.94.97,4.45,1.1,2.03.18,3.85.77,5.66,1.68,1.49.75,3.16,1.15,4.76,1.67.51.17,1.19.1,1.56.42,1.32,1.13,2.83.71,4.39.83ZM163.39,351.15c1.1-.11,2.22-1.16,2.61-2.16.27-.71.66-1.39,1.11-2.01.39-.55,1.2-.94,1.35-1.51.51-1.98,1.84-3.49,2.71-5.25,1-2.04,1.81-4.16,2.76-6.23.84-1.83,1.71-3.64,2.64-5.42,1.58-3,3.42-5.85,4.85-8.95.86-1.88,2.32-3.52,3.7-5.11,1.88-2.17,3.94-4.19,5.94-6.26.69-.72.64-1.41-.11-1.97-.22-.17-.43-.64-.35-.87.25-.68.12-1.04-.42-1.58-.72-.73-1.44-1.66-1.66-2.61-.35-1.56-.89-2.74-2.45-3.38-.66-.27-1.15-2.17-.77-2.7.58-.82,1.07-1.63.77-2.7-.04-.14.23-.46.42-.53.18-.06.44.08.66.15.37.12.74.27,1.12.38.46.13.93.22,1.39.33-.12.06-.25.13-.37.19.31,1.47.61,2.95.93,4.42.04.19.14.46.28.52,1.5.65,2.04,2.46,3.74,2.94.81.23,1.94.31,2.19-.48.46-1.45,1.16-2.13,2.77-2.69,1.65-.57,2.6-.17,3.6.69.56.48.91.46,1.5.26,1.58-.52,3.18-.98,4.77-1.44.33-.1.74-.03,1.03-.18,1.68-.88,3.32-1.85,5.01-2.7,1.33-.67,2.73-1.18,4.07-1.81.84-.4,1.63-.89,2.44-1.35.52-.3,1.01-.67,1.57-.9.83-.34,2.06-.33,2.47-.93.93-1.31,2.56-1.05,3.58-2.03.68-.66,1.58-1.11,2.44-1.55,1.67-.86,2.86-2.39,4.7-3.08,1.2-.44,2.17-1.48,3.28-2.2,2.07-1.37,3.73-3.25,5.97-4.43,1.16-.61,2.08-1.68,3.09-2.56.6-.53,1.19-1.07,1.74-1.65.49-.51.88-1.12,1.39-1.62.77-.76,1.65-1.42,2.4-2.2,1.35-1.4,3.25-2.4,3.46-4.65,1.71-.61,1.7-2.46,2.6-3.65.1-.13.14-.32.18-.48.34-1.22.59-2.44,1.47-3.48.39-.46.3-1.32.43-2-.13-.04-.26-.07-.39-.11-.22.17-.43.34-.6.47-.3-.24-.53-.54-.84-.66-.65-.25-1.45-.26-2-.64-1-.69-2.05-1.01-3.22-1.06-1.04-.05-1.73-1.42-2.95-.78-1.14-1.41-3.27-.55-4.51-2.06-.57-.7-1.93-.79-2.95-1.09-.3-.09-.87.15-.97,0-.76-1.09-1.91-.8-2.85-.71-2.03.2-3.92-.5-5.87-.72-1.55-.17-2.35-1.55-3.44-3.02-.33.62-.67,1.04-.79,1.52-.24.97-.02,2.44-.6,2.84-1.12.79-1.08,2-1.7,2.92-.14.21-.3.66-.21.75.67.63.28,1.28.1,1.91-.19.64-.65,1.26-.65,1.89,0,2.47-.85,4.88-.3,7.39.16.73-.54,1.7-.29,2.34.41,1.05.38,2.11-.04,2.88-.75,1.39,0,3.36-1.77,4.34-.34.19-.33,1.03-.67,1.22-1.61.87-3.23,1.81-4.97,2.36-1.88.59-3.78,1.03-5.46,2.13-.4.27-.94.45-1.42.46-1.57.02-2.87.67-4.08,1.59-.17.13-.46.12-.7.17-.57.11-1.27.04-1.7.35-1.03.74-1.91,1.57-3.21,2.02-1.87.64-3.59,1.73-5.36,2.65-.64.33-1.24.72-1.86,1.08-1.14.66-2.17,1.67-3.69.91-.17-.08-.57.17-.79.35-.41.35-.7.93-1.16,1.11-1.64.61-2.81,2.01-4.69,2.36-1.74.32-3.33,1.45-4.99,2.21-.57.26-1.18.45-1.71.77-1.55.94-2.95,2.21-4.61,2.82-2.42.89-4.2,3.01-6.85,3.36-.07,0-.13.1-.2.14-2.14,1.46-4.34,2.83-6.4,4.39-1.76,1.34-3.78,2.31-5.31,3.99-1.09,1.19-2.27,2.43-3.67,3.17-1.39.74-2.3,1.61-2.51,3.03-.81,0-1.47.05-2.11-.01-1.3-.12-1.76-1.2-2.04-2.2-.14-.52.16-1.46.58-1.78,1.61-1.25,3.37-2.31,5.05-3.47,2.52-1.73,5.03-3.47,7.53-5.22.26-.18.42-.5.63-.75-.31-.19-.59-.46-.92-.57-2.48-.83-3.39-2.27-2.46-4.16.44-.9,1.08-1.73,1.75-2.49.66-.75,1.56-1.3,2.19-2.08.97-1.18,1.79-2.48,2.69-3.72,1.29-1.77,2.63-3.5,3.87-5.3.4-.58.69-1.28-.08-1.93-.44-.38-1.04-.87-1.09-1.35-.15-1.51-1.35-1.26-2.22-1.46-.86-.19-1.92-1.24-1.9-2.12.03-1.42-.93-2.12-2.09-1.4-1.06.66-2.11.96-3.36,1.05-1.59.11-3.15.63-4.72.97-1.07.23-2.14.46-3.15.68-.16.19-.31.56-.55.61-2.48.58-4.62,1.85-6.73,3.2-.69.44-1.24,1.12-1.95,1.52-1.82,1.03-3.94,1.61-5.14,3.54-.08.14-.35.2-.55.22-2.2.28-3.51,2-5.07,3.24-2.06,1.65-3.93,3.52-5.87,5.31-.15.14-.19.39-.28.6.21.04.42.14.62.11,1.45-.16,2.9-.55,4.33-.48,1.3.06,2.61.52,3.85.97,2.25.82,2.61,2.5,1.44,4.6-1.01,1.81-3.06,2.06-4.37,3.39-.67.69-1.8.91-2.62,1.49-1.24.89-2.39,1.92-3.58,2.88-1.63,1.31-3.33,2.54-4.86,3.95-1.97,1.82-3.83,3.78-5.69,5.72-.48.49-.82,1.12-1.22,1.68,1.28-.54,2.05-1.52,3.7-1.38,1.47.13,3.02-.77,4.54-1.19.98-.27,1.97-.52,2.97-.71,1.82-.35,3.64-.65,5.15-.91.66.35,1.22.9,1.69.83,1-.14,1.48.42,1.65,1.09.25.99.45,2.11.24,3.08-.36,1.65-1.14,3.21-1.58,4.85-.62,2.33-1.08,4.71-1.65,7.05-.14.58-.59,1.11-.66,1.68-.16,1.42-.13,2.86-.27,4.29-.27,2.81-1.13,5.6-.24,8.52,1.19-.63,2.4-1.13,3.45-1.86,2-1.41,3.91-2.97,5.86-4.45.19-.15.43-.26.67-.32,2.72-.61,4.52-2.63,6.48-4.33,1.26-1.1,3.01-1.5,4.29-.43.83.69,1.59,1.46,2.06,1.9-.53,1.49-1.12,2.68-1.36,3.94-.24,1.26.05,2.63-.25,3.87-.22.92-.36,1.7.03,2.57.09.19,0,.47-.02.71-.11,1.4-.26,2.8-.31,4.2-.01.37.22.79.44,1.11.57.79,1.2,1.54,2.03,2.6.66-.83,1.33-1.52,1.82-2.32,1.55-2.53,2.89-5.19,4.59-7.6.67-.95,1.11-2.18,2.52-2.73,1.94-.76,4.02-.51,4.4,2.18.09.63.61,1.2,1.04,2,.16.77.38,1.83.6,2.88ZM87.76,362.57c1.32,1.13,2.58.46,3.81-.34,1.31-.84,2.59-1.74,3.92-2.55,3.03-1.85,6.11-3.63,9.13-5.5.68-.42,1.21-1.09,1.83-1.62.93-.79,1.93-1.49,2.79-2.34,1.06-1.05,2.7-1.49,4.16-.92,1.29.5,2.27,1.92,2.21,3.32-.01.3-.22.63-.43.87-1.53,1.88-3.37,3.53-4.15,5.95-.21.64-.74,1.18-1.12,1.77-.81,1.26-1.78,2.46-2.38,3.82-.8,1.8-1.2,3.78-1.97,5.6-1.13,2.69-2.72,5.16-3.52,8.04-.29,1.03-1.18,2.06-1.4,3.26-.17.92-.25,1.86-.41,2.79-.24,1.41-.38,2.86-.79,4.22-.66,2.18-1.44,4.32-2.28,6.44-.57,1.42-.22,3.01-1.41,4.41-.87,1.02-.88,2.82-1.14,4.29-.42,2.42-.75,4.85-1.08,7.28-.07.52-.04,1.08.1,1.57.05.17.76.37.89.25.43-.39.74-.9,1.07-1.39,1.19-1.76,2.3-3.59,3.57-5.29,2.07-2.77,4.27-5.43,6.36-8.18,1.02-1.35,1.86-2.83,2.9-4.17,1.72-2.24,3.53-4.42,5.31-6.61.71-.88,1.46-1.73,2.17-2.61.75-.93,1.5-1.85,2.22-2.81.88-1.18,1.71-2.38,2.57-3.57.44-.61,1.13-1.15,1.3-1.82.3-1.17.95-2.01,1.61-2.97.95-1.36,2.13-1.5,3.37-1.09,1.16.38,2.13,1.27,2.24,2.65.14,1.86-.6,3.87.97,5.47.05.05.05.16.09.23.69,1.3,1.39,2.6,2.05,3.91.18.35.19.8.4,1.12.32.49.67,1.04,1.15,1.33.67.4,1.23.04,1.59-.64.81-1.51,1.69-2.99,2.46-4.52.59-1.15,1.14-2.34,1.57-3.55.75-2.1,1.34-4.26,2.13-6.35.6-1.59,1.37-3.12,2.1-4.66.66-1.4,1.38-2.77,2.15-4.31-1.27-.3-2.28-.53-3.33-.78v-1.77c-.37-.13-.67-.23-.67-.23-.18-1.22-.63-2.29-.42-3.21.44-1.86-.26-3.45-.58-5.16-.22-1.19-.13-2.44-.12-3.66,0-.46.26-.92.23-1.37-.07-.99-.23-1.97-.42-2.94-.04-.21-.44-.56-.57-.52-.57.18-1.13.43-1.63.75-2.27,1.5-4.55,3-6.78,4.56-2.41,1.69-4.74,3.46-6.23,6.11-.93,1.66-2.52,1.72-4.24,1.62-1.24-.07-1.17-1.11-1.47-1.73-.63-1.29-1.11-2.66-.23-4.13.44-.74,1.03-1.81.79-2.46-.59-1.59.16-3.04.09-4.55-.09-2.03.19-4.08.35-6.13.06-.78.24-1.54.35-2.31.2-1.39.47-2.77.56-4.16.06-1.02-.09-2.03.76-2.84.21-.19.26-.59.3-.9.06-.43-.01-.87.07-1.29.27-1.33.6-2.65.85-3.99.04-.2-.2-.65-.33-.66-.8-.06-1.58-.9-2.44-.03-.2.2-.72.19-1.07.13-1.5-.24-2.95-.5-4.36.45-.41.28-1.1.15-1.66.21-1.03.11-2.08.14-3.09.35-.84.18-1.62.58-2.44.86-1.41.48-2.68,1.11-3.55,2.44-1.84,2.82-3.83,5.53-5.63,8.38-1.31,2.07-2.58,4.21-3.54,6.45-1.48,3.45-2.7,7.01-4.01,10.53-.37.99-.63,2.01-1.01,2.99-.29.73-.8,1.38-1.02,2.12-.59,1.96-1.07,3.95-1.63,6.05ZM395.35,115.06c.92,1.54,1.25,1.57,2.92.89,1.39-.56,1.2-1.44.7-2.45.56-.34,1.26-.54,1.54-.99.54-.89.83-1.92,1.3-3.08-1.03-.35-2.13-.74-3.41-.66-1.24.08-2.39-.22-3.12-1.39-.1-.17-.27-.29-.41-.44-.21.24-.42.49-.67.78-.49-.29-1.06-.64-1.64-.98.01-.09.03-.18.04-.26h1.52c-.9-1.69-1-1.72-1.94-1.08-.84-.18-1.51-.54-1.96-.36-.88.36-1.27-.12-1.76-.61-.52-.51-1.07-.98-1.58-1.49-.31-.32-.57-.69-.86-1.04-.32-.29-.84-.34-1.31-.54-.29-.12-.71-.48-.7-.7.11-1.78-.71-2.96-2.11-3.65,0-.51.15-1.26-.02-1.35-1.53-.78-.45-2.86-1.88-3.63.59-1.39-.65-2.2-1.07-3.26-.15-.37-.65-.8-1.03-.84-.36-.04-.77.4-1.16.62.07.11.14.22.21.33.15-.09.3-.22.46-.25.23-.03.47.02.71.03-.08.25-.11.69-.24.72-1.88.45-2.97,2.31-4.87,2.73-.29.07-.74.53-.71.78.15,1.64-1.29,1.8-2.47,2.69.68.08,1.1.13,1.61.19-.17.25-.37.69-.46.67-1.04-.23-2.01-.29-2.71.97-.09-.17-.17-.33-.26-.5.43-.52.87-1.04,1.52-1.82-1.3.18-2.42.29-3.52.51-1.67.33-2.6,2.23-4.48,2.15-.04,0-.08.15-.14.19-.91.47-1.79,1.1-2.76,1.34-.78.2-1.39.26-1.8,1.1-.22.45-.9.69-1.41,1.05-.18-.92-.34-1.67-.49-2.43-.13,0-.25.01-.38.02-.09.49-.35,1.02-.23,1.45.29,1-.31,1.08-.99,1.38-1.12.49-2.92.11-2.97,2.12,0,.07-.19.14-.44.33-.24-.57-.45-1.05-.66-1.54-.08.03-.16.05-.25.08v1.63c-1.15-.82-2.19-1.56-3.46-2.46-.24.47-.48.94-.71,1.4.97-.57,1.44-.37,2.64,1.19-.52-.07-.95-.13-1.63-.22.38.57.62.93.74,1.1-1.59,1.61-4.16,1.59-5.14,3.81-.43-.19-.82-.38-1.19-.55-.32.42-.57.73-.84,1.08-.24-.2-.47-.34-.61-.53-.6-.78-1.15-.07-1.63.13-.24.1-.36.71-.38,1.09-.03.62,0,1.26.12,1.87.22,1.14.18,2.4,1.37,3.16.27.17.42.65.47,1.01.23,1.81.37,3.63.62,5.44.06.48.58.94.53,1.38-.16,1.44.48,2.54,1.21,3.68.58-.48,1.07-.95,1.62-1.34.95-.68,1.92-.41,2.74.22.71.55,1.45,1.13,1.06,2.32-.33,1.02-.41,2.12-.58,3.02-.73.46-1.36.85-1.75,1.1,1.15,1.14,2.24,2.21,3.37,3.33.16-.06.61-.24,1.23-.47.14,2.68,1.9,2.06,3.58,1.78-.14.74-.13,1.14.77,1.07.47-.04,1.02.65,1.5,1.04.99.79,1.99,1.53,3.37,1.44.26-.02.56.06.8.18.77.39,1.31.93,2.44.88,1.29-.06,2.69.76,3.94,1.4,1.04.54,2.38.06,3.27,1.18.33.42,1.29.57,1.9.47.71-.11,1.21.24,1.7.48.59.28,1.02.88,1.59,1.4.05-.03.33-.24.47-.34,1.78.95,3.44,1.83,5.22,2.77.41-.7.69-1.23,1.02-1.73,1.52-2.38,3.06-4.76,4.58-7.15.19-.3.24-.88.45-.93,1.38-.34,1.23-1.64,1.99-2.57.09.56.18,1.12.27,1.68.1-.02.2-.04.3-.06-.15-.96-.3-1.92-.38-2.43-1.33-.71-2.3-1.23-3.27-1.74-.29-.17-1.02-.14-1.06-.3-.36-1.35-1.83-1.5-2.54-2.45-.41-.54-.94-1.21-1.53-1.34-1.36-.3-1.72-1.3-2.14-2.42-.92.85-1.56.65-2.13-.42-.23-.43-.78-.75-1.24-1-.89-.47-1.92-.72-2.72-1.3-1.09-.8-1.75-2.16-3.24-2.47-.21-.04-.38-.31-.55-.5-1.44-1.56-2.88-3.12-4.32-4.67-.08-.09-.23-.15-.35-.15-1.26-.1-1.86-1.02-1.42-2.21-2.63-.57-2.85-3.23-4.53-4.8.76-.36,1.25-.59,2.09-.98-1.26-.09-2.15-.15-3.04-.21,0-.07,0-.14,0-.2.55-.15,1.1-.29,1.65-.44,0-.11.01-.22.02-.33-.45-.07-.91-.15-1.49-.25.71-.81-.48-1.51.15-2.57.59-1,1.36-1.31,2.2-1.54,1.03-.28.84.61.81,1.24,0,.03.07.05.09.08.16.51.32,1.01.48,1.52-.13.07-.25.13-.38.2.38.33.75.66,1.1.96-.17.15-.47.41-.88.78.64.37,1.13.65,1.58.9-.19.31-.36.59-.53.88.3.17.62.31.89.52.2.16.33.41.48.63.26.38.51.78.63.96.43.62.66,1.01.95,1.35.24.27.59.44.83.7.76.81,1.35,1.95,2.28,2.38,1.28.6,2.21,1.49,3.21,2.38.73.65,1.36,1.41,2.13,1.99.81.61,1.9.9,2.58,1.61,1.1,1.15,2.14,2.3,3.72,2.77.35.1.91.12,1.01.34.62,1.42,2.09,1.75,3.14,2.6.65.54,1.28,1.1,2.02,1.73.42-.54.75-.96.9-1.15,1.3,1.26,2.55,2.48,3.85,3.74-1.15.64-1.38,1.69-.85,2.29.53-.82,1.09-1.68,1.7-2.63.21-.61.35-1.47.81-2.11.15-.21,1.12.17,1.93.31-.41-.47-.82-.94-1.3-1.49.12-.34.16-1.15.55-1.39,1.71-1.06,2.1-2.96,3.11-4.47.58-.86,1.19-1.71,1.68-2.62.18-.34.19-.89.03-1.23-.09-.19-.67-.19-1.04-.21-.23-.01-.47.09-.69.15-.82-.77-1.38-1.86-2.88-1.48-.7.18-2.01-1.44-1.98-2.3-1.07,1.11-1.92.4-2.82-.18-.99-.64-2.01-1.26-3.07-1.79-.29-.15-.76.08-1.15.08-.69,0-1.62.75-1.91-.61-.07-.34-.39-.63-.54-.85-.59.3-.91.47-1.27.65-.04-.73-1.75-.92-.06-2.16-1.34.21-2.32.45-2.74-.71-.03-.08-.23-.18-.32-.16-1.6.38-1.84-.97-2.49-1.87-.39-.53-.96-.93-1.61-1.56.35-.93-.7-.91-1.41-1-.11-.61-.03-1.27-.32-1.56-1.05-1.08-1.72-2.34-2.05-3.76-.2-.85-.65-1.77.72-2.48.88-.45,1.63.31,2.44-.54v2.45c.7,1.16,1.52,2.07,1.81,3.13.29,1.08,1.34,2.66,2.29,2.87.28.41.61.88,1.02.97,1.19.25,1.6,1.88,3.03,1.65.05,0,.14.18.19.29.47,1.02,1.2,1.45,2.18.92.43.37.73.79,1.12.91.97.3,1.78.65,1.85,1.84,0,.06.7.17.72.13.38-1.03.77-.49,1.23-.06.42.38.89.73,1.4.99.7.36,1.46.63,2.51,1.08.92.09,2.28.23,3.6.36-.08.38-.12.59-.19.94.47-.15.77-.24,1.12-.35ZM210.28,208.16c-.57.25-1.13.54-1.72.75-.57.2-1.25.2-1.74.52-2.52,1.62-5.03,3.27-7.46,5.02-.91.65-1.6,1.61-2.41,2.42-1.39,1.4-3.62,2.02-3.97,4.37-.02.12-.02.29-.1.35-1.63,1.25-2.99,2.74-4.01,4.53-.88,1.55-2.74,2.44-2.98,4.43-.02.16-.37.27-.52.44-.25.3-.5.6-.67.95-.34.68-.43,1.7-.97,2.02-1.44.86-1.35,2.94-3.03,3.5-.37,2.02-2.12,3.2-2.98,4.92-.27.54-.54,1.07-.83,1.59-.47.84-.96,1.66-1.42,2.51-.24.44-.29,1.08-.64,1.35-1.36,1.02-1.98,2.39-2.4,3.98-.25.96-.85,1.83-1.34,2.71-.5.91-1.32,1.73-1.55,2.69-.42,1.78-1.01,3.45-2.04,4.95-.53.77-1.09,1.46-1.02,2.51.03.37-.53.75-.75,1.17-.51.94-1.03,1.89-1.44,2.88-.11.27.26.72.21,1.06-.22,1.39.14,2.21,1.35,2.97.38.24.7.57,1.02.89.81.79,1.56,1.64,2.43,2.37.97.82,3.08.57,3.97-.38,1.19-1.26,2.35-2.54,3.58-3.75,1.04-1.03,2.19-1.96,1.99-3.26.84-.83,1.58-1.38,2.09-2.11.83-1.17,1.5-2.44,2.24-3.68.45-.74.77-1.6,1.35-2.21.88-.92,1.95-1.64,2.31-2.99.29-1.1.92-2.01,1.91-2.65.23-.15.36-.5.48-.78.82-1.9,1.81-3.67,3.5-4.97.7-.54,1.36-.71,2.25-.54.81.16,1.73.22,2.51,0,1.47-.4,3.14-.29,4.34-1.5,1.41.62,2.46-.41,3.68-.71,1.56-.38,3.21-.33,4.7-1.12.74-.39,1.63-.46,2.4-.8,1.43-.62,2.82-1.33,4.24-1.98.18-.08.41-.06.62-.07,1.5-.12,2.18-1.4,1.7-2.85-.22-.68-.74-1.42-.22-2.24.12-.18-.04-.54-.07-.81-.06-.65-.12-1.3-.18-1.95-.09-1.04.31-1.99.11-3.13-.29-1.66-.85-3.51.42-5.18.38-.49.67-1.67.42-1.9-.95-.86-.3-1.59-.18-2.44.32-2.24.59-4.49.72-6.75.06-1-.16-1.96.33-2.96.22-.46-.01-1.42-.39-1.83-.67-.72-.71-1.26-.11-1.84-.58-.33-1.07-.63-1.58-.9-.16-.09-.4-.21-.52-.15-1.27.67-2.25-.06-3.24-.67-1.34.98-2.8,1.21-4.39,1.24ZM163.09,299.16c2.48-2.51,6.01-3.02,8.41-5.36.09-.08.21-.12.32-.18,2.06-1.17,4.34-1.87,6.31-3.3,1.43-1.04,3.27-1.49,4.83-2.39,1.78-1.03,3.51-2.09,5.53-2.66,1.14-.32,2.09-1.24,3.19-1.74,1.98-.91,4.05-1.65,6.02-2.59,1.96-.94,3.83-2.08,5.78-3.05,1.86-.93,3.79-1.74,5.67-2.64.69-.33,1.33-.75,1.99-1.15.77-.47,1.49-1.05,2.3-1.42,1.69-.77,3.44-1.41,5.13-2.17.69-.31,1.25-.97,1.96-1.18,1.33-.38,1.82-1.33,2.05-2.5.27-1.36.18-2.86.73-4.08.69-1.54-.54-3.01.29-4.55.56-1.05.64-2.41.71-3.65.06-1.14-.58-2.21-.08-3.47.44-1.1.39-2.4.59-3.83-.78.07-1.69.08-2.58.25-1.21.24-2.41.9-3.58.82-1.6-.1-3.03.11-4.44.79-.14.07-.4.16-.46.1-.65-.66-1,.12-1.47.28-.28.1-.57.19-.86.26-.61.14-1.23.22-1.82.41-.99.31-1.93.76-2.93,1.03-1.43.39-2.9.66-4.35.99-1.23.28-2.46.58-3.69.89-.48.12-1.02.18-1.39.46-1.39,1.04-2.75,2.13-4.06,3.27-.42.37-.59,1-.97,1.43-1.1,1.26-2.33,2.43-3.37,3.74-1.23,1.54-2.36,3.17-3.46,4.82-.48.72-.63,1.67-1.14,2.36-1.24,1.7-2.59,3.32-3.92,4.95-.48.58-1.04,1.09-1.56,1.64-.67.71-1.41,1.37-1.99,2.14-1.11,1.49-2.14,3.05-3.16,4.6-.19.29-.19.69-.28,1.05-.05-.1-.11-.2-.16-.29-.66.33-1.34.63-1.99.99-.36.2-.7.45-.98.74-.5.51-1.06,1.01-1.38,1.62-.54,1.06-.64,2.34-1.93,2.97-1.82.88-1.82,2.98-2.59,4.5-.67,1.32-.06,3.2-1.3,4.51-.05.05.04.23.12.61ZM256.6,271.85c-1.77,1.79-3.35,3.57-5.12,5.15-1.47,1.31-3.18,2.36-4.75,3.56-1.85,1.42-3.66,2.89-5.5,4.32-.24.18-.61.19-.91.3-.56.2-1.16.36-1.67.64-.53.29-.97.75-1.48,1.09-1.13.76-2.25,1.55-3.44,2.2-1.02.56-1.67,2.12-3.27,1.32-.1-.05-.34.15-.5.25-1.2.78-2.42,1.54-3.6,2.36-.55.38-1.04.76-.8,1.69.22.83.33,1.65-.39,2.64-.8,1.1-.79,2.76-1.23,4.15-.28.87-.74,1.67-1.14,2.56-.06-.05.1.08.26.21-.6.29-.41,1.06-.64,1.34-1.67,1.98-2.59,4.67-5.35,5.65-.44.16-.82.75-1.03,1.23-.43,1.01-.71,2-1.91,2.53-.73.32-1.19,1.24-1.93,2.08.81-.18,1.44-.24,2.02-.45,2.18-.78,4.34-1.63,6.52-2.41.66-.23,1.42-.2,2.05-.47,1.41-.61,2.74-1.4,4.15-2.01,1.49-.65,3.04-1.16,4.55-1.77,1.54-.61,3.03-1.37,4.6-1.87,1.27-.41,2.66-.43,3.96-.79,1.51-.42,2.97-1.04,4.45-1.54.68-.23,1.37-.41,2.06-.61,2.88-.86,5.91-1.45,8.26-3.46,1.05-.9,2.12-2.11,2.5-3.38.48-1.64.38-3.49.34-5.24-.03-1.45-.37-2.88-.48-4.33-.07-.86-.01-1.73.07-2.59.06-.65.47-1.32-.48-1.72-.17-.07-.32-.7-.2-.91.73-1.24-.57-2.73.5-3.91.05-.06-.18-.35-.24-.54-.1-.34-.23-.68-.25-1.03-.07-1.14-.5-2.2-.04-3.46.23-.63-.39-1.67.32-2.45.02-.02-.18-.23-.24-.31ZM334.84,101.22c.5,1.12.91,2.01,1.3,2.9.38.88.83.91,1.54.3.54-.47,1.34-1.13,1.87-1.01,2.02.44,3.37-1.06,5-1.61,1.22-.41,2.27-1.37,3.71-1.31.29.01.62-.18.89-.35,1.29-.8,2.55-1.67,3.87-2.42.58-.33,1.33-.36,1.94-.65.96-.46,1.53-1.79,2.93-1.3.08.03.22-.1.31-.17,1.39-1.01,2.78-2.01,4.32-3.13-1.43-1.13-2.54-2-3.65-2.87-.06.09-.13.18-.19.26-.07-.32-.14-.65-.22-1.01-.31.13-.73.34-.75.31-.36-.59-.73-.64-1.21-.13-.04.04-.33-.07-.43-.17-1.32-1.43-2.91-2.43-4.7-3.18-1.06-.44-2.07-.99-3.1-1.49-.72-.35-1.45-.67-2.16-1.04-.56-.29-1.08-.64-1.62-.96-.11.09-.23.18-.34.27-.07-.7-.13-1.41-.23-2.11-.02-.17-.15-.36-.29-.45-.08-.05-.28.09-.43.14.41,1.09-.91.98-1.07,1.94-.33-.64-.51-1-.8-1.56-.1.46-.16.71-.28,1.22-.84-.59-1.6-1.12-2.46-1.72.37-.31.63-.53,1.16-.97-.84-.35-1.49-.63-2.14-.9.06.55.34.86.49,1.22.15.36.17.77.25,1.16-.09.05-.18.1-.27.15-.37-1.07-1.2-1.29-2.15-1.53-.92-.23-1.8-.71-2.77-.57-.83.12-2.01-.62-2.18.2.4,2,.68,3.39.97,4.85-.28.25-.64.57-.95.86.25.37.64.69.65,1.01.01,1.25.54,2.47.11,3.77-.16.49.2,1.16.32,1.74.13.63.47,1.32.33,1.89-.34,1.37.3,2.18,1.25,2.91-.81.94-.73,1.39.24,1.99.18.11.34.37.38.59.1.52.11,1.06.17,1.66-.15.12-.39.31-.77.61.58.32,1.03.58,1.16.65ZM391.76,103.15c1.71.33,3.49.68,5.35,1.04.03.07.06.49.22.55.91.33,1.83.66,2.78.83.76.14,1.65-.58,2.29.39.02.03.22-.06.34-.09.72-.19,1.55-1.56,1.7-2.35.14-.75.53-1.46.91-2.14.24-.43.65-.76.98-1.12-.51-.62-1.13-1.05-1.27-1.61-.37-1.49-1.59-1.93-2.73-2.46-.84-.39-1.77-.59-2.58-1.02-.51-.27-.83-.86-1.32-1.19-.59-.39-1.27-.64-2.02-1.01-1.24.67-2.31-.92-2.55-4.2-.36-.16-.71-.31-1.12-.48.83-.74.69-1.07-.26-1.4-.72-.26-1.61-.7-1.9-1.31-.61-1.28-1.54-1.36-2.65-1.19-.64.1-1.27.33-1.9.49-.06.01-.13-.07-.21-.1.04-.17.08-.34.13-.57-.76.16-1.46.31-2.15.45.01.11.02.21.03.32.51.03,1.03.06,1.54.09,0,.16.01.32.02.47-.65.03-1.31.09-1.96.09-.29,0-.59-.11-.89-.17.1.31.24.62.29.94.18.98,1.25,1.49.99,2.83-.29,1.5-.03,3.15.76,4.62.47.87.76,1.84,1.04,2.52,1.07,1.28,2.02,2.42,3.11,3.72h.74v1.37c-.71.06-1.31.12-2.02.18.22.41.37.69.6,1.13.88-.57,1.67-1.08,2.56-1.65-.01.93,2.2.64,1.15,2.03ZM403.81,89.21c-.67-.31-1.4-.45-1.82-.9-.51-.55-.5-1.61-1.66-1.43-.08.01-.27-.22-.29-.36-.16-1.23-.34-1.45-1.29-1.52-.14,0-.28.04-.45.06.11-.42.19-.73.24-.9-.79-.21-1.44-.38-2.27-.59-.14.11-.48.37-.97.75.5.12.81.2,1.12.28.5,2.58,6.14,7.98,8.8,8.39-.19-.93-1.65-1.62-.35-2.85h-1.39c.15-.43.26-.74.33-.93ZM381.76,91.34c1.3-.82.8-1.53.35-2.1-.17-.21-.76-.1-1.2-.14.04-.14.11-.42.18-.7-.42.14-.96.59-.89.7.45.77,1.02,1.48,1.56,2.23ZM383.36,149.48c-.62.36-1.48,1.02-1.6.92-.83-.81-1.08.32-1.57.45-.25.07-.3.85-.48,1.43.6-.51,1-.85,1.4-1.19.29.36.59.73.88,1.08,1.55-1.74,1.8-2.36,1.36-2.68ZM398.33,90.48c-1.57.95.32,1.57.32,2.4,0,.19.65.37,1,.56.13-.05.25-.09.38-.14-.99-1.03-.26-1.14.75-1.21-1.02-.67-1.73-1.13-2.46-1.61ZM397.03,117.12l.08.36c.77-.21,1.54-.51,2.33-.6.66-.07,1.34.11,2.18.19-1.82-2.27-3.14-.48-4.59.05ZM372.09,146.45c-.02-.08-.04-.16-.06-.24h-3.19c-.31.04-.66-.18-.99-.16-.16,0-.31.46-.46.7.94.09,1.7.16,2.46.23.03-.1.06-.2.08-.3.14.23.29.46.44.7.61-.33,1.16-.63,1.72-.93ZM350.62,138.57c.05-.11.09-.22.14-.32-.31-.08-.63-.23-.93-.21-.46.03-.92.25-1.38.25-.45,0-.9-.17-1.34-.26-.04.13-.08.27-.12.4.7.33,1.41.66,2.08.98.51-.27,1.03-.55,1.55-.83ZM328.79,76.44c-.9.77-1.59,1.36-2.3,1.97,1.3,1.91,1.56,1.98,2.42.57-.42.04-.86.09-1.43.15.46-.95.83-1.7,1.31-2.69ZM346.52,136.09c-.12-.02-.24-.04-.36-.06-.24.31-.47.63-.5.67-.72.06-1.18.1-1.64.15.02.11.03.22.05.33.51.12,1.12.11,1.51.4.36.26.48.84.71,1.27.12-.03.25-.06.37-.09-.05-.89-.09-1.78-.14-2.67ZM356.48,97.89c.89.18,1.4,1.33,2.18.24-.1-.54-.19-1.07-.34-1.9-.68.61-1.19,1.07-1.84,1.66ZM298.67,100.84c.58-.33,1.11-.64,1.76-1.01-.36-.31-.61-.53-.79-.68-.53.46-1.02.78-1.36,1.22-.24.31-.26.78-.35,1.19,0,0,.41.14.42.12.14-.3.25-.62.33-.84ZM380.22,178.74c.97-1.11.89-1.45-.45-2.44-1.28,1.12.29,1.58.45,2.44ZM230.62,167.3c.96-.72,1.77-1.32,2.58-1.92-1.98.03-2.36.32-2.58,1.92ZM395.03,87.04c.4-1.09-.07-1.64-.9-1.94-.13-.05-.6.32-.58.43.14.81.51,1.46,1.49,1.51ZM385.7,171.95c.49.12.87.26,1.26.29.19.02.49-.12.59-.28.1-.16.12-.51,0-.65-.21-.27-.54-.45-.83-.68-.4.51-.71.91-1.02,1.32ZM329.63,74.42c-.21-.09-.79-.54-1.06-.4-.58.31-.99.91-1.45,1.42-.03.03.12.33.22.36.16.03.38-.01.52-.11.57-.38,1.11-.79,1.77-1.26ZM284.62,254.86c-.45.3-.89.48-1.16.81-.2.25-.19.67-.28,1.02q1.78-1.4,1.43-1.83ZM390.72,133.53c-.59.44-1.04.78-1.48,1.11-.09,1.04.41,1.12,1.15.85.11-.64.2-1.19.33-1.96ZM411.13,96.9c-.07-.14-.14-.29-.21-.43-.61.34-1.22.68-1.82,1.02.17.24.38.55.65.93.47-.51.92-1.01,1.38-1.52ZM276.37,254.15c.03.22.06.45.09.67.5-.03,1.01-.03,1.51-.12.05,0,.01-.5.02-.77-.54.07-1.08.14-1.61.21ZM362.26,145.69c.12.02.25.05.37.07.15-.67.3-1.34.46-2.01-.4.12-.81.25-1.2.37.15.65.26,1.11.37,1.57ZM388.17,82.67q1.91-.78,1.05-1.56c-.36.53-.71,1.04-1.05,1.56ZM393.73,84.73c-.36-.74-.46-1.28-.71-1.36-.49-.16-1.3-.18-.94.7.13.32.91.39,1.64.66Z"/>
  <path class="cls-1" d="M144.78,245.92c-.4-.04-.97-.38-.95.85.02.92-.8,1.84-1.18,2.79-.48,1.22-1.86,1.89-2,3.32-.01.12-.07.25-.16.33-2.02,1.87-3.08,4.22-3.59,6.89-.08.43-.48.8-.73,1.19-.28.43-.6.84-.82,1.29-.07.14.11.4.18.6.17-.06.36-.09.51-.17,1.65-.92,3.32-1.81,4.94-2.79.8-.48,1.44-1.24,2.26-1.68,1.13-.59,2.37-.96,3.54-1.48.68-.3,1.29-.76,1.97-1.05,1.57-.68,3.17-1.3,4.75-1.97.96-.41,1.87-.9,2.84-1.29.43-.17.93-.16,1.41-.17.88-.25,1.78-.44,2.63-.77.64-.24,1.18-.76,1.82-.95,1.37-.42,2.62-.06,3.83.94-.54.9-1.09,1.81-1.66,2.72-.07.12-.25.22-.39.24-1.86.21-3.52.83-5.02,1.99-.4.32-1.2.07-1.73.29-2.31.95-4.59,2-6.89,2.97-1.21.51-2.47.89-3.66,1.43-.71.32-1.3.88-1.98,1.26-.45.25-.99.36-1.45.59-.32.16-.72.36-.86.66-.74,1.57-2.24,2.19-3.57,3.04-.89.57-1.73,1.21-2.55,1.87-1.27,1.03-2.5,2.11-3.73,3.18-.2.17-.29.46-.46.67-.24.3-.49.59-.76.86-.74.73-1.51,1.44-2.25,2.17-.55.54-.88,1.27-1.99.93-.66-.2-1.6.52-2.24.31-.63-.21-1.13-1.02-1.54-1.66-.38-.59,0-1.06.46-1.59.57-.65.89-1.53,1.31-2.32.02-.03-.01-.09,0-.12.84-1.11,1.69-2.22,2.62-3.44-.14-.79-.26-1.67,1-2.16.42-.16.57-.94.9-1.41.88-1.28,1.9-2.48,2.66-3.83.97-1.71,1.93-3.47,2.54-5.33.7-2.13,2.05-3.78,3.33-5.51.06-.09.15-.17.24-.23q1.11-.68.23-1.7c1.03-1.14,2.15-2.23,3.1-3.46.46-.59.55-1.45.91-2.14.79-1.51,1.67-2.98,2.48-4.48.7-1.29,1.36-2.6,2.02-3.91.17-.33.44-.72.37-1.02-.34-1.53.9-2.34,1.42-3.48.46-1,1.34-1.89,1.08-3.22-.08-.4.69-.92.96-1.44.3-.58.43-1.25.74-1.83.27-.5.6-1.06,1.06-1.35,1.68-1.08,1.93-2.75,2.08-4.51.03-.31.13-.62.24-.91.75-1.94,1.35-3.96,2.33-5.79.74-1.38,1.22-3.15,3.29-3.64,1.14.35,2.51.76,3.86,1.2,1.28.41,2.54.86,3.81,1.29.3.1.61.16.91.25.92.26,1.87.07,2.78.86.79.68,2.16.71,3.29.98,1.53.37,3.07.73,4.61,1.02,1.23.23,2.48.34,3.72.5,1.3.16,2.6.34,3.9.45.77.07,1.56-.02,2.33.06.35.04.73.27,1,.52.29.27.47.66.9,1.27-.7.36-1.35.77-2.05,1.03-1.42.52-2.83,1.23-4.41.69-.46-.16-.88-.47-1.46-.8-.54-.06-1.36-.06-2.13-.28-1.76-.49-3.41-1.37-5.38-.98-.83.16-1.79-.28-2.69-.48-1.11-.24-2.43-.21-3.27-.83-1.22-.9-2.66-.38-3.94-1.16-.92-.56-2.5-.96-3.83-.29-.22.11-.45.26-.58.46-.94,1.53-1.87,3.06-2.75,4.62-.22.38-.15.92-.33,1.33-1.05,2.43-2.09,4.86-3.21,7.26-.69,1.48-1.77,2.83-2.15,4.37-.37,1.48-1.04,2.6-1.93,3.75-.56.72-.77,1.71-1.16,2.57-.66,1.47-1.27,2.97-2.05,4.37-.45.8-1.25,1.39-1.78,2.16-.68.99-1.25,2.06-1.92,3.18Z"/>
  <path class="cls-1" d="M312.59,88.75c-.14-.48-.26-.91-.38-1.33.73-.69,1.41-1.61,2.49-.48.51-.92.77-2.12,1.48-2.5,1.28-.68,1.94-2.54,3.89-2.06.66.16,1.44-.13.94-1.17.99-.78,2.02-1.11,3.3-.23-1.56.91-3.02,1.77-4.37,2.55.15.45.25.76.36,1.08-.29-.06-.58-.18-.86-.17-.25,0-.61.07-.74.25-.51.7-.95,1.45-1.63,2.09.08-.39.15-.79.23-1.18-.08-.09-.17-.18-.25-.27-1.02,1.78-2.23,3.3-4.45,3.43Z"/>
  <path class="cls-1" d="M381.76,91.34c-.55-.75-1.12-1.46-1.56-2.23-.06-.11.47-.56.89-.7-.07.28-.15.56-.18.7.45.04,1.03-.08,1.2.14.45.56.96,1.28-.35,2.1Z"/>
  <path class="cls-1" d="M383.36,149.48c.43.32.18.94-1.36,2.68-.29-.36-.58-.72-.88-1.08-.4.34-.8.68-1.4,1.19.18-.57.23-1.36.48-1.43.49-.13.74-1.26,1.57-.45.11.11.98-.55,1.6-.92Z"/>
  <path class="cls-1" d="M398.33,90.48c.73.48,1.44.94,2.46,1.61-1.01.07-1.74.18-.75,1.21-.13.05-.25.09-.38.14-.35-.19-1.01-.37-1-.56,0-.83-1.9-1.46-.32-2.4Z"/>
  <path class="cls-1" d="M397.03,117.12c1.44-.52,2.76-2.32,4.59-.05-.84-.09-1.52-.27-2.18-.19-.79.09-1.55.39-2.33.6l-.08-.36Z"/>
  <path class="cls-1" d="M372.09,146.45c-.56.3-1.11.6-1.72.93-.15-.24-.3-.47-.44-.7-.03.1-.06.2-.08.3-.76-.07-1.52-.14-2.46-.23.15-.25.29-.7.46-.7.33-.02.68.2.99.16h3.19c.02.08.04.16.06.24Z"/>
  <path class="cls-1" d="M350.62,138.57c-.52.28-1.05.56-1.55.83-.67-.32-1.38-.65-2.08-.98.04-.13.08-.27.12-.4.45.09.9.26,1.34.26.46,0,.91-.22,1.38-.25.31-.02.62.14.93.21-.05.11-.09.22-.14.32Z"/>
  <path class="cls-1" d="M328.79,76.44c-.48.99-.85,1.74-1.31,2.69.57-.06,1.01-.11,1.43-.15-.86,1.41-1.12,1.34-2.42-.57.71-.6,1.39-1.19,2.3-1.97Z"/>
  <path class="cls-1" d="M346.52,136.09c.05.89.09,1.78.14,2.67-.12.03-.25.06-.37.09-.23-.44-.36-1.01-.71-1.27-.39-.29-1-.28-1.51-.4-.02-.11-.03-.22-.05-.33.46-.04.92-.08,1.64-.15.03-.04.27-.35.5-.67.12.02.24.04.36.06Z"/>
  <path class="cls-1" d="M356.48,97.89c.65-.59,1.16-1.05,1.84-1.66.15.83.25,1.37.34,1.9-.78,1.08-1.29-.07-2.18-.24Z"/>
  <path class="cls-1" d="M298.67,100.84c-.08.21-.18.53-.33.84-.01.02-.42-.11-.42-.12.09-.4.11-.88.35-1.19.34-.44.84-.76,1.36-1.22.18.16.43.37.79.68-.65.37-1.19.68-1.76,1.01Z"/>
  <path class="cls-1" d="M395.43,79.89c-.1.39-.1,1.02-.32,1.12-.5.21-1.11.17-1.67.18-.06,0-.12-.31-.18-.48.76-.19,1.11-1.4,2.16-.84,0,0,.02.03.02.03Z"/>
  <path class="cls-1" d="M380.22,178.74c-.16-.86-1.73-1.32-.45-2.44,1.34.99,1.42,1.33.45,2.44Z"/>
  <path class="cls-1" d="M230.62,167.3c.22-1.6.59-1.9,2.58-1.92-.81.6-1.62,1.21-2.58,1.92Z"/>
  <path class="cls-1" d="M395.03,87.04c-.98-.05-1.34-.7-1.49-1.51-.02-.12.45-.48.58-.43.83.3,1.31.86.9,1.94Z"/>
  <path class="cls-1" d="M385.7,171.95c.31-.4.63-.81,1.02-1.32.28.22.61.4.83.68.11.14.1.49,0,.65-.1.16-.39.29-.59.28-.39-.03-.77-.17-1.26-.29Z"/>
  <path class="cls-1" d="M329.63,74.42c-.65.47-1.2.88-1.77,1.26-.14.09-.36.14-.52.11-.1-.02-.25-.32-.22-.36.46-.5.88-1.11,1.45-1.42.27-.14.85.32,1.06.4Z"/>
  <path class="cls-2" d="M284.62,254.86q.35.43-1.43,1.83c.08-.35.07-.77.28-1.02.27-.32.71-.51,1.16-.81Z"/>
  <path class="cls-1" d="M390.72,133.53c-.13.77-.22,1.32-.33,1.96-.74.27-1.24.19-1.15-.85.44-.33.89-.67,1.48-1.11Z"/>
  <path class="cls-1" d="M411.13,96.9c-.46.5-.91,1-1.38,1.52-.27-.38-.48-.68-.65-.93.6-.34,1.21-.68,1.82-1.02.07.14.14.29.21.43Z"/>
  <path class="cls-2" d="M276.37,254.15c.54-.07,1.08-.14,1.61-.21,0,.27.03.76-.02.77-.49.08-1,.09-1.51.12-.03-.22-.06-.45-.09-.67Z"/>
  <path class="cls-1" d="M362.26,145.69c-.11-.46-.22-.92-.37-1.57.39-.12.8-.24,1.2-.37-.15.67-.3,1.34-.46,2.01-.12-.02-.25-.05-.37-.07Z"/>
  <path class="cls-1" d="M388.17,82.67c.35-.51.7-1.03,1.05-1.56q.85.78-1.05,1.56Z"/>
  <path class="cls-1" d="M393.73,84.73c-.74-.28-1.51-.34-1.64-.66-.36-.88.45-.86.94-.7.25.08.34.63.71,1.36Z"/>
  <path class="cls-1" d="M380.82,143.71c-.18.7-.43,1.67-.6,2.29-1.38.15-2.45.26-3.2.34-1.19-.59-2.18-1.1-3.2-1.57-.48-.22-1.13-.23-1.48-.57-1.01-.98-2.87-.5-3.49-2.09-1.13.65-1.51-1.49-2.72-.75-.13.08-.61-.31-.85-.56-1.1-1.11-2.94-.55-4.01-1.97-.78-1.04-2.02-1.76-3.1-2.56-.36-.27-.95-.24-1.31-.51-.61-.47-1.16-1.02-1.65-1.61-.97-1.17-1.91-2.38-2.81-3.6-.18-.25-.12-.67-.18-1.06-.37.12-.72.23-1.24.4.39-1.7-.62-2.54-1.65-3.38-.03-.03-.1-.03-.11-.06-.49-1.2-1.81-1.68-2.4-2.77-.18-.33-.12-.8-.18-1.2-.11,0-.23,0-.34,0,.13-.25.27-.49.4-.73-1.08-.78-1.87-1.61-1.12-2.99.05-.08,0-.24-.04-.35-.32-.89-.7-1.76-.93-2.67-.11-.43-.02-.98.15-1.4.31-.79.87-1.51,1.08-2.32.25-.94.75-1.05,1.55-.93.29.05.62-.08,1.07-.15-.28.46-.5.82-.75,1.23.35.18.66.34,1.25.63-.71.78-1.33,1.46-2.04,2.24.06.08.23.33.47.67.27-.32.46-.55.68-.81.2.95.39,1.86.58,2.78-.38-.04-.72-.07-.95-.1.55.67,1.12,1.37,1.8,2.21-.42.04-.67.06-.98.09.04.42.08.85.12,1.34.36-.04.71-.08.88-.1.86,1.35,1.7,2.57,2.43,3.85.87,1.54,2.19,2.59,3.48,3.73.59.52.88,1.37,1.39,1.99.56.69,1.19,1.34,1.86,1.92,1.07.92,2.67,1.55,3.16,2.69.48,1.11,1.35.86,1.87,1.37.68.67,1.41.83,2.27.91.29.03.56.31.84.47.56.32,1.11.86,1.7.9.95.07,1.78.04,2.17,1.16.07.19.74.14,1.12.25.64.2,1.39.29,1.88.69.65.53,1.14.82,2.08.76,1.11-.07,2.52-.49,3.32,1,.2.38.88.5,1.68.9Z"/>
</svg>