<?xml version="1.0" encoding="UTF-8"?>
<svg id="Livello_1" data-name="Livello 1" xmlns="http://www.w3.org/2000/svg" viewBox="0 0 489 489">
  <defs>
    <style>
      .cls-1 {
        fill: #fff;
        stroke-width: 0px;
      }
    </style>
  </defs>
  <path class="cls-1" d="M265.2,293.02c.11.33.26.81.43,1.34.46-.61.49-.96.12-1.34h-.55Z"/>
  <path class="cls-1" d="M358.59,305.44v-2.03s.01-.02.02-.04c1-.92,1.76-2.08,3.11-2.48,0-.32,0-.63,0-.95.67.1,1.14-.17,1.64-.65,2.95-2.86,6.75-8.23,8.92-12.76.17-.35.2-.84.46-1.06,1.94-1.59,3.11-3.83,4.8-5.57v-3.14c-.63-.63-1.14-1.38-1.85-1.78-.8-.46-1.56-.91-2.16-1.59h-2.71c-.44.45-.81.82-1.18,1.19h-1.59c-.05-.95-.79-.54-1.27-.63-1.6-1.53-3.64-2.17-5.72-2.47-.76-.11-1.24-.62-1.94-.72-.81-.11-1.63.26-2.43-.23-1.92-1.17-4.07-1-6.21-1.06-1.08-.03-1.82.81-2.9.7-3.07-.31-5.88,1.42-8.95,1.24-1.6,1.06-3.97.96-4.82,3.17-1.54.48-2.59,1.73-3.82,2.71-1.77-1.42-2.92-3.34-5.05-3.98.1-.4-.25-.54-.45-.76-1.95-2.16-4.49-3.65-6.51-5.76-.8-.83-2.07-1.34-2.78-2.32-.77-1.06-2.01-1.38-2.95-2.16-.68-.56-1.48-1-2.16-1.61-.85-.77-1.35-1.82-2.38-2.48-1.04-.67-1.82-1.74-2.72-2.63-.45-.44-.85-.95-1.37-1.27-1.92-1.16-3.64-2.55-5.28-4.08-1.12-1.03-1.8-2.62-3.52-2.93-.02-1.3-1.88-1.68-1.56-3.15,2.11-.05,2.16-1.74,2.54-3.17,1.71-.74,2.25-2.56,3.46-3.76,1.88-1.86,3.22-4.12,4.42-6.41,1.45-2.76,3.27-5.24,5.21-7.65,1.87-2.32,1.98-3.3.22-6.28.1-3.92-1.07-7.77-.67-11.72.03-.3-.68-.48-.58-1.12,1.06-.96.7-2.04-.27-3.19,1.36-.71.81-1.79.82-2.73-.57-.57-1.33-1-1.56-1.62-.61-1.71-1.98-2.41-3.44-3.06v-.94c-1.07-.23-1.67-1.09-2.41-1.78-2.02-1.9-3.89-3.94-6.16-5.61-4.87-3.56-9.53-7.4-14.35-11.03-.64-.48-1.43-1.15-2.44-.92.34-1.02,1.16-1.69,1.46-2.87.39-1.52,1.32-3.07,2.71-4.2,2-1.62,3.05-4.12,5.12-5.7.32-.25.09-.62.23-.84,1.39-2.21,2.7-4.49,4.91-6,.43-.31,1.33.43,1.41-.68,1.31,0,2.42-.8,3.83-.72,1.34.08,2.68-.81,4.14-.56.75.13,1.38-.49,1.95-.55,3-.28,5.83-1.67,8.9-1.36.33.03,3.66-1.06,4.01-1.26.97-.14,2.09.43,2.87-.61.89,1.11,1.67-.48,2.65-.07,1,.41,1.8-.59,2.73-.9-.09-1.81.36-3.7-.89-5.31-.66.27-.91-.65-1.35-.57-1.14.84-2.54.24-3.52,1.1-.24.21-.82.07-1.23.02-3.09-.35-5.88.99-8.8,1.55-2.61.49-5.08,1.67-7.81,1.64-.32,0-.57.22-.5.62h-2.55s-.01-.03-.02-.04c1.33-2.23,2.55-4.25,4.33-5.8,2-1.75,2.8-4.34,4.57-6.23.1-.11.01-.4.01-.61,1.11-.44,1.86-1.37,2.5-2.26,1.08-1.5,2.19-2.93,3.59-4.05,2.44-.29,4.99.62,6.52-.48,1.55-1.67,1.35-3.01,1.34-4.2-1.19-2-3.55-1.78-5.04-3.01-1.12.57-2.16,1.1-3.2,1.63.41.79-.76.94-.63,1.63.22,1.14-.59,1.83-1.04,2.72-.59,1.18-1.53,1.9-2.35,2.79-.42.46-.42.9-.42,1.41-1.01.37-1.91,1.2-2.19,2.01-.39,1.14-1.92,1.63-1.61,3.07-.1,0-.26-.04-.3,0-1.85,2.19-3.25,4.73-5.39,6.7-.15.14-.02.59-.02.9-2.82,1.62-3.95,4.8-6.45,7.25-.06.03-.12.05-.18.08-.33-1.31-1.04-2.02-1.04-3.24,0-1.35-.22-2.89-.91-4-.95-1.53-.89-3.07-.94-4.68-.01-.46.24-1.12-.63-1.13v-3.16c-1.19.26-1.9-.48-2.76-.69-.26.23-.49.44-.72.65-.21-.19-.44-.39-.66-.59-.88,1.32-2.41.1-3.47.89,0,1.69-.36,3.49.13,5.01.33,1.01.48,1.96.48,2.94,0,1.14.89,2.03.68,3.22-.31,1.75.34,3.45,1.01,4.95.39.87-.59,2.2.87,2.62v4.74c.39.6,1.25.83,1.29,1.91-2.13,1.62-3.15,4.4-5.54,6.03-1.74,0-3.7.45-5.29-.12-1.78-.63-3.45-.35-5.17-.5-.32-.03-.57.22-.5.62-.31,0-.73.13-.92-.02-2.5-2.02-5.04-4.01-7.43-6.16-1.8-1.62-3.41-3.45-5.6-4.6-1.08-1.62-3.1-2.22-4.18-3.85-.16-.24-.43-.46-.69-.58-.96-.45-1.91-1.06-2.92-1.23-1.4-.23-2.72.36-3.87,1.17-1.63,1.14-3.22,2.32-4.91,3.54.63,1.28-.65,2.25-.53,3.48-1.41,1.73-2.81,3.47-4.24,5.18-.32.39-.12.78-.19,1.16-2.09,1.08-2.68,3.27-3.8,5.07-.52-.08-.84.37-.93.66-.7,2.07-2.19,3.52-3.73,4.93-.46.42-.4.89-.41,1.38-2.45,1.46-3.48,3.99-4.86,6.54-.95-1.06-2.2-.82-3.41-.83-1.26,0-2.52,0-3.78,0-.07-.18-.16-.52-.21-.51-2.65.23-5.17-.8-7.79-.76-1.56.02-3.11,0-4.67,0-.06.07-.13.12-.2.16,0,0-.01,0-.02,0,.08-.04.15-.08.21-.16,0-.1.01-.3,0-.3-1.88-.26-3.67-1.01-5.6-.97-.84.02-1.72.15-2.51-.04-.72-.17-1.34-.62-2.01.04-1.81-1.13-3.82-.44-5.73-.64-.06.07-.13.12-.2.16,0,0-.01,0-.02,0,.08-.04.15-.08.21-.16.04-.58-.34-.63-.77-.63-1.22,0-2.44,0-3.66,0,.05-.62-.38-.62-.81-.64-1.42-.07-2.87.16-3.79-.04-1.15-1.52.64-2.67.03-3.4-.77-.92.25-1.18.16-1.78-.11-.7-.26-1.73.11-2.11,1.16-1.18,0-2.04-.16-3.05.2-.23.4-.46.6-.69-.71-.56-.52-1.75-1.48-2.18-1.72-.23-3.42-.19-4.87.97-.29.23-.56.18-.86.23-1.69.27-3.42.44-5.07.75-1.82.35-3.61.48-5.43.51-.44-.02-.65.2-.63.63-1.68,0-3.36.1-5.03-.04-.83-.07-1.26.56-1.94.67-2.4.17-4.78-.02-7.22.49-1.89.4-3.86,1.03-5.88.91-.06,0-.14.33-.21.51-1.85,0-3.7,0-5.55,0-.43,0-.83.04-.79.63-1.5.11-3.05-.33-4.48.61-.71.46-1.22-.58-1.92-.61-1.28.82-2.87,1.23-4.2,1.17-3.54-.16-6.95.81-10.46.75-.46,0-1.12-.24-1.13.62h-4.23c-.41,1.29-2.09,1.09-2.75,2.25.5,1.8-1.83,3.63.39,5.63-1.66.26-.55,1.64-1.35,2.26-1.18-.14-2.01.53-2.87.95.27,2.1,2.65,1.1,3.13,2.59-1.02.95-.37,2.14-.56,3.03.93,1.2,1.59,2.42,2.59,3.22.96.77,2.5.58,3.53,1.73,3.75-.72,7.48.89,11.33.55,1.07-.09,2.16-.24,3.27.52.77.53,1.97.08,2.77-.7.35.29.56.62.81.65.93.1,2.01-.18,2.76.21.78.4,1.51-.09,2.2.32.86.52,1.83.13,2.75.23,2.23.25,4.54-.56,6.71.6.41.22,1.29.24,1.51-.03.79-.92,1.75-.53,2.64-.56,4.46-.18,8.86,1.08,13.33.61.79-.08,1.11,1.02,2.02.73,1.85-.87,3.13-2.5,4.66-3.76,4.14-3.39,5.93-8.49,9.21-12.76,1.71-.34,3.37.14,4.71,1.64.36.4.79.13,1.18.22.9,2.04,2.16,3.92,2.56,6.19.17.94.64,1.83.98,2.74.37,1,.8,1.99,1.09,3.01.27.98,1.31,1.23,1.73,2.06.71,1.41,1.97,2.27,3.33,2.97,2.35,1.2,4.97,1.7,7.37,2.73,1.08.46,2.11.59,3.22.59-.07.38.2.67.46.61.97-.22,1.51.35,2.02.92-.09.41-.69.48-.58,1h-1.02c-.8,2.73-3.7,3.49-4.85,4.85-.9,1.68-.09,2.16.43,2.7,1.41-.79,2.82-1.57,3.54-3.11,4.14-3.07,7.11-7.27,10.56-10.99.56-.61.93-1.58,1.65-2.12.86-.65.94-1.85,1.78-2.43,1.43-.98,1.55-2.79,2.65-3.99,1.51-1.65,2.86-3.45,4.28-5.18,1.84-2.1,3.26-4.46,4.44-6.97,2.32-1.44,3.67-3.71,5.06-5.93.47-.74,1.61-1.13,1.27-2.31,1.99-1.88,3.58-4.07,5.07-6.34.98-.17.73-1.28,1.4-1.79,1.65-1.23,2.68-3.05,3.53-4.84.57-1.21,1.38-2.21,2.35-2.75,1.5-.84,2.54-1.98,3.49-3.3h.63c.43,1.11,1.53,1.64,2.18,2.53h1.35c.56.57,1.04,1.35,1.74,1.73,1.88,1.01,3.45,2.45,4.95,3.86,1.5,1.4,3.4,2.29,4.71,3.9.12.15.6.02.92.02,0,.31,0,.63,0,.94,1.78,1.12,3.65,2.17,5.01,3.8,1.68,2,3.9,3.35,5.84,5.01,1.18,1.01,2.49,2.34,4.36,2.3,2.21,2.95,5.45,4.68,8.24,6.93.45.36,1.08,1,1.9.68.25,1,.92,1.37,1.9,1.27-.02.63.57.81.88,1.19,1.94,2.39,4.67,3.92,6.75,6.15.9.96,1.94,1.68,3.14,2.17-.02.44.2.65.63.63-.15.96.33,1.58,1.15,1.89,1.13.41,1.75,1.19,2.12,2.31.23.69.71,1.29.87,1.56-.47,1.84-2.18,2.62-2.25,4.39-1.68,1.19-3.03,2.64-4.19,4.38-.54.81-.92,1.77-1.69,2.49-3.35,3.11-5.3,7.17-7.46,11.11-1.52,2.78-2.51,5.96-5.28,7.93-.84,1.98-2.84,3-3.98,4.68-2.18,3.19-4.26,6.44-7.18,9.02-.16.14-.32.28-.44.45-2.42,3.46-4.93,6.85-7.49,10.21-2.56,3.35-5.1,6.72-7.71,10.04-.32.41-.12.8-.21,1.18-.97-.3-1.56.7-2.54.7s-1.56-1-2.54-.7c-1.29-2.3-3.74-3.34-5.62-4.99-.82-.71-1.65-1.49-2.48-2.21-.46-.41-.9-.41-1.41-.41-.32-1.33-1.71-1.24-2.54-1.9,0-.31.13-.81-.02-.91-1.81-1.26-3.17-3.05-5.1-4.18-1.52-.89-2.74-2.2-3.73-3.63-1.52-2.2-3.27-4.09-5.73-5.22v-1.38c-1.43.58-1.51-1.08-2.54-1.15,0-.31.13-.76-.02-.9-1.8-1.71-3.21-3.9-5.68-4.8-.8-1.51-2.33-2.36-3.33-3.68-.97-1.26-2.6-1.81-3.36-3.28-.07-.13-.6-.02-.91-.02.02-.44-.2-.65-.63-.63-1.71-2.03-3.49-4.01-5.1-6.12-.53-.69-1.5-.62-1.86-1.37-.85-1.74-2.39-2.87-3.76-4.1-1-.9-2.33-1.61-4-.74.68,1.08,1.34,2.14,1.97,3.14-.21.3-.54.55-.54.8,0,1.74-.76,3.26-1.18,4.88-.54,2.1-.98,4.26-1.31,6.4-.32,2.06-.37,4.26.02,6.29.32,1.67.35,3.61,1.7,4.96,2.53,2.54,4.93,5.23,8.17,6.96.69.37,1.04,1.37,2.08,1.09,1.07,1.74,2.52,3.04,4.44,3.8v.63c-1.02,1.52-1.36,2.52-1.14,3.59.02.1.33.15.51.22-.03.82-1,.96-1.2,1.65.98.39-.08.94.09,1.32,1.21,2.86,2.05,5.85,3.9,8.47,1.42,2.01,2.99,4.03,4.07,6.17,1.96,3.88,4.77,7.52,4.88,12.17h-1.6c.05-.63-.39-.62-.82-.64-.96-.03-1.97.17-2.71-.37-1.62.51-2.31,2.3-4.14,2.5.28.7-.21,1-.63,1.42.35,2.92-.55,5.97.69,8.87-.06,4.25.81,8.44.71,12.72-.09,3.81-.71,7.69.56,11.45-.43,3.12,1.09,6.12.62,9.24-.33,2.19,1.1,4.19.64,6.39,1.15,1.13.08,2.79.72,3.8.89,1.41.46,2.44-.07,3.65-.11.26-.12.77.04.9,1.09.93.3,2.19.67,3.29,1.05.51,1.05,1.91,2.29,2.8,1.99.03,4.36-1.29,6.57.29,1.91,1.37,4.51,1.43,6.03,2.84.48,1.22-.08,2.19.41,3.05h2.2c.1-.83.52-1.38,1.12-1.81.29.68,1.09.47,1.64,1v8.27c.51.38.71.98,1.37.86,1.13-.53,1.2-1.76,1.76-2.62q-.79-2.54-.32-4.83c3.26,1.13,5.86,3.52,9.02,4.92,3.12,1.39,6.11,3.06,9.32,4.28,1.86.39,3.89-.38,5.67.9.55-.62,1.04-1.16,1.64-1.83.38-1.28-.51-2.57-.6-3.96-.09-1.47-.04-2.95,0-4.43,0-.39-.38-.53-.41-.78-.29-2.58-1.68-4.95-1.51-7.62.14-2.2-.79-4.06-1.9-6.14,0-.58.33-1.68-.07-2.2-.69-.89-.16-2.01-.63-2.59-.72-.89-.22-1.88-.61-2.62-.68-1.26-.25-2.65-.7-3.84-1.24-3.27-1.86-6.67-2.38-10.08-.14-.9-.83-1.53-.75-2.59.1-1.26.63-2.72-.56-3.85.3-1.2-.85-2.39,0-3.59-.99-.92-.75-2.16-.58-3.21.2-1.24-.76-2.03-.77-3.23,0-1.99-.67-3.91-2.08-5.41h-2.91c.03-.64-.63-.77-.88-1.23-.7-.03-1.41-.07-2.03-.09-.67-.67-1.26-1.26-1.82-1.82-.51-.15-1.03.17-1.51-.22-.46-.38-.69-1.08-1.43-1.07-.52,0-.92-.11-1.39-.44-1.36-.95-2.83-1.75-4.23-2.63-1.22-.77-2.34-1.5-3.2-2.64,0-.63.25-1.43-.04-1.87-1.37-2.1-.7-4.71-1.86-6.83.48-1.3-.78-2.28-.64-3.53.26-2.38-1.06-4.61-.64-7.01.06-.36-.73-.4-.42-.99.68-.23.38-.83.43-1.33.31,0,.8-.13.92.02,1.6,2.06,4.04,2.95,6.06,4.42.42,0,.84,0,1.26,0,.74,1.67,2.4,2.33,3.7,3.39,2.48,2.03,4.94,4.09,7.43,6.1.19.15.61.02.92.02.98,1.61,2.46,2.71,3.62,3.86.65-.14.88-.3.81-.69.39-.08.85.2,1,0,.53-.85.09-1.24-.32-1.52-3.64-2.46-7.07-5.16-10.19-8.27-1.05-1.05-2.22-2.04-3.8-2.25-.38-.87-.99-1.58-1.87-1.88-1.44-.48-2.61-1.44-3.75-2.3-.85-.64-1.81-.74-2.65-1.13.15-.9-.54-1.17-.9-1.64-1.02-.09-2.02-.1-2.88.61.1-1.23-1.07-2.22-.65-3.5-1.15-.93-.03-2.2-.53-3.35-.45-1.02.19-2.43-.81-3.27.58-1.29,2.27-1.61,1.99-3.19,1.34-.53.35-1.56.57-2.33-1.72-.4-2.34-2.32-4.01-2.65h-2.64c-.84.64-1.08,1.48-1.38,2.24.6,1.48,2.32,1.84,2.88,2.89v4.3c-1.18-.65-2.15-1.33-3.04-2.19-1.06-1.03-2.21-2.05-3.79-2.26,0-.31,0-.63,0-.94-1.46-.44-2.2-1.71-3.43-2.75,1.2-2.71,1.9-5.54,3.36-8.08-.67-.26-.37-1.11-.85-1.5-1.23-.04-1.98-1.29-3.22-1.31-.28.46-.9.62-.98,1.64.59,1.48,1.74,3.24,1.31,5.35-1.22.3-.39,1.28-.63,1.9-1.49.15-2.67-.42-3.69-1.47-.55-.56-1.01-1.33-2.01-1.07.02-.64-.52-.95-.91-1.18-2.43-1.48-4.17-3.71-6.21-5.61-2.59-2.42-3.28-5.6-3.67-8.92-.2-1.66.96-3.09.69-4.8-.21-1.28-.03-2.58.51-3.87.28-.68,1.03-1.33.72-2.23,1.46-.39-.05-1.94.96-2.48,1.24.96,2.05,2.39,3.48,3.12.25,1,.92,1.37,1.9,1.27.47,1.49,1.84,2.32,2.64,3.58.28.45.78.14,1.16.22-.1.67.09,1.18.65,1.62,2.54,1.98,5.06,3.99,7.59,5.99.15.69.58,1.11,1.27,1.27.3.61.43,1.5.92,1.8,3.19,1.92,5.37,4.92,7.91,7.49.95.96,2.01,1.82,2.96,2.78,1.09,1.1,2.01,2.4,3.43,3.15v1.27h1.27c1.02,1.7,2.38,2.93,4.44,3.17,0,.32-.14.78.02.92,1.55,1.36,2.71,3.09,4.54,4.2,1.63.99,3.09,2.31,4.47,3.64,1.32,1.28,2.75,2.36,4.32,3.28,2.21,1.3,4.29,2.69,3.78,5.78-.03.15.19.33.26.51.79,2.01.72,4.23.17,6.09-.69,2.3-.23,4.51-.36,6.74-.03.5.32,1.52,1.01,1.8h.81c.07.18.11.49.22.51,1.41.34,2.66.07,3.58-1.15,1.48-.68,2.31-1.97,2.97-3.34.32-.65.68-1.2,1.13-1.75,2.34-2.89,4.6-5.85,6.69-8.93.63-.93,1.47-1.71,2.1-2.42h1.93c.59.47,1.02,1.05,1.57,1.2,2.52.69,4.98,1.77,7.7,1.3-.05.62.38.61.81.64,2.57.14,5.03-1.07,7.62-.64.91-.99,2.34-.18,3.15-.71,1.22-.79,2.39-.44,3.58-.53,1.15-.09,2.31-.04,3.47-.01.71.02,1.52-.09,2.12.2,1.31.63,2.98.62,3.91,1.97.91,1.31,2.77,1.55,3.49,2.92.9,1.7,2.35,2.84,3.62,4.17,1.88,1.96,3.82,3.84,5.64,5.66-.1,1,.04,1.74-.54,2.55-.36.51-1.05,1.28-.75,2.18-.4-.07-.57.17-.63.5-.43,2.15-.84,4.3-1.27,6.45-.28,1.38-.34,2.9-.76,4.13-.94,2.7-1.49,5.52-2.51,8.15-.83,2.14-.47,3.91.09,5.83-.26.32-.71.52-.57,1.25,1.16.79.4,2.1.63,3.38-1.32.28-1.12,1.68-1.94,2.32,0,1.06,0,2.11,0,3.18.52.51,1.04,1.03,1.59,1.57h3.57c1.39-.73,1.9-1.95,2.44-3.16h3.21c.99-.49,1.8-.84,2.56-1.28,1.94-1.13,4.31-1.51,6.06-2.79,2.01-1.47,4.42-2.33,6.22-4.1.22-.22.8-.07,1.37-.09,1.15-1.91,3.39-2.59,5.13-3.94,1.71-1.32,3.78-1.92,5.64-2.88.99.71,1.56,1.92,2.78,2.41.68,1.33,1.85,2.25,2.93,3.2,2.06,1.82,3.31,3.89,2.75,6.61,1.24,1.24,2.36,2.36,3.57,3.57,1.22-.59,2.19.69,3.43.57,1.42,2.41,4.2,3.67,5.35,6.31.5-.03,1.02.2,1.49-.15-.06-1.33-.52-2.67-1.3-3.46-1.62-1.65-3.27-3.28-4.91-4.92-.41-2.66-1.09-3.53-3.17-4.13-1.33-2.22-3.4-3.79-5.07-5.71.02-1.19-.86-1.97-1.29-2.95-.55-1.26-2.13-2-1.82-3.98.52-.42,1.25-1.01,1.89-1.52ZM314.81,123.52c.99-.93,2.16-1.27,3.57-1.04.44.7.22,1.5.15,2.38h-2.89c-.38-.48-.96-.7-.83-1.35ZM296.34,148.46c1.95-.32,3.75-1.44,5.77-1.27.84.07,1.27-.54,1.94-.68,1.83-.39,3.66-.78,5.46-1.28.68-.19,1.5-.26,1.96-.92.07-.1.13-.2.18-.33h1.9c.68-.12,1.13-.73,1.96-.67,1.99.13,4,.04,5.98.04.3.46.91.63.94,1.22.03.66-.61.82-.93,1.33-2.1-.19-4.15.17-6.04,1.25-1.22-.07-2.35.16-3.51.59-.99.37-2.29-.47-3.17.67-1.57-.41-3.21.15-4.36.78-1.42.78-2.89.28-4.32.98-1.34.66-3.27.14-4.94.14-.01-.08-.01-.15-.02-.22,0-.01,0-.02,0-.03-.04-.84.42-1.48,1.2-1.61ZM285.22,148.36c-.1-.29-.21-.56-.2-.86.13-3.2-1.21-6.31-.55-9.48-.73-.45-.78-1.06-.69-2.15.02-.15.62-.32.9-.75h1.27c.95,1.92.87,4.24,2.24,6.28-.34,2.74.73,5.53,1.3,8.38.11.54.72.97,1.17,1.55-1,1.1-.95,2.78-2.31,3.44-.82-.01-1.22-.57-1.41-1.11-.63-1.75-1.1-3.55-1.72-5.3ZM157.61,168.38c.48-.48.93-.93,1.38-1.38,1.06-.85,2.11.32,3.26-.01,1.06-.31,2.27-.14,3.41-.18.43-.01.87-.01.82-.64h.63c.83-.14,1.4.24,1.72.82-.37,1.13-1,2.22-1.04,3.32-.08,2.74-1.46,4.89-2.59,7.26-2.98.06-5.87-.31-8.67,1.04-.74-3.87,1.28-6.95,1.07-10.24ZM144.71,176.08c.34-.5.89-1.76-.43-2.3.05-.78-.27-1.66.62-2.2-.17-.35-.7-.46-.62-.97.17-.06.48-.12.49-.2.05-.53-.85-.78-.39-1.51.18-.47,1.25.13,1.17-.83,2.63,0,5.26.07,7.88-.04.9-.04,1.54.34,2.26.67-1.05,1.36-.51,2.95-.63,4.44-1.23.22-.51,1.17-.6,1.77-.12.81-.03,1.65-.03,1.89-.67.9-1.09,1.46-1.47,1.97-.07.05-.15.1-.22.15-2.9-.58-5.52,1.21-8.5.35.3-1.01-.29-2.06.47-3.2ZM144.02,180.76h2.8c.97-.15,2,.33,2.93-.58.4-.39,1.37-.14,1.86.55.36-.39.69-.82,1.31-.52,1,1.17-.76,1.99-.4,3.09-2.76,1.74-4.79,4.18-6.8,6.95-2.61.16-5.38-.09-8.08-1.17-.64-.26-1.45-.07-2.19-.07-1.58,0-3.19-.17-4.74.05-1.52.22-2.71-1.01-4.18-.68.24-1.9,1.5-3.35,2.24-5.03.16-.36.23-.74.39-1.09,1.94-1.35,4.14-.72,6.24-.85h4.44v.63c-.6,1.09-1.45,1.93-2.54,2.54-.44-.02-.65.2-.63.63v.63c-.87.64-.87,1.26,0,1.9.89-.38,1.53-1.01,1.9-1.9.44.02.65-.2.63-.63.44.02.65-.2.63-.63,1.7-.92,2.67-2.63,4.18-3.8ZM120.1,176.51c-.1-.11-.26-.19-.47-.19-.03,0-.05,0-.07,0v-4.55c2.12.64,3.81-.84,5.76-.53,1.94.32,3.69-1.11,5.65-.63,1.04-.87,2.29-.59,3.49-.63,1.19-.04,2.44.24,3.49-.63,1.46.35,2.63-1.16,4.33-.46.3.78.04,1.82.11,2.82.03.43.03.85.64.8-.11.68-.76,1.1-.67,1.93.14,1.42.04,2.87.04,4.09l-.95.95c-1.47,0-3.03,0-4.58,0-.43,0-.85.02-.8.63h-4.76c-.29-.3-.59-.6-.91-.92.19-.21.38-.43.57-.65-.13-.14-.26-.29-.4-.43.81-1.95.24-3.98.44-5.89-.37-.37-.67-.67-.97-.97-.52.52-1.04,1.05-1.54,1.55,1.8,1.97-1,3.86-.03,5.58-.52.87-.93,1.56-1.39,2.31-1.9.29-3.94-.47-5.6,1.13-.76-.91-1.28-1.54-1.89-2.27.02-.72-.16-1.64.6-2.43.13-.13.11-.4-.06-.59ZM103.15,180.71c1.17-.93-.69-1.66.1-2.32.8-.67.35-1.55.47-2.33.75-.99,1.7-1.73,3.2-2.23,1.51.45,3.17-1.09,5.02-.66,1.91.45,3.55-.92,5.57-.62v8.04c-.18.18-.4.4-.8.8-1.38,0-2.94.12-4.49-.03-1.48-.14-2.81.31-4.15.7-1.31.38-2.7,0-3.81.69-.92-.54-1.67-1.59-1.12-2.03ZM105.79,188.2c-.15,0-.3-.28-.44-.42-.38.11-.48.7-1,.59.07-.65-.39-.6-.76-.54-.17-.14-.3-.26-.41-.4v-2.75c1-.05,1.58-.94,2.62-.77,2.65.44,5.18-1.09,7.85-.6.63.12.82-.55,1.3-.63.42-.07.85.01.8.62v.63c-.44-.02-.65.2-.63.63v.63c-.18.07-.48.11-.5.21-.09.38.19.44.5.42-.07.39.16.59.48.62.43.05.83-.03.79-.62.44.02.65-.2.63-.63.95-.05.54-.79.63-1.27.44.02.65-.2.63-.63.44.02.65-.2.63-.63h1.9c.5,0,1.02.11,1.39-.42.29-.42.77-.13,1.15-.21.42,0,.86.1,1.24-.02.57-.18.62.85,1.44.32-.02,0,.09-.5.49.04-.83,1.97-1.68,3.98-2.54,6-.81-.03-1.7.26-2.33-.74-1.45.94-3.05,1.11-4.61.41-1.03-.47-2.06-.49-2.98-.15-2.75,1-5.53.35-8.29.32ZM153.94,194.05c-4.18-1.28-8.43-.45-12.65-.45-.23,0-.46.34-.67.51-1.06-.6-2.1-1.12-3.19-.44-.8.49-1.45.63-2.19-.05-.19-.17-.58-.21-.86-.17-3.54.47-7-.49-10.48-.78-2.87-.24-5.79-.12-8.58-.63-1.84-.34-3.63-.55-5.45-.47-1.21.06-1.97-.64-3-1.02,3.08-.78,6.11-1.13,9.2-.92.89.06,1.88-.32,2.57.6.57-.92,1.5-.45,2.28-.61,1.69-.35,3.11.83,4.8.71,1.48-.1,3.06-.47,4.51.53.43.3,1.23.05,1.87.05.84,0,1.69-.01,2.53,0,.9.02,1.88-.22,2.58.63.67-.46,1.25-.41,2.03-.06.68.31,1.66-.17,2.26.68.07.1.41.04.61.01,4.06-.48,7.99,1.22,11.9.54.45.45.74.74,1.04,1.04-.28.43-.76.42-1.12.31ZM156.65,190.9c-2.51,0-5.12,0-7.74,0-.43,0-.86,0-.82-.63.39.1.62-.2.73-.44.54-1.2,1.47-1.89,2.53-2.65,1.03-.75,2.56-1.49,2.45-3.25,1.2-1.09,1.7-1.97,2.06-3.71,1.4-.31,2.98.26,4.34-.69.35-.24,1.26-.25,1.48,0,.86,1.01,1.93.42,2.89.59-2.82,5.2-4.14,6.99-7.92,10.78ZM171.93,174.9c-.11.53-.32,1.39-1.04,1.78-.25.14-.63.49-.59.67.44,2.01-1.31,3.06-1.97,4.57-.62,1.43-1.54,2.73-2.36,4.07-.21.34-.66.59-.75.95-.82,3.14-3.61,3.97-6.11,5.2.41-1.24,1.66-1.84,2.26-2.9.55-.98,1.6-1.56,2.02-2.58.53-1.29,1.59-2.1,2.47-3.09,0-.41-.15-.91.02-1.24.82-1.57,2.08-2.96,1.85-4.92,1.63-.98,1.25-2.86,1.83-4.29.73-1.81.95-3.82,1.33-5.76.3-1.5.32-1.55,2.55-1.86,0,3.4-.91,6.38-1.52,9.4ZM215.31,187.05s-.02.03-.03.05c-.44-.02-.65.2-.63.63s-.2.65-.63.63-.65.2-.63.63v.63c-1.68,2.1-3.36,4.2-5.04,6.3-.01.01-.02.03-.03.04-.44-.02-.65.2-.63.63-.65,1.21-1.54,2.23-2.54,3.17-.44-.02-.65.2-.63.63v.63c-.93.83-2.07.62-3.17.63-.07-.18-.15-.52-.22-.52-2.46.04-4.59-1.15-6.88-1.75-2.15-.57-4.08-1.28-5.9-2.66-1.09-.83-2.24-1.27-2.25-2.88,0-.31-.57-.58-.77-.93-.97-1.64-2-3.22-1.75-5.3.18-1.54-.48-2.91-1.37-4.17-.45-.64-.76-1.37-1.13-2.06-.22-1.07-1.44-1.36-1.81-2.31.31-.45,1.1.02,1.3-.69.52-.3.55.51.9.45,2.47-.36,4.83.56,7.24.8,2.42.24,4.9.12,7.25.59,1.6.32,3.17.48,4.77.53,2.56-.22,5,1.1,7.58.64.1-.02.26-.05.31,0,.99,1.22,2.34.48,3.51.6,1.29.13,2.43,1.11,3.81.66.43,1.35,1.66.22,2.44.84-.73,1.41-2.4,2.07-3.05,3.55ZM275.52,170.75c-1.49-1.38-3.78-1.97-4.68-4.84,2.54,1.37,4.88.67,7.3,1.04-.45,1.59-1.17,2.81-2.62,3.8ZM214.02,298.38c0-.94-.18-2.02.05-3,.25-1.04-.84-1.83-.14-3.01.46-.76.09-2.01.09-2.95.62-.41,1.14-.23,1.91-.21-.31,1.77.64,3.59-.58,5.33-.22.31-.29,1.04.14,1.45.34.32.48.63.44,1.09-.04.42,0,.84,0,1.26-.45.45-.67.67-.93.93-.29-.27-.57-.54-.97-.91ZM216.55,330.12c.07-1.03-.85-1.79-.67-2.91.18-1.13.35-2.44-.06-3.43-.33-.82-.16-1.64-.46-2.44-.34-.93-.1-2.08-.07-3.13.02-.55-.2-.93-.51-1.38-.54-.81.14-1.5.54-2.29-.87-1.09-.96-2.4-.47-3.68.61-1.6.54-3.09.02-4.71-.57-1.79-.14-3.66-.24-5.47.46-.05.72-.16.85-.08.35.22.64.52,1.06.88,0,.85-.05,1.79.01,2.72.15,2.24-.19,4.46.5,6.73.39,1.29.4,2.94-.33,4.53-.53,1.15-.59,2.84.21,4.18.18.29.28.55.23.85-.47,3.44,1.02,6.75.64,10.18-.33,3.01,1.06,5.9.63,8.91-.07.5.22,1.05-.38,1.67-.19-.38-.37-.73-.83-1.64.33-2.7-.93-6.03-.7-9.47ZM218.83,347.44c-1.48-1.7-.89-3.66-.82-5.56.74.83.43,1.84.41,2.75-.02.97,1.4,1.68.41,2.8ZM232.92,351.37c-2.06-.39-3.46-2.29-5.59-1.97-.94-1.14-2.24-1.91-3.51-2.44-1.06-.44-1.97-1.05-2.11-1.94-.2-1.28-1.53-2.51-.33-3.97.53-.65.51-1.65,0-2.28-.69-.88-.22-1.8-.39-2.68h2.23c.34.36.7.74,1.08,1.14,3.13.11,5.67,2.01,8.61,2.57v11.58ZM238,354.42c-.84-.51-1.75-.66-2.3-1.41-.58-2.17.55-4.54-.76-6.78,1.13-1.4.43-3.23.69-5.02.85.43,1.73.57,2.37,1.45v11.75ZM238.03,339.01c-1.25,1.03-1.91-.82-3.17-.28.5-4.04-1.04-7.65-.45-11.44.82.89,2.29.1,3.06,1.71v4.24c0,.73.14,1.5-.04,2.19-.2.76.86,1.33.39,1.81-.79.82.94,1.13.2,1.78ZM240.07,334.2c.33-.84-1.14-1.25-.24-2.12.62-.59-.23-1.64.6-2.46,1.38,1.13,3.49.39,4.82,1.87,1.94.01,3.28,2.05,4.81,1.53,1.94.28.67,2.12,1.99,2.41,0,.6,0,1.19,0,1.79,0,.43.09.78.63.75-.07,2.13-.09,4.26,1.27,6.09-.52,1.19,1.44,2.14.37,3.35-2.22-1.25-4.38-2.61-6.66-3.71-2.27-1.1-4.66-1.94-6.58-2.73-.94-1.47-1.2-2.84-1.08-4.28,0-.84-.23-1.78.06-2.51ZM258.76,363.3c-1.86-.36-3.6-1.2-5.3-2.08-1.48-.77-2.96-1.49-4.55-2-1.5-.48-3.09-.83-4.18-2.18-.15-.18-.78-.42-1.04-.43-1.74,0-2.39-1.22-2.94-2.51v-10.96c3.82,1.7,7.72,3.04,11.15,5.61.88,0,1.94,0,2.99,0,.73.83.69,2.08,1.6,2.85,0,.81-.21,1.73.06,2.47.27.74,1.07,1.45.89,2.22-.19.84.59,1.34.35,2.13-.27.92,1.06,1.58.59,2.57-.42.89,1.23,1.28.38,2.31ZM260.55,357.75c.37,1.6,1.61,3.07.63,5.26-.18-2.03-1.16-3.51-.63-5.26ZM260.06,356.53c-.6-1.04-.53-1.87-.1-2.87.5.98.39,1.81.1,2.87ZM249.77,304.37c.64,1.03.88,2.12,1.08,3.33.66,4.02.83,8.15,2.31,12,.16.43.14.8.16,1.2.05,1.31.32,2.58.55,3.87.73,4.22,1.84,8.34,2.66,12.53.22,1.13.98,2.16,1.19,3.29.21,1.11.05,2.3.05,3.18,1.18,2.19,2.06,4.16,1.92,6.47-.08,1.31,0,1.32.58,2.59-.12.39-.7.48-.76,1-1.08-2.36-1.86-4.78-2.72-7.16-.89-2.46-1.57-5.06-2.16-7.65-.35-1.54-.7-3.05-1.21-4.56-.5-1.48-.11-3.15-.59-4.81-.45-1.58-.05-3.48-.8-5.06-.75-1.57-.11-3.44-1.23-4.87.47-1.89-.39-3.66-.72-5.42-.61-3.21-.3-6.6-1.89-9.51.54-.66,1.11-.3,1.6-.42ZM240.81,298.63c1.66,1.16,3.47,1.87,4.9,3.58-.46,1.65.76,3.26.71,5.09.96.7.44,1.72.56,2.6.06.42.02.86.64.81v3.07c-3.29-1.05-6.27-2.3-8.88-4.34.41-3.65.89-7.29,2.07-10.82ZM238.74,319.33v-7.34c2.6.56,4.46,2.44,7.2,3.88h2.18c.61,4.83,1.55,9.51,2.62,14.27-.21.07-.42.13-.64.18-1.06-.02-1.98-.12-3-.45-1.37-.46-2.74-1.3-4.16-1.32-1.67-.02-2.57-.97-3.57-1.97.26-2.03-.6-3.84-.9-5.71-1.02,0-1.27.63-1.6,1.04-.48.99.58,1.51.61,2.3-.24.34-.46.66-.48.68-.44.9.55,1.01.18,1.78-1.19-.56-2.38-1.12-3.37-1.59-.45-3.58-1.06-6.95-.79-10.37.02-.19,0-.43-.1-.59-1.1-1.74-.37-3.52-.44-5.64,0,0,.01,0,.02,0,1.95,1.11,3.26,2.32,4.24,3.89-.15.15-.41.28-.43.44-.22,2.18-.19,4.36-.02,6.54,0,.09.34.15.52.22-.07.39.17.54.49.63.65.11.85-.5,1.41-.9ZM232.51,299.04c.24-1.39.5-2.76.53-4.17h1.27c.05.95.79.54,1.27.63.63.42,1.27.85,1.9,1.27h.63v1.27c.31.9-.75,1.39-.65,2.26.09.83-.03,1.68.03,2.52.09,1.26-.53,2.34-1,3.38-.31.68.42.75.2,1.24-1.62.56-2.63-1.06-4.28-1.28,0-2.35-.29-4.79.11-7.12ZM231.83,326.87c-.55,1.53.49,2.87.59,4.38.1,1.5-.51,3.11.54,4.52-.44.38-.67.9-.56,1.55,0,0,0,.01,0,.02-.01,0-.02,0-.03,0-1.81.01-3.46-.66-5.09-1.29-2.35-.91-4.74-1.77-6.92-3.36-.07-3.42.31-6.9-.79-10.2.88-.52,1.43-.49,2.16-.02.89.58,1.89,1.14,3.07.91.03.04.06.06.09.09.01.02.03.03.04.04.69.77,1.8.66,2.63,1.13.94.53,1.76,1.31,2.94,1.26.64-.03.78.63,1.34.94ZM231.3,311.32c-.33.46-.57.78-.9,1.23.72.91,1.11,1.96.24,3.08,1.24.95-.29,2.75,1.07,3.62-1.08,1.54-.57,3.16-.17,4.74-1.33.31-2.32-.93-3.59-.59-.13-1.33-1.44-.17-1.94-.95-.76-1.2-2.23-1.23-3.41-1.51-1.26-.3-2.13-1.52-3.52-1.34-.32-1.37.83-2.45.67-3.83-.16-1.35.32-2.85-.11-4.06-.93-2.65-.36-5.31-.56-7.95,1.03.13.3-1.13,1.11-1.28.37.19.85-.06,1.39.24,2.13,1.2,4.29,2.34,6.51,3.35,1.13.51,2.03.97,1.77,2.4,1.04.72.31,2.2,1.43,2.86ZM230.5,294.04v7.17c-.4-.07-.61.17-.62.5-.04.82-.01,1.65-.01,2.51-3.11-1.04-5.94-2.52-9.35-3.19-.76-.57-1.31-1.49-1.65-2.78-.3-1.13-.74-2.06.18-3.03-.54-.45-.67-.89,0-1.34-1.08-.69-.43-1.31,0-2.03.12-.2.08-.47-.11-.64-.11-.1-.26-.17-.49-.16v-3.85c2.01.16,3.03,1.72,4.52,2.37.52.22.44.83.59,1.31.51,1.7.95,1.79,2.91.8,1.45.57,3.15.7,4.02,2.34ZM210.85,255.56v-.63c.44.02.65-.2.63-.63h1.27c-.02.44.2.65.63.63.42.21.85.42,1.27.63-.02.44.2.65.63.63-.02.44.2.65.63.63,2.32,1.9,4.65,3.8,6.97,5.71.85,1.34,2.06,2.58,2.43,4.04.39,1.53.83,3.03,1.22,4.61-.82.58-.71,1.7-.43,2.46.91,2.44,1.34,5.02,1.61,7.51.27,2.53,1.38,4.82,1.49,7.33.02.39.18.84-.17,1.19-2.51-.11-3.59-.89-5.48-3.95,0-2.64-.74-5.09-1.94-7.42-.29-.56-.59-1.06-1.27-1.18v-.63c.02-.44-.2-.65-.63-.63.02-.44-.2-.65-.63-.63v-.63c.02-.44-.2-.65-.63-.63v-.63c.02-.44-.2-.65-.63-.63-.87-1.69-2-3.2-3.08-4.76-1.89-2.75-3.66-5.67-3.84-9.14-.05-.97-.99-1.6-.69-2.58.44.02.65-.2.63-.63ZM293.89,247.96c-.23,1.6,1.16,2.27,2.07,2.88.94.63,1.69,1.46,2.61,2.07.92.61,1.57,1.51,2.54,2.08.96.57,1.76,1.5,2.48,2.39,1,1.22,2.55,1.68,3.59,2.86.95,1.07,1.86,2.25,3.19,2.93.51,1.51,2.09,1.91,3.15,2.69,4.99,3.66,9.6,7.73,13.92,12.18.03.68.18,1.4-.14,2.19-.37.02-.78.05-1.37.09-.87-.87-2.32-1.68-2.65-2.82-.39-1.35-2.46-.92-2.13-2.56-2.07-1.6-4.23-3.1-6.18-4.83-2.03-1.8-4.6-2.78-6.56-4.72-1.98-1.95-4.18-3.68-6.23-5.58-2.54-2.35-5.43-4.32-7.93-6.75-2.18-.43-3.2-2.47-4.89-3.5-1.74-1.06-2.87-2.63-4.22-3.71v-3.83c1.8.94,3.48,1.5,4.52,3.22.93,1.53,2.76,1.88,4.23,2.7ZM264.58,277.54c-.58.59-.52,1.73-1.73,1.83-.41.03-.56.7-.7,1.25-.48,1.87-1.52,3.4-2.9,4.74-.66.15-.9-.42-1.5-.92.39-2.44-.72-5.13.63-7.7.13-.25.14-.69,0-.93-1.42-2.46-.07-5.14-.7-7.32,1.39-3.32,4.46-4.89,6.02-7.69.28-.49.41-.9.41-1.42,1.71-.46,2.14-2.18,2.9-3.37,1.03-1.62,2.35-2.95,3.43-4.5,1.66-2.38,3.72-4.47,5.14-7.03.39-.71,1.11-1.27,1.77-1.79.84-.66,1.35-1.53,1.74-2.45.33-.77.77-1.39,1.36-1.97,2.11-2.05,3.99-4.26,5.24-6.99.33-.72,1.02-1.37,1.7-1.8,1.46-.93,2.41-2.26,3.04-3.76,1.3-3.08,3.23-5.82,4.79-8.75.88-1.67,2.21-3.15,3.53-4.53,1.35-1.42,2.2-3.23,3.74-4.49.48-.39.62-1.19.92-1.81.8-.05.97-.98,1.66-1.2.91,1.78,1.13,3.72.81,5.62-.14.81,1.13,1.21.26,2.11-.86.88,1,1.4.52,2.52-.26.61-.44,1.68.25,2.35.63.62-.13,1.74.81,2.12-1.02,2.86-3.02,5.09-4.77,7.44-1.2,1.61-1.72,3.53-3,5.12-1.51,1.88-2.75,3.99-4.53,5.68-.54.51-1.11.98-.89,1.84-.9,1.26-2.23,2.2-2.77,3.73-1.9-1.21-3.65-2.6-5.06-4.34h-2.02c-1.97,1.97-2.61,4.54-2.9,7.06,1.06,1.58,2.59,2.31,3.79,3.24.42,1-.27,1.62-.54,2.35-.99,1.1-1.93,2.25-3,3.27-.55.52-.73,1.17-1.08,1.77-.83,1.4-1.57,2.82-3.05,3.72-.66.4-1.4.99-1.12,2.02-1.37.51-1.9,2.12-3.23,2.63-.59-.45-1.21-.71-1.2-1.44,0-.53-.16-.93-.44-1.4-.24-.4.62-.85.46-1.53-.13-.59-.03-1.22-.03-1.77-2.23-1.6-3.17-1.29-6.33,1.97v1.87c.53.53,1.05,1.05,1.64,1.64,1.22-.6,2.19.68,3.42.57-.51,1.45,1.88,1.78,1.29,3.2-1.88,2.76-3.59,5.55-6.14,7.67-.41.34-.14.79-.22,1.18-.52,0-.97-.03-1.42.42ZM321.39,282.64c-.16-.64-.63-1.29-1.28-1.8-1.15-.91-2.17-1.94-3.11-3.07-.94-1.13-2.09-2.08-3.1-3.16-2.25-2.39-5.03-3.92-8.1-4.87-1.9-.59-4.05-.57-5.88-.08-1.94.51-3.95.5-5.85,1.11-.39.13-.86.03-.81.65h-2.54c-.38.08-.86-.21-1.15.21-.36.53-.88.42-1.39.42h-3.17c.05-.62-.39-.58-.81-.64-3.3-.51-6.32-1.64-8.71-4.1,1.23-1.27,2.82-2.32,3.11-4.1.16-1.02,1.55-.25,1.34-1.3.5-1.27,1.81-1.84,2.54-2.91v-1.52c1.32-.68,2.42-1.76,3.09-2.96.69-1.23,1.66-1.96,2.53-2.92,3.4,2.55,6.98,4.49,9.69,7.56.35.4.79.13,1.17.22.39.99,1.21,1.6,1.9,2.35,2.59,2.84,5.87,4.81,8.78,7.21,1.89,1.56,3.93,3.05,6.01,4.43,1.12.73,2.01,1.82,2.94,2.81.92.97,1.93,1.76,3.19,2.22.01,1.73,1.35,2.45,2.58,3.13.48.27.75.69,1.3,1-.6.48-1.16.94-1.72,1.39-.71-.35-1.57-.78-2.54-1.26ZM319.88,319.59h-.63c-1.28-.67-.19-2.21-1.12-3,.81-.84.63-1.58-.11-2.4-.21-.23-.22-.97-.01-1.2,1.18-1.28.33-2.8.6-4.17.11,0,.3.01.3,0,.29-2.07,1.39-3.86,2-5.81.41-1.32.72-2.78.76-4.07.11-3.59,1.86-6.66,2.64-10.01,2.33-2.16,2.94-5.63,5.85-7.45.98-.61,1.72-1.92,2.5-2.96.59-.78,1.32-1.32,2.01-1.94.68-.61,1.36-1.15,2.17-1.61,1.98-1.13,4.91-2.01,6.96-2.33,2.26-.36,4.62-.17,6.78-1.16.26-.12.63.02.92-.06,1.09-.28,1.75.96,2.91.7.83-.19,1.71.12,2.62.45,1.04.37,2.19,1.01,3.49.8,1.03-.17,1.88.34,2.45,1.24-1.84-.07-3.52,1.19-5.27.6-1.86,1.26-3.56,2.48-6,2.61-.48.57-1.08,1.29-1.69,2-2.39.82-4.11,2.57-6.11,3.84-2.1,1.34-3.26,3.73-5.67,4.58,0,.53,0,1.05,0,1.58h1.12c1.75-2.65,4.8-4.05,6.96-6.46.66-.74,1.68-1.46,2.44-1.66,1.44-.37,2.5-1.09,3.68-1.87,1.1-.73,2.65-.77,3.79-1.47,2.21-1.36,4.52-2.09,7.09-1.84.28-.52.95-.65.92-1.29,2.16.19,3.78,1.55,5.8,2.66.67-.63,1.41-1.31,2.15-2,.27.43.88.59.97,1.59.02.25-.63.4-.91.86-4.1.11-7.97,1.43-11.72,2.91-4.25,1.68-8.6,3.27-12.33,6.04-1.47,1.09-2.88,2.26-4.23,3.49-1.32,1.2-2.56,2.5-3.81,3.78-2.28,2.34-4.64,4.55-6.33,7.47-1.55,2.68-3.79,4.97-5.72,7.43-1.15.1-1.99-.9-3.27-.66,2.54-3.53,5.17-6.65,7.11-10.27.65-1.21,1.87-2.11,1.87-3.65.44.02.65-.2.63-.63.44.02.65-.2.63-.63.44.02.65-.2.63-.63.44.02.65-.2.63-.63,1.02-.56,2-1.14,1.9-2.54-.98-.1-1.65.27-1.9,1.27-.85.63-1.69,1.27-2.54,1.9-.44-.02-.65.2-.63.63-.44-.02-.65.2-.63.63-1.48,1.95-3.32,3.72-4.34,5.89-1.1,2.31-3.02,3.94-4.16,6.14-1.14,2.2-3.44,3.6-4.23,6.01.57.49,1.34.33,1.57.85,1.66-.63,1.69-2.83,3.17-3.39,1.54-.22.44,1.64,1.64,1.63-2.49,2.46-4.79,5.06-6.34,8.24ZM356.65,301.84c-.44-.02-.65.2-.63.63-.44-.02-.65.2-.63.63-.08.39.2.85-.42,1.33-2.38-1.22-3.65-3.41-4.85-5.71,1-1.16,1.85-2.18,2.74-3.17.93-1.03.23-2.59,1.18-3.64-.89-1.05-1.87-1.21-3.21-.48-2.05,1.12-6.22,4.48-7.45,6.59-.66,1.12-1.74,1.77-2.5,2.86v2.09c.86.09,1.72.44,2.39-.17.68-.61,1.4-.19,2.23-.4,1.67,1.41,2.47,3.65,4.58,5.03-4.56,3.02-8.76,5.95-13.11,8.63-4.32,2.66-8.96,4.71-14,6.92.4-1.66-.55-3.08.68-4.4.26-.28.04-1.02.04-1.55,1.36.37,1.36-1.49,2.47-1.52,1.42-2.78,3.61-4.93,5.81-7.07,1.59-1.56,2.57-3.56,3.74-5.41,1.19-1.87,3.76-4.91,5.54-6.45,1.27-1.1,2.34-2.43,3.6-3.54,3.52-3.11,7.16-6.03,11.57-7.9.84-.36,1.57-.31,2.36-.45.65-.28.87-1.15,1.67-1.26,1.14.08,2.08-.59,3.08-.93,1.73-.59,3.4-1.26,5.43-.84q1.2.96,2.87,1.31c-1.8,1.8-2.06,4.32-3.44,6.37-1.37,2.04-2.99,3.94-4.13,6.13-.44-.02-.65.2-.63.63-.44-.02-.65.2-.63.63-.69.15-1.11.58-1.27,1.27-.44-.02-.65.2-.63.63-.44-.02-.65.2-.63.63-.42.21-.85.42-1.27.63-.44-.02-.65.2-.63.63-.44-.02-.65.2-.63.63-.44-.02-.65.2-.63.63h-.63Z"/>
  <path class="cls-1" d="M234.82,180.59c-.65.52-1.21,1.16-1.78,1.71v1.94c.97,1.06,2.03,2.33,3.49,2.14,1.17-.16,2.6-.32,3.47-1.48v-3.04c-.97-1.48-2.56-1.33-3.43-2.31-.59.34-1.22.63-1.75,1.05ZM237.16,182.66c.36.3.4.65.15,1.16h-1.77c.45-.71.8-1.25,1.62-1.16Z"/>
  <path class="cls-1" d="M231.71,187.97c-.7-.47-1-1.37-1.86-1.53-.66.34-1.26.64-1.7.87-.49.99-.92,1.85-1.36,2.75.43.43.95.95,1.62,1.62,1.19-.36,2.22-.67,3.29-1v-2.71Z"/>
  <path class="cls-1" d="M253.32,165.54c-.46-1.12-.99-.61-1.64.06-.25-.98-1.46-.48-1.84-1.33-1.47,0-2.93,0-4.34,0-.95.5-1.35,1.54-2.4,1.93-2.04.76-3.5,2.23-4.36,4.26,0,1.36-.02,2.73.01,4.09,0,.29.2.5.61.36,0,.18,0,.36,0,.54.03-.04.05-.07.08-.11-.11,1.06-.02,1.93,1.21,2.24.08.39-.16.8.21,1.17,1.01,1,1.97,2.05,3.62,2.63h2.51c.48,1.36,1.58.45,2.36.59,1.09.2,2.08-.21,2.71-1.23.5-.08,1.2.29,1.3-.69.04-.42.39-.81.61-1.22.44.02.65-.2.63-.63v-1.27c.64.03.76-.63,1.23-.88.17-1.46.2-2.92.56-4.4.5-2.1-.65-4.16-1.34-6.13h-1.71ZM253.93,172.86c-1.15.87-.31,2.13-.67,3.09-.81,1.4-1.55,2.84-3.11,3.54-2.33,1.1-4.56,1.03-6.64-.61-.21-.16-.34-.43-.57-.57-.05-.03-.11-.05-.17-.06-.07-.02-.14-.04-.23-.03-.37-.69-.78-1.36-1.1-2.07-.72-1.56-1.42-3.12-.18-4.78.15-.2.02-.62.02-1.02,2.03-2.23,4.15-4.4,7.61-4.18h.63c-.02.44.2.65.63.63h.63c-.07.39.16.59.48.62.43.05.83-.03.79-.62h.63c-.02.44.2.65.63.63v.63c.24.62-.59,1.6.63,1.9.45.96-1.64,1.9-.03,2.88Z"/>
  <path class="cls-1" d="M256.49,197.87h-.95c-.53,1.69-1.91,2.88-3,4.08-1.86,2.07-3.39,4.44-5.48,6.31-.38.33-.52.86-.77,1.25-2.28,3.5-4.64,6.95-7.08,10.33-.43.6-.43,1.11-.47,1.7-2.51,2.62-3.87,5.96-5.65,9.04,1.11.85.3,2.14.66,3.21.41.22.54.89,1.19.86-.28,1.04.55,1.49,1.11,2.06,5.2,5.26,10.99,9.91,16,15.37.28.31.58.61.89.89,1.01.9,2.13,1.51,3.54,1.33-.07.38.17.53.47.63.7.24,1.14-.45,1.52-.7,1.1-.73,2.51-1.38,2.45-3.1,1.42-1.29,2.54-3.3,3.17-5.71,1.44-.69,2.27-1.94,2.96-3.29.31-.62.54-1.25,1.11-1.74,2-1.73,3.46-3.94,4.84-6.15,1.53-2.46,3.03-4.98,3.78-7.83,2.67-1.8,3.65-4.92,5.63-7.33v-2.48c-1.23-1.63-2.85-2.5-4.36-3.5.09-.66-.12-1.14-.64-1.62-1.88-1.71-3.92-3.23-5.78-4.97-.92-.85-2.07-1.56-2.96-2.51-.43-.46-.89-.41-1.4-.41-.38-1.58-2.06-1.94-2.98-3.08-.88-1.1-2.67-1.47-4.41-2.33.75-.5,1.25-.84,1.78-1.2-2.13-1.52-3.15-1.31-5.17.9ZM274.87,211.82c-.02.44.2.65.63.63-.02.44.2.65.63.63-.02.44.2.65.63.63-.02.44.2.65.63.63.14.79.8,1.3,1.36,1.6.72.38.13,1.58,1.17,1.57-.18.64-2.15,4.45-2.62,4.82-1.79,1.4-2.35,3.64-3.71,5.32-.6.74-.71,1.62-.64,2.54-.63-.02-1.09.56-1.14.89-.37,2.38-2.07,4-3.38,5.76-1.61,2.15-2.97,4.52-4.96,6.39-.16.15-.02.6-.02.91-1.06.49-1.54,1.43-2.15,2.38-1.28,1.98-2.05,4.33-3.89,5.86h-1.89c-.67-.71-1.88-1.42-2.11-2.37-.39-1.56-1.97-1.29-2.64-2.33-.62-.95-1.59-1.66-2.43-2.5.03-.88.98-.18,1.36-.84,1.2-2.08,3.31-3.56,4.19-5.84.35-.91,1.69-1.29,1.34-2.5-.01-.04,0-.07-.02-.1.74-.23,1.14-.66,1.31-1.49.16-.75,1.08-1.06,1.32-1.98.17-.66,1.32-.77,1.88-1.66,2.7-4.31,5.39-8.66,8.9-12.39.71-.76.86-1.75,1.32-2.61,1.18-.26,1.86-1.06,2.4-2.1.51-1,1.12-2.01,2.52-1.87ZM268.76,206.57c.95,1.51,2.9,1.96,3.39,3.58-.99,2.81-3.86,4.26-4.39,7.19-1.42.48-2.23,1.58-3.06,2.77-1.93,2.8-4.02,5.5-6.05,8.23-.6.81-1.17,1.62-1.79,2.41-.61.79-1.23,1.68-1.86,2.34-1.98,2.08-2.92,4.95-5.27,6.7-.43.32-.14.78-.22,1.17-1.34.48-1.82,2.05-3.17,2.54.02-.44-.2-.65-.63-.63.02-.44-.2-.65-.63-.63.02-.44-.2-.65-.63-.63.02-.44-.2-.65-.63-.63.02-.44-.2-.65-.63-.63v-1.27c.44.02.65-.2.63-.63,1.06-1.48,2.11-2.96,3.17-4.44.44.02.65-.2.63-.63h1.03c.05-1.48,1.72-1.89,2.13-3.17,1.3-.96,1.87-2.49,2.7-3.77.93-1.43,2.09-2.67,3.03-4.09.88-1.32,2.38-2.23,2.63-3.99,2.42-1.95,3.38-5.05,5.59-7.17,1.17-1.6,1.96-3.54,4.03-4.61ZM263.74,202.97c.49.43,1.09.49,1.59.88v2.56c-.26.59-1.13.81-1.23,1.61-2.01,2.96-3.93,5.99-6.06,8.86-1.92,2.58-3.54,5.35-5.69,7.81-1.75,2-3.64,4-4.83,6.49-.37.77-1.03,1.49-1.87,2.07-.84.57-2.08,1.21-1.83,2.67-1.07.28-1.42,1.45-2.36,1.9-1.8-.1-2.56-1.85-3.98-2.54.21-1.55-1.7-1.98-1.63-3.42.1-1.71,1.42-3.06,1.63-4.83,0,0,0,0,0,0,.18-.07.43-.09.52-.22,1.36-2.12,2.65-4.28,3.28-6.75,1.56-.7,2.59-2.06,3.04-3.5.34-1.07,1.89-1.47,1.4-2.84.53.08.82-.38.96-.68,1.12-2.49,3.09-4.27,4.92-6.18.9-.94,2.24-1.58,2.47-3.07,1.91-1.12,2.25-3.69,4.33-4.65,2.05.9,3.69,2.39,5.35,3.83Z"/>
</svg>