<?xml version="1.0" encoding="UTF-8"?>
<svg id="Livello_1" data-name="Livello 1" xmlns="http://www.w3.org/2000/svg" viewBox="0 0 489 489">
  <defs>
    <style>
      .cls-1 {
        fill: #000;
      }

      .cls-1, .cls-2 {
        stroke-width: 0px;
      }

      .cls-2 {
        fill: #fff;
      }
    </style>
  </defs>
  <path class="cls-1" d="M396.3,136.25c.28.31,1.01.75.99,1.14-.27,3.66,1.52,7.13.92,10.81-.35,2.15-.34,4.44-1.15,6.39-.48,1.14-.35,2.15-.58,3.2-.22,1.04-.61,2.04-.84,3.08-.74,3.39-.7,7.02-3.28,9.81-.23.24-.05.82-.17,1.21-.64,2.02-1.18,4.09-2.02,6.03-.79,1.83-.41,4.09-2.08,5.57-.97,4.89-4.4,8.49-6.71,12.66-1.29,2.33-3.51,4.12-3.8,7.03-.05.46-.62.9-1.02,1.28-1.22,1.15-1.99,2.5-2.45,4.14-.81,2.86-2.57,5.37-4.34,7.58-1.89,2.37-3.22,5.03-4.99,7.43-1.69,2.28-3.46,4.54-4.84,7.01-2.22,3.97-5.85,6.9-7.92,10.88-.65,1.26-1.98.79-2.42,1.92-.33.86-.97,1.6-1.48,2.39-.6.9-1.2,1.8-1.82,2.68-.61.86-1.2,2.38-1.88,2.42-1.59.11-.84,1.57-1.67,2.08-.95.57-1.66,1.55-2.46,2.38-1.86,1.92-4.14,2.96-6.96,3.56-.58-2.57-2.75-3.88-4.67-4.77-4.21-1.97-7.67-4.96-11.59-7.27-1.78-1.05-2.74-3.19-5.06-3.2-.67.81-1.48,1.84-2.34,2.83-1.82,2.1-4.11,3.75-5.54,6.27-.67,1.18-2.3,1.81-3.45,2.66-1.93-.96-3.71-1.84-5.27-2.61-1.68,1.68-3.27,3.27-5.18,5.18-.26,1.69-.87,3.98-.89,6.28-.02,2.74-.69,5.57.72,8.26.31.58-.39,1.63-.38,2.46,0,.94.37,1.86.43,2.8.08,1.28-.1,2.59.04,3.86.41,3.56-1.11,6.65-2.32,9.78-.51,1.32-1.61,2.41-2.27,3.36h-1.8c-.11-.08-.31-.17-.31-.25-.02-3.41-.01-6.82-.01-9.51-2.96-6.86-6.05-12.57-14.61-10.56-1.31,1.25-1.95,2.94-1.89,5.01.1,3.43.11,6.87,0,10.3-.29,9.42-3.91,17.71-8.91,25.47-.9,1.4-2.37,2.44-3.72,3.79-2.3-1.39-3.5-3.2-3.72-5.95-.21-2.65-.98-5.25-3.15-7.35-2.69,1.48-3.67,4-4.48,6.56-1.52,4.81-3.81,9.4-4.31,14.52-2.12,2.47-2.49,6.01-4.79,8.29-2.17,2.15-3.98,4.67-6.83,6.2-1.88,1.01-3.31,2.83-4.91,4.26-.93-.9-1.64-1.59-2.35-2.28.82-3.16,2.2-6.2,1.62-9.55-.32-.32-.63-.63-1.06-1.06h-3.7c-4.34,3.95-6.33,9.47-8.86,14.66-1.64,3.36-1.88,7.19-3.4,10.61-.26.6-.09,1.42-.03,2.13.39,4.31-.91,8.73.85,12.95-1.11,1.56.31,2.82.48,4.23.25,2.08.37,4.18.56,6.53-.98.49-1.91.96-3.15,1.58-2.84-4.29-5.51-8.32-8.18-12.36-.89-1.35-1.73-2.73-2.65-4.05-2.39-3.42-3.13-7.58-5.07-11.2.43-3.32-.88-6.77.68-10.02.11-.24.21-.53.17-.78-.63-3.82.87-7.45.95-11.23.07-3.31,1.1-6.57.83-9.95-.06-.71.49-1.49.82-2.21.22-.48.78-.9.81-1.37.33-4.63,2.38-8.71,3.94-12.96.75-2.05,1.59-3.92,2.89-5.69.83-1.12,1.06-2.68,1.6-4.18-.22-.23-.6-.63-.97-1.01-3.83-.55-7.24.14-10.53,2.37-2.84,1.92-5.11,4.29-7.18,6.91-1.34,1.7-2.49,3.55-3.6,5.16h-2.03c-.14-.26-.41-.52-.37-.72.36-1.88-.61-3.79.71-5.74.92-1.36-.72-3.64.99-5.14-.48-3.65,1.23-6.97,1.91-10.41.72-3.67,1.06-7.76,3.88-10.79-.11-2.39,1.65-4.15,2.11-6.46.52-2.63,1.94-5.17,2.74-7.84.56-1.88,1.28-3.64,3.06-4.66v-2.17c1.31-1.92,2.81-3.36,3.32-5.1.41-1.4,1.75-.65,2.09-1.65.25-.74.79-1.38,1.18-2.08,1.71-3.1,4.34-5.1,7.4-6.79,2.14-1.19,3.95-2.98,5.75-4.38v-2.13c-.37-.09-.77-.32-1.13-.26-2.02.32-4.03.7-5.9,1.03-.5-.48-1.04-.75-1.07-1.07-.14-1.37-.51-2.89-.1-4.11.88-2.6,1.97-5,4.65-6.66,2.81-1.73,5.09-4.33,7.6-6.57,3.38-3.02,7.35-4.86,11.74-5.81,2.35-.51,4.53-1.5,6.97-1.89,4.25-.68,4.17-.61,7.92.06,3.99.71,7.57,3.1,11.54,2.7,1.84-.86,1.75-2.42,1.47-3.76-.27-1.25-1.79-2.66-1.47-3.53.6-1.63-.4-2.62-.61-3.9-.23-1.34-.37-2.7-.64-4.03-.07-.35-.48-.63-.94-1.22,1.89-1.34,2.1-4.13,4.72-4.75.93-2.07,2.87-3.55,3.34-5.92.17-.88.86-1.66,1.27-2.42-1.4-3.52-3.24-7.07-4.19-10.84-.98-3.89-2.3-7.67-3.4-11.79-.75-.56-2.59-.54-2.14-3.33,1.09-1.33,2.36-3.62,4.27-5.02,2.31-1.69,5.13-2.72,7.8-3.86,2.3-.99,4.65-2.16,7.09-2.49,2.68-.36,4.53-2.25,6.99-2.87,1.01-.25,1.93-.9,2.94-1.17,2.21-.58,4.6-.72,6.15-2.75,4.29-.05,7.55-3.27,11.79-3.73,2.14-.23,4.17-1.6,6.24-2.47,2.84-1.19,6.19-.61,8.8-2.57,3.64.09,6.49-2.35,9.88-3.07,3.01-.65,5.73-2.31,9.01-2.18,1.62.06,3.26-1.03,4.93-1.44,3.69-.91,7.29-2.11,11.23-1.97,3.45.12,6.98.67,10.39-.73.86-.35,1.98-.09,2.98-.04.82.04,2.06-.1,2.36.35.75,1.1,1.77-1.22,2.21.35,2.46.12,4.75,1.3,7.31,1.07,1.13-.1,2.42.32,3.48.82,5.22,2.49,10.9,4.19,14.75,8.99.99,1.24,2.53,2.07,3.91,2.94.28.18.96-.29,1.82-.58ZM214.51,264.93c3.98-.51,6.98-.89,8.51-1.09,4.5.93,5.33,3.83,7.23,6.09-.39,1.53-.55,3.37-1.34,4.86-.72,1.36-.72,2.24.27,3.31.17.18-.09.75-.17,1.19-.5-.29-.87-.51-1.36-.79-.1.89-.18,1.56-.26,2.22-.52.52-1.03,1.03-1.13,1.13.03,3.74-2.32,6.91-1.08,10.21,1.65-2.11,3.24-4.28,4.96-6.34,1.79-2.12,3.71-4.14,5.72-6.37,2.78-.56,5.07.74,7.03,2.95.69.78,1.46,1.48,2.5,2.52.68-3.15,1.48-5.74,1.72-8.37.14-1.53.49-2.93.95-4.35.29-.88.74-1.75.83-2.65.28-2.84,1.91-5.15,4.09-6.27,2.66-1.36,5.28-2.91,8.3-3.77,2.2-.63,4.66-1.07,6.42-2.32,1.54.55,2.85,1.02,4.64,1.66-.69-1.52-1.22-2.68-1.75-3.84-.61-1.35.36-2.97-.98-4.34-.43-.44-.42-1.84-.05-2.45,1.39-2.31,3.01-4.47,4.41-6.49,1.04-.06,1.7-.1,2.68-.16-5.41-5.81-11.98-9.86-16.29-16.18-.05-.07-.27,0-.62,0-.59.53-1.3,1.17-1.89,1.71-2.56.13-4.63-.64-6.82-1.56-2.2-.92-5,.6-7.21-.93-2.05.7-4.05,1.38-6.28,2.15,1.76,1.05,3.32,2.12,5,2.93,1.8.86,2.47,2.7,3.79,3.92v7.71c-1.31.71-2.53,1.79-3.89,2-1.41.21-2.53.84-3.76,1.33-1.84.73-3.47,1.82-5.48,2.34-2.24.58-4.39,2-6.23,3.48-2.59,2.08-4.77,4.62-6.38,7.6-.45.83-1.08,1.86-1.87,2.17-2.02.79-2.25,2.76-3.16,4.72-.06-.06-.11-.11-.17-.17-.23.2-.47.4-.7.6l.27.27c.2-.23.4-.47-.46-.6ZM394.77,143.24c-1.58-2.14-2.72-4.82-4.75-6.13-2.19-1.41-3.02-4.57-6.1-4.66-2.49-2.4-5.65-3.52-8.84-4.53-1.78-.56-3.66-.82-5.44-1.37-1.86-.58-3.7-.89-5.65-.86-5.86.07-11.72,0-17.58.05-1.07,0-2.15.3-3.21.52-2.61.54-5.18,1.65-7.74,1.9-4.64.45-8.8,2.24-13.19,3.4-4.25,1.13-8.16,3.48-12.68,3.6-1.28,1.57-3.28.27-4.67,1.12-1.55.96-3.36,1.03-4.91,1.63-2.94,1.14-5.62,2.81-8.8,3.64-2.61.68-5.29,1.78-7.67,3.14-2.46,1.4-5.12,2.19-7.66,3.28-4.48,1.94-9.14,3.45-13.7,5.22-3.74,1.45-6.93,3.65-9.17,7.14,1.52.8,2.5,1.36,2.98,3.21.57,2.19,1.04,4.49,1.37,6.65.44,2.87,1.08,5.51,2.46,8.03,1.65,3.03,3.06,6.2,4.91,9.11,1.87,2.94,2.33,6.58,4.8,9.17.48,4.17,4.03,6.59,5.92,9.96,1.73,3.08,5.25,5.01,7.11,8.23.65,1.14,2.39.97,2.77,2.66.32,1.42,2.24,1.68,3.12,2.9.82,1.13,1.79,2.17,2.82,3.12,2.36,2.17,4.74,4.34,7.23,6.36,3.18,2.59,6.48,5.03,9.73,7.55,3.21,2.49,6.87,4.31,10,6.97,2.33,1.98,5.62,2.64,7.75,5.05,2.15-.43,3.1,1.89,5.16,2.17,1.64.22,3.07,2.06,4.58,3.18,1.78-1.43,3.89-2.43,4.84-4.09.88-1.54,2.21-2.48,3.18-3.8.89-1.21,1.73-2.48,2.75-3.57,1.05-1.13,1.59-2.7,3.23-3.38.61-.25.89-1.29,1.33-1.96.67-1.01,1.2-2.18,2.06-2.99,2.04-1.91,3.39-4.3,4.76-6.63,2.6-4.42,5.46-8.66,8.53-12.76.56-.75.99-1.6,1.53-2.36.63-.89,1.38-1.7,1.97-2.62,3.34-5.16,5.22-11.18,9.45-15.81,2.72-6.6,7.1-12.46,8.58-19.61,1.65-.86.21-2.73,1.21-3.78,2.2-2.29,2.05-5.45,3.12-8.15.72-1.81.36-3.86,1.18-5.51,1.3-2.6,1.4-5.27,1.35-8.03-.03-2,0-4,0-6.37ZM248.66,301.57c1.19,1.65,3.19,3.27,3.53,5.19.48,2.7,2.06,4.99,2,8.11,5.41-5.51,7.29-12.23,9.28-18.85.66-2.2.75-4.6.88-6.92.14-2.42.03-4.86.03-7.29v-6.37c1.01-1.36,1.98-2.66,2.75-3.7,1.73-.39,3.04.13,4.47-.71,1.12-.66,2.74-.41,4.31.4,4.9,2.54,7.15,4.81,9.05,10.33.39,1.13.87,2.01,2.58,1.76,0-1.39.34-2.89-.08-4.15-.61-1.86-1.39-3.56-.14-5.42.07-.11-.13-.39-.18-.6-1.06-4.77-.18-9.6-.43-14.4-.02-.36.35-.72.42-1.1.56-2.87,2-5.09,4.5-6.21-4.63-3.14-9.18-6.23-14.06-9.54-.3,1.94-.5,3.84-2.57,3.98-.62,1.21-1.23,2.24-1.68,3.34-.25.61-.53,1.46-.3,1.98,1.62,3.72,3.06,7.49,4,11.36-1.58,2.5-3.34.72-4.65-.01-3.75-2.1-3.82-2.28-7.48-2.22-2.53,1.45-4.87,3.05-7.42,4.18-4.7,2.09-6.49,5.85-6.8,10.65-.05.85.34,1.99-.07,2.52-1.42,1.82-.13,3.99-.89,5.66-.87,1.92-.64,3.78-.78,5.7-.7.7-1.41,1.41-2.12,2.12h-1.36c-1.93-2.68-3.74-5.19-5.58-7.74-1.05-.32-2.2-.67-3.19-.97-4.64,4.19-7.74,9.09-10.3,14.45-.95,1.98-1.52,4.46-4.41,5.63-.65-.42-1.51-.97-1.88-1.21.23-2.03.32-3.5.57-4.94.33-1.88-.36-3.71.67-5.74.83-1.64-.08-4.13,1.06-5.98,1.02-1.65.75-3.44.8-4.4,1.38-3.28,2.45-5.84,3.68-8.76-.96-1.43-2.01-2.98-2.93-4.34h-5.72c-2.3,1.56-4.69,3.33-7.23,4.81-.82.48-2.07.21-3.18.28v-3.05c2.48-1.83,3.78-4.82,5.89-7.2,3.18-3.6,5.69-7.72,9.03-11.28,4.73-5.06,10.88-7.43,16.88-10.12,1.48-.66,3.06-.99,4.17-2.21.51-2.76-1.46-4.57-2.18-6.57-3.59-2.69-7.79-2.55-11.51-3.67-.12-1.55.18-2.94,1.72-2.99,1.37-.04,2.22-.92,3.34-1.33,3.73-1.39,7.62-1.91,11.54-2.12,1.29-.07,2.62.73,3.93.75,2.1.03,3.86.92,5.49,1.58.81-.67,1.56-1.29,2.18-1.8-1.28-2.29-2.48-4.44-4.02-7.19-.64,1.14-1.06,1.88-1.62,2.87-.77-.7-1.16-1.36-1.54-1.35-2.26.05-4.15-.67-6.21-1.65-2.36-1.13-5.17-1.58-7.81-1.74-1.77-.1-3.6.88-5.42,1.29-3.01.67-5.72,2.57-9.21,1.94-2.39,1.97-4.8,3.99-7.26,5.95-1.92,1.53-3.88,3.01-5.88,4.43-2.32,1.64-3.68,3.8-4.25,6.97,2.07-.36,3.86-1.13,5.43-.81,1.53.31,2.82,1.74,4.22,2.67-.31-.02-.62-.05-.93-.07.52,3.28-1.22,5.26-3.27,6.91-2.21,1.78-4.65,3.27-6.94,4.96-1.23.91-2.66,1.77-3.43,3-1.84,2.95-4.56,5.36-5.52,8.85-3.79,4.65-5.81,10.13-7.44,15.8-.51,1.78-.73,3.85-1.79,5.23-1.99,2.58-2.59,5.54-3.34,8.52-.8,3.15-2.11,6.22-1.72,9.59-1.56,1.7-.57,3.66-.64,5.66,5.3-6.38,11.63-9.94,19.94-8.39,1.26.86,2.5,1.7,3.48,2.38-.24,1.76-.46,3.32-.59,4.29-1.54,2.97-3.52,5.03-4.21,7.89-.37,1.53-.74,3.33-1.77,4.36-1.39,1.38.12,3.5-1.63,4.53-.55,3.02-1.91,5.84-2.49,8.82-.53,2.68.19,5.49-.84,8.25-.56,1.51.01,3.4-.13,5.11-.15,1.75-.72,3.48-.79,5.23-.13,3.43.03,6.87-.07,10.3-.05,1.72.52,3.41,1.35,4.57,1.44,1.99,2.33,4.27,3.38,6.37,1.59,3.2,4.27,5.37,5.97,8.38,1.48-1.34-1.13-2.6.35-3.73-.89-.8,0-1.49.1-2.24.12-.99.45-2.38-.05-2.93-1.31-1.43-.51-2.98-.78-4.44-.37-1.99.69-3.77.81-5.66.16-2.47.96-4.73,1.55-7.08.6-2.39,2.02-4.34,2.77-6.59,2.35-7.05,5.13-10.59,11.92-14.68,1.45.26,3.28.59,4.84.87,1.38,2.35,1.91,4.36.28,6.22.48.76.83,1.32,1.14,1.81-.46.57-.72.89-1.11,1.37,3.47.37,4.39-3.08,6.93-3.66,1.77-3.27,4.38-6.05,5.24-9.86.58-2.57,1.68-5.01,2.51-7.53,1.16-3.52,1.98-7.21,3.53-10.54,1.28-2.73,2.84-5.71,7.34-6.09ZM254.95,196.35v8.75c1.63,2.65,1.47,2.67,1.75,4.85.43,3.35.75,6.8,3.67,9.19.29.23.36.71.59,1.03,1.01,1.44,2.01,2.89,3.06,4.3,1.07,1.42,2.15,2.85,3.34,4.18,1.14,1.28,2.35,2.5,3.63,3.63,1.33,1.18,2.91,2.11,4.13,3.38,1.17,1.22,2.18,2.57,3.6,3.57,2.34,1.64,4.44,3.68,6.91,5.06,3.01,1.67,5.27,4.57,9.03,5.11,1.86.27,3.57,1.59,5.31,2.41,3.38-3.1,6.29-6.66,10.17-9.6-1.36-1-2.53-1.88-3.72-2.75-3.34-2.44-6.69-4.84-9.68-7.77-1.31-1.29-2.9-2.31-4.13-3.82-1.25-1.55-3.32-2.51-4.37-4.15-2.02-3.13-4.91-5.38-7.34-8.08-2.63-2.91-5.68-5.38-7.94-8.69-2.43-3.55-4.68-7.19-6.9-10.87-1.53-2.54-1.85-5.76-4.51-8.09-2.08,3.14-3.63,6.44-6.63,8.36Z"/>
  <path class="cls-1" d="M313.49,397.52c.71.29,1.15.47,1.92.79-.69.86-1.18,1.46-1.92,2.38v-3.16Z"/>
  <path class="cls-2" d="M394.77,143.24c0,2.37-.03,4.37,0,6.37.05,2.76-.05,5.43-1.35,8.03-.82,1.64-.46,3.69-1.18,5.51-1.07,2.7-.93,5.86-3.12,8.15-1.01,1.05.44,2.92-1.21,3.78-1.48,7.14-5.86,13.01-8.58,19.61-4.22,4.63-6.11,10.66-9.45,15.81-.59.91-1.34,1.73-1.97,2.62-.54.77-.97,1.61-1.53,2.36-3.07,4.1-5.93,8.34-8.53,12.76-1.37,2.33-2.72,4.72-4.76,6.63-.86.81-1.39,1.98-2.06,2.99-.44.67-.72,1.71-1.33,1.96-1.64.67-2.18,2.25-3.23,3.38-1.02,1.09-1.86,2.36-2.75,3.57-.97,1.33-2.3,2.26-3.18,3.8-.95,1.66-3.06,2.66-4.84,4.09-1.52-1.12-2.94-2.96-4.58-3.18-2.06-.28-3.01-2.6-5.16-2.17-2.12-2.4-5.41-3.07-7.75-5.05-3.13-2.65-6.79-4.48-10-6.97-3.24-2.52-6.54-4.96-9.73-7.55-2.49-2.02-4.86-4.19-7.23-6.36-1.03-.95-2.01-1.99-2.82-3.12-.87-1.21-2.8-1.48-3.12-2.9-.38-1.69-2.11-1.52-2.77-2.66-1.85-3.22-5.38-5.16-7.11-8.23-1.9-3.37-5.44-5.78-5.92-9.96-2.47-2.59-2.93-6.24-4.8-9.17-1.84-2.9-3.26-6.08-4.91-9.11-1.37-2.52-2.02-5.17-2.46-8.03-.33-2.17-.8-4.46-1.37-6.65-.48-1.85-1.46-2.41-2.98-3.21,2.25-3.5,5.43-5.69,9.17-7.14,4.56-1.77,9.22-3.29,13.7-5.22,2.54-1.1,5.2-1.89,7.66-3.28,2.38-1.35,5.06-2.46,7.67-3.14,3.18-.83,5.86-2.5,8.8-3.64,1.55-.6,3.36-.67,4.91-1.63,1.39-.86,3.39.44,4.67-1.12,4.52-.12,8.43-2.47,12.68-3.6,4.38-1.16,8.54-2.95,13.19-3.4,2.56-.25,5.13-1.35,7.74-1.9,1.06-.22,2.14-.51,3.21-.52,5.86-.05,11.72.02,17.58-.05,1.96-.02,3.8.28,5.65.86,1.78.56,3.66.81,5.44,1.37,3.19,1.01,6.35,2.13,8.84,4.53,3.09.09,3.91,3.25,6.1,4.66,2.03,1.31,3.17,3.99,4.75,6.13ZM356.8,132.4c-.89,1.35-2.09,1.03-3.19,1.04-2.86.02-5.72.11-8.58-.02-2.81-.13-5.47.75-8.21,1.05-4.05.45-8.02,1.69-12.17,1.57-.36-.01-.73.31-1.1.42-2.42.72-4.82,1.9-7.27,2.04-4.94.27-9.6,1.66-14.38,2.64-5.33,1.1-10.04,3.16-13.83,7.8,2.08,4.02,4.08,8.2,6.36,12.23,1.87,3.3,4.12,6.41,6.59,9.26,2.75,3.18,5.03,3.44,8.47.7,2.33-1.86,4.31-4.19,7.12-5.4,4.62-2,8.61-5.29,13.53-6.69.24-.07.41-.39.7-.68,1.66-.07,3.37-.09,5.12-.77,1.99-.78,3.87-1.7,5.77-2.64,1.78-.87,3.66-1.52,6.16-2.52,4.57-.65,9.77-1.82,15-4.25,1.17-.16,2.72-.37,3.9-.53,1.1.21,1.88.35,2.58.48.5-.5.92-.9,1.31-1.31,1.87-1.99,2.36-4.15.93-6.64-1.05-1.84-1.97-3.75-2.99-5.72-3.45-2.44-7.89.34-11.84-2.04ZM342.75,221.87c-2.25,1.66-3.14,5.47-6.32,7.28-1.23,3.4-3.57,6.02-5.96,8.59.26.3.51.59.7.81-.33.51-.62.96-.85,1.33.72,1.21,1.33,2.24,1.86,3.13,1.47.44,2.73.81,3.96,1.18,2.53-1.2,4.99-2.66,5.86-4.41,1.18-2.36,3.28-3.76,4.91-5.64.74-.86,1.94-1.48,2.33-2.45,1.28-3.21,3.81-5.34,6.05-7.68v-1.81c-3.16-2.47-6.5-4.44-11.16-3.6-.31.74-.72,1.71-1.38,3.29ZM367.18,197.81c3.92-5.13,5.42-11.02,6.13-17.21.03-.22-.2-.48-.33-.75-.94-.05-1.9-.1-2.78-.14q-.94-1.6-5.89-3.33c-3.57,2.85-2.95,6.87-3,10.7-2.39,2.1-2.9,4.97-3.52,7.98,1.8.98,3.43,1.86,5.07,2.75h4.32ZM314.1,222.38c-1.68-2.66-4.66-1.97-6.91-3.05-1.41-.68-2.81.5-4.11,1.13v5.32c2.36,2.53,5.29,2.12,7.78,2.01,1.27-1.13,2.31-2.07,3.24-2.89v-2.52ZM275.9,162.26c-1.55-1.13-2.86-2.08-4.17-3.04-.9,1.09-1.78,1.14-2.39.34-1.1.19-1.99.4-2.9.48-.94.08-1.89.02-2.75.02-.71,1.21-1.24,2.13-1.75,2.98.99,1.71.85,4.43,3.84,4.58,2.54.58,4.82-.69,7.22-1.52,1.71-.59,1.67-2.3,2.91-3.83ZM282.4,175.3v-2.81c-.39-.39-.8-.78-1.49-1.45-1.73.24-3.72.51-5.71.78-.77-.25-1.65-.52-2.19-.69-1.11.92-1.96,1.62-2.95,2.45.52,1.62.99,3.1,1.43,4.49h7.08c1.31-.95,2.62-1.9,3.82-2.76ZM320.71,231c-2.29.23-3.31,1.43-4.09,2.91.33,2.25,2.14,3.1,3.46,4.51,2.78-1.33,5.95-1.62,6.72-4.77-.39-1.26-.71-2.25-.97-3.09-1.91-2.1-4.15-2.01-6.63-1.72.45.64.74,1.06,1.51,2.17ZM277.27,182.64c-.39,1.56-.74,2.98-1.06,4.26l2.37,2.37c2.36-.23,4.93.53,7.1-1.18.66-1.85,2.15-3.71-.32-5.73-.84,0-2.27.44-2.99-.09-1.82-1.33-3.25-.41-5.1.36Z"/>
  <path class="cls-2" d="M248.66,301.57c-4.5.38-6.07,3.36-7.34,6.09-1.56,3.34-2.37,7.02-3.53,10.54-.83,2.51-1.94,4.96-2.51,7.53-.86,3.81-3.47,6.59-5.24,9.86-2.54.58-3.46,4.03-6.93,3.66.39-.48.65-.8,1.11-1.37-.31-.5-.66-1.05-1.14-1.81,1.63-1.86,1.1-3.87-.28-6.22-1.56-.28-3.4-.61-4.84-.87-6.79,4.08-9.56,7.63-11.92,14.68-.75,2.25-2.18,4.19-2.77,6.59-.59,2.35-1.39,4.61-1.55,7.08-.12,1.89-1.19,3.67-.81,5.66.27,1.46-.52,3.01.78,4.44.5.54.18,1.94.05,2.93-.1.75-.99,1.44-.1,2.24-1.48,1.14,1.13,2.39-.35,3.73-1.69-3.01-4.37-5.18-5.97-8.38-1.05-2.1-1.94-4.37-3.38-6.37-.83-1.16-1.4-2.85-1.35-4.57.1-3.43-.06-6.87.07-10.3.07-1.75.64-3.47.79-5.23.14-1.7-.43-3.6.13-5.11,1.03-2.76.31-5.57.84-8.25.59-2.98,1.94-5.8,2.49-8.82,1.75-1.02.24-3.14,1.63-4.53,1.03-1.02,1.4-2.83,1.77-4.36.68-2.86,2.67-4.92,4.21-7.89.13-.97.35-2.53.59-4.29-.98-.67-2.22-1.52-3.48-2.38-8.31-1.55-14.64,2-19.94,8.39.08-2-.92-3.96.64-5.66-.39-3.37.92-6.43,1.72-9.59.75-2.97,1.35-5.93,3.34-8.52,1.07-1.39,1.28-3.45,1.79-5.23,1.64-5.67,3.65-11.15,7.44-15.8.97-3.49,3.68-5.9,5.52-8.85.77-1.24,2.21-2.1,3.43-3,2.29-1.69,4.72-3.18,6.94-4.96,2.05-1.65,3.79-3.63,3.27-6.91.31.02.62.05.93.07-1.4-.94-2.7-2.36-4.22-2.67-1.57-.32-3.36.45-5.43.81.57-3.17,1.93-5.32,4.25-6.97,2-1.42,3.96-2.91,5.88-4.43,2.46-1.96,4.87-3.98,7.26-5.95,3.49.63,6.2-1.27,9.21-1.94,1.82-.4,3.64-1.39,5.42-1.29,2.65.15,5.46.61,7.81,1.74,2.06.99,3.95,1.71,6.21,1.65.38,0,.78.66,1.54,1.35.56-.99.98-1.74,1.62-2.87,1.53,2.75,2.74,4.9,4.02,7.19-.62.51-1.37,1.13-2.18,1.8-1.63-.67-3.39-1.55-5.49-1.58-1.32-.02-2.64-.82-3.93-.75-3.92.21-7.81.73-11.54,2.12-1.11.41-1.96,1.29-3.34,1.33-1.54.05-1.83,1.44-1.72,2.99,3.72,1.12,7.92.98,11.51,3.67.72,2,2.69,3.82,2.18,6.57-1.11,1.21-2.7,1.55-4.17,2.21-6.01,2.69-12.15,5.06-16.88,10.12-3.33,3.56-5.85,7.69-9.03,11.28-2.1,2.38-3.41,5.37-5.89,7.2v3.05c1.1-.08,2.36.19,3.18-.28,2.55-1.48,4.93-3.25,7.23-4.81h5.72c.92,1.37,1.97,2.92,2.93,4.34-1.23,2.92-2.3,5.48-3.68,8.76-.05.96.22,2.75-.8,4.4-1.14,1.85-.23,4.34-1.06,5.98-1.03,2.03-.34,3.86-.67,5.74-.25,1.44-.34,2.91-.57,4.94.37.24,1.23.79,1.88,1.21,2.88-1.17,3.46-3.65,4.41-5.63,2.56-5.36,5.67-10.26,10.3-14.45.99.3,2.14.65,3.19.97,1.84,2.55,3.65,5.06,5.58,7.74.22,0,.79,0,1.36,0,.71-.71,1.42-1.42,2.12-2.12.14-1.91-.09-3.78.78-5.7.76-1.67-.53-3.84.89-5.66.42-.53.02-1.67.07-2.52.31-4.79,2.1-8.56,6.8-10.65,2.55-1.13,4.88-2.73,7.42-4.18,3.66-.06,3.73.12,7.48,2.22,1.31.73,3.08,2.51,4.65.01-.94-3.87-2.38-7.64-4-11.36-.23-.52.05-1.37.3-1.98.45-1.1,1.06-2.13,1.68-3.34,2.06-.14,2.26-2.04,2.57-3.98,4.88,3.31,9.44,6.4,14.06,9.54-2.49,1.12-3.94,3.35-4.5,6.21-.07.38-.44.74-.42,1.1.25,4.8-.62,9.63.43,14.4.05.21.25.49.18.6-1.25,1.86-.47,3.56.14,5.42.42,1.26.08,2.76.08,4.15-1.72.25-2.2-.63-2.58-1.76-1.9-5.53-4.15-7.79-9.05-10.33-1.57-.82-3.2-1.06-4.31-.4-1.43.85-2.74.32-4.47.71-.77,1.03-1.74,2.34-2.75,3.7v6.37c0,2.43.11,4.87-.03,7.29-.14,2.32-.22,4.72-.88,6.92-1.99,6.62-3.87,13.34-9.28,18.85.06-3.12-1.51-5.41-2-8.11-.34-1.92-2.35-3.54-3.53-5.19Z"/>
  <path class="cls-2" d="M214.51,264.93c1.97-2.06,2.2-4.03,4.22-4.82.79-.31,1.42-1.33,1.87-2.17,1.61-2.98,3.79-5.52,6.38-7.6,1.84-1.48,3.99-2.89,6.23-3.48,2.01-.53,3.64-1.61,5.48-2.34,1.23-.49,2.35-1.12,3.76-1.33,1.36-.21,2.58-1.29,3.89-2v-7.71c-1.32-1.22-1.99-3.05-3.79-3.92-1.68-.81-3.24-1.88-5-2.93,2.23-.76,4.23-1.44,6.28-2.15,2.21,1.53,5.01,0,7.21.93,2.2.92,4.26,1.69,6.82,1.56.59-.54,1.3-1.17,1.89-1.71.35,0,.58-.06.62,0,4.3,6.33,10.88,10.38,16.29,16.18-.97.06-1.64.1-2.68.16-1.39,2.01-3.02,4.18-4.41,6.49-.37.62-.38,2.01.05,2.45,1.34,1.37.37,2.99.98,4.34.53,1.16,1.06,2.32,1.75,3.84-1.8-.64-3.11-1.11-4.64-1.66-1.76,1.25-4.22,1.69-6.42,2.32-3.02.86-5.64,2.41-8.3,3.77-2.18,1.12-3.82,3.43-4.09,6.27-.09.9-.54,1.77-.83,2.65-.46,1.42-.81,2.82-.95,4.35-.24,2.64-1.04,5.23-1.72,8.37-1.04-1.04-1.82-1.74-2.5-2.52-1.96-2.21-4.26-3.51-7.03-2.95-2.01,2.23-3.94,4.24-5.72,6.37-1.73,2.05-3.32,4.22-4.96,6.34-1.24-3.29,1.11-6.47,1.08-10.21.1-.1.6-.6,1.13-1.13.08-.65.15-1.33.26-2.22.48.28.86.5,1.36.79.07-.44.33-1.01.17-1.19-.99-1.07-.99-1.95-.27-3.31.79-1.5.95-3.33,1.34-4.86-1.91-2.26-2.73-5.16-7.23-6.09-1.52.19-4.53.58-8.51,1.09Z"/>
  <path class="cls-2" d="M254.95,196.35c3-1.92,4.55-5.22,6.63-8.36,2.66,2.33,2.98,5.56,4.51,8.09,2.22,3.68,4.47,7.32,6.9,10.87,2.26,3.31,5.31,5.78,7.94,8.69,2.44,2.7,5.32,4.94,7.34,8.08,1.06,1.64,3.12,2.6,4.37,4.15,1.22,1.52,2.81,2.53,4.13,3.82,2.99,2.94,6.34,5.33,9.68,7.77,1.18.87,2.36,1.74,3.72,2.75-3.88,2.94-6.79,6.5-10.17,9.6-1.74-.82-3.45-2.14-5.31-2.41-3.77-.54-6.02-3.44-9.03-5.11-2.48-1.37-4.57-3.42-6.91-5.06-1.43-1-2.43-2.34-3.6-3.57-1.22-1.28-2.8-2.2-4.13-3.38-1.28-1.14-2.5-2.35-3.63-3.63-1.18-1.33-2.26-2.76-3.34-4.18-1.06-1.41-2.06-2.86-3.06-4.3-.23-.32-.3-.8-.59-1.03-2.92-2.39-3.24-5.84-3.67-9.19-.28-2.19-.12-2.21-1.75-4.85v-8.75Z"/>
  <path class="cls-2" d="M215.58,264.83l-.6.7-.27-.27c.23-.2.47-.4.7-.6.06.06.11.11.17.17Z"/>
  <path class="cls-1" d="M356.8,132.4c3.95,2.38,8.39-.4,11.84,2.04,1.02,1.96,1.93,3.88,2.99,5.72,1.43,2.49.94,4.65-.93,6.64-.39.42-.81.81-1.31,1.31-.7-.13-1.49-.28-2.58-.48-1.17.16-2.72.37-3.9.53-5.23,2.43-10.43,3.59-15,4.25-2.49,1.01-4.38,1.65-6.16,2.52-1.9.94-3.78,1.86-5.77,2.64-1.75.68-3.46.71-5.12.77-.29.29-.46.61-.7.68-4.92,1.4-8.91,4.69-13.53,6.69-2.81,1.22-4.79,3.55-7.12,5.4-3.44,2.74-5.73,2.48-8.47-.7-2.47-2.86-4.72-5.96-6.59-9.26-2.28-4.03-4.28-8.21-6.36-12.23,3.79-4.64,8.49-6.7,13.83-7.8,4.77-.98,9.44-2.36,14.38-2.64,2.45-.14,4.85-1.32,7.27-2.04.38-.11.74-.43,1.1-.42,4.15.12,8.12-1.12,12.17-1.57,2.73-.3,5.4-1.18,8.21-1.05,2.85.13,5.72.04,8.58.02,1.09,0,2.3.31,3.19-1.04ZM345.9,137.41c0-.1-.01-.21-.02-.31h-8.3c.97.71,1.49,1.09,1.8,1.31,2.28-.35,4.4-.67,6.4-1.6.06.06.11.11.17.17.23-.2.47-.4.7-.6l-.27-.27c-.2.23-.4.47-.48,1.31ZM344.97,151.1c-2.03-.6-3.18-.93-3.49-1.03-2.38.26-4.14.05-5.5.69-2.08.98-4.34,1.18-6.46,1.9-2.12.72-3.94,2.25-6.33,2.32-.53.02-1.03,1.12-1.66,1.85.67.66,1.16,1.14,1.59,1.56,2.52-.92,4.87-1.79,7.22-2.64,2.99-1.08,6.22-1.33,9.17-2.57,1.57-.66,3.18-1.22,4.23-3,.14.15.29.3.43.45,1.3-.31,2.6-.61,3.88-.95.12-.03.15-.37.27-.69h-2.96c.14.13.29.27.43.4-.69.26-1.37.52-.82,1.69ZM306.58,162.23c.94,1.27,1.95,2.65,3.01,4.09,3.96-2.25,7.66-4.35,11.45-6.5-.35-.41-.67-.66-.82-.98-.16-.35-.17-.77-.23-1.11-2.97-1.21-3-1.3-6.13-.21-2.23.78-4.37,1.84-6.32,2.68-.39.83-.68,1.42-.97,2.04ZM320.3,153.67c2.2-.7,4.07-1.28,5.95-1.88,3.89-1.25,7.77-2.5,11.66-3.76.37-.12.86-.19,1.07-.45.25-.31,1.16-.45.51-1.26-1.95,0-4.09-.47-5.85.15-1.36.48-2.62.54-3.96.73-1.32.18-2.62.84-3.91.77-2.69-.14-5.03.76-7.39,1.78-.32.14-.61.37-.9.56.44.99.82,1.83,1.19,2.66.6.25,1.21.51,1.63.69ZM315.75,147.5c7.13-2.41,14.41-2.34,21.45-4.02v-1.96c-3.2-1.69-6.46,2.24-9.54-.45-1.15.78-1.87,1.91-3.58,1.95-1.54.04-3.22.47-4.75.86-1.31.34-3.41.56-3.59,3.62ZM342.04,143.26c2.28-.45,4.27-.89,6.28-1.22,2.05-.33,4.19.54,6.22-.51,1.84-.95,4.07.19,5.98-1.13.64-.44,2,.17,3.43.35.22-.11.93-.48,1.63-.84-4.77-2.39-9.44-1.09-14.23.15-3.51-1.7-7.02-.05-10.86.62.49.8.89,1.47,1.56,2.57ZM306.92,153.11c-.57.57-1,1.24-1.6,1.53-.69.33-1.54.33-2.72.55.53,1.74,1,3.27,1.54,5.02,3.93-3.15,7.6-5.88,12.71-5.37-.83-1.34-1.46-2.37-1.97-3.19-3.01-.97-4.91,2.06-7.96,1.46ZM301.49,143.12c-1.18.66-2.58,1.41-3.94,2.23-.31.19-.45.63-.66.94.93.96,1.76,1.82,2.38,2.45,2.1-.7,3.98-1.32,5.86-1.95.21.27.43.55.64.82.67-1.09,1.34-2.18,1.84-2.99q3.12-.2,3.94-2.7c-3.39.4-6.62.79-10.05,1.19ZM308.17,168.13c-1.36-4.08-5.67-3.46-7.75-5.95.63-.63,1.13-1.13,1.9-1.9-1.39-.86-2.71-1.68-4.39-2.72-.23-.3-.78-1.03-1.34-1.76-.15.09-.3.19-.45.28.33,1.11.66,2.23,1,3.36,1,1.39,2.02,2.83,3.06,4.26,1.5,2.08,3,4.17,4.54,6.23.21.28.69.35,1.06.53.86-.84,1.64-1.61,2.37-2.32ZM313.13,147.33h-6.44c-1.14.8-1.81,2.45-3.91,2.56-1.05.06-2.35,1.34-2.4,3.36,4.85-.67,8.58-3.64,12.93-4.78-.07-.46-.11-.73-.18-1.14ZM314.24,142.56c1.68,1.09,3.12-.17,4.6-.57,1.38-.37,2.62-1.45,3.99-1.58,1.57-.16,2.85-.49,3.9-1.66q-3.28-.14-5.38,1.08c-2.93.63-5.11,1.1-7.26,1.57.08.63.11.9.15,1.17ZM360.53,145.5c2.68-.21,5.41.65,7.73-1.56-.16-.37-.31-.73-.33-.79-2.57.31-4.95.59-7.4.88v1.47ZM293.59,147.82c-.82,1.71-1.44,3.09-.02,4.1.17.12.38.18.57.26.4-.42.78-.81,1.3-1.37-.62-.99-1.23-1.99-1.85-2.99ZM346.69,146.17c-1.08-2.27-2.68-1.39-4.17-1.59v1.59h4.17ZM335.86,138.4c-.33-.75-.52-1.18-.7-1.6-1.45.51-2.66.93-4.58,1.6h5.28ZM349.42,148.27c1.58.63,3.18,1.18,4.3-1.36-.96.41-1.47.7-2.02.86-.75.22-1.52.34-2.28.5ZM327.71,137.64c.17.92.25,1.3.35,1.84.85-.05,1.61-.1,2.86-.18-1.26-.65-2.01-1.04-3.21-1.66ZM349.15,145.31c-.02-.24-.03-.49-.05-.73-.48.1-.96.21-1.43.31.02.14.04.28.06.42h1.42ZM350.16,136.31v.29h.86v-.29h-.86ZM357.03,144.03v.29h.86v-.29h-.86Z"/>
  <path class="cls-1" d="M342.75,221.87c.66-1.57,1.07-2.54,1.38-3.29,4.66-.84,8,1.13,11.16,3.6v1.81c-2.24,2.33-4.77,4.46-6.05,7.68-.39.97-1.59,1.6-2.33,2.45-1.63,1.88-3.73,3.28-4.91,5.64-.87,1.75-3.33,3.21-5.86,4.41-1.23-.36-2.49-.74-3.96-1.18-.53-.89-1.14-1.92-1.86-3.13.24-.37.52-.81.85-1.33-.19-.21-.44-.51-.7-.81,2.39-2.57,4.73-5.19,5.96-8.59,3.17-1.8,4.07-5.62,6.32-7.28ZM350.9,223.13c-1.12-.74-2.23-1.47-3.6-2.37-4.11,4.64-6.76,10.48-11.79,14.27.5,1.62-.56,2.42-1.42,3.36-.22.24-.16.74-.22,1.08.8.4,1.51.76,2.09,1.05,1-.64,2.65-1.11,2.91-1.99.46-1.57,2.05-2.03,2.51-3.26.79-2.12,2.53-3.38,4.09-4.67.59-.49.95-1.05,1.44-1.5,1.85-1.71,2.88-3.9,3.98-5.95Z"/>
  <path class="cls-1" d="M367.18,197.81c-1.76,0-3.04,0-4.32,0-1.63-.89-3.26-1.77-5.07-2.75.62-3.01,1.13-5.88,3.52-7.98.04-3.83-.58-7.85,3-10.7q4.95,1.73,5.89,3.33c.88.04,1.84.09,2.78.14.13.28.35.53.33.75-.71,6.18-2.21,12.08-6.13,17.21ZM365.65,179.95c-1.12,2.16-1.54,4.32-1.9,6.63-.33,2.11-1.8,4.04-2.92,6.38.83.43,1.46.76,2.73,1.42-.11,0,.74,0,1.64,0,3.48-3.09,3.11-7.75,4.49-11.64-.33-.66-.7-1.36-.93-1.82-1.07-.33-1.94-.61-3.11-.97Z"/>
  <path class="cls-1" d="M314.1,222.38v2.52c-.92.83-1.97,1.76-3.24,2.89-2.5.11-5.42.52-7.78-2.01v-5.32c1.3-.63,2.69-1.81,4.11-1.13,2.25,1.08,5.24.39,6.91,3.05ZM308.13,224.2v-.43h-1.72v.43h1.72Z"/>
  <path class="cls-1" d="M275.9,162.26c-1.24,1.53-1.2,3.24-2.91,3.83-2.4.83-4.67,2.1-7.22,1.52-2.98-.15-2.85-2.87-3.84-4.58.5-.86,1.04-1.78,1.75-2.98.87,0,1.82.06,2.75-.02.9-.07,1.79-.29,2.9-.48.61.8,1.49.75,2.39-.34,1.31.96,2.62,1.91,4.17,3.04ZM272.14,163.02c-1.97-1.18-3.84-1.68-6.04-1.01-.31.62-.64,1.27-1.11,2.2h5.95c.41-.41.71-.71,1.19-1.19Z"/>
  <path class="cls-1" d="M282.4,175.3c-1.2.87-2.52,1.82-3.82,2.76h-7.08c-.44-1.39-.91-2.87-1.43-4.49.99-.82,1.84-1.53,2.95-2.45.54.17,1.41.45,2.19.69,1.98-.27,3.97-.54,5.71-.78.69.67,1.09,1.07,1.49,1.45v2.81ZM277.83,175.42c.17-.23.34-.47.51-.7-.81-.59-1.63-1.18-2.44-1.77-.7.87-1.63,1.38-2.04,2.47h3.97Z"/>
  <path class="cls-1" d="M320.71,231c-.77-1.11-1.06-1.52-1.51-2.17,2.49-.29,4.72-.38,6.63,1.72.26.84.58,1.84.97,3.09-.77,3.15-3.94,3.44-6.72,4.77-1.32-1.41-3.13-2.26-3.46-4.51.79-1.48,1.8-2.68,4.09-2.91ZM321.86,233.85c.29-.29.57-.57.77-.94l.17.17.7-.6-.27-.27c-.2.23-.4.47-.51.78-.29.29-.57.57-.77.94-.06-.06-.11-.11-.17-.17l-.7.6.27.27c.2-.23.4-.47.51-.78Z"/>
  <path class="cls-1" d="M277.27,182.64c1.85-.77,3.27-1.69,5.1-.36.72.53,2.15.09,2.99.09,2.47,2.02.98,3.88.32,5.73-2.17,1.71-4.74.95-7.1,1.18l-2.37-2.37c.32-1.28.67-2.7,1.06-4.26ZM282.99,184.77c-1.57.23-2.32.33-3.17.46.56.64.91,1.05,1.26,1.45.44-.44.83-.83,1.91-1.91Z"/>
  <path class="cls-2" d="M306.58,162.23c.29-.62.58-1.21.97-2.04,1.95-.84,4.09-1.9,6.32-2.68,3.12-1.09,3.15-1,6.13.21.06.34.07.76.23,1.11.15.33.47.58.82.98-3.8,2.16-7.49,4.25-11.45,6.5-1.06-1.44-2.07-2.81-3.01-4.09Z"/>
  <path class="cls-2" d="M320.3,153.67c-.42-.18-1.03-.44-1.63-.69-.37-.83-.75-1.67-1.19-2.66.3-.19.58-.42.9-.56,2.35-1.03,4.7-1.92,7.39-1.78,1.28.07,2.59-.59,3.91-.77,1.33-.18,2.6-.25,3.96-.73,1.76-.62,3.9-.15,5.85-.15.64.82-.26.95-.51,1.26-.22.27-.7.33-1.07.45-3.89,1.26-7.77,2.51-11.66,3.76-1.87.6-3.75,1.19-5.95,1.88Z"/>
  <path class="cls-2" d="M344.97,151.1c-2.28.87-3.89,1.43-5.46,2.09-2.95,1.24-6.18,1.49-9.17,2.57-2.35.85-4.69,1.72-7.22,2.64-.43-.42-.92-.9-1.59-1.56.63-.74,1.13-1.84,1.66-1.85,2.4-.07,4.21-1.6,6.33-2.32,2.13-.72,4.38-.92,6.46-1.9,1.36-.64,3.12-.43,5.5-.69.31.09,1.46.43,3.49,1.03Z"/>
  <path class="cls-2" d="M315.75,147.5c.18-3.05,2.29-3.28,3.59-3.62,1.53-.4,3.21-.83,4.75-.86,1.71-.04,2.43-1.17,3.58-1.95,3.08,2.69,6.34-1.24,9.54.45v1.96c-7.04,1.68-14.33,1.61-21.45,4.02Z"/>
  <path class="cls-2" d="M342.04,143.26c-.67-1.1-1.08-1.77-1.56-2.57,3.84-.67,7.35-2.32,10.86-.62,4.79-1.24,9.46-2.55,14.23-.15-.7.36-1.4.72-1.63.84-1.42-.18-2.79-.79-3.43-.35-1.91,1.32-4.14.18-5.98,1.13-2.03,1.05-4.16.18-6.22.51-2.01.33-4,.77-6.28,1.22Z"/>
  <path class="cls-2" d="M306.92,153.11c3.05.59,4.95-2.43,7.96-1.46.51.83,1.14,1.85,1.97,3.19-5.11-.51-8.78,2.22-12.71,5.37-.53-1.75-1-3.28-1.54-5.02,1.18-.22,2.03-.21,2.72-.55.6-.29,1.03-.96,1.6-1.53Z"/>
  <path class="cls-2" d="M301.49,143.12c3.43-.41,6.66-.79,10.05-1.19q-.81,2.5-3.94,2.7c-.49.8-1.17,1.9-1.84,2.99-.21-.27-.43-.55-.64-.82-1.88.63-3.76,1.25-5.86,1.95-.61-.63-1.45-1.5-2.38-2.45.21-.31.35-.75.66-.94,1.36-.82,2.77-1.57,3.94-2.23Z"/>
  <path class="cls-2" d="M308.17,168.13c-.73.71-1.52,1.48-2.37,2.32-.37-.18-.85-.25-1.06-.53-1.54-2.05-3.04-4.14-4.54-6.23-1.03-1.43-2.06-2.87-3.06-4.26-.34-1.13-.67-2.24-1-3.36.15-.09.3-.19.45-.28.56.73,1.11,1.46,1.34,1.76,1.68,1.04,3,1.86,4.39,2.72-.77.77-1.27,1.27-1.9,1.9,2.08,2.49,6.39,1.86,7.75,5.95Z"/>
  <path class="cls-2" d="M313.13,147.33c.07.42.11.69.18,1.14-4.35,1.14-8.08,4.11-12.93,4.78.05-2.03,1.35-3.31,2.4-3.36,2.1-.11,2.77-1.76,3.91-2.56h6.44Z"/>
  <path class="cls-2" d="M314.24,142.56c-.03-.27-.07-.54-.15-1.17,2.15-.46,4.33-.94,7.26-1.57q2.1-1.22,5.38-1.08c-1.06,1.17-2.34,1.5-3.9,1.66-1.37.14-2.61,1.21-3.99,1.58-1.48.4-2.92,1.66-4.6.57Z"/>
  <path class="cls-2" d="M360.53,145.5v-1.47c2.44-.29,4.83-.58,7.4-.88.03.06.18.42.33.79-2.32,2.21-5.05,1.35-7.73,1.56Z"/>
  <path class="cls-2" d="M293.59,147.82c.62,1,1.24,2,1.85,2.99-.53.55-.9.95-1.3,1.37-.19-.08-.4-.14-.57-.26-1.43-1.01-.81-2.39.02-4.1Z"/>
  <path class="cls-2" d="M345.9,137.41c-2.12.32-4.24.65-6.52.99-.3-.22-.83-.6-1.8-1.31h8.3c0,.1.01.21.02.31Z"/>
  <path class="cls-2" d="M346.69,146.17h-4.17v-1.59c1.5.2,3.1-.69,4.17,1.59Z"/>
  <path class="cls-2" d="M335.86,138.4h-5.28c1.92-.67,3.13-1.09,4.58-1.6.18.42.37.85.7,1.6Z"/>
  <path class="cls-2" d="M349.42,148.27c.76-.16,1.53-.29,2.28-.5.55-.16,1.06-.44,2.02-.86-1.12,2.53-2.73,1.99-4.3,1.36Z"/>
  <path class="cls-2" d="M343.74,150.19c.69-.26,1.37-.52,2.06-.79-.14-.13-.29-.27-.43-.4h2.96c-.12.32-.15.66-.27.69-1.29.35-2.59.64-3.88.95-.14-.15-.29-.3-.43-.45Z"/>
  <path class="cls-2" d="M327.71,137.64c1.2.62,1.95,1.01,3.21,1.66-1.25.08-2.01.13-2.86.18-.1-.54-.17-.92-.35-1.84Z"/>
  <path class="cls-2" d="M349.15,145.31h-1.42c-.02-.14-.04-.28-.06-.42.48-.1.96-.21,1.43-.31.02.24.03.49.05.73Z"/>
  <path class="cls-2" d="M350.16,136.31h.86v.29h-.86v-.29Z"/>
  <path class="cls-2" d="M345.78,136.8c.2-.23.4-.47.6-.7l.27.27c-.23.2-.47.4-.7.6-.06-.06-.11-.11-.17-.17Z"/>
  <path class="cls-2" d="M357.03,144.03h.86v.29h-.86v-.29Z"/>
  <path class="cls-2" d="M350.9,223.13c-1.1,2.06-2.13,4.24-3.98,5.95-.49.45-.84,1.01-1.44,1.5-1.56,1.3-3.3,2.55-4.09,4.67-.46,1.24-2.05,1.69-2.51,3.26-.26.88-1.91,1.35-2.91,1.99-.58-.29-1.29-.65-2.09-1.05.06-.34,0-.84.22-1.08.87-.93,1.92-1.74,1.42-3.36,5.03-3.79,7.67-9.63,11.79-14.27,1.36.9,2.48,1.63,3.6,2.37Z"/>
  <path class="cls-2" d="M365.65,179.95c1.17.37,2.04.64,3.11.97.23.45.59,1.16.93,1.82-1.38,3.89-1.01,8.55-4.49,11.64-.89,0-1.75,0-1.64,0-1.27-.66-1.9-.99-2.73-1.42,1.13-2.34,2.59-4.27,2.92-6.38.36-2.31.77-4.47,1.9-6.63Z"/>
  <path class="cls-2" d="M308.13,224.2h-1.72v-.43h1.72v.43Z"/>
  <path class="cls-2" d="M272.14,163.02c-.48.48-.78.78-1.19,1.19h-5.95c.47-.92.79-1.58,1.11-2.2,2.2-.67,4.07-.17,6.04,1.01Z"/>
  <path class="cls-2" d="M277.83,175.42h-3.97c.41-1.09,1.35-1.6,2.04-2.47.82.59,1.63,1.18,2.44,1.77-.17.23-.34.47-.51.7Z"/>
  <path class="cls-2" d="M322.62,232.92l.6-.7.27.27-.7.6-.17-.17Z"/>
  <path class="cls-2" d="M322.71,233c-.29.29-.57.57-.86.86.29-.29.57-.57.86-.86Z"/>
  <path class="cls-2" d="M321.95,233.93c-.2.23-.4.47-.6.7l-.27-.27.7-.6c.06.06.11.11.17.17Z"/>
  <path class="cls-2" d="M282.99,184.77c-1.08,1.08-1.47,1.47-1.91,1.91-.35-.41-.7-.81-1.26-1.45.85-.12,1.6-.23,3.17-.46Z"/>
</svg>