<?xml version="1.0" encoding="UTF-8"?>
<svg id="Livello_1" data-name="Livello 1" xmlns="http://www.w3.org/2000/svg" viewBox="0 0 489 489">
  <defs>
    <style>
      .cls-1 {
        fill: #fff;
        stroke-width: 0px;
      }
    </style>
  </defs>
  <path class="cls-1" d="M306.45,178.75c.04-.54.12-1.08.12-1.62,0-.49-.16-.98-.15-1.47.02-.6-.33-.87-.78-1.04-.23-.09-.35-.26-.53-.39-.46-.34-.81-.85-1.46-.93-.61-.07-.69-.33-.51-.93.2-.69.28-1.42.46-2.11.17-.66-.04-1.31,0-1.96.05-.82-.24-1.52-.62-2.11-.42-.14-.74-.25-1.07-.37-.58-.2-1.86.41-1.93.99-.11.89-.18,1.79-.12,2.68.03.45.06.86-.13,1.31-.44-.44-.6.21-.98.2-.16-.07-.36-.14-.55-.24-.37-.2-.56-.56-.5-.93.14-.87.1-1.75.33-2.61.07-.27.12-.55.15-.83.1-1.07.21-2.14.28-3.21.05-.71.09-1.42.05-2.13-.02-.31-.17-.67-.38-.9-.44-.5-1.67-.6-2.24-.24-.84.54-1.45,1.28-1.64,2.28-.13.69-.23,1.39-.28,2.1-.04.52-.18,1.03-.21,1.56-.03.55.17,1.27-.38,1.59-.21,1.25,0,2.43-.31,3.63-.45-.04-.84-.08-1.24-.12-.81-.07-1.63-.16-2.45-.18-.49-.01-.98.07-1.47.13-.39.05-.78.14-1.17.2-.18.03-.43.12-.54.04-.32-.23-.63-.1-.95-.1-.34,0-.68.02-.81-.35.06-.35.14-.67.16-.99.05-.75.02-1.5.13-2.24.24-1.56.44-3.13.36-4.71-.02-.49,0-.99.03-1.48,0-.19.1-.37.08-.55-.07-1.22-.23-2.44-.22-3.67,0-.73-.21-1.3-.68-1.78-.26-.27-.63-.44-.97-.62-.18-.1-.4-.11-.59-.19-.43-.16-.85-.32-1.28-.49-.24-.07-.42-.3-.65-.37-.94-.28-1.9-.52-2.85-.76-.55-.14-1.11-.22-1.66-.35-1.16-.28-2.23-.81-3.42-1.03-.97-.18-1.94-.47-2.86-.89-.55-.26-1.21-.3-1.81-.45-1.34-.33-2.69-.66-4.03-.99-.13-.03-.27-.09-.38-.16-.87-.55-1.86-.78-2.85-.95-.84-.15-1.7-.19-2.55-.31-.53-.08-1.04-.25-1.57-.34-.18-.03-.47,0-.56.12-.1.12-.07.41,0,.58.31.8,1.54,1.21,2.48,1.11.65-.07,1.35-.15,1.96.01,1.1.28,2.15.77,3.23,1.12.9.29,1.8.66,2.72.73,1.2.09,2.3.45,3.42.81.8.26,1.58.54,2.38.79.43.13.87.2,1.3.34,1.65.54,3.3,1.11,4.95,1.63.71.23,1.44.43,2.18.56.42.08.72.28,1.11.6-.6.12-1.09.27-1.59.31-.94.08-1.88.09-2.82.16-.74.06-1.48.15-2.22.25-.55.08-1.1.22-1.65.31-.79.13-1.57.25-2.36.37-.23.03-.47.04-.7.06-.3.03-.61.04-.91.1-.77.17-1.54.37-2.32.53-.37.08-.77.02-1.12.15-.82.29-1.65.34-2.51.37-.87.03-1.73.16-2.6.24-1.14.11-2.29.21-3.43.32-.23.02-.46.07-.69.11-.83.15-1.66.32-2.5.45-.95.15-1.91.26-2.86.42-.6.1-1.17.32-1.77.41-.65.1-1.31.1-1.97.17-.96.09-1.92.2-2.88.31-.44.05-.93.02-1.32.2-.44.19-.86.2-1.31.21-.21,0-.43,0-.64.03-1.34.12-2.63.65-4,.55-.05,0-.1,0-.14.02-.75.46-1.66.38-2.46.67-.29.1-.57.23-.87.27-1.21.17-2.4.4-3.62.46-.77.04-1.52.24-2.29.26-1.3.04-2.56.33-3.82.57-.78.15-1.53.41-2.31.54-.7.12-1.43.09-2.13.2-.78.11-1.58.21-2.31.49-.67.25-1.48.08-2.03.68,0,0-.04,0-.07,0-1.08-.08-2.01.58-3.05.68-.05,0-.09.02-.13.04-.64.29-1.26.64-2.01.4-.08-.03-.19,0-.28.03-.73.19-1.45.41-2.18.58-.87.2-1.74.35-2.62.51-.92.16-1.85.3-2.77.46-.07.01-.15.04-.18.09-.17.29-.46.27-.74.32-.94.17-1.89.35-2.82.56-.68.16-1.33.4-2.01.56-1.27.3-2.55.56-3.81.86-.55.13-1.11.24-1.62.47-1.42.62-2.91,1.04-4.38,1.51-.51.16-1.05.32-1.47.63-.82.6-1.89.64-2.69,1.27-.04.04-.13.01-.22.02-.16-.15-.33-.31-.46-.43-.24.02-.43.06-.61.03-.44-.06-.87-.18-1.32-.24-.43-.06-.89.01-1.31-.1-1.1-.31-2.19-.67-3.27-1.06-1.25-.45-2.48-.96-3.73-1.41-1.01-.37-2.04-.7-3.06-1.03-.65-.21-1.3-.39-1.95-.57-.38-.11-.85-.1-1.14-.33-.99-.79-2.3-.69-3.34-1.3-1.01.03-1.86-.51-2.77-.83-1.29-.44-2.53-1.03-3.79-1.56-.3-.12-.6-.24-.9-.34-.67-.22-1.34-.42-2.02-.64-.4-.13-.8-.26-1.2-.4-.63-.22-1.3-.38-1.91-.9.47-.09.86-.15,1.23-.24.59-.15,1.2-.27,1.76-.49.53-.21,1.1-.19,1.61-.37,1.08-.39,2.22-.4,3.33-.55,1.56-.21,3.15-.26,4.72-.3,1.12-.03,2.08-.64,3.16-.78.08-.01.14-.13.22-.17.16-.08.33-.15.5-.19.18-.04.38-.02.56-.05.62-.12,1.23-.27,1.85-.38.68-.12,1.37-.2,2-.29.33,0,.62.03.9,0,.37-.06.73-.23,1.09-.25,1.13-.05,2.2-.37,3.26-.75.75-.26,1.48-.56,2.22-.83.59-.22,1.18-.44,1.79-.61.35-.1.72-.11,1.09-.16.11-.01.24,0,.35-.02,1.12-.27,2.24-.52,3.35-.84.81-.23,1.58-.56,2.37-.86.67-.25,1.14,0,1.08.6-.04.46-.13.92-.2,1.35-.33.21-.65.37-.92.58-.52.42-1.02.87-1.51,1.31-.14.12-.32.26-.37.42-.14.53-.21,1.12.12,1.56.4.54,1,.91,1.65,1.14.09.03.23-.07.34-.07.4,0,.82-.03,1.19.08.34.1.63.11.96.05.72-.12,1.44-.2,2.16-.3.18-.03.36-.09.54-.13.41-.09.84-.3,1.22-.23.49.09.87-.04,1.29-.21.53-.21,1.07-.38,1.65-.19.14.05.32,0,.48-.02.59-.09,1.2-.31,1.78-.25.63.06,1.15-.14,1.7-.35.81-.31,1.64-.55,2.43-.91.73-.34,1.45-.74,2.02-1.23-.15-.49-.35-.88-.38-1.29-.04-.62-.45-1.07-.66-1.61-.04-.11-.32-.18-.49-.18-.87-.03-1.74-.05-2.54.35-.08.04-.17.11-.24.1-.43-.07-.53.2-.6.54.16.23.32.46.48.69.87-.06,1.72-.35,2.7-.3-.54.22-.96.4-1.41.58.17.29.28.49.45.78h-.61c-.48.77-1.25,1.09-2.01,1.35-.86.29-1.81.12-2.69.43-.25.09-.56.01-.98.01,1.35-.46,2.55-.86,3.74-1.26v-.86c-.2-.15-.37-.26-.45-.32.03-.56.04-1.02.07-1.48,0-.12.02-.25.07-.34.28-.46.2-.96.15-1.45-.01-.13,0-.27.01-.41.05-.39.14-.78.17-1.18.03-.44,0-.89,0-1.25.31-.12.53-.19.74-.29.27-.14.52-.35.81-.44.81-.24,1.63-.43,2.45-.63.5-.12,1.02-.2,1.5-.35,1.08-.34,2.14-.72,3.21-1.08.07-.02.14-.05.2-.05.65-.02,1.32.04,1.96-.06.72-.11,1.55.06,2.07-.63.83.1,1.56-.17,2.29-.4.11-.03.21-.19.26-.31.13-.32.23-.65.36-1.02-.19-.05-.33-.13-.45-.1-.8.2-1.59.4-2.37.65-.62.2-1.2.5-1.88.48-.22,0-.44.12-.63.18-.23-.05-.45-.14-.67-.12-1.29.09-2.44.78-3.74.85-.22.01-.44.16-.66.24-.26.1-.52.22-.79.28-.46.09-.98.03-1.38.21-.94.43-1.93.5-2.86.7-.14-1.08-.34-2.1-.39-3.12-.05-1.02-.48-1.83-1.08-2.59-.22-.28-.41-.58-.64-.84-.13-.15-.31-.26-.48-.35-.57-.27-1.19-.4-1.72-.78-.53-.37-1.18-.55-1.82-.25-.62.29-1.21.63-1.68,1.16-.41.46-.73.97-1.08,1.46-.71,1.01-.77,2.19-1.12,3.29-.19.6.22,1.38-.54,1.82-.01,0,0,.04-.02.07-.29,1.15-.58,2.31-.89,3.5h-.59c-.18.57-.51.92-1.13,1.02-.36.06-.72.25-1.04.43-.79.44-1.66.63-2.54.79-.16.03-.37.02-.46.12-.46.46-1.08.28-1.6.44-.11.04-.28-.04-.39-.11-.78-.47-1.54-.97-2.33-1.44-.44-.26-.9-.48-1.5-.37.28-.92.54-1.76.8-2.61,0-.02.03-.03.04-.05.17-.3.37-.59.51-.9.2-.47.35-.97.55-1.44.1-.23.28-.43.39-.66.3-.65.58-1.31.86-1.97.06-.15.1-.31.14-.46.05-.18.05-.39.14-.54.84-1.38,1.14-3.03,2.13-4.33.08-.11.09-.27.15-.4.39-.93.76-1.87,1.2-2.78.49-1.04,1.08-2.02,1.57-3.06.47-1.02.86-2.08,1.29-3.12.11-.28.22-.56.34-.84.1-.23.22-.44.32-.67.12-.28.2-.58.32-.86.32-.75.65-1.49.98-2.24.37-.84.71-1.69,1.11-2.51.44-.89,1.03-1.7,1.17-2.73.06-.4.2-.8.36-1.18.38-.88.78-1.75,1.18-2.63.11-.23.23-.46.32-.7.33-.87.59-1.76.8-2.67.04-.18.12-.35.22-.51.22-.34.34-.69.38-1.11.05-.53.23-1.05.41-1.55.72-1.97,1.47-3.92,2.19-5.88.12-.32.17-.67.28-1,.29-.85.64-1.69.89-2.56.14-.48.12-1,.39-1.47.2-.35.33-.81.33-1.22-.01-.79.47-1.4.63-2.13.11-.5.49-.94.71-1.43.08-.19.05-.42.07-.54.23-.23.5-.41.62-.65.31-.62.54-1.28.8-1.89.61-.34.65-.39,1.01-1.43.13-.04.28-.1.44-.14,1.45-.34,2.9-.67,4.35-1.02,2-.49,4.02-.95,6-1.52.98-.28,1.93-.69,2.91-1,.72-.23,1.38-.66,2.1-.89.83-.27,1.62-.72,2.55-.58.21.03.48-.08.67-.2.59-.4,1.18-.78,1.92-.64.11-.22.19-.38.27-.54.69-.05,1.31-.38,1.93-.37.72.02,1.26-.3,1.86-.55.38-.16.79-.35,1.19-.35.34,0,.62-.06.93-.17.47-.18.96-.29,1.56-.47.02-.03.1-.19.2-.37.89.36,1.35-.44,2.02-.71.17.02.36.06.55.07,1.09.06,2.01-.57,3.05-.75.73-.13,1.44-.35,2.28-.56.05.52.1.93.14,1.34.05.53.09,1.07.15,1.6.03.23.08.46.14.69.13.52.21,1.06.42,1.56.36.86.87,1.67,1.19,2.54.26.71.71,1.26,1.12,1.85.97,1.41,2.47,2.21,3.72,3.29.31.27.62.5.77.89.2.55.59.9,1.16.94h1.03c.26-.36.44-.78.77-1.02.78-.57,1.44-1.29,1.99-2.04.85-1.17,1.54-2.45,2.26-3.71.33-.58.57-1.22.82-1.84.25-.6.5-1.21.7-1.83.27-.85.48-1.72.72-2.58.3-1.04-.33-1.75-.85-2.56-.19.37-.34.66-.45.88.04.38.18.72.09,1-.18.62.07,1.35-.5,1.86-.03.02-.01.09-.02.14-.15.58-.27,1.17-.47,1.74-.25.73-.53,1.44-.99,2.1-.52.75-.95,1.57-1.35,2.39-.23.47-.44.93-.81,1.31-.42.44-.76.97-1.18,1.41-.34.36-.6.84-1.16.96-.15-.78-.51-1.28-1.3-1.44-.19-.04-.42-.24-.5-.43-.19-.44-.34-.91-.43-1.39-.14-.74-.23-1.48-.34-2.23-.08-.55-.24-1.11-.21-1.66.1-1.76.26-3.53.4-5.29.04-.47.16-.94.14-1.41-.11-2.07.66-3.98,1.02-5.96.13-.71.39-1.4.59-2.09.04-.14.09-.27.17-.39.53-.86.95-1.77,1.25-2.73.05-.15.17-.28.27-.41.51-.63,1.04-1.26,1.54-1.9.31-.39.69-.44.99-.04.25.34.43.73.63,1.1.41.77.75,1.58,1.25,2.29.39.57.7,1.1.83,1.81.25,1.42.23,2.82.03,4.22-.04.26-.27.61-.5.72-.56.26-1.17.56-1.76.57-.94,0-1.7.52-2.58.68-.19.03-.4.29-.48.49-.15.37-.28.77-.3,1.16-.09,1.19.36,1.63,1.46,1.48.17-.02.33-.16.5-.23.28-.12.56-.24.84-.33.92-.27,1.88-.44,2.75-.82.86-.38,1.72-.66,2.65-.74.94-.08,1.85-.23,2.69-.72.27-.16.61-.27.92-.26,1.12.04,2.17-.15,3.24-.5.56-.19,1.28-.33,1.8.38.2.27.68.46,1.04.47.52.01,1.05-.17,1.39-.23.51-.5.89-.87,1.26-1.24.32-.31.59-.69,1.13-.63.12.01.25-.11.38-.18.3-.17.6-.35.91-.5.48-.24,1-.41,1.45-.7.43-.27.52-.91.28-1.34-.24-.45-.51-.52-1.14-.33-.18.05-.36.11-.55.14-.5.09-1,.13-1.39.55-.16.17-.45.22-.75.36-.41-1.02-1.21-.92-2.02-.78-.07.01-.14,0-.21,0-.29,0-.5.1-.76.28-.49.36-.94.89-1.67.73-.09-.02-.22.06-.32.13-.77.51-1.68.73-2.53.79-1.28.1-2.52.63-3.84.38-.7.35-1.55-.05-2.22.47-.06.04-.24-.08-.38-.14.04-.78.02-1.53.13-2.27.15-1.02-.18-1.97-.42-2.91-.19-.78-.67-1.49-1.04-2.23-.56-1.14-1.14-2.27-1.71-3.4-.14-.27-.3-.52-.45-.77-1.08.09-2.03.38-2.91.88-.38.22-.77.49-1.19.58-.74.15-1.35.51-1.95.9-.61.4-1.18.85-1.82,1.2-.61.34-1.11.76-1.53,1.31-.4.52-.81,1.03-1.25,1.52-.83.91-1.35,2.01-1.86,3.1-.28.6-.33,1.31-.47,1.98-.12.58-.26,1.11-.87,1.43-.48.25-.87.61-1.47.6-.42,0-.86.11-1.26.25-.82.29-1.62.63-2.45.96-.15-.07-.31-.15-.51-.25-.11.16-.19.29-.26.38-.98.22-2.01.14-2.86.76-.11.08-.26.1-.4.13-1.04.17-2.08.31-3.11.52-1.01.2-2,.51-3.01.7-1.77.35-3.5.91-5.33.94-.48,0-.96.19-1.44.32-.86.24-1.7.54-2.56.73-.75.16-1.56.02-2.29.35-.43.2-.88.28-1.35.32-.53.05-1.05.24-1.58.37-.65.16-1.26.5-1.97.31-.15-.04-.33,0-.49.02-.71.11-1.43.23-2.14.35-.37-.32-.15-.69-.03-.98.54-1.33,1.11-2.66,1.69-3.97.13-.3.36-.55.51-.84.31-.63.4-1.35.84-1.93.09-.12.01-.38.01-.61.5-.44,1.01-.92,1.18-1.65.05-.2.21-.36.31-.55.18-.35.36-.71.54-1.07.2-.4.39-.81.58-1.21.22-.44.59-.86.64-1.32.09-.83.5-1.51.8-2.24.21-.5.53-.96.63-1.48.13-.65.39-1.14.95-1.47.2.01.4.07.56.02.45-.14.87-.34,1.32-.49.82-.27,1.66-.47,2.53-.4.05,0,.1.07.15.11-.14.12-.27.23-.49.42.33.03.53.05.73.06.16.34.3.66.45.98-.12.28-.15.54-.16.81-.04.73,0,1.46-.11,2.18-.19,1.2.36,2.33.27,3.49.52.58,1.2.3,1.81.46.14-.41.42-.53.81-.58,1-.14,1.4-.81,1.14-1.77-.05-.17-.03-.36-.04-.54,0-.33.04-.67-.03-.98-.24-1.05-.17-2.11-.19-3.16-.01-.58.03-1.18-.08-1.75-.09-.48-.03-.83.17-.99.71-.1,1.23-.15,1.75-.24.37-.06.73-.2,1.05.18-.08.25-.21.5-.21.74-.02.76-.12,1.51-.17,2.26-.05.77-.34,1.58.05,2.35.02.03,0,.09-.01.14-.23,1,.06,1.97.26,2.93.1.47.38.9.59,1.34.04.08.14.17.21.17.42,0,.78.2,1.26.1.86-.17,1.3-.52,1.34-1.4.03-.82.22-1.65.15-2.46-.07-.8-.13-1.58,0-2.39.11-.67.25-1.38.14-2.04-.15-.92.04-1.78.2-2.65.09-.51.22-1.05.85-1.27.24-.08.41-.43.55-.69.15-.28.29-.6.63-.59.46.01.76-.25,1.14-.42,1.19-.53,2.42-1,3.63-1.49.76-.3,1.54-.58,2.3-.89.16-.07.29-.22.47-.35.45.16.84.01,1.22-.28.27-.21.6-.35.92-.48.85-.34,1.75-.53,2.5-1.11.2-.15.4-.24.37-.53-.04-.39-.09-.78-.14-1.24-.33-.11-.71-.23-.91-.29-.78.31-1.42.52-2.02.81-.8.38-1.8.19-2.43.94-.59-.16-1.14-.19-1.66.15-.17.11-.41.15-.61.15-.76-.03-1.39.29-2.04.62-.7.36-1.44.64-2.15.98-.32.15-.66.14-.97.23-.72.2-1.41.54-2.19.85-.02-.24-.07-.46-.06-.69.03-.84.1-1.69.11-2.53,0-.42-.03-.85-.14-1.25-.2-.68-.68-.74-1.36-.51-.63.21-.96.72-1.44,1.06-.4.28-.55.66-.53,1.16.04,1.04,0,2.08.01,3.12,0,.64-.24,1.09-.88,1.29-.27.09-.52.25-.79.3-.43.08-.7.36-.97.66-.07.08-.15.16-.26.28.05-.33.12-.57.12-.82.01-1.1,0-2.2,0-3.3,0-.16-.09-.31-.13-.47-.05-.18-.12-.35-.14-.54-.07-.65-.69-1.02-1.17-.59-.47.43-1.05.52-1.57.78-.71.36-1.01.86-.86,1.62.17.83.33,1.66.49,2.49.06.33-.02.58-.4.71-.72.26-1.43.57-2.14.86-.04.02-.09.03-.14.04-.54.12-1.1.21-1.63.38-.51.16-.99.4-1.48.61-.27.12-.55.24-.81.38-.33.18-.61.46-.95.58-.61.21-1.25.39-1.88.46-.6.06-.95.41-1.37.84.2.4.39.78.55,1.1-.25.52-.46.97-.67,1.42-.23.49-.43.99-.67,1.47-.51.98-1.05,1.95-1.56,2.93-.3.58-.54,1.2-.86,1.77-.39.68-.81,1.34-.76,2.11-.21.23-.44.38-.55.6-.16.3-.22.65-.35.98-.21.54-.48.6-.98.31-.89-.52-1.76-1.09-2.7-1.5-.65-.29-.9-.68-.86-1.33.12-.27.24-.55.28-.84.05-.38.11-.71.44-.99.18-.16.26-.51.27-.77.02-.56.31-.98.66-1.36.33-.37.47-.78.27-1.19-.3-.63-.75-1.15-1.28-1.59-.29-.24-.63-.28-.9,0-.43.43-.9.86-1.19,1.37-.53.94-.95,1.94-1.42,2.92-.15.31-.32.62-.46.92-1.06.16-1.83-.89-2.79-.48-.22-.24-.37-.46-.57-.61-.51-.38-1.04-.73-1.56-1.1-.38-.28-.65-.63-.55-1.14.08-.39.27-.77.26-1.15-.02-.95.46-1.71.89-2.46.36-.64.56-1.28.71-2.07-1.09-.7-2.36-.55-3.64-.79-.35.94-.99,1.67-1.18,2.69-.23,1.18-.72,2.31-1.12,3.52-1.36-.89-2.64-1.73-3.93-2.58-.28.1-.59.21-.8.28-.34.38-.61.7-.93,1.06,0,.1,0,.27,0,.43.02.57.52,1.11,1.05,1.25,1.13.31,2.27.61,3.36,1.03.79.31,1.18,1.12,1.67,1.78.04.05.03.14.02.21-.11.43-.18.88-.35,1.29-.5,1.27-1.04,2.52-1.57,3.77-.31.73-.62,1.46-.94,2.19-.37.86-.76,1.71-1.13,2.56-.34.79-.66,1.59-1,2.39-.21.49-.21.98.04,1.43.43.79,1.83.76,2.33-.06.32-.52.51-1.13.88-1.6.89-1.11,1.39-2.4,1.95-3.67.13-.29.31-.56.42-.76.08-.35.12-.64.22-.91.21-.61.44-1.2.72-1.99.28-.19.52-.61.53-1.18,0-.21.15-.45.28-.64.33-.48.68-.94,1.03-1.41,1.19.03,2.03.84,3.02,1.28.41.18.75.55,1.15.87-.17.43-.3.8-.45,1.16-.15.37-.32.73-.49,1.08-.12.25-.25.5-.41.74-.2.31-.54.58-.62.91-.19.81-.53,1.54-.97,2.23-.14.22-.25.45-.33.7-.24.78-.4,1.59-.69,2.35-.37.96-.84,1.88-1.28,2.82-.07.14-.2.26-.34.43.12.24.18.58.38.71.59.38,1.27.53,1.95.36.64-.16,1.08-.67,1.24-1.27.23-.83.7-1.56.92-2.39.02-.09.06-.2.13-.25.31-.24.3-.56.19-.85.31-.35.69-.61.86-.98.29-.66.47-1.37.68-2.07.1-.32.16-.65.47-.64.36-1.24,1.06-2.19,1.64-3.15.58.19,1.07.28,1.49.51.45.24.86.57,1.23.93.2.19.28.51.42.78-.17.59-.32,1.2-.52,1.8-.12.38-.32.72-.46,1.09-.44,1.18-.8,2.4-1.33,3.54-.65,1.37-1.03,2.85-1.74,4.19-.41.77-.65,1.64-1.01,2.44-.36.8-.44,1.68-.91,2.47-.4.67-.56,1.49-.83,2.24-.24.64-.43,1.31-.76,1.9-.4.74-.39,1.66-1.03,2.28,0,.74-.46,1.34-.7,1.99-.52,1.42-1.19,2.8-1.87,4.16-.45.89-.7,1.83-.99,2.76-.17.53-.15,1.14-.39,1.63-.29.59-.2,1.32-.7,1.82-.04.04-.03.14-.04.2-.09.36-.16.73-.28,1.09-.5,1.48-1.02,2.95-1.54,4.43-.1.28-.23.54-.31.83-.26.95-.49,1.9-.74,2.85-.32,1.22-.66,2.44-.97,3.67-.11.44-.09.92-.24,1.35-.27.75-.63,1.47-.92,2.21-.48,1.19-.96,2.38-1.14,3.68-.07.51-.54.94-.38,1.53,0,.03-.06.07-.08.11-.21.47-.54.93-.6,1.42-.18,1.47-.9,2.75-1.34,4.14-.26.84-.55,1.66-.93,2.46-.36.76-.55,1.61-.95,2.35-.59,1.1-1.1,2.23-1.52,3.4-.38,1.06-.83,2.08-.78,3.25.01.3-.17.67-.57.8-.14.05-.26.18-.38.3-1.08,1.09-2.16,2.18-3.26,3.3.04.26.1.62.15.96-.98.25-1.9.22-2.76.59-.97.41-2.01.65-3.02.97-.11.03-.23.1-.34.09-.89-.13-1.75.28-2.65.17-.43-.06-.88-.02-1.31,0-.56.04-1.17.01-1.67.22-.56.24-1.03.22-1.52,0-.38.11-.74.3-1.1.3-.55-.01-1.02.15-1.49.37-.53.25-1.08.33-1.61.14-.88.68-1.85.79-2.92.72-.5.6-1.34.28-2.03.63-.09.14-.2.31-.25.4.07.68.24,1.28.16,1.83-.1.65.13,1.2.23,1.79.02.14.08.28.07.41-.08,1.01-.17,2.01-.25,3.02-.01.16.02.33.04.49.08.7.15,1.4.24,2.1.02.21.02.44.11.62.2.4.16.76-.08,1.07.1.22.23.39.23.56.02.72.06,1.45-.01,2.17-.03.35-.05.64.14.79-.01.32-.11.59-.02.75.27.46.16.86-.1,1.27.27.52.21,1.03-.03,1.54.1.12.21.24.33.38-.43.58-.36,1.15-.06,1.74.11.22.23.54.16.74-.19.56.06,1.07.06,1.6,0,.2,0,.41.01.61.04.53.1,1.06.15,1.59.04.38.1.76.12,1.14.02.28-.03.57-.01.85.03.52.08,1.03.12,1.55.02.26-.04.54.03.78.2.66.07,1.25-.28,1.84.37.46.47,1,.42,1.57-.01.16-.16.33-.12.46.25.82-.11,1.72.35,2.51.05.09.05.24.02.35-.24.84,0,1.67.24,2.42.34,1.09.35,2.18.34,3.29,0,.28-.12.56-.09.83.16,1.33.4,2.65.25,3.99-.03.23-.02.48.01.71.08.71.18,1.43.27,2.14.05.37.12.75.14,1.12.08,1.51.22,3.02.41,4.52.17,1.31.1,2.64.2,3.96.06.83-.02,1.69.3,2.49.06.15.07.32.1.48.14.85.16,1.73.44,2.54.38,1.09.34,2.22.53,3.33.17.95.12,1.93.17,2.89,0,.09,0,.21.04.28.32.42.21.9.24,1.37.05.68.13,1.36.17,2.04.07,1.23.53,2.39.61,3.63.08,1.28.28,2.56.39,3.84.11,1.32.17,2.64.25,3.95,0,.12,0,.24.02.35.17,1.19.35,2.37.51,3.56.01.09-.04.19-.03.28.06.87.1,1.74.19,2.6.07.63.28,1.25.28,1.88,0,1.6.44,3.12.67,4.68.17,1.14.59,2.24.51,3.42-.03.48.08.98.17,1.47.2,1.08.43,2.16.62,3.24.07.38.25.54.61.54.51,0,1.03,0,1.54,0,.19.04.33.22.46.4.72,1.08,1.68,1.91,2.79,2.56,1.11.65,2.28,1.19,3.37,1.88,1.12.71,2.2,1.48,3.48,1.9.66.22,1.27.6,1.91.88.6.26,1.22.48,1.83.72,1.02.4,2.04.82,3.06,1.2.81.3,1.54.76,2.41.93.62.12,1.19.5,1.79.74.76.3,1.54.55,2.3.85.41.16.87.32,1.19.6.44.39.88.51,1.41.37.43-.74.38-1.08-.27-1.49-1.67-1.04-3.53-1.63-5.39-2.25-.88-.29-1.84-.37-2.66-.86-.4-.24-.81-.47-1.24-.66-.49-.22-1.01-.38-1.52-.57-.27-.1-.53-.2-.8-.29-.72-.24-1.5-.34-2.09-.92-.2-.2-.55-.23-.83-.35-.42-.19-.84-.39-1.26-.6-.13-.06-.24-.15-.36-.22-1.34-.73-2.69-1.43-4.01-2.19-.81-.47-1.58-1.02-2.35-1.57-.52-.36-1-.78-1.51-1.16-.33-.25-.68-.48-1.03-.69-.43-.25-.89-.45-1.33-.71-.1-.06-.18-.23-.21-.36-.21-.94-.44-1.88-.61-2.83-.22-1.27-.36-2.56-.57-3.84-.17-1.06-.42-2.12-.59-3.18-.2-1.23-.4-2.46-.53-3.7-.18-1.59-.3-3.18-.44-4.77-.15-1.76-.33-3.51-.41-5.27-.06-1.24-.06-2.48-.3-3.71-.14-.74-.2-1.49-.34-2.23-.11-.63-.3-1.25-.41-1.88-.07-.38-.07-.78-.1-1.17-.05-.7-.08-1.41-.16-2.11-.04-.39-.17-.78-.24-1.17-.07-.37-.16-.73-.17-1.1-.03-.88-.02-1.76-.02-2.64,0-.02,0-.05,0-.07-.19-1.14-.4-2.27-.58-3.41-.21-1.29-.65-2.54-.72-3.86-.02-.35-.07-.72-.23-1.03-.19-.37-.15-.72-.13-1.1.03-.53.03-1.06-.02-1.58-.06-.67.1-1.38-.27-2.01-.02-.03,0-.09.01-.14.21-.8.13-1.54-.47-2.13.16-.22.28-.39.42-.57-.08-.12-.14-.21-.2-.31-.07-.12-.13-.25-.19-.37q.34-.68-.15-1.23c.19-.63.41-1.24.18-1.92-.09-.26-.08-.56-.06-.84.05-.89-.1-1.73-.46-2.55-.19-.44-.22-.9.12-1.34.13-.17.2-.44.17-.65-.09-.9-.28-1.79-.33-2.7-.03-.67-.28-1.34-.25-2.05.04-1.04-.54-2.04-.27-3.11.01-.04,0-.09-.01-.14-.08-.95-.18-1.9-.25-2.86-.06-.77-.08-1.55-.15-2.32-.04-.44-.16-.87-.24-1.31-.03-.16-.09-.36-.02-.49.23-.41.18-.74.06-1.22-.2-.79-.09-1.67-.08-2.51.01-1.1-.17-2.15-.55-3.18-.01-.04,0-.08,0-.11.13-.06.25-.11.42-.18-.16-.23-.28-.42-.41-.61.13-.14.24-.26.36-.39-.13-.29-.26-.56-.35-.75.09-.36.22-.63.22-.89,0-.93-.05-1.86-.07-2.79-.02-.82-.02-1.64-.07-2.46-.11-1.78-.26-3.55-.38-5.33-.03-.39-.06-.79,0-1.18.17-1.11.19-2.21,0-3.31-.01-.08.04-.17.06-.26.75.32,1.47.63,2.2.92.61.24,1.23.48,1.85.69,1.04.34,2.09.67,3.13.99.22.07.46.08.69.15.47.14,1.04.18,1.39.47.59.5,1.39.57,1.94,1.1.09.09.26.09.39.14.84.36,1.78.31,2.64.69,1.37.6,2.83,1.02,4.26,1.49.19.06.42-.04.59-.06.2.11.37.22.56.3.97.41,1.94.83,2.92,1.22.58.23,1.18.43,1.78.63,1.38.44,2.8.79,4.14,1.34,1.13.46,2.3.64,3.48.79.28.04.56.15.75.21-.07.57-.19,1.01-.17,1.44.05.83.17,1.66.27,2.49.03.28.14.54.16.82.07.95-.1,1.89-.04,2.85.04.69-.12,1.39,0,2.09.08.5.04,1.02.06,1.52.02.35.1.7.08,1.05-.03.6-.17,1.19,0,1.81.1.39.03.83.05,1.25.03.72.03,1.45.13,2.16.08.57.17,1.1.01,1.68-.08.28-.01.61.04.91.1.55.28,1.09.34,1.64.1.84.11,1.69.21,2.54.09.84.25,1.68.12,2.53-.02.15.05.32.08.48.07.42.29.87.19,1.25-.15.59.03,1.14.03,1.7,0,1.21.14,2.42.25,3.63.07.82.2,1.63.31,2.45,0,.07.07.12.08.19.06.27.11.54.15.81.03.2.04.4.08.59.11.5.41,1.04.31,1.5-.17.82.13,1.57.1,2.37-.05,1.05.15,2.11.25,3.16.09.89.19,1.78.27,2.67.03.32.12.68.03.96-.15.45-.18.85-.05,1.31.08.28.04.59.06.89.08,1.38.14,2.77.24,4.15.03.48.2.96.21,1.44.02.84-.07,1.69-.03,2.54.08,2.06.2,4.12.31,6.18.02.46.02.93.1,1.38.26,1.44.11,2.87.09,4.4.1.1.11.31.16.55.14.62-.04,1.22.09,1.85.19.89.08,1.84.07,2.77-.01.61-.11,1.22-.12,1.83,0,.42.11.84.12,1.26.02.97,0,1.94,0,2.92,0,.57.02,1.14.02,1.71,0,.8.01,1.59,0,2.39-.01.54-.11,1.08-.11,1.62,0,1.02.05,2.03.09,3.05.03.63.16,1.28.09,1.9-.12.93.11,1.82.14,2.73.01.28.05.57.03.85-.02.49-.09.98-.12,1.48-.08,1.46.09,2.92.02,4.38-.06,1.15.1,2.31.11,3.47.02,1.84.08,3.68-.25,5.55.38.22.73.43,1.09.64.28-.16.52-.3.8-.46-.03-.25-.06-.5-.11-.86.28-.13.59-.3.91-.4,1.43-.45,2.87-.9,4.32-1.29.74-.2,1.51-.32,2.28-.41.68-.08,1.37-.08,2.05-.07.44,0,.88.08,1.37.12.03.91.55,1.74.02,2.63-.18.3-.19.7-.24,1.07-.14.99-.22,1.99-.42,2.97-.2,1.01-.42,2.04-.81,2.99-.39.97-.59,1.97-.8,2.98-.09.43-.17.87-.33,1.27-.22.57-.55,1.09-.78,1.66-.37.94-.69,1.9-1.06,2.84-.24.63-.52,1.25-.8,1.86-.41.89-.74,1.83-1.28,2.64-.72,1.06-1.08,2.28-1.68,3.39-.4.75-.68,1.56-1.04,2.33-.43.92-.69,1.92-1.26,2.78-.11.17-.1.41-.16.61-.04.13-.07.28-.13.4-.47.92-.95,1.84-1.44,2.75-.16.29-.38.54-.53.83-.71,1.38-1.42,2.76-2.09,4.16-.37.76-.66,1.55-.98,2.34-.36.89-.7,1.79-1.09,2.67-.4.9-.85,1.77-1.27,2.66-.17.37-.29.77-.48,1.13-.25.48-.56.92-.83,1.39-.76,1.28-1.29,2.67-1.79,4.06-.53,1.48-.98,2.99-1.43,4.49-.28.92-.52,1.85-.72,2.8-.24,1.15-.4,2.31-.6,3.46-.01.07-.04.14-.07.2-.47.91-.74,1.88-.97,2.87-.31,1.28-.73,2.55-.88,3.85-.14,1.18-.45,2.34-.4,3.56.05,1.14-.17,2.3-.38,3.43-.1.54-.16,1.09-.23,1.63-.11.88-.23,1.77-.27,2.66-.03.62.08,1.25.11,1.87.05,1.03.08,2.06.14,3.09.09,1.51.21,3.02.29,4.52.04.65-.03,1.31.04,1.96.13,1.3.31,2.6.49,3.89.14,1.05.33,2.09.46,3.14.17,1.4.3,2.8.45,4.21,0,.09.05.18.07.27.19.75.38,1.5.56,2.25.04.18.04.38.07.56.06.51.09,1.03.18,1.54.32,1.73.43,3.5.91,5.2.26.92.38,1.88.56,2.82.07.37.17.73.26,1.09.12.5.25.99.34,1.5.15.86.24,1.72.39,2.58.08.45.22.88.33,1.33.27,1.14.53,2.29.82,3.42.06.24.25.45.31.69.2.84.37,1.69.54,2.54.12.65.22,1.3.33,1.95.09.53.18,1.06.26,1.59.04-.03.07-.06.11-.09.06.04.17.08.18.14.03.23,0,.48.04.71.27,1.53.57,3.04,1,4.53.04.16.09.32.11.48.12.84.24,1.68.36,2.52.25,1.7.57,3.39.75,5.09.14,1.33.11,2.67.16,4.01.03.62.08,1.25.11,1.87.06.94.24,1.9.12,2.82-.09.71-.06,1.4-.09,2.1,0,.26-.03.52-.05.78-.03.03-.06.05-.09.08.06.29.16.58.17.88.02,1.11,0,2.22,0,3.33,0,.91.07,1.83.02,2.74-.04.84-.21,1.67-.3,2.5-.06.56,0,1.14-.09,1.7-.18,1.06-.43,2.11-.65,3.17.02.02.04.04.07.06,0,.15.05.32,0,.46-.23.77-.48,1.52-.71,2.29-.52,1.74-1.02,3.48-1.53,5.22-.22.75-.43,1.49-.64,2.24-.16.59-.3,1.18-.48,1.76-.27.9-.21,1.86-.62,2.73-.08.17-.07.39-.1.64h1.89c.07-.23.17-.45.2-.67.15-1.05.3-2.1.43-3.15.07-.54.14-1.06.58-1.46.13-.11.15-.34.23-.51.12-.25.26-.48.39-.72-.02-.37-.05-.74-.07-1.13.14-.01.25-.03.31-.03.12-.2.17-.44.32-.53.35-.21.47-.51.53-.87.11-.72.23-1.43.35-2.19-.12-.08-.27-.17-.46-.29.74-.45.45-1.16.53-1.76.3-.03.36.14.34.35-.12,1.11-.2,2.23-.38,3.33-.15.93-.44,1.83-.62,2.76-.24,1.26-.41,2.54-.63,3.81-.18,1-.4,1.98-.61,3.04h1.84c.15-1-.01-1.96.31-2.9.35-1.03.19-2.19.67-3.23.15-.34.24-.71.34-1.06.24-.88.14-1.8.4-2.69.2-.7.1-1.47.29-2.22.26-1.04.29-2.13.44-3.2.18-1.27.36-2.53.58-3.79.19-1.06.42-2.12.64-3.18.12-.58.27-1.15.35-1.73.17-1.21.27-2.44.46-3.65.26-1.61.39-3.23.42-4.86.01-.8.17-1.59.23-2.39.06-.77.12-1.55.11-2.33-.02-.89-.14-1.79-.2-2.68-.06-.78-.08-1.56-.16-2.33-.12-1.22-.33-2.43-.39-3.64-.07-1.31-.31-2.57-.61-3.83-.23-.99-.47-1.98-.41-3.01.01-.19-.04-.37-.07-.56-.12-.89-.2-1.78-.36-2.66-.19-1.02-.43-2.02-.69-3.02-.31-1.18-.66-2.35-1.02-3.53-.29-.94-.61-1.88-.9-2.82-.13-.43-.33-.88-.3-1.3.05-.61-.07-1.17-.24-1.72-.36-1.16-.83-2.3-1.07-3.49-.32-1.54-.88-3.03-1.01-4.61-.05-.58-.33-1.13-.42-1.7-.14-.98-.28-1.96-.62-2.89-.21-.55-.27-1.09-.26-1.66,0-.14,0-.29-.04-.42-.23-.98-.47-1.96-.7-2.95-.23-1-.48-2-.68-3.01-.18-.88-.22-1.78-.46-2.64-.38-1.38-.36-2.8-.52-4.2-.12-1.01-.2-2.02-.31-3.02-.02-.16-.09-.32-.1-.48-.07-1.03-.1-2.06-.21-3.08-.11-1.05-.29-2.1-.41-3.15-.07-.6-.17-1.24-.08-1.82.17-1.03.15-2.03-.07-2.92.21-1.18.4-2.27.59-3.36.22-1.27.42-2.54.67-3.8.22-1.1.58-2.18.71-3.29.14-1.22.34-2.41.72-3.58.46-1.42.81-2.88,1.31-4.29.63-1.74,1.46-3.39,2.22-5.08.29-.64.46-1.3.85-1.91.28-.44.39-1.03.63-1.53.93-1.95,1.83-3.91,2.72-5.88.27-.6.45-1.24.72-1.83.35-.76.76-1.5,1.13-2.26.27-.57.5-1.15.76-1.72.3-.66.64-1.3.93-1.96.41-.92.77-1.87,1.2-2.79.77-1.64,1.49-3.3,1.8-5.1.02-.09.05-.19.11-.25.81-.83.85-1.96,1.27-3.03.49-.39.7-1.05.93-1.68.59-1.68,1.19-3.35,1.94-4.97.38-.83.83-1.64.87-2.59,0-.2.14-.4.22-.59.21-.52.42-1.02.61-1.55.26-.72.55-1.44.74-2.19.24-.92,1.11-1.53,1.17-2.53.54-.55.69-1.28.9-1.98.47-1.55.95-3.1,1.38-4.66.14-.49.15-1.02.2-1.54.07-.84.27-1.67.06-2.53-.12-.46-.02-.98-.02-1.51h3.03c.08.49.33.92.16,1.43-.1.29-.02.64-.03.96-.02.33-.06.65-.08.98-.02.42-.08.86-.02,1.27.16,1.25.27,2.5.27,3.77,0,1.94.08,3.88.13,5.81.02.66.07,1.32.1,1.98,0,.11-.03.23-.06.34-.04.22-.12.44-.12.66,0,.4.06.8.04,1.19-.07,1.21-.17,2.42-.25,3.63-.02.37.08.79-.06,1.1-.23.5-.16,1-.21,1.49-.14,1.45-.14,2.92-.31,4.36-.21,1.81.09,3.6.2,5.4.07,1.2.27,2.39.24,3.6,0,.26,0,.52.02.78.08,1.53.19,3.06.25,4.59.02.61-.12,1.22-.12,1.83.01,1.06.08,2.12.13,3.18,0,.21,0,.43.02.64.13,1.11.41,2.23.37,3.34-.06,1.58.36,3.13.2,4.71-.08.74.02,1.5.03,2.25.03,1.31.05,2.63.09,3.94.04,1.32.09,2.64.13,3.95.05,1.58.13,3.17.14,4.75,0,1.18-.07,2.36-.14,3.54-.08,1.48-.18,2.96-.29,4.45-.12,1.62-.3,3.24-.4,4.86-.09,1.33-.13,2.67-.14,4.01-.02,1.72-.16,3.43-.27,5.14-.14,2.22-.13,4.45-.15,6.67-.01,1.26.03,2.52.06,3.79,0,.21.09.43.04.62-.4,1.71-.21,3.44-.25,5.16,0,.19.03.38.05.56.08.74.32,1.47.1,2.24-.07.26-.03.57,0,.85.07.73.2,1.45.22,2.18.02.7-.08,1.4-.09,2.11-.02,1.42.09,2.82.23,4.24.15,1.53.39,3.07.23,4.65-.12,1.19.06,2.41.11,3.61,0,.09.04.19.04.28.08,1.15.14,2.31.23,3.46.07.94-.25,1.87.01,2.81.07.25.12.51.14.76.07.73.04,1.47.19,2.18.32,1.54.34,3.1.38,4.65,0,.28,0,.57.01.85.09,1.22.19,2.44.27,3.66.04.6.04,1.21.06,1.82.02.59.08,1.18.06,1.77-.06,1.3-.19,2.59-.23,3.89-.03.96-.02,1.93.09,2.88.13,1.17-.23,2.32.09,3.5.18.64-.01,1.38.01,2.07.05,1.24.15,2.49.19,3.73.03.8,0,1.61,0,2.41,0,.79-.22,1.57-.01,2.38.19.73.13,1.48.04,2.24-.15,1.23.11,2.47-.05,3.73-.12.92.02,1.88.04,2.82,0,.17.03.33.04.49,0,.33,0,.67,0,1q.2.68.01,1.4c-.03.11-.06.23-.07.35-.08.82-.2,1.64-.24,2.46-.03.72-.14,1.45.14,2.17h1.73c.06-1.48.07-2.89.17-4.3.15-2.08-.4-4.14-.15-6.21.04-.35.08-.7.07-1.06-.06-2.2-.15-4.4-.21-6.59-.05-1.7.07-3.39,0-5.09-.02-.45-.14-.89-.13-1.33.06-1.51-.33-2.99-.2-4.51.08-.93-.05-1.88-.05-2.83,0-.85.05-1.7.05-2.55,0-.83-.09-1.65-.08-2.48,0-.92.12-1.84.12-2.76,0-1.15-.08-2.3-.13-3.45-.04-.99-.08-1.98-.15-2.97-.12-1.57-.28-3.15-.42-4.72-.06-.75-.09-1.51-.16-2.26-.13-1.5-.31-3-.4-4.51-.09-1.62-.09-3.24-.16-4.86-.08-1.86-.19-3.72-.28-5.58-.06-1.44-.09-2.88-.15-4.32-.02-.4-.1-.79-.12-1.19-.04-.74-.17-1.51-.06-2.23.15-.95.03-1.89.02-2.83,0-1.13-.16-2.26-.16-3.39,0-1.53.13-3.06.05-4.59,0-.14.04-.28.04-.42.02-.97.04-1.93.06-2.9,0-.16-.03-.32,0-.48.05-.46.17-.93.17-1.39,0-.66-.1-1.32-.12-1.98-.02-.96-.02-1.93,0-2.9.01-.56.09-1.13.12-1.69.02-.31-.01-.62,0-.92,0-.25.02-.49.04-.74.06-.65.25-1.32.13-1.93-.09-.47-.2-.98-.07-1.36.22-.61.18-1.21.19-1.82.02-.71-.02-1.42.01-2.13.03-.71-.01-1.45.2-2.1.2-.64.2-1.25.22-1.88,0-.17,0-.33.02-.5.13-1.38.28-2.76.4-4.14.09-.96-.16-1.92,0-2.88.02-.09,0-.19-.01-.28-.04-.52-.07-1.03-.13-1.55-.06-.54-.16-1.07-.21-1.6-.04-.41-.14-.85-.05-1.23.21-.88.3-1.76.24-2.67-.04-.57-.1-1.13-.11-1.7-.02-.88,0-1.75,0-2.63,0-.35-.09-.7-.09-1.05.01-.85.12-1.7.07-2.54-.1-1.61-.44-3.21-.47-4.83-.01-.56.08-1.12.05-1.68-.07-1.56-.2-3.11-.26-4.66-.04-1.01,0-2.02-.01-3.03,0-.21-.03-.42-.05-.64-.05-.96-.11-1.92-.16-2.88-.03-.65-.03-1.3-.07-1.95-.08-1.25-.19-2.49-.29-3.73-.02-.19-.05-.37-.06-.56-.07-.99-.19-1.97-.2-2.96-.01-.92.08-1.84.13-2.76.01-.24.03-.47.05-.71.13-1.74.26-3.48.37-5.22.02-.37-.09-.77.01-1.11.17-.59.24-1.18.28-1.79.04-.77.14-1.55.13-2.32,0-1.15-.09-2.3-.13-3.45-.01-.37.06-.76-.04-1.11-.25-.84.17-1.76-.31-2.57-.01-.02-.02-.05,0-.07.4-.67.05-1.44.28-2.13.03-.1.04-.24,0-.34-.37-.85-.15-1.71-.1-2.57.05-.89.12-1.79.18-2.68.02-.36.01-.71.01-1,.53-.13.93-.24,1.34-.33.09-.02.19,0,.28,0,.3-.01.6-.02.89-.04.35-.03.7-.1,1.05-.11.42-.02.85.01,1.04-.44.31.05.57.15.82.12,1.1-.13,2.22-.19,3.28-.48,1.01-.28,2-.15,3.03-.22,0,.36.02.67,0,.97-.08.82-.21,1.63-.26,2.45-.08,1.21-.11,2.43-.15,3.65-.05,1.43-.1,2.86-.14,4.29,0,.3-.01.6-.01.9,0,.89,0,1.78-.02,2.66,0,.63-.03,1.27-.05,1.9,0,.14-.01.27-.03.41-.06.39-.14.78-.18,1.18-.1,1.02-.18,2.05-.27,3.07-.04.44-.11.88-.12,1.33-.03,1.17-.01,2.34-.04,3.51-.02.73-.08,1.46-.12,2.19-.05.97-.12,1.93-.13,2.9,0,.52-.21,1.08.16,1.51-.1.34-.24.63-.26.93-.05.84-.04,1.67-.06,2.51-.02.94-.22,1.87,0,2.81.04.16,0,.33-.02.5-.04.52-.09,1.03-.12,1.55-.08,1.24.14,2.48.02,3.73-.11,1.17-.11,2.35-.18,3.53-.03.49-.11.98-.16,1.47-.13,1.34-.27,2.67-.39,4.01-.09,1.05.14,2.11,0,3.16-.13,1.05-.21,2.11-.32,3.16-.09.89-.2,1.78-.25,2.67-.04.7,0,1.4-.01,2.1,0,.19-.03.38-.04.56-.03.77-.08,1.55-.08,2.32,0,.53.08,1.06.07,1.59-.06,1.58-.15,3.16-.22,4.74,0,.14.01.29-.01.43-.29,1.45-.21,2.89,0,4.34.03.23-.03.47-.04.7-.02.83-.07,1.65-.05,2.48.04,1.15.13,2.31.19,3.46.04.84.08,1.68.1,2.53.03.77.06,1.55.05,2.32-.01.85-.08,1.7-.11,2.55,0,.22.08.46.04.67-.22,1.02.02,2.05-.16,3.07,0,.02,0,.05,0,.07.14,1.38.33,2.76.4,4.14.1,2.1.16,4.21.14,6.31-.02,1.67.16,3.35.03,5.02-.05.6.12,1.22.12,1.83-.03,2.53-.09,5.06-.13,7.59-.01.7,0,1.4,0,2.1,0,.14-.04.28-.04.42,0,.82,0,1.64,0,2.47,0,.26.04.52.02.78-.07.7-.22,1.4-.25,2.1-.08,1.73-.13,3.45-.15,5.18,0,.73.09,1.46.13,2.19.05.94.1,1.89.14,2.83.1,2.12.18,4.25.29,6.37.08,1.41.21,2.83.31,4.24.02.35,0,.7.02,1.04.02.68.08,1.37.06,2.05-.06,1.63-.18,3.26-.24,4.89-.04,1.01,0,2.02-.01,3.03,0,.37-.12.75-.1,1.12.07,1.44.22,2.87.24,4.31.02,1.42-.1,2.83-.12,4.25-.01.87.08,1.75.07,2.62,0,1.26-.09,2.52-.08,3.78,0,1.17.12,2.34.14,3.52.02,1.18.01,2.36-.03,3.54-.02.65-.15,1.3-.19,1.95-.09,1.46-.16,2.92-.22,4.38-.02.44.02.88.03,1.34h1.56c.07-.3.16-.55.19-.81.06-.56.11-1.13.15-1.69.04-.68.08-1.37.1-2.05.02-.87,0-1.74.02-2.61.02-.75.13-1.49.13-2.24,0-.84-.08-1.68-.09-2.52,0-.33.11-.65.11-.98-.02-.78-.07-1.56-.12-2.33-.01-.19-.01-.38-.05-.56-.11-.67-.18-1.34-.11-2.03.07-.68.02-1.36.02-2.04,0-.4.02-.8.04-1.21.13-2.2.2-4.4-.05-6.59-.05-.4-.09-.79-.14-1.19-.13-1.1-.04-2.2,0-3.31.02-.71-.02-1.42,0-2.13.04-1.35.14-2.69.14-4.04,0-1.28-.09-2.55-.14-3.83-.02-.56-.02-1.12-.03-1.69,0-.31,0-.61-.03-.92-.06-.77-.14-1.55-.21-2.32-.09-.91-.2-1.81-.31-2.85.26-.38.24-.97.14-1.52-.34-1.96-.27-3.95-.38-5.93-.05-.96.07-1.93.12-2.9.05-1.06.11-2.12.14-3.18.04-1.56.07-3.12.07-4.69,0-1.81-.05-3.61-.06-5.42-.01-1.53.17-3.05.25-4.57.09-1.62-.09-3.26-.13-4.89-.02-.6.13-1.2.04-1.82-.09-.59.02-1.22-.03-1.82-.1-1.26-.39-2.52-.13-3.79.04-.2-.01-.42-.04-.63-.07-.53-.15-1.06-.22-1.59-.05-.39-.1-.78-.13-1.17-.02-.33,0-.66,0-.99,0-.18.05-.37.03-.55-.07-.89-.15-1.78-.21-2.67-.01-.16.05-.32.07-.49.02-.19.05-.37.04-.56-.03-.96-.1-1.92-.1-2.87,0-.8.09-1.6.12-2.4.02-.53-.24-1.07.1-1.58.03-.05,0-.14-.01-.21-.08-1.11-.16-2.21-.23-3.32-.05-.79-.08-1.59-.13-2.38-.04-.61-.22-1.25-.1-1.83.15-.71-.1-1.48.34-2.15.06-.09-.04-.27-.05-.41-.02-.33-.05-.66-.04-.99.03-.66.08-1.32.13-1.98.02-.26.06-.52.08-.77.03-.4.05-.8.05-1.21,0-.62-.02-1.25,0-1.87.03-.8.13-1.6.14-2.4,0-.74-.08-1.49-.12-2.24,0-.12.02-.23.03-.35.08-.7.17-1.4.24-2.1.08-.82.12-1.65.2-2.47.11-1.12.26-2.25.35-3.37.03-.32-.11-.65-.1-.98.02-.96.07-1.93.13-2.89.04-.63.12-1.27.2-1.9.11-.89.36-1.77.33-2.65-.05-1.56.28-3.09.07-4.67-.18-1.36-.04-2.76-.02-4.14.02-1.11.07-2.22.11-3.32,0-.09,0-.19-.01-.28-.01-.32-.03-.65-.04-.97-.02-.58-.05-1.16-.07-1.74-.03-.71-.1-1.41-.08-2.12.05-1.53.07-3.07.24-4.58.12-1.1-.18-2.26.44-3.3.05-.08-.03-.23-.02-.34.05-1.01.1-2.03.17-3.04.05-.68.19-1.35.23-2.03.07-1.41.11-2.82.15-4.23.05-2.06.1-4.11.13-6.17,0-.41-.09-.83-.14-1.23.09-.29.25-.59.27-.89.08-1.34.1-2.68.18-4.02.02-.36.16-.72.26-1.12.97-.02,1.88-.04,2.8-.07.24,0,.47-.03.71-.06.75-.08,1.5-.21,2.24-.22.51,0,.98-.02,1.31-.4.24.02.45.1.61.05.93-.35,1.91-.2,2.86-.38.25-.05.55-.04.75-.18.44-.29.88-.21,1.36-.17.59.05,1.2-.01,1.8-.02.91,0,1.76-.45,2.71-.34.72.08,1.46.08,2.14-.3.21-.12.5-.11.76-.11,1.07-.01,2.13,0,3.2,0,.62-.01,1.25-.06,1.87-.11.61-.05,1.22-.12,1.82-.17.63-.05,1.27-.08,1.9-.15.82-.08,1.66-.11,2.45-.31.81-.2,1.61-.25,2.43-.26.19,0,.37-.05.56-.08,1-.16,1.99-.35,2.99-.48,1-.13,2.05-.08,3.01-.35.82-.23,1.62-.09,2.42-.18.64-.07,1.29-.06,1.93-.21.33-.08.63-.32.97-.39.97-.18,1.94-.3,2.91-.45,1-.15,2.01-.28,3-.48,1.05-.22,2.07-.6,3.13-.75.94-.14,1.85-.31,2.74-.62,1.13-.39,2.36-.38,3.47-.85.21-.09.42-.21.62-.31.3.46.9.82,1.32.71.55-.13.9-.47.98-1.07.03-.2.13-.41.25-.58.21-.31.13-.6-.08-.85-.14-.18-.34-.31-.44-.4-.06-.72-.12-1.33-.17-1.94,0-.09.03-.18.05-.27.11-.69.3-1.38.33-2.07.05-1.25-.01-2.51.02-3.77.04-1.27-.16-2.54-.01-3.81.04-.37,0-.76.03-1.14.1-1.01.22-2.01.33-3.02.01-.11-.05-.23-.05-.35,0-.68,0-1.37,0-2.21.52.86.6.9,1.4.74.92-.19,1.84-.38,2.76-.59.98-.23,1.99-.39,2.93-.74,1.1-.41,2.13-1,3.19-1.5.86-.41,1.24-1.2,1.34-2.03.12-.97.23-1.93.45-2.89.2-.89.31-1.81.44-2.72.1-.67.28-1.35.26-2.03-.04-1.45.11-2.86.53-4.25.1-.33.04-.71.13-1.05.18-.67.46-1.32.6-2,.23-1.13.38-2.27.56-3.41.05-.32.13-.64.17-.96.11-.81.2-1.62.32-2.42.05-.32.2-.62.25-.93.13-.69.23-1.39.35-2.08.17-1.02.43-2.04.48-3.06.05-.86.3-1.66.44-2.49.07-.4.19-.75.06-1.17-.07-.21.02-.53.13-.74.31-.56.44-1.13.4-1.77-.01-.22.02-.5.15-.66.23-.29.23-.59.27-.93.08-.81.21-1.62.33-2.42.08-.53.25-1.07.21-1.59-.04-.55.08-1.04.17-1.56.27-1.53.48-3.07.7-4.6.25-1.72.49-3.45.72-5.17.12-.89.24-1.78.27-2.67.02-.58.36-1.22-.12-1.65.1-.37.19-.66.26-.95.13-.57.25-1.14.38-1.71.07-.3.16-.59.2-.89.12-.84.21-1.68.35-2.51.19-1.06.55-2.11.6-3.18.06-1.11.48-2.21.2-3.34-.02-.06-.01-.16.02-.21.39-.53.21-1.14.25-1.72ZM191.81,153.73c.08-.53.15-.96.19-1.24,0,.3.28.78-.19,1.24ZM192,151.4s0-.04,0-.06c.01,0,.02,0,.03,0v.06s-.03,0-.03,0ZM194.16,143.42c.41-.27.84-.1,1.21.06,1.46.6,2.4,1.65,3,3.16.54,1.37.31,2.68.17,4.03-.08.81-.07,1.63-.11,2.45-.03.54-.01,1.09-.13,1.6-.2.87-.06,1.78-.42,2.63-.11.25-.01.59-.04.88-.02.21-.1.42-.16.69-.95-.35-1.68.12-2.44.38-.5.17-.97.29-1.5.23-.3-.03-.63.09-.93.23-.21-.05-.41-.09-.57-.13.05-.2.19-.45.13-.61-.21-.59.06-1.12.11-1.67.03-.33.32-.65.01-.99.25-.59.2-1.31.75-1.75.28-.22.45-.44.47-.82.02-.24.18-.47.28-.7.25.01.45.02.67.03-.02,1.06-.11,2.04-.38,3.04-.19.68-.54,1.43-.23,2.19.05.13.13.24.24.44.38-.17.75-.34,1.13-.51-.39-.77-.31-1.41-.02-2.07.12-.27.08-.6.14-.89.07-.31.18-.62.26-.93.07-.27.11-.54.17-.81.08-.41.14-.83.26-1.23.15-.49.35-.96.55-1.43.15-.36.33-.72.51-1.07.21-.41.26-.8-.07-1.2-.21-.02-.44-.04-.68-.06-.85.55-.68,1.71-1.51,2.48.05-.57.1-1.01.13-1.44.03-.39.1-.79.05-1.18-.07-.53-.55-.69-.93-.33-.23.22-.47.52-.51.82-.11.81-.14,1.64-.18,2.46-.02.38-.03.73-.59.73-.02-.32.04-.68-.08-.96-.11-.26-.43-.43-.61-.6h.25c.33-.47.31-1,.24-1.51-.06-.45-.13-.87,0-1.32.08-.26.05-.56-.27-.74-.34-.19-.63-.21-.84.22.21-1.84.99-2.82,2.45-3.8ZM190.03,153.16c.25-.96.26-2,.82-2.88.14-.23.18-.52.32-.76,0,.06,0,.14-.03.19-.46.87-.15,1.83-.3,2.73-.01.06.07.17.04.2-.5.57.08,1.11.05,1.67,0,.16.15.33.26.48.16.2.34.38.54.61-.34,1.08-.67,2.15-1,3.21-.03,0-.07-.01-.1-.02l.19.68h0c-.45-.29-.85-.63-1.07-1.15-.06-.14-.15-.29-.15-.44-.02-1.52.06-3.05.44-4.51ZM188.66,159.11c.44.23.09.58.14.91.33.31.7.52,1.2.61.46.09.88.38,1.29.71-.25-.05-.49-.1-.68-.14-1.28.29-2.46.28-3.66-.44.37-.87,1.29-.99,1.71-1.65ZM267.36,75.26c.5-.85.98-1.04,1.83-.58-.13.46-.21.93-.39,1.36-.2.5-.77.68-1.17.45-.44-.25-.54-.74-.26-1.23ZM265.05,76.02c-.23.13-.34.19-.49.27-.07-.38.12-.34.49-.27ZM257.46,77.07c.38-.11.75-.23,1.14-.32.23-.05.46-.06.7-.03.45-.15,3.87-.51,4.7-.41-.44.32-.92.45-1.29.37-.74-.16-1.4.11-2.08.22-.72.12-1.41.38-2.13.49-.56.08-1.07.15-1.43.85-.3-.55-.59-.54-.98-.4-.41.15-.87.2-1.3.31-.2.05-.39.13-.58.21-.36.14-.71.29-1.07.42-.05.02-.15-.08-.34-.2.6-.21,1.1-.4,1.6-.56,1.02-.32,2.05-.63,3.07-.94ZM241.19,78.33c.08-.88.16-1.75.26-2.8.17-.5.44-1.18.63-1.87.13-.46.31-.86.62-1.24.29-.35.38-.87.67-1.21.42-.5.77-1.06,1.33-1.46.47-.33.82-.83,1.42-1.01.13-.04.22-.23.32-.36.45-.55,1.93-1.33,2.78-1.42-.07.26-.09.51-.19.72-.51,1.08-1.05,2.15-1.55,3.24-.12.25-.17.53-.25.81-.37,1.3-.76,2.6-1.09,3.91-.24.95-.41,1.93-.58,2.9-.06.33-.02.69-.04,1.03-.05.78-.09,1.55-.16,2.33-.06.63-.15,1.26-.22,1.89-.03.23-.05.47-.05.71,0,1.02-.03,2.04,0,3.05.03,1.06.12,2.12.18,3.17h0c-.97-.59-1.64-1.48-2.14-2.46-.62-1.23-1.42-2.38-1.72-3.75-.09-.41-.15-.83-.2-1.25-.06-.49-.13-.98-.15-1.47-.03-.6-.11-1.22.4-1.73.21-.21.3-.53.43-.81.31-.68.14-.93-.69-.9ZM189.5,72.33c-.56.22-1.12.52-1.16,1.32,0,.11-.05.25-.12.33-.49.57-.53,1.29-.59,1.71-.52.79-.97,1.33-1.26,1.95-.24.53-.52,1.05-.52,1.7,0,.47-.39.94-.59,1.42-.16.39-.3.78-.48,1.27-.36.13-.68.4-.45.96-.23.08-.4.14-.57.2-.33.74-.3,1.69-1.3,2.19.03-.8.12-1.47.86-1.9,0-.29-.11-.66.02-.89.55-.92.63-2.06,1.34-2.9.03-.03.08-.05.1-.06.04-.28.02-.58.14-.8.3-.55.4-1.15.56-1.74.24-.91.71-1.73,1.2-2.53.55-.9.8-1.9.76-2.96-.02-.56-.5-.76-.88-1.19.46-1.63.94-3.32,1.44-5.13.3-.34.7-.79,1.03-1.16.32.35.64.68.95,1.02.05-.04.09-.09.14-.13.17.53.06.96-.39,1.32-.27.21-.43.49-.4.86.01.13-.04.28-.09.41-.3.74-.64,1.46-.9,2.21-.11.32-.14.7-.1,1.04.02.19.23.48.39.51.84.16,1.26.85,1.81,1.4-.28-.13-.57-.25-.94-.42ZM229.06,80.67s.04.07.05.11l-.25.12-.05-.1c.08-.04.16-.08.24-.12ZM228.47,80.74s.02.04.03.06c-.02,0-.04.02-.06.01-.02,0-.02-.04-.03-.05.02,0,.03,0,.05-.01ZM205.54,86.18c.37-.03.75-.05,1.11-.14.17-.04.31-.22.38-.27.84-.1,1.63-.14,2.39-.31.56-.12,1.07-.45,1.63-.62.35-.1.75-.04,1.12-.11,1.27-.25,2.53-.5,3.79-.8.96-.23,1.91-.53,2.86-.8.07-.02.14-.07.2-.06,1.16.2,2.27-.24,3.41-.31.32-.02.64-.15.95-.24.52-.15,1.04-.3,1.55-.46.29-.09.58-.2.85-.34.57-.1,1.14-.2,1.71-.31.43-.08.84-.19,1.31-.16.33.02.68-.33,1.17-.59.52.19,1.2-.09,1.88-.11.95-.03,1.76-.4,2.6-.69,1.22-.41,2.42-.81,3.74-.72.18.01.38-.14.56-.25.37-.22.37-.23.93-.17-.08.28-.15.5-.23.76-1.08.22-2.15.43-3.21.65-.05,0-.11,0-.14.02-.4.5-1.05.33-1.56.58-.75.37-1.56.63-2.35.93-.16.06-.36.05-.53.08-.15.03-.31.06-.45.11-.29.08-.57.18-.86.26-.11.03-.24.03-.34.07-.9.33-1.8.66-2.69,1.02-.27.11-.52.28-.76.42h-1.81c-.43.49-1.18.56-1.88.77-.24.07-.47.18-.71.26-.7.24-1.41.48-2.12.72-.15.05-.3.09-.45.15-.61.23-1.21.5-1.82.71-.91.31-1.83.57-2.75.85-.04.01-.09.04-.13.05-1.15.24-2.22.71-3.34,1.03-.27.08-.5-.14-.84.02-.69.33-1.45.51-2.19.72-.76.21-1.52.39-2.28.57-.09.02-.2.03-.27,0-.51-.28-.96-.06-1.4.18-.62.35-1.28.43-1.95.28-.42-.1-.8-.34-1.26-.54-.27-.37-.13-.82.05-1.22.18-.4.45-.77.74-1.11.51-.61.7-.6,1.33-.03.07-.04.17-.06.22-.13.47-.61,1.16-.65,1.84-.7ZM198.54,76.33s-.05.04-.08.06c-.01-.02-.03-.04-.03-.05.02-.02.05-.04.08-.06.01.02.02.03.03.05ZM193.27,83.93s-.08-.09-.12-.14c.06-.05.13-.1.19-.15.04.04.09.09.13.13-.07.05-.13.1-.2.15ZM183.86,127.14c.4-.61.32-1.31.46-1.97.06-.27.16-.53.26-.79.2-.5.45-.97.42-1.55-.01-.22.24-.43.29-.67.16-.82.44-1.58.86-2.3.1-.17.1-.4.15-.61.05-.23.08-.46.15-.68.42-1.22.87-2.44,1.28-3.67.33-.98.75-1.94.91-2.95.13-.82.49-1.52.72-2.29.19-.63.51-1.21.75-1.82.29-.75.74-1.42.96-2.22.19-.69.44-1.38.84-2.03.48-.8.79-1.71,1.08-2.61.42-1.28.9-2.54,1.44-3.77.11-.26.17-.54.27-.8.36-.88.74-1.75,1.11-2.63.06-.15.11-.3.17-.46.19-.5.39-1,.58-1.5.17-.46.34-.92.52-1.37.45-1.15.8-2.35,1.39-3.42.3-.54.64-1.06.87-1.65.48-1.21,1-2.41,1.5-3.61.11-.28.16-.58.29-.85.3-.62.15-1.24.05-1.98-.87-.52-1.8-1.07-2.73-1.62-.22-.13-.51-.21-.66-.4-.38-.45-.8-.48-1.33-.37-.32.07-.5.2-.64.48-.47.94-1.12,1.79-1.37,2.83-.03.11-.13.2-.19.29-.32.47-.64.94-.64,1.54,0,.09-.02.2-.07.27-.31.49-.67.95-.94,1.45-.19.37-.28.79-.4,1.2-.14.47-.24.96-.63,1.09-.41.89-.76,1.66-1.15,2.51-.23-.13-.4-.23-.54-.3,0-.13,0-.2.02-.22.44-.39.54-.99.58-1.48.08-.96.82-1.67.85-2.63,0-.17.19-.32.27-.49.29-.61.55-1.24.86-1.85.28-.54.6-1.06.91-1.59.37-.63.74-1.26,1.11-1.88.44-.74.42-1.58.15-2.31-.16-.43-.75-.74-1.2-1.02-.41-.26-.88-.43-1.32-.64.02-.06.03-.11.05-.17.31.08.64.11.92.25.48.24.95.52,1.4.83.55.37,1.19.23,1.47-.38.62-1.35,1.23-2.71,1.85-4.06.17-.36.39-.68.61-1.06.37.23.5.54.43.83-.14.59-.21,1.2-.61,1.71-.17.21-.23.5-.34.75-.07.17-.14.34-.21.51-.08.21-.15.43-.22.65-.06.18-.05.4-.16.53-.39.5-.46,1.07-.45,1.75.15.1.34.23.53.35.18.13.35.28.55.39.22.12.45.25.69.3.77.17,1.5.37,1.97,1.09.09.14.31.21.48.28.37.15.73.27.99.63.24.34.74.37,1.08.12.47-.34.85-.69.97-1.38.23-1.31.53-2.63,1.29-3.78.17-.25.28-.55.41-.82.57-1.16,1.15-2.33,1.72-3.49.05-.1.12-.21.2-.29.95-1,1.47-2.27,2.16-3.43.16-.27.21-.62.29-.94.11-.44.33-.65.8-.72.09-.01.21,0,.26-.06.33-.35.76-.4,1.19-.54.57-.18,1.08-.54,1.62-.8.61-.29,1.23-.56,1.93-.57.46,0,.93,0,1.39-.06.18-.02.35-.19.5-.33.12-.11.18-.27.28-.43h.65c.25-.26.55-.45.67-.72.19-.46.5-.91.31-1.48-.19-.58-.28-1.19-.45-1.78-.14-.51.01-.93.3-1.32.08-.11.26-.18.41-.22.21-.06.44-.07.78-.11.06.18.2.39.22.62.07,1.35.11,2.69.15,4.04.01.37.02.72.42.9.95-.54,2-.82,3.04-1.1.45-.12,1.09-.81,1.19-1.28.19-.96.16-1.92.01-2.88-.05-.35-.03-.71,0-1.06.05-.71.62-1.2,1.41-1.2-.08.88-.19,1.75-.21,2.63-.01.61.08,1.21-.31,1.75.2.25.37.48.52.67.37-.02.72.02,1.04-.07.45-.13.86-.36,1.29-.54.54-.23,1.06-.56,1.62-.67.78-.15,1.46-.49,2.16-.81.27-.13.55-.22.92-.24.11-.25.21-.49.32-.74.48.48,1.01.18,1.5.05.7-.19,1.39-.45,2.09-.65.25-.07.53-.03.86-.05-.15.44-.43.54-.71.66-.98.45-2.06.77-2.89,1.42-.6.47-1.35.38-1.89.85-.57-.16-.93.14-1.15.52-.32.04-.59.03-.81.12-.77.31-1.57.59-2.16,1.23q-.29.31-1.13.38c-.42.49-.87.95-.78,1.74.05.42-.21.87-.2,1.31.01.87.11,1.74.16,2.61,0,.16-.01.31-.03.47-.09.85-.29,1.68-.2,2.56.09.83-.07,1.69-.13,2.54,0,.1-.11.2-.17.28-.63-.1-.92-.4-.99-1.15-.09-.92-.14-1.84-.15-2.75,0-1.08.02-2.17.09-3.25.05-.75.27-1.49.31-2.23.05-.89-.26-1.14-1.17-1-.48.08-1.01.18-1.4.44-.62.42-1.21.47-1.87.24-.13-.05-.27-.08-.38-.11-.26.24-.5.45-.79.71.18,1.32.39,2.69.55,4.06.06.53,0,1.07.02,1.61.01.63.05,1.26.06,1.89,0,.99,0,.99-.95,1.39-.65-.23-.6-.91-.77-1.4-.16-.46-.09-1.01-.1-1.52-.01-.61.02-1.22,0-1.82-.02-.45-.09-.89-.14-1.33-.05-.54-.12-1.08-.14-1.62-.03-1.04-.6-1.36-1.52-.92-.65.31-1.31.65-2.06.65-.38,0-.59.52-1.03.31-.81.37-1.77.25-2.53.82-.43.32-.86.57-.79,1.21.02.18-.05.38-.11.55-.28.73-.61,1.45-.86,2.19-.17.52-.39,1.06-.15,1.67-.28.35-.59.67-.83,1.04-.18.27-.36.59-.38.89-.06.86-.65,1.46-1.03,2.14-.55.97-1.07,1.94-1.38,3.02-.06.2-.19.38-.29.56-.43.8-.87,1.58-1.22,2.43-.38.93-.84,1.83-1.32,2.71-.15.27-.48.44-.72.67-.08.08-.14.18-.22.28.08.14.15.25.22.37-.3.48-.85.34-1.33.58-.1.45-.54.77-.78,1.23-.24.46-.52.9-.73,1.37-.35.81-.42,1.64.03,2.45.1.19.17.4.29.56.48.6.27,1.13-.1,1.68-.28.43-.56.87-.73,1.35-.22.6-.42,1.2-.98,1.6.07.28.13.52.21.83-.26.34-.54.71-.82,1.08-.03.04-.08.07-.08.11-.08.87-.82,1.38-1.15,2.11-.27.59-.49,1.2-.77,1.79-.13.28-.38.51-.51.79-.54,1.1-.96,2.25-1.53,3.34-.18.35-.23.75-.37,1.13-.08.22-.2.42-.31.63-.2.4-.42.78-.58,1.19-.26.68-.48,1.37-.69,2.06-.06.19-.05.4-.07.64-.43.54-.92,1.08-1.31,1.69-.26.4-.36.91-.57,1.35-.2.44-.52.84-.66,1.29-.2.64-.64,1.16-.75,1.84-.06.39-.36.74-.54,1.11-.49,1.04-1.09,2.04-1.44,3.13-.33,1.03-.92,1.92-1.26,2.95-.23.7-.66,1.33-.98,2.01-.16.35-.28.72-.51,1.07-.03-.15-.13-.34-.07-.43ZM174.76,155.45c.22-.79.45-1.57.68-2.35.03-.09.04-.18.06-.28.21-1.08.53-2.13,1-3.13.32-.68.48-1.42.72-2.14.04-.11.08-.22.12-.33.67-1.55,1.35-3.09,2-4.65.46-1.1.86-2.22,1.31-3.33.27-.67.61-1.32.88-1.99.25-.6.46-1.22.67-1.83.3-.87.58-1.74.89-2.61.4-1.13.8-2.25,1.25-3.36.3-.73.68-1.43,1.01-2.15.23-.51.43-1.03.67-1.54.18-.37.38-.74.6-1.08.23-.36.29-.81.47-1.14.34-.62.23-1.38.79-1.92.24-.23.29-.68.41-1.03.25-.75.53-1.48,1.03-2.12.16-.2.13-.54.25-.79.79-1.64,1.52-3.31,2.42-4.89.49-.86.91-1.75,1.22-2.66.21-.61.61-1.19.51-1.89.61-.32.77-.88.84-1.47.1-.84.47-1.53.95-2.22.3-.43.39-.99.62-1.47.27-.58.58-1.15.89-1.72.07-.12.24-.19.49-.21-.06.26-.11.53-.19.79-.09.31-.24.61-.31.92-.26,1.12-.7,2.17-1.16,3.22-.29.66-.47,1.38-.67,2.08-.32,1.12-.78,2.18-1.24,3.24-.26.6-.37,1.27-.57,1.9-.11.33-.34.63-.38.97-.07.47-.32.88-.25,1.42.05.35-.28.77-.45,1.15-.35.74-.71,1.48-1.06,2.22-.31.68-.63,1.36-.91,2.05-.26.64-.46,1.31-.7,1.96-.04.11-.1.21-.14.31-.14.34-.27.69-.43,1.03-.1.21-.21.42-.33.62-.21.34-.47.65-.66,1-.21.38-.37.79-.55,1.18-.04.09-.12.17-.11.26.07.86-.5,1.48-.79,2.21-.39.98-.76,1.97-1.28,2.89-.28.5-.34,1.12-.5,1.69-.03.09-.05.19-.1.26-.4.6-.81,1.19-1.2,1.79-.19.29-.34.61-.52.94-.16.07-.35.15-.47.2.07.59.14,1.11.19,1.52-.74.88-1.42,1.62-1.63,2.66-.05.25-.21.47-.33.7-.11.21-.29.39-.34.61-.12.57-.41,1.04-.76,1.48-.1.13-.24.31-.21.44.15.65-.31,1.1-.48,1.65-.04.13-.11.28-.22.35-.7.53-.87,1.36-1.19,2.1-.34.79-.5,1.66-1.06,2.35-.05.07-.06.18-.07.27-.03.39.04.81-.37,1.08-.08.05-.04.27-.08.4-.14.54-.25,1.08-.64,1.54-.23.28-.26.73-.39,1.18-.17.04-.24-.09-.18-.33ZM174.81,156.37c-.14.11-.25.2-.41.33-.03-.1-.06-.16-.06-.21.04-.34.19-.37.47-.12ZM176.65,157.21c.14-.12.35-.29.54-.45-.03-.35-.07-.74-.1-1.13,1.07-.03,1.59.26,1.99,1.14-1.7.68-3.47.99-5.06,1.82.65-.86,1.64-1.05,2.63-1.38ZM173.63,156.39c.26.57.23.62-.48.68.17-.25.31-.44.48-.68ZM171.58,157.77c.16.35.3.65.48,1.04-.3.05-.58.1-.87.15-.14-.54.09-.86.39-1.19ZM301.18,167.98c.16-.51.18-.54.88-.52.41,1.73.29,3.42-.43,5.08-.27-.75-.65-1.47-.34-2.3.06-.15,0-.37-.07-.54-.22-.58-.22-1.14-.04-1.73ZM297.83,172.79c.48-.6,1.21,0,1.93-.06v1.56c-.69.06-1.46.13-2.35.21.13-.51.25-1,.42-1.71ZM294.79,167.24c.06-.58.1-1.17.15-1.75.01-.14.05-.28.12-.4.24-.39.24-.75-.09-1.14.42-.21.53-.54.55-.98.04-.78.69-1.39,1.51-1.46.03.34.06.67.09,1.01.05.68.09,1.36.13,2.04,0,.07.01.14,0,.21-.14.69-.29,1.37-.43,2.06-.05.23-.06.46-.1.69-.05.32-.1.64-.16.96-.05.28-.18.56-.14.82.26,1.45-.23,2.83-.31,4.24-.3.21-.56.4-.85.61-.2-.07-.39-.14-.59-.22-.02-.73-.18-1.42.39-2.03.17-.19.23-.78.09-.91-.47-.43-.24-1.1-.63-1.46.09-.8.18-1.55.25-2.29ZM284.27,172.45c.4,0,.74-.09,1.03,0,.63.19,1.27.1,1.81-.12.54-.23,1.05-.17,1.58-.21.82-.06,1.63,0,2.44.13.43.06.88-.02,1.31.04.31.04.61.22.86.32.03.58.06,1.09.1,1.63-.11.05-.23.15-.32.13-.51-.12-.98.05-1.45.2-.42.14-.83.2-1.17-.2-.62.42-1.21.07-1.8.03-.59-.04-1.16-.22-1.71.15-.05.04-.14.05-.2.04-.81-.04-1.62-.08-2.49-.12v-2.01ZM182.66,460.46s-.08-.03-.13-.05c.07-.28.14-.55.21-.83.09.02.17.04.26.07-.11.27-.23.54-.34.81ZM201.21,288.49c-.26,1.04-.32,2.14-.5,3.2-.06.36-.19.71-.33,1.05-.25.57-.56,1.12-.8,1.7-.12.27-.14.59-.22.97-.42.34-.66.85-.82,1.48-.16.65-.52,1.27-.87,1.85-.45.74-.64,1.54-.81,2.38-.12.6-.49,1.16-.73,1.74-.07.18-.07.39-.15.57-.32.71-.43,1.5-.83,2.17-.1.16-.2.32-.27.49-.32.83-.64,1.66-.92,2.5-.24.71-.34,1.48-.64,2.16-.28.63-.48,1.33-1.03,1.83-.09.08-.1.24-.13.37-.02.09.02.23-.02.27-.67.61-.7,1.52-1.08,2.26-.22.43-.28.94-.44,1.4-.15.42-.35.82-.53,1.23-.59,1.38-1.18,2.77-1.78,4.15-.31.73-.66,1.44-.96,2.18-.18.45-.19,1.01-.48,1.37-.5.62-.74,1.34-1.08,2.02-.52,1.07-.97,2.18-1.48,3.25-.65,1.38-1.35,2.74-1.99,4.13-.55,1.19-1,2.41-1.56,3.59-.87,1.85-1.54,3.78-2.57,5.56-.36.63-.45,1.43-.65,2.15-.02.07,0,.15-.03.21-.65,1.15-.69,2.51-1.28,3.68-.06.12-.1.27-.1.41-.04.89-.02,1.76-.26,2.65-.31,1.13-.38,2.32-.6,3.47-.12.64-.34,1.27-.47,1.91-.07.36-.05.75-.1,1.11-.16,1.14-.33,2.28-.5,3.42-.03.23-.06.47-.07.7-.04,1.32-.17,2.65-.06,3.97.07.79.15,1.58.21,2.38.1,1.5.26,3,.4,4.5.1,1.05.19,2.11.31,3.16.12,1.12.26,2.24.4,3.36,0,.07.03.14.02.21-.13,1.1.27,2.14.36,3.22.02.22.14.42.26.78-.04.11-.1.31-.18.54.68.63.58,1.54.83,2.34.2.64.35,1.29.5,1.94.09.39.15.78.22,1.18.14.74.27,1.48.44,2.2.08.35.33.66.39,1.01.18,1.07.28,2.15.44,3.22.13.84.33,1.67.46,2.5.18,1.17.62,2.26.95,3.38.42,1.4.69,2.85.99,4.29.29,1.42.81,2.77,1.25,4.14.2.62.3,1.27.45,1.91.04.18.07.37.15.54.7,1.64.93,3.38,1.14,5.13.03.27,0,.56-.02.83-.08,1.02.28,1.95.58,2.89.11.33.13.7.17,1.05.1.91.18,1.81.3,2.72.04.27.24.52.27.79.11.83.22,1.67.27,2.5.08,1.43.11,2.86.18,4.3,0,.11.1.21.15.31.04-.01.09-.03.13-.04-.05.89-.11,1.77-.15,2.66-.01.27.09.55.06.82-.07.77-.17,1.53-.25,2.3-.02.2-.05.41-.03.62.04.63.13,1.26-.09,1.88-.03.09-.04.19-.03.28.13,1.48-.23,2.91-.4,4.36-.14,1.16-.35,2.31-.57,3.46-.14.71-.37,1.41-.51,2.12-.1.5-.14,1.02-.2,1.53-.21.04-.36.07-.44.09-.14.58-.27,1.1-.4,1.62.28-1.6-.04-3.23.31-4.84.19-.87.21-1.82.02-2.74-.06-.29.04-.6.04-.9,0-1.28.02-2.56,0-3.84-.04-2.34-.04-4.69-.15-7.02-.08-1.68-.18-3.36-.39-5.04-.1-.77-.04-1.55-.1-2.32-.04-.54-.14-1.07-.23-1.6-.17-.99-.34-1.98-.53-2.97-.33-1.66-.66-3.32-1.02-4.98-.19-.85-.49-1.67-.66-2.51-.24-1.15-.4-2.31-.59-3.47-.02-.14,0-.33-.07-.41-.5-.49-.3-1.16-.5-1.73-.17-.49-.33-.98-.46-1.48-.11-.43-.16-.88-.24-1.31-.11-.58-.24-1.15-.35-1.73-.31-1.54-.62-3.08-.94-4.63-.36-1.75-.72-3.5-1.1-5.24-.35-1.58-.76-3.15-.77-4.8,0-.78-.31-1.56-.46-2.35-.27-1.38-.54-2.77-.76-4.16-.07-.43.02-.88-.02-1.32-.08-.84-.18-1.68-.3-2.52-.12-.86-.29-1.72-.44-2.57-.02-.09-.08-.18-.08-.27-.02-.8-.02-1.59-.05-2.39-.03-.63-.09-1.27-.15-1.9-.09-1.12-.18-2.24-.28-3.36-.07-.8-.19-1.59-.23-2.39-.03-.61.07-1.22.07-1.83,0-.47-.09-.94-.1-1.4,0-.35.07-.7.11-1.05.1-.87.1-1.75.31-2.59.15-.58.15-1.13.12-1.71-.01-.26-.08-.56.02-.77.42-.9.18-1.9.42-2.77.27-.99.15-2.01.46-2.99.25-.79.35-1.62.45-2.46.08-.66.45-1.28.69-1.92.09-.24.16-.48.23-.73.02-.09-.02-.21.03-.28.6-.85.27-1.95.76-2.84.1-.19.03-.47.07-.7.06-.37.15-.73.23-1.1.04-.18.07-.36.11-.54.04-.2.05-.41.11-.6.24-.71.52-1.41.76-2.12.34-1.03.65-2.07.98-3.1.23-.73.32-1.56.74-2.16.6-.84.68-1.91,1.38-2.67.11-.12.15-.29.22-.44.46-.92.94-1.84,1.38-2.77.43-.88.82-1.79,1.24-2.67.37-.78.53-1.64,1.06-2.36.21-.29.27-.7.38-1.06.23-.72.53-1.39,1.01-2,.33-.41.58-.94.72-1.45.22-.8.55-1.51,1.02-2.2.39-.58.61-1.27.91-1.9.3-.62.62-1.22.9-1.84.25-.55.46-1.13.7-1.69.94-2.16,1.88-4.32,2.83-6.47.18-.4.38-.83.68-1.14.55-.58.62-1.35.95-2.02.42-.88.79-1.78,1.17-2.67.08-.19.12-.4.19-.6.24-.68.46-1.37.73-2.04.31-.78.69-1.54.99-2.33.16-.43.15-.91.26-1.37.1-.41.27-.75.41-1.13.34-.89.68-1.78.82-2.74.13-.93.45-1.83.51-2.76.07-1.14.52-2.26.22-3.43-.12-.46.13-.77.56-.81.44-.05.88.21.88.61.03,1.26.26,2.52-.06,3.8ZM283.33,241.28c-.03.92-.09,1.84-.13,2.76,0,.07-.02.14,0,.21.19,1.39-.03,2.78-.04,4.17,0,.96.1,1.93.02,2.88-.18,2.16-.05,4.34-.52,6.48-.01.05-.02.09-.02.14.03,1.19.08,2.39.09,3.58,0,.59-.08,1.17-.1,1.76-.06,1.76-.09,3.53-.15,5.29-.03.9-.09,1.79-.14,2.69-.04.57-.4,1.01-.96,1.05-1.79.13-3.44.79-5.13,1.27-.68.19-1.38.3-2.07.45-.09.02-.22,0-.27.04-.51.48-1.15.33-1.75.39-.48.05-.95.24-1.44.33-1.22.23-2.45.43-3.68.66-.3.06-.58.17-.87.27-1.69.59-3.45.64-5.21.56-1.12-.05-2.21.13-3.29.37-.42.1-.84.21-1.25.35-1,.07-2.03-.02-3.02.3-.11.04-.24.13-.33.1-.65-.21-1.25.11-1.87.17-1.26.13-2.52.29-3.79.39-.78.06-1.56.03-2.34.07-1.01.05-2.02.21-3.02.19-.73,0-1.38.4-2.13.24-.26-.06-.57.21-.87.24-1.24.14-2.47.26-3.71.36-1.03.09-2.09.03-3.09.25-1.39.31-2.81.29-4.19.63-.94.23-1.94.22-2.9.33-.3.03-.6.1-.9.16-.99.2-1.97.33-2.99.3-.83-.03-1.67.18-2.51.29-.23.03-.46.12-.69.11-1-.04-1.98.06-2.95.25-.46.09-.94.09-1.4.17-.27.05-.53.17-.8.25-.15.05-.32.14-.46.1-.68-.16-1.3.02-1.92.28-.17.07-.38.11-.55.07-.93-.22-1.81.11-2.71.23-.65.08-1.31.14-1.96.21-.42.04-.85.15-1.26.11-.69-.07-1.41-.15-2.06-.38-.42-.15-.68-.18-1.01.11-.52.45-.8.5-1.59.37-.27-.38-.29-1.13-1.15-.83v.76c-.79.05-1.59.11-2.4.15-1.62.08-3.21.23-4.76.77-.89.31-1.81.51-2.72.75-.2.05-.42.04-.69.07-.07-.24-.16-.46-.19-.68-.07-.66-.13-1.31-.16-1.97-.06-1.27-.15-2.55-.13-3.82.02-.95-.18-1.93.17-2.87,0-.02.03-.05.02-.07-.47-.82.16-1.73-.19-2.56-.03-.06-.01-.14-.02-.21-.05-1.37-.09-2.74-.15-4.11-.03-.66-.11-1.31-.13-1.97-.02-.61,0-1.21,0-1.82,0-.36,0-.72-.03-1.07.05-.34.15-.69.15-1.03-.01-.83-.08-1.65-.12-2.48,0-.21.04-.42.06-.63.02-.14.08-.29.05-.42-.15-.76-.03-1.52-.02-2.28.01-.84-.11-1.69-.18-2.54-.01-.16-.06-.33-.05-.49.02-1.25.05-2.5.09-3.75,0-.07.05-.16.02-.21-.37-.75-.04-1.53-.12-2.29,0-.09.02-.2,0-.28-.44-1.33-.05-2.7-.15-4.04-.07-.91-.22-1.82-.34-2.73-.01-.09-.06-.18-.06-.28.02-1.05.06-2.1.08-3.15,0-.21-.08-.42-.09-.63-.05-1-.09-2.01-.15-3.01-.02-.33-.08-.65-.13-.98-.27-1.7-.29-3.42-.31-5.14,0-.33-.11-.66-.25-.98.23-.6.21-1.18-.18-1.75.41-.54.4-1.1.13-1.62.07-.28.2-.52.16-.72-.18-.95-.12-1.91-.22-2.85-.05-.44-.11-.89-.19-1.33-.08-.4-.2-.79-.32-1.27.02-.02.14-.12.31-.25-.13-.25-.26-.49-.39-.73.04,0,.07,0,.11-.01-.04-.48-.13-.96-.12-1.43.01-.76-.13-1.5-.28-2.24-.23-1.15-.42-2.31-.56-3.48-.09-.74.01-1.5-.1-2.23-.14-.88.14-1.8-.3-2.65-.07-.14.03-.36.06-.54.09-.7.17-1.4-.21-2.07.07-.17.14-.34.21-.51,0-.05,0-.11-.03-.14-.25-.3-.29-.67-.19-1.01.11-.37.12-.68-.14-.99-.08-.1-.17-.28-.14-.39.17-.68-.17-1.27-.26-1.9-.12-.8-.31-1.62-.05-2.45.07-.22,0-.49-.02-.74-.03-.28-.1-.55-.12-.83-.04-.43.15-.87-.13-1.29-.07-.1-.05-.29,0-.42.29-.71.14-1.41.02-2.12-.03-.18-.04-.39,0-.56.2-.8.22-1.58-.15-2.39.48-.58.17-1.28.23-1.94.02-.22.02-.45.04-.67.02-.25.04-.5.05-.75.03-.37.09-.74.08-1.11-.03-.8-.12-1.6-.12-2.4,0-.56.11-1.11.17-1.65,1.12-.24,1.97-.94,2.92-1.4,1.34-.65,2.66-1.3,4.08-1.74.18-.05.33-.17.51-.23,1.41-.52,2.83-1,4.33-1.2.21-.03.42-.1.6-.2.46-.26.94-.39,1.48-.47,1.41-.23,2.83-.47,4.17-.93,1.31-.45,2.67-.65,4-1.02,1.24-.35,2.55-.43,3.82-.64.41-.07.81-.21,1.21-.3.64-.14,1.28-.25,1.92-.41.63-.16,1.26-.37,1.89-.56.54-.16,1.08-.31,1.62-.47.45-.13.89-.28,1.33-.42.09-.03.18-.07.27-.06.91.03,1.75-.29,2.63-.46.95-.19,1.92-.3,2.88-.45.14-.02.28-.05.41-.09,1.12-.26,2.24-.53,3.36-.78.27-.06.56-.09.83-.12.84-.1,1.68-.2,2.52-.27.76-.07,1.53-.15,2.3-.14.62.01,1.14-.23,1.7-.42.21-.07.44-.04.67-.07.4-.04.79-.06,1.18-.13,1.07-.18,2.16-.27,3.19-.59.93-.29,1.87-.44,2.82-.59.6-.09,1.22-.12,1.83-.2.98-.13,1.95-.31,2.93-.42.59-.07,1.19-.04,1.79-.08.16-.01.3-.12.46-.15.27-.05.54-.06.81-.09.14-.01.28-.02.42-.04.86-.12,1.72-.25,2.58-.36.67-.09,1.35-.17,2.03-.27,1.23-.19,2.49-.28,3.67-.63.72-.21,1.42-.07,2.13-.22.71-.16,1.45-.19,2.17-.24.6-.04,1.21.02,1.81-.02.77-.05,1.6,0,2.29-.29.93-.39,1.9-.4,2.85-.61.96-.21,1.95-.3,2.93-.43.84-.11,1.69-.16,2.52-.3,1.08-.18,2.15-.43,3.22-.65.11-.02.25-.06.35-.02.9.3,1.78.02,2.67-.04.87-.05,1.73-.13,2.56-.2.33.64.56,2.07.5,2.71-.04.44-.01.88,0,1.31.03,1.11.15,2.22.09,3.32-.06,1.15-.31,2.28-.45,3.43-.06.53-.05,1.08-.1,1.61-.04.39-.13.77-.2,1.15-.51.12-.99.26-1.03.74-.04.48.31.81.8.97-.14.65.36,1.27-.05,1.86-.48.32-1.37.09-1.35,1.07.12.05.21.09.29.12.91.31,1.01.25.96,1.58-.03.92-.09,1.84-.13,2.76-.07,1.5-.17,3-.2,4.5-.03,1.23.03,2.47.04,3.71,0,.74-.06,1.49-.06,2.23,0,.75.06,1.51.11,2.26.02.35.09.7.1,1.05.09,1.77.15,3.54.24,5.3.08,1.57.11,3.14.45,4.69.04.18.02.38.02.57,0,1.28.02,2.56,0,3.84-.02,1.06-.1,2.12-.13,3.18-.02.99-.02,1.98,0,2.97.02,1.35.09,2.69.1,4.04,0,1.43,0,2.86-.21,4.28-.09.57.02,1.18.04,1.77.01.23.06.47.06.7.01,1.23-.1,2.48.07,3.69.1.76-.03,1.45-.05,2.18-.02.66.1,1.32.12,1.98.06,1.5-.07,3,.08,4.51.12,1.31-.03,2.64-.07,3.97ZM305.01,179.17c-.02.44-.03.87-.06,1.31-.09,1.29-.17,2.59-.3,3.88-.06.67-.22,1.33-.32,2-.17,1.07-.34,2.13-.52,3.2-.11.63-.22,1.25-.37,1.87-.27,1.08-.4,2.17-.35,3.29.03.68-.05,1.37-.14,2.04-.17,1.33-.37,2.65-.56,3.98-.03.23-.11.46-.17.68-.13.52-.38,1.03-.16,1.59.02.04.02.09.01.14-.15.82-.31,1.64-.44,2.47-.13.79-.26,1.58-.36,2.37-.11.81-.09,1.66-.3,2.45-.25.97-.24,1.96-.42,2.93-.17.9-.38,1.79-.55,2.69-.16.83-.29,1.67-.44,2.5-.15.83-.31,1.66-.46,2.48-.13.69-.26,1.38-.38,2.08-.19,1.1-.34,2.22-.58,3.31-.14.64-.2,1.3-.33,1.93-.22,1.07-.3,2.14-.41,3.21-.06.55-.29,1.08-.42,1.63-.33,1.49-.6,3-1,4.47-.21.75-.2,1.48-.27,2.23-.13,1.39-.05,2.81-.41,4.18-.08.29-.23.57-.28.87-.11.62-.16,1.26-.29,1.88-.12.64-.28,1.28-.47,1.91-.06.18-.24.36-.41.47-.53.35-1.05.68-1.71.81-.6.13-1.17.45-1.73.72-.74.35-1.49.54-2.32.54-.58,0-1.15.18-1.73.28-.21.04-.45.16-.61.1-.5-.2-.86.01-1.21.34-.05-.02-.1-.03-.16-.05.03-.36.09-.71.09-1.07,0-.28-.1-.56-.11-.84,0-.27.02-.55.06-.82.03-.21.14-.41.14-.61.01-2.4.07-4.8-.02-7.19-.04-1.27.26-2.51.18-3.79-.12-1.83-.1-3.68-.16-5.52-.01-.32-.16-.63-.25-.99.03-.21.12-.47.12-.73-.03-1.04-.1-2.08-.13-3.11,0-.23,0-.48.07-.7.37-1.04.17-2.1.15-3.16-.03-1.14-.03-2.29,0-3.43.02-.85.18-1.69-.13-2.52-.08-.21-.15-.52-.06-.68.42-.73.08-1.42-.02-2.18.28-.32.28-.7.17-1.15-.13-.49-.15-1.02-.16-1.54,0-.19.14-.39.23-.62-.33-.7-.19-1.41-.07-2.18.14-.92.47-1.84.25-2.8-.05-.2-.12-.4-.16-.61-.05-.23-.16-.48-.1-.69.22-.84.03-1.62-.2-2.43.4-.6.03-1.23-.01-1.84-.05-.68-.12-1.34-.02-2.02.07-.52-.07-1.07-.12-1.61-.03-.33-.07-.66-.09-.99-.09-1.36-.21-2.72-.26-4.09-.05-1.22,0-2.45-.03-3.67,0-.54-.1-1.08-.1-1.62s.09-1.08.1-1.62c.02-1.01-.08-2.01,0-3.02.1-1.41.15-2.82.23-4.24.03-.57.07-1.14.11-1.8.7.03,1.36.07,2.01.08.2,0,.42,0,.6-.08.78-.37,1.58-.47,2.42-.21.85.27,1.72.29,2.59.15.19-.03.38-.03.56-.08.2-.06.39-.17.73-.32.15.14.42.38.74.67.55-.52,1.33-.72,2.07-.42.73.29,1.44.22,2.16.21,1.16,0,2.31-.12,3.47-.12,1.05,0,2.1.08,3.16.15.18.01.35.1.45.14.04.61.09,1.14.1,1.66,0,.42-.04.85-.06,1.27Z"/>
  <path class="cls-1" d="M243.23,150.01c-.05.29-.21.53-.5.51-.47-.04-.73.26-1.02.52-.26.23-.52.46-.79.67-.7.52-.82,1.56-.17,2.14.36.32.81.6,1.26.73.73.2,1.48.34,2.23.45,1.33.21,2.67.25,4,.19.81-.04,1.72.19,2.45-.44.07-.06.23-.03.35-.03.77-.01,1.57.09,2.26-.4.07-.05.18-.02.28-.03,1.52-.11,2.79-.89,4.1-1.53.35-.17.68-.4,1.01-.6.26-.3.53-.62.74-.86-.03-.47-.02-.88-.09-1.28-.02-.13-.22-.29-.37-.33-.13-.04-.31.05-.32.05-.32-.22-.53-.47-.74-.47-.25,0-.49.22-.8.37-.5-.6-1.18.02-1.86-.21-.02-.38-.06-.77-.04-1.16.02-.39.17-.78.18-1.17,0-.44-.09-.89-.13-1.33-.07-.81-.08-1.62-.21-2.42-.12-.69-.33-1.38-.57-2.04-.34-.92-.8-1.81-1.12-2.74-.38-1.07-.99-1.94-1.77-2.66-.33-.05-.66-.03-.88-.16-.29-.18-.52-.1-.8-.06-1.09.14-1.84.91-2.7,1.45-.34.21-.67.57-.81.93-.46,1.21-.84,2.45-1.38,3.63-.27.58-.36,1.23-.61,1.77-.27.58-.33,1.14-.43,1.81-1,.07-2.01.24-3,.18-1.23-.07-2.37-.67-3.66-.63-.83.03-1.66-.47-2.51-.53-.88-.06-1.63-.43-2.45-.65-.7-.19-1.39-.42-2.1-.59-.41-.1-.83-.11-1.22-.16-.31-.75-.65-1.44-.89-2.17-.25-.75-.79-1.26-1.25-1.84-.3-.37-.79-.36-1.17-.54-1-.47-1.82-.25-2.62.37-.05.04-.12.09-.19.1-.58.12-.91.61-1.23,1-.57.7-1,1.52-1.46,2.3-.17.3-.18.72-.39.98-.58.68-.67,1.55-1.01,2.32-.12.27-.12.6-.18.9-.05.23-.07.47-.15.68-.45,1.13-.54,2.33-.52,3.52.01.63-.1,1.19-.24,1.78-.27.05-.55.02-.72.14-.73.52-1.42,1.07-2.12,1.63-.1.08-.18.22-.21.35-.22.89.02,1.42.86,1.86.26.13.56.17.84.25,1.21.36,2.4.77,3.69.76.37,0,.75.13,1.12.09,1.03-.1,2.06-.24,3.08-.39.98-.15,1.95-.31,2.92-.52.89-.2,1.75-.58,2.64-.69,1.71-.21,2.83-1.36,4.08-2.28-.05-.27-.07-.49-.14-.69-.21-.64-.57-1.13-1.28-1.29-.27-.06-.52-.21-.77-.32-.03-.06-.06-.12-.09-.18-.11.18-.22.35-.32.51-.35,0-.69-.03-1.01,0-.36.04-.48.27-.33.61.18.42.46.7.95.73.31.03.62.12.94.18-.15.7-1.13,1.3-2.04,1.27-.13-.52-.42-1.09-.35-1.61.1-.7.12-1.39.08-2.09-.11-1.81-.21-3.62-.32-5.44.19-.22.39-.46.56-.66,1.24.05,2.28.58,3.36.98.51.19,1.03.41,1.63.27.25-.06.55.07.83.11.35.05.69.11,1.04.16.3.04.61.05.91.12,1.51.33,3.02.62,4.58.6.34,0,.69.05,1.19.09.22.35.37.77.28,1.26-.12.62-.25,1.24-.36,1.87ZM242.5,153.24c-.47-.15-.57-.43-.3-.86.15-.24.33-.45.55-.75.79.44.5,1.21.75,1.82-.36-.07-.68-.12-.99-.21ZM255.18,150.17c.38.43.82.6,1.37.62.35.01.69.18,1.04.28,0,.09.01.17.02.26-.7.39-1.4.77-2.14,1.19.1-.62.24-1.2-.47-1.51.06-.28.12-.54.18-.84ZM246.87,153.86c.41-.05.67-.08,1.04-.12q-.44.32-1.04.12ZM249.74,152.17c-.42.57-.91.18-1.46.19-.06-1.24.3-2.39.51-3.56.48-.2.96-.4,1.42-.59-.15,1.3-.31,2.64-.47,3.96ZM244.64,148.16c.09-.41.15-.83.25-1.24.13-.57-.04-1.2.37-1.71.05-.06.06-.19.04-.27-.22-1.18.54-2.07.99-3.01.34-.71.61-1.43.8-2.16.38-1.5,1.48-2.17,2.79-2.63.52-.18,1.25.18,1.52.69.53.99,1.08,1.97,1.5,3.01.33.81.52,1.69.7,2.55.19.94.41,1.9.39,2.84-.02.97.19,1.94-.12,2.94-.16.51-.16,1.13-.25,1.7-.1.59-.56,1.04-1.17,1.11-.24.03-.48.13-.84.22-.16-.11-.37-.25-.64-.44.06-.52.09-1.06.18-1.59.11-.62.23-1.25.43-1.85.1-.32.38-.58.55-.89.12-.22.2-.46.28-.7.11-.35.18-.72.32-1.06.11-.26.18-.5-.04-.71-.19-.19-.57-.1-.81.18-.13.15-.24.32-.46.42.06-.11.13-.22.18-.34.15-.39.38-.75.07-1.2-.1-.15-.04-.5.06-.7.23-.44.34-.87.17-1.34-.29-.18-.51-.07-.71.13-.38.37-.68.77-.73,1.33-.03.3-.18.58-.27.87-.05.18-.1.36-.14.54-.11.54-.17,1.11-.35,1.63-.09.27-.41.46-.73.8-.06-.33-.14-.48-.11-.63.15-.98-.24-1.88-.37-2.81-.06-.4-.03-.8-.07-1.2-.06-.61-.39-.88-.94-.75-.13.03-.29.11-.34.21-.54,1.14-.93,2.27-.39,3.58.27.65.56,1.28.87,1.91.15.31.15.59.03.94-.2.59-.28,1.23-.4,1.85-.12.64-.24,1.28-.37,2.01-.34.04-.77.09-1.2.16-.48.08-.79-.22-1.02-.52-.24-.32-.15-.72.15-1.03,0,0,0,0,0-.01-.11-.88-.22-1.65-.3-2.42-.01-.12.08-.26.11-.39ZM217.91,155.59c-.49-.12-1.06-.27-1.74-.44.08-1.07,1.08-.93,1.74-1.5v1.94ZM221.39,156.28c-.35.05-.69.09-1.12.15-.25-.13-.59-.31-.97-.51.13-.06.26-.18.36-.15.59.13,1.17.29,1.75.44,0,.02-.01.05-.02.07ZM222.59,147.85c.06-.02.13-.04.19-.05,0,.02.02.05.02.07-.06.02-.12.05-.18.07-.01-.03-.02-.06-.03-.09ZM224.45,153.81c-.04.34,0,.69,0,1.08-.94.34-1.32.3-1.72-.22.17-.45.39-.91.51-1.39.1-.38.08-.8.09-1.2.01-.47.12-.86.6-1.09.24-.11.43-.34.71-.56.04.08.2.24.19.37-.11,1-.26,2-.38,3ZM223.6,148.8s.04-.03.05-.05c.08.08.15.16.23.24-.04.03-.08.06-.12.08l-.16-.28ZM226.98,155.27c-.02-.05-.03-.11-.05-.16.42.13.6-.58,1.17-.23-.42.14-.77.27-1.12.39ZM227.99,152.97c-.22.05-.55.05-.58.15-.2.67-.9.58-1.32,1.05-.25-.67-.27-1.2-.17-1.79.16-.87.14-1.78.25-2.66.11-.9.24-1.8.45-2.68.18-.76-.06-1.2-.93-1.42-.05-.14-.11-.29-.17-.44-.12-.28-.32-.49-.65-.44-.32.04-.59.18-.68.53-.2.77-.54,1.52-.45,2.35,0,.07,0,.14-.02.21-.04.01-.09.02-.13.04.01.03.02.06.03.09.02,0,.05-.02.07-.03,0,0,0,.02,0,.03,0,.03-.07.05-.19.12v-1.1q-.46-.34-.93.09c-.1-.62.34-1.22.02-1.86-.49.14-.77.41-.82.92-.07.6-.21,1.2-.24,1.8-.02.46,0,.98.18,1.38.44.99.77,1.97.53,2.94-.23.41-.45.71-.58,1.05-.12.33-.15.7-.22,1.1-.6,0-1.09.01-1.59,0-.33,0-.5-.21-.56-.53-.07-.34-.24-.67-.28-1.02-.08-.64-.14-1.29-.11-1.93.03-.75.12-1.5.27-2.24.13-.63.39-1.24.58-1.86.07-.23.09-.48.14-.72.09-.39.1-.83.3-1.14.44-.68.53-1.58,1.26-2.08.1-.07.14-.24.19-.37.37-.97,1.01-1.73,1.76-2.43.31-.29.67-.43,1.1-.38,1.03.12,1.9.46,2.36,1.52.18.42.33.88.53,1.27.55,1.06.41,2.18.5,3.28.07.8.1,1.6.15,2.4.01.16.03.33.08.49.44,1.47.23,2.92-.11,4.34Z"/>
  <path class="cls-1" d="M244.82,150.97h0c.02-.07.02-.03,0,0Z"/>
  <path class="cls-1" d="M167.96,194.98c0-.44-.01-.88-.02-1.32,0-1.07,0-2.13,0-3.2,0-.76-.03-1.52,0-2.28.03-.53-.36-1.17-.78-1.04-.45.13-.83-.04-1.24-.05-.56-.02-1.11-.09-1.66-.14-.47-.04-.95-.18-1.4-.11-.89.15-1.69-.21-2.54-.28-.34-.03-.67-.23-.96-.33-.6.02-1.18.05-1.76.07-.28.01-.52.25-.48.54.13.1.29.22.33.25-.07.31-.16.53-.17.76-.02.27.04.54.03.81-.02.63-.09,1.26-.09,1.89,0,.49.11.98.11,1.47,0,.74-.07,1.48-.09,2.22-.02.58-.09,1.18,0,1.75.08.47,0,.93.04,1.39.07.91.1,1.82.14,2.73.03.67.06,1.35.05,2.02,0,.59-.08,1.17-.12,1.76-.03.44-.06.89-.07,1.33-.02.56-.12,1.13-.03,1.67.21,1.22.1,2.43.08,3.64,0,.18-.09.37-.08.55.07,1.43.17,2.86.23,4.28.04.75.03,1.5.05,2.24,0,.06.06.12.08.19.06.25.15.5.15.74,0,.4-.14.8-.12,1.19.09,1.48.18,2.97.34,4.44.07.62.21,1.23.14,1.87-.1.84-.13,1.69-.19,2.54-.04.59.46,1.18,1.04,1.29.27.05.51.19.82.31.74-.62,1.58-.26,2.37-.01,1.03.32,2.07.43,3.13.39.77-.03,1.7-1.04,1.79-1.7.08-.63.12-1.27.15-1.9.04-.93.03-1.85.17-2.79.19-1.33.07-2.71.08-4.07.01-1.19.02-2.39.03-3.58,0-.21,0-.43,0-.64-.04-1.31-.13-2.62-.09-3.92.03-.75.11-1.48-.03-2.23-.09-.5-.07-1.02-.07-1.54,0-.8.03-1.61.04-2.41,0-.28,0-.56,0-.84.03,0,.05,0,.08,0-.06-.27-.24-.57-.17-.79.26-.82.25-1.64.12-2.47-.02-.11,0-.28.06-.33.37-.32.12-.64.08-.95.14-.24.24-.48.26-.73.04-.49-.01-1,.08-1.48.08-.46.09-.88-.08-1.32-.17-.45-.26-.9.09-1.34.1-.12.07-.36.07-.54ZM158.11,192.55c.52-1.73.31-3.44.19-5.16.42-.09.46.09.47.33.04,1.2.09,2.4.13,3.6.02.46.05.93.02,1.39-.03.46-.12.92-.19,1.41-.16-.04-.27-.06-.43-.1.02-.52.27-1.09-.21-1.47ZM158.48,201.24v-1.81h.08c-.02.3-.06.6-.05.9.01.3.08.6.13.9-.05,0-.1,0-.16.01ZM158.56,201.78v.47s-.08,0-.12,0c0-.16-.01-.31-.02-.47.05,0,.09,0,.14,0ZM158.43,198.89c.02-.13.04-.26.06-.4.04,0,.08.02.12.03-.03.13-.07.26-.1.39-.02,0-.05-.01-.07-.02ZM158.6,209.84s.09.01.13.02c-.04.27-.07.53-.13.97v-.98ZM158.72,197.31c-.01.08-.09.16-.14.23-.05-.02-.12-.03-.13-.05-.07-.74-.1-1.47-.08-2.21.08-.02.17-.04.25-.06.09.14.27.28.26.42-.02.56-.1,1.11-.17,1.66ZM158.58,205.26v3.08c-.25-1.02-.35-2.04,0-3.08ZM159.2,218.26c-.06.01-.13.02-.2.03-.04-.18-.17-.39-.11-.54.28-.74-.06-1.44-.06-2.17,0-.5-.07-1-.13-1.5-.02-.18-.12-.35-.2-.55.21-.36.23-.73.01-1.12-.07-.12.02-.32.06-.62.32.28.6.48.46.76-.22.44.02.85.15,1.17.27.68.11,1.35.17,2.02.02.31.03.62.15.95-.12.17-.24.34-.34.47.02.38.03.74.05,1.09ZM166.14,221.71c.02.19.07.39.02.56-.36,1.24-.07,2.55-.39,3.8-.15.6-.12,1.26-.17,1.89-.06.76-.42,1.09-1.18,1.01-.83-.08-1.67-.12-2.46-.43-.19-.07-.42-.03-.63-.04-.86-.03-1.08-.2-1.28-1.01-.11-.45-.27-.9-.07-1.39.08-.2.08-.51-.01-.7-.46-.9-.22-1.79-.04-2.76.25,0,.44-.03.62,0,1.29.26,2.57.54,3.85.8.45.09.76-.14,1.01-.5-.16-.53-.65-.51-.99-.54-1.28-.11-2.47-.59-3.71-.85-.58-.12-.78-.49-.82-1-.03-.35.01-.71.03-1.06.02-.28.06-.56.09-.84.07-.65.16-1.3.22-1.96.04-.47.12-.96.02-1.41-.12-.5-.06-.92.08-1.32.94.09,1.84.19,2.75.27.72.06,1.44.07,2.16.12.52.04.62-.38.85-.71.02.27.06.54.12.79.2.75-.09,1.45-.06,2.18.03.56-.1,1.12-.11,1.69-.02.78-.02,1.56,0,2.35,0,.35.08.7.11,1.05ZM166.37,209.31c.02.14.08.28.07.42-.08.99,0,1.99-.28,2.98-.08.27-.1.58-.09.88-.2-.44-.55-.54-1.01-.47-1.22.19-2.43.07-3.64-.13-.3-.05-.59-.17-.87-.27-.45-.16-.66-.46-.71-.95-.1-1.05-.32-2.1-.37-3.15-.05-.95.06-1.91.09-2.87,0-.23,0-.46,0-.65.79.06,1.52.07,2.22.18.46.07.91.25,1.34.45.69.31,1.41.35,2.14.38.3.01.6-.06,1.01-.11-.16.93.4,1.81.07,2.76-.06.16,0,.37.03.56ZM166.94,198.11c-.15.66.04,1.32-.26,1.98-.25.54-.22,1.25.04,1.7-.15,1.17-.27,2.22-.4,3.27-.32-.13-.71-.29-1.1-.45-.2.14-.37.27-.51.36-.85-.04-1.6-.27-2.31-.68-.19-.11-.46-.11-.69-.1-.84.02-1.63-.07-2.29-.77,0-1.39,0-2.83,0-4.28,0-.33-.07-.65-.1-.98,0-.07-.04-.15-.02-.21.12-.52.25-1.03.37-1.55.06-.24.12-.47.19-.77.08.02.23.06.38.07.51.04.99.18,1.53.07.53-.11,1.11.06,1.67.06.98,0,1.96-.02,2.93.14.15.02.32-.12.4-.16.07.74.33,1.57.16,2.3ZM166.72,195c-2.31-.36-4.63-.02-6.84-.45-.58-.77-.16-1.49-.13-2.2.03-.79.09-1.59.11-2.38.02-.78,0-1.55,0-2.41.62.06,1.28.12,1.95.18.07,0,.14.03.21.01,1.24-.26,2.33.27,3.44.68.1.04.23,0,.34,0,.13-.19.24-.36.4-.59.25.15.48.28.58.34.03.46.05.77.06,1.08.01.35,0,.71.02,1.07.04.61.15,1.22.12,1.83-.04.91-.17,1.82-.28,2.84Z"/>
  <path class="cls-1" d="M160.33,239.78c.25.35.38.62.59.78.29.23.36.5.43.84.15.71.36,1.4.6,2.09.05.14.32.29.49.3.73.03,1.47.02,2.2.02.31,0,.5-.12.64-.43.3-.64.59-1.22.43-2-.2-1.02.06-2.1-.3-3.12-.03-.08,0-.19,0-.28.04-.59.08-1.17.12-1.76.04-.49.09-.98.12-1.47.02-.43.05-.86,0-1.28-.11-.9-.73-1.25-1.57-.88-.62.27-1.24.27-1.85.04-.54-.21-.95-.13-1.33.31-.08.1-.26.11-.45.19.31.24.41.32.47.36-.09.42-.22.8-.24,1.18-.02.51.05,1.03.07,1.54.05,1,.01,2.01.31,3,.06.19-.05.44-.08.66-.22-.03-.35-.04-.67-.08ZM163.74,238.35c.12-.21.02-.56.02-.85q.33-.05.6.46c-.33.22-.34.51-.2.89.11.3.13.64.15.97.04.7.06,1.39.09,2.24-.41.1-.77.18-1.16.27-.48-.62-.6-1.39-.81-2.07.46-.66.93-1.26,1.31-1.91ZM162.13,235.38c.48-.04.72.25.88.73-.08.16-.14.37-.27.52-.11.12-.37.26-.44.22-.14-.11-.27-.32-.27-.49-.02-.31.06-.63.1-.97Z"/>
  <path class="cls-1" d="M161.94,258.1c0,.45.38.78.7.76.58-.03,1.15-.07,1.73-.12.35-.03.7-.1,1.05-.13,1.05-.09,1.41-.43,1.53-1.48.02-.14.02-.28.01-.43-.06-.92-.08-1.84-.31-2.74-.11-.44-.23-.89-.27-1.34-.11-1.35-.18-2.71-.28-4.06-.02-.25-.14-.49-.22-.76-.56-.14-1.02-.26-1.42-.36-.23.37-.41.65-.59.94-.24-.21-.39-.35-.53-.48q-.75.13-1.01.4c-.04.36-.08.66-.11.96-.06.67-.33,1.31-.19,2.01.05.24-.07.51-.06.77.03.72-.24,1.42-.11,2.16.12.68.14,1.41,0,2.08-.13.64.07,1.21.08,1.82ZM163.71,248.68c.07,0,.14,0,.21,0,.04.27.08.54.13.85-.14,0-.27-.01-.52-.02.07-.31.12-.57.18-.84ZM163.44,251.14c.09-.03.18-.06.27-.08,1.01-.26,1.69.4,1.51,1.46-.01.07,0,.14.01.21h0c-.5-.59-1.12-.26-1.75-.21-.33-.44-.21-.9-.03-1.38ZM163.17,255.06c-.01-.25-.03-.49-.04-.78.38-.08.68-.21.98-.2.55.02.94-.19,1.29-.8.18,1.13,0,2.16.5,3.2-.33-.13-.54-.22-.82-.33-.33.31-.67.66-1.06.96-.22.17-.52.23-.89.39.09-.41.15-.67.21-.97.46-.09.91-.18,1.37-.27.32-1.01-.04-1.31-1.53-1.2Z"/>
  <path class="cls-1" d="M270.12,216.47c-.12-.39-.08-.77-.17-1.15-.05-.22.01-.46-.04-.68-.21-.89-.14-1.81-.37-2.72-.17-.66-.23-1.32-.61-1.92-.12-.19-.13-.45-.19-.68-.22-.82-.43-1.65-.68-2.46-.1-.33-.31-.63-.44-.96-.51-1.27-1.49-2.06-2.74-2.42-1.76-.5-3.59-.36-5.39-.23-.89.06-1.8-.02-2.65.34-.08.03-.19,0-.28,0-1.03.1-2.06.19-3.09.29-.09,0-.17.07-.26.09-.78.24-1.56.48-2.35.7-.22.06-.46.02-.68.07-.64.13-1.28.16-1.94.15-.95,0-1.91.05-2.77.49-.25-.08-.5-.23-.74-.21-.54.05-1.12-.01-1.6.36-.12.09-.33.14-.47.11-1.01-.26-1.93.17-2.88.34-.5.09-1,.31-1.49-.06-.09-.07-.27-.03-.4-.01-.81.11-1.62.27-2.44.34-.7.06-1.42-.05-2.08.29-.08.04-.19.03-.28.01-.93-.22-1.86.36-2.79.03-.06-.02-.15,0-.2.04-.27.23-.57.14-.87.09-.23-.04-.47-.02-.71,0-.68.08-1.35.16-2.03.26-.7.1-1.4.19-2.08.35-1.05.24-2.08.59-3.18.49-.09,0-.22-.03-.28.02-.44.41-1,.36-1.52.37-.89.02-1.8.29-2.66.02-1.17-.36-2.27-.32-3.37.17-.13.06-.29.08-.37.18-.37.48-.86.93-1.03,1.48-.19.61-.57,1.06-.86,1.59-.11.2-.13.45-.16.68-.06.49-.1.98-.13,1.48-.02.26,0,.52,0,.78.03,1.07.07,2.15.1,3.22,0,.05-.02.09-.03.14-.13.63-.14,1.25-.07,1.89.12,1.12.15,2.26.28,3.38.09.78.04,1.54,0,2.31-.06,1.21-.1,2.42-.16,3.63-.03.68-.11,1.36-.12,2.05,0,.4.11.79.1,1.19,0,.56-.08,1.13-.12,1.69-.05.76-.09,1.53-.14,2.29h-.12c.12.18.25.34.37.51-.14.38-.14.73-.16,1.09-.08,1.17-.23,2.34-.22,3.51,0,1.08-.06,2.16-.07,3.23,0,.95-.24,1.9.04,2.85.04.13,0,.28-.01.42-.04.37-.12.75-.11,1.12.02.79.1,1.59.12,2.38.01.63.07,1.29-.1,1.87-.23.79-.24,1.56-.16,2.36.05.53.09,1.07.14,1.6.07.73.11,1.46.21,2.18.08.6.21,1.21.37,1.79.15.54.32,1.09.61,1.56.39.64.9,1.2,1.37,1.79.71.9,1.61,1.55,2.75,1.71.73.1,1.52.22,2.12-.44-.08-.54-.39-.83-.88-.7-.44.12-.79.02-1.11-.26-.49-.43-.99-.86-1.46-1.31-.38-.37-.74-.77-1.09-1.17-.75-.83-.94-1.86-1.1-2.91-.1-.64-.25-1.28-.35-1.92-.04-.27-.02-.56-.03-.84-.02-1.32-.05-2.65-.04-3.97,0-.85.13-1.7.12-2.54,0-1.31-.12-2.62-.12-3.92,0-1.77.13-3.54.11-5.31-.01-1.2.17-2.38.25-3.57.09-1.4-.04-2.81-.08-4.22,0-.09-.04-.2,0-.28.4-1.1.02-2.23.13-3.33.08-.77.12-1.55.16-2.33.02-.34.05-.7-.01-1.03-.14-.83.02-1.62.1-2.44.05-.5-.09-1.02-.14-1.53-.02-.18-.01-.36,0-.54,0-.17.08-.34.03-.49-.27-.85-.1-1.73-.13-2.59-.02-.42-.11-.84-.12-1.26,0-.46.11-.93.07-1.39-.05-.62-.2-1.23-.32-1.91.1-.06.25-.15.44-.27-.05-.24-.11-.49-.14-.62.15-.42.27-.74.37-1.07.27-.83.6-1.66,1.3-2.22.31-.25.75-.41,1.15-.45.56-.05,1.12.09,1.69.09.47,0,.93-.07,1.4-.14.79-.12,1.57-.29,2.35-.4,1.12-.16,2.24-.28,3.35-.46.55-.09,1.08-.34,1.63-.41,1.09-.14,2.2-.1,3.27-.32.83-.17,1.63-.06,2.44-.11.68-.04,1.36-.07,2.04-.14.63-.07,1.26-.15,1.87-.3,1.17-.29,2.37-.07,3.55-.25,1.37-.2,2.76-.33,4.13-.5.97-.12,1.94-.25,2.91-.36.63-.07,1.26-.15,1.89-.18.62-.03,1.24.01,1.86,0,.28,0,.56-.08.83-.12.28-.04.56-.11.83-.11.58,0,1.12-.14,1.69-.28,1.07-.26,2.2-.52,3.33-.12.31.11.64.23.96.22,1.03-.03,1.83.56,2.72.9.98.36,1.41,1.15,1.81,2.02.29.64.64,1.24.96,1.87.03.06.1.13.1.19-.02.69.25,1.34.3,2.01.12,1.43.1,2.88.17,4.32.06,1.19.18,2.38.27,3.57.02.24.05.48,0,.71-.18.94.02,1.86.11,2.8.05.52-.07,1.06-.07,1.59,0,.66.08,1.31.1,1.97.02.84.17,1.67.13,2.5-.06,1.56.38,3.04.55,4.56.06.49.13.98.16,1.47.06,1.04.17,2.08.13,3.11-.04,1.15.08,2.3.02,3.45-.08,1.4-.04,2.8-.24,4.21-.16,1.1-.05,2.25-.09,3.37-.04.91-.14,1.81-.19,2.72-.02.35.07.7.08,1.05.02.61,0,1.21.02,1.82.01.64,0,1.26-.26,1.88-.4.98-.72,1.98-1.1,3.05-.85.21-1.66.42-2.48.6-.76.17-1.52.31-2.28.46-.28.05-.56.07-.84.11-.3.05-.6.11-.89.17-.16.03-.32.09-.48.11-.59.06-1.17.12-1.76.14-1.75.06-3.5.08-5.24.16-.87.04-1.73.18-2.59.28-.77.09-1.54.22-2.31.27-1.13.08-2.26.08-3.39.16-.61.05-1.2.22-1.8.31-1.25.19-2.51.36-3.77.53-1.9.25-3.8-.13-5.7,0-.52.04-1.03.1-1.55.12-.38.02-.75-.02-1.13-.04-.07,0-.14-.06-.2-.06-.86.11-1.71.23-2.57.35-.2.03-.39.05-.59.06-.16.01-.35-.04-.49.01-1.16.46-2.46.41-3.58,1.01-.36.19-.87,0-1.16.42-.01.16-.04.33-.04.49.01.65.23.78.86.56.49-.17.98-.33,1.48-.46.79-.21,1.58-.46,2.39-.58,1.14-.18,2.29-.26,3.43-.38.63-.06,1.27-.11,1.9-.14.36-.02.72,0,1.08,0,.31,0,.63.06.95.07.51.02,1.02.01,1.54.01.99,0,1.99.05,2.98-.02,1.01-.06,2.01-.23,3.01-.37.72-.1,1.47-.12,2.13-.36,1.02-.37,2.06-.21,3.07-.25.8-.03,1.58-.11,2.37-.18.87-.07,1.72-.29,2.59-.33,1.69-.09,3.39-.1,5.08-.16.87-.03,1.74-.04,2.6-.16,1.02-.14,2.03-.4,3.04-.58.99-.18,1.99-.32,2.89-.46.29.34.48.56.63.74.64-.06,1-.39,1.27-.83.32-.51.77-.85,1.34-.96,1.65-.31,2.82-1.21,3.55-2.71.28-.57.41-1.23.78-1.72.48-.65.55-1.41.74-2.11.27-1.01.56-2.02.65-3.09.07-.86.12-1.72.14-2.57.02-1.03-.16-2.06-.22-3.1-.07-1.1-.1-2.2-.15-3.3-.01-.26-.11-.51-.11-.76.03-1.51.1-3.01.1-4.52,0-.87-.09-1.74-.13-2.61-.03-.61-.03-1.22-.05-1.83,0-.14-.02-.27,0-.41.05-.37.15-.73.18-1.1.04-.5-.02-1,.04-1.49.17-1.51.24-3-.11-4.5.1-.15.21-.3.31-.44-.32-.85-.28-2.33,0-3.27.13-.42.17-.88.19-1.32.03-.75.05-1.51.02-2.26-.03-.68-.02-1.38-.22-2.01ZM268.91,221.55c-.25,1.3-.08,2.58-.25,3.85-.1.73.04,1.44,0,2.16-.09,1.49.17,3-.23,4.48-.08.29.1.65.09.97-.05,2.11-.18,4.22-.15,6.33,0,.58.02,1.18.03,1.77.02.58-.1,1.16.11,1.75.1.26-.07.6-.04.9.16,1.52.19,3.04.22,4.57.01.78.14,1.55.13,2.33-.02,1.7-.35,3.35-.94,4.94-.08.22-.11.46-.19.67-.07.19-.17.36-.26.55-.15.31-.28.64-.46.93-.48.81-.76,1.8-1.82,2.1-.17.05-.36.05-.66.09.07-.33.05-.63.19-.8.62-.78.52-1.74.67-2.62.18-1.05,0-2.1-.05-3.15-.03-.62-.13-1.28.1-1.92.15-.4.14-.9.07-1.33-.08-.5-.08-.96,0-1.46.12-.77.14-1.55.17-2.33.06-1.62.11-3.23.16-4.85,0-.18-.04-.37-.06-.55-.03-.19-.09-.37-.09-.55.03-.7.13-1.39.12-2.09,0-.68-.14-1.36-.18-2.04-.07-1.19-.33-2.36-.43-3.55-.09-.98-.15-1.97-.26-2.95-.06-.56-.21-1.08,0-1.63-.43-.72-.19-1.52-.25-2.29-.05-.64,0-1.3-.02-1.94-.03-.65-.09-1.29-.15-1.94,0-.05-.05-.1-.04-.13.23-.66.03-1.32,0-1.97-.07-1.45-.17-2.91-.29-4.36-.03-.36-.05-.67.11-1.02.13-.3.17-.72.07-1.03-.29-.94-.4-1.88-.4-2.85,0-.16-.09-.31-.14-.47-.09-.31-.16-.63-.27-.94-.12-.34-.26-.69-.43-1.01-.21-.42-.5-.8-.67-1.23-.23-.59-.84-.73-1.23-1.12-.71-.71-1.72-.76-2.75-1.06.62-.11,1.11-.33,1.66-.14.1.03.23-.02.34-.02.52.01,1.03.03,1.55.04.28,0,.57.05.85.03.95-.08,1.75.19,2.5.79.86.68,1.34,1.56,1.59,2.59.2.84.74,1.59.68,2.51,0,.07.02.16.06.2.75.68.56,1.66.75,2.5.16.7.11,1.45.17,2.18.02.21.04.43.13.62.21.43.26.89.27,1.34.03,1.39.21,2.82-.04,4.17Z"/>
  <path class="cls-1" d="M212.23,195.68c.63-.26,1.09-.57,1.57-.63,1.31-.16,2.63-.22,3.94-.31.78-.06,1.55-.11,2.33-.17.89-.08,1.78-.19,2.67-.25,1.18-.07,2.36-.09,3.54-.16.68-.04,1.36-.12,2.03-.22.6-.09,1.18-.37,1.8-.1.06.02.16.02.2-.02.55-.4,1.17-.22,1.78-.22.21,0,.41-.08.62-.12.3-.06.6-.14.9-.15,1.3-.06,2.6-.06,3.89-.15,1.57-.1,3.14-.29,4.71-.41,1.21-.09,2.41-.19,3.58-.56.58-.18,1.2-.22,1.8-.33.11-.02.23-.05.33-.11,1.03-.59,2.2-.71,3.32-.83,2.03-.23,3.98-.86,6.01-1.06,1.05-.1,2.07-.42,3.12-.6.23-.04.52,0,.73.1.57.26.76.25,1.25-.16.17-.14.39-.26.6-.33.8-.25,1.63-.36,2.43-.67,1.08-.42,1.88-1.02,2.23-2.15.22-.7.21-1.45.38-2.14.22-.93.05-1.81.05-2.71,0-.39-.02-.78-.08-1.16-.14-.81-.27-1.62-.48-2.41-.26-1-.77-1.82-1.94-1.92-1.03-.09-2.06-.26-3.09-.23-.48.01-.92-.02-1.38-.09-.21-.03-.43-.08-.63-.04-1.04.19-2.07.4-3.11.6-.53.1-1.06.33-1.58.3-1.06-.07-2.08.11-3.12.2-.32.03-.63.21-.95.25-.95.13-1.88.27-2.81.53-.94.26-1.95.26-2.93.39-.65.09-1.3.14-1.92.32-.33.09-.69,0-.93.13-.5.26-.99.33-1.54.38-1.19.12-2.36.39-3.54.6-.16.03-.33.06-.49.07-.73.04-1.43-.04-2.19.2-1,.32-2.12.31-3.19.35-.5.02-.92.12-1.2.45-.19-.05-.34-.15-.45-.11-1.32.39-2.72.27-4.04.66-.06.02-.14,0-.21,0-.45,0-.89,0-1.34.03-.4.02-.73.17-.85.48-.36-.07-.69-.19-1.02-.19-.52,0-1.03.07-1.55.13-.99.12-2,.12-2.96.53-.43.19-.96.33-1.41.27-1.07-.14-2.02.4-3.05.4-.02,0-.04.02-.06.04-.54.52-1.19.58-1.89.45-.09-.02-.18,0-.29,0-.31.52-.69.95-1.26.99-.05.5-.25.99-.09,1.31.26.53,0,.99.05,1.48.02.18,0,.36,0,.54-.05,1.19.27,2.4-.22,3.57-.06.14-.02.33-.02.49,0,.58,0,1.16-.02,1.75,0,.23-.05.46-.03.69.14,1.28,1.11,1.7,2.02,2.04ZM265.66,177.96c.64.18.91.58.89,1.17-.01.42-.1.84-.09,1.26.01.36.13.72.18,1.08.16,1.23,0,2.44-.18,3.65-.02.14-.04.28-.04.42.02.55-.27.91-.75,1.09-1.07.39-2.14.83-3.3.81-.46-.45-.26-.98-.23-1.48.02-.44,0-.88,0-1.32,0-.37-.02-.74-.05-1.11-.01-.23-.03-.47-.08-.7-.08-.38-.13-.74.22-1.07-.42-.5-.37-1,.11-1.25.39-.21.82-.34,1.19-.58.39-.25.73-.57,1.07-.88.38-.35.72-.73,1.07-1.08ZM214.95,183.54c1.3-.09,2.52-.44,3.76-.71.57-.12,1.19-.19,1.79-.26.64-.08,1.28-.2,1.93-.25.41-.03.84,0,1.24-.08,1.68-.32,3.4-.35,5.08-.62.92-.15,1.83-.43,2.74-.61.51-.1,1.02-.13,1.54-.19.7-.07,1.4-.12,2.1-.2.52-.06,1.04-.21,1.56-.25.54-.04,1.09.03,1.63-.02.51-.05,1-.2,1.5-.29.45-.09.92-.26,1.36-.22.39.04.68-.09,1.01-.2.14-.04.27-.12.41-.12,1.27,0,2.47-.51,3.77-.5.72,0,1.47-.28,2.23-.24.05,0,.1,0,.14-.02.49-.32,1.04-.39,1.61-.46.63-.08,1.24-.28,1.87-.34,1.17-.13,2.35-.17,3.52-.31.95-.12,1.89-.36,2.83-.5,1.19-.18,2.38-.32,3.58-.16.33.04.66.07.98.1.18.02.35.04.52.06.01.05.03.1.04.15-.63.32-1.25.66-1.89.97-.84.4-1.71.72-2.57,1.07-1.04.42-2.14.67-3.27.8-.6.07-1.19.24-1.79.34-.37.06-.74.05-1.12.08-1.17.08-2.35.25-3.52.22-.69-.02-1.38,0-2,.19-.91.29-1.84.11-2.75.27-.62.11-1.28-.04-1.88-.07-.75.09-1.47.18-2.19.27-.16.02-.32.05-.47.12-.36.17-.72.35-1.1.55-.37-.25-.69-.37-1.12.02-.22.19-.72.15-1.07.09-.41-.07-.77-.07-1.17.06-.48.15-.99.21-1.49.27-1.38.16-2.76.29-4.14.44-.26.03-.52.07-.75.17-.68.3-1.4.35-2.14.4-.51.04-1.02.19-1.53.27-.67.1-1.34.17-2,.29-.34.06-.66.25-1,.28-.95.06-1.91.05-2.86.11-.28.02-.55.19-.82.29-.02,0-.04-.02-.06-.03-.28.03-.56.05-.92.09-.12-.06-.33-.17-.56-.29-.24.08-.47.39-.76.08-.03-.03-.2.06-.31.1-.6.19-1.2.4-1.8.56-.27.07-.57.13-.83.07-.46-.09-.78.04-.95.33-.43.11-.75.2-1.12.3-.33-.52-.06-1.1-.17-1.65,1.16-.3,2.24-.74,3.34-.81ZM211.63,187.62c0-.17.17-.45.31-.5.5-.16,1.03-.28,1.55-.35.64-.09,1.35,0,1.93-.23.44-.18.86-.42,1.35-.48.72-.09,1.45-.15,2.24-.22.06-.11.15-.27.26-.47.14,0,.32-.03.46.03.71.31,1.41.4,2.17.15.48-.16,1.02-.13,1.53-.21.65-.09,1.29-.21,1.94-.31.21-.03.42-.07.63-.11.46-.07.92-.14,1.38-.22.43-.07.86-.12,1.29-.2.36-.07.71-.16,1.06-.26,1.24-.33,2.51-.32,3.78-.34.75-.01,1.49-.18,2.23-.34.37-.08.69-.23,1.09-.11.2.06.47-.04.68-.12,1.07-.39,2.16-.56,3.29-.57.28,0,.55-.11.82-.17.05-.14.09-.26.16-.44,1.29.59,2.63.21,3.93.33.25.02.51-.05.77-.08,1.54-.16,3.08-.42,4.62-.44.94-.01,1.85-.03,2.75-.3.15-.04.33-.02.49-.03.56-.01,1.11-.02,1.67-.21.67-.23,1.41-.24,2.12-.35.35-.06.69-.13,1.04-.19.23-.04.45-.08.72-.12-.05.19-.09.32-.13.48.12.08.23.17.36.23.35.15.48.41.47.79,0,.47-.08.95.25,1.36.05.06.03.18.03.28,0,1.16,0,2.32,0,3.48,0,.61-.58.7-.91.69-.8-.03-1.43.43-2.17.54-1.95.28-3.9.6-5.84.93-.83.14-1.65.35-2.47.57-1.04.28-2.07.63-3.12.89-.57.14-1.16.15-1.74.24-.63.1-1.25.22-1.87.33-.16.03-.33.05-.48.02-.84-.18-1.63.02-2.41.26-.09.03-.19.08-.27.06-.69-.15-1.34.07-2.01.15-.21.03-.43.03-.64.03-1.02-.03-2.05-.11-3.07-.1-.63,0-1.25.16-1.88.24-.79.1-1.57.2-2.36.27-1.31.11-2.63.27-3.94.29-1.08.02-2.15.08-3.22.13-.84.04-1.7.21-2.51.13-1.11-.11-2.14.28-3.22.21-.54-.03-1.09.18-1.64.26-.84.13-1.67.24-2.57.37-.4-.28-.91-.41-1.08-.97-.13-.44-.1-.7.24-1,.24-.21.46-.44.69-.66-.84-1.15-.77-2.4-.74-3.62Z"/>
  <path class="cls-1" d="M303.79,179.05c-.45-.41-.53-.84-.36-1.37.06-.18-.1-.58-.26-.65-.56-.23-1.14-.42-1.77-.21-.77.26-1.6.07-2.38.3-.05.02-.13-.07-.19-.08-.24-.02-.49-.06-.74-.04-.96.09-1.92.19-2.87.29-.44.04-.89.1-1.33.11-.53.02-1.07.02-1.6-.02-.58-.05-1.16-.17-1.74-.23-1.59-.17-3.12.29-4.68.45-.14.01-.27.19-.46.35.26.24.49.38.63.58.18.27.31.59.43.9.04.1-.01.23-.01.35,0,.8.67,1.34,1.45,1.18.6-.13,1.19-.27,1.79-.39.21-.04.42-.06.63-.04.63.06,1.25.14,1.88.21.11.01.22-.05.33-.06.27-.03.54-.1.8-.06.43.07.85.29,1.28.3,1.14,0,2.29-.07,3.43-.1.18,0,.37.06.56.07.42.03.85.13,1.25.05.85-.17,1.69-.42,2.4-.19.62-.24,1.1-.43,1.64-.64-.15-.18-.27-.32-.38-.46.09-.18.17-.34.29-.57ZM301.82,179.05c-1.04.09-2,.6-3.09.41-.72-.12-1.5.06-2.25.07-.68,0-1.39.07-2.03-.09-.66-.16-1.3-.22-1.95-.13-.31.04-.59.04-.88-.08-.42-.17-.86-.32-1.32-.04-.15.09-.41.02-.61.03-.4.02-.83-.03-1.2.09-.6.2-.77.11-.74-.62.7-.39,1.41-.4,2.15-.31.93.12,1.87.22,2.8.26.56.02,1.12-.1,1.69-.14,1.22-.09,2.44-.2,3.66-.24.77-.03,1.54.06,2.32.09.16,0,.32-.03.55-.05.36.72.97.07,1.63.21-.29.23-.49.52-.7.54Z"/>
  <path class="cls-1" d="M220.06,250.97c.07,1.14-.19,2.29.23,3.43.21.57.13,1.25.2,1.88.06.54.09,1.09.24,1.6.26.85.62,1.67.93,2.5.12.32.33.52.69.49.28-.02.56-.05.83-.11.41-.09.81-.24,1.23-.32,1.06-.2,2.13-.37,3.2-.56.44-.08.88-.27,1.31-.25.93.06,1.85.1,2.76-.17.09-.02.2-.02.28.01.58.25,1.19-.08,1.74.04.61.13,1.2.2,1.81.24,1.97.12,3.9-.28,5.85-.4.5-.03,1.01,0,1.46,0,.2.26.37.47.56.71.45-.84.58-.88,1.5-.77.3.04.62.03.92-.02.4-.06.78-.21,1-.59.16-.28.31-.57.47-.87-.37-.61-.94-.4-1.46-.4-.13.18-.25.35-.35.48-.54-.03-1.04-.08-1.53-.08-.33,0-.46-.17-.55-.45-.08-.26-.2-.5-.31-.78.5-.64.16-1.25-.09-1.76.03-.38.12-.66.06-.91-.16-.61.1-1.22-.11-1.86-.13-.4.12-.91.2-1.38-.12-.17-.25-.34-.3-.42.07-.78.2-1.46.18-2.14-.02-.87.33-1.73.02-2.6-.01-.04,0-.1,0-.14.17-.61.19-1.21.17-1.85-.01-.4-.17-.91.35-1.29.64-.04,1.35-.08,2.1-.13.07-.29-.06-.47-.37-.51-.21-.03-.43,0-.64-.02-.48-.03-.98.08-1.49-.09.26-.69.22-1.34.17-2.01-.03-.48-.24-.97.06-1.49.15-.25.2-.74-.19-1.03-.07.05-.15.08-.18.13-.5,1.09-.1,2.29-.41,3.41-.02.06.1.16.13.24.15.48.04.72-.39,1.01-.28-.06-.54-.17-.78-.14-1.16.14-2.32.29-3.5.26-.12,0-.24,0-.35.02-.72.11-.9.01-1.2-.73.05-.07.11-.14.16-.22.07-.1.13-.19.19-.27q-.23-1.33-.64-1.43c-.09.85-.18,1.71-.27,2.56-.19.08-.31.18-.44.19-.51.04-1.02.07-1.53.06-.42,0-.84-.09-1.26-.11-.4-.02-.79,0-1.19.02-.53.04-1.05.34-1.51,0-.29.08-.52.16-.75.22-.07-1.41-.13-2.75-.2-4.09-.03-.47-.08-.93-.13-1.39-.05-.48-.21-.96.04-1.45.08-.16.07-.43,0-.61-.36-.9-.16-1.8-.17-2.75,1.19-.05,2.31-.02,3.41-.15,1.1-.13,2.2.14,3.38-.17.05.34.11.63.14.93.02.28,0,.55.02.83.05.78.15,1.55.16,2.32.01.85-.08,1.69-.08,2.54,0,.44.16.54.69.54.31-1.13-.16-2.26.01-3.42.17-1.13-.14-2.33-.24-3.53.21-.07.35-.15.5-.16.43-.04.87-.04,1.31-.07,1.1-.08,2.2-.18,3.31-.26.21-.02.44.03.63-.04.43-.15.77-.03,1.12.2,0,1.42-.4,2.81.02,4.15-.16.29-.29.54-.46.86.23.09.4.16.68.27.06-.46.16-.8.15-1.14-.03-.63-.31-1.26.1-1.86.02-.03.01-.1-.01-.14-.23-.3-.05-.57.01-.87.06-.32.04-.65.06-.97.01-.18.04-.36.07-.58.28-.01.51-.03.75-.04.43,0,.85,0,1.28,0,.42-.01.77-.15.97-.57-.28-.28-.53-.35-.91-.29-.59.08-1.2.05-1.81.03-.12,0-.23-.14-.35-.22v-1.98c.38-.23.28-.69.26-1.14-.02-.44-.04-.87-.03-1.31.01-.53.05-1.07.09-1.6.05-.55.12-1.11.18-1.67.17-.03.28-.06.4-.07.73-.05,1.46-.11,2.19-.14.48-.02.96-.18,1.46-.03.22.06.5-.09.79-.16-.29-.5-.71-.64-1.16-.53-.24.06-.49.05-.74.07-.33.03-.66.04-.98.09-.66.1-1.3.03-1.86-.13-.17-2.2-.24-4.32-.2-6.43-.51-.14-.62.06-.62.42,0,.53-.02,1.05-.04,1.58-.03.79-.07,1.58-.11,2.38h.11c-.11.14-.22.28-.34.42.16.17.29.31.46.49-.45.23-.06.47,0,.82-.28.11-.53.3-.79.31-.98.04-1.97.09-2.95,0-.66-.07-1.25.03-1.86.19-.09.02-.19-.01-.28-.02-.35,0-.69-.02-1.04-.02-.18,0-.36.02-.61.03-.1-.39-.3-.76-.26-1.11.11-.98.18-1.96.08-2.94-.04-.36-.08-.73-.12-1.15h-.58c-.07.2-.24.44-.17.54.24.38.09.76.1,1.14.04,1.18.12,2.37.18,3.66-2.14.02-4.24.03-6.41.05v-3.63c.28-.61.3-2.07-.07-2.31-.15.04-.32.09-.52.15.03.36.1.68.07,1-.04.51-.2,1.02-.22,1.53-.02.53-.2,1.03-.08,1.61.11.53-.08,1.12-.13,1.69-.25.03-.39.05-.53.06-.91.05-1.82.07-2.73.16-.54.05-1.05.16-1.6.01-.46-.12-.62.1-.67.7h5.47c.03.32.08.66.08,1,0,.25-.1.51-.11.76-.03.54-.04,1.08-.04,1.62,0,.44-.08.92.07,1.31.21.58.1,1.15.11,1.72,0,.3-.07.6-.09.91-.02.29-.03.57-.04.9-.97.05-1.84.11-2.71.15-.47.02-.95-.02-1.42.01-.44.02-.82.17-.96.69.63.41,1.33.32,1.94.2.9-.17,1.79-.06,2.68-.08.52-.02.63.18.64.71.01.63.07,1.27.1,1.9,0,.19.03.39-.02.57-.19.77-.31,1.52.43,2.05-.15.23-.37.41-.37.59.02.58.14,1.16.21,1.74.09.71.18,1.43.25,2.14.01.11-.12.24-.18.36-.56-.02-1.06.2-1.55.16-1.03-.09-2.06-.07-3.09-.08-.67,0-1.34-.06-2.01-.07-.47,0-.64-.13-.5-.56.16-.49.05-.93-.04-1.39-.04-.24-.06-.5-.02-.75.21-1.23.31-2.46.04-3.7-.09-.43-.1-.89-.13-1.33-.02-.46-.02-.92-.03-1.38,0-.11-.02-.23,0-.34.04-.32.16-.65.12-.96-.12-1.1.24-2.2-.04-3.3-.02-.06,0-.14.02-.21.28-.94.17-1.91.14-2.86-.01-.47.04-.92.08-1.38.04-.35.05-.7.03-1.05-.05-.66-.17-1.31-.18-1.96-.01-.6.15-1.21.08-1.79-.06-.48-.1-.98.15-1.34.32-.46.24-.89.16-1.36-.01-.08.04-.18.05-.25.58-.13,1.13-.35,1.67-.35,1.63-.01,3.24-.14,4.86-.3,1.44-.14,2.9-.22,4.34-.29,1.03-.05,2.08.08,3.09-.28.11-.04.24,0,.35-.01.66-.05,1.32-.08,1.97-.18.36-.05.71-.2,1.12-.33.57.07,1.22.18,1.87-.04.17-.06.37-.03.56-.01.9.08,1.8.18,2.7.26.11.01.24-.05.35-.04.9.08,1.91-.25,2.51.72.39-.06.74-.11,1.08-.17.14-.22.27-.42.38-.6.47-.11.56.14.58.5.02.58.05,1.16.09,1.74.06.89.16,1.78.19,2.68.04,1.3,0,2.61.03,3.91,0,.59.14,1.19.06,1.76-.06.47-.08.88.13,1.3.04.08.04.18.04.27-.03.59-.07,1.17-.1,1.76-.03.59-.11,1.17-.04,1.78.1.81-.07,1.64-.11,2.47-.02.44.02.89-.02,1.33-.06.79-.17,1.57-.25,2.36-.06.53-.05,1.08-.18,1.59-.15.58-.17,1.14-.13,1.73.08,1.04.07,2.09.09,3.14,0,.35.02.7-.02,1.05-.05.58-.18,1.17-.2,1.75-.04,1.08.07,2.18-.26,3.24-.03.11,0,.23,0,.35.02.91.09,1.82.06,2.73-.04,1.2-.11,2.4-.27,3.59-.1.73.04,1.6-.69,2.14-.05.28-.17.53-.28.78-.2.47-.22.94-.16,1.38.42-.12.75-.18,1.05-.31.23-.09.5-.22.62-.41.2-.33.33-.72.42-1.1.16-.72.48-1.43.31-2.2,0-.04.03-.09.03-.14.08-.87.17-1.73.23-2.6.03-.42,0-.84-.01-1.25-.03-1.83.1-3.67.03-5.5,0-.11.06-.23.07-.34.12-1.05.28-2.1.33-3.16.09-1.68-.12-3.37,0-5.06.12-1.61.15-3.23.3-4.84.04-.43.12-.83-.04-1.14.07-.4.16-.72.17-1.05.02-.8.01-1.61,0-2.41,0-.42-.06-.84-.06-1.26,0-1.18.05-2.35.05-3.53,0-.25-.15-.53-.08-.76.24-.87.07-1.72,0-2.58-.06-.7-.45-1.44.24-2.04-.15-.81-.43-1.58-.38-2.32.06-.88-.03-1.74-.06-2.61-.03-.82-.48-1.19-1.2-1.06-.32.37-.6.72-.91,1.04-.28.29-.65.33-1.05.29-1.18-.1-2.37-.23-3.55-.24-.92-.01-1.86-.17-2.79.1-.19.06-.42-.04-.63-.06-.14-.02-.28-.07-.42-.05-.96.12-1.92.26-2.88.4-.84.13-1.7.48-2.49.36-1.2-.18-2.35.1-3.52.11-1.06,0-2.11.16-3.16.25-.53.05-1.06.09-1.58.19-.4.08-.76.36-1.2.06-.13-.09-.41.03-.61.06-.18.03-.37.09-.55.09-.56.02-1.12-.02-1.68.04-.29.03-.6.17-.83.34-.44.33-.83.73-1.18,1.05,0,.49.09.96-.02,1.37-.29,1.16.09,2.29.05,3.43-.02.74.06,1.48.09,2.22.01.51,0,1.02,0,1.53,0,.24.08.5,0,.7-.19.52-.07.97.23,1.38-.4.57-.54,1.15-.29,1.8.05.14.05.32.04.48-.06.67-.19,1.34-.19,2,0,.99.15,1.98.07,2.96-.06.74.02,1.45.04,2.17,0,.49.11.98.11,1.47,0,.37-.12.75-.11,1.12.04,1.08-.13,2.15-.03,3.24.07.74-.13,1.51-.11,2.26.05,2.19-.15,4.39,0,6.58ZM230.02,253.95c-.03-.46,0-.93,0-1.37,1.25-.08,2.47-.16,3.69-.23.07,0,.14,0,.21,0,.92-.02,1.85-.05,2.84-.07.1,1.26.59,2.46.28,3.75-.19.8-.08,1.24.45,1.74.1-.16.22-.29.27-.44.05-.15.04-.33.02-.49-.12-1.29-.25-2.58-.37-3.86-.02-.22.03-.44.04-.64.35-.13.75.24.97-.31-.59-.24-1.25-.46-1.28-1.28-.21.02-.36.03-.62.05.11.29.2.52.32.83-.18.03-.35.08-.52.09-1.04.02-2.07-.05-3.1.25-.38.11-.83-.07-1.25-.09-.42-.02-.84,0-1.26-.02-.27-.01-.54-.07-.92-.12,0-1.05.01-2.03,0-3.01,0-.54-.15-1.09-.09-1.62.11-.9-.23-1.74-.18-2.63.02-.37-.2-.76-.34-1.26.09-.45.54-.38.89-.44.61-.11,1.23-.18,1.85-.26.11-.01.23.01.35.04.97.21,1.08.2,1.93-.1.53.54,1.22.07,1.88.32.06.43.15.91.19,1.39.08.89-.11,1.78.24,2.66.15.39-.06.92-.07,1.38-.02.6,0,1.2,0,1.95.28-.14.5-.18.55-.29.11-.25.21-.55.17-.8-.07-.51-.11-.5-.1-.82-.03-.43-.06-.86-.08-1.29-.02-.5-.03-1.01-.04-1.51,0-.89,0-1.77,0-2.7.7-.07,1.33-.12,1.95-.19.42-.04.84-.12,1.26-.15.32-.02.64,0,1.06,0,.06-.04.21-.15.37-.26.3.07.59.14.9.21.06.35.16.69.17,1.03.02.33.08.64-.07,1-.16.39-.05.89-.06,1.34,0,.46.03.93,0,1.39-.07.88-.2,1.76-.24,2.64-.02.42.09.84.12,1.26.01.17-.02.35-.04.54-1.31-.38-2.5.04-3.77.1.12.42.28.59.63.53.27-.04.54-.07.81-.1.55-.06,1.11-.12,1.79-.19.14.11.4.32.54.44.05.69.11,1.27.13,1.85.05,1.14.09,2.28.14,3.42,0,.06.03.13.04.19-2.35.31-4.68.55-7.04.47-.58-.02-1.17.07-1.76.11-.09,0-.21.03-.28-.01-.37-.22-.74-.17-1.15-.13-.95.09-1.92.09-2.87.11-.23,0-.47-.08-.7-.08-1.73,0-3.41.36-5.07.83-.11.03-.23.07-.34.1-.53.14-.76,0-.89-.5-.09-.34-.22-.66-.31-1-.19-.77-.38-1.54-.55-2.31-.11-.48-.2-.97-.26-1.46-.06-.49-.06-.98-.09-1.55.26,0,.52.01.77,0,.54-.03,1.08-.1,1.62-.12.3-.01.62-.01.91.06,1.28.33,2.58.2,3.88.19.21,0,.42-.15.72-.25.06,1.58.19,3.12.51,4.63.07.01.15.02.22.03.08-.18.25-.37.24-.55-.04-.79-.15-1.59-.21-2.38ZM228.57,227.21c-.05-.58-.52-1.22.18-1.68v-2.79c.31-.04.59-.14.85-.1,1.22.18,2.44.15,3.67,0,.67-.08,1.36-.02,2.13-.02.05.25.16.5.13.73-.12.89-.22,1.74.1,2.63.2.55.1,1.22.07,1.84-.03.67.02.78.79.97.03-.15.1-.29.08-.43-.08-.96-.07-1.94-.31-2.86-.21-.8.12-1.58-.14-2.36-.07-.22.12-.52.16-.66,1.39-.1,2.66-.22,3.94-.27.68-.03,1.36.04,2.03.07.24.01.47.03.71.05.59.04.72.23.63.81-.07.4-.2.79-.06,1.24.08.27-.12.62-.14.94-.07,1.39-.13,2.77-.18,4.16,0,.27.03.55.04.81-2.26.17-4.49.33-6.71.5-.07-.65-.13-1.21-.19-1.77-.36-.09-.54-.03-.52.35.02.4,0,.8,0,1.19-.24.25-.46.37-.83.29-.33-.07-.69.06-1.04.06-.92.01-1.83,0-2.75.01-.49.01-.98.09-1.48.13-.28.02-.55,0-.93,0,.15-.73-.06-1.34.06-2.01.1-.58-.23-1.22-.29-1.84ZM228.53,242.79c.08.78.13,1.41.21,2.04.02.16.05.33.12.47.17.34.32.64.06,1.03-.11.17-.03.46-.03.69,0,.67,0,1.35,0,2.02,0,.53-.12,1.06.15,1.59.11.23-.07.61-.13.95-.72.19-1.42.4-2.18.03-.3-.15-.69-.13-1.04-.13-.75,0-1.51.09-2.26.07-.63-.01-1.26-.09-1.88-.19-.24-.04-.41-.21-.38-.51.04-.32.06-.65.07-.97.02-.37.09-.76.02-1.11-.18-.96.05-1.91.06-2.86,0-.15.13-.29.09-.43-.09-.77-.17-1.54-.26-2.29,2.47-.14,4.89-.27,7.36-.41Z"/>
  <path class="cls-1" d="M259.11,218.04c-.19-.89-1.27-1.52-2.01-1.05-.46.3-.91.44-1.4.47-.28.58-.55,1.12-.82,1.68.16.24.31.48.48.7.16.23.32.47.52.67.63.61,1.5.55,2.08-.11.27-.3.58-.55.96-.91.02-.46.31-.91.19-1.45ZM256.61,219.34c.06-.26.11-.48.19-.82.27-.06.61-.14,1.02-.24q-.5,1.37-1.21,1.06Z"/>
  <path class="cls-1" d="M256.56,223.49c-.26.16-.44.24-.58.36-.98.85-1.42,1.73-.59,2.98.08.12.16.23.24.35.35.49,1.33.73,1.84.42.82-.5,1.3-1.46,1-2.37-.17-.52-.24-.97.04-1.61-.75.23-1.41.52-1.96-.12ZM256.88,226.38c-.24-.37-.51-.65-.16-1.02.55.35.55.38.16,1.02Z"/>
  <path class="cls-1" d="M255.99,244.76c.56.37,1.27.23,1.7-.29.12-.15.25-.28.38-.42.76-.83.63-1.68-.35-2.25-.08-.05-.17-.08-.27-.14.06-.15.11-.3.16-.43-.71-.48-.84-.47-1.43.02-.14.12-.32.2-.45.33-.13.13-.23.29-.31.45-.09.17-.14.37-.2.55-.05.13-.16.26-.15.39.03.73.28,1.37.93,1.79Z"/>
  <path class="cls-1" d="M254.51,256.88c.41.51.76.13,1.08.03.67.35,1.8.24,2.18-.25.31-.41.57-.86.76-1.33.35-.85-.23-1.53-1.16-1.42-.18.02-.37,0-.41,0-1.25.38-1.68,1.46-2.45,2.23v.75ZM257.09,255.64c-.17.13-.35.26-.54.4q-.14-.53.54-.4Z"/>
  <path class="cls-1" d="M255.97,249.78c.34.21.7.37,1.09.57.47-.24.95-.48,1.28-.65.18-.47.29-.79.41-1.11.15-.39.18-.8-.04-1.16-.35-.56-1-.7-1.66-.54-.47.12-.6.47-.72.67-.35.18-.62.24-.74.41-.31.43-.07,1.52.38,1.79ZM257.59,248.67c-.27-.02-.43-.04-.66-.06q.31-.36.66.06Z"/>
  <path class="cls-1" d="M247.62,251.2c-.45,0-.91.09-1.32-.02-.66-.19-1.2.13-1.78.29-.05.01-.06.22-.07.3.6-.01,1.15-.01,1.7-.04.42-.02.84-.06,1.26-.11.29-.03.37-.18.21-.42Z"/>
  <path class="cls-1" d="M247.13,188.45c.21-1.09,1.05-1.76,1.68-2.57.23-.3.38-.71.68-.89.7-.42.86-1.26,1.48-1.73.02-.02-.02-.13-.03-.19-.79-.17-1.72.3-1.96,1.09-.13.42-.4.67-.64.98-.51.67-1.19,1.2-1.54,2-.14.31-.33.6-.57,1.01.1.19.24.46.44.84.22-.24.44-.37.47-.54Z"/>
  <path class="cls-1" d="M253.02,188.01c.51-.64,1.1-1.2,1.47-1.89.37-.69.98-1.23,1.32-2.01-.34-.05-.57-.08-.77-.11-.73.45-1.17,1.13-1.58,1.8-.42.67-.7,1.43-1.41,1.9.28.45.64.34.97.32Z"/>
  <path class="cls-1" d="M240.62,189.87c-.02-.45.18-.81.48-1.12.21-.21.42-.43.62-.64.54-.57.74-1.42,1.6-1.8-.82-.24-1.55.32-1.86,1.3-1.06.62-1.11,1.74-1.4,2.79.48.07.58-.19.57-.53Z"/>
  <path class="cls-1" d="M245.41,183.44c-.41-.13-.56-.12-.73.13-.45.65-.9,1.31-1.32,1.98-.06.1,0,.27,0,.57.89-.89,1.63-1.66,2.06-2.68Z"/>
  <path class="cls-1" d="M217.72,192.1c.04-.42.06-.84.46-1.13.08-.06,0-.33,0-.59-.92.52-.95,1.31-1.05,2.15.43.11.56-.09.59-.42Z"/>
  <path class="cls-1" d="M232.26,186.14c-.06-.02-.12-.04-.18-.05l-.34.82c.45-.14.64-.39.52-.77Z"/>
  <path class="cls-1" d="M260.25,182.15q0-.28-.42-.17c.09.1.18.21.27.31.05-.05.1-.1.15-.15Z"/>
  <path class="cls-1" d="M239,183.94h-.13v.3h.13v-.3Z"/>
  <path class="cls-1" d="M216.31,187.04l-.08-.08c-.05.08-.1.15-.15.23.03.02.07.04.1.06.04-.07.08-.14.12-.21Z"/>
  <path class="cls-1" d="M215.69,187.98s.06-.04.09-.06c-.04-.02-.07-.04-.11-.05-.01,0-.03.03-.05.04.02.02.05.07.07.07Z"/>
  <path class="cls-1" d="M231.61,187.31s-.04-.07-.05-.11c-.02.01-.05.03-.05.04,0,.04.01.07.02.11.03-.02.06-.03.08-.05Z"/>
</svg>