<?xml version="1.0" encoding="UTF-8"?>
<svg id="Livello_1" data-name="Livello 1" xmlns="http://www.w3.org/2000/svg" viewBox="0 0 489 489">
  <defs>
    <style>
      .cls-1 {
        fill: #fff;
        stroke-width: 0px;
      }
    </style>
  </defs>
  <polygon class="cls-1" points="221.59 153.25 221.57 153.26 221.57 153.26 221.59 153.25"/>
  <path class="cls-1" d="M318.34,408.67c-.17-1.77-.5-3.52-.72-5.28-.11-.91-.2-1.84-.17-2.76.05-1.69.26-3.37.29-5.05.03-2.3,0-4.6-.09-6.9-.07-1.95-.22-3.89-.41-5.83-.12-1.32-.42-2.63-.54-3.95-.14-1.52-.16-3.06-.29-4.58-.1-1.14-.37-2.27-.43-3.41-.1-2.04-.05-4.08-.14-6.12-.11-2.43-.27-4.86-.46-7.29-.31-3.8-.68-7.59-1.01-11.39-.27-3.13-.38-6.29-.82-9.4-.52-3.64-.66-7.29-.86-10.95-.12-2.25-.04-4.51-.05-6.77,0-.09-.02-.18-.03-.26-.25-2.33-.48-4.66-.77-6.99-.27-2.21-.56-4.41-.91-6.6-.44-2.71-1.03-5.4-1.41-8.12-.76-5.41-1.4-10.83-2.12-16.24-.2-1.53-.57-3.03-.8-4.56-.16-1.05-.2-2.12-.29-3.19-.13-1.58-.23-3.16-.41-4.73-.13-1.09-.37-2.17-.55-3.25-.03-.17-.02-.35-.02-.53-.05-1.64-.08-3.28-.17-4.91-.14-2.39-.36-4.77-.49-7.15-.12-2.44-.15-4.89-.25-7.33-.1-2.43-.43-4.87-.32-7.29.19-4.53-.41-8.94-1.67-13.26-.3-1.02-.36-1.97-.3-2.98.06-.96.13-1.95-.01-2.89-.27-1.8-.77-3.56-1.03-5.36-.31-2.11-.57-4.23-.66-6.36-.11-2.53,0-5.07,0-7.6-.01-2.45-.03-4.9-1.04-7.2-.04-.08-.09-.16-.09-.25-.05-1.39-.85-2.55-1.57-3.56-.63-.88-1.6-1.73-3.04-1.79-2.17-.1-4.2.59-6.3.81-1.65.18-3.25.85-4.9,1.15-3.74.69-7.49,1.39-11.26,1.9-3.42.46-6.88.65-10.31,1.03-2.11.24-4.21.66-6.32.94-1.87.26-3.74.45-5.62.66-1.1.12-2.24.07-3.3.34-2.45.61-4.88.68-7.36.27-.79-.13-1.4-.37-1.78-1.18-.39-.83-.95-1.59-1.48-2.35-.27-.38-.59-.8-.98-1.02-1.64-.88-2.52-2.16-2.51-4.06,0-.53-.1-1.06-.18-1.59-.37-2.73-.78-5.45-1.11-8.18-.27-2.2-.39-4.41-.66-6.61-.37-3.04-.83-6.06-1.23-9.1-.39-2.95-.67-5.91-1.14-8.85-.44-2.78-.73-5.54-.35-8.35.14-1.03.26-2.18-.05-3.14-.63-1.93-.86-3.82-.75-5.85.12-2.27.36-4.41,1.97-6.15,1.41-1.52,2.56-3.19,3.35-5.14.41-1,.6-1.95.3-2.97-.28-.96-.65-1.91-.91-2.88-.41-1.58-.63-3.23-1.17-4.77-.71-2.02-1.94-3.69-4.1-4.42-.58-.2-1.16-.4-1.75-.59-2.13-.69-4.2-.69-6.38.01-2.02.65-3.43,2.13-4.92,3.4-1.25,1.07-2.17,2.69-2.09,4.6.05,1.2-.06,2.4-.03,3.6.05,2.21.08,4.43.27,6.63.06.7.58,1.37.89,2.05h-.01c.9,1.13,1.68,2.36,3,3.14.86.5,1.6,1.23,2.35,1.91.27.25.55.68.53,1.01-.04.87-.21,1.75-.37,2.61-.33,1.79-.75,3.56-1.02,5.35-.56,3.67-1.07,7.35-1.53,11.03-.15,1.18.06,2.4-.1,3.57-.5,3.65-1.15,7.27-1.66,10.92-.37,2.68-.61,5.37-.9,8.06-.16,1.5-.03,3.08-.47,4.5-.74,2.4-1.06,4.81-1.16,7.29-.04.95-.41,1.88-.54,2.84-.23,1.8-.38,3.62-.59,5.42-.17,1.45-1.13,2.29-2.39,2.78-.61.24-1.3.27-1.96.36-3.61.48-7.25.69-10.79,1.66-.56.15-1.11.36-1.67.45-2.76.4-5.6.23-8.3,1.12-.28.09-.62-.03-.92.02-1.44.24-3.02.23-4.29.84-1.32.64-2.36,1.89-3.51,2.89-.4.35-.7.8-1.12,1.12-2.09,1.65-4.22,3.25-6.3,4.92-1.18.94-2.33,1.85-3.75,2.47-1.2.52-2.39,1.33-2.73,2.73-.26,1.07-.31,2.2-.33,3.31-.03,2.39-.03,4.79.06,7.17.04,1.09.33,2.17.5,3.25.39,2.53.79,5.07,1.14,7.61.36,2.67.67,5.35.99,8.03.26,2.25.54,4.49.72,6.74.15,1.8.45,3.57.42,5.42-.09,5.29.06,10.58.16,15.88.04,2.35.37,4.71.21,7.04-.25,3.67-.1,7.24.64,10.86.58,2.88.57,5.88.82,8.82h-.01c.03.24.09.5.1.75.03,1.45.04,2.9.09,4.35.09,2.98.2,5.95.28,8.93.03,1.24-.06,2.48.03,3.71.1,1.37.4,2.72.51,4.09.23,2.92.39,5.84.6,8.76.05.64.24,1.28.33,1.92.07.56.05,1.14.13,1.71.46,3.02,1,6.02,1.38,9.05.3,2.32.42,4.67.6,7,.06.74-.03,1.5.08,2.24.24,1.66.57,3.31.84,4.97.06.35,0,.71,0,1.06.01.61,0,1.23.07,1.84.13,1.01.37,2,.47,3.01.32,3.13.59,6.26.88,9.39.11,1.19.2,2.38.31,3.57.26,3,.54,6.01.78,9.01.18,2.29.28,4.59.47,6.88.16,2.04.39,4.07.59,6.1h.01c.04.82.02,1.64.13,2.43.12.87.62,1.77.49,2.58-.22,1.42.21,2.67.48,3.99.29,1.43.61,2.86.7,4.31.12,1.94.1,3.9.02,5.85-.07,1.78-.13,3.52.53,5.23.16.41,0,.94,0,1.42,0,.96-.16,1.96.07,2.86.23.91.99,1.69,1.26,2.6.56,1.86,2.17,2.05,3.63,2.48.49.15,1.07.22,1.56.1,1.75-.43,3.47-.98,5.22-1.43.85-.22,1.78-.21,2.6-.52,2.53-.96,5.11-1.06,7.74-.65,1.6.25,3.15.44,4.53-.77.34-.3.89-.45,1.36-.49,1.3-.13,2.55-.59,3.9-.45.78.08,1.6-.07,2.37-.24,2.36-.52,4.69-1.17,7.15-.98.96.07,1.95.22,2.85-.39.18-.12.52-.03.78-.01.56.05,1.11.15,1.67.16,1.33.04,2.66.04,3.98.06,3.55.05,7.1,1.02,10.66.03.12-.03.26.06.39.04.82-.09,1.64-.18,2.46-.31.52-.08,1.02-.31,1.54-.33,1.59-.06,3.18-.04,4.78-.05,1.15,0,2.29,0,3.44,0,.01-.06.02-.11.03-.17-.27-.07-.54-.14-.6-.15,2.13-.23,4.39-.55,6.66-.71,1.49-.1,3-.18,4.44.54,1.23.61,2.59.79,3.86.08,1.21-.67,2.46-.93,3.83-.84,1.28.08,2.51-.08,3.72-.74,1.05-.58,2.21-.91,3.55-.79,3.84.33,7.69.33,11.44-.85,1.49-.47,3.05-.74,4.58-1.07.29-.06.63-.04.92.03.94.24,1.86.63,2.82.76,1.17.16,2.47.41,3.54.08,1.08-.33,2.29-.74,2.95-2.04.47-.91,1.02-1.72,1.09-2.79.03-.42.23-.87.45-1.24.75-1.26,1.52-2.5,2.33-3.72.79-1.19,1.98-1.61,3.22-.99,1.49.75,3,.69,4.55.49,1.65-.21,2.64-1.36,2.48-3.03ZM217.66,121.88c-.14-.87-.31-1.48-.33-2.1-.06-1.74-.03-3.48.71-5.1.66-1.45,1.57-2.63,3.33-2.92,1.74-.29,2.84.25,3.43,1.89.07.2.17.39.26.59h0c.17,1.04.44,2.08.5,3.13.06,1.11-.73,2.03-1.74,2.42-1.18.45-2.33,1.02-3.52,1.45-.76.28-1.58.4-2.63.66ZM217.1,183.32c.19-.67.14-1.4.23-2.1.08-.62.13-1.24.29-1.84.58-2.16.73-4.36.78-6.59.06-2.31.18-4.62.28-6.92.01-.26.02-.56.14-.78.82-1.45.66-3.06.84-4.62.11-.91.13-1.84.3-2.74.25-1.26.57-2.51.93-3.74.08-.28.44-.49.68-.73.01-.53.26-.81.81-.8,1.08,1.06.94,2.55,1.25,3.85.35,1.49.36,3.07.53,4.6.16,1.49.33,2.97.49,4.46.22,2.11.43,4.22.64,6.33.05.53.14,1.06.15,1.59,0,.31-.14.62-.19.84.18.46.48.88.49,1.32.05,2.85.32,5.67.82,8.48.37,2.04.41,4.15.62,6.22.04.39.1.8.22,1.17.42,1.31-.04,2.47-1.32,3.01-.48.2-1.03.28-1.55.33-1.63.17-3.26.26-4.88.46-1.57.2-2.78-.75-2.86-2.36-.02-.31.03-.64-.06-.93-.92-2.89-.42-5.7.38-8.52ZM191.2,412.07c-.39,1.44-.53,3.02-2.33,3.54.07.39.12.68.14.82-.67.61-1.29,1.12-1.85,1.68-1.06,1.06-2.04.96-2.56-.4-.39-1.02-.66-2.11-.83-3.19-.58-3.7-1.1-7.42-1.61-11.13-.15-1.09-.18-2.19-.31-3.28-.32-2.64-.67-5.27-1.01-7.91-.02-.13-.04-.27,0-.4.64-2.28-.12-4.47-.43-6.69-.22-1.57-.21-3.17-.3-4.75-.02-.4-.01-.81-.1-1.19-.46-2.04-.59-4.07-.46-6.17.08-1.2-.4-2.44-.58-3.66-.14-.96-.22-1.93-.3-2.89-.13-1.41-.2-2.83-.37-4.23-.33-2.59-.71-5.18-1.07-7.77-.25-1.8-.55-3.6-.78-5.4-.13-1.05-.14-2.12-.25-3.18-.1-.97-.29-1.93-.39-2.9-.06-.56-.01-1.13-.01-1.38-.3-.61-.6-.96-.63-1.33-.22-2.7-.35-5.4-.58-8.1-.11-1.28-.26-2.57-.58-3.8-.43-1.69-.67-3.36-.57-5.11.06-1.03-.28-2.1-.52-3.14-.58-2.51-.59-5.02-.28-7.56.04-.35.06-.71.05-1.06-.08-1.91-.19-3.81-.26-5.72-.09-2.26-.1-4.52-.24-6.78-.11-1.71-.4-3.41-.55-5.12-.15-1.77-.22-3.54-.34-5.31-.16-2.39-.37-4.78-.48-7.17-.06-1.28.05-2.56.06-3.84,0-1.87,0-3.73-.01-5.6-.03-3.41-.04-6.83-.13-10.24-.03-1.19-.31-2.37-.36-3.56-.04-1.1.15-2.22.13-3.32-.03-1.46-.13-2.93-.24-4.39-.31-3.89-.58-7.78-.99-11.66-.32-3-.91-5.97-1.24-8.96-.27-2.46-.69-4.94-.18-7.43.06-.3.06-.62.05-.93-.1-2.8,1.26-4.93,3.2-6.75.84-.79,1.69-1.56,2.62-2.23.81-.58,1.75-.84,2.9-.45,0,1.08,0,2.18,0,3.27,0,1.48.04,2.96.02,4.44-.02,1.28-.09,2.56-.13,3.84-.04,1.24-.22,2.5-.06,3.72.25,1.88.52,3.81,1.16,5.58.74,2.02.82,4.08.96,6.15.21,3.15.37,6.3.49,9.45.11,2.92.07,5.84.24,8.76.13,2.14.47,4.27.74,6.4.18,1.49.43,2.96.59,4.45.38,3.53.72,7.06,1.06,10.59.05.53.02,1.07.06,1.6.24,3.36.52,6.71.72,10.08.1,1.63.05,3.27.09,4.91.08,3.18-.27,6.36.24,9.53.13.78,0,1.6.05,2.4.08,1.1.25,2.19.36,3.29.06.62.14,1.24.11,1.86-.17,3.5-.08,6.98.53,10.45.33,1.88.38,3.8.56,5.7.15,1.54.53,3.11.39,4.63-.23,2.45.65,4.72.77,7.11.09,1.79.38,3.57.35,5.39-.04,2.53.07,5.06.15,7.58.03.8.17,1.59.26,2.38h0c-.09.25-.25.51-.26.77-.03.71-.02,1.41.03,2.12.14,2.12.31,4.24.45,6.36.1,1.5.2,3.01.25,4.51.11,3.11.21,6.22.26,9.33.05,2.7.03,5.4.04,8.1,0,.22.03.45.09.66.47,1.86.71,3.73.71,5.66,0,3.6.19,7.2.3,10.8.02.53.12,1.11-.05,1.59-.65,1.9.49,2.98,1.81,3.86,1.06.71,1.59,1.46,1.24,2.75ZM290.92,413.71c-1.87.58-3.74,1.15-5.64,1.59-.75.17-1.6-.11-2.39-.01-1.44.18-2.87.52-4.31.75-2.04.33-4.09.7-6.14.93-1.89.21-3.79.29-5.69.36-.74.03-1.48-.17-2.22-.19-1.23-.02-2.48-.06-3.7.04-2.56.22-5.11.52-7.66.79-.26.03-.55.01-.78.11-1.97.77-4.03.94-6.12,1.01-4.53.16-9.05.41-13.57.55-2.71.08-5.42.02-8.12.05-1.81.02-3.62.14-5.43.16-2.11.02-4.1.68-6.15,1.04-2.92.5-5.88.76-8.81,1.18-1.93.27-3.84.65-5.76.97-1.6.27-2.11.04-2.9-1.27.36-.88.97-1.58,1.9-1.89.72-.24,1.05-.7,1.25-1.41.18-.63.49-1.25.83-1.81.42-.7.98-1.17,1.88-1.3,2.09-.31,4.16-.77,6.24-1.15.43-.08.89-.17,1.32-.12,3.1.37,6.13-.31,9.19-.48,4.16-.23,8.33-.22,12.48.46,1.76.29,3.62.05,5.43-.04,2.84-.13,5.67-.33,8.51-.52.56-.04,1.11-.23,1.67-.3.7-.08,1.44-.26,2.09-.1,2.63.64,5.25.48,7.9.24,1.64-.15,3.28-.2,4.91-.34.83-.07,1.64-.26,2.47-.32.37-.03.75.15,1.13.2,1.43.19,2.86.38,4.29.53.34.04.7-.05,1.05-.07.44-.03.89-.11,1.33-.06.86.11,1.74.23,2.57.47,2.09.59,4.08.2,6.07-.49.56-.19,1.2-.15,1.81-.16.52,0,1.07.2,1.55.08,2.47-.63,5.02-.21,7.5-.67.24-.04.5.06.75.09.06.12.12.23.18.35-.31.25-.57.62-.93.73ZM311.84,396.92c0,1.35-.53,1.79-1.9,2.1-1.19.27-2.34.76-3.4,1.11-.25,2.01-1.68,3.79-3.21,4.73-2.1,1.29-4.35,1.64-6.74,1.75-1.67.08-3.32.55-4.99.73-1.58.18-3.18.2-4.78.32-1.41.11-2.82.26-4.24.4-.22.02-.45.09-.66.05-2.86-.48-5.64.53-8.48.38-1.99-.11-3.99,0-5.97-.18-2.24-.21-4.45-.49-6.73-.29-2.27.2-4.59-.11-6.89-.19-.84-.03-1.68-.08-2.52-.06-1.32.02-2.65.03-3.97.15-2.38.22-4.77.41-7.12.82-2.23.39-4.43.09-6.64.03-5.24-.13-10.49-.26-15.73-.33-.97-.01-1.97.1-2.9.35-1.57.42-3.16.36-4.74.33-.4,0-.8-.2-1.21-.29-.26-.06-.52-.13-.77-.13-1.37,0-2.74-.04-4.11.01-1.81.07-3.5-.38-5.18-.97-.74-.26-1.44-.54-2.31-.26-.4.13-.99-.35-1.22-.44-.88-2.36-.49-4.49-.52-6.62-.04-2.67-.61-5.29-1.35-7.87-.38-1.31-.47-2.7-.6-4.07-.24-2.42-.46-4.85-.6-7.29-.11-1.99-.02-3.99-.13-5.98-.18-3.1-.52-6.19-.69-9.29-.12-2.15-.64-4.28-.43-6.45.03-.32-.13-.65-.22-.98,0,0,0,0,0-.01.02-.38,0-.77.08-1.14.47-2.65.21-5.29-.04-7.94-.18-1.88-.04-3.78-.09-5.68-.03-1.01.05-2.09-.26-3.03-.62-1.9-.62-3.83-.73-5.78-.05-.88-.17-1.77-.31-2.64-.29-1.8-.68-3.58-.91-5.38-.18-1.43-.18-2.89-.25-4.33-.01-.22,0-.44-.03-.66-.28-1.97-.61-3.94-.84-5.92-.11-.91,0-1.85-.05-2.77-.19-2.92-.43-5.84-.61-8.77-.06-.93.06-1.86.04-2.79-.07-3.6-.13-7.2-.26-10.8-.06-1.59-.29-3.18-.42-4.77-.08-.97-.1-1.94-.15-2.91-.09-1.86-.17-3.73-.25-5.59-.1-2.22-.12-4.45-.3-6.66-.12-1.5-.51-2.97-.7-4.47-.22-1.8-.37-3.61-.54-5.42-.2-2.17-.45-4.33-.57-6.51-.15-2.83-.14-5.67-.29-8.49-.15-2.83-.4-5.65-.65-8.47-.28-3.08-.6-6.15-.91-9.23-.27-2.73-.57-5.47-.82-8.2-.05-.53.02-1.07.05-1.6.09-1.63.08-3.27.32-4.88.23-1.57.69-3.1,1.11-4.64.23-.85.49-1.72.9-2.49.73-1.36,2.22-1.38,3.49-1.57,3.37-.5,6.75-.85,10.13-1.29.75-.1,1.53-.17,2.21-.47,2.13-.94,4.36-.66,6.57-.74.49-.02.99-.04,1.45-.19,1.21-.41,2.36-.17,3.5.23.71.25,1.42.52,2.14.73,1.19.35,2.04-.42,2.86-1.03,1.39-1.05,2.78-2.01,4.59-2.21,1.54-.16,3.05-.63,4.59-.69,1.94-.08,3.89.2,5.83.19,3.06-.01,6.11-.17,9.17-.2,1.06-.01,2.12.21,3.18.23.69.02,1.4-.08,2.08-.21,1.82-.35,3.62-.9,5.46-1.08,2.78-.28,5.58-.32,8.28-1.24.98-.34,2.11-.28,3.17-.36,2.56-.2,5.13-.33,7.69-.57,1.46-.13,2.9-.41,4.35-.61.7-.1,1.42-.24,2.12-.21,1.78.08,3.38-.61,5.05-1,1.55-.35,3.13-.55,4.7-.81.35-.06.73.02,1.05-.09,1.45-.5,2.76.06,3.98.62,1.73.8,2.27,2.51,2.63,4.24.06.3-.03.65.08.93.92,2.47.56,5.11,1.03,7.63.27,1.48.67,2.93.88,4.42.46,3.29.78,6.61,1.25,9.9.35,2.46.89,4.89,1.28,7.35.33,2.1.58,4.21.85,6.32.18,1.36.35,2.73.5,4.1.3,2.75.22,5.48.09,8.25-.15,3.4.12,6.82.24,10.23.11,2.87.19,5.75.43,8.61.24,2.83.66,5.64,1.03,8.46.28,2.16.59,4.31.9,6.47.37,2.63.77,5.27,1.14,7.9.33,2.36.69,4.71.97,7.08.51,4.22.5,8.51,1.66,12.66.33,1.18.31,2.46.48,3.7.15,1.1.38,2.18.5,3.28.07.6-.05,1.23-.02,1.84.2,3.85.38,7.71.64,11.56.2,2.97.58,5.92.76,8.89.17,2.79.14,5.59.28,8.39.08,1.49.32,2.97.51,4.46.38,2.99.75,5.96.7,9-.05,2.61.62,5.23.48,7.83-.19,3.47.99,6.86.38,10.35-.18,1.04.24,2.19.36,3.29.25,2.38.59,4.76.7,7.15.13,2.9.07,5.82.07,8.73Z"/>
  <path class="cls-1" d="M234.69,108.7c.23.89.7,1.52,1.7,1.62.53.05,1.06.11,1.58.2,1.93.33,3.18-.41,4.05-2.19.73-1.5,1.74-2.85,2.93-4.06.9-.92,1.68-1.95,2.52-2.92.64-.73,1.21-1.57,1.97-2.15,1.61-1.24,3.29-2.4,5.02-3.48,1.31-.82,2.32-.59,3.39.48.15.15.33.3.52.4.95.52,1.49,1.33,1.79,2.35.16.55.32,1.12.59,1.62,1.6,2.95,3.18,5.91,4.87,8.81.98,1.68,2.03,3.33,3.87,4.26.93.47,2.63.56,3.14-.03.75-.87,1.49-1.77,2.11-2.74,1.4-2.15,2.9-4.25,3.74-6.73.77-2.28,2.5-4.03,3.5-6.22,1.09-2.4,3.13-4.27,4.23-6.73.52-1.15,1.34-2.17,1.92-3.3.9-1.78,1.65-3.64,2.58-5.4.94-1.75,2.02-3.42,3.06-5.12,1.66-2.74,2.82-5.7,4.08-8.63.95-2.23,2.28-4.29,3.29-6.5.69-1.52,1.1-3.17,1.65-4.76.13-.37.26-.75.44-1.09,1.22-2.3,2.66-4.52,3.62-6.92.93-2.32,2.91-4.03,3.5-6.5,1.48-1.17,1.88-2.97,2.75-4.65-.11-.24-.22-.43-.28-.64-.07-.21-.09-.43-.13-.65-.3-1.72-2.13-3.13-3.91-3.05-1.98.1-3.12,1.54-4.33,2.77-.73.74-1.16,1.77-1.79,2.63-.6.82-1.47,1.5-1.86,2.39-.41.95-1.28,1.44-1.78,2.33-.71,1.25-2.02,2.15-2.97,3.29-1.36,1.63-2.67,3.31-3.93,5.02-.41.56-.54,1.31-.92,1.9-1.44,2.26-3.51,4.09-4.57,6.62-.03.08-.11.14-.17.2-1.14,1.23-2.26,2.47-3.43,3.68-.68.7-1.51,1.27-2.12,2.02-2.26,2.72-4.45,5.5-6.67,8.25-1.04,1.3-2.83,1.18-3.67-.26-.51-.88-.99-1.77-1.46-2.67-.44-.82-.89-1.64-1.27-2.48-.69-1.53-1.27-3.11-2.02-4.61-.62-1.23-1.81-1.95-3.13-1.97-1.73-.03-4.04.88-4.91,3.12-.98,2.51-2.42,4.84-3.73,7.21-.86,1.55-1.84,3.03-2.78,4.53-.3.48-.62.95-.95,1.42-.53.76-1.08,1.51-1.59,2.28-.97,1.47-1.91,2.97-2.89,4.44-.56.85-1.12,1.71-1.78,2.49-1.8,2.12-3.06,4.4-2.73,7.31.12,1.06-.12,2.03-.87,2.84-.5.54-1.13,1.05-1.43,1.69-.66,1.42-1.71,2.41-2.99,3.23-.33.21-.63.52-.85.84-.77,1.12-1.79,2.22-.61,3.68.1.12.07.34.11.52ZM257.54,82.01c.47-.73.73-1.6,1.1-2.39.84-1.83,1.69-3.66,2.56-5.54h1.58c1.09,2.4,2.18,4.82,3.27,7.23.59,1.31,1.18,2.62,1.81,3.92.12.25.41.45.65.61.54.37,1.1.7,1.85,1.16.02,0,.32-.16.51-.07,1.63.73,2.56-.46,3.62-1.28.1-.08.26-.17.27-.28.36-1.97,2.05-3.03,3.07-4.55,1.43-2.12,2.88-4.24,4.47-6.24,1.28-1.62,2.77-3.07,4.17-4.6.79-.86,1.55-1.75,2.37-2.57,1.04-1.04,1.93-2.28,3.52-2.75.6.86.42,1.77.03,2.51-1,1.91-2.19,3.72-3.21,5.63-.64,1.21-1.2,2.48-1.6,3.78-.59,1.93-1.43,3.65-2.81,5.15-.64.69-.94,1.69-1.42,2.54-.45.8-.94,1.58-1.39,2.38-.12.22-.12.5-.2.74-.11.32-.21.65-.38.94-.38.64-.79,1.25-1.2,1.87-1.15,1.72-2.37,3.38-3.43,5.15-.78,1.31-1.38,2.73-2,4.12-.45,1-.63,2.17-1.25,3.03-.7.98-1.75,1.72-2.69,2.51-.19.16-.61.12-.9.05-.86-.19-2.51-2.2-2.66-3.11-.37-2.18-.66-4.38-1.2-6.52-.26-1.02-1.02-1.92-1.54-2.88-1.6-2.99-4.5-4.21-7.42-5.49-1.07-1.75-.63-3.4.42-5.05Z"/>
  <polygon class="cls-1" points="231.87 114.15 231.81 114.25 231.91 114.26 231.87 114.15"/>
  <path class="cls-1" d="M267.76,287.39c.79-.94,1.46-2,2.35-2.82,2.4-2.22,4.21-4.88,6.02-7.56.64-.95,1.3-1.9,1.82-2.92.86-1.65,1.7-3.32,2.39-5.05.61-1.51,1.29-3.08,1.43-4.67.3-3.35.27-6.74.37-10.11.1-.01.2-.03.3-.04-.3-1.69-.51-3.41-.92-5.08-.5-2.05-1.79-3.84-2.02-5.99-.01-.13-.09-.25-.15-.37-.69-1.38-1.27-2.84-2.1-4.13-.89-1.39-1.13-3.2-2.67-4.19-.26-.17-.35-.6-.54-.9-.24-.36-.49-.71-.75-1.05-1.05-1.36-2.27-2.63-3.12-4.1-.73-1.25-1.56-2.37-2.6-3.33-2.08-1.92-4.17-3.83-6.3-5.68-.69-.6-1.51-1.09-2.34-1.47-1.36-.63-2.75-1.21-4.17-1.67-2.14-.69-4.32-1.28-6.5-1.85-1.8-.46-3.77-.46-5.33-1.58-1.29-.93-2.48-1-3.78-.18-.23.14-.41.35-.65.46-1.35.61-2.71,1.22-4.07,1.79-.6.25-1.27.38-1.85.67-1.18.6-2.38,1.19-3.48,1.93-2.16,1.46-4.44,2.75-6.28,4.67-1.17,1.23-2.1,2.77-3.79,3.44-.15.06-.26.24-.37.37-.6.68-1.25,1.33-1.79,2.06-1.73,2.33-3.91,4.34-5.02,7.11-.08.2-.22.39-.35.56-1.77,2.26-2.98,4.82-3.8,7.55-.22.74-.18,1.56-.23,2.35-.18,2.61-.68,5.25-.46,7.82.32,3.68.95,7.37,2.27,10.87.22.58.29,1.27.66,1.73,1.27,1.62,1.4,3.79,2.76,5.4.97,1.15,1.55,2.62,2.38,3.89.71,1.07,1.61,2.02,2.3,3.09.76,1.17,1.82,2.08,2.54,3.32.56.97,1.71,1.61,2.65,2.33,1.01.76,2.14,1.37,3.13,2.17,1.48,1.2,2.86,2.47,4.8,2.96.96.24,1.94.65,2.77,1.19,1.99,1.31,4.08,2.31,6.46,2.63,1,.14,1.99.4,2.99.51,1.05.12,2.12.1,3.18.19,1.06.09,2.12.36,3.17.34,3.23-.05,6.35-.72,9.35-1.9,1.03-.4,2.03-.88,3.03-1.36,1.16-.55,2.31-1.11,3.46-1.69.77-.39,1.53-.82,2.29-1.25.22-.13.44-.29.6-.48ZM242.44,287.68c-1.63.14-3.17-.31-4.68-.78-3.18-1-6.19-2.46-9.03-4.17-2.46-1.48-4.62-3.4-6.35-5.76-1.01-1.38-2.19-2.65-3.17-4.05-1.11-1.58-1.66-3.38-1.64-5.39-2.65-1.6-3.71-4.98-2.8-8.04.78-2.64,2.13-4.91,3.64-7.16.58-.87.89-1.92,1.38-2.85.69-1.33,1.38-2.67,2.18-3.95,1.52-2.44,3.3-4.7,4.51-7.35,1.14-2.49,2.5-4.88,3.74-7.32.32-.63.56-1.3.76-1.98.07-.25-.01-.73-.17-.81-.26-.13-.77-.14-.95.03-.85.82-1.74,1.64-2.39,2.61-1.84,2.71-3.66,5.44-5.31,8.27-1.25,2.13-2.2,4.42-3.35,6.61-.63,1.2-1.41,2.31-2.1,3.48-.76,1.3-1.49,2.62-2.25,3.93-.15.26-.38.46-.57.69-1.16-.17-1.68-.71-1.96-1.87-.53-2.16-.04-4.26.17-6.36.09-.96.71-1.9,1.23-2.77,1.72-2.88,3.43-5.77,5.75-8.25,1.3-1.39,2.27-3.08,3.59-4.44,1.8-1.87,3.73-3.6,6.02-4.92,1.13-.65,2.11-1.6,3.08-2.5,1.22-1.14,2.55-1.91,4.43-1.82.35,1.13,1.14,2.23.46,3.52,1.81,2.19,1.63,5.74-.24,8.01-.86,1.05-1.53,2.24-2.32,3.35-.32.46-.78.83-1.07,1.3-1.41,2.25-2.87,4.48-4.13,6.81-1.02,1.88-1.74,3.92-2.66,5.86-.68,1.44-1.41,2.87-2.23,4.25-1.8,3.02-3.05,6.29-4.5,9.47-.37.8-.81,1.57-1.16,2.38-.5,1.15-.24,2.06.53,2.89.57.61,1.19.78,1.91.55.83-.26,1.11-.97,1.22-1.76.07-.53.17-1.06.16-1.58,0-1.76,1.06-3.15,1.6-4.71.26-.75.55-1.5.71-2.28.45-2.24,1.51-4.15,2.94-5.88.11-.14.28-.24.35-.4.54-1.29,1.06-2.59,1.59-3.88h0c.82-1.04,1.66-2.08,2.44-3.15.28-.39.55-.84.64-1.3.5-2.47,1.96-4.42,3.37-6.41.31-.43.63-.85.94-1.28q1-1.33,2.63-.6c.56,1.85.54,3.78.45,5.7-.09,2.02-1.17,3.7-2.19,5.36-1.66,2.71-3.62,5.23-4.94,8.16-.75,1.65-1.75,3.19-2.56,4.81-1.3,2.6-2.53,5.24-3.81,7.84-.33.67-.81,1.27-1.11,1.95-.27.6-.57,1.27-.53,1.89.09,1.33.22,2.26,1.91,2.45.92-.66,1.3-1.72,1.65-2.76.48-1.43.69-2.97,1.3-4.32.84-1.84,1.95-3.55,2.96-5.31,1.11-1.94,2.52-3.76,3.29-5.83.92-2.48,2.3-4.66,3.49-6.97.08-.15.23-.26.42-.46.49.11.99.23,1.6.36.15,1.27.29,2.48.43,3.7.05.4.04.81.15,1.18.68,2.27.59,4.54.19,6.84-.3,1.78.01,3.53.38,5.27.5,2.38,1.26,4.76,1.34,7.16.06,1.69-.84,3.41-1.3,5.13-.39,1.45-.79,2.89-1.11,4.35-.15.65.16,1.11.75,1.55.63.48,1.18,1.17,1.54,1.89.46.92-.16,1.75-1.21,1.84ZM262.02,284.28c-1.36.62-2.67,1.35-4.03,1.98-.92.42-1.86.83-2.83,1.08-1.08.28-2.3-.82-2.46-1.93-.18-1.18-.54-2.33-.77-3.51-.23-1.21-.37-2.43-.58-3.64-.37-2.17-.73-4.35-1.14-6.51-.16-.83-.34-1.67-.69-2.43-1.21-2.63-.94-5.54-1.65-8.28-.52-2.02-.42-4.21-.64-6.31-.4-3.88-.93-7.74-1.2-11.63-.29-4.27-1.19-8.42-2.1-12.58-.39-1.77-.5-3.59-.72-5.4-.09-.75-.22-1.5-.19-2.25.1-2.59,1.36-3.77,4.08-4.01.89.23,1.79.43,2.66.7,1.57.48,3.14.95,4.67,1.52,2.14.8,4.02,2.1,5.69,3.61,2.1,1.89,4.17,3.83,6,5.97,1.33,1.56,2.22,3.48,3.35,5.22.75,1.15,1.57,2.25,2.37,3.36.15.21.38.39.47.62,1.13,2.78,2.48,5.5,3.27,8.38.75,2.7,1.34,5.46,1.2,8.39-.1,2.12-.33,4.23-.53,6.33-.1,1.09-.51,2.15-.85,3.21-.34,1.06-.72,2.1-1.17,3.12-.39.87-.9,1.68-1.35,2.52-.29.54-.49,1.13-.83,1.62-1.1,1.59-2.24,3.14-3.37,4.71-.26.36-.62.67-.8,1.06-1.18,2.61-3.42,3.96-5.89,5.07Z"/>
  <path class="cls-1" d="M231.58,318.92c-.61-.58-1.57-.8-2.34-1.22-.89-.49-1.8-.61-2.8-.47-.96.14-1.96.35-2.9.22-2-.29-3.86-.04-5.46,1.15-1.3.97-2.56,2.07-3.58,3.32-.84,1.03-1.14,2.49-1.96,3.54-1.53,1.99-1.39,4.14-.89,6.32.18.77.71,1.52,1.27,2.12,1,1.08,2.43,1.44,3.79,1.76,1.72.4,3.48.64,5.23.9.65.1,1.36.19,1.98.03,2.16-.56,4.53-.52,6.52-2.34-.16-.96.71-1.49,1.29-2.2.27-.33.6-.67.74-1.06.47-1.33.8-2.72,1.31-4.04.6-1.57.44-3.14.24-4.73-.2-1.55-1.45-2.37-2.44-3.31ZM225.86,328.41c-1.6.98-3.35.73-5.06.55-.46-.05-.88-.53-1.24-.76.05-.99.13-1.83.14-2.67.02-1.91.92-2.73,2.85-2.85,1.78-.11,2.93.92,4.01,2,.95.96.46,3.01-.7,3.72Z"/>
  <path class="cls-1" d="M254.03,332.58c.51-.23.85-.83,1.26-1.27.15-.16.25-.45.42-.48,1.29-.25,1.75-1.42,2.53-2.23.77-.8,1.18-1.77,1.17-2.89,0-.62-.04-1.24-.06-1.86-.06-2.16.13-4.24-2.08-5.84-1.33-.96-2.59-1.77-4.13-2.23-1.87-.56-3.66-.26-5.43.44-.66.26-1.3.56-1.97.8-1.6.58-3.25,1.27-4.26,2.59-1.26,1.63-2.29,3.49-3.09,5.39-1.01,2.4-.37,4.89,1.37,6.48,2.12,1.94,4.62,3.13,7.88,2.98,2.27.53,4.27-.93,6.39-1.88ZM245.25,328.34c-1.18-.24-1.74-.92-1.75-2.11,0-.64.23-1.08.86-1.34,1.58-.66,3.18-1.29,4.4-2.57.12-.13.28-.22.44-.29.74-.33,1.55-.72,2.24-.08.67.62.75,1.47.32,2.32-.08.16-.18.33-.18.5,0,1.02-.45,1.74-1.32,2.28-1.08.67-2.02,1.62-3.44,1.57-.52-.09-1.05-.16-1.56-.27Z"/>
  <path class="cls-1" d="M274.03,333.04c1.14.04,2.38.13,3.4-.25,1.75-.66,3.4-1.64,5.04-2.58.72-.41,1.26-1.12,1.96-1.56,2.69-1.68,4.06-5.18,3.02-8.21-.47-1.37-1.13-2.7-1.9-3.92-2.62-4.13-6.57-4.96-10.47-2.53-1.51.94-2.74,2.34-4.07,3.56-.62.57-1.11,1.27-1.74,1.83-1.47,1.3-2.33,2.84-2.37,4.86.17,1.36.02,2.86.56,4.06,1.24,2.75,3.34,4.64,6.57,4.75ZM272.2,324.21c1.27-1.39,2.09-3.21,3.9-4.12.57-.29,1.02-.63,1.71-.47.37.09.78-.04,1.24-.07.51.4.96.75,1.56,1.21,0,.86.09,1.84-.02,2.8-.18,1.51-1.3,2.44-2.49,3.11-1.45.83-3.09,1.07-4.76.58-1.3-.39-2.04-2.07-1.15-3.04Z"/>
  <path class="cls-1" d="M229.05,374.45c-1.22-.78-2.47-1.36-3.96-1.17-1.75.22-3.49.5-5.25.72-1.92.24-3.67.83-4.73,2.57-2.11,3.46-2.52,6.98-.12,10.48.76,1.11,1.53,2.29,2.55,3.15,1.45,1.23,3.25,1.75,5.09,1.63,3.2.26,5.64-1.32,8.06-2.89.68-.44,2.22-2.58,2.48-3.21,1.06-2.57.56-4.97-.71-7.35-.85-1.6-1.88-2.96-3.42-3.94ZM219.9,384.86c-1.69-1.05-2.16-2.8-1.12-4.51.11-.19.22-.38.33-.57,1.54-.17,3.06-.34,4.8-.53.3.14.85.38,1.59.72.25.31.65.82,1.07,1.35.04,3.02-3.72,5.36-6.65,3.54Z"/>
  <path class="cls-1" d="M255.52,358.21c2.57-1.96,3.66-4.46,3.8-7.96.33-1.08-.5-2.27-1.09-3.49-.44-.9-.98-1.82-1.67-2.53-1.12-1.16-2.3-2.41-4.21-1.97-.73.17-1.46.35-2.2.49-1.26.24-2.52.64-3.78.65-3.16.01-5.98,2.76-5.91,5.96.06,2.94,1.35,5.44,3.26,7.48,1.37,1.47,3.31,2.38,5.26,2.96,2.44.74,4.52-.06,6.55-1.6ZM247.21,350.26c.41-.35.88-.74,1.35-1.13h0c.3-.18.59-.39.9-.55.77-.39,1.57-.23,2.08.35.49.55,1.04,1.25.48,2.15-.4.64-.69,1.34-1.05,2.06-.96.18-1.91.33-2.83-.16-1.1-.59-.68-1.71-.92-2.71Z"/>
  <path class="cls-1" d="M284.58,371.3c-.68-.36-1.49-.47-1.87-.59-2.43.1-4.05,1.1-5.58,2.24-.84.62-1.8,1.16-2.19,2.26-.66,1.82-1.38,3.62-2,5.46-.18.52-.18,1.14-.11,1.7.36,2.87,2.31,4.51,4.69,5.69.93.46,2.03.8,3.05.79,2.68-.04,5.12-.9,7.12-2.78,1.63-1.53,3.36-2.86,3.72-5.41.39-2.78-.56-4.94-2.41-6.68-1.23-1.15-2.89-1.86-4.41-2.67ZM281.46,380.85c-.25.42-.93.67-1.47.8-1.42.36-2.05-.22-2.26-2.19.77-.47,1.5-1.09,2.34-1.38.66-.23,1.72-.31,1.92.6.15.67-.16,1.55-.53,2.18Z"/>
  <path class="cls-1" d="M278.24,361.3c.26,0,.54-.07.77-.19.86-.46,1.72-.92,2.54-1.43.89-.55,1.75-1.15,2.7-1.78,1.39-2.25,1.88-4.91,2.45-7.54.05-.23-.06-.51-.15-.74-.16-.45-.41-.87-.53-1.32-.53-2.04-1.38-3.9-2.94-5.38-.26-.24-.51-.57-.82-.66-1.97-.55-3.9-1.05-5.94.02-1.32.69-2.55,1.38-3.49,2.56-.32.41-.82.67-1.23,1-.37.3-.79.57-1.08.94-1.99,2.56-1.36,5.5-.96,8.32.19,1.34,1.04,2.57,1.53,3.88.56,1.51,1.83,2.03,3.21,2.22,1.3.18,2.63.1,3.95.1ZM276.05,349.05c.17-.19.38-.37.5-.59.42-.74,1.01-.77,1.7-.46.4.18.8.35,1.28.56.24.68.62,1.3.64,1.93.06,1.98-.66,3.08-2.48,4.09-.38.21-.81.35-1.24.48-.91.28-1.76-.27-1.98-1.2-.45-1.93.33-3.44,1.57-4.81Z"/>
  <path class="cls-1" d="M262.23,375.64c-.34-3.08-2.37-6.74-6.66-6.77-.69.09-1.41.09-2.06.31-.83.28-1.64.69-2.4,1.14-1.71,1.02-3.73,1.54-4.87,3.46-.53.89-1.09,1.69-1.2,2.75-.14,1.31-.32,2.62-.47,3.93-.04.35-.13.74-.03,1.05.75,2.27,1.44,4.62,3.66,5.95,1.59.95,3.41,1.47,5.2.92,2.72-.83,4.99-2.38,6.94-4.57,1.79-2.02,2.43-4.14,2.04-6.7-.07-.48-.08-.97-.14-1.46ZM254.78,380.15c-.03.12-.14.22-.2.34-1.32,2.62-1.67,2.79-4.55,2.31-1.01-.17-1.85-.9-1.96-1.7-.15-1.15.37-2.13,1.41-2.6.28-.13.58-.21.88-.3.53-.16.81-.48.85-1.05.04-.68-.16-1.44.66-1.88.93-.5,1.87-.82,2.92-.41.08.03.16.08.29.14,1.1,1.84.14,3.48-.29,5.15Z"/>
  <path class="cls-1" d="M218.95,359.49c1.71.74,3.79.69,5.73.84.76.06,1.56-.21,2.31-.45.34-.11.71-.43.86-.75.42-.9,1.08-1.48,1.91-1.96.36-.21.68-.58.91-.94,1.77-2.79,1.64-5.68.39-8.62-.08-.2-.21-.41-.37-.54-1.78-1.44-3.42-3-5.65-3.85-1.76-.67-3.25-.42-4.86.22-2.02.8-3.39,2.29-4.79,3.87-1.25,1.41-1.89,2.85-1.72,4.72.17,1.09.15,2.25.54,3.25.83,2.17,2.84,3.37,4.75,4.2ZM219.73,350.38c.44-.26.89-.54,1.29-.86,1.56-1.28,3.51-.64,3.99,1.35.1.43.12.87.19,1.37-1.07,1.05-2.03,2.01-3.49,2.25-1.01.17-1.9-.14-2.61-.71-1.19-.97-.86-2.51.62-3.39Z"/>
</svg>