<?xml version="1.0" encoding="UTF-8"?>
<svg id="Livello_1" data-name="Livello 1" xmlns="http://www.w3.org/2000/svg" viewBox="0 0 489 489">
  <defs>
    <style>
      .cls-1 {
        fill: #000;
      }

      .cls-1, .cls-2 {
        stroke-width: 0px;
      }

      .cls-2 {
        fill: #fff;
      }
    </style>
  </defs>
  <path class="cls-1" d="M202.49,233.42c-1.21-.63-2.41-1.31-3.65-1.86-.53-.23-1.18-.2-1.91-.3-.68-.25-1.51-.54-2.34-.84-.84-.31-1.68-.63-2.52-.94-1.02-.37-2.05-.72-3.07-1.09-.99-.36-1.97-.75-2.97-1.08-.91-.3-1.89-.42-2.74-.83-1.12-.54-2.31-.88-3.43-1.37-.75-.32-1.48-.82-2.21-1.25-.89-.52-1.77-.77-2.79-.84-.72-.05-1.42-.48-2.09-.86-1.74-.33-3.3-1.04-4.75-2.08-.46-.33-1.18-.3-1.7-.42-2.08-1.12-4.13-2.06-6.49-2.29-1.09-.46-2.22-.93-3.35-1.4-.3.08-.56.14-.93.24-.24-.28-.49-.58-.72-.86-.58-.22-1.17-.44-1.86-.7-.47.73-.33,1.55-.25,2.31.18,1.7.48,3.39.67,5.09.13,1.14.14,2.29.21,3.61.21.18.56.49,1,.88-.23.26-.47.52-.84.94.11,1.33.23,2.81.34,4.18.28.53.51.96.76,1.45.76.1,1.56.09,2.29.32.68.21,1.29.67,1.99,1.06,1.52-.95,3.15-1.98,4.73-2.97.64-.74,1.24-1.44,1.86-2.13.5-.55.5-.89-.1-1.56-.43.28-.87.57-1.35.89-.44-.02-.93-.05-1.54-.08.23-.62.42-1.15.62-1.69-.04-.04-.09-.09-.13-.13.84-.77,1.72-1.51,2.52-2.32.86-.88,1.96-1.03,3.03-.89,1.03.13,2.02.57,2.77.79.7.97,1.27,1.77,1.84,2.56.06-.03.12-.06.18-.09-.06.2-.11.41-.19.68,1.26.92.49,2.28.74,3.5-.37.3-.73.58-1.14.9-.37-.4-.69-.74-1.02-1.09-.37.07-.73.13-1.18.22-.3.4-.64.86-1.11,1.5.2.79-.76,1.3-1.25,2.06-.05-.06-.09-.13-.14-.19-.99.6-1.99,1.18-2.96,1.82-.67.44-1.33.91-1.93,1.44-.51.45-.9,1.03-1.39,1.5-.28.27-.63.55-1,.65-1.07.28-1.91.98-2.86,1.46-.38.19-.76.38-.95.48-.62.57-1.04,1.16-1.61,1.44-1.29.63-2.18,1.71-3.26,2.56-1.21.95-2.41,1.99-3.98,2.52-1.11.37-2.02,1.36-2.86,1.96-.6.36-1.07.58-1.46.9-.91.73-1.76,1.54-2.69,2.25-1.57,1.21-3.19,2.37-5.19,3.85-.43.85-1.72,1.45-2.96,2.12-.51.28-1,.62-1.46.98-.65.51-1.27,1.07-2,1.68-.64.68-1.38,1.45-2.1,2.23-.32.34-.59.72-.92,1.05-.9.9-1.83,1.77-2.71,2.69-1.03,1.07-1.98,2.22-3.05,3.24-1.14,1.08-1.66,2.51-2.44,3.8-.03.05-.06.11-.11.15-1.2.98-1.53,2.54-2.42,3.71-.73.96-1.52,1.88-2.27,2.83-.52.66-1.01,1.34-1.62,2.14.14.8-.19,1.61-.82,2.38-.41.49-.61,1.15-.91,1.74-.17.34-.34.67-.52,1-.09-.03-.17-.05-.26-.08-.3,1.35-.73,2.7-.85,4.06-.09,1.03.23,2.09.33,3.14.13,1.27.22,2.54.34,3.86-.35.11-.6.19-.71.23-.38.72-.72,1.35-1.08,2.03-.75-.39-1.32-.69-1.88-.99-.5.47-1.12,3.09-.88,3.65-.95,1.15-.48,2.92-1.7,3.9-.85.19-1.66.37-2.4.53-1.03-1.18-2.48-.24-3.53-.97-.07.03-.15.05-.22.08,0-.33-.08-.68.02-.98.3-.91.68-1.79,1.02-2.69.15-.39.26-.79.45-1.15.68-1.55,1.36-3.1,2.01-4.57-1.24-1.88-1.38-2.43-.86-3.41-.12-.19-.25-.39-.43-.66.27-.2.53-.4.85-.65.38-1.18.77-2.43,1.18-3.66.06-.17.16-.35.3-.47,1.02-.91,1.27-2.16,1.6-3.4.21-.8.65-1.53,1.08-2.5-.26-.61.08-1.31.55-2.02.29-.43.43-.95.65-1.43.11-.25.19-.57.38-.74.78-.7,1.1-1.65,1.44-2.57.4-1.07.93-2.02,1.78-2.8.24-.22.35-.58.53-.88.51-.85.96-1.73,1.56-2.52.41-.54,1.01-.94,1.53-1.4.07.05.14.1.21.16.06-.26.15-.53.18-.79.03-.28,0-.56,0-.79,1.28-1.28,2.53-2.49,3.73-3.74,1.34-1.4,2.48-3.03,3.99-4.2,1.54-1.19,2.81-2.66,4.34-3.84.91-.7,1.85-1.36,2.82-1.98.38-.24.86-.3,1.16-.39,1.44-1.04,2.74-2.08,4.14-2.96,1.63-1.02,3.36-1.89,5.04-2.82.14-.08.27-.16.4-.25,1.81-1.27,3.61-2.57,5.44-3.81,1.28-.87,2.63-1.64,3.93-2.5,1.09-.72,2.15-1.5,3.2-2.27,1.12-.83,2.23-1.69,3.34-2.54.41-.32.79-.67,1.23-1.03-.89-.92-1.9-.7-2.82-.61-.6.06-1.04-.01-1.47-.55-.05-.31-.12-.71-.18-1.09.24-.3.46-.56.7-.86-.22-.43-.44-.85-.67-1.29.59-.7.7-1.37.14-2.04-1.71.79-3.39,1.58-5.08,2.35-1.66.76-3.6.8-5.23,1.97-.89.18-1.91.38-3.07.61-.22.23-.56.61-.91.98-.03-.08-.07-.16-.1-.24-.92.05-1.84.1-3,.16-.57-.45-1.33,0-2.16.12-1.69.23-3.42.14-5.14.17-.37,0-.75-.02-1.11-.1-1.21-.28-2.38-.13-3.58.12-.53.11-1.17-.23-1.74-.41-.32-.1-.61-.3-.91-.45-.21.44-.35.72-.48,1.01-1.49-.65-7.18-.77-7.89-.74-.3-.07-.6-.13-.89-.21-.73-.22-1.46-.46-2.19-.66-.99-.27-1.99-.47-2.97-.76-.45-.13-.87-.39-1.26-.66-.3-.21-.54-.52-.83-.81-.34-.04-.71-.09-1.08-.14-.59-.65-1.18-1.28-1.83-1.99-.51.93-1.28,1.31-2.51,1.31-.13-.15-.35-.49-.66-.75-.66-.56-1.35-1.07-2.03-1.59-.6-.46-1.21-.91-1.82-1.36-.44-.33-.88-.66-1.33-.98-1.37-.97-2.68-2.01-4.29-2.61-.84-.31-1.65-.75-2.36-1.29-.33-.25-.55-.85-.55-1.29.01-1.98.5-3.82,1.97-5.38,1.07-.1,2.14-.09,3.09.74.46.4,1.1.6,1.61.95.79.55,1.6,1.09,2.29,1.76.93.9,2.08,1.35,3.24,1.82.59.24,1.1.52,1.37,1.18.15.37.56.64.9.99-.19.28-.4.57-.62.89.43.35.62.15.81-.21.4-.78.85-1.53,1.78-1.79.73,1.04,1.71,1.72,2.85,2.15,1.8.68,3.6,1.37,5.43,1.93,1.09.33,2.24.48,3.38.63.98.13,2.02,0,2.88.67.11.08.3.08.45.1,1.44.19,2.88.5,4.33.52,1.36.02,2.72-.24,4.08-.41,1.15-.14,2.28-.33,3.43-.48.81-.1,1.63-.1,2.42-.25.81-.16,1.59-.47,2.39-.67,2.85-.72,5.71-1.41,8.57-2.12.04.08.08.15.12.23.17-.26.35-.53.52-.79.04.08.08.15.13.23.55-.11,1.12-.17,1.65-.35,1.3-.44,2.59-.88,3.85-1.42.53-.22.95-.69,1.35-.99.09-1.72.21-3.37.26-5.02.02-.67-.12-1.35-.13-2.03,0-.63.07-1.26.21-1.89-.4-1.75-.08-3.43.75-5.23.49-.52,1.18-1.02,2.22-.86.35.05.76-.21,1.2-.34v-.86c.87-1.13,2.13-.6,3.15-.95.78-.27,1.57-.54,2.35-.81.73-.25,1.45-.53,2.18-.75.77-.23,1.55-.42,2.32-.62,1.48-.37,2.96-.76,4.45-1.09,1.29-.28,2.59-.55,3.9-.72,2.29-.31,4.59-.52,6.88-.82,2.53-.34,4.95-1.23,7.55-1.27,1.28-.02,2.54-.54,3.82-.79,1.07-.21,2.15-.36,3.32-.55.2-.21.46-.48.58-.59v-5.89c.13-.53.33-1.3.54-2.13-.1-.28-.21-.6-.32-.91,1.56-1.04,1.77-2.55,1.5-4.15.58-.38,1.08-.71,1.5-.98-.15-.94-.27-1.72-.39-2.48,2.63-2.23,5.46-3.72,8.85-4.41.14-.2.37-.52.66-.92.24.22.43.39.58.52,1.41-.4,2.8-.79,4.41-1.25.8-.31,1.82-.71,3.02-1.17.04-.43.08-.94.12-1.44.01-.19-.02-.38.02-.56.61-2.2.59-4.46.36-6.69-.18-1.77.64-3.13,1.44-4.51.83-1.43,2.07-2.46,3.44-3.37,1.22-.81,2.36-1.73,3.6-2.51.57-.36,1.28-.46,1.91-.73,2.35-.98,4.84-1.46,7.31-1.94,1.49-.29,3.02-.33,4.52-.56.7-.11,1.37-.38,2.04-.49.95-.06,1.91-.05,2.84-.19,3.47-.51,6.89-1.35,10.42-1.45,2.65-.07,5.3-.35,7.95-.43,1.71-.05,3.42.17,5.13.12.73-.02,1.41-.11,2.07.28l-.04.02s.03-.03.03-.03c.85.16,1.7.35,2.55.48,2,.3,4,.57,6.01.86.4.06.79.15,1.19.21,1.11.17,2.31.12,3.3.55,1.59.68,3.28.56,4.89,1.01,1.24.35,2.59.3,3.89.46,1.36.17,2.74.25,4.01.87.35.17.8.14,1.18.25.38.11.75.26,1.12.42.39.17.74.46,1.15.57,2.1.58,4.22,1.09,6.32,1.68.47.13.88.45,1.31.72,1.34.83,2.93,1.25,4.01,2.51.09.11.26.19.41.21,1.58.27,2.53,1.54,3.66,2.46.44.35.58,1.22.63,1.86.09,1.33.03,2.68.03,4.02-.07,0-.13,0-.2-.01-.1,1.1-.17,2.19-.31,3.29-.14,1.18-.39,2.34-.5,3.52-.06.63.06,1.27.11,1.97-.13.86-.28,1.8-.41,2.67.11.15.13.23.18.24,1.87.56,3.74,1.12,5.61,1.67,1.81.54,3.64,1.05,5.44,1.62,1.36.43,2.74.84,4.02,1.44,1.04.49,2.15.87,3.03,1.78.83.86,2.01,1.37,3.04,2.03.04-.06.09-.12.13-.18.18.26.35.51.53.77-.05.02-.1.04-.16.06.12.39.24.78.36,1.17.09.29.21.58.26.88.24,1.76.52,3.51.69,5.27.14,1.42.15,2.85.23,4.41.2.15.47.48.8.58.99.3,1.71,1.05,2.69,1.43,1.38.54,2.52,1.64,3.82,2.41.6.35,1.35.45,2.01.73.5.21.95.52,1.39.84.48.25.97.49,1.45.74-.01.04-.03.08-.04.13h1.05c.36.78,1,1.02,1.82,1.06.4.02.79.33,1.19.5.93.42,1.98.69,2.76,1.3.73.57,1.48,1,2.31,1.33,1.12.44,2.25.88,3.37,1.31.23.09.48.15.7.25,2.16.98,4.3,2,6.48,2.94,1.25.54,2.54,1.21,3.85,1.35,1.4.14,2.71.5,3.89,1.08,1.36.67,3.03.67,4.11,2,.4.49,1.24.62,1.87.93.14.07.25.19.48.37-.06.34-.12.72-.19,1.11l-.02.02s-.03.07-.03.11c.03.04.05.08.08.11-.07.23-.13.45-.22.75h.96c.04.49.08.95.13,1.4-.09.05-.17.1-.26.16.39.32.75.7,1.18.93,1.16.62,1.41,1.01.87,2.14-.48.99-.48,2.02-.66,3.02-.15.49-.39.96-.45,1.46-.35,2.67-.65,5.35-.97,8.03-.02.19-.02.38-.04.56-.06.61-.12,1.23-.17,1.84-.08,0-.15,0-.23,0,.12.24.24.48.36.72-.82,1.26-1.64,2.5-2.53,3.86-.75,0-1.53-.09-2.27.02-.8.12-1.59.35-2.34.66-1.55.65-3.16,1.01-4.8,1.37-1.51.33-2.96.94-4.43,1.44-.17.06-.41.19-.43.32-.16.93-.85,1.67-.75,2.73.1,1.03-.17,2.09-.3,3.14-.04.34-.14.66-.24,1.15.29.13.61.28,1,.46-.43.51-.66.79-.92,1.09.2.47.4.94.63,1.49-.27.08-.46.14-.62.2v4.93c-.77,2.21.16,4.56.03,7.01-.07.1-.22.3-.36.5.06,0,.13.02.19.03-.24,3.36-.49,6.72-.73,10.08-.02,0-.03-.01-.05-.02-.11.62-.23,1.24-.33,1.87-.11.68-.11,1.38-.31,2.02-.1.33-.5.65-.84.82-.62.32-1.15.66-1.15,1.49-.7.17-1.38.27-2.01.49-1.47.51-2.92,1.07-4.37,1.63-1.01.39-2.02.81-3.01,1.24-1.73.76-3.45,1.53-5.17,2.31-1.47.67-2.93,1.35-4.34,2-.08.48-.13.79-.2,1.27-.57-.09-1.14-.1-1.65-.27-1.11-.37-2.19-.74-3.27.07-.05.04-.18-.03-.26-.05-.72-.92-1.56-1.65-2.71-1.99-.44-.13-.85-.39-1.22-.66-1.59-1.13-3.12-2.34-4.74-3.41-.83-.55-1.82-.87-2.82-1.17-.14-.27-.29-.54-.42-.79-.88-.4-1.52-1.34-2.63-.96-.17-.19-.27-.38-.42-.45-1.59-.81-1.81-2.14-1.53-3.73.18-.98.27-1.98.27-2.97,0-1.39-.1-2.78-.05-4.15.12-1.13.34-2.27.34-3.4,0-1.87-.13-3.73-.19-5.6-.05-1.47.02-2.95-.15-4.4-.17-1.36.09-2.64.3-3.95.09-.53.01-1.09.01-1.81-1.4.3-2.66.59-3.94.83-.92.17-1.84.29-2.77.42-1.47.21-2.95.39-4.41.65-1.31.23-2.61.53-3.92.81-.6.13-1.2.29-1.78.54-5.02.11-9.73,1.73-14.75,3.07-.09.72-.27,1.56-.29,2.41-.04,1.36-.21,2.78.1,4.08.28,1.18-.15,2.28.08,3.3-.24.55-.53.98-.62,1.46-.21,1.08-.95,1.75-1.79,2.28-.72.46-1.52.75-2.05,1.5-.63.88-1.71.88-2.64,1.17-.55.17-1.07.45-1.6.68-.14.06-.28.21-.41.2-1.12-.11-1.94.6-2.87,1.01-.14.06-.29.16-.43.15-1.35-.05-2.37.67-3.37,1.44h-1.5c.07.72.14,1.35.19,1.99.06.81.14,1.62.15,2.43.01,2.28-.01,4.57-.02,6.85,0,1.91.02,3.82,0,5.73-.03,2.4-.18,4.81-.1,7.2.07,2,.55,3.92,2.23,5.35-.95,1.25-2.44,1.51-3.58,2.49-.45-.66-.82-1.19-1.21-1.76-1.15.03-2.36,0-3.43.75-.23.16-.6.11-.91.12-1.19.07-2.38.03-3.55.21-1.31.2-2.6.59-3.9.88-.36.08-.73.14-1.1.19-1.53.2-3.07.37-4.59.6-.29.04-.56.26-.87.41-2.35-.27-4.52.52-6.71,1.36-.48.64-.76,1.56-2.13,1.54-2.61-2.55-5.4-5.27-8.49-8.28-1.75-1.15-3.11-3.62-5.64-4.15-.64-.47-1.15-.81-1.64-1.2-.87-.7-1.84-1.33-2.55-2.17-.46-.55-.7-1.39-.78-2.14-.2-1.73-.21-3.49-.37-5.23-.14-1.56-.43-3.11-.52-4.67-.1-1.7-.03-3.42-.1-5.12-.05-1.28-.23-2.55-.26-3.83-.03-1.17.08-2.34.08-3.5,0-.8-.05-1.61-.14-2.41-.15-1.36-.33-2.71-.55-4.06-.05-.28-.3-.54-.47-.83v-3.52c.15-2.62.28-5.23-.71-7.55.19-1.16.34-2.14.51-3.23.95-.9,1.88-.03,2.89.14.1.74.19,1.42.28,2.08.28.38.56.75.92,1.24-.45.11-.67.17-.9.23v5.01s-.07,0-.1,0c0,.41,0,.82,0,1.23,0,.13.04.26.02.37-.54,2.94.55,5.79.46,8.7-.02.75-.1,1.49.31,2.17.04.07.04.2,0,.27-.66,1.19-.09,2.38-.01,3.57.1,1.46.2,2.93.2,4.39,0,2.44.03,4.87.41,7.29.26,1.67.35,3.36.55,5.03.08.65.26,1.28.39,1.92.1-.1.19-.2.29-.3.43.61.82,1.25,1.3,1.81,1.13,1.3,2.81,1.81,4.16,2.76,1.08.76,1.94,1.82,2.9,2.75.05-.05.09-.09.14-.14.28.42.51.88.84,1.25.94,1.07,1.85,2.17,3.1,2.91.42.25.81.61,1.1,1.01.73,1.02.98,1.14,2.27.8.44-1.01.77-2.04.15-3.15.1,0,.2,0,.3.01.01-.91.03-1.81.04-2.72,0-.66.02-1.31.02-1.97-.03-2.65-.1-5.3-.11-7.95-.01-3.87.03-7.73.03-11.6,0-1.1-.1-2.2-.05-3.29.05-1.08.28-2.15.36-3.23.06-.89.02-1.8.03-2.7,0-.09-.04-.19-.03-.28.48-3.04-.27-6.08-.03-9.12.07-.88-.47-1.74-.12-2.66.14-.35.17-.75.27-1.25-.29-.16-.68-.43-1.11-.6-.81-.32-1.63-.62-2.47-.85-1.1-.31-2.23-.55-3.34-.83-.23-.06-.47-.1-.68-.2-1.5-.66-2.95-1.5-4.51-1.95-1.15-.33-2.24-.84-3.4-1.1-1.13-.26-2-.98-3.05-1.34-1.08-.37-2.18-.71-3.24-1.06-1.69-.96-3.37-1.95-5.08-2.88-.62-.34-1.32-.53-1.98-.81-.35-.14-.72-.25-1.01-.48-.79-.61-1.68-.93-2.66-1.04-.09,0-.21-.01-.27-.07-.94-.93-2.1-.91-3.28-.68-.15-.25-.26-.42-.37-.59-.47-.1-.91-.2-1.46-.32-.06.23-.17.46-.17.68-.02,2.62-.01,5.24-.02,7.87,0,.69-.04,1.38-.04,2.07,0,1.49-.01,2.99,0,4.48.01,1.93.11,3.86.04,5.79-.04.98-.37,1.95-.62,3.21.24.53.59,1.32.93,2.06.18,1.64-.21,2.98-1.81,3.78-.43-.07-.85-.13-1.13-.18-1.74.79-3.37,1.54-5.01,2.27-.2.09-.41.14-.62.2q-1.38.43-1.91,1.88c-1.02.37-2.12.77-3.24,1.18-.53.31-1.1.65-1.72,1.01-.54-.56-1.14-.69-1.85-.29-.19.11-.48.02-.73.04-.36.03-.72.07-1.27.13-.51-.27-1.22-.64-1.95-1.03-.08-.79-.34-1.43-1.34-1.47-.32.17-.71.37-1.06.55-.69-.31-1.38-.58-2.04-.91-.55-.28-1.07-.64-1.62-.93-.38-.2-.78-.39-1.2-.49-1.51-.37-3.03-.71-4.55-1.03-.35-.07-.73.03-1.27.06-1.13-.46-1.11-1.86-1.8-2.75,1.36-1.76,1.03-3.52.19-5.29-.08-.16-.17-.35-.16-.53.06-1.03.16-2.06.23-3.09.09-1.3.16-2.61.25-3.98-.17-.14-.38-.32-.59-.49-.01-.06-.04-.13-.04-.18.06-.4.21-.81.17-1.19-.12-1.04-.05-2.07-.03-3.11.01-.6-.25-1.2-.3-1.81-.03-.4.09-.81.23-1.21v-1.4c-.97-1.39-.04-2.86-.26-4.45-.64-.61-.57-1.46-.12-2.39-.11-.27-.23-.55-.35-.83.06,0,.12-.01.18-.02v-3.49s-.04,0-.05,0c-.04-1.01-.15-2.02-.1-3.03.06-1.31-.2-2.53-.7-3.73-.14-.33-.16-.71-.26-1.17-.46-.17-.99-.37-1.52-.57.17-1.15,1.27-1.01,1.85-1.64,2.04.86,4.06,1.72,6.09,2.58.04-.09.07-.17.11-.26.5.79,1.25.89,2.08,1.07,1.38.29,2.84.39,4.11,1.12.25.15.6.12.96.18.12.22.24.46.33.64,3.55.95,7.03,1.88,10.51,2.82-.02.05-.05.1-.07.15.87.39,1.74.79,2.63,1.16,1.03.43,2.08.85,3.12,1.26.22.09.46.14.69.19.27.06.59.02.82.15,1.32.74,2.82.76,4.24,1.09.92.22,1.8.61,2.7.93.64.23,1.29.44,1.93.7.24.1.44.31.71.5,1.05-.48,1.97.11,2.86.56.73.36,1.43.68,2.24.86.98.22,1.88.78,2.82,1.2.36.16.72.35,1.08.52.72.35,1.44.72,2.17,1.04.27.12.6.11.93.17,1.17.99,2.61,1.43,4.1,1.8,1.04.26,2.01.78,3.01,1.18.52.21,1.03.42,1.54.64,1.27.55,2.5,1.22,3.8,1.65,1.86.61,3.77,1.05,5.66,1.56.65.18,1.32.32,1.95.56,1.42.53,2.78,1.32,4.25,1.61,2.09.42,3.87,1.57,5.88,2.13.41.11.83.17,1.3.26.58-1.13.5-2.27.59-3.37.11-1.34.12-2.69.23-4.02.04-.47.26-.92.46-1.56.06-.33.21-.85.22-1.37.02-.7-.08-1.4-.11-2.1-.01-.25,0-.5.03-.75.1-.92-.18-1.27-1.11-1.3-.46-.01-.93.06-1.5.1-.18-.1-.45-.25-.7-.39h-1.52c.18-.31.31-.53.53-.9-.32-.25-.61-.58-.97-.73-1.41-.58-2.84-1.11-4.27-1.63-.77-.28-1.56-.51-2.34-.76.02-.08.03-.15.05-.23-.37.04-.74.08-1.17.13-1.06-.85-2.32-1.29-3.71-1.47-.76-.1-1.5-.32-2.12-.87-.86-.77-1.99-.96-3.04-1.36-1.35-.51-2.64-1.17-3.95-1.77-.2-.09-.36-.28-.56-.33-2.4-.6-4.64-1.65-6.98-2.43-1.93-.65-3.88-1.23-5.82-1.86-.38-.12-.78-.27-1.08-.52-1.14-.94-2.64-1.14-3.88-1.89-.51-.31-1.17-.41-1.78-.54-1.33-.28-2.57-1-3.99-.87h.01ZM167.47,217.24s-.08-.04-.08-.04c0,0,.05.01.09.03.07.09.14.18.21.27.05-.06.1-.12.15-.18-.12-.03-.25-.06-.37-.08ZM230.72,240.37h0c-.96-1.46-2.59-.87-3.88-1.32,1.12.99,2.55,1.02,3.89,1.32ZM375.08,221c-.26-.21-.48-.51-.77-.61-1.28-.47-2.57-.88-3.86-1.31-.36-.12-.77-.16-1.06-.36-.82-.56-1.67-.85-2.68-.76-.27.03-.57-.2-.85-.34-.38-.2-.77-.4-1.12-.65-.69-.49-1.39-.89-2.27-.98-.5-.05-1.05-.21-1.46-.5-1.35-.94-2.9-1.35-4.43-1.82-.47-.15-.93-.37-1.37-.61-1.96-1.09-3.91-2.17-5.85-3.3-.83-.48-1.61-1.04-2.41-1.57-.71-.46-1.4-1-2.15-.6-3.36-1.22-6.19-3.26-9.51-4.5-.1,1.26-.24,2.31-.24,3.36-.01,1.41-.37,2.72-.94,3.98-.18.41-.5.78-.8,1.12-.35.38-.76.7-1.13,1.05-.18.17-.32.4-.53.51-1.45.79-2.88,1.64-4.39,2.29-1.32.56-2.61,1.21-4.11,1.33-1.17.09-2.34.35-3.49.64-1.57.39-3.12.87-4.68,1.31-.63.18-1.37.21-1.86.58-.92.68-1.96.86-3,1.13-.39.1-.81.11-1.19.22-1.79.51-3.6.98-5.36,1.58-1.83.62-3.75.36-5.61.71-1.2.22-2.43.25-3.64.42-.72.1-1.43.31-2.14.47l-.04-.16c-.49.26-.99.52-1.48.78l-.04-.21c-1.01.13-2.01.31-3.03.39-2.79.22-5.57.43-8.36.57-1.43.07-2.87.06-4.3-.01-2.95-.15-5.9-.2-8.83.29-.15.02-.31-.02-.47-.01-.69.01-1.39-.04-2.06.05-2.05.29-4.1.51-6.15.01-.14-.03-.3,0-.46,0-.99,0-1.98.03-2.96-.03-1.65-.11-3.29-.31-4.94-.41-.66-.04-1.27-.07-1.88-.44-.42-.26-1-.25-1.52-.32-.99-.14-1.99-.2-2.96-.4-1.05-.22-2.07-.56-3.1-.84-.01.04-.02.08-.04.12-.24-.2-.47-.4-.69-.58-.16-.01-.29,0-.41-.04-1.37-.35-2.84-.22-4.16-.86-.61-.29-1.29-.55-1.95-.58-.71-.03-1.35-.15-1.94-.52-.64-.41-1.32-.62-2.1-.66-1.03-.06-2.06-.2-3.06-.46-1.04-.27-2.03-.73-3.04-1.11-.26-.1-.51-.19-.77-.28-1.24-.46-2.68-.43-3.58-1.46-.42,0-.75.08-1.03-.01-1.44-.49-2.88-1.01-4.3-1.56-1.24-.48-2.47-.98-3.67-1.54-.54-.25-.99-.68-1.61-1.11-1.15-.07-2.42-.35-3.45-1.15-1.17-.38-2.38-.57-3.35-1.14-1.38-.81-2.9-1.18-4.36-1.73-1.1-.42-2.18-.89-3.07-1.71.14-.38.26-.71.34-.95-.06-.35-.16-.62-.16-.89,0-.91.09-1.82.04-2.72-.06-1-.22-1.99-.36-3.11-.5.2-.89.36-1.29.51-.29.11-.59.29-.88.29-1.23.01-2.41.04-3.65.37-2.25.6-4.59.9-6.9,1.25-1.88.28-3.78.45-5.68.68-.6.07-1.21.17-1.81.25-.57,0-1.17-.09-1.74.02-1.29.24-2.55.59-3.83.88-.91.21-1.83.37-2.73.61-1.7.46-3.39.98-5.09,1.45-.38.1-.8.05-1.18.16-.68.19-1.34.44-2.01.65-.35.11-.71.19-.89.23-.23.74-.42,1.34-.56,1.78-.75.21-1.28.36-1.91.53.22.5.36.8.41.92.47.25.83.34,1.03.57.42.49.91.67,1.53.79,1.13.2,2.26.49,3.36.83.79.25,1.52.64,2.28.97.02-.04.04-.09.06-.13.37.34.73.67,1.1,1.01.03-.05.06-.11.09-.16.64.34,1.24.79,1.92,1,1.99.61,3.72,1.81,5.72,2.44,1.3.41,2.87.55,3.85,1.79,1.14.16,1.98.83,2.79,1.59.59.56,1.24,1.05,1.72,1.45,1.02.04,1.93.01,2.83.13.88.11,1.75.37,2.77.6.04.05.21.23.37.41.03-.08.06-.15.08-.23.48.13,1.04.14,1.4.42.47.37.94.38,1.46.46.77.11,1.58.27,2.26.62,1.08.56,2.06,1.29,3.11,1.97,1.34-.65,2.44.55,3.72.43.63,1.23,2.01.67,2.94,1.35.11.17.26.41.41.64,1.2.14,2.34.44,3.49.72.24.06.52.09.74.02.93-.3,1.8,0,2.65.25,1.06.32,2.08.74,3.12,1.12.04-.07.07-.15.11-.22.46.41.87.88,1.38,1.21.59.38,1.24.66,1.88.95.81.36,1.74.54,2.41,1.07.74.59,1.43.79,2.26.59,1.07.72,2.08,1.35,3.38,1.57,1.15.2,2.23.8,3.61,1.32,2.56.53,5.47.94,8.22,2.49.36-.1.87-.24,1.41-.38.2.19.4.38.61.56,1.01.3,2,.68,2.89,1.21.93.55,2.29-.07,2.84,1,.61.18,1.07.33,1.54.45.51.13,1.02.23,1.53.34.32.06.66.16.98.14.88-.06,1.55,1.1,2.48.38.22.25.4.45.63.69,1.1-.07,2.23-.05,3.3-.26.79-.15,1.5-.37,2.17.22.3-.19.56-.36.82-.53.01.06.03.11.04.17,1.14-.12,2.28-.24,3.61-.38,1.08-.84,2.55-.67,3.97-.72.14-.16.27-.32.37-.42.55.04,1.02.13,1.48.09,1.23-.13,2.46-.26,3.68-.49,1.03-.2,2.03-.54,3.04-.81,1.47-.39,2.92-.89,4.36-.81,2.6-.36,5.09-.71,7.58-1.06.29-.04.6.07.9.04,1.3-.13,2.61-.3,3.91-.47.4-.05.8-.13,1.2-.2,1.31-.23,2.61-.46,3.92-.69,1.03-.18,2.01-.62,3.08-.51.36.04.83.21,1.06.05,1.13-.78,2.5-.73,3.73-1.15.49-.17.99-.31,1.49-.46.01.03.02.06.03.1.23-.16.46-.32.77-.54,2.4-.33,4.88-.68,7.63-1.06.34-.34,1-.49,1.82-.38.66.09,1.37-.03,2.03-.19,1.39-.34,2.75-.77,4.07-1.14.34.17.58.29.83.42.34-.15.65-.3.96-.44.69.02,1.39-.01,2.01-.26,1.43-.58,2.71-1.65,4.42-1.1.13.04.33-.01.45-.09,1.07-.65,2.28-.52,3.45-.65.57-.06,1.12-.22,1.69-.33,1.15-.29,2.33-.43,3.45-.77,1.53-.47,3.08-.66,4.66-.79.64-.05,1.26-.31,1.89-.46.24-.06.49-.08.73-.13,1.5-.27,2.99-.55,4.49-.82.18-.03.38-.07.56-.05,1.6.24,3.11.15,4.28-1.01.34.02.59.09.83.05,1.01-.14,2.02-.3,3.03-.47.21-.04.4-.14.61-.21,1.31-.44,2.5-1.17,3.96-1.29,1.16-.1,2.28-.62,3.44-.88,1.6-.36,3.22-.66,4.83-.99,1.95-.39,3.83-1.42,5.92-.75.12.04.29-.08.44-.12.01-.02.04-.04.04-.06,0-.04-.02-.09-.04-.13ZM327.56,212.53c1.23.26,1.85-.93,2.84-1.38.12-.06.2-.24.27-.37.34-.66.72-1.31.98-1.99.17-.45.19-.97.24-1.46.02-.21-.1-.47-.02-.64.74-1.47.13-3,.18-4.5.04-1.29-.22-2.6-.22-3.89,0-1.61,0-3.2-.5-4.76-.09-.29-.09-.62-.08-.93.02-1-.27-1.92-.68-2.77-.46.33-.85.64-1.26.9-1.7,1.04-3.45,1.97-5.35,2.59-.41.13-.76.48-1.17.56-1.41.28-2.83.5-3.95,1.48-.87.04-1.72.17-2.52.43-1,.32-1.94.88-2.96,1.11-1.39.31-2.82.4-4.24.59-1.99.27-3.99.56-5.98.83-1.51.21-3.02.52-4.54.59-2.91.13-5.82.14-8.73.16-1.21,0-2.42-.16-3.63-.13-.85.02-1.7.24-2.54.36-.41.12-.86.15-1.28.05-.41-.09-.8-.31-1.19-.47q-1.39.64-3.09.36c-.09-.02-.19-.03-.28-.03-2.97,0-5.93.04-8.89-.04-2.17-.06-4.33-.3-6.49-.45-.53-.04-1.06-.01-1.59-.02-.49,0-.99.02-1.48-.02-1.26-.11-2.53-.24-3.79-.37,0,.04,0,.08-.01.13-.42-.19-.83-.38-1.25-.57-1.44.45-2.87.23-4.25,0-1.37-.23-2.92.19-3.99-.91-1.23.15-2.29-.02-3.29-.55-.21-.11-.47-.16-.71-.18-1.15-.13-2.3-.18-3.44-.38-1.48-.26-2.94-.63-4.41-.93-.18-.04-.42-.06-.56.03-1.23.77-2.44-.02-3.62-.12-1.48-.12-2.92-.66-4.38-1.05-1.56-.42-3.14-.79-4.67-1.32-1.81-.62-3.57-1.33-5.49-1.63-2.07-.32-3.99-1.17-5.74-2.3-2.2.09-3.88-1.51-5.92-1.85-.51-.32-1.05-.58-1.61-.81-1.09-.46-2.26-.72-3.21-1.49-.32-.26-.71-.44-1.09-.67-.2.31-.33.42-.36.56-.16.66-.26,1.33-.44,1.98-.26.99-.67,1.96-.81,2.97-.16,1.15-.54,2.33-.18,3.13-.08,1.69-.14,3.03-.21,4.37.08,0,.15,0,.23,0,.22.2.43.4.8.74-.38.22-.65.38-.9.53.29.35.48.59.8.97-.43.18-.76.31-1.29.52-.16,1.74.21,3.62.15,5.28.93,1.73,2.55,1.75,4.07,2.26.43.54.91,1.19,1.93.95.23-.06.55.36.85.51.49.24,1,.45,1.51.64.2.07.45,0,.65.09,1.03.41,2.05.83,3.07,1.28.29.13.53.5.81.52,1,.07,1.76.54,2.43,1.19.63.16,1.22.39,1.81.63.75.31,1.47.69,2.24.91,1.22.36,2.49.54,3.69.93,2.16.7,4.29,1.51,6.43,2.28.37.19.8.2,1.22.29.82.17,1.63.38,2.45.55,1.36.29,2.75.48,4.08.86,1.31.38,2.56.96,3.84,1.44.2.07.42.09.63.14,1.27.28,2.53.55,3.8.84.45.11.88.31,1.33.44.83.25,1.67.48,2.51.71,7.89,1.2,15.82,1.82,23.76.69.48.08.93.24,1.39.23.83-.02,1.65-.17,2.48-.21,1.4-.07,2.79-.07,4.19-.13.62-.03,1.24-.18,1.86-.18,1.37,0,2.74.1,4.1.12.61,0,1.23-.07,1.84-.09.4-.02.81.04,1.2-.02,1.54-.21,3.07-.63,4.61-.63,1.05,0,2.03,0,3.01-.33,2.04-.44,4.17-.5,6.27-1.35.33.12.83.29,1.2.42,1.74-.44,3.36-.85,4.98-1.26,1.38-.35,2.83-.53,4.13-1.09,1.01-.44,2-.8,3.06-1.06.63-.15,1.2-.57,1.94-.95,1.08.08,2.33-.03,3.42-.86.15-.11.3-.26.47-.29,1.33-.23,2.66-.42,3.98-.64.5-.08,1-.2,1.49-.3,1.45.24,2.07-1,3.04-1.75ZM332.98,235.4c-.45.08-.89.17-1.34.25-.55.1-1.11.19-1.66.28-.99.15-1.99.25-2.97.46-1.42.31-2.82.72-4.23,1.06-.7.17-1.41.28-2.11.43-1.46.3-2.92.63-4.39.91-.58.11-1.17.12-1.76.19-1.2.15-2.43.21-3.49.92-.13.09-.37,0-.55.03-.39.07-.83.07-1.15.27-.92.58-1.85.91-2.81.42-.78.33-1.44.76-2.16.89-3.04.53-6.1.93-9.14,1.45-2.36.4-4.78.51-7.09,1.27-.25.08-.56.02-.83.05-.31.03-.61.06-.92.11-.94.18-1.88.41-2.83.56-2.1.35-4.21.62-6.3,1-1.57.29-3.14.61-4.65,1.1-1.51.49-3.18.18-4.6,1.03-.12.07-.31.02-.46.05-1.51.23-3.02.45-4.52.69-1.78.29-3.55.65-5.34.88-.66.09-1.12.28-1.42.93.14.21.29.43.46.68-.38.53-.9.98-1.06,1.54-.36,1.23-.54,2.52-.81,3.78-.1.49-.3.97-.3,1.45,0,1.7.08,3.4.12,5.1,0,.19,0,.38-.02.56-.18,1.22-.36,2.43-.54,3.65l.28-.02c.24.41.48.82.7,1.19-.24.39-.4.65-.57.91.04,0,.09,0,.13.01-.04.44-.08.89-.14,1.46.14.09.42.27.63.41.48-.15.87-.39,1.24-.38,1.61.05,3.13-.33,4.61-.91,1.59-.63,3.3-.77,4.91-1.41,1-.4,2.11-.63,3.16-1.03,1.4-.53,2.87-.86,4.29-1.33,1.32-.43,2.71-.55,4-1.14.67-.31,1.53-.21,2.29-.35,1.15-.21,2.3-.47,3.45-.71.73-.15,1.56-.12,2.16-.47,1.11-.64,2.33-.32,3.47-.64.72-.2,1.51-.16,2.27-.23.1.07.19.03.27,0,1.19-.52,2.28-1.26,3.65-1.39,1.39-.14,2.8-.35,4.12-.79,1.07-.36,2.16-.46,3.24-.64.97-.16,1.95-.24,2.93-.37.55-.07,1.1-.16,1.8-.26,1.38-1.32,3.51-.23,4.91-1.11,1,0,1.81.14,2.55-.03,1.63-.36,3.22-.92,4.85-1.3.95-.22,1.94-.26,2.92-.37.53-.08,1.1-.42,1.58-.33,1.13.21,2.06-.11,2.95-.76,1.15.64,2.34.37,3.35-.08,1.38-.61,2.81-.53,4.21-.65.7-.06,1.39.02,2.14-.17,2.05-.52,4.19-.74,6.24-1.25,1.29-.32,2.68-.11,3.9-.8.34-.19.78-.19,1.17-.28,1.45-.3,2.91-.6,4.36-.9.73-.1,1.44-.23,2.16-.39.43-.09.83-.26,1.26-.35,1.31-.25,2.63-.48,3.94-.72.21-.04.42-.12.62-.21,1.27-.56,2.43-1.44,3.95-1.2.22.03.48-.11.72-.2.87-.31,1.72-.66,2.61-.92.95-.28,1.94-.46,2.9-.71.87-.23,1.8-.38,2.57-.8.66-.36,1.3-.61,2.02-.75.67-.13,1.35-.26,1.96-.55.7-.33,1-.93.58-1.7,0-.02.01-.05,0-.04.19-.15.36-.28.5-.39q-.2-2.08,1.03-3.45c0-.19.04-.42,0-.62-.25-1-.11-1.95.12-2.95.24-1.03.14-2.13.18-3.2-.06,0-.12-.01-.18-.02.18-.21.36-.42.41-.48.14-.95.25-1.71.37-2.48.1-.7-.22-1.4-.74-1.44-.84-.06-1.69-.12-2.52-.04-1.44.14-2.87.41-4.32.59-.52.06-1.07-.04-1.58.05-2.64.48-5.27,1.02-7.91,1.5-.67.12-1.37.07-2.05.17-2.08.28-4.08,1.05-6.22,1.05-.12,0-.25.03-.37.06-1.31.29-2.61.57-3.92.86-.48.11-.95.27-1.44.36-.73.14-1.47.24-2.2.35-.28.04-.55.08-.83.1-.58.04-1.17.05-1.75.12-.55.07-1.1.19-1.64.3-.91.19-1.81.37-2.71.58-.78.18-1.55.57-2.32.55-1.57-.04-2.91.56-4.38,1.08ZM241.46,168.86c.58.55,3.03,1.24,4.15,1.3,1.04.05,2.09.17,3.12.35,1.78.32,3.54.75,5.32,1.08.7.13,1.42.16,2.14.22.77.07,1.55.14,2.32.17,1.24.05,2.5-.05,3.72.11,1.56.2,3.08.67,4.64.9,1.38.2,2.79.21,4.18.36,1.23.13,2.46.44,3.69.5,1.86.09,3.73.05,5.6.04.31,0,.61-.11.92-.16.24-.04.49-.12.73-.11.83.03,1.65.12,2.48.12.55,0,1.11-.2,1.64-.15,2.8.3,5.56-.09,8.31-.45,2.28-.3,4.53-.8,6.79-1.21.49-.09.98-.19,1.46-.33,1.19-.36,2.38-.75,3.57-1.13,1.9-.61,3.35-2.54,3.43-4.55-1.04-.95-1.09-1.57-.03-2.58-.9-.79-1.73-1.63-2.68-2.32-.85-.62-1.82-1.06-2.72-1.61-.69-.42-1.32-.95-2.03-1.31-.51-.26-1.18-.21-1.69-.47-1.85-.94-3.82-1.51-5.81-2.06-1.27-.35-2.59-.51-3.76-1.28-.71-.47-1.67-.54-2.53-.79,0-.06.01-.12.02-.19-.45.19-.91.39-1.34.57-2.55-.52-5.07-1.03-7.73-1.57-.04.03-.24.17-.27.19-.74-.27-1.32-.59-1.93-.68-1.84-.27-3.69-.42-5.53-.68-2.05-.29-4.01-.98-6.14-.95-1.35.02-2.71-.18-4.09-.12-2.71.11-5.42,0-8.14.04-.96.02-1.92.24-2.88.37-1.67.22-3.35.41-5.01.66-1.63.24-3.26.58-4.89.82-1.79.26-3.61.38-5.39.69-1.9.33-3.77.86-5.67,1.2-2.58.46-4.96,1.36-7.24,2.64-1.62.91-2.51,2.44-3.69,3.73-.15.17-.23.46-.24.7-.06,1.17.83,2.43,1.99,2.79,1.62.49,3.24.95,4.88,1.36,1.28.32,2.59.55,3.89.84.21.05.39.17.59.26.51.23.99.55,1.52.66,1.89.39,3.85.48,5.69,1.11,1.09.37,2.17.78,3.34,1.21.37-.08.85-.18,1.31-.28ZM218.01,165.73c-.43,1.03-.8,1.9-1.07,2.55-.13,1.92-.24,3.63-.35,5.35-.17.25-.35.5-.49.7,0,1.13.29,2.05,1.2,2.68.73.51,1.49.98,2.22,1.49.99.7,1.95,1.47,2.96,2.14.59.39,1.28.65,1.92.97.04-.06.07-.13.11-.19.21.26.42.53.5.64,1.11.2,2.06.31,2.98.54.65.17,1.26.49,1.89.75.65.27,1.29.56,1.93.83.59.25,1.19.49,1.79.71.14.05.35-.02.45.06,1.04.83,2.26.84,3.47.93.5.22,1.01.39,1.53.48.71.13,1.43.14,2.13.3.98.22,1.92.6,2.91.79,2.01.39,4.08.4,6.11.65.97.12,2.13-.44,2.68.46,1.23.18,2.24.28,3.24.48.44.09.84.43,1.28.5,1,.18,2.02.28,3.04.38.93.09,1.86.13,2.79.2,1.49.11,2.99.27,4.48.33.74.03,1.48-.19,2.22-.15,1.56.08,3.11.3,4.67.36.95.04,1.9-.16,2.85-.18,1.6-.04,3.18.23,4.82,0,2.1-.28,4.25.14,6.39-.32,1.42-.31,2.91-.31,4.37-.45.16-.01.35.03.46-.05,1.44-1.01,3.16-.82,4.76-1.09,1.81-.31,3.63-.43,5.41-1.04,1.75-.59,3.36-1.3,4.76-2.55.07-.57-.02-1.25.25-1.72.35-.62.25-1.2.22-1.81-.02-.46-.14-.91-.13-1.36,0-1.06.19-2.15.05-3.19-.21-1.55.07-3.02.48-4.69l-.57-.65c-.06.11-.13.22-.19.33-2.05.65-4.08,1.36-6.16,1.91-1.26.33-2.53.97-3.9.39-.1-.04-.25.01-.37.04-1.38.28-2.75.66-4.15.82-1.73.2-3.48.22-5.22.3-2.26.11-4.53.31-6.79.29-3.75-.04-7.5-.17-11.25-.38-1.85-.1-3.69-.48-5.54-.73-.4-.05-.81-.08-1.21-.13-1.42-.2-2.84-.47-4.27-.6-2.08-.19-4.18-.18-6.25-.43-2.31-.28-4.6-.79-6.9-1.16-1.97-.32-3.96-.58-5.93-.88-.43-.06-.88-.1-1.29-.26-2.62-.98-5.35-1.51-8.11-1.87-.55-.07-1.11-.15-1.65-.29-1.68-.45-3.34-.93-5.02-1.39-1.73-.47-3.55-.59-5.19-1.41-.4-.2-.88-.27-1.3-.39ZM268.61,294.96c-.04-1.18-.06-2.17-.11-3.17-.12-2.7-.26-5.41-.38-8.11-.04-.87-.02-1.75,0-2.63.01-.49.08-.98.15-1.71-.85-.69-.32-1.96-.61-3.08-.17-.13-.37-.28-.69-.52.09-1.57.18-3.19.28-4.92-.3.09-.68.17-1.04.3-.73.27-1.43.66-2.18.85-1.58.4-3.18.72-4.78,1.05-1.25.26-2.5.54-3.76.7-.85.1-1.73.01-2.6,0-1.61-.04-2.44-.88-2.47-2.5,0-.4,0-.81,0-1.27-1.49-1.27-3.42-1.56-5.26-2.46-.29.61-.74,1.17-.83,1.78-.32,2.32-.5,4.63-.34,7.02.2,2.89.61,5.92-.8,8.72-.1.21.02.54.07.81.08.39.28.76.29,1.14.04,1.21.03,2.42,0,3.64-.02.9-.1,1.8-.15,2.71,0,.15-.05.33,0,.46.56,1.49.15,3.03.26,4.55.12,1.68.03,3.37.03,5.2-.21.12-.49.28-.76.44.09.03.19.06.28.1.11,1.23.42,2.49.29,3.69-.19,1.83,0,3.6.23,5.39.12.92.16,1.85.26,2.99.93.03,1.82.16,2.69.07,1.01-.1,2-.41,3.01-.59,1.76-.33,3.53-.64,5.3-.96.62-.07,1.27-.03,1.89-.16,1.92-.4,3.83-.87,5.75-1.32.18-.04.41-.06.52-.18.58-.63,1.33-.62,2.09-.59.6.02,1.19.09,1.78.06.42-.02.84-.16,1.35-.27-.17-.92-.41-1.64-.42-2.36-.03-1.23.08-2.46.13-3.69.03-.67.09-1.34.1-2,.02-1.45,0-2.9.02-4.34.02-1.15.08-2.3.16-3.45.04-.5.17-1,.23-1.37ZM348.56,254.04c-.91.33-1.66.61-2.09.77-2.38.47-4.47.83-6.53,1.3-.97.22-1.23.84-1.06,1.77-.37.97-.69,1.8-1.02,2.67.13.5.27,1.05.42,1.65-.85,1.56.33,3.46-.53,4.71,0,1.56.06,2.79-.02,4-.09,1.31-.31,2.62-.48,3.93-.04.64-.32,1.32-.18,1.88.34,1.34.18,2.59-.34,3.85.54.68.59,1.38.44,2.22-.21,1.21-.16,2.47-.23,3.85-.13.16-.37.44-.6.71-.09,1.72.36,3.43-.16,5.1-.02.06,0,.12,0,.19.01.96.89,1.96,1.84,2.03.72.05,1.45.07,2.16,0,.76-.07,1.49-.19,2.21-.61,1.03-.6,2.2-.96,3.31-1.43.29-.12.57-.26.85-.4,1.3-.65,2.55-1.47,3.92-1.89,1.07-.33,2.12-.61,3.06-1.22.05-.03.12-.03.18-.06.55-.25,1.11-.51,1.66-.77.39-.18.85-.2,1.24-.38.96-.44,2.01-.88,2.33-2.01.33-1.16.49-2.36.77-3.54.23-.99.55-1.97.78-2.96.13-.54.36-1.2.17-1.64-.5-1.18-.2-2.26-.02-3.38-.12-.46-.16-.92-.15-1.38,0-.75.06-1.5.07-2.25.03-1.77.05-3.54.07-5.31,0-.12,0-.24,0-.36-.04-1.52-.07-3.03-.11-4.55-.02-1,.39-2.06-.32-2.98.23-1.85.62-3.69.49-5.65-1.99.38-3.85.72-5.71,1.08-1.4.27-2.84.42-4.19.86-.81.26-1.53.45-2.24.2ZM245.34,190.24c-1.54-.36-2.93-.69-4.33-.99-.39-.09-.81-.07-1.2-.14-1.88-.35-3.6-1.24-5.56-1.39-2.1-.16-3.97-1.18-5.4-2.13-1.16-.26-1.97-.43-2.78-.63-1.01-.25-2.01-.52-3.01-.78-.04.07-.08.15-.12.22-.13-.24-.25-.48-.28-.53-.83-.46-1.51-.83-2.19-1.2.03-.06.05-.11.08-.17-.43-.05-.86-.1-1.39-.16-.26-.88-.93-1.26-1.79-1.22-1.33-1.22-2.62-2.39-3.92-3.59.02-.46.05-.94.06-1.31-.46-.21-.8-.37-1.24-.57-.73.14-1.59.3-2.45.48-.73.15-1.46.3-2.16.52-.98.31-1.93.71-2.9,1.05-1.61.56-3.36.78-4.72,1.97-.48.42-.63.85-.42,1.4.26.68.63,1.27,1.38,1.56,1.18.46,2.34.98,3.51,1.46.79.33,1.58.64,2.36.95l.1-.2c.25.23.5.46.78.73,1.41-.06,2.83-.05,3.46,1.18.84.37,1.4.61,1.97.86l-.07.19c.22,0,.45-.06.64,0,2.35.77,4.86,1.07,7.08,2.25.2.11.49.04.74.09.37.06.73.14,1.09.23,1.22.34,2.43.71,3.66,1.02.75.2,1.62.16,2.27.51,1.14.61,2.38.54,3.55.83.36.09.71.22,1.06.32.33.09.65.22.99.24,1.52.11,3.05.19,4.58.28.06,0,.11.05.2.08.17.18.36.38.59.62,2.41-.24,4.73.56,7.28.78.7.43,6.21,1.01,7.58.79.76.14,1.52.22,2.29.27.56.03,1.13-.02,1.68.03,1.05.09,2.1.27,3.15.34,1.58.11,3.17.16,4.76.23,1.03.05,2.06.06,3.09.13,1.27.09,2.54.29,3.81.34.79.03,1.59-.11,2.39-.19.34-.04.67-.18,1-.17,3.01.13,6.01.48,9.04.08,2.13-.29,4.28-.02,6.41.27.74.1,1.56.24,2.24.03,2.31-.72,4.72-.17,7.04-.69.98-.22,2.01-.27,3.01-.41,1.2-.17,2.4-.34,3.6-.52.42-.06.85-.15,1.26-.25,1.48-.36,2.95-.72,4.42-1.11,1.68-.45,3.39-.83,5.02-1.42,1.71-.63,3.36-1.4,5.21-1.58.2-.02.41-.14.58-.25.99-.67,1.98-1.35,2.96-2.03-.05-.04-.1-.09-.15-.13.05-.47.1-.94.15-1.45-1.15-1.33-2.85-1.66-4.41-2.23-2.96-1.09-6.11-1.56-8.98-2.94-.54-.26-1.25-.19-1.96-.29,0,.66.07,1.14-.01,1.59-.14.79-.13,1.81-.62,2.28-.65.63-1.41,1.17-1.94,1.94-.08.11-.25.19-.4.23-1.06.31-1.97,1.09-3.17,1.01-.21-.01-.43.23-.65.32-.46.2-.93.39-1.33.56-.64.19-1.18.4-1.75.5-.61.11-1.25.08-1.87.19-2.97.5-5.93,1.07-8.91,1.53-1.66.25-3.34.37-5.01.45-.68.03-1.38-.21-2.13-.35-.41.56-.99.8-1.75.54-.22-.08-.5,0-.75.01-1.27.11-2.54.27-3.82.34-.57.03-1.16-.13-1.52-.18-.84,0-1.48.01-2.11,0-1.43-.03-2.86-.06-4.29-.11-.56-.02-1.13-.16-1.68-.09-1.43.17-2.81.27-4.27.04-1.97-.31-4-.21-5.97-.49-1.73-.25-3.42-.79-5.12-1.21-.97-.24-1.92-.64-2.9-.71-1.61-.12-3.23-.03-4.76-.03ZM171.48,276.65c-.37.35-.23.8.18,1.27.33.38.59.8.88,1.21.45.65,1.1.89,1.86.86.33-.01.67-.09.89-.13.54.43.92.91,1.41,1.11,1.8.74,3.64,1.38,5.46,2.06.01-.05.02-.09.04-.14.39-.06.77-.13,1.14-.19.28.54.51.98.64,1.24,1.53,1.22,3.04,1,4.49.52.16-.31.22-.64.41-.78.62-.43.63-1.03.62-1.67-.03-1.45-.07-2.91-.08-4.36,0-1.5.03-2.99.02-4.49,0-.86-.06-1.73-.13-2.59-.16-1.92-.79-3.76-.81-5.73-.03-2.58-.4-5.16-.63-7.74-.05-.56-.05-1.13-.15-1.67-.14-.69-.36-1.37-.54-2.06-.09-.33-.17-.66-.27-.99-.26-.85-.6-1.68-.76-2.54-.13-.69-.03-1.43-.03-2.15-.51-.54-.96-1.1-1.14-1.73-.32-1.12-.54-1.34-1.74-1.26-.18.01-.36,0-.56,0-.13-.24-.25-.45-.34-.63-.82-.06-1.6-.11-2.34-.16-.81-.94-1.86-1.15-2.93-1.33-2.54-.86-4.89-2.32-7.73-2.56-.04.32-.08.53-.08.73.05,2.23.11,4.46.14,6.68.01.98-.27,1.96.17,2.93.37.83.34,1.65-.6,2.23.32.28.57.5.91.81-.11,1.05-.23,2.17-.35,3.28-.02.18-.04.37-.02.55.07.65.17,1.29.23,1.93.1,1.09.18,2.17.27,3.26.17,1.89.38,3.78.51,5.67.1,1.52.07,3.06.18,4.58.06.86.28,1.71.44,2.56.08.4.18.79.33,1.4ZM330.07,257.76c-1.31,0-2.52-.09-3.71.03-1.2.12-2.39.41-3.57.7-.71.17-1.22,1.14-1.23,1.91-.01,1.05-.18,2.1-.17,3.14.01,1.08-.3,2.15-.04,3.23.16.69.23,1.4.31,2.11.05.43.05.87.05,1.31,0,1.15,0,2.31,0,3.46,0,.43.03.87.07,1.3.04.48.15.95.16,1.42.02.49-.05.99-.08,1.61-.11.24-.27.61-.43.97.08,0,.17.01.25.02.02,1.44.06,2.88.06,4.33,0,.89-.12,1.79-.02,2.67.04.36.48.77.84.98.38.23.88.25,1.55.41.16.19.46.55.71.84h.88c2.47,1.73,4.89,3.41,7.49,5.23.1-.61.18-.99.22-1.37.21-2.13.4-4.27.63-6.4.09-.83.32-1.65.36-2.48.1-1.81.11-3.62.18-5.42.04-1.15.11-2.31.19-3.46.04-.56.15-1.11.18-1.67.08-1.21.12-2.42.18-3.63.04-.95.07-1.9.16-2.85.07-.77.27-1.54.29-2.31.03-1.12-.11-2.24-.05-3.35.05-.86.32-1.7.44-2.55.04-.3-.08-.63-.14-1.02-1.32.12-2.52.22-3.71.35-.74.08-1.6-.29-2.06.49ZM196.33,249.08c-1.55-.45-2.92-.71-4.2-1.41-1.23-.67-2.58-1.11-3.88-1.65-.07.07-.14.14-.22.21.06.82.12,1.65.18,2.49.18.24.36.49.49.66-.03.56-.15,1.04-.07,1.49.3,1.68.69,3.35,1.01,5.04.2,1.07.34,2.14.48,3.22.15,1.14.02,2.38.44,3.41.52,1.29.37,2.56.51,3.84.06.52.11,1.06.3,1.54.83,2.12.7,4.32.61,6.52-.04.99-.16,1.99-.1,2.98.1,1.55.31,3.09.49,4.72.13.15.33.39.55.66.96-.63,1.92-1.27,3.05-2.02,1.55.01,2.75-.89,3.55-2.43.3-.02.58-.04,1.06-.06.1-.61.23-1.23.28-1.85.04-.43-.08-.87-.04-1.3.14-1.63.35-3.26.47-4.89.1-1.36.11-2.72.14-3.53-.29-5.19,0-9.86-.31-14.42-.27-.32-.47-.55-.68-.8.06-.32.12-.62.19-.99-1.29-.28-2.53-.55-3.8-.83-.18-.22-.38-.46-.49-.59ZM102.32,292.91c.1.92.14,1.77.3,2.6.07.32.37.65.66.87.49.37,1.06.65,1.65,1,.12-.03.32-.08.48-.11.28.4.52.76.85,1.24.36-.49.59-.8.77-1.06-.22-.76-.5-1.4-.58-2.07-.08-.7.03-1.42.06-2.13.03-.68-.05-1.39.11-2.04.23-.99.61-1.96.96-2.92.17-.46.56-.88.59-1.34.08-1.17,1.49-1.53,1.46-2.66.34-.11.6-.19.98-.31.74-1.66,1.49-3.36,2.29-5.15,2.19-1.03,2.53-3.46,3.67-5.28.46-.13.88-.24,1.22-.34.62-2.23,2.66-3.42,3.38-5.16,1.25-1.14,2.33-2.12,3.74-3.41.58-.7,1.37-1.87,2.37-2.8,1.82-1.69,3.72-3.28,5.66-4.83,1.41-1.13,2.93-2.11,4.41-3.16.33-.23.82-.36.98-.67.79-1.56,2.51-1.95,3.69-3.03,1.41-1.29,3.08-2.31,4.63-3.44.27-.17.59-.28.92-.38,1.41-.42,2.06-1.94,3.48-2.36.46-.14.91-.41,1.3-.7,1.17-.88,2.26-1.86,3.46-2.67.56-.38,1.03-1.18,1.92-.75.17-.39.31-.7.45-1.01.13.13.26.25.4.38.38-.58.75-1.16,1.07-1.65.44-.19.81-.34,1.17-.51,1.43-.66,2.18-2.15,3.64-2.85,1.26-.61,2.3-1.68,3.43-2.53.34-.9.68-1.79,1.07-2.81.55-.35,1.22-.77,1.9-1.2-1.18-1.64-1.59-1.78-2.92-1.14.15.27.3.54.47.84-.19.9-.39,1.81-.54,2.53-.47.35-.79.54-1.06.79-1.04.93-2.02,1.93-3.1,2.81-.59.49-1.31.81-1.97,1.21-1.09.66-2.16,1.33-3.26,1.97-.94.54-1.93.99-2.85,1.58-1.15.73-2.22,1.58-3.35,2.34-.38.26-.87.35-1.25.62-1.43,1-2.82,2.05-4.24,3.06-.96.68-1.93,1.37-2.94,1.98-1.22.74-2.53,1.33-3.74,2.09-1.77,1.11-3.47,2.32-5.22,3.46-1.43.94-2.89,1.84-4.34,2.76.02.04.04.08.06.12-.28.02-.56.05-.82.07-.62.45-1.25.85-1.82,1.33-1.79,1.5-3.47,3.17-5.37,4.51-1.51,1.07-2.37,2.68-3.78,3.81-.86.69-1.65,1.46-2.66,2.37-.02.67-.56,1.35-1.37,1.86-.18.11-.35.27-.48.44-.62.81-1.23,1.63-1.82,2.46-.55.78-1.12,1.55-1.61,2.37-.92,1.56-1.78,3.15-2.67,4.72-.34.6-.68,1.2-1.02,1.81.08.06.16.12.24.18-.26.18-.52.35-.78.53.08.06.17.11.25.17-.27.56-.54,1.13-.81,1.69-.08.17-.2.32-.27.49-.44,1.12-.92,2.22-1.31,3.36-.45,1.32-.82,2.67-1.21,4.01-.18.62-.33,1.26-.49,1.9-.21.06-.44.13-.52.15ZM265.95,245.98s.07.02.1.03c.94-.22,1.88-.46,2.83-.64,1.37-.26,2.76-.44,4.13-.74.75-.16,1.44-.57,2.27-.4.27.06.65-.07.88-.24,1.04-.74,2.2-.83,3.41-.81.84.01,1.69.06,2.53-.03,1.09-.11,2.16-.34,3.24-.53,1.44-.24,2.91-.39,4.32-.77,1.09-.29,2.13-.75,3.2-.39.35-.21.62-.37.88-.53.01.05.02.11.03.16,3.52-.54,7.04-1.08,10.56-1.62.97-.17,1.94-.42,2.92-.64,1.3-.28,2.64-.41,3.89-.84.93-.31,1.74-.96,2.82-.66.19.05.42-.07.63-.12,1.34-.32,2.67-.88,4.02-.91,1.96-.03,3.66-.98,5.56-1.18,1.6-.16,3.18-.51,4.76-.82,1.14-.22,2.26-.53,3.39-.8-.01-.06-.03-.12-.04-.18,2.97-.69,5.93-1.38,9.1-2.11,1.13.21,2.43-.05,3.73-.42.37-.11.79-.07,1.18-.13,1.29-.18,2.7-.1,3.83-.63,1.21-.56,2.47-.63,3.68-.92,2.08-.5,4.26-.58,6.38-.93,1.71-.29,3.38-.76,5.09-1.08,1.49-.28,3-.44,4.49-.72.6-.11,1.15-.49,1.75-.56,1.3-.17,2.62-.15,3.91-.34.72-.11,1.4-.47,2.16-.74-.32-.63-.54-1.07-.78-1.54-.68.11-1.31.15-1.9.32-.98.28-1.95.43-2.96.15-.17-.05-.38-.02-.56,0-1.63.27-3.27.5-4.88.84-.87.18-1.69.67-2.57.78-1.3.16-2.54.37-3.59,1.11-.57-.12-1.15-.22-1.68-.1-1.18.27-2.33.64-3.49,1.01-.83.27-1.83.17-2.25.9-.85.05-1.56-.02-2.19.17-1.03.3-2.03.54-3.12.44-.35-.03-.72.17-1.08.26-.27.07-.56.22-.81.17-1.28-.23-2.45.26-3.65.52-.93.2-1.84.55-2.78.68-1.23.18-2.48.21-3.72.32-.3.03-.6.12-.9.2-1.34.41-2.64,1-4.01,1.2-2.55.36-5.13.48-7.69.71-.09,0-.18.05-.27.07-.3.27-.66.69-.97.66-.99-.1-1.83.2-2.66.67-.15.09-.36.09-.55.11-1.26.12-2.52.21-3.78.35-.59.07-1.16.21-1.74.34-.94.2-1.88.43-2.83.62-.56.11-1.13.21-1.7.27-1.1.12-2.36-.1-3.28.36-1.97.99-4.33.45-6.15,1.79-.04.03-.12,0-.18.02-1.54.33-3.08.67-4.62.98-1.31.26-2.64.46-3.95.71-.92.18-1.83.4-2.74.59-.44.1-.89.23-1.33.27-.83.07-1.67.07-2.5.12-.34.02-.68.15-1.01.14-1.33-.04-2.62.08-3.77.84-1.18-.47-2.21-.14-3.16.54-.56-.08-1.08-.15-1.61-.22,0,.05,0,.1,0,.15-.66.05-1.33.09-2.14.15-.6.77-1.51.13-2.34.18-.18.22-.35.42-.52.63-1.43.13-2.79.43-4.15.7-.67.13-1.36.18-2.03.32-.67.14-1.33.33-2,.5-2.21.66-4.67.33-6.7,1.57-1.03-.29-1.99-.69-2.99-.82-1.44-.18-2.9-.14-4.35-.23-.49-.03-1-.11-1.47-.27-.85-.29-1.67-.67-2.5-1.01-.29.21-.53.39-.85.62.78,1.04,1.89,1.42,2.91,1.85,1.23.51,2.56.76,3.8,1.24.86.33,1.65.82,2.47,1.26.53.28,1.48.09,1.88-.4.17-.22.32-.46.48-.69,1.21-.14,2.39-.28,3.57-.42.97-.15,1.95-.21,2.91-.37,1.41-.23,2.81-.53,4.21-.8.53-.1,1.05-.22,1.58-.33ZM151.16,222.49c-.59.36-1,.62-1.42.87-.35.2-.69.47-1.07.57-1.7.44-3.2,1.44-4.95,1.76-.57.1-1.1.48-1.67.59-1.46.28-2.92.41-4.36.88-1.67.56-3.46.79-5.2,1.14-.7.14-1.41.22-2.12.36-1.07.22-2.12.5-3.2.69-1.13.19-2.3.2-3.41.46-1.95.46-3.89.46-5.86.17-1.95-.28-3.92-.48-5.87-.79-2-.32-3.99-.71-5.98-1.09-.23-.04-.43-.24-.64-.37-.85-.52-1.75-.83-2.78-.82.07.95.56,2.03,1.08,2.46.56.45,1.09.95,1.71,1.32.69.4,1.43.78,2.19.98,1.13.29,2.31.38,3.46.6,1.12.21,2.23.48,3.34.73l.07-.21c.16.18.31.36.47.55.45-.12.87-.24,1.29-.35,1.09.2,2.15.42,3.32.39,1.3-.04,2.56-.13,3.85-.27,1.27-.14,2.67.04,3.9.44,1.53.5,2.95-.26,4.44-.05.96.14,1.97-.13,2.96-.23.96-.1,1.95-.09,2.86-.35,1.22-.34,2.37-.91,3.56-1.36.4-.15.84-.2,1.39-.33,1.04-1.02,2.67-.75,3.85-1.3.39-.34.63-.64.95-.81,1.29-.67,2.59-1.3,3.79-1.9.12-.92.28-1.63.28-2.34,0-.71-.15-1.41-.26-2.37ZM279.4,267.32s.02.06.03.09c-.31,0-.64-.07-.92.01-1.74.46-3.47.95-5.21,1.43-.68.19-1.37.4-2.06.54-1.15.24-1.86,1.25-1.65,2.42.05.27.11.55.12.83.06,1.46.11,2.93.18,4.4,0,.21.03.46.14.63.57.88.36,1.84.33,2.78-.01.47.07.95.12,1.62,1.33-.27,2.48-.5,3.61-.73.23-.25.44-.48.65-.71,2.06,0,3.87-.75,5.6-1.74.67-.38,1.25-1.01,1.96-1.21,1.69-.48,2.33-2.61,1.96-4.17-.06-.24-.18-.52-.11-.72.54-1.51.16-3.04.18-4.55.01-.74-.17-1.34-.93-1.96-1.24.32-2.62.68-4,1.04ZM96.9,225.7c-.54-.7-.95-1.49-1.59-1.98-.95-.73-2.07-1.24-3.1-1.88-1.04-.65-2.04-1.35-3.08-2-.31-.19-.68-.29-1.14-.47-.12.58-.19.95-.28,1.42.52-.16.9-.28,1.39-.42-.03.42-.04.69-.06.92.54.79,1.13,1.4,2.12,1.45.12,0,.25.07.34.15.97.88,1.95,1.74,2.88,2.65.84.83,1.54.96,2.52.17ZM101.49,306.25c1.14-.84,1.56-1.8,1.67-2.94.07-.7.02-1.42.54-2.04.16-.19.09-.59.12-.89-.27-.2-.49-.35-.77-.55-.38.47-.84.84-1.05,1.32-.67,1.6-1.26,3.24-1.93,5.02.65.04,1.16.07,1.42.08ZM240.62,243.31c-.05.06-.11.11-.16.17-3.07-.9-5.97-2.3-9.23-3.27.35.51.61.88.86,1.25.04-.06.09-.11.13-.17.53.29,1.1.52,1.57.88.74.55,1.56.82,2.43,1.08,1.36.4,2.83.38,4.11,1.15.39.23,1,.09,1.51.13,0-.09.02-.17.03-.26-.41-.31-.83-.63-1.24-.94ZM157.97,213.32c.14.96,1.75,1.56,3.03,1.24-.92-.72-1.83-1.16-3.03-1.24ZM206.36,231.3l-.08.35c.75.18,1.5.35,2.25.53.02-.1.05-.2.07-.3-.78-.05-1.37-.86-2.24-.57ZM205.4,231.7c.08-.04.15-.08.23-.12-.15-.32-.3-.64-.45-.96-.44.05-.76.08-1.07.12-.02.08-.04.15-.06.23.45.24.91.49,1.36.73ZM163.33,215.82c.09-.06.19-.13.28-.19-.13-.17-.26-.34-.38-.52-.08.06-.16.11-.25.17.12.18.23.36.35.54Z"/>
  <path class="cls-1" d="M380.73,222.12c.01.08.02.16.03.25-.03-.04-.05-.08-.08-.11,0-.04.01-.08.03-.11l.02-.02Z"/>
  <path class="cls-1" d="M202.48,233.41h.01s-.01,0-.01,0Z"/>
  <path class="cls-2" d="M157.97,213.32c1.19.08,2.1.52,3.03,1.24-1.27.32-2.89-.29-3.03-1.24Z"/>
  <path class="cls-2" d="M230.72,240.37c-1.34-.3-2.77-.33-3.89-1.32,1.29.44,2.93-.15,3.88,1.32h0Z"/>
  <path class="cls-2" d="M206.36,231.3c.86-.29,1.46.52,2.24.57-.02.1-.05.2-.07.3-.75-.18-1.5-.35-2.25-.53l.08-.35Z"/>
  <path class="cls-2" d="M205.4,231.7c-.45-.24-.91-.49-1.36-.73.02-.08.04-.15.06-.23.32-.03.64-.07,1.07-.12.15.32.3.64.45.96-.08.04-.15.08-.23.12Z"/>
  <path class="cls-2" d="M163.33,215.82c-.12-.18-.23-.36-.35-.54.08-.06.16-.11.25-.17.13.17.26.34.38.52-.09.06-.19.13-.28.19Z"/>
  <path class="cls-2" d="M167.47,217.24c.12.03.25.06.37.08-.05.06-.1.12-.15.18-.07-.09-.14-.18-.21-.27h0Z"/>
  <path class="cls-2" d="M167.48,217.23s-.09-.03-.09-.03c0,0,.04.02.08.04,0,0,0-.01,0-.01Z"/>
  <path class="cls-2" d="M230.71,240.38h0s0,0,0,0Z"/>
  <path class="cls-2" d="M380.72,222.14s-.03.07-.03.11c0-.04,0-.08.03-.11Z"/>
  <path class="cls-2" d="M375.08,221s.03.09.04.13c0,.02-.02.04-.04.06h.01c0-.06,0-.13,0-.2h0Z"/>
  <polygon class="cls-2" points="267.22 147.99 267.2 148.02 267.24 148 267.22 147.99"/>
  <path class="cls-1" d="M375.08,220.99c0,.07,0,.14,0,.21-.04-.03-.08-.07-.13-.1.04-.04.08-.07.13-.1Z"/>
  <path class="cls-1" d="M327.03,248.05c-.09-.24-.25-.51-.29-.8-.06-.48-.08-.97-.02-1.45.07-.58.24-1.14.36-1.71-.08-.02-.16-.04-.24-.07.18-.32.35-.63.67-1.2.41.83.74,1.49,1.07,2.16.15-.05.35-.12.61-.2.17-.46.35-.95.45-1.2.86-.75,1.6-1.32,2.25-1.97,1.68-1.7,3.85-1.67,5.14.15.21.3.36.76.31,1.11-.23,1.47-.79,2.78-2.12,3.63-.08.05-.19.08-.23.15-.61,1.08-1.75,1.44-2.7,2.07-.94.62-2,.62-3.05.7-.21.02-.46-.17-.67-.31-.49-.32-.97-.66-1.55-1.05ZM332.39,243.48c-.76,1.14-2.31,1.66-2.11,3.39,1.81.41,2.95-1.06,4.38-1.99.08-.22.19-.51.3-.82-.24-.32-.45-.62-.68-.93-.68.12-1.32.24-1.89.35Z"/>
  <path class="cls-1" d="M365.68,236.16c.47-.24,1.11-.55,1.93-.96.08-.09.3-.35.51-.59,2.45-.76,4.31-.3,5.18,1.44,0,.71,0,1.43,0,2.03-.22.67-.33,1.29-.62,1.82-.28.51-.66,1.03-1.13,1.34-.84.56-1.75,1.1-2.7,1.36-.47.13-1.16-.33-1.66-.66-.92-.6-1.34-1.61-1.78-2.56-.12-.26-.09-.61-.06-.9.08-.7.2-1.39.33-2.31ZM368.04,236.88c.14.98.25,1.81.4,2.83.41.07.88.15,1.24.22.32-.51.6-.83.74-1.2.22-.6.55-1.24.12-1.87-.43-.63-1.05-.38-1.62-.24-.26.06-.52.15-.87.26Z"/>
  <path class="cls-1" d="M348.63,245.31c-.63-.49-1.24-.95-1.83-1.44-.16-.13-.3-.33-.37-.52-.46-1.26.18-3.54,1.24-4.33.23-.17.59-.17.87-.29.67-.29,1.32-.61,1.99-.92-.03-.06-.06-.12-.08-.18.6-.15,1.21-.31,1.81-.45,1.47-.33,2.52.73,2.17,2.17-.2.81-.37,1.62-.53,2.44-.22,1.15-1.08,1.82-1.93,2.43-1.22.88-1.26.82-3.33,1.1ZM349.2,242.28c.53.19,1.04.38,1.73.63.24-.76.44-1.4.66-2.1.21-.16.5-.38.84-.64-.25-.28-.42-.48-.7-.79-.35.38-.64.71-.84.92-.63.3-1.16.55-1.7.8v1.17Z"/>
</svg>