<?xml version="1.0" encoding="UTF-8"?>
<svg id="Livello_1" data-name="Livello 1" xmlns="http://www.w3.org/2000/svg" viewBox="0 0 489 489">
  <defs>
    <style>
      .cls-1 {
        fill: #858585;
      }

      .cls-1, .cls-2, .cls-3, .cls-4, .cls-5, .cls-6, .cls-7, .cls-8, .cls-9, .cls-10, .cls-11, .cls-12, .cls-13, .cls-14, .cls-15, .cls-16, .cls-17, .cls-18, .cls-19, .cls-20, .cls-21, .cls-22, .cls-23, .cls-24, .cls-25, .cls-26, .cls-27, .cls-28, .cls-29, .cls-30, .cls-31, .cls-32, .cls-33 {
        stroke-width: 0px;
      }

      .cls-2 {
        fill: #f5f5f5;
      }

      .cls-3 {
        fill: #fdfdfd;
      }

      .cls-4 {
        fill: #e3e3e3;
      }

      .cls-5 {
        fill: #eaeaea;
      }

      .cls-6 {
        fill: #f8f8f8;
      }

      .cls-7 {
        fill: #b9b9b9;
      }

      .cls-8 {
        fill: #e9e9e9;
      }

      .cls-9 {
        fill: #fafafa;
      }

      .cls-10 {
        fill: #f4f4f4;
      }

      .cls-11 {
        fill: #9e9e9e;
      }

      .cls-12 {
        fill: #fbfbfb;
      }

      .cls-13 {
        fill: #010101;
      }

      .cls-14 {
        fill: #f0f0f0;
      }

      .cls-15 {
        fill: #ededed;
      }

      .cls-16 {
        fill: #040404;
      }

      .cls-17 {
        fill: #e1e1e1;
      }

      .cls-18 {
        fill: #080808;
      }

      .cls-19 {
        fill: #9c9c9c;
      }

      .cls-20 {
        fill: #fefefe;
      }

      .cls-21 {
        fill: #d9d9d9;
      }

      .cls-22 {
        fill: #383838;
      }

      .cls-23 {
        fill: #050505;
      }

      .cls-24 {
        fill: #f9f9f9;
      }

      .cls-25 {
        fill: #090909;
      }

      .cls-26 {
        fill: #c6c6c6;
      }

      .cls-27 {
        fill: #ececec;
      }

      .cls-28 {
        fill: #efefef;
      }

      .cls-29 {
        fill: #696969;
      }

      .cls-30 {
        fill: #f1f1f1;
      }

      .cls-31 {
        fill: #e7e7e7;
      }

      .cls-32 {
        fill: #0e0e0e;
      }

      .cls-33 {
        fill: #fcfcfc;
      }
    </style>
  </defs>
  <path class="cls-13" d="M155.45,335.6c-.43-.43-1-1-1.59-1.59-.05-1.08-.55-2.29.76-2.78-1-3.05-1.81-5.93-1.88-9.08-.06-3.06,1.93-5.49,2.05-8.4,1.27-1.21,2.55-2.43,3.88-3.69-1.83-2.64-.51-5.37-1.12-7.79,1.19-1.78,2.4-3.2,4.73-2.9,1.14-2.9-1.65-5.45-.5-8.45,2.26-2.14,4.92-3.25,8.13-.92,1.55-5.42,2.8-10.55,4.54-15.52.89-2.53,1.09-4.86.08-7.21-.43-1.01.72-.96.58-1.38-.18-.55-1.03-.76-.93-1.56.62-4.95-1.32-9.38-2.81-13.9-.53-1.6.7-3.57-1.03-4.92.95-5.13-2.8-9.6-1.96-14.6-.56-.56-1.02-1.02-1.48-1.48-1.33.91-1.55,2.94-3.38,3.35.02,2.09-2.25,2.55-2.89,4.16-1.27,4.3-1.01,9.51-7.03,10.87.7,3.23-.37,5.86-1.05,8.58-1.59,1.34-3.7,1.12-6.03,1.45,1.82,2.38,1.39,4.77,1.39,7.09-1.27.88-1.83,2.86-3.32,2.53-1.33-1.34-2.34-2.35-2.97-2.99-2.05.23-3.29,3.1-3.58,6.46-1.03.59-2.18.14-3.26.32-1.83,1.83-3.58,3.76-5.52,5.48-2.62,2.33-4.32,5.39-6.61,7.97.39,1.64-2.34.57-2.11,2.53.09.81-1.79,1.73-2.5,2.78-.66.97-.64,2.69-1.47,3.2-4.4,2.71-6.22,7.46-9.06,11.33-2.88,3.91-5.36,8.14-8.18,12.13-.25.36-.25.91-.54,1.22-.99,1.07-2.04,2.08-3.08,3.11-.44,2.76-2.6,5.89-7.09,9.99,0,.42.25,1.22-.04,1.62-2.23,3.11-2.8,6.95-4.74,10.21-1.36,2.28-2.03,4.98-2.87,7.54-.25.76-.37,1.51-1.1,1.98,0,1.62-.18,3.26.05,4.85.22,1.55-.69,2.65-1.29,4.08-1.14.48-2.35,1.59-4.15,1.3-1.03-1.1-2.14-2.27-3.35-3.56-.04-1.82-.32-3.89,1.49-5.84.96-.22,2.02-1.8,3.77-1.15,2.95-5.18,3.81-11.2,7.25-16.04.37-2.21.2-4.33-1.2-6.34h-6.82c-1.68.98-3.45,2.32-5.84,1.79-.71.67-1.4,1.33-2.09,1.99-4.66.03-6.33.61-14.03,4.86-.81.12-1.01-.68-1.56-1.02-.94-1.03.85-1.24.72-2.34-.13-1.12-1.26-1.48-1.14-2.49.12-.28.29-.54.35-.83,1.01-4.93,4.35-8.61,6.93-12.67.77-1.22.3-2.63,1.34-3.89.76-.92,3.08-1.3,2.07-3.38,1.58-.9.43-3.05,1.95-4.08,1.32-.9,1.39-2.65,2.12-3.95,1.66-2.91,3.5-5.85,5.61-8.31,2.88-3.34,4.68-7.17,6.78-10.88,1.51-2.66,3.06-5.31,4.99-7.62,1.9-2.27,2.39-5.5,4.94-7.19,1.45-.96.52-2.58,1.59-3.79,1.73-1.94,2.83-4.43,6.48-5.36,1.49,0,3.93-.17,6.34.05,2.14.2,4.14,1.17,6.41.97,2.16-.19,4.29-.13,6.45.81,1.36.59,3.19.11,4.92.11,1.98-1.24,4.04-2.52,6.23-3.89,1.44,0,3.06,0,4.68,0,1.82-2.27,4.69-2.76,7.21-4.57v-3.5c1.25-1.4,1.43-3.19,2.98-3.95-2.65-2.41,1.22-4.65-.08-6.78.95-.99,1.74-1.8,2.49-2.58h2.86c1.62.79,1.35,2.4,1.85,3.66.52,1.3,2.41.78,3.06,2.54,1.32-2.95,3.48-4.76,5.36-6.68.55-3.26-1.97-5.48-2.45-8.32-.3-1.79-1.46-3.33-1.44-5.24.02-3.26.77-6.16,3.42-8.32h6.82c.44-.45.89-.92,1.28-1.33,1.14-3.42-1.35-6.48-.8-9.81-1.65-1.2-.93-2.95-.94-4.46-.02-3.63-1.67-7.09-1.03-10.78.14-.82-1.24-1.06-.92-2.09.28-.45.61-.96,1.03-1.62-.91-1.23-1.14-2.69-1.13-4.31,0-1.66.81-3.57-.88-4.96,1.84-1.36-.65-2.55-.15-4.08.53-1.61.15-3.53.11-5.31-.04-1.54.45-3.21-1.05-4.52,1.7-2.22,1.02-4.83,1.03-7.31,0-2.55.54-4.87,1.63-6.68,1.26-1.29,2.46-.59,3.8-.89.82-.25,1.07-1.84,2.31-1.83,3.69.03,6.72-1.77,9.75-3.46,1.58-.88,3.53-1.15,4.72-2.71.66-2.08-.57-3.51-1.8-5.25.78-2.48-1.34-4.86-.94-7.57-1.23-.64-.82-2.4-2.06-3.03-4.27-1-7.98-4.14-12.62-3.23-1.87-.98-2.7-2.67-3.76-4.89.38-2.91-1.01-5.94-2.61-8.95-1.48-2.79-1.85-5.99-3.2-8.88-2.09-4.49-3.46-9.25-6.33-13.44-1.53-2.23-1.96-5.21-1.48-7.82,4.63-7.18,10.45-13.09,16.28-19.25,1.28-.03,2.56.23,4.08,1.19,3.42,2.15,6.33,5.25,10.6,6.06,1.31.25,2.68.95,3.22,2.9.35,1.23.46,2.6.61,3.73.35,2.61.34,5.26,1.78,7.57.4.64.35,1.22.32,1.81-.11,2.07.39,3.89,1.28,5.8,1.19,2.57,2.28,5.38,2.48,8.15.16,2.22.72,4.38,1.31,6.33.77,2.53.62,4.95.81,7.58-4.28,2.46-5.55,7.12-7.86,11.1-1.14,1.97-.81,3.94-.92,5.95.91,1.75,2.29,3.31,1.96,5.52-.14.96.42,1.73.77,2.59.55,1.36,1.69,2.6,1.09,4.39,1.03,0,1.82.24,2.26-.04,3.57-2.26,7.62-3.6,11.19-5.91,1.7-1.1,3.98-1.62,6.03-1.72,1.64-.08,3.03-.71,4.39-1.24.85-.33,1.63-.68,2.57-.87,1.61-.31,3.43-.57,4.69-1.49,2.55-1.84,5.26-2.48,8.32-2.34.43-.46.88-.92,1.34-1.41.16-6.63,1.73-13.22,1.08-19.93,1.41-3.83.39-7.91,1.12-11.72.69-3.63.75-7.19.87-10.8.02-.52.6-1.03,1.01-1.68-1.05-1.72-1.43-3.64-.87-5.7.57-.57,1.15-1.15,1.84-1.84-1.66-2.35-.87-5.09-1.1-7.65.52-.52,1.19-.9,1.41-1.45,1.95-4.93,6.02-8.11,9.72-11.48,3.64-3.32,7.92-5.93,11.73-9.07,1.2-.99,2.33-.77,3.73-.9,2.7,2.32,5.74,4.28,9.52,4.98,2.79-2.28,6.14-3.76,8.26-6.93,2.15-3.21,6.12-4.53,8.38-7.55,2.32-.97,3.2.93,4.5,2.07.26,1.53.5,3.1-1.22,4.39h-5.19c-4.29,1.77-5.58,6.19-8.95,8.15-.26,1.63,1.02,2.08,1.61,2.86-.61,2.45-1.21,4.85-1.91,7.68,4.53-.47,8.24.78,12.05,2.22-.53.53-.88.88-1.4,1.4-1.02.19-2.22.53-3.42-.13-3.25-1.8-6.4-.27-9.46.54-.9.24-1.97,1.41-2.43,2.77-.54,1.58-1.32,3.14-2.91,4.27.69,3.44-1.15,6.14-2.83,8.9-3.15.45-6.04,1.63-9.26,1.38-3.22-.24-6.48-.05-9.72-.05-2.59-2.39-6.25.4-8.87-1.83-1.36,2.46-.82,5.41-2.06,7.89,1.79,2.05-.4,3.91-.3,5.89.02.36-.53.74-.81,1.12,1.67,1.71,1.36,4.29.65,5.75-.87,1.79-.53,3.38-.75,5.05-.23,1.67.37,3.38-.89,5.01-.55.71-.5,2.43-.01,3.28,1.14,1.98,1.1,3.61.06,5.63-.29.56.57,1.84-.05,3.06-.46.9-.09,2.22-.09,3.64,4.76.97,8.94-1.34,13.08-2.89,1.76-.66,2.78-.93,4.37.42,1.37-1.63,3.33-1.13,5.42-1.21,2.94,3.79,7.4,5.58,11.57,7.86,2.4,1.31,4.88,2.66,6.79,4.73,1.29,1.4,3.12,1.94,4.74,2.66,3.76,1.68,6.97,3.98,9.75,6.96,3.47.35,5.59,3.61,8.99,4.12.67.66.33,1.91,1.39,2.35,0,2.42-.04,4.85.01,7.28.07,3.14-.85,6.07-1.74,9.01-.39,1.28-.33,2.58-.14,3.78.23,1.45-1.18,2.1-1.1,3.5.3,5.01-2.26,9.65-1.96,14.75.3,5,.07,10.04.07,14.91-1.02,2.29-2.88,1.62-5.03,1.74.61-1.86-.55-3.55.86-5.18.42-.48.31-1.51.27-2.29-.28-5.41.24-10.77.95-16.13.11-.83.69-1.47.79-2.09.37-2.28,1.79-4.39,1.19-6.82-.44-1.79.59-3.3.94-4.95.36-1.64-.71-3.56,1-4.94v-10.36c-1.45-2.56-3.8-3.84-5.92-4.98-2.09-1.12-3.49-2.95-5.56-4.08-2.11-1.15-4.28-2.23-6.36-3.44-1.96-1.14-3.64-2.81-5.73-3.79-2.05-.97-3.36-3.04-5.73-3.59-2.24-.52-3.58-2.84-6.13-3.25-1.41,1.14.47,3.57-1.86,4.67,1.77,1.48,1.9,3.77,1.16,5.21-1.04,2.06-.57,4.01-.82,5.99-.18,1.36.28,2.69-.76,4.1-.65.87-.77,2.81.76,3.86-.88.62-1.12,1.51-.95,2.5.28,1.65-.85,3.33-.41,4.72.51,1.62.28,3.13.37,4.68.11,1.78-.09,3.57.05,5.34.3,3.72-1.18,7.24-1.03,10.95.15,3.88.74,7.94-.14,11.62-1.21,5.11-.7,10.15-.7,15.19,0,3.51-1.46,6.75-1.14,10.3.31,3.54.56,7.21-.05,10.67-.76,4.31-.89,8.59-.81,12.91.03,1.5-.35,2.97.79,4.56.77,1.07.77,3.57,0,4.66-1.22,1.74-.75,3.38-.79,5.04-.11,4.21-.02,8.42-.05,12.64,0,1.08.45,2.35-.85,2.72-.52,1.4,1.04,1.68.89,2.8-.45,3.41.71,6.92-.89,10.34-.49,1.04-.32,2.68.38,4.12.88,1.82,1.03,3.97-.19,5.83-.52.8-.5,1.71-.25,2.29,1.66,3.83.55,7.85,1.03,12.04,3.27,1.9,6.64,3.77,10.79,4.12,2.17.18,4.47,1.04,6.32,2.21,1.99,1.27,3.95,1.68,6.17,1.59,1.29-.05,2.59,0,3.89-.01,2.16-.02,4.35-.23,6.24,1.21,1.51-4.59,1.54-8.97,1.51-13.39-.02-2.47,1.16-4.78,1.04-7.38-.1-2.28-1.03-4.8.66-6.97-1.07-1.32-1.29-3.22-.66-4.31,1.86-3.18.44-6.68,1.6-10.03,1.1-3.18.52-7.08.16-10.6-.39-3.72,1.37-7.1,1.11-10.79-.26-3.55-.09-7.13-.01-10.69.01-.52.59-1.04.9-1.54.33-.98-.7-1.32-.95-2.03-.62-1.76,2.08-3.15.72-4.82-1.34-1.65-.33-3.41-.73-5.07-.23-.96,1.12-1.13.98-2.03-1.69-3.6-1.34-4.31,2.4-4.9,1.35,1.41.11,3.27.87,4.94.58,1.27-.57,3.04-.4,4.69.17,1.6.06,3.24.03,4.86-.03,1.7.36,3.49-.97,4.92.17,1.07,1.19,1.76,1.02,3.02-.45,3.25.74,6.64-.95,9.83-.4.76-.14,1.92-.05,2.88.69,6.88-1.46,13.64-.93,20.49.11,1.42-1.42,2.05-1.08,3.5.24,1.05,1.43,1.69,1.06,3-.38,1.33.57,2.92-.67,4.09-.45.42-.38.89-.32,1.33.72,5.76-1.47,11.35-1.02,17.1.12,1.52.31,3.08-.86,4.52-.43.53-.39,1.92.71,2.51-1.4,2.67-1.18,6.45-5.25,7.31-1.99.05-4.15.55-6.26-.72-.71-.43-2.01-.23-3.12.5-1.86,1.23-4.01,2.03-6.13,3.05-.6-.29-1.39-.65-2.2-1.04-1.02-1.94.59-2.84,1.72-4.03-2.11-1.09-4.21-2.16-6.65-3.43-3.63.61-6.88-1.82-11.08-2.64-3.78,1.83-9.12-.6-13.26,2.63-4.75-.5-9.19,1.27-13.76,2.03-4.61.77-9.04,2.54-13.65,3.33-4.52.77-9.09,1.2-13.4,2.82.53,1.51,2.35,1.32,3.25,2.46h4.12c.44-.56,1.03-1.31,1.48-1.89h7.14c1.41,1.43,2.06,3.8,4.66,3.88,2.28-1.32,1.98-4.49,4.14-5.92,1.91-1.26,3.83-2.5,5.41-3.52,5.75-1.18,10.82.64,16.31,2.15.86,1.26,3.19,1.99,3.15,4.37h3.33c.94-1.74-.04-3.73.57-5.53.34-.34.69-.69,1.15-1.15,2.44-.42,5.05-.02,7.69-.94,2.56-.89,4.62,1.25,6.37,3.1.87,2.22-.98,4.83,1.04,6.87-1.75,2.79-.68,5.86-.85,8.8-.18,3.07.04,6.16-.06,9.23-.15,4.4-4.02,8.4-8.42,8.77-1.27.11-2.56.02-3.83.02-.12-2.03-2.29-1.88-3.21-3.45v-21.5c-1.36-.49-2.56-.42-3.96-.11,0,4.1-.21,8.14.12,12.14.11,1.28-1.54,2.18-.28,3.68.79.93-.45,2.88,1.12,3.88,0,2.94.41,6.05-3.33,7.34-.55.19-1.32.84-1.34,1.31-.1,2.29-2.29,2.28-3.54,3.38-10.79.42-12.6.08-16.59-2.88-1.84-6.04-.89-12-1.64-17.77-.43-3.29-.61-6.54-.79-10.05-1.13.08-2.08,1.19-3.41.65-.69.83-1.41,1.69-2.37,2.85-.59,2.6,1,5.92-1.16,9.05,1.51,1.03,1.35,2.74,1.06,4.22-.37,1.89,1.51,3.07,1.11,4.97-.33,1.54-.07,3.21-.07,4.76-3.99,3.02-5.25,3.42-10.36,3.28-.67-1.65-1.32-3.32-2.02-4.97-.46-1.08-.4-2.21-.14-3.26,1.08-4.43.91-4.38.11-8.55-.46-2.42-.91-5.1.37-7.45.62-1.13.16-2.19.39-3.24-2.02-3.14-5.58-3.65-8.65-4.77-3-1.1-6.21-1.74-9.46-1.8-1.76-1.56-1.96-3.76-2.27-5.85-.21-1.43.06-2.92-.06-4.37-.17-1.99.3-3.93-.81-5.99-.87-1.62.32-3.98-1.04-5.89-.45-.62-.07-1.83-.34-2.96-.91,1.32-1.4,3.03-3.32,2.96-.81,1.81-.11,3.35.8,5.16-.89.73-1.86,1.53-3.01,2.48-2.09.28-4.31-.17-6.37-1.89-1.08.9.27,2.84-1.38,3.42.63.63,1.2,1.2,1.77,1.77v3.85c-1.13,2.87-4.39.39-5.23,2.32-.91,1.84-.03,3.52-1.38,4.9-.72.74.93,2.18.77,2.89-.8,3.55,1.6,6.25,2.15,9.41.51,2.96,2.43,5.46,3.77,8.14.6,1.2.8,2.58,1.27,3.85.77,2.11,1.23,4.46,2.49,6.23,1.47,2.05,1.55,4.56,3.03,6.57,1.32,1.8,1.76,4.13,3.26,5.92-1.73,3.48-1.83,7.17-2.99,10.65-.91,2.73-2.6,5.04-3.34,7.9-.68,2.61-1.87,5.46-4.01,7.54-.33.32-.71.6-.65,1.19.33,2.93-1.77,5.1-2.5,7.71-1.5,5.4-4.65,10.06-7.18,15.46v3.37c-.63,1.1-2.27,1.51-1.97,3.14.33,1.72-1.64,2.08-2.12,3.51-.37,1.12-.37,2.53-1.11,3.39-1.02,1.19-.48,2.43-.68,3.73-1.12,1.06-2.29,2.17-3.42,3.23-2.09-1.16-2.58-3.77-4.42-5.32-1.95-1.65-3.51-3.95-5.69-5.1-2.02-1.07-2.37-3.99-5.34-4.03-1.68,1.27-2.08,3.22-2.65,5.38-.52,1.98-.91,3.89-.78,5.75-1.08,1.08-1.99,1.99-2.94,2.94.64.68,1.29,1.36,1.92,2.03v2.9c-.77.56-1.8,1.3-2.82,2.05-1.88.91-2.71-.98-3.98-2.1v-5.18c1.02-3.07,3.07-4.62,4.87-6.5-.09-2.12.05-4.19,1.26-6.21,1.26-2.11,1.87-4.53,1.65-7.09-.24-2.84.95-5.38,1.74-8.63,0,.03-.95-.08-.65-1.33,2.81-2.27,2.12-6.73,4.64-9.78-.03-4.91,1.91-9.44,3.46-14.03,2.07-6.11,4.53-12.09,6.46-18.23,2.3-7.31,5.61-14.21,8.05-21.46.82-2.42,1.28-4.95,2.23-7.79Z"/>
  <path class="cls-13" d="M406.5,183.76c-1.25,2.39-3.03,2.84-4.54,3.9-2.11,0-4.84-.79-6.52.2-2.19,1.3-4.36.05-6.38,1.12-1.84.97-3.95,1.39-5.91,2.13-1.71.65-3.6,1-5.28,1.21-2.81.34-5.26,1.48-7.97,2.28-1.73,4.23-3.78,8.41-6.17,12.4-2.48,4.14-4.77,8.41-6.65,12.8-1.85,4.31-4.02,8.39-5.93,12.25-10.78,1.44-20.34-.85-28.52-6.35-1.18-.29-1.45.16-1.94.61-2.55-.92-5.15-2.21-7.94-1.7-2.03-2.29-4.92-2.24-7.28-2.79-4.72-1.1-9.27-2.91-13.99-3.76-3.47-.63-6.84-1.57-10.27-2.27-2.06-.42-4.1-1.02-6.11-1.67-.88-.29-.82.78-1.38.71-1.34.4-1.59-1.81-2.87-.87-.34-.82-.52-1.4-.81-1.92-1.28-2.27-.17-4.72-.63-6.92,1.29-3.11,5.74-3.05,6.19-6.73q3.29,1.13,5.87,3.67c3.33.16,6.31,1.78,9.51,2.64,1.6.43,3.02,1.54,4.77,1.4,1.75-.15,3.11,1.55,4.95.99.3-.09.7-.13.96,0,4.52,2.37,9.75,2.13,14.43,3.88,3.56,1.33,7.28,1.99,10.95,2.89,1.94.48,3.78,1.61,6.76.55.37-.2.94-1.82,2.49-1.71.75-3.07,2.04-5.76,3.5-8.41,2.24-4.08,4.7-8.1,6.36-12.42,1.19-3.1,2.3-6.16,3.96-9.06,1.03-1.8,1.5-3.91,2.3-6.1-2.36-1.99-4.16-4.26-4.52-7.35-.03-.25-.64-.51-.61-.69.6-3.37-.93-6.51-1.08-9.8-.06-1.37,1.23-2.51.17-4.12-.9-1.37.93-2.95.81-4.39-.41-4.67,2.62-8.45,3.07-12.86,2.4-2.36,2.44-6.34,5.73-8.37,1.48,1.56,3.44,1.21,5.29,1.13,2.3-.1,4.45.22,5.94,2.06,1.17,1.44,2.69.56,4.12,1.02,2.39,3.54,6.8,4.78,9.88,8.03v4.92c1.03.76,1.91.64,2.8.22.89-1.28-1.15-1.78-.67-3.19,1.72-.4,3.27-1.72,4.08-3.26,3.2-6.11,7.72-11.56,9.62-18.73-1.49-1.6-3.31-3.22-3.12-5.87,1.94-3.35,5.3-2.59,8.24-2.69,2-1.57,2.44-4.01,3.75-5.9,1.37-1.98,2.97-3.45,4.25-5.04,1.89.82,1.01,1.91,1.19,2.75-1.15,1.15-2.3,2.3-3.41,3.41-.99.71.14,1.95-.71,2.66-1.15.96-2.02,2.06-1.64,3.69.24,1.03-1.73,2.05,0,3.08-.44,2.13.66,4.31-.75,6.52-.73,1.14-.13,3.13-.13,4.49-2.28,3.05-4.47,5.86-6.51,8.77-1.92,2.74-4.04,5.43-5.42,8.44-1.44,3.15-3.18,6.13-5.58,10.26,2.99-1.82,5.2-1.08,7.37-1.43.63-.94-.94-1.04-.72-1.92.1-.41-.51-.98-.81-1.48.34-.34.69-.69,1.03-1.03.48-.44.02-.69.29-.28,1.56,2.34,4.94,2.06,6.3,4.46.38.66-.24,1.21-.74,1.62,0,.13-.05.27,0,.35.08.14.2.26.34.34,2.72,1.63,4.41,4.46,7.23,6.59.56,1.93-.85,4.64,1.07,6.91-1.65,2.22-1.21,4.87-.93,7.29.29,2.5-1.91,4.44-1.11,6.44Z"/>
  <path class="cls-16" d="M273.83,306.29c-1.29-.09-2.9.23-4.06-.35-4.04-2.02-9.01-1.52-12.94-4.94,0-3.58-.34-7.45.16-11.21.21-1.6.67-3.25.85-4.94.18-1.68-.58-3.37.57-5.1.98-1.46.18-3.42.41-5.14,1.31-1.16,1.33-3.03,2.36-4.31,1.74-.77,3.13.61,4.39,1.12,2.24.9,4.52,1.55,6.81,2.27,3.48,1.11,3.85,1.45,4.64,4.67.3,1.21.68,2.87.12,3.72-1.41,2.12-.66,4.31-.85,6.45-.18,1.94.4,3.98-.75,5.79,1.41,1.68.55,3.67.71,5.51.12,1.4-1.31,4.95-2.41,6.46Z"/>
  <path class="cls-18" d="M289.21,70h-2.53c-2.31-1.14-2.61-3.92-4.56-5.33v-3.87c.1-.11.24-.35.3-.33,2.49.71,3.42-2.89,6.09-2.08.97,1.07,2.05,2.26,3.3,3.65v5.6c-.74.68-1.58,1.43-2.6,2.37Z"/>
  <path class="cls-25" d="M266.07,148.74h2.89c3.28,3.04,3.32,5.28.13,9.63h-4.11c-2.1-3.06-1.76-5.89,1.09-9.63Z"/>
  <path class="cls-25" d="M262.45,178.27c.96-3.02,1.61-5.9,5.57-6.37.62.84,1.27,1.74,2.31,3.15v3.47c-.72.72-1.51,1.51-2.3,2.3-2.19.22-3.75-.97-5.57-2.54Z"/>
  <path class="cls-32" d="M265.58,197.47c.07,1.01-1.9,1.1-.87,2.3-1.22.87-2.37.35-3.53.51-.72-.78-1.48-1.6-2.36-2.56-.5-1.9.5-3.57,1.55-5.24,2.79.6,4.56,2.21,5.22,4.99Z"/>
  <path class="cls-22" d="M260.22,465.67c1.25-.12,1.76.36,1.34,1.57-.33.59-.86.31-1.31.38-.74-.64-.72-1.29-.03-1.95Z"/>
  <path class="cls-20" d="M186.83,319.13c.13-1.54-.21-2.21-.96-2.59,0-1.86-.04-3.65,0-5.42.08-3.13-.91-6.05-1.71-9.02-.12-.44-.3-.93-.22-1.35.49-2.73-.51-5.29-1.05-7.85-.73-3.45-1.92-6.8-1.9-10.39,0-.45-.07-.96-.28-1.33-2.88-5.07-2.12-10.09.12-15.11.43-.96-.31-2.33,1.3-3.09-.61-.59-1.14-1.1-1.4-1.34-1.54-.46-2.04,1.57-3.64.42.54-3.08-.32-6.27-1-9.44-.56-2.63-1.5-5.2-2.51-7.7-.57-1.39-.55-2.4.6-3.33-.32-.36-.92-.73-.9-1.07.15-3.16-.85-6.13-1.56-9.11-.66-2.77-1.07-5.6-2.2-8.31-.69-1.66-.03-3.83-.2-5.76-.19-2.18.69-4.45-.6-6.55-1.18-1.91.71-4.46-1.27-6.31-.32-.3.04-1.26-.06-1.89-.36-2.15.64-4.35-.67-6.53-1.1-1.83.6-4.43-1.23-6.29-.16-.16-.06-.63-.02-.95.74-5.28-1.48-10.39-.9-15.63.13-1.21-1.41-2-.42-3.24,1.16-1.46-.37-2.55-.59-3.83-.21-1.26-.11-2.59-.03-3.88.11-1.84-.39-3.69.84-5.51.5-.74.67-2.54-.71-3.47.74-1.11.95-2.54,2.14-3.4,3.16.14,5.71-1.75,8.54-2.76,2.39-.85,4.86-1.67,6.9-3.26,1.25-.97,2.56-1.07,3.91-.88.98-.71,1.86-1.37,1.85-2.64,4.52-2.38,9.69-3.44,14.07-7.04h4.01c4.17-1.87,7.54-3.56,11.86-4.42.11-.12.65-.71,1.1-1.21.43-.13.72-.27,1.01-.3,1.53-.11,3.04.18,4.54-.86.62-.43,2.58-1.02,2.73-.82,1.22,1.67,1.72-.57,2.8-.39,3.26.53,6.28-.99,9.41-1.7,1.22-.27,2.08-1.36,3.46-1.14,1.1.18,2.26.08,3.4.02,1.07-.05,2.3.42,3.06-.82,1.08.78,2.54.96,3.46,2.24.38,2.8-.55,5.88,1.03,8.67.21.37.21,1.06,0,1.43-1.77,3.15-1.03,6.58-.84,9.81.23,3.87-1.2,7.47-1.1,11.27.09,3.72-.11,7.46.08,11.17.08,1.54-1.34,2.43-1.08,3.98.24,1.41-.46,3.28.23,4.25,1.12,1.56-.41,2.42-.3,3.69.42,4.89-1.3,9.68-.94,14.66.35,4.83.41,9.74-.04,14.56-.31,3.38-1.1,6.74-.77,10.54-2.35-1.29-2.35-3.52-3.46-5-1.41-.29-2.54.1-3.32,1.34,1.2,1.87,1.09,4.39,2.25,5.43,1.69,1.55,3.14.45,4.49,1.44-.47,1.46.58,3.13-.78,4.81-.56.7-.23,2.16-.23,3.27-.01,11.99.03,23.98-.04,35.96-.01,2.31.43,4.64-.82,6.95-.52.97-.41,2.68.37,4.12.46.84-.61,2.03-.57,3.28.09,2.47.56,5.02-.86,7.4-.56.93.4,1.73.97,2.54-.4,1.26-.87,2.53-1.15,3.89-.44,2.18,2.11,3.85.8,5.81-1.22,1.84-.3,3.74-.79,5.67-1.75,2.68-5.05,2.51-7.7,3.18-2.78.7-5.72.83-8.39,2.11-1.68-1.19-3.35.3-5.03,0-2.11-.38-4.04.59-5.74,1.38-2.97,1.36-6.07,1.8-9.14,2.62-3.53.94-7.16,1.21-10.7,2.23-3.59,1.03-7.25,2.35-11.52,2.78Z"/>
  <path class="cls-3" d="M150.35,419c-.16,0-.38.07-.48-.01-5.29-4.25-9.61-9.5-14.66-14.13.6-2.36,1.48-4.67,1.93-6.98,1.02-5.23,2.83-10.21,4.06-15.36.52-2.16,1.32-4.34,2.43-6.27,2.51-4.36,3.4-9.28,5.27-13.86,1.13-2.77,2.07-5.63,2.89-8.51.26-.92,1.1-1.13,1.33-1.97,2.61,1.41,1.78,4.21,2.41,6.2.86,2.69,2.13,5.49,2.06,8.36-.08,2.89,1.25,5.45,1.21,8.35-.03,2.48.93,5.06,1.85,7.43,1.58,4.03,1.46,7.83-.66,11.6-.66,1.18-.07,2.94-1.75,3.63-1.44-1.52-1.8-3.43-1.5-5.43.24-1.66-1.22-2.79-1.07-4.47.12-1.32.09-2.62-.68-4.07-.94-1.79.39-4.37-1.2-6.29.72-3.53-1.32-6.78-1.01-10.27-.46-.46-.92-.92-1.46-1.46-.4.49-.8.98-1.3,1.59-1.08,5.05,1.09,9.9,2.33,14.78.52,2.04-.52,4.51,1.45,6.18,1.21,4.73.72,9.8,2.87,14.36.29.62-.17,1.42-.49,2.19-.99,2.34-1.78,4.8-2.31,7.29-.24,1.11-.98,1.54-1.61,2.33-1.75-4.74-1.47-9.83-2.9-14.57-.05-.17.35-.48.66-.87-1.23-1.35-.65-3.5-2.01-4.64-.19-1.03.46-1.34.85-1.79.4-1-.33-1.47-.93-2.05.26-2.81-.1-5.56-1.34-8.15-.77-.04-1.56-.3-2.34.2-.83,3.31.65,6.33,1.29,9.47.52,2.55,1.73,4.97,1.44,7.66-.18,1.75.68,3.39,1.17,4.88.66,2.04.84,3.97.74,5.98-.1,2.1.88,3.87,1.55,5.69.29.78.39,1.49.4,2.25,0,.24-.32.49-.5.73Z"/>
  <path class="cls-20" d="M71.16,320.25c-3.15,3.19-5.25,7.28-9.44,10.06-1.31-.06-2.77,1.6-4.86,1.1-.45-1.68-.6-3.18.99-4.64,1.81-1.67,1.19-4.81,3.47-6.31.62-4.09,3.57-6.96,5.46-10.38,1.84-3.32,3.82-6.53,5.84-9.74,3.21-5.12,6.13-10.42,9.25-15.6,1.42-2.35,2.9-4.67,4.56-6.85,1.51-1.97,2.31-4.2,3.31-6.41.77-1.71,2.39-3.05,3.22-4.9.29-.65.3-1.53,1.12-2.23,8.37.64,17.02-1,25.39,1.12.82,1.72-.6,2.09-1.25,2.86-3.3-1.76-6.87-.64-10.19-1.01-2.48.75-3.98,2.63-5.63,4.29-1.12,1.13-1.69,2.71-3.37,3.42-1.69.71-1.52,3.12-3.12,4-1.38.76-1.73,2.27-2.32,3.43-2.27,4.5-4.86,8.75-7.92,12.77-1.9,2.5-3.07,5.55-4.84,8.17-1.62,2.4-2.82,4.99-4.21,7.49-1.33,2.4-3.05,4.62-4.8,6.75-.74.9-.6,1.74-.66,2.62Z"/>
  <path class="cls-20" d="M240.46,323.44c-1.12,4.32,1.17,8.53.88,13.01-.28,4.34-.06,8.71-.06,12.1-.82,3.12-2.6,4.49-4.25,6.17h-7.73c-1.27-.65-2.73-1.39-4.38-2.23-.49-1.97-.83-4.24-1.68-6.31-.39-.96-.26-1.83-.45-2.72-.4-1.84.75-3.53.14-5.54-.59-1.92-.18-4.16-.11-6.26.06-2-.4-4.04.89-5.94.49-.73.04-1.87-.9-2.46,1.14-1.56,3.43-1.63,4.3-3.42,4.73.12,9.66-.88,13.34,3.6Z"/>
  <path class="cls-3" d="M187.02,104.38c-1.91,1.12-2.17,3.59-4,4.92.32,2.55-1.59,3.43-3.48,5.19-.92-3.86-1.7-7.04-2.42-10.25-.38-1.69.85-2.92,1.6-4.16.73-1.21,1.99-2.09,3.09-3.2.2-1.15.38-2.36-.32-3.68-2.23.54-3.08,2.7-4.92,3.9-1.74-1.32-2.22-3.2-2.47-5.43-.29-2.63-1.18-5.19-1.83-7.87,1.77.42,2.46.76,3.68,1.76,1.56,0,1.78-1.74,3.14-2.19-1.94-2.81-4.87-3.69-7.6-4.88-2.08-5.14-3.74-10.36-2.93-16.76,2.73,4.26,7.79,4.28,10.38,7.66.39,4.88,1.92,9.36,3.24,13.87.68,2.33,1.16,4.69,1.81,7.01.7,2.47.39,5.16,1.79,7.5.43.71.21,1.93.03,2.86-.27,1.39.47,2.38,1.19,3.77Z"/>
  <path class="cls-3" d="M163.81,383.03c-.29-.04-.6-.07-1.31-.16.79-3.6-1.47-6.9-.95-10.57.05-.32.15-.78-.02-.95-1.59-1.66-.29-4.04-1.43-5.72-.52-.78-.49-1.48-.48-2.24.03-3.43-.87-6.66-1.76-9.95-.57-2.1-.11-4.48-.11-6.47-.37-1.02-1.09-.85-1.79-.97-.99-3.3,1.36-5.77,1.93-8.67,1.58.73,1.71,2.31,2.68,3.88-.15,2.28.56,4.76,1.76,7.44,1.71,3.8,1.96,8.23,3.16,12.29.8,2.72.7,5.8,2.81,7.99-1.25,4.81-1.2,10-4.51,14.11Z"/>
  <path class="cls-3" d="M254.86,58.42c2.11,4.24,2.51,8.89,5.02,12.64-4.01,3.65-8.81,3.04-13.36,2.71-2.32-.17-4.86-.98-6.21-3.45.11-1.23-.11-2.42-1.13-3.05,1.05-2.61,3.45-3.11,5.07-4.5,1.68-1.44,3.89-2.26,5.77-3.5,1.4-.93,2.86-1.08,4.84-.85Z"/>
  <path class="cls-3" d="M156.67,86.61c-3.28-1.46-2.62-5.2-4.69-7.25-.49-2.34-.32-4.76,1.51-6.34.9-.77,1.63-1.39,2.35-2.41,1.55-2.2,3.71-3.98,5.67-5.88.65-.62,1.06-1.68,2.56-1.51.46,2.37.49,5.07,1.56,7.26,1.11,2.28,1.22,4.86,2.61,6.96-.74.7-1.6.13-3.01.61-2.48,2.48-5.42,5.42-8.55,8.56Z"/>
  <path class="cls-20" d="M161.14,101.45c-1.56-3.62-3.68-6.69-3.46-10.45,2.26-2.7,5.21-4.71,7.37-8.12.84-.33,2.03-1.47,3.82-1.19,2.39,3.64,1.53,8.54,4.27,12.14.63,1.86-.92,4.14,1.06,5.81-.95,1.15-1.95,2.04-3.63,1.25-2.02-.95-4.1-1.77-6.22-2.67-.9.91-1.86,1.88-3.2,3.23Z"/>
  <path class="cls-3" d="M71.19,327.34c.38-3.03,1.2-3.72,3.12-6.61,1.29-1.93,2.47-4.06,3.42-6.21,4.88-1.44,9.3-4.26,14.71-3.23v3.24c-1.37,1.77-3.36,2.89-4.17,5.14-.7,1.95-.85,4.23-3.17,6-2.03,0-4.6-.21-7.11.06-2.2.23-4.34,1-6.79,1.6Z"/>
  <path class="cls-20" d="M255.65,319.86h3.66c2.31,8.26,1.1,16.66,1.46,24.73-1.91,1.99-4.25,2.37-6.69,4.1.3-2.46-1.17-3.83-1.14-5.73.08-5.63.08-11.27.12-16.9,2.08-1.49-.45-4.58,2.6-6.2Z"/>
  <path class="cls-3" d="M99.45,280.41c2.87.13,4.92,3,7.58.52.96.44,1.9.88,2.84,1.32-1.15,2.37-1.32,5.27-3.71,6.99-.87,3.64-4.12,3.57-6.81,4.33-.96.27-6.66-.13-7.74-.4v-2.11c3.97-2.52,3.8-8.31,7.84-10.66Z"/>
  <path class="cls-20" d="M81.38,309.14c2.1-3.83,3.89-7.1,5.73-10.47,4.71-1.42,9.86-.92,15.01-2.48-.76,3.35-3.11,5.45-4.41,9.05-.45.39-1.65,1.42-3.45,2.98-1.35.2-3.62-.09-5.92.78-1.92.72-4.33.14-6.97.14Z"/>
  <path class="cls-3" d="M161.5,101.24c4.85,1.58,9.67,3.15,14.71,4.79-.46,3.72.7,7.01,1.59,10.44-.35.33-.81.77-1.26,1.19-2.99-.07-5.4-2.38-8.54-1.96-2.03-1.7-3.43-3.65-3.63-6.6-.11-1.67-1.15-3.44-2.2-4.83-.83-1.1-.3-2.14-.67-3.02Z"/>
  <path class="cls-24" d="M206.51,326.91c.29-.29.75-.75,1.25-1.25,3.16,8.69,2.32,17.72,2.42,26.66-.78,1.1-1.72,1.88-3.32,1.5-.36-.13-.38-.68-.62-.96-1.05-1.22-1.14-2.66-.86-4,.33-1.57.32-2.99,0-4.56-.34-1.64-.28-3.27-.89-4.98-.83-2.33,1.49-4.73.83-7.32,1.9-1.31.45-3.33,1.2-5.09Z"/>
  <path class="cls-33" d="M239.72,61.78c-.99-3.86-.18-6.85,2.62-8.71,1.88-1.24,3.47-2.67,5-4.24,1.21-1.25,3-1.62,4.14-3.01.34-.41,1.49-.34,2.33.17v8.21c-4.15,3.23-9.83,3.65-14.08,7.58Z"/>
  <path class="cls-33" d="M158.13,217.76c1.83.61,3.7-1.15,5.79-.08.35.18,1-1.21,2.3-.75.51,2.15,0,4.55.32,7.15-3.23,1.58-2.29,7.29-7.44,7.38-.9-2.24-1.6-4.56-2.25-6.8-.61-2.13-.51-4.69,1.28-6.9Z"/>
  <path class="cls-9" d="M133.38,410.35c3.24-.49,5.23,1.63,6.54,3.3,2.24,2.85,4.9,5.3,7.1,7.92-.04,2.25-.99,3.79-2.37,5.11-2.21-1.45-3.63-3.74-6.04-5.12-2.23-1.27-4.1-3.44-5.22-6.53v-4.69Z"/>
  <path class="cls-2" d="M170.31,359.7c1.47.6,1.75,2.09,1.86,3.27.16,1.71,1.61,2.57,1.89,4.08.46,3.76-1.04,7.01-2.44,10.5-2.66,6.64-6.07,13.02-7.28,20.25-.45,2.71-1.94,5.41-4.12,7.46-.91-.17-.71-.95-.58-1.42,1.15-4.02,1.95-8.18,4.12-11.84,1.4-2.37,2.4-4.8,2.74-7.6.21-1.7,1.22-3.35,2.04-4.94,3.27-6.38,3.54-8.67,1.78-15.9-.15-.61-.02-1.29-.02-1.93-.56-.65-.55-1.3,0-1.94Z"/>
  <path class="cls-9" d="M176.93,279.23c-.03,3.13,1.81,4.93,1.05,7.2-1.03.57-2.41.68-2.8,2.11-.15,1.52,1.85,1.67,1.95,3.04.08,1.21-.42,2.59.95,3.45-1.16.86-.89,2.7-2.36,3.34-1.53-1.11-2.06-2.76-2.87-4.42-1.03-2.1.04-3.42.25-5.15.4-3.29,1.44-6.14,3.82-9.58Z"/>
  <path class="cls-33" d="M116.52,277.27c1.11-1.61,2.53-2.85,2.95-4.4,3.51-1.95,7.33-1.16,10.54-2.64.82,1.05.35,1.61-.26,2.21-2.17,2.13-4.31,4.29-6.68,6.67-.52-.75-1.04-1.51-1.31-1.89-2-.48-3.09,2-5.24.06Z"/>
  <path class="cls-9" d="M113.93,290.68c-.12.59.33,1.33-.33,1.78-3.47,2.35-4.14,6.9-7.43,9.39-.2,2.17-2.36,2.82-3.29,4.37-.64-.24-.8-1.1-1.58-.95.75-3.69,2.96-6.59,5.15-9.49.4-.53.84-.95.66-1.66,1.61-1.16,3.79-1.35,5.03-3.09.48-.67,1.2-.21,1.79-.34Z"/>
  <path class="cls-6" d="M113.93,290.85v-1.61c-1.01-1.14-2.43-.09-3.63-.67,1-2.85,2.36-5.44,4.98-7.38,1.65.06,3.1-1.6,5.04-1.13.78.62.19,1.5.56,2.36-3.38,1.88-3.42,6.48-6.95,8.43Z"/>
  <path class="cls-12" d="M107.35,272.47c2.71-.96,5.17-1.82,7.46.14-.89,1.68-2.36,3.13-1.81,5.2h-9.97c.75-2.77,3.24-3.73,4.31-5.35Z"/>
  <path class="cls-6" d="M156.81,329.12c-.21-2.67-.43-4.76-.93-6.82-.81-3.33,1.37-5.96,3.2-8.25,1.4-.18,1.66.79,2.38,1.27,0,1.34,0,2.74,0,4.13-2.92,2.31-2.08,6.43-4.66,9.67Z"/>
  <path class="cls-10" d="M162.84,301.29c1.02.96,1.84,1.74,2.32,2.2,1.02,2.51-.84,4.2-.76,6.34-1.19.46-2.39.38-3.7.08v-7.18c.54-.74,1.75-.02,2.14-1.45Z"/>
  <path class="cls-27" d="M101.3,305.22c-.06,3.63-.21,3.52-3.65,8.19-1.43,1.95-2.84,4.01-4,6.11-.72,1.31-1.75,2.13-2.6,3.26-.03-2.95,4.43-10.24,9.07-14.89.71-.74-.6-2.37,1.17-2.68Z"/>
  <path class="cls-6" d="M257.8,54.44c-.17-.91.41-1.94-.33-2.74-1.44-1.57-.11-3.27-.67-4.52.71-.71,1.05-1.05,1.64-1.64,1.36,1.33,3.72.6,5.17,2.61-2.11.7-3.36,2.42-4.83,3.88,0,.8,0,1.6,0,2.41-.32.38-.65.38-.97,0Z"/>
  <path class="cls-17" d="M257.8,54.44h.97c1.01.21,1.54.94,1.93,1.75.15.85-.53,1.14-.91,1.62,1.04,1.12,1.94,2.44,3.61,2.72.9,1.91-.32,2.82-1.33,3.69-2.35-.33-2.07-2.51-3.27-3.43-.21-2.14.54-4.43-1-6.35Z"/>
  <path class="cls-8" d="M265.4,56.4c-1.22-.36-.61-2.05-1.67-2.41,1.37-1.97,2.01-5.06,5.93-4.18-1.24,2.5-1.03,5.56-4.26,6.59Z"/>
  <path class="cls-15" d="M168.16,291.7c.6,2.75.06,4.92-1.89,7.65-.84-2.46-1.42-4.18-1.92-5.66.77-1.86,1.98-2.29,3.81-1.99Z"/>
  <path class="cls-4" d="M168.6,303.57c.68-.9,1.54-1.51,3.31-1.1.47.64,1.22,1.65,2.28,3.07,0-.09,0,.55,0,1.19-.61.82-1.48.34-2.33.5-1.01-1.14-2.07-2.32-3.26-3.66Z"/>
  <path class="cls-2" d="M132.16,265.55c-3.42,1.8-6.48,1.33-9.19,2.61-.79-.62.08-1.6-.55-2.61h9.74Z"/>
  <path class="cls-14" d="M149.19,244.6c-1.6.56-2.78.5-4.05.15v-3.27c.43-.43.87-.87,1.72-1.72-.38,2.25,1.78,2.81,2.33,4.84Z"/>
  <path class="cls-5" d="M134.94,259.7c.92-1.49,2.35-.83,2.72-1.99,2.09,1.22,1.69,2.97,1.28,4.89-2.11-.25-2.67-1.86-4.01-2.9Z"/>
  <path class="cls-21" d="M145.96,247.04c1.91-.3,2.23.84,3.08,1.41-.35,1.38-1.08,2.52-2.34,3.9-1.05-2.02-.51-3.64-.74-5.31Z"/>
  <path class="cls-26" d="M142.39,250.75c2.21,1.4,1.74,3.08,1.48,4.7-1.54.78-1.9-.69-2.72-1.21-.2-1.34,1.22-2.02,1.24-3.49Z"/>
  <path class="cls-11" d="M170.31,359.7v1.94c-1.33-2.22-2.64-6.38-2.7-9.45.8,1.87,1.58,2.95,1.65,4.07.08,1.29,1.52,2.07,1.05,3.44Z"/>
  <path class="cls-29" d="M131.33,260.84v1.47h-4.62q1.56-1.68,4.62-1.47Z"/>
  <path class="cls-30" d="M148.48,254.6c.83-1.66,1.4-2.79,1.88-3.76,1.46-.12,1.58.6,1.48,1.46-.18,1.55-.85,2.54-3.36,2.3Z"/>
  <path class="cls-19" d="M143.8,260.2c1.7.82,1.2,1.94,1.09,2.9-.32.57-.85.29-1.33.37-.77-.98-.75-1.95.23-3.27Z"/>
  <path class="cls-11" d="M156.99,412.11c-.67-1.7-.28-2.89,1.38-3.71.67,1.7.28,2.89-1.38,3.71Z"/>
  <path class="cls-1" d="M170.67,296.26c.7,1.4,1.24,2.48,1.89,3.79q-2.04-.93-1.89-3.79Z"/>
  <path class="cls-12" d="M234.96,67.12c-.77-1.02-.77-1.99,0-3.01.77,1.02.77,1.99,0,3.01Z"/>
  <path class="cls-20" d="M356.29,134.88c3.03,3.05,6.05,5.76,8.67,8.82,3.53,4.12,8.11,6.83,12.45,9.84,1.75,1.21,2.89,2.95,4.73,4.21.05.71.11,1.48.18,2.45h4.9c5.14,4.4,10.92,7.3,16.4,11.21-3.41,4.47-9,5.36-13.55,8.49-3.99-.46-8.29.18-12.31,1.96-3.23,1.43-6.5.64-9.49.94-1.3-.74-1.47-1.88-2.04-3-2.37.85-4.29-1.73-6.74-.81-1.34-2.2-.88-5.13-3.01-6.86-.44.37-.8.67-1.12.94-.38-.06-.77,0-.97-.18-2.97-2.61-4.12-6.06-4.22-9.87-.11-4.04.06-8.08-.05-12.12-.08-2.84,1.81-5.42.85-8.38,2.97-1.63,1.67-6,5.32-7.64Z"/>
  <path class="cls-20" d="M272.08,208.53c1.13-1.63,1.31-3.28,2.62-4.26,1.41,0,2.82,0,4.11,0,.68.68,1.26,1.26,1.86,1.86,3.84-.48,7.09,1.35,10.41,2.98.4-.32.76-.62,1.13-.92,2.71,1.65,5.62,2.58,8.89,2.87,2.98.26,5.63,2.43,8.66,1.82,2.3,2.23,5.27,1.94,7.79,2.91,4.9,1.88,10.01,2.74,15.27,3.02,2.29.12,4.46,1.5,6.7.73,1.44,1.31,3.51,1.31,4.09,3.09h3.11c1.04.85,1.9,1.78,1.39,3.51-1.03.94-2.21,2.02-3.74,3.42-4.52-1.28-9.64-1.53-14.47-3.85-3.3-1.58-7.07-2.53-10.83-3.17-2.34-.4-4.91-.53-6.94-1.9-1.87-1.27-4.25-.57-6.02-1.9-3.23.56-5.96-1.33-8.85-2.12-2.84-.78-5.77-1.56-8.58-2.65-2.65-1.03-5.6-1.39-8.34-2.16-2.68-.76-5.65-1.19-8.27-3.27Z"/>
  <path class="cls-3" d="M344.97,216.63c-2.17.67-3.76-.42-5.6-1.29.79-3.48,1.89-6.89,3.43-10.15,2.37-5.01,5.07-9.89,6.32-15.34.25-1.1.96-1.6,1.59-2.26.69-.71.26-1.52.48-2.49,1.04-.95,2.23-2.03,3.57-3.25q2.71.04,5.9,2.1c.2,1.34.2,2.59-.65,4.19-1.47,2.79-2.11,5.88-4.46,8.39-2.1,2.24-3.09,5.49-4.44,8.31-1.66,3.5-4.71,6.4-4.98,10.57-.02.36-.64.69-1.17,1.21Z"/>
  <path class="cls-33" d="M348.96,217.03c3.09-10.25,10.25-18.05,14.2-27.52,3.29.23,2.05,3.52,3.59,4.94-1.12,1-.78,2.56-1.42,3.75-1.22,2.26-2.24,4.7-3.85,6.63-1.32,1.59-2.19,3.34-2.96,5.13-1.72,4.02-4.05,7.71-5.89,11.66-1.72-1.21-1.91-3.5-3.66-4.59Z"/>
  <path class="cls-9" d="M403.24,182.21c-1.91,1.13-2.96,1.75-4.26,2.53-4.36-1.15-8.27,2.81-12.91,1.92-4.06,1.93-8.57,1.87-12.58,3.12-1-.74-1.91-1.15-1.98-2.69,2.54-.77,5.39-1.2,7.81-2.47,2.79-1.46,5.59-.44,8.34-.96.56-.56,1.13-1.13,1.76-1.76,5.11-.02,9.14-3.34,13.94-5.15.83,2.15-2.21,3.59-.12,5.46Z"/>
  <path class="cls-14" d="M399.29,126.43c.36.36.7.7,1.26,1.26-2.18,5.18-7.3,8.65-8.67,14.82-1.86-2.87-.64-4.98.69-6.36,1.78-1.84,2.88-4.01,3.91-6.18.7-1.48,1.68-2.52,2.81-3.55Z"/>
  <path class="cls-31" d="M392.08,159.72c1.86-.22,2.64-.26,3.38-.43.27-.06.46-.43.7-.67,1.7.87,3.4,1.74,4.77,2.44,1.27,1.33.09,3.07,1.27,4.31-3.1-1.73-6.19-3.46-10.12-5.66Z"/>
  <path class="cls-14" d="M374.08,147.9c-1.98-2.04-3.87-3.39-4.13-5.87,4.41,1.87,6.65,3.82,8.68,7.92-1.87-.89-2.74-3.03-4.56-2.05Z"/>
  <path class="cls-20" d="M370.23,137.28c-2.19-1.66-4.68-1.05-6.88-1.19-.62-.57-1.09-1-1.61-1.47,1.77-.84,3.34-.66,4.73.5.85.17,1.12-.55,1.27-.65.8.91,1.57,1.78,2.48,2.81Z"/>
  <path class="cls-28" d="M403.13,120.55c-1.45-1.45-2.67-2.67-3.45-3.46,2.44-.13,3.71.87,3.45,3.46Z"/>
  <path class="cls-20" d="M263.09,274.24c3.08,1.96,6.4,3.28,10.36,4.07-.55,3.46.45,6.95-.91,10.6-.84,2.27-.16,5.11-.16,7.69v5.79c-3.53-1.07-6.68-1.95-9.79-2.98-2.58-.85-2.13-3.51-2.76-5.37-.98-2.92,1.48-5.72.92-8.75,1.8-1.55.81-3.62.86-5.43.06-2.07.35-3.97,1.46-5.62Z"/>
  <path class="cls-15" d="M288.07,63.46c.73.43,1.4.82,1.8,1.05.1,1.54-.89,1.89-1.49,2.55-.81-1.32-.31-2.6-.31-3.61Z"/>
  <path class="cls-7" d="M267.06,154.64c-.69-.75-.66-1.29-.18-1.89,1.07.37.77.99.18,1.89Z"/>
  <path class="cls-16" d="M186.27,154.67c2.75-.35,5.17.51,7.37-1.02.52-.36,1.41.2,2.16.5,1.56.62,2.55,1.78,3.67,2.82.13,2.18-.35,4.38.94,6.44.55.88-.3,1.76-.94,2.49-.06,1.26,1.53,1.96,1.05,3.49-.32,1.03-.08,2.25-.06,3.38.02.95-.27,2.39.22,2.76,1.64,1.23-.84,1.72-.26,2.77.9,1.65.99,3.51,1.08,5.4.08,1.81-.85,3.78.83,5.5.49.5.07,1.87.07,2.84,0,3.08.21,6.17-.06,9.22-.27,3.06,1.93,5.75.69,9.43-2.34,3.97-6.73,3.24-10.93,3.09l-1.08-1.08c-1.01-7.24-1.26-14.65-3.95-22.56.55-1.46-1.19-3.52-1.23-5.86-.03-2.16.31-4.3-.84-6.45-.61-1.13-.09-2.86-.11-4.31-.02-1.19-.94-2.18-.08-3.62.97-1.61-.45-3.46-1.04-4.82-1.88-4.33-.71-7.52,2.49-10.42Z"/>
  <path class="cls-16" d="M213.18,276.21c1.22-.07,2.31-.13,3.48-.2.73-1.5,2.52-1.65,3.67-2.71,1.58,1.39,3.58,1.33,5.16.45,1.69-.94,3.55-.4,5.28-1.39,1.33-.76,3.45-.15,5.15-.15,2.79,2.38,2.82,5.84,3.25,8.88.31,2.15.43,4.62,1.44,6.19,1.24,1.92-.5,4.29,1.52,5.72-1.67,2.1-.15,4.7-.99,6.76-.47,1.13-.53,2.93-2.19,3.56-1.76,0-3.53.03-5.29,0-3.44-.06-6.59,1.01-9.74,2.24-1.66.65-3.21,1.68-5.13,1.69-1.08,0-1.86-.27-2.44-1.2-.68-.98-.46-2.17-.3-3.2.52-3.37-.97-6.49-1.08-9.78-.05-1.51,1.06-3.15.47-4.19-.79-1.37.35-2.92-.88-4.02-1.29-1.15.1-2.98-1.25-4.4-.7-.74-.12-2.7-.12-4.24Z"/>
  <path class="cls-25" d="M213.43,183.72c-2.72.14-2.94-1.88-3.79-2.12-1.71-2.66,1.72-3.09,1.45-4.86-.31-2.13,2.55-2.45,2.11-4.55h3.39c1.72,2.17,1.38,4.72,1.35,6.09-.7,3.64-3.4,3.9-4.51,5.44Z"/>
  <path class="cls-25" d="M216.9,191.46c2.27.82,2.87,2.88,3.96,4.95-1.48.9-.32,3.34-2.36,4.67h-4.12c-1.66-1.61-3.5-3.34-3.21-6.23,1.57-1.78,4-2.08,5.73-3.39Z"/>
  <path class="cls-23" d="M208.25,160.92c2.12-2.27,1.67-5.83,4.2-8.13h3.23c.28.28.72.74,1.18,1.21q.14,4.91-2.19,8.24c-1.65,0-3.37,0-5.09,0-.45-.45-.91-.9-1.33-1.33Z"/>
  <path class="cls-20" d="M188.66,189.15c.79-1.98,2.02-4.14.13-6.31-.08-.09-.03-.32,0-.48.74-5.11-1.56-10.05-.94-15.13.35-2.89-1.76-5.43-.88-8.35,2.25-.75,4.52-1.87,7.45-1.23,1.12.46.95,2.28,2.15,3.22,0,2.84.26,5.77-.08,8.64-.29,2.48,1.45,4.43,1.12,6.9-.32,2.39-.71,5.09.09,7.22,1.13,3.01.94,5.97.73,8.87-.39,5.44,1.59,10.68,1.02,16.06l-1.41,1.41h-2.88c-1.47-.64-1.31-2.45-2.57-3.45.96-3.11-1-6-.98-9.18.02-2.87-1.73-5.39-2.95-8.2Z"/>
  <path class="cls-20" d="M233.02,276.1c1.03,1.03,1.71,1.71,2.43,2.43,0,1.89-.74,4.37.18,5.62,1.25,1.69.3,3.59,1.58,5.27.88,1.15.28,3.49,1.07,5.3.62,1.42-1.41,2.69-.95,4.41-2.84,1.01-5.8-.1-8.77,1.09-2.53,1.02-5.18,2.79-8.43,2.01-2.25-8.03-1.92-16.46-3.45-24.99,2.97,1.33,5.73.6,8.64.86.53-.66,1.13-1.41,1.6-2h6.09Z"/>
</svg>