<?xml version="1.0" encoding="UTF-8"?>
<svg id="Livello_1" data-name="Livello 1" xmlns="http://www.w3.org/2000/svg" viewBox="0 0 489 489">
  <defs>
    <style>
      .cls-1 {
        fill: #6d6d6d;
      }

      .cls-1, .cls-2, .cls-3, .cls-4, .cls-5, .cls-6, .cls-7, .cls-8, .cls-9, .cls-10, .cls-11, .cls-12, .cls-13, .cls-14, .cls-15, .cls-16 {
        stroke-width: 0px;
      }

      .cls-2 {
        fill: #dcdcdc;
      }

      .cls-3 {
        fill: #8c8c8c;
      }

      .cls-4 {
        fill: #2f2f2f;
      }

      .cls-5 {
        fill: #020202;
      }

      .cls-6 {
        fill: #101010;
      }

      .cls-7 {
        fill: #ddd;
      }

      .cls-8 {
        fill: #161616;
      }

      .cls-9 {
        fill: #fefefe;
      }

      .cls-10 {
        fill: #090909;
      }

      .cls-11 {
        fill: #121212;
      }

      .cls-12 {
        fill: #0a0a0a;
      }

      .cls-13 {
        fill: #696969;
      }

      .cls-14 {
        fill: #0c0c0c;
      }

      .cls-15 {
        fill: #0e0e0e;
      }

      .cls-16 {
        fill: #fcfcfc;
      }
    </style>
  </defs>
  <path class="cls-5" d="M270.91,200.12c.11,1.33.69,2.08,1.45,2.75,3.88,3.39,6.18,7.87,8.24,12.42,1.58,3.48,2.86,7.14,2.82,11.09-.04,4.26.24,8.53-.07,12.77-.45,6.24-1.76,12.36-4.44,18.06-.47.99-.5,1.86-.65,2.92-3.07,2.04-4.57,5.55-7.15,8.18-5.68,5.8-12.53,8.38-20.48,8.58-1.61.04-3.36-.48-4.71.99-.16.17-.69.12-.99,0-4.04-1.58-8.43-1.47-12.57-2.9-4.48-1.55-8.24-4.11-12.07-6.6-5.17-3.35-8.77-8.42-12.79-12.93-3.88-4.34-5.61-9.82-6.05-15.87-.41-5.67,1.77-10.49,3.42-15.52.79-2.42.96-5.06,2.13-7.27,1.8-3.4,3.32-6.95,6.35-9.69,2.36-2.13,3.72-5.23,6.83-6.81,1.55-.79,2.93-1.75,4.67-2.33,2.96-.99,5.81-2.46,8.53-4.03,4.08-2.36,8.16-2.73,12.61-1.17,1.36.48,3.01.25,4.52.16,3-.18,5.7.94,8.5,1.69,3.73,1,6.61,3.69,10.14,5.1.46.19.87.39,1.75.39Z"/>
  <path class="cls-9" d="M271.66,206.52c1.53,2.6,1.53,3.45,1.53,4.28,1.58,2.06,4.1,3.29,4.49,6.4.12.97.45,2.16.63,3.27.44,2.71.88,5.42,1.37,8.13.05.28.44.49.91.99-1.51,1.3-1.28,3.14-1.27,4.95.01,2.39-.05,4.77.02,7.16.07,2.16-1.67,3.99-1.04,6.22-2.1,5.11-2.72,10.88-6.97,15.02-.9.88-1.34,2.22-2.22,3.14-3.55,3.75-7.74,5.86-13,6.93-5.73,1.16-11.4,1.02-16.97.62-5.71-.4-10.94-3.16-15.48-6.88-2.96-2.43-5.97-4.77-8.63-7.57-2.06-2.17-3.89-4.6-5.57-6.96-1.94-2.72-2.99-6.31-3.59-9.67-.29-1.61-1.34-2.9-1.28-4.66.1-2.84,1.44-5.27,1.94-7.88.5-2.57,2.3-4.48,2.44-7.29.11-2.28,1.57-4.69,2.76-6.97,3.95-7.6,8.98-14.3,18.96-16.72.69-.17,1.84-.77,2.02-1.07,1.37-2.25,3.88-1.53,5.7-2.46,2.11-1.07,4.01-.53,6.04.44.97.46,2.35.09,3.54.08,1.8-.02,3.65-.26,4.94,1.26.62-.57.99-.9,1.32-1.2,1.27,1.05,2.55,1.98,4.31,2,.8,0,1.66-.3,2.35.49,2.09,2.38,5.87,1.82,7.81,4.66,1.17,1.72,2.93,3.03,2.92,3.28-1.79-1.05-1.96-.77-2.04-.43,0,0-.26.42-.26.42,0,0,.29-.4.29-.4.08-.33.23-.62,2.01.41Z"/>
  <path class="cls-5" d="M243.51,223.69v-5.67q-2.04-3.27-5.02-3.96v-2.05c1.77-3.04,5.58-3.94,7.52-6.75h10.99c3.42,1.55,5.65,3.62,6.03,7.31.11,1.11,1.12,2.06,2.52,1.87,1.26-.17,1.71.87,2.75,1.72-1.21.95-2.38,1.87-3.24,2.54v3.34c.54,1.6,2.33,1.3,3,2.3.19,1.21-.82,1.51-1.31,2.2-1.04-.11-1.67-1.89-2.42-1.1-1.81.75-1.31,2.37-2.41,2.95-.16,1.36,1.87,2.11,1.04,3.65-.47.87-.99,1.71-2.08,1.85-1.57-.36-1.9-1.66-2.32-2.88-1.96-.21-3.57-1.33-5.31-1.97-1.69-.62-2.37-2.67-4.67-2.46-1.95.18-2.33-3.27-5.08-2.9Z"/>
  <path class="cls-10" d="M209.79,226.44c2.58,1.93,3.19,4.09,3.08,6.63-.18,4.11.93,7.92,2.88,11.65-.18.21-.49.56-.94,1.07,3.41,1.59,3.83,5.48,6.09,8.12v3.4c-.59,0-1.33.18-1.47-.03-1.9-2.93-3.64-5.96-5.58-8.85-1.62-2.42-1.98-5.31-2.87-7.95-.53-1.55-.97-3.4-1.13-5.12-.26-2.81-.07-5.67-.07-8.93Z"/>
  <path class="cls-10" d="M231.82,249.21c-2.7.19-5.28.09-7.49-2.34-.57-1.12-.05-2.65-.26-4.33.81-.66,1.71-1.4,2.97-2.42h4.89c.6.71,1.45,1.71,2.44,2.88.21,2.31-.72,4.46-2.54,6.21Z"/>
  <path class="cls-15" d="M240.47,252.38c1.64.4,2.13-1.34,3.71-1.03.57.7,1.31,1.61,2.17,2.66-.77.48-2.16.6-2.76,1.88.41.43.84.9,1.33,1.42.49-.3.98-.6,1.48-.91,1.23-.08,1.58,1.02,2.24,1.68.23,1.29-.98,1.64-1.52,2.42h-4.12c-1.14-1.18-2.31-2.39-3.54-3.66-.8-1.53,1.15-2.51,1-4.46Z"/>
  <path class="cls-6" d="M235.36,263.52c6.34,1.18,12.29,2.3,18.32,3.42v1.84c-3.39-.34-6.71.44-9.98-.47-2.87-.8-5.85-1.39-8.34-3.29v-1.5Z"/>
  <path class="cls-14" d="M259.47,234.88c.76,1.03,1.77,1.36,1.37,2.53-.13.13-.35.54-.57.55-4.11.09-8.17.01-10.79-4.1.89-1.42,2.16-1.35,2.99-.67,2.09,1.72,4.44,1.86,7,1.69Z"/>
  <path class="cls-12" d="M228.72,221.68c1.55-.28,2.55.15,3.43,1.41v2.91c-.84.83-1.85,1.83-2.83,2.79-2.14-.26-1.84-2.55-3.08-3.51,1.05-.99.98-2.71,2.47-3.61Z"/>
  <path class="cls-8" d="M240.47,225.19c-.48.48-.97.96-1.52,1.52-.59-.51-1.18-1.03-1.48-1.28-.28-1.77,1.05-1.93,1.39-2.96.59.95,1.61,1.2,1.61,2.73Z"/>
  <path class="cls-7" d="M263.99,203.19c-1-.13-1.44-.92-1.97-1.65.92-.57,1.71-.81,1.97.63.23.23.31.45.23.68-.08.23-.15.34-.23.34Z"/>
  <path class="cls-3" d="M263.99,203.19v-1.02c.5-.04.95.07.81.68-.04.17-.53.23-.81.35Z"/>
  <path class="cls-1" d="M269.1,206.26c-.03-.71.31-1.05,1.02-1.02v1.02c-.34.27-.68.27-1.02,0Z"/>
  <path class="cls-4" d="M269.1,206.26h1.02c.04.5-.07.95-.68.81-.17-.04-.23-.53-.35-.81Z"/>
  <path class="cls-16" d="M262.34,220.23c-3.21-1.74-3.91.97-5.65,1.62-2.18-1.09-4.46-1.89-6.35-3.25-2.85-2.05-3.68-4.74-3.47-9.02,1.06-1.35,2.68-1.68,3.97-2.26,1.74-.37,2.63,2,4.23.8,3.5,3.09,4.94,7.18,7.28,12.11Z"/>
  <path class="cls-13" d="M259.39,226.74c-.74-.69-.74-1.37,0-2.07.74.69.74,1.37,0,2.07Z"/>
  <path class="cls-11" d="M255.3,224.69c.48.33.48.67,0,1.01-.48-.33-.48-.67,0-1.01Z"/>
  <path class="cls-2" d="M229.64,242.77c.7,1.47,1.08,2.26,1.46,3.05q-2.46.14-3.92-1.94c.4-1.65,1.77-.2,2.46-1.11Z"/>
</svg>