<?xml version="1.0" encoding="UTF-8"?>
<svg id="Livello_1" data-name="Livello 1" xmlns="http://www.w3.org/2000/svg" viewBox="0 0 489 489">
  <defs>
    <style>
      .cls-1 {
        fill: #fff;
        stroke-width: 0px;
      }
    </style>
  </defs>
  <path class="cls-1" d="M336.94,148.95c.07-1.96-.19-3.85-1.1-5.62-.12-.23-.13-.51-.25-.73-.16-.29-.34-.61-.59-.82-.82-.67-1.44-1.61-2.57-1.87-.16-.04-.28-.2-.43-.28-1.27-.62-2.33-1.58-3.65-2.15-1.09-.47-2.1-1.15-3.15-1.73-.37-.2-.75-.42-1.16-.54-.8-.23-1.48-.61-2.14-1.13-.94-.74-1.95-1.4-3.08-1.84-1.19-.46-2.39-.92-3.66-1.41-.22-.27-.49-.6-.71-.87-1.63-.51-3.18-.98-4.73-1.48-.28-.09-.6-.19-.81-.38-1.35-1.22-3.11-1.63-4.71-2.32-1.87-.81-3.89-1.28-6.05-1.96-.19-.15-.57-.44-.94-.72-.82-.14-1.6-.36-2.36-.65-.69-.27-1.37-.46-2.12-.41-.42.03-.87-.01-1.28-.12-1.29-.33-2.57-.65-3.8-1.18-1.3-.56-2.64-1.01-3.97-1.52-.24-.09-.49-.18-.69-.33-1.02-.75-2.2-.94-3.41-.96-.8,0-1.52-.12-2.18-.61-.54-.39-1.17-.52-1.84-.45-.43.04-.87.02-1.28.12-.99.24-1.95.13-2.93-.11-.49-.12-1.04-.2-1.51-.08-1.01.25-2.02.36-3.06.33-.94-.03-1.87.26-2.82.08-.23-.04-.5.1-.74.17-.29.08-.57.18-.86.24-.88.19-1.76.37-2.64.56-.5.11-.99.31-1.5.37-1.96.24-3.92.43-5.88.64-.43.05-.85.12-1.28.15-.77.05-1.54.14-2.3.1-1.95-.11-3.83.36-5.74.62-.16.02-.31.14-.48.19-.25.07-.49.15-.75.18-1.53.19-3.05.56-4.53.18-.42.23-.76.41-1.02.55-.64.1-1.2.15-1.74.27-2.43.56-4.86,1.04-7.35,1.26-1.28.12-2.54.43-3.81.62-1.69.26-3.39.52-5.09.72-1.13.14-2.29.5-3.54-.14-.37-.8-.48-1.64-.5-2.5-.07-2.1-.21-4.2-.21-6.3,0-2.17-.17-4.33.47-6.5.51-1.73,1.11-3.42,1.74-5.1.07-.2.19-.39.31-.56.59-.85,1.17-1.69,1.78-2.53,1.11-1.52,2.45-2.74,4.26-3.4.35-.13.7-.36.96-.63.85-.88,1.9-1.48,3-1.93,1.6-.65,2.79-1.77,3.99-2.94.97-.94,1.61-2.12,2.41-3.17.28-.37.49-.8.72-1.2.13-.22.19-.49.35-.68.8-.91,1.35-1.96,1.91-3.03.52-.99,1.04-1.94,1.3-3.05.76-3.21,1.6-6.41,1.54-9.75,0-.17.01-.34.03-.51.24-2.51.7-5.01.83-7.53.11-2.31.43-4.62-.07-6.93-.05-.25-.02-.51-.03-.77-.04-1.58.15-3.16-.04-4.75-.18-1.57-.18-3.17-.34-4.75-.18-1.83-.44-3.66-.69-5.48-.12-.89-.21-1.8-.46-2.65-.35-1.19-.83-2.34-1.27-3.5-.09-.24-.22-.48-.4-.65-.96-.98-1.84-2.02-3.02-2.78-1.29-.83-2.66-1.16-4.16-1.04-.9.07-1.79.16-2.68.26-1.07.13-2.03.5-2.47,1.58-.31.75-.57,1.53-.73,2.33-.47,2.36-.72,4.75-.53,7.16.05.63,0,1.29-.09,1.92-.35,2.3-.31,4.61-.38,6.93,0,.21.05.43.06.64.03,1.19.06,2.38.08,3.58,0,.08-.04.17-.04.25-.04.64-.11,1.28-.12,1.91-.01.9.06,1.8.02,2.7-.05,1.16-.21,2.31-.27,3.46-.1,1.67-.12,3.35-.24,5.01-.15,2.04-.08,4.12-.95,6.05-.1.22-.08.51-.11.76-.15,1.11-.34,2.2-.8,3.23-.61,1.37-1.16,2.77-1.73,4.16-.51,1.26-1.2,2.38-2.4,3.1-.88.53-1.73,1.19-2.69,1.48-2.38.73-4.81,1.27-7.34,1.18-.47-.02-.94.08-1.41.12-.34.04-.68.12-1.02.12-2.45,0-4.89,0-7.34,0-.61,0-1.18-.09-1.75-.32-.46-.19-.99-.21-1.5-.3-.97-.18-1.97-.26-2.9-.56-1.38-.45-2.73-1.03-4.07-1.6-.71-.3-1.37-.7-2.05-1.06-.68-.37-1.35-.75-2.02-1.14-.19-.1-.39-.19-.54-.33-1.4-1.26-2.8-2.52-4.18-3.79-.28-.26-.49-.59-.73-.89-.19-.23-.33-.53-.56-.7-1.06-.73-1.55-1.93-2.39-2.85-.22-.24-.32-.6-.45-.92-.12-.27-.2-.57-.32-.84-.72-1.57-1.16-3.21-1.3-4.94-.13-1.62-.37-3.23-.56-4.85-.05-.47-.14-.94-.14-1.4,0-.82-.04-1.63-.38-2.32,0-1.79.63-3.47.14-5.01.2-.67.43-1.15.48-1.65.11-1.11.18-2.22.19-3.33,0-.64-.19-1.28-.18-1.91.04-1.83-.46-3.57-.84-5.33-.42-1.93-1.56-3.39-3.11-4.56-.23-.17-.53-.28-.82-.35-1.97-.45-3.5.42-4.88,1.7-.12.11-.19.28-.25.44-.21.52-.48,1.02-.59,1.56-.15.7-.31,1.46-.2,2.15.17,1.14.21,2.21-.24,3.01-.1.85-.16,1.44-.24,2.04-.1.81-.27,1.61-.31,2.42-.06,1.24.03,2.48-.07,3.72-.16,2.05.14,4.01.75,5.96.07.24.04.5.07.76.25,2,.52,4,.27,6.02,0,.04.01.08.01.13.02.99.06,1.97.07,2.96,0,1.19-.26,2.38.03,3.58.1.43-.08.93-.1,1.4-.02.38-.08.78.01,1.14.18.69.12,1.36.03,2.04-.06.42-.15.87-.07,1.27.37,1.88,1.13,3.59,2.29,5.12.41.54.87,1.09,1.12,1.71.53,1.28,1.42,2.19,2.49,3.03,1.15.91,2.48,1.51,3.68,2.35.55.38,1.23.63,1.89.78,1.92.45,3.86.81,5.79,1.24.62.14,1.24.34,1.83.59,1.93.82,3.82,1.75,5.77,2.51,1.3.51,2.43,1.27,3.55,2.05.64.44,1.12,1.05,1.43,1.79.33.79.72,1.55,1.08,2.33.05.12.08.24.11.37.18.88.39,1.76.53,2.65.28,1.73.53,3.47.78,5.21.09.64.16,1.28.25,1.91.22,1.53.33,3.08.69,4.57.37,1.52.42,3.06.59,4.59.2,1.7.25,3.42.44,5.13.09.8-.06,1.44-.74,1.91-.13.03-.26.07-.38.09-1.49.23-2.95.56-4.28,1.33-.38.22-.9.24-1.36.27-.55.04-1.13-.08-1.67.02-1.94.33-3.89.67-5.81,1.12-.93.22-1.85.34-2.79.38-.47.02-.96.02-1.4.15-1.28.39-2.6.51-3.92.67-.76.09-1.51.31-2.26.47-.58.12-1.17.26-1.76.33-.68.07-1.37.08-2.05.1-1.42.04-2.8.36-4.2.57-2.16.33-4.34.52-6.5.8-1.79.23-3.57.48-5.32.93-1.2.31-2.44.48-3.67.65-1.23.18-2.47.27-3.7.44-.8.11-1.6.3-2.4.45-1.14.21-2.28.4-3.41.63-1.05.21-2.07.56-3.17.43-.32-.04-.67.11-1,.2-1.9.54-3.79,1.09-5.78,1.2-.25.01-.5.12-.75.18-.33.07-.66.17-1,.19-1.89.09-3.76.32-5.55,1-.31.12-.67.11-1.01.15-.25.03-.53,0-.76.08-1.13.4-2.25.83-3.37,1.26-.76.29-1.51.6-2.27.9-.24.1-.51.17-.69.34-.89.82-1.66,1.72-2.05,2.91-.42,1.3-.51,2.61-.36,3.94.19,1.66.4,3.32.6,4.98.02.13.04.27,0,.38-.25.9-.06,1.81.08,2.68.23,1.44.23,2.9.67,4.32.22.73.24,1.52.32,2.29.1,1.06,0,2.15.45,3.17.08.19.06.42.09.63.11.89.22,1.78.34,2.67.14,1.02.39,2.04.4,3.06.03,2.42.61,4.76.95,7.13.28,1.99.64,3.98.89,5.97.27,2.21.56,4.42.87,6.63.21,1.53.55,3.04.41,4.6-.02.21.02.43.04.64.18,2.09.36,4.19.53,6.28.02.21,0,.43.02.64.03.56.06,1.11.11,1.67.09,1.02.22,2.04.27,3.06.09,1.75.12,3.51.18,5.26.03.86.09,1.71.15,2.57.06.77.12,1.54.2,2.31.12,1.11.39,2.21.23,3.33-.24,1.77.01,3.51.24,5.25.25,1.96.64,3.89.66,5.88.02,1.5.13,2.99.22,4.49.06.9.16,1.79.26,2.69.03.25.04.53.15.75.32.69.33,1.42.35,2.15.1,3.14.58,6.23,1.1,9.32.35,2.07.71,4.15,1.04,6.22.22,1.4.34,2.81.6,4.2.35,1.85.8,3.68,1.02,5.56.29,2.39.51,4.77.66,7.17.14,2.23.31,4.45.51,6.67.09.98.34,1.94.46,2.92.15,1.15.21,2.31.38,3.45.4,2.71,1.18,5.37,1.3,8.13.01.25.1.5.14.76.1.63.2,1.27.3,1.9.25,1.57.46,3.14.75,4.7.13.72.25,1.42.26,2.16,0,.68.1,1.37.27,2.03.25,1.01.46,2,.3,2.83.26.76.61,1.32.62,1.89.01.79.25,1.51.35,2.27.13.93.29,1.86.46,2.79.24,1.3.5,2.6.74,3.9.02.12.02.26,0,.38-.22,1.31.44,2.52.46,3.81.71,1.68.72,3.52,1.13,5.27.46,1.99.47,4.09,1.36,5.99.11.23.15.5.19.75.22,1.53.4,3.06.64,4.59.16.97.3,1.97.62,2.89.73,2.04.89,4.18,1.27,6.28.01.07-.07.15-.15.31-.41.15-.88.34-1.37.51-.8.27-1.27.83-1.53,1.62-.23.71-.3,1.44-.11,2.16.24.91.49,1.82.81,2.71.35.97,1.1,1.55,2.11,1.67.72.09,1.47.12,2.17-.02,1.56-.3,3.13-.47,4.7-.65,1.78-.21,3.59-.23,5.36-.63.16-.04.34-.02.51-.03,1.71-.1,3.43.02,5.13-.25.68-.11,1.36-.21,2.04-.23,1.63-.04,3.26-.02,4.89-.03.21,0,.45.06.64-.02,1.06-.42,2.1-.27,3.16,0,.37.09.76.16,1.14.18,1.54.08,3.08.23,4.52-.29,1.43.03,2.79.05,4.16.09,1.5.04,2.99-.23,4.49,0,.21.03.43-.01.64-.06,1.41-.31,2.82-.11,4.22.02.95.09,1.87.08,2.81-.09.84-.15,1.71-.26,2.55-.17.51.05,1,.13,1.51.06.81-.1,1.61-.13,2.43-.04.67.08,1.36-.1,2.04-.13.81-.04,1.64-.17,2.43-.03,1.25.23,2.47.22,3.7-.03,1.4-.29,2.8-.35,4.21-.18.39-.1.75-.26,1.13-.29.38-.03.77.07,1.15.07.3,0,.6-.02.89-.08,1.87-.39,3.75-.33,5.72-.21,1.47-.44,3.04-.9,4.71-.48.08.02.17.02.26,0,1.55-.3,3.07-.25,4.48.32.57-.22,1.04-.45,1.53-.57,1.04-.25,2.13-.23,3.14-.63.22-.09.51.04.76.03,1.28-.03,2.56-.07,3.84-.12.12,0,.26-.04.37-.1.97-.52,2.03-.44,3.03-.27,1.01.17,1.96,0,2.93-.15.59-.09,1.18-.14,1.78-.19.6-.05,1.2-.08,1.79-.14,1.02-.1,2.04-.32,3.06-.3,1.58.04,3.16.06,4.74-.13,1.87-.22,3.75-.4,5.69-.02.66-.47,1.4-.48,2.18-.22.27.09.59.05.89.05.73-.01,1.46-.04,2.19-.05.34,0,.71.06,1.02-.03,1.06-.3,2.12-.29,3.19,0,.82-.47,1.72-.46,2.63-.47.9,0,1.83.02,2.68-.2,1.6-.41,3.19-.56,4.83-.37.42.05.85-.02,1.27-.07.81-.1,1.61-.19,2.43.01.32.08.67.05.99.07.39-.42.74-.79,1.15-1.23.48.03.98.05,1.49.09.43.03.85.12,1.28.12,1.12-.01,2.23-.03,3.19.56,1.44-.33,2.79-.46,3.91.19.73-.07,1.29-.21,1.83-.16,1.27.11,2.54.31,4,.49.58.47,1.44.6,2.38.49.51-.06,1.03-.02,1.54.03,1.57.15,3.17.18,4.67.78.31.13.66.16.95.23.58-.18,1.11-.34,1.41-.44,1.25.36,2.26.79,3.3.92.91.11,1.78.18,2.52.63.41,0,.76.02,1.1,0,1.66-.09,2.61-1.65,2.17-2.97-.26-.77-.39-1.58-.63-2.36-.48-1.6-1.53-2.54-3.23-2.7-.3-.03-.62-.01-.89-.11-.19-.07-.32-.31-.53-.52.33-.24.54-.46.8-.59.9-.46,1.3-1.27,1.38-2.19.21-2.52.82-4.98.96-7.51.08-1.53.46-3.05.79-4.56.32-1.42.16-2.9.67-4.29.04-.12.03-.26.02-.38-.02-1.42.18-2.82.42-4.22.12-.72.29-1.42.41-2.14.23-1.35.45-2.7.67-4.06.28-1.73.55-3.47.82-5.2.01-.08,0-.17,0-.26.09-.81.09-1.64.28-2.42.26-1.07.27-2.12.05-3.04.15-.5.34-.86.35-1.23.06-1.45.03-2.91.12-4.36.07-1.27.35-2.53.28-3.82,0-.08.05-.16.07-.25.39-1.36.75-2.72.6-4.17-.03-.34-.03-.7.04-1.03.31-1.45.18-2.91.21-4.36.01-.58.2-1.16.31-1.73.12-.54.19-1.08.28-1.62.08-.51.19-1.01.28-1.51.1-.55.13-1.11.29-1.64.15-.51.16-1,.15-1.52-.03-1.97-.13-3.95.69-5.83.18-.41.12-.92.16-1.38.02-.26,0-.51.01-.77.06-1.37.55-2.69.45-4.08,0-.08.02-.17.05-.25.23-.58.21-1.19.07-1.78-.12-.52-.05-1,.07-1.52.5-2.08.92-4.17,1.07-6.32.16-2.31.37-4.62.57-6.92.07-.77.12-1.54.27-2.3.49-2.39,1.24-4.74,1.28-7.21,0-.13.02-.26.07-.38.56-1.41.37-2.87.27-4.33-.03-.51-.02-1.03.01-1.54.09-1.37.43-2.71.34-4.1-.03-.42.04-.86.12-1.28.39-1.89.73-3.8,1.23-5.66.46-1.76.68-3.54.74-5.33.03-1.07.08-2.14.25-3.2.24-1.44.38-2.89.58-4.33.1-.76.33-1.52.34-2.29.01-1.3.25-2.55.4-3.83.19-1.62.34-3.24.49-4.86.12-1.32.1-2.66.35-3.95.19-.99.2-1.96.21-2.94,0-.43-.08-.91.08-1.27.53-1.2.45-2.43.38-3.68-.03-.56.03-1.1.25-1.64.16-.38.21-.83.23-1.25.03-.81-.06-1.63,0-2.44.1-1.15.3-2.29.46-3.43.13-.85.27-1.69.41-2.54.41-2.49,1.03-4.96.57-7.52-.01-.08-.02-.17,0-.26.16-1.62.32-3.24.48-4.86,0-.08.02-.17.06-.25.23-.58.22-1.17.15-1.78-.09-.78-.05-1.53.3-2.27.16-.34.24-.75.23-1.12-.09-2.2.24-4.36.68-6.51.04-.21.08-.43.04-.64-.12-.7-.02-1.36.2-2.03.09-.28.1-.59.11-.89,0-1.03-.04-2.06,0-3.09ZM216.83,97.85c-.69,1.19-1.5,2.29-2.34,3.36-.89,1.14-1.38,2.45-1.75,3.83-.13.49-.29.98-.5,1.44-.7,1.63-1.23,3.29-1.03,5.11.06.51-.03,1.03,0,1.54.06,1.07.17,2.13.25,3.2.09,1.28.21,2.56.21,3.84,0,1.32-.13,2.65-.22,3.97-.02.25-.13.49-.22.79-1.2.56-2.4.71-3.61.18-.34-.81-.48-1.56-.55-2.33-.2-2.35-.53-4.68-.66-7.03-.13-2.31-.15-4.63-.04-6.94.04-.88.18-1.77.19-2.67.01-1.41.12-2.83.64-4.17.08-.2.12-.43.25-.59,1.12-1.47,2.27-2.92,3.99-3.73,1.62-.77,3.27-1.48,4.93-2.17.65-.27,1.33-.59,2.18-.29-.62.97-1.2,1.79-1.7,2.66ZM194.07,103.06c-.21-.79-.35-1.59-.56-2.54-.35-.6-.78-1.33-1.2-2.07-1.38-2.44-3.58-3.87-6.09-4.91-1.62-.67-3.23-1.39-4.86-2.04-1.4-.55-2.82-1.04-4.24-1.52-.36-.12-.76-.11-1.14-.15-.85-.07-1.71-.14-2.57-.2-.88-.06-1.68-.38-2.39-.87-1.55-1.07-3.08-2.17-4.61-3.27-.2-.15-.4-.34-.53-.56-.83-1.4-1.64-2.81-2.45-4.22-.42-.73-.47-1.53-.47-2.36,0-1.84-.1-3.69-.14-5.53,0-.34,0-.69.06-1.02.14-.73.2-1.43,0-2.17-.09-.31-.02-.68.02-1.02.18-1.71.26-3.42-.23-5.11-.08-.29-.11-.59-.14-.89-.11-1.45-.18-2.91-.31-4.36-.08-.98-.18-1.97-.36-2.94-.15-.78-.15-1.53.06-2.27-.14-.39-.26-.75-.41-1.18.19-.4.39-.82.64-1.35.04-1.18.06-2.47.12-3.75.03-.68.13-1.36.21-2.04.09-.72.23-1.44.26-2.17.03-.8.27-1.52.61-2.22.29-.61.73-1.07,1.58-.98.53.39,1.11.82,1.74,1.29.31.54.74,1.1.98,1.73.25.67.4,1.4.46,2.12.14,1.67.24,3.34.28,5.01.02,1.11-.09,2.23-.14,3.34-.02.47-.03.94-.07,1.41-.05.64-.12,1.28-.2,1.91-.21,1.73-.1,3.43.38,5.1.21.71.3,1.42.32,2.15.06,1.58.06,3.18.27,4.75.19,1.43.32,2.9,1.19,4.16.26.38.4.85.55,1.3.48,1.45,1.56,2.55,2.22,3.9.09.19.26.34.41.49,1.38,1.35,2.76,2.69,4.15,4.04.18.18.36.37.57.52.96.72,1.93,1.42,2.89,2.13.1.08.23.13.31.22,1.33,1.52,3.26,2.02,4.98,2.84,1.18.56,2.54.76,3.83,1.05,1.09.24,2.2.35,3.3.54.42.07.84.18,1.26.28.33.07.67.21,1,.2,1.88-.02,3.78.21,5.64-.27.76-.2,1.52-.22,2.3-.08.17.03.34.06.51.05,2.77-.26,5.59,0,8.29-.86.98-.31,1.98-.55,2.96-.85,1.43-.43,2.46-1.4,3.25-2.6,1.97-2.99,3.43-6.2,4.28-9.72.45-1.88.6-3.8,1.08-5.67.27-1.06.18-2.21.27-3.32.03-.34.13-.67.19-1,.07-.42.19-.84.2-1.27.03-1.02-.05-2.05.01-3.07.09-1.59-.07-3.17,0-4.75.06-1.67.08-3.35-.01-5.01-.08-1.5-.09-2.98,0-4.47.05-.89-.1-1.8-.13-2.7-.01-.42.06-.85.11-1.27.09-.64.29-1.27.27-1.9-.05-1.86.42-3.65.64-5.48.06-.47.14-.93.21-1.4.08-.56.27-1.08.64-1.52.38-.46.83-.75,1.43-.75,1.16,0,2.33-.13,3.46.22.48.15.94.38,1.38.64,1.74,1.05,2.43,2.82,3.02,4.63.46,1.39.76,2.81.77,4.29,0,.59.18,1.18.28,1.78.42,2.59.55,5.2.57,7.82,0,.81.12,1.63.14,2.44.01.9-.04,1.8-.06,2.7-.01.56-.15,1.15,0,1.66.36,1.28.18,2.56.1,3.84-.07,1.15-.28,2.31-.27,3.46.02,2.07-.4,4.1-.55,6.15-.15,2.06-.5,4.09-1.11,6.06-.04.12-.06.25-.08.38q-.28,1.64-1.66,2.71c-.55,1.2-1.13,2.53-1.76,3.84-.22.45-.53.88-.87,1.25-1.57,1.75-3.45,3.08-5.63,3.97-1.31.53-2.57,1.2-3.96,1.52-.29.07-.56.21-.84.33-1.1.48-2.18.98-3.39,1.17-1.37.22-2.64.77-3.88,1.35-1.86.87-3.71,1.79-5.56,2.68-1.06.51-1.71,1.41-2.26,2.39-.3.52-.56,1.06-.83,1.6-.08.15-.2.3-.22.46-.24,1.65-.81,3.25-.79,4.94.01,1.89-.03,3.78-.05,5.67,0,1.29,0,2.57.2,3.85.2,1.35.21,2.73.34,4.1.12,1.32.3,2.64.42,3.97.05.55,0,1.11,0,1.79-.19.21-.44.49-.63.71-2,.37-3.8,1.16-5.71,1.15-.77-.28-.99-.89-1.04-1.55-.13-2.09-.75-4.15-.54-6.27.02-.25-.03-.52-.11-.76-.33-.98-.45-2-.62-3.01-.27-1.56-.55-3.12-.66-4.7-.05-.63-.33-1.24-.51-1.88.04-2.08-.21-4.15-.75-6.19ZM269.77,352.63c-.08.27-.17.6-.28.96-.08.07-.18.15-.28.23-.57.45-1.27.48-1.95.57-.68.09-1.35.2-2.03.29-1.02.13-2.04.3-3.06.36-1.28.08-2.55.4-3.84.05-.23-.06-.51,0-.77.04-1.33.22-2.65.14-3.98.02-.34-.03-.69-.07-1.02,0-1.86.4-3.75.5-5.63.39-2.51-.16-4.95.32-7.41.67-1.33.19-2.65.2-3.97-.01-.42-.07-.85-.12-1.28-.12-.96,0-1.89-.04-2.74-.71-.8.37-1.6.74-2.46,1.14-1.14-.1-2.37-.21-3.81-.34-.07-.04-.34-.17-.61-.32-.63.06-1.29.04-1.63.74-.47.02-.9.15-1.35.28-.93.28-1.92.46-2.89.5-1.24.06-2.49-.05-3.69.38-.27.1-.6.04-.89.07-1.07.09-2.13.22-3.2.25-.81.03-1.63-.14-2.43-.09-.8.05-1.59.3-2.39.39-.76.08-1.51-.11-2.29-.05-1.33.11-2.64.24-3.95.47-.08.02-.17.04-.26.02-1.58-.3-3.16.16-4.75.05-.81-.05-1.62-.02-2.42.22-.32.1-.68.07-1.02.07-.86,0-1.71-.03-2.57-.03-2.57,0-5.15-.01-7.72,0-1.03,0-2.06.04-3.09.06-.73.02-1.44.14-2.18-.02-.32-.07-.68.04-1.01.1-1.02.17-2.04.26-3-.03-3.17.45-6.28.58-9.4.08-.84-.13-1.71-.11-2.56-.16-.94-.05-1.88-.09-2.82-.25-1.01.18-2.02.42-3.04.53-1.36.14-2.73.22-4.1.24-1.24.01-2.47-.06-3.71.2-1.08.23-2.21.22-3.32.33-.47.05-.94.11-1.4.19-.38.06-.75.21-1.13.24-1.32.1-2.65.17-3.95.25-1.11-.72-1.16-.84-.86-1.96.53-.4,1.15-.32,1.73-.2.95.19,1.87.22,2.77-.2.23-.1.5-.11.75-.14.89-.1,1.79-.19,2.93-.3.28.11.79.31,1.18.46,1.58-.13,3.03-.24,4.47-.36.09,0,.18,0,.26-.02,1.77-.52,3.58-.14,5.37-.22,1.41-.07,2.81.18,4.23-.01,1.01-.14,2.06-.02,3.09-.04.64-.02,1.3-.02,1.91-.18,1.1-.29,2.2-.26,3.31-.17.38.03.78.08,1.15,0,1.5-.31,2.99-.17,4.49-.06,1.75.12,3.5,0,5.24-.23,2.85-.37,5.7-.61,8.58-.24,1.4.18,2.82.26,4.23.33.72.03,1.45-.05,2.17-.1,1.5-.1,2.99-.23,4.48-.32,1.88-.11,3.76-.25,5.65-.12,1.54.11,3.09.02,4.61-.28.33-.07.69-.15,1.01-.1,1.3.21,2.56-.02,3.82-.25,2.03-.37,4.06-.64,6.14-.62,1.19,0,2.4.08,3.59-.15.53-.1,1.1-.02,1.67.12.27-.12.55-.24.63-.27,2.45-.13,4.71-.24,6.99-.36.26.11.53.23.83.35.85-.26,1.7-.64,2.63-.23,1.66-.97,3.41-1.08,5.13-.54,1.84-.5,3.61-.75,5.42-.7.51.01,1.03-.06,1.52-.2,1.56-.44,3.15-.42,4.73-.34,1.17.06,2.31.02,3.41-.4,1.46-.55,2.97-.33,4.46-.35.9-.01,1.79.03,2.68-.03.54-.04,1.08-.23,1.56-.34,1.99-.18,3.95.1,6.17-.46-.41.45-.61.67-.86.95ZM270.75,304.81c-.2,1.99-.33,4-.15,6.02.09.98.1,1.97-.25,2.93-.13.35-.14.76-.16,1.14-.07,1.45.11,2.91-.17,4.37-.1.53.11,1.1.1,1.65-.04,1.8-.24,3.59-.28,5.39-.04,1.69-.47,3.38-.74,5.06-.01.08-.05.17-.05.25-.16,2.39-.43,4.78-.29,7.17.04.7.07,1.37-.29,1.93.29,2.33.45,4.59.4,6.88-.33.38-.61.75-.94,1.08-.44.44-.98.66-1.61.71-.63.05-1.26.21-1.89.3-.46.07-.93.16-1.4.17-1.2.04-2.41,0-3.61.06-1.24.06-2.49.13-3.72.3-.82.11-1.62.16-2.4-.13-.77.23-1.52.29-2.31.21-.58-.06-1.2.06-1.78.18-1.22.26-2.45.41-3.7.43-.81.01-1.61.2-2.42.33-1.07.17-2.12.22-3.2.06-.53-.08-1.12,0-1.65.13-2.89.73-5.82,1.03-8.79,1.09-2.06.05-4.12.12-6.17.24-1.41.08-2.82.24-4.22.37-.04,0-.09.02-.13.01-2.21-.13-4.34.51-6.52.61-1.07.05-2.15.02-3.2.2-1.58.27-3.17.17-4.75.27-.34.02-.68-.06-1.02-.09-.21-.02-.42-.09-.63-.07-.85.04-1.72.04-2.56.18-1.83.32-3.68.14-5.52.26-1.02.07-2.05.21-3.07.18-1.76-.05-3.51-.21-5.26-.33-1.54-.11-3.06-.16-4.61.07-1.61.23-3.25.23-4.88.33-.64.04-1.28.1-1.92.15-.43.03-.85.09-1.28.09-1.03,0-2.05,0-3.08.19-.7.13-1.45,0-2.18-.07-.77-.08-1.53-.08-2.31,0-2.73.28-5.48.58-8.22.4-1.33-.09-2.65.03-3.97.04-1.29.01-2.57.08-3.86.12-.34.01-.69.05-1.02-.01-1.03-.19-2.05-.1-3.08,0-.94.1-1.88.29-2.81.29-1.15,0-2.31-.12-3.46-.24-.27-.03-.53-.25-.84-.41-.11-.37-.24-.73-.33-1.1-.05-.21-.02-.44-.11-.63-.7-1.6-.6-3.36-1.03-5.02-.19-.74-.45-1.47-.67-2.21-.11-.37-.24-.73-.31-1.11-.19-1.01-.31-2.02-.63-3.01-.36-1.09-.46-2.26-.67-3.4-.25-1.39-.48-2.79-.92-4.14-.25-.77-.31-1.6-.51-2.38-.55-2.2-.63-4.49-1.31-6.66.09-1.6-.53-3.1-.69-4.67-.01-.13-.04-.26-.08-.38-.58-1.64-.68-3.35-.84-5.06-.02-.25-.13-.5-.17-.75-.15-.89-.28-1.78-.42-2.66-.11-.68-.14-1.38-.33-2.03-.32-1.12-.62-2.22-.74-3.39-.08-.75-.41-1.47-.43-2.26-.12-4.17-.98-8.25-1.58-12.36-.61-1.68-.65-3.44-.81-5.19-.14-1.58-.46-3.14-.66-4.71-.13-1.06-.2-2.13-.28-3.2-.1-1.49-.2-2.98-.26-4.48-.1-2.28-.55-4.51-.92-6.75-.25-1.48-.41-2.97-.65-4.45-.14-.89-.31-1.78-.54-2.65-.52-1.96-.7-3.97-1.04-5.95-.26-1.48-.39-2.97-.56-4.45-.24-2.13-.61-4.25-.88-6.37-.14-1.06-.18-2.13-.28-3.2-.04-.47-.12-.93-.18-1.4-.03-.25-.13-.52-.08-.76.27-1.46-.13-2.89-.2-4.33-.12-2.57-.79-5.09-.7-7.69.04-1.06-.06-2.13,0-3.21.06-1.02-.09-2.05-.18-3.08-.14-1.67-.31-3.33-.47-4.99-.08-.81-.17-1.62-.22-2.44-.11-2.01-.18-4.03-.3-6.04-.1-1.63-.26-3.25-.39-4.88-.03-.42-.02-.85-.02-1.28,0-.21.04-.43.02-.64-.29-3.07-.47-6.16-1.05-9.2-.21-1.09-.49-2.18-.73-3.27-.06-.25-.12-.5-.14-.76-.12-1.28-.22-2.56-.35-3.84-.03-.3-.07-.6-.16-.89-.29-.87-.33-1.77-.33-2.67,0-.78-.06-1.54-.38-2.27-.26-.6-.3-1.23-.2-1.89.12-.73.04-1.45-.16-2.17-.31-1.16-.42-2.36-.61-3.54-.33-2.04-.48-4.08-.53-6.15-.02-.75-.31-1.5-.48-2.25-.06-.25-.14-.5-.17-.75-.17-1.19-.33-2.38-.48-3.57-.04-.3-.08-.62-.02-.9.35-1.43,0-2.82-.17-4.22-.2-1.68-.2-3.34.14-4.99.07-.36.29-.68.36-.83,1-.41,1.79-.73,2.59-1.05.28-.11.57-.2.85-.28.69-.22,1.39-.43,2.09-.64.08-.03.16-.07.25-.08,1.99-.29,3.88-1.04,5.89-1.27,1.61-.19,3.22-.46,4.82-.78,2.1-.42,4.17-.99,6.28-1.39,1.3-.25,2.63-.37,3.95-.46.82-.06,1.62-.1,2.38-.44.63-.28,1.31-.37,2-.4,1.8-.1,3.57-.49,5.33-.86.29-.06.59-.15.88-.15,1.61,0,3.15-.41,4.66-.91.8-.26,1.59-.38,2.41-.23.48.09.92,0,1.39-.11.82-.22,1.67-.43,2.51-.5,2.99-.23,6-.45,8.93-1.06,3.44-.71,6.95-1.03,10.38-1.87,1.9-.46,3.86-.77,5.78-1.16.17-.03.34-.07.51-.07,1.35.04,2.6-.4,3.9-.69,1.87-.41,3.73-1.02,5.69-.86.79.07,1.54-.11,2.22-.53.79-.5,1.67-.63,2.58-.71.68-.06,1.36-.18,2.02-.34.72-.18,1.43-.27,2.25-.11,1.76,1.3,2.06,1.25,3.76-.65,1.77-.6,3.61-1.18,5.52-1.49.68-.11,1.37-.08,2.05-.16,3.07-.37,6.13-.75,9.19-1.14.77-.1,1.52-.26,2.29-.38.38-.06.77-.14,1.15-.13,1.7.05,3.31-.46,4.93-.84,1.13-.27,2.24-.52,3.42-.53.98,0,1.97-.15,2.94-.31,1.27-.22,2.52-.52,3.77-.78,1.05-.22,2.09-.46,3.15-.65.28-.05.61-.02.88.07.6.19,1.18.13,1.78,0,.84-.18,1.67-.35,2.51-.52.25-.05.52-.11.76-.08,1.64.21,3.27-.07,4.87-.32,1.46-.22,2.98-.4,4.3-1.15.7-.06,1.38-.15,2.07-.18.6-.02,1.2.02,1.79.03.99.02,1.97.04,2.96.04,1.11,0,2.21-.38,3.33-.06.04.01.09.01.13,0,1.09-.46,1.99,0,2.91.52.52.3,1.14.41,1.75.21.76-.25,1.43-.05,2.17.37.11.2.31.44.38.72.27,1.16.54,2.31.64,3.53.15,1.69.08,3.32-.24,4.98-.2,1.05-.32,2.12-.46,3.18-.04.34-.13.7-.06,1.02.33,1.34-.03,2.65-.17,3.96-.17,1.58-.45,3.14-.39,4.74,0,.17.01.35-.02.51-.31,1.44-.14,2.91-.21,4.36-.04.94.08,1.88.1,2.82.02.64.06,1.29,0,1.93-.18,1.7-.46,3.4-.62,5.11-.17,1.84-.24,3.68-.35,5.52-.13,2.14-.28,4.28-.39,6.42-.03.55.03,1.11.05,1.67.02.56.11,1.12.07,1.67-.11,1.63-.28,3.25-.39,4.87-.04.51,0,1.03.03,1.54.02.38.12.77.1,1.15-.1,1.71-.22,3.42-.35,5.13-.09,1.2-.22,2.39-.33,3.59-.16,1.79-.33,3.58-.47,5.38-.05.6-.1,1.21-.01,1.8.27,1.72-.05,3.43-.04,5.14,0,1.46.04,2.92.04,4.38,0,.69.03,1.38-.07,2.05-.27,1.75-.29,3.5-.3,5.27,0,.77-.13,1.54-.16,2.31-.05,1.16-.03,2.32-.11,3.48-.06.89-.32,1.78-.35,2.67s.18,1.78-.05,2.68c-.16.62-.24,1.26-.32,1.9-.11.89-.24,1.79-.27,2.68-.04,1.16-.02,2.32,0,3.48.04,1.47-.21,2.9-.38,4.35-.02.21-.07.42-.08.64-.1,1.93-.18,3.86-.29,5.79-.1,1.76-.23,3.51-.36,5.26-.02.21-.07.43-.13.63-.54,1.61-.58,3.29-.73,4.95-.05.59-.11,1.18-.14,1.77-.04,1.11-.08,2.22-.13,3.33-.02.56-.07,1.11-.1,1.67-.06,1.16-.12,2.31-.18,3.47-.01.3-.06.61-.02.9.15,1.15.07,2.3.02,3.46-.03.72.09,1.45.13,2.17.03.47.06.94.04,1.42-.07,1.62-.16,3.25-.23,4.87-.03.73-.02,1.46-.03,2.19-.03,1.46,0,2.91-.15,4.37-.15,1.53-.03,3.09-.03,4.63,0,.73,0,1.45,0,2.18,0,1.24-.01,2.49-.04,3.73-.03,1.28-.02,2.57-.19,3.85-.29,2.24-.28,4.52-.51,6.77ZM312.77,353.88c.88.21,1.47.71,1.53,1.75-.59.3-1.17.36-1.77.34-.13,0-.25-.06-.38-.06-2.76.08-5.42-.62-8.11-1.08-1.01-.17-2.04-.17-3.06-.29-.97-.12-1.94-.3-2.91-.44-.85-.12-1.69-.27-2.55-.32-1-.05-1.91-.4-3.16-.62.45-.2.63-.34.81-.35,1.36-.12,2.71-.36,4.08-.31.68.02,1.36.11,2.04.14.72.04,1.44.03,2.16.06,1.37.06,2.73.16,4.1.21.55.02,1.11-.07,1.79-.12,1.62,1.29,3.46,1.42,5.42,1.09ZM334.1,154.86c-.17,2.48-.33,4.96-.54,7.44-.09,1.15-.28,2.3-.42,3.45-.01.08-.05.17-.04.25.17,1.37-.15,2.71-.32,4.06-.18,1.49-.35,2.98-.46,4.48-.08,1.15-.08,2.32-.08,3.47,0,.78-.02,1.53-.27,2.29-.16.48-.21,1-.29,1.51-.16,1.06-.33,2.12-.43,3.19-.11,1.07-.13,2.14-.21,3.21-.1,1.2-.3,2.39-.34,3.59-.09,2.91-.66,5.79-.54,8.72.03.72-.11,1.45-.19,2.18-.17,1.66-.15,3.34-.54,4.97-.26,1.09-.38,2.19-.32,3.31,0,.04,0,.09-.01.13-.63,1.5-.39,3.13-.72,4.68-.1.5-.3.99-.37,1.5-.1.72-.18,1.45-.18,2.18,0,.99-.15,1.96-.28,2.94-.22,1.65-.35,3.32-.53,4.98-.04.34-.09.68-.18,1.01-.69,2.36-1.07,4.76-1.1,7.22-.01.72-.19,1.44-.28,2.17-.07.55-.17,1.11-.16,1.66.06,2.25-.3,4.44-.74,6.63-.49,2.4-.86,4.81-1.25,7.23-.1.63-.06,1.29-.12,1.93-.11,1.28-.24,2.56-.37,3.84-.01.13-.05.25-.06.38-.12,1.49-.21,2.99-.36,4.48-.06.63-.22,1.26-.37,1.88-.25,1.04-.69,2.04-.41,3.15-.26,1.38-.11,2.79-.3,4.19-.34,2.59-.98,5.14-.97,7.77,0,1.11-.09,2.23-.25,3.33-.14.93-.46,1.82-.68,2.74-.14.58-.24,1.17-.33,1.77-.29,1.95-.5,3.9-.52,5.88-.03,2.57-.35,5.12-.86,7.65-.23,1.13-.34,2.27-.21,3.45.07.62-.09,1.28-.16,1.91-.12,1.11-.28,2.21-.39,3.32-.08.77-.2,1.55-.12,2.31.17,1.66-.04,3.24-.61,4.8-.09.24-.16.5-.14.75.05,1.05-.17,2.05-.43,3.05-.01.04-.03.08-.03.13.05,1.52-.46,2.96-.61,4.45-.04.42-.18.83-.33,1.23-.27.69-.37,1.39-.44,2.13-.16,1.62-.35,3.24-.66,4.84-.46,2.32-.84,4.65-1.04,6.99-.17,2.08-.58,4.07-1.15,6.05-.23.78-.39,1.58.1,2.37-.09.04-.17.08-.26.12-.54-.23-1.09-.46-1.65-.7-.45.22-.87.42-1.48.72-1.52-.04-3.23-.07-4.94-.13-1.84-.07-3.67-.24-5.52-.06-.63.06-1.28-.05-1.92-.07-1.67-.05-3.36-.23-5.02-.09-2.22.18-4.36-.15-6.52-.48-.25-.04-.51-.02-.77-.04-.72-.05-1.45-.07-2.17-.18-1.36-.2-2.71-.34-4.09-.25-.58.04-1.17-.15-1.75-.29-1.17.18-2.3-.03-3.47-.38-.07-.23-.17-.46-.2-.71-.16-1.23-.31-2.47-.43-3.7-.07-.72-.05-1.46-.1-2.19-.19-2.36.12-4.7.14-7.05.02-1.72.17-3.42.34-5.12.11-1.11.22-2.22.33-3.33,0-.09.02-.17.03-.26.05-1.62.09-3.25.13-4.87,0-.09-.04-.18-.01-.26.54-1.36.29-2.79.38-4.19.09-1.37,0-2.74.03-4.11.01-.9.08-1.8.11-2.7.04-1.37.04-2.75.11-4.12.06-1.28.2-2.56.3-3.83.2-2.61.49-5.21.46-7.83-.01-1.15.03-2.31.07-3.46.06-1.67.09-3.34.22-5,.08-1.03-.03-2.03-.17-3.05-.09-.63-.03-1.28-.01-1.92,0-.38.05-.77.09-1.15.08-.85.19-1.7.24-2.56.03-.51.01-1.02,0-1.54-.08-2.05-.35-4.1.01-6.16.05-.29.08-.61.03-.9-.41-2.23-.11-4.43.19-6.64.11-.79-.03-1.62-.03-2.43,0-1.58-.03-3.15.29-4.72.15-.75.08-1.54.14-2.31.05-.77.13-1.53.19-2.3.01-.13.06-.25.07-.38.18-2.31.35-4.61.52-6.92.03-.38.06-.76.1-1.15.03-.3.11-.59.11-.89.02-1.46.29-2.9.51-4.34.16-1.05.28-2.11.18-3.19-.09-.97,0-1.97.06-2.95.08-1.33.2-2.65.29-3.98.19-2.57.4-5.13.56-7.7.11-1.75.13-3.52.24-5.27.1-1.58.39-3.15.4-4.73.01-1.88.47-3.73.21-5.64-.21-1.56-.29-3.17.08-4.74.02-.08.02-.17.03-.26.08-2.61.15-5.23.25-7.84.03-.85.14-1.71.19-2.56.05-.9.07-1.8.11-2.7.02-.38-.01-.79.11-1.15.62-1.84.59-3.71.31-5.6-.07-.48-.05-.93.08-1.39.23-.79.34-1.59.08-2.41-.17-.52-.07-1.01.15-1.5.27-.6.33-1.24.18-1.89-.32-1.4-.28-2.83-.11-4.23.14-1.2.21-2.39.18-3.59-.05-2.29.51-4.51.69-6.77.18-2.26.57-4.51.39-6.8-.04-.56,0-1.12-.02-1.67-.03-.94-.07-1.88-.11-2.98.47-1.36.57-2.92.42-4.51-.11-1.16-.1-2.3.23-3.45.17-.61.17-1.26.24-1.9.08-.68.18-1.36.23-2.04.1-1.24.22-2.47.53-3.68.17-.66.21-1.35.22-2.04.03-1.71.01-3.42.01-5.22.23-.03.48-.1.7-.07.29.04.59.14.86.27,2.3,1.09,4.77,1.69,7.18,2.46.77.25,1.6.32,2.4.47.25.05.52.06.76.14,1.59.5,3.18,1.01,4.78,1.51,1.43.45,2.87.87,4.29,1.33.4.13.75.39,1.12.6.52.3,1.02.61,1.54.92,1.48.89,3.15,1.32,4.73,1.99,1.02.44,2,.98,3.01,1.44.7.32,1.41.62,2.15.86.78.25,1.5.6,2.19,1.04,1.09.69,2.14,1.41,3.11,2.27.1.08.2.19.32.21,1.64.39,2.87,1.71,4.56,1.98.16.03.33.11.47.2,1.22.79,2.42,1.61,3.64,2.39.5.32,1.06.56,1.58.85.67.37,1.09.89,1.24,1.69.19.96.57,1.89.78,2.85.15.71.16,1.45.2,2.17.06.9.13,1.79.12,2.69,0,.94-.07,1.88-.14,2.82Z"/>
  <path class="cls-1" d="M255.34,208.26c-.17.04-.5.14-.83.16-1.67.1-3.34.21-5.01.26-1.32.03-2.51.5-3.73.91-1.54.52-3.06,1.1-4.59,1.65-1.37.49-2.84.63-4.2,1.17-.42.16-.93.12-1.4.11-.74-.02-1.43.12-2.12.44-.49.22-1.07.31-1.61.34-.78.05-1.53.16-2.26.45-1.05.41-2.14.57-3.27.62-.59.02-1.18.17-1.76.31-.96.22-1.91.48-2.86.73-.58.15-1.18.27-1.73.48-.62.24-1.25.34-1.89.2-1.42-.31-2.83-.04-4.21.2-1.73.3-3.42.81-5.15,1.12-1.05.19-2.13.27-3.2.26-2.29-.02-4.53.34-6.78.65-1.44.2-2.88.44-4.32.67-.51.08-1.01.18-1.52.25-.42.06-.85.15-1.27.12-1.33-.08-2.64.16-3.96.29-1.44.15-2.88.43-4.34.37-.64-.03-1.3-.04-1.92.09-1.29.27-2.55.35-3.43-.09-1.25.02-2.14.12-3.02.04-1.44-.14-2.82.12-4.22.33-.45.07-.93.02-1.39,0-.34-.01-.69-.11-1.02-.07-1.53.17-3.09.14-4.59.55-.37.1-.76.17-1.14.17-2.52,0-4.92.6-7.28,1.42-.56.19-1.16.27-1.74.41-.41.1-.83.2-1.24.32-.74.22-1.45.53-2.23.41-.53-.25-.81-.69-.92-1.2-.23-1.13-.49-2.24-.38-3.43.1-1.1-.02-2.23-.12-3.34-.08-.99.02-1.97,0-2.94-.02-2.04.57-3.98.68-6,.07-1.32.36-2.63.58-3.94.18-1.06.4-2.1.59-3.16.26-1.4.8-2.7,1.37-4,.46-1.06.8-2.17,1.23-3.24.43-1.07.91-2.13,1.35-3.2.2-.47.35-.96.53-1.44.11-.28.19-.58.36-.83.83-1.22,1.24-2.63,1.85-3.95.64-1.4,1.22-2.83,2.19-4.06.21-.27.42-.56.55-.87.97-2.21,2.45-4.11,3.73-6.13.55-.87,1.13-1.72,1.76-2.53.42-.53.92-1.01,1.45-1.44.64-.51,1.19-1.09,1.66-1.77.7-1.02,1.45-1.99,2.42-2.81,1.14-.96,2.18-2.05,3.26-3.09,1.29-1.25,2.8-2.1,4.5-2.66,1.34-.44,2.65-.96,3.97-1.47.36-.14.67-.38,1-.57,1.82-1.06,3.65-2.07,5.73-2.56,1.29-.31,2.52-.81,3.84-1.06,1.35-.25,2.67-.64,4.02-.85.97-.15,1.97-.07,2.95-.13,1.54-.09,3.08-.22,4.62-.32.89-.06,1.78-.11,2.69-.16.21.19.4.35.58.53.36.36.78.53,1.28.46.83-.12,1.61.09,2.41.25,1.05.2,2.12.27,3.43.43.7.59,1.75,1.04,2.86,1.41.36.12.66.39,1,.57.37.21.75.42,1.14.59.67.29,1.34.57,2.03.8,1.89.63,3.45,1.89,5.22,2.74.38.18.76.39,1.13.6.19.1.39.19.55.32,1.44,1.22,2.87,2.44,4.3,3.67.26.22.5.47.77.69,1.21.96,2.47,1.86,3.62,2.88,2.18,1.93,4.28,3.95,5.8,6.49.2.33.44.64.68.93.73.9,1.46,1.78,2.02,2.82.38.71.92,1.34,1.44,1.96.71.85,1.04,1.86,1.37,2.88.33,1.02.68,2.03,1.01,3.05.28.86.55,1.72.81,2.58.05.16.07.34.13.5,1.24,3.03,1.78,6.26,2.73,9.37.37,1.23.86,2.48.89,3.73.04,1.35.44,2.51.93,3.69.15.36.21.74.35,1.1.36.96.34,1.85-.69,2.8ZM184.71,164.9c-.27.17-.48.26-.62.41-.65.73-1.33,1.45-1.92,2.24-1.16,1.54-2.15,3.2-3.71,4.41-.52.4-.88,1.05-1.23,1.63-.3.5-.62,1.04-.45,1.71.5.47.99.94,1.5,1.4,1.3,1.18,2.36,2.59,3.72,3.73.85.71,1.59,1.56,2.37,2.36.93.95,1.95,1.82,2.74,2.87,1.43,1.89,3.29,3.36,4.79,5.19.08.1.17.19.28.27.62.47,1.17.99,1.63,1.63.39.55.95.94,1.69,1.06.35-.68.03-1.32.1-1.95.09-.89.08-1.8.06-2.7-.03-1.67-.08-3.34-.15-5.02-.03-.68-.09-1.37-.25-2.03-.44-1.82-.35-3.66-.28-5.51.03-.85.14-1.71.12-2.56-.02-.72.07-1.36.52-1.94,1.18-.67,2.03-.55,2.77.52.65.95,1.26,1.95,1.78,2.98,1.25,2.49,1.82,5.26,3,7.78.02.04.03.08.04.12.74,2.06,1.49,4.11,2.22,6.18.41,1.17.78,2.36,1.18,3.54.48,1.42.88,2.88,1.49,4.25.76,1.72,1.69,3.37,2.56,5.04.07.13.2.23.38.43.15-.34.31-.56.33-.79.07-.6.07-1.2.11-1.8.03-.56.01-1.12.12-1.66.35-1.86.74-3.7.66-5.61-.01-.38.07-.77.13-1.15.11-.85.31-1.7.34-2.55.08-2.18.03-4.37.21-6.56.15-1.79.24-3.59.28-5.39.05-2.27-.16-4.54.22-6.81.25-1.47.25-2.99.37-4.48,0-.13.05-.25.07-.38.32-1.77.61-3.55.44-5.36-.03-.38,0-.78.1-1.15.37-1.37-.12-2.61-.46-3.9-1.51-.58-2.99-.99-4.54-1.06-1.37-.07-2.74-.09-4.11-.15-.56-.02-1.11-.08-1.67-.11-.36-.02-.69.07-.75.28-.26,1.22.84,1.83.8,2.74-.33.64-.62,1.21-.85,1.64.02.21.03.25.03.3.39,2.53.97,5.05.64,7.64-.03.2.05.42.1.63.09.42.18.84.27,1.24-.17.49-.26,1.05-1.05.86-.34-1.46-.69-2.91-1.03-4.36-.06-.25-.07-.51-.1-.76-.16-1.41-.3-2.81-.47-4.22-.04-.34-.11-.68-.22-1-.32-.93-.67-1.86-1-2.78-.21-.58-.51-1.09-1.09-1.35-1.05.04-1.54.2-2.3.71-.35.24-.69.52-1.08.7-1.6.74-2.92,1.98-4.59,2.59-.19.07-.35.24-.53.37-.53.36-1.06.72-1.59,1.09-.38.27-.77.55-1.13.85-.37.31-.64.69-.63,1.32.84,1.23,1.74,2.54,2.63,3.85.04.78.16,1.54.59,2.21.11.18.15.4.23.6.29.67.55,1.35.87,1.99.5.99,1.05,1.96,1.57,2.95.21.4.24.82.03,1.26-.54.58-1.12.46-1.78.02-.59-1.31-1.03-2.76-1.94-3.98-.02-.03-.03-.08-.05-.12-.37-1.25-1.03-2.33-1.77-3.4-.76-1.11-1.67-2.05-2.75-3ZM164.24,201.72c.1-1.07.15-2.1.3-3.12.18-1.27.41-2.54.66-3.8.16-.8.42-1.57.59-2.37.46-2.14.86-4.29,1.83-6.28.92-1.88,1.17-4.04,2.33-5.83.11-.17.15-.4.2-.61.12-.56.41-1.01.73-1.48.67-1,1.3-2.01,2.1-2.92.33-.38.53-.88.76-1.34.28-.53.45-1.14.82-1.6,1.02-1.26,2.12-2.46,3.2-3.67.28-.32.64-.58.91-.91.97-1.15,1.86-2.36,2.59-3.68.17-.3.32-.64.57-.85.88-.72,1.39-1.74,2.12-2.57.5-.58,1.07-1.1,1.61-1.65.3-.3.64-.58.89-.92.11-.15.06-.43.08-.64-.62-.15-1.02.12-1.43.34-.76.41-1.51.81-2.28,1.2-.91.47-1.83.94-2.75,1.4-.57.29-1.14.59-1.74.83-1.16.47-2.24,1.02-3.2,1.87-1.05.94-2.23,1.74-3.33,2.63-.29.24-.62.53-.73.86-.27.87-.86,1.46-1.49,2.06-.34.33-.61.72-.93,1.07-.63.7-1.27,1.38-1.9,2.08-.26.29-.51.58-.73.89-.44.63-.86,1.28-1.28,1.92-.75,1.15-1.54,2.28-2.22,3.47-.43.75-.79,1.52-1.42,2.13-.18.17-.38.4-.42.63-.19,1.17-.92,2.11-1.29,3.2-.29.85-.62,1.69-.96,2.53-.27.68-.57,1.32-1.05,1.9-.4.49-.64,1.1-.92,1.68-.19.38-.37.78-.5,1.18-.54,1.61-1.56,3.08-1.51,4.82-.26.41-.59.74-.71,1.13-.53,1.84-1.42,3.61-1.34,5.6.01.38-.12.76-.19,1.14-.07.38-.2.75-.23,1.13-.13,1.49-.23,2.99-.35,4.48-.02.3-.04.6-.09.9-.26,1.32-.23,2.65-.05,3.97.05.38.13.79.05,1.15-.28,1.38.06,2.74.09,4.11,0,.34.08.69.51.89.12-.02.3,0,.45-.07,2.26-.98,4.69-1.34,7.06-1.94.99-.25,2.02-.36,3.04-.49,1.25-.17,1.57-.56,1.44-1.77-.06-.55-.12-1.11-.13-1.67-.02-1.07.04-2.14-.01-3.21-.05-1.24-.17-2.48-.29-3.72-.1-.98-.18-1.97-.38-2.93-.19-.95-.07-1.78.49-2.56.12-.17.24-.36.41-.62ZM228.2,162.24c-.65-.84-1.35-1.46-2.18-1.77-1.12-.41-2.05-1.06-3-1.72-.28-.19-.58-.38-.89-.51-1.19-.49-2.39-.94-3.57-1.44-.47-.2-.9-.28-1.39.09-.38.55-.69,1.2-.81,1.94-.23,1.44-.44,2.88-.71,4.31-.38,1.98-.73,3.96-.74,5.98,0,1.07-.07,2.15-.23,3.2-.2,1.29-.18,2.56-.05,3.84.09.89.08,1.8.07,2.69-.02,1.24-.08,2.48-.15,3.72-.04.77-.15,1.53-.21,2.29-.03.47-.07.94-.02,1.4.15,1.34.06,2.66-.49,3.9-.29.66-.39,1.31-.24,2.01.27,1.28.21,2.56.13,3.85-.04.54-.25,1.07-.4,1.6-.12.45-.35.9-.36,1.35-.01,2.1.18,4.19.63,6.3.23.07.46.13.78.22.15-.47.28-.87.4-1.27.55-1.76,1.09-3.52,1.65-5.27.45-1.38.93-2.76,1.4-4.14.18-.52.34-1.06.55-1.57.57-1.38,1.26-2.73,1.36-4.26.03-.49.32-.87.59-1.26.34-.49.63-1.02.87-1.56.57-1.29,1.09-2.6,1.63-3.91.1-.24.21-.48.26-.72.25-1.14.63-2.22,1.28-3.21.18-.28.24-.64.35-.96.5-1.51,1-3.01,1.48-4.52.17-.53.3-1.07.41-1.61.31-1.51.63-3.02.9-4.53.26-1.47.46-2.95.7-4.48ZM169.14,190.97c-.4.15-.64.4-.7.76-.18,1.01-.43,2.02-.47,3.04-.08,2.03-.47,4-.92,5.96-.07.32-.06.66-.09.98.87.71,1.91,1.24,1.77,2.32-.24.84-.81.82-1.32.91.58.76.57.77,1.09.94.45.14.91.29,1.37.35.77.09,1.51.23,2.19.65.28.17.65.2.98.26.88.17,1.77.31,2.65.48.38.07.75.22,1.13.24.87.06,1.68.29,2.26.61.67.05,1.14.06,1.61.13.72.1,1.43.27,2.16.35,1.38.15,2.67.58,3.92,1.18.54.26,1.11.47,1.69.6.85.2,1.63.51,2.38.95.4.24.86.38,1.3.54.52.19,1.06.35,1.59.5.66.19,1.32.37,1.99.52.52.12,1.02.06,1.45-.36.27-.88.58-1.77.82-2.68.12-.44.26-.99.11-1.37-.35-.86-.76-1.76-1.38-2.43-.92-1-2.01-1.84-3.21-2.55-1.25-.74-2.63-1.24-3.76-2.19-.09-.08-.24-.1-.35-.16-1.17-.69-2.28-1.49-3.56-2-.27-.11-.47-.36-.71-.55-.24-.18-.46-.4-.72-.54-1.13-.61-2.26-1.23-3.09-2.2-.95-.1-1.68-.54-2.38-1.05-.52-.38-1.05-.76-1.62-1.04-1.35-.66-2.6-1.47-3.76-2.4-1.5-.25-2.97-.5-4.4-.74ZM246.25,192.26c-.71-.02-1.11.56-1.67.71-1.34.35-2.49,1.08-3.68,1.73-.61.33-1.19.68-1.67,1.19-.35.38-.7.76-1.07,1.12-.24.24-.5.51-.81.62-1.17.41-2.04,1.26-3.02,1.94-.56.39-1.11.82-1.56,1.33-.92,1.04-1.95,1.95-3.13,2.62-.95.54-1.77,1.2-2.59,1.88-.59.5-1.15,1.02-1.87,1.35-.3.14-.57.4-.78.65-1.31,1.55-2.85,2.82-4.59,3.96-.13.43-.2.88.17,1.28.42.25.84.17,1.25.03.82-.28,1.67-.37,2.53-.36,1.51.02,2.98-.18,4.42-.72.72-.27,1.49-.41,2.24-.58,1.05-.23,2.11-.4,3.15-.65.96-.23,1.9-.51,2.9-.52.38,0,.76-.13,1.13-.24.94-.28,1.88-.58,2.82-.89,1.02-.33,2.06-.62,3.05-1.01,2.69-1.06,5.47-1.74,8.33-2.16.24-.04.47-.16.66-.23.29-.65.2-1.25.07-1.84-.26-1.17-.57-2.33-.85-3.5-.4-1.67-.77-3.35-1.21-5-.22-.81-.57-1.6-1.26-2.1-.75.07-1.24.82-2.13.5-.24-.31-.54-.71-.84-1.1ZM217.04,205.48c.29-.39.43-.54.52-.71.45-.78.83-1.61,1.37-2.32.65-.86,1.26-1.72,1.68-2.72.15-.35.4-.66.64-.96,1.61-2,3.25-3.98,4.86-5.99,1.77-2.21,3.54-4.41,5.25-6.67.94-1.24,1.98-2.37,3.08-3.45.43-.42.82-.88,1.19-1.35.74-.94,1.47-1.9,2.19-2.86.39-.51.84-1,1.1-1.58.45-.99.96-1.91,1.74-2.53.22-.63-.02-1.02-.35-1.39-1.17-1.31-2.26-2.69-3.72-3.72-.28-.2-.55-.44-.73-.72-.9-1.41-2.35-2.25-3.48-3.41-.3-.31-.69-.53-1.23-.2-.16.74-.48,1.48-1.03,2.1-.08.09-.14.22-.18.34-.25.91-.55,1.8-.7,2.73-.17,1.03-.49,1.99-.86,2.96-.3.8-.49,1.64-.74,2.46-.4,1.31-.77,2.63-1.21,3.93-.35,1.01-.83,1.97-1.19,2.98-.2.57-.42,1.1-.77,1.61-.34.48-.61,1.04-.79,1.6-.6,1.84-1.22,3.66-2.13,5.37-.14.26-.25.55-.33.84-.5,1.72-1.48,3.28-1.73,5.1-.04.33-.23.64-.37.96-.93,2.08-1.62,4.24-2.06,6.48-.05.27,0,.55,0,1.12ZM218.85,209.73c.19-.13.38-.19.46-.32,1.01-1.65,2.6-2.73,4.01-3.94,2.04-1.76,4.25-3.33,6.43-4.93,1.11-.81,2.19-1.65,3.16-2.63.57-.58,1.18-1.13,1.82-1.62,1.09-.83,2.27-1.54,3.33-2.4,1.29-1.04,2.72-1.77,4.25-2.38.63-.25,1.24-.61,1.77-1.03,1.23-.97,2.32-2.14,3.87-2.63.02-.23.09-.41.05-.56-.38-1.4-.78-2.8-1.18-4.19-.05-.16-.13-.32-.21-.47-.81-1.36-1.62-2.73-2.45-4.08-.3-.48-.69-.88-1.24-.93-1.11.17-1.66.93-2.1,1.78-.51.2-1.04.31-1.44.6-.44.32-.74.81-1.11,1.23-.11.13-.25.24-.36.37-.43.48-.89.93-1.27,1.45-.93,1.29-1.79,2.61-2.86,3.79-.64.7-1.26,1.39-2.02,1.97-.4.31-.78.68-1.06,1.1-.71,1.07-1.36,2.18-2.05,3.26-.23.36-.53.67-.79,1.01-1.14,1.44-2.29,2.88-3.42,4.33-.18.23-.28.53-.44.78-.45.68-.91,1.35-1.38,2.01-.52.73-1.12,1.42-1.55,2.2-.89,1.6-1.69,3.25-2.87,4.68-.06.6-.21,1.22.66,1.56ZM196.23,202.74c.11-.45.24-.69.22-.93-.1-1.02-.21-2.05-.38-3.06-.23-1.35-1.22-2.32-1.86-3.47-.13-.24-.48-.35-.71-.53-.5-.4-1.02-.78-1.47-1.23-1.34-1.32-2.66-2.67-3.98-4.01-.09-.09-.21-.16-.27-.27-1.07-1.72-2.92-2.78-3.92-4.56-.18-.32-.55-.54-.83-.8-.87-.83-1.75-1.64-2.6-2.49-.54-.54-1.02-1.14-1.6-1.79-.67-.03-1.39-.06-2.21-.1-.49-.34-1.06-.72-1.71-1.16-1.19.99-2.05,2.27-2.97,3.24-.46,1.35-.87,2.52-1.25,3.7-.14.45-.23.92-.3,1.38-.07.44,0,.86.48,1.29.65.13,1.45.3,2.26.46.09.06.22.11.3.2.94.99,1.88,1.99,3.19,2.52.08.03.13.11.21.15,1.72,1.05,3.43,2.09,5.15,3.14.04.02.08.03.12.05.85.23,1.54.72,2.2,1.3.32.28.67.54,1.04.75.89.51,1.82.96,2.71,1.48,1.4.82,2.87,1.54,4.17,2.54.88.68,1.86,1.23,2.81,1.79.31.19.7.25,1.21.41ZM195.14,215.79c-.12-.57-.5-.66-.9-.64-.73.05-1.31-.25-1.91-.62-.65-.41-1.35-.77-2.08-1.01-2.36-.77-4.74-1.48-7.12-2.18-.36-.11-.77-.05-1.15-.09-.38-.04-.81.01-1.13-.15-1.09-.55-2.31-.63-3.45-.98-.45-.14-.91-.27-1.37-.34-.84-.14-1.7-.2-2.54-.35-1.86-.34-3.67-.84-5.36-1.71-.28-.15-.63-.17-1-.26-.11.27-.25.45-.26.65-.09,1.11-.17,2.22-.2,3.33-.02.68.08,1.36.13,2.05.05.68.07,1.37.19,2.04.12.66-.08,1.39.46,2.02.31.03.64.11.98.1,2.48-.08,4.96-.17,7.45-.28.43-.02.85-.16,1.27-.15,1.11.02,2.22.13,3.33.11,1.8-.02,3.59-.1,5.39-.16.21,0,.42-.08.63-.13,1.89-.44,3.79-.73,5.74-.6.6.04,1.2,0,1.8-.04.43-.03.86-.1,1.11-.61ZM207.61,204.02c.36-.78.07-1.49-.27-2.19-.7-1.42-1.44-2.83-2.07-4.28-.48-1.1-.93-2.22-1.23-3.38-.54-2.08-1.11-4.14-1.99-6.11-.12-.27-.24-.56-.28-.85-.14-1.08-.62-2.05-1.05-3.03-.57-1.3-1.15-2.59-1.76-3.86-.17-.37-.29-.83-.77-.94-.4.15-.36.48-.35.76.03.64.18,1.29.13,1.92-.09,1.18.08,2.31.33,3.44.17.76.22,1.51.1,2.3-.18,1.23-.19,2.48.05,3.72.08.42.1.85.11,1.28.05,1.69.29,3.33.91,4.91.15.4.26.81.4,1.26-.56,1.07-.75,2.2-.45,3.37.27,1.1.24,2.31,1.11,3.2,2.37-.5,4.66-.99,7.1-1.51ZM216.47,212.11c-.21-.36-.49-.83-.78-1.31-.95-1.59-2.44-2.22-4.19-2.32-.7-.04-1.35-.12-1.95-.53-.39-.27-.83-.47-1.38-.14-.31,1.06-1.16,1.58-2.21,1.84-.45.76-1,1.44-.92,2.11.49,1.04.87,1.85,1.27,2.69.7.18,2.63.19,3.48-.06,1.02-.31,2.11-.36,3.11-.81.45-.2,1.01-.17,1.52-.23.34-.04.69-.03,1.03-.09.56-.1.95-.38,1.02-1.16ZM202.27,209.14c-.55.05-.94.26-1.34.66-.29,1.68-1.03,3.4-.03,5.18.83.45,1.59.27,2.25-.11-.25-1.01-.54-1.89-.68-2.81-.15-.94.12-1.93-.2-2.93Z"/>
  <path class="cls-1" d="M156.99,272.14c.41.65.82,1.28,1.23,1.93.34-.12.58-.19.81-.29.32-.13.62-.32.95-.4,1.38-.32,2.76-.61,4.04-1.24.15-.07.34-.06.5-.09.58-.11,1.15-.23,1.75-.34,1.2-.16,2.43-.38,3.66-.46,1.45-.1,2.75-.57,3.91-1.2,2.12-.15,4.12-.35,6.06-.98.68-.22,1.43-.25,2.15-.36.25-.04.52-.02.77-.08,2.21-.58,4.51-.57,6.75-.91,1.31-.19,2.65-.19,3.97-.31.68-.06,1.35-.23,2.04-.28,1.37-.11,2.74-.17,4.11-.26.43-.03.87-.01,1.27-.15.79-.27,1.58-.31,2.4-.34.94-.03,1.88-.2,2.82-.26,1.54-.11,3.08-.14,4.61-.3,1.02-.11,2.02-.38,3.02-.61,1.96-.46,3.92-.94,5.87-1.42.33-.08.63-.28.95-.37,1.11-.32,2.23-.61,3.35-.91.37-.1.77-.12,1.13-.25,1.99-.7,4.1-.93,6.13-1.44.95-.24,1.94-.37,2.92-.49,2.64-.34,5.26-.84,7.93-.76,1.58.05,3.17-.3,4.74.07,1.04.24,2.09.47,3.11.78.44.13.81.46,1.24.72.38,1.35.62,2.65.24,4.05-.36,1.36-.55,2.77-.81,4.16-.26,1.39-.51,2.78-.76,4.17-.08.42-.16.84-.26,1.26-.13.54-.21,1.1-.42,1.61-.85,2.13-1.19,4.37-1.39,6.63-.07.82-.16,1.62-.53,2.37-.11.22-.2.48-.21.73-.02.89-.35,1.67-.74,2.4.05.89.1,1.75.15,2.68-.82,1.22-.96,2.66-.99,4.14-.01.63-.21,1.27-.3,1.9-.17,1.1-.34,2.2-.5,3.3-.04.3-.02.61-.11.89-.43,1.49-.46,3.04-.61,4.57-.04.41,0,.89.17,1.25.27.53.26,1.07.29,1.63.03.54-.16.99-.56,1.38-.33.33-.61.71-.75.88-.31,1.55-.57,2.84-.89,4.42.21.79-.05,1.83-.35,2.86-.36,1.24-.45,2.52-.54,3.79-.05.72-.11,1.45-.16,2.2-.23.7-.44,1.45-.72,2.17-.12.31-.3.65-.55.85-.68.52-1.38,1.01-2.13,1.42-.77.42-1.6.67-2.3.28-1.95.14-3.69.62-5.49.77-1.84.15-3.68.08-5.52.21-1.75.12-3.49.38-5.24.55-.55.05-1.1.02-1.66.01-1.54-.03-3.08-.05-4.62-.11-1.77-.07-3.49.4-5.24.54-.75.06-1.49.38-2.21.67-1.03.41-2.08.5-3.16.42-.51-.04-1.03-.05-1.54-.05-.65,0-1.27.13-1.87.41-1.03.48-2.09.58-3.25.49-2.22-.17-4.45-.29-6.68.08-.93.15-1.87.18-2.82.1-.89-.07-1.8.01-2.69.1-1.06.1-2.12.26-3.18.42-1.52.23-3.05.46-4.57.72-.79.14-1.57.34-2.33.64h-1.6c-.35.47-.7.95-1.04,1.42-1.05.54-1.71-.18-2.43-.64-.64-1.21-.86-2.47-1-3.75-.17-1.5-.23-1.71-.95-2.98.03-.36.07-.78.12-1.32-.76-.85-.94-1.93-1-3.13-.04-.88-.17-1.78-.27-2.67-.18-1.57-.28-3.16-.76-4.7-.31-1-.24-2.04-.24-3.07,0-.51,0-1.03,0-1.64-.17-.29-.38-.66-.45-.77-.35-1.57-.63-2.86-.95-4.29.07-.23.18-.59.24-.78-.24-1.05-.43-1.93-.63-2.8-.22-.95-.52-1.88-.58-2.88-.03-.46-.44-.9-.68-1.34-.17-.59.32-.97.48-1.65-.17-.92-.3-2.03-.61-3.1-.35-1.19-.55-2.42-1.05-3.57-.3-.68-.25-1.51-.35-2.28-.15-1.19-.23-2.39-.45-3.57-.15-.84-.43-1.66-.75-2.46-.4-1.02-.47-2.09-.64-3.14-.08-.46-.16-.94-.34-1.36-.39-.9-.85-1.78-1.3-2.65-.14-.27-.32-.51-.49-.76-.1-.14-.22-.26-.32-.4-.38-.56-.59-1.18-.29-1.82.32-.7.95-.94,1.89-.88ZM232.29,291.92l-.03-.05s.05.04.05.04c0,.09,0,.18,0,.27-.77.5-.39,1.34-.62,1.99-.21.56-.43,1.11-.56,1.69-.3,1.29-.59,2.59-.83,3.89-.09.48-.23,1.01.21,1.58.58-.3,1.33.12,2-.61.02-1.03.05-2.18.07-3.33.01-.68-.04-1.37.02-2.05.09-1.08,0-2.14-.29-3.18.02-.03.06-.05.05-.08,0-.06-.03-.11-.05-.17ZM248.69,263.47c-.4-.54-.93-.79-1.47-.84-1.24-.11-2.48-.13-3.72-.17-.64-.02-1.28-.04-1.92-.05-.98-.01-1.99-.15-2.94.02-.93.17-1.85.33-2.8.34-.34,0-.69.03-1.02.11-2.38.59-4.79,1-7.21,1.31-1.91.25-3.74.87-5.68,1.01-.58.04-1.2.26-1.69.57-.94.59-1.97.81-3.03,1.01-1.09.2-2.19.39-3.27.68-1.75.47-3.56.51-5.32.87-.46.09-.94.09-1.41.12-1.58.1-3.16.19-4.74.29-.17.01-.35.04-.5.12-.92.49-1.9.44-2.89.41-.38-.01-.77.01-1.15.05-2.17.22-4.35.5-6.52.67-1.58.12-3.17.02-4.69.62-.47.19-1.05.1-1.5.32-.65.31-1.31.4-2,.37-1.09-.05-2.13.14-3.15.51-1.05.38-2.13.67-3.27.58-.08,0-.17.03-.28.05-.26.18-.53.37-.87.61-1.08-.27-2.08.09-3.08.5-.43.18-.91.26-1.37.35-1.09.23-2.18.42-3.21.91-.37.17-.82.19-1.25.23-1.62.13-3.25.08-4.86.4-.94.19-1.84.42-2.37,1.4.09.4.2.81.29,1.23.41,1.92,1.26,3.75,1.31,5.75,0,.16.07.34.16.48.33.53.47,1.09.48,1.71,0,.22.18.43.28.65.2-.05.33-.06.45-.11,1.57-.68,3.13-1.38,4.71-2.03.63-.26,1.3-.46,1.98-.56,1.75-.25,3.45-.64,4.93-1.51.47,0,.87.06,1.23-.01,1.01-.2,2.04-.36,2.99-.73,2-.79,4.15-1.03,6.18-1.71.8-.27,1.68-.33,2.52-.49.38-.07.79-.07,1.13-.22.91-.42,1.89-.55,2.84-.78,1.54-.36,3.09-.71,4.65-.96,1.99-.32,4-.48,5.9-1.24.31-.12.67-.14,1.01-.19,1.95-.27,3.91-.52,5.85-.81,2.2-.33,4.37-.88,6.62-.92.3,0,.59-.11.89-.15,1.91-.25,3.76-.92,5.71-.86.17,0,.34-.06.51-.09,2.31-.46,4.65-.79,7-1,2.43-.21,4.85-.56,7.28-.76,1.09-.09,2.2-.46,3.28.02.99-.38,1.97-.69,3.09-.33v.91c-.49.48-.99.47-1.52.39-.85-.14-1.7-.27-2.52.18-.14.07-.34.03-.5.05-.46.07-.92.14-1.38.21-.46.07-.92.15-1.39.2-.34.04-.69.02-1.02.08-1.27.23-2.55.3-3.84.21-.46-.03-.97-.01-1.39.15-1.55.6-3.21.51-4.8.84-.5.1-1.01.15-1.48.37-.43.2-.87.36-1.21.49-.58,0-1.05-.04-1.51,0-1.11.11-2.21.25-3.31.4-.5.07-1,.18-1.5.28-.75.15-1.51.44-2.26.44-1.61,0-3.15.27-4.71.62-2.67.61-5.44.7-8.09,1.44-.41.11-.85.12-1.27.21-1.84.39-3.69.78-5.53,1.18-2.14.46-4.29.87-6.41,1.39-1.58.38-3.11.93-4.68,1.35-1.15.31-2.33.53-3.49.84-.66.17-1.29.46-1.95.64-2.02.54-4.09.89-6,1.8-.15.07-.34.06-.5.1-.71.15-1.43.3-2.22.46-.25-.03-.59-.08-1-.13-.6.44-1.22.89-1.53,1.12-1.2.75-2.35.36-3.19.97-.19,1.48-.18,1.56.25,2.71.15.4.34.8.41,1.22.3,1.69.95,3.3,1.11,5.01.01.11.12.22.2.36,1.04.4,2,.08,2.94-.37.4.04.78.07,1.17.11.57-.38,1.21-.42,1.86-.39.38.01.78.02,1.15-.08,1.54-.41,3.12-.55,4.7-.71,1.15-.12,2.32-.2,3.21-.95.21-.02.35-.06.46-.03,1.15.36,2.28.21,3.42-.06.62-.15,1.28-.15,1.91-.24.55-.07,1.13-.09,1.65-.27,1.18-.41,2.37-.74,3.65-.54.2-.3.44-.52.52-.79.23-.82.41-1.66.57-2.5.22-1.14.42-2.28.61-3.42.08-.5.3-.91.79-1.09.52-.2,1.06-.38,1.66,0,.2.36.38.81.66,1.18.81,1.1,1.06,2.33.93,3.65-.05.49.03.92.25,1.3.16.05.24.09.32.09,2.49-.08,4.88-.83,7.36-.99.13,0,.25-.08.37-.1,1-.21,2.01-.42,3.02-.61.55-.1,1.13-.09,1.65-.27.94-.33,1.87-.57,2.88-.54.2,0,.43-.08.61-.18.79-.41,1.64-.48,2.5-.52.76-.04,1.53-.13,2.34-.19.2-.49.45-.91.54-1.35.24-1.13.48-2.27.58-3.42.07-.87.22-1.69.49-2.46,1.13-.82,1.83-.67,2.38.47.15.31.26.65.3.98.1.94.15,1.88.22,2.82.04.51-.07,1.04.25,1.48.77.34.88.45,1.48.29,1.45-.39,2.93-.53,4.41-.72.67-.09,1.3-.41,1.93-.61.45-.66.45-.66.45-1.18,0-.38-.02-.78.07-1.15.18-.78.43-1.55.71-2.56.21-.33.69-.5,1.39-.31.61.57.97,1.31,1.02,2.21.05.91.33,1.76.8,2.64.32.03.65.1.98.08,1.62-.13,3.24-.28,4.86-.42.3-.02.6-.02.9.02.3.05.58.18.6.63-.5.63-1.24.93-1.95,1.15-.45-.07-.83-.18-1.21-.18-.38,0-.76.12-1.14.17-.38.04-.77.05-1.15.09-.42.04-.84.09-1.27.14-.15.28-.35.49-.38.72-.12,1.19-.3,2.39-.26,3.59.06,1.88.07,3.75-.05,5.63-.04.6-.01,1.2.06,1.8.04.32.23.61.37.98h2.55c.15.35.27.65.39.95-.84.96-2.1.58-3.08,1.22-.5,1.52-.28,3.03.35,4.5.16.09.27.18.39.2.76.12,1.52.28,2.29.33,1.18.07,2.3-.16,3.21-.97.21-.74.47-1.43.6-2.15.35-1.94.66-3.89.95-5.83.32-2.16.45-4.35.92-6.49.34-1.55.52-3.13.74-4.7.17-1.19.51-2.32.9-3.47.39-1.15.27-2.46.54-3.67.4-1.8.86-3.59,1.08-5.42.14-1.19.55-2.32.64-3.53.07-.93.24-1.86.26-2.81,0-.42.11-.85.2-1.26.22-.96.48-1.91.67-2.88.08-.41.01-.84.01-1.22ZM174.57,319.4c-.46-.57-.87-.61-1.32-.58-.81.06-1.63.07-2.44.15-1.05.1-2.12.18-3.17.68,0,.32-.04.62,0,.9.36,2.2.71,4.39,1.11,6.58.13.71.33,1.42.61,2.08.21.48.36.94.37,1.47.03.85.42,1.54,1.05,2.21.37-.15.72-.3,1.07-.42.4-.14.8-.32,1.22-.38,1.78-.26,3.57-.5,5.35-.72.98-.12,1.96-.24,2.94-.3,1.54-.1,3.08-.14,4.63-.22.43-.02.85-.11,1.28-.16.68-.08,1.36-.21,2.04-.22,1.72,0,3.43.06,5.15.06.68,0,1.37-.07,2.05-.18,1.78-.28,3.54-.65,5.35-.68.94-.01,1.87-.2,2.8-.35,1.82-.3,3.63-.67,5.45-.95.93-.14,1.88-.21,2.82-.22,2.1-.02,4.2.04,6.3,0,1.16-.02,2.33-.06,3.46-.26,1.91-.34,3.83-.45,5.77-.44.47,0,.94-.05,1.41-.08.59-.05,1.19-.2,1.78-.15,1.72.13,3.32-.27,4.9-.87.5-.19.88-.52,1.13-1,.18-.34.36-.69.56-1.01.34-.56.5-1.15.52-1.83.01-.77.16-1.53.25-2.3.08-.68.21-1.35.25-2.03.04-.78.17-1.53.5-2.24.12-.27.19-.57.29-.85.48-1.35.37-2.78.6-4.2-.75-.31-1.49-.48-2.27-.43-.98.06-1.96.1-2.94.15-1.44.09-1.92-.21-2.59-1.62.05-.34.1-.72.15-1.1-.03,0-.06,0-.1,0-.16-1.48-.31-2.96-.47-4.47-.48-.16-.87-.28-1.13-.37-1.13.21-1.53.99-1.98,1.67-.16,1.1.06,2.22-.55,3.14.02.27.02.48.05.69.12.74-.24,1.45-.19,2.15.11,1.64-.17,3.24-.35,4.85-.03.3-.11.61-.06.9.19,1.12-.04,2.21-.07,3.32-.03,1.51-.62,2.82-1.36,4.06-.82.45-1.52.23-2.28-.28-.22-1.29-.37-2.66-.71-3.97-.36-1.36-.91-2.67-1.37-3.98-.17-1.15-.33-2.29-.51-3.43-.1-.64-.13-1.29-.32-1.9-.27-.87-.34-1.76-.44-2.66-.13-1.09-.15-2.22-.69-3.25-.24-.03-.45-.08-.66-.07-.21,0-.41.08-.6.12-.49.49-.53,1.09-.6,1.69-.19,1.7-.16,3.4-.58,5.09-.35,1.42-.88,2.77-1.24,4.17-.11.43-.4.77-.82.94-.69.28-1.44.49-2.12.16-.84-.41-1.67-.34-2.51-.18-2.4.44-4.78,1-7.23,1.19-.51.04-1.01.17-1.49.25-1.73,2.08-2.68,4.63-4.45,6.58-.96-.07-1.63-.44-2.11-1.22,0-.55.08-1.12-.02-1.66-.22-1.26-.55-2.51-.8-3.77-.21-1.05-.43-2.1-.52-3.16-.12-1.54-.12-3.08-.18-4.62,0-.13-.03-.25-.05-.47-.21-.22-.46-.49-.57-.61-1.17.15-2.14.27-3.3.42-.21.14-.61.39-.96.61-.45.86-.7,1.69-.7,2.63,0,.88.06,1.81-.41,2.64-.06.11-.05.25-.08.38-.18,1.01-.36,2.01-.58,3.27.34,1.78.19,5.6-.56,8.5-.47.82-.87,1.52-1.27,2.24-.83.25-1.52,0-2.29-.54-.29-1.17-.6-2.41-.89-3.66-.12-.5-.18-1.01-.25-1.52-.25-1.82-1.06-3.53-1.02-5.42.02-.9-.02-1.8-.09-2.7-.06-.85-.18-1.7-.32-2.55-.05-.27-.24-.52-.4-.83-.25.08-.44.14-.72.23-.11.68-.27,1.35-.33,2.02-.08.94-.13,1.87-.42,2.78-.23.73-.25,1.52-.38,2.28-.23,1.35-.41,2.71-1.04,4.01-.42.17-.85.34-1.19.48q-1.27-.39-1.95-1.06c-.08-1.19-.17-2.46-.25-3.64ZM216.32,303.1c.08-.52.15-.94.21-1.36.2-1.57.47-3.14.55-4.72.07-1.37.08-2.74.44-4.08.17-.62.19-1.26-.09-1.85-.63-.29-1.23-.2-1.82-.09-1.43.27-2.86.52-4.29.8-2.18.44-4.37.86-6.54,1.36-1.25.29-2.5.51-3.78.69-1.42.2-2.81.69-4.26.87-.04,0-.07.04-.23.14-.14.42-.31.94-.47,1.42.29,1.16.18,2.27.08,3.39-.06.68-.13,1.38-.07,2.05.13,1.36.34,2.72.52,4.1.26.17.5.33.75.49.43-.17.82-.33.98-.4.88,0,1.52.06,2.15-.02.63-.08,1.25-.29,1.88-.43.59-.14,1.16-.31,1.64-.71.06-.05.16-.04.28-.07.33.13.68.26,1.05.41.38-.09.77-.14,1.13-.26,1.07-.35,2.16-.52,3.29-.55.77-.02,1.53-.17,2.29-.28.55-.08,1.1-.15,1.64-.29.86-.21,1.8-.09,2.66-.61ZM164.91,300.27c-.12.92.28,5.63.49,6.27.01.04.03.08.04.12.22.91.44,1.83.67,2.74.23.9.47,1.8.72,2.79.98.04,1.88-.26,2.79-.39.89-.13,1.78-.26,2.66-.44.92-.19,1.84-.4,2.75-.66.89-.25,1.88-.19,2.77-.82.11-1.28.06-2.63.36-3.89.31-1.29.11-2.55.19-3.82.08-1.31.52-2.61.2-4-.26.03-.47.02-.66.07-.25.06-.48.17-.74.26-.86-.25-1.69,0-2.54.11-1.44.18-2.9.2-4.31.61-.2.06-.42.02-.64.04-.3.03-.62,0-.88.12-.68.33-1.39.39-2.11.48-.59.07-1.16.25-1.78.39ZM215.83,304.96c-.28.03-.52.04-.76.09-.8.17-1.58.42-2.39.5-1.45.16-2.9.22-4.35.33-.17.01-.34.05-.51.09-.8.15-1.6.3-2.4.44-.76.14-1.58.13-2.25.44-1.17.53-2.36.71-3.62.67-.73-.02-1.45.1-2.13.41-.5.24-.84.61-.93,1.15-.24,1.41-.17,2.83.19,4.2.16.63.27,1.24.29,1.89.02.95.22,1.88.66,2.72.11.2.32.34.53.56.63-.62.73-1.42,1.09-2.08.37-.67.83-1.29,1.29-1.99,1.97.01,3.91-.53,5.72.03,1.46-.41,2.77-.78,4.17-1.18,1.27.55,2.5.15,3.67-.46.45-.64.87-1.24,1.34-1.9.18-1.75.38-3.58.55-5.41.01-.15-.1-.31-.18-.52ZM227.95,301.72c.1-.57.14-.95.22-1.33.11-.5.24-.99.35-1.49.47-2.04.69-4.14,1.36-6.14.26-.77.37-1.59.5-2.39.09-.59.15-1.2-.39-1.71-2.54.42-5.15.44-7.69,1.31,0,.68-.11,1.3.02,1.85.25,1.02.2,2.04.23,3.06.01.47,0,.95.09,1.41.13.61.1,1.22-.1,1.78-.43,1.2-.19,2.36.08,3.58.35.22.7.45,1.07.69.92-.55,1.85-.47,2.75-.23.53-.14,1.02-.27,1.51-.39ZM189.68,295.93c-.17,0-.3-.03-.42,0-1.12.31-2.23.61-3.39.72-.72.07-1.44.24-2.13.44-.64.18-1.38.27-1.62,1.14.09.38.27.8.27,1.21,0,1.44.39,2.79.73,4.21-.39.95-.26,1.91.12,2.79-.09.85-.47,1.67.28,2.39.58-.14,1.15-.35,1.73-.39.89-.05,1.67-.33,2.51-.84.08-.3.17-.67.26-1.04.16-.62.32-1.25.47-1.87.49-1.99.99-3.99,1.47-5.99.11-.46.21-.92.28-1.38.08-.57.06-1.13-.56-1.39ZM223.14,304.23c-.06.41-.13.7-.15,1-.09,1.43.24,2.8.63,4.16.12.41.32.81.36,1.23.13,1.31.2,2.62.31,4.15.59.33.16,1.66,1.34,1.87.55-.49.62-1.11.68-1.76.13-1.53.34-3.06.46-4.59.14-1.79.31-3.57.73-5.32.19-.81-.25-1.39-1.07-1.4-1.1-.02-2.2.12-3.29.67ZM190,307.52c.43,0,.66.06.83-.01.72-.31,1.45-.48,2.24-.49.45,0,.81-.25,1.05-.73.13-.96.34-1.95.07-2.99-.15-.56-.13-1.21,0-1.79.36-1.68.01-3.32-.1-4.98-.02-.33-.16-.66-.27-.98-.02-.07-.13-.1-.26-.21-.21.09-.47.2-.62.26-.24.73-.43,1.33-.64,1.93-.59,1.7-1.25,3.4-1.35,5.21-.07,1.22-.37,2.35-.71,3.49-.11.36-.13.74-.23,1.29ZM183.67,310.88c-.41.5-.31.98-.33,1.45-.07,1.7.43,3.4.06,5.11-.02.08.02.17.02.25.11,1.33.6,2.56.97,3.82.02.07.12.11.23.19.13-.02.29-.04.56-.07.24-.99.5-1.97.71-2.96.14-.63.12-1.29.32-1.89.58-1.8.72-3.68,1.14-5.51.08-.35,0-.74,0-1.09-.22-.08-.36-.18-.46-.15-1.07.27-2.14.57-3.22.86ZM177.28,312.4c-.84-.2-1.48.08-2.14.25-.5.13-.99.31-1.49.37-1.23.15-2.47.24-3.67.35-.4.24-.77.46-1.07.64-.55.08-1.01.15-1.49.22-.2.51-.39.97-.57,1.41.19.48.2.99.72,1.29.29-.13.59-.27.83-.38.41,0,.76.06,1.09-.01,1.09-.25,2.2-.31,3.31-.46,1.22-.16,2.43-.44,3.77-.27.27-.97.53-1.9.77-2.83.04-.15-.02-.33-.05-.56ZM220.55,302.72c.14-1.16.18-2.22.03-3.28-.07-.51-.23-1.03-.17-1.52.23-1.96-.28-3.85-.5-6.06-.23.78-.36,1.3-.54,1.8-.16.46-.23.9-.09,1.38.06.2.11.42.09.63-.07,1.02-.09,2.06-.28,3.06-.22,1.15-.17,2.3-.18,3.45,0,.23.12.47.22.79.5-.09.95-.17,1.42-.25ZM180.58,306.36c-.36.57-.45,1.08-.12,1.68q.65-.53.12-1.68ZM180.74,308.42c-.28.32-.44.5-.72.81.4.06.61.08.94.13-.08-.34-.13-.55-.23-.94Z"/>
  <path class="cls-1" d="M244.09,218.9c.72.03,1.45.05,2.17.1,1.02.07,2.06.06,3.05.29,1.36.31,2.61,1.01,3.45,2.09.64.82,1.02,1.89,1.3,2.91.25.93.43,1.9.47,2.9.06,1.33-.29,2.54-.66,3.77-.23.76-.67,1.38-1.3,1.87-.1.08-.2.16-.3.25-1.52,1.38-3.29,1.86-5.33,1.69-1.48-.12-2.97-.07-4.47.21-1.45.28-2.97.08-4.46-.18-1.01-.18-1.88-.55-2.64-1.22-.74-.66-1.24-1.5-1.76-2.36,0-.56-.01-1.12,0-1.68.02-.91.18-1.78.6-2.61.17-.34.31-.71.39-1.08.41-1.79,1.56-3.03,3.04-3.98.86-.55,1.83-.91,2.75-1.37.42-.21.84-.43,1.22-.69.72-.49,1.45-.92,2.46-.92ZM240.4,222.2c-.65.6-1.28,1.24-1.98,1.79-.9.71-1.33,1.77-2.03,2.63-.12.15-.16.4-.19.61-.15,1.25-.04,2.49.42,3.66.16.42.51.79.84,1.1.31.28.72.45,1.18.72,1.18-.12,2.41-.19,3.63-.39.93-.15,1.84-.42,2.28-1.44.11-.25.42-.42.62-.64,1.22-1.34,2-2.79,1.29-4.66-.09-.24-.14-.49-.22-.79-1.69-1.25-3.61-2.05-5.86-2.59ZM249.49,227.69c-.33.83-.64,1.76-1.06,2.65-.43.91-1.12,1.67-1.91,2.46.32.12.51.26.7.26,1.99.04,4.41-1.67,4.5-4.08.04-1.11.05-2.21-.07-3.32-.15-1.35-.6-2.48-1.89-3.29-.61-.03-1.33-.07-2.12-.11,0,.57.23.95.47,1.35.3.51.6,1.04.78,1.6.25.77.39,1.57.6,2.48Z"/>
  <path class="cls-1" d="M163.13,242.17c-.87.58-1.65,1.11-2.43,1.64-.47.32-.98.53-1.57.46-.25-.03-.51,0-.83,0-.21.34-.41.66-.6.99-.66,1.17-1.59,2.01-2.91,2.35-.7.18-1.39.37-2.13.4-1.53.07-2.71-.65-3.87-1.48-.14-.1-.28-.22-.37-.35-1.35-1.9-2.5-3.85-2.47-6.34.02-1.8.28-3.48,1.04-5.1.36-.77.88-1.34,1.63-1.76.76-.42,1.38-1.02,1.79-1.8.64-1.24,1.77-1.53,3.03-1.5,1.47.03,2.89.33,4.21,1.01.38.2.78.36,1.19.49.84.27,1.58.65,2.15,1.35.08.1.18.18.29.25,1.35.89,2.13,2.19,2.71,3.64.14.36.32.7.5,1.08-.41,1.55-.57,3.17-1.35,4.66ZM152.17,232.68c-1.09.61-1.86,1.52-2.53,2.52-.14.21-.24.46-.29.71-.23,1.13-.57,2.26-.63,3.4-.07,1.32.19,2.65.96,3.78.36.53.78,1.02,1.23,1.48.75.76,1.73.93,2.73.86.78-.06,1.33-.61,1.65-1.29.53-1.12.98-2.27,1.46-3.41.05-.11.06-.25.06-.38.03-.73.16-1.46.07-2.18-.18-1.51-.79-2.88-1.74-4.08-.08-.1-.18-.18-.29-.25-.81-.47-1.6-1-2.69-1.17ZM159.28,241.91c.66.04.91-.32,1.15-.67.52-.75.93-1.55.97-2.47.07-1.57-.73-2.96-2.05-3.52.1,1.15.28,2.24.26,3.33-.01,1.09-.21,2.18-.34,3.33Z"/>
  <path class="cls-1" d="M208.13,236.48c-1.27,1.33-2.68,2.25-4.39,2.7-.25.06-.49.16-.71.29-1.1.65-2.22,1.28-3.28,2-.72.49-1.41.59-2.28.53-1.87-.12-3.26-1.23-4.78-2.06-.34-.19-.64-.61-.78-.99-.39-1.04-.71-2.11-1-3.18-.17-.6.04-1.19.25-1.76.3-.82.31-1.64.3-2.51-.02-1.83.45-3.61,1.9-4.84.65-.55,1.59-.81,2.43-1.09.69-.23,1.38-.4,2.03-.76,1.47-.81,2.93-.37,4.31.28.8.39,1.54.93,2.26,1.47.33.25.57.63.81.98.71,1.02,1.35,2.08,2.1,3.07.79,1.03,1.08,2.22,1.27,3.45.04.28-.04.59-.1.88-.1.5-.22,1-.33,1.54ZM196.1,229.35c-.68.51-1.3.96-1.82,1.34-.2.72-.28,1.33-.53,1.87-.39.86-.41,1.75-.36,2.65.12,2.16,1.43,3.65,3.62,4.04.65-.27,1.45-.58,2.21-.95.29-.14.6-.39.75-.66.54-1.05.85-2.17.55-3.35-.2-.8-.3-1.58-.18-2.41.12-.81-.26-1.43-.98-1.8-1-.52-2.06-.85-3.27-.73ZM199.19,228.22c.47.12.84.22,1.2.32.94.25,1.61.76,1.84,1.76.12.54.32,1.07.47,1.6.34,1.21.56,2.42.15,3.66-.19.57-.09,1.09.29,1.66.27-.04.59,0,.82-.14.87-.51,1.44-1.31,1.98-2.09-.05-.52-.12-.99-.15-1.46-.04-.67-.31-1.25-.67-1.78-1.07-1.58-2.45-2.84-3.93-4.02-.49-.39-1.06-.55-1.68-.45-.11.02-.22.12-.37.21.01.2.03.4.06.74Z"/>
  <path class="cls-1" d="M178.51,242.67c-.61.31-1.21.63-1.82.93-.76.38-1.54.47-2.37.27-.37-.09-.76-.11-1.14-.16-1.39-.15-2.56-.65-3.32-1.9-.2-.33-.45-.62-.79-1.08-.24-1.04-.59-2.24-.77-3.46-.22-1.58-.02-3.12.58-4.64.52-1.33,1.41-2.32,2.38-3.3.82-.82,1.8-1.28,2.97-1.35.55-.03,1.1-.15,1.64-.26.59-.12,1.17-.28,1.74-.42,1.56.39,3.06.88,4.45,1.67.68.39,1.28.86,1.67,1.56.17.3.35.59.54.88,1.21,1.79,1.16,3.73.63,5.68-.29,1.07-.69,2.11-1.12,3.12-.31.74-.91,1.24-1.7,1.45-1.16.31-2.32.59-3.48.89-.03.04-.06.08-.08.12ZM170.77,233.41c-.17,2.39-.04,4.93.91,7.33,1.14.77,2.29,1.09,3.37.86.69-.63,1.27-1.06,1.74-1.61.5-.58,1.01-1.21,1.28-1.9.64-1.61.87-3.31.55-5.11-.23-.29-.45-.67-.77-.95-.31-.27-.7-.58-1.08-.63-.71-.09-1.29-.41-1.89-.76-.37-.21-.77-.37-1.09-.52-1.11.38-1.52.72-2.01,1.6-.29.51-.6,1.02-1,1.7ZM180.28,239.48c.09.05.18.1.27.15.61-.69,1.25-1.37,1.47-2.32.28-1.21.52-2.44.18-3.68-.04-.16-.26-.28-.37-.4-.6.28-.52.77-.48,1.16.13,1.5-.32,2.88-.84,4.25-.1.27-.15.55-.23.83Z"/>
  <path class="cls-1" d="M218.2,239.7c-.91-.25-1.53-.42-2.14-.59-.25-.07-.54-.08-.73-.23-1.59-1.23-3.04-2.56-2.93-4.82.03-.64.04-1.29.13-1.92.31-2.03,1.49-3.51,3.08-4.71.55-.41,1.07-.87,1.65-1.22.54-.33,1.14-.57,1.74-.79.88-.32,1.79-.57,2.86-.91.36.08.9.2,1.45.31.56.11,1.07.32,1.49.7.09.09.18.21.29.25,1.93.68,2.98,2.35,4.28,3.66.2,1,.37,1.92.56,2.84.14.64,0,1.19-.42,1.68-.36.42-.76.82-1.13,1.23-.34.38-.71.75-1.01,1.15-.49.65-1.12,1.08-1.89,1.24-1.36.28-2.62.8-3.85,1.4-1.15.56-2.37.7-3.42.73ZM222.86,229.14c-.16-.14-.32-.29-.48-.43-1.4-1.08-1.69-1.14-3.43-.74-1.18.27-2.09.94-2.8,1.91-.35.48-.7.96-1.1,1.51-.68,1.9.11,3.58.97,5.24.43.08.78.1,1.1.2,1.76.54,3.19-.03,4.41-1.3.6-.62,1.19-1.26,1.41-2.11.36-1.38.52-2.78-.08-4.28ZM226.13,230.11c-.04.49-.1.74-.06.97.17.96.12,1.86-.53,2.66-.09.11-.01.37-.01.65,1.12-.31,1.16-1.26,1.55-1.97-.26-.72.1-1.64-.94-2.31Z"/>
  <path class="cls-1" d="M232.31,292.18c0-.09,0-.18,0-.27,0,0-.01.01-.01.01.02.06.05.11.05.17,0,.02-.03.05-.05.08h.02Z"/>
  <polygon class="cls-1" points="232.31 291.91 232.26 291.87 232.29 291.92 232.31 291.91"/>
</svg>