<?xml version="1.0" encoding="UTF-8"?>
<svg id="Livello_1" data-name="Livello 1" xmlns="http://www.w3.org/2000/svg" viewBox="0 0 489 489">
  <defs>
    <style>
      .cls-1 {
        fill: #000;
      }

      .cls-1, .cls-2 {
        stroke-width: 0px;
      }

      .cls-2 {
        fill: #fff;
      }
    </style>
  </defs>
  <path class="cls-1" d="M167.64,313.96c-.25-2.95-.24-5.94-.82-8.82-.73-3.62-.89-7.19-.64-10.86.16-2.33-.17-4.69-.21-7.04-.09-5.29-.25-10.59-.15-15.88.03-1.84-.27-3.62-.42-5.42-.19-2.25-.46-4.5-.72-6.74-.31-2.68-.62-5.36-.99-8.03-.35-2.54-.75-5.07-1.14-7.61-.17-1.08-.46-2.16-.5-3.25-.09-2.39-.09-4.78-.06-7.17.01-1.11.06-2.24.33-3.31.34-1.4,1.53-2.2,2.73-2.73,1.42-.62,2.57-1.53,3.75-2.47,2.08-1.66,4.21-3.27,6.3-4.92.41-.32.72-.77,1.12-1.12,1.15-1,2.18-2.25,3.51-2.89,1.27-.61,2.84-.6,4.29-.84.3-.05.64.07.92-.02,2.7-.89,5.54-.72,8.3-1.12.57-.08,1.12-.3,1.67-.45,3.53-.97,7.18-1.18,10.79-1.66.66-.09,1.35-.12,1.96-.36,1.26-.49,2.22-1.33,2.39-2.78.21-1.81.36-3.62.59-5.42.12-.95.5-1.89.54-2.84.1-2.48.43-4.9,1.16-7.29.43-1.41.31-2.99.47-4.49.28-2.69.52-5.38.9-8.06.51-3.65,1.15-7.27,1.66-10.92.16-1.17-.04-2.4.1-3.57.46-3.68.98-7.36,1.53-11.03.27-1.79.69-3.57,1.02-5.35.16-.87.33-1.74.37-2.61.01-.34-.26-.77-.53-1.01-.74-.68-1.48-1.41-2.35-1.91-1.32-.78-2.1-2.01-3-3.15h.01c-.31-.67-.83-1.34-.89-2.04-.19-2.2-.22-4.42-.27-6.63-.03-1.2.09-2.4.03-3.6-.09-1.91.84-3.53,2.09-4.6,1.49-1.27,2.9-2.75,4.92-3.4,2.17-.7,4.25-.7,6.38-.01.59.19,1.17.39,1.75.59,2.16.74,3.4,2.4,4.1,4.42.54,1.54.75,3.18,1.17,4.77.25.97.62,1.91.91,2.88.3,1.02.11,1.96-.3,2.97-.79,1.95-1.94,3.62-3.35,5.14-1.61,1.74-1.85,3.89-1.97,6.16-.11,2.03.12,3.92.75,5.85.31.95.19,2.1.05,3.14-.37,2.81-.09,5.57.35,8.35.47,2.94.75,5.9,1.14,8.85.4,3.03.86,6.06,1.23,9.1.27,2.2.39,4.41.66,6.61.33,2.73.74,5.46,1.11,8.18.07.53.18,1.06.18,1.59-.01,1.89.87,3.18,2.51,4.06.4.21.72.63.98,1.02.53.76,1.09,1.52,1.48,2.35.38.81.99,1.05,1.78,1.18,2.47.4,4.91.34,7.36-.27,1.06-.26,2.2-.22,3.3-.34,1.87-.21,3.75-.4,5.62-.66,2.11-.29,4.2-.71,6.32-.94,3.43-.39,6.89-.57,10.31-1.03,3.77-.51,7.52-1.21,11.26-1.9,1.65-.3,3.24-.98,4.9-1.15,2.1-.22,4.13-.92,6.3-.81,1.45.07,2.42.91,3.04,1.79.72,1.01,1.53,2.17,1.57,3.56,0,.08.06.17.09.25,1.01,2.3,1.03,4.75,1.04,7.2.01,2.54-.1,5.07,0,7.6.09,2.12.35,4.25.66,6.36.26,1.8.76,3.56,1.03,5.36.14.94.07,1.93.01,2.89-.06,1.02,0,1.97.31,2.98,1.27,4.32,1.87,8.73,1.67,13.26-.1,2.42.22,4.86.32,7.29.1,2.44.13,4.89.25,7.33.12,2.39.35,4.77.48,7.15.09,1.64.12,3.27.17,4.91,0,.18,0,.36.02.53.18,1.08.42,2.16.55,3.25.18,1.57.28,3.15.41,4.73.09,1.06.14,2.13.29,3.19.23,1.52.59,3.03.8,4.56.73,5.41,1.37,10.83,2.12,16.24.38,2.72.97,5.41,1.41,8.12.35,2.19.64,4.4.91,6.6.29,2.33.51,4.66.77,6.99,0,.09.03.18.03.26.01,2.26-.07,4.52.05,6.77.19,3.65.34,7.31.86,10.95.44,3.11.55,6.26.82,9.4.33,3.8.7,7.59,1.01,11.39.2,2.43.35,4.86.46,7.29.09,2.04.04,4.08.14,6.12.06,1.14.33,2.27.43,3.41.13,1.52.14,3.06.29,4.58.13,1.32.42,2.63.54,3.95.18,1.94.33,3.89.41,5.83.09,2.3.12,4.6.09,6.9-.02,1.69-.24,3.37-.29,5.05-.03.92.06,1.85.17,2.76.22,1.76.55,3.51.72,5.28.16,1.66-.83,2.82-2.48,3.03-1.55.19-3.06.26-4.55-.49-1.24-.63-2.43-.2-3.22.99-.81,1.22-1.58,2.47-2.33,3.72-.22.38-.43.82-.45,1.24-.07,1.07-.62,1.88-1.09,2.79-.67,1.29-1.87,1.71-2.95,2.04-1.08.33-2.37.08-3.54-.08-.96-.13-1.88-.52-2.82-.76-.29-.07-.63-.09-.92-.03-1.53.33-3.09.6-4.58,1.07-3.76,1.18-7.6,1.18-11.44.85-1.34-.11-2.5.22-3.55.79-1.21.66-2.44.82-3.72.74-1.38-.09-2.62.17-3.83.84-1.27.71-2.63.53-3.86-.08-1.44-.72-2.95-.64-4.44-.54-2.28.16-4.54.48-6.66.71.06.02.33.08.6.15-.01.06-.02.11-.03.17-1.15,0-2.29,0-3.44,0-1.59,0-3.18,0-4.78.05-.52.02-1.02.25-1.54.33-.82.13-1.64.22-2.46.31-.13.01-.27-.07-.39-.04-3.56.99-7.11.02-10.66-.03-1.33-.02-2.66-.02-3.98-.06-.56-.02-1.11-.12-1.67-.16-.26-.02-.6-.11-.78.01-.9.61-1.89.46-2.85.39-2.46-.19-4.79.46-7.15.98-.77.17-1.6.32-2.37.24-1.35-.14-2.6.32-3.9.45-.47.05-1.02.19-1.36.49-1.37,1.21-2.92,1.02-4.53.77-2.63-.41-5.21-.32-7.74.65-.81.31-1.74.3-2.6.52-1.75.45-3.47,1-5.22,1.43-.49.12-1.07.04-1.56-.1-1.46-.43-3.07-.62-3.63-2.48-.27-.91-1.03-1.69-1.26-2.6-.23-.9-.06-1.9-.07-2.86,0-.47.15-1,0-1.42-.66-1.71-.59-3.45-.53-5.23.07-1.95.1-3.9-.02-5.85-.09-1.45-.4-2.88-.7-4.31-.27-1.32-.7-2.57-.48-3.99.13-.81-.37-1.71-.49-2.58-.11-.81-.09-1.63-.13-2.44l.03.05-.04-.04c-.2-2.03-.42-4.06-.59-6.1-.18-2.29-.28-4.59-.47-6.88-.24-3.01-.52-6.01-.78-9.01-.1-1.19-.2-2.38-.31-3.57-.29-3.13-.56-6.26-.88-9.39-.1-1.01-.35-2.01-.47-3.01-.08-.61-.05-1.22-.07-1.84,0-.35.05-.72,0-1.06-.27-1.66-.6-3.3-.84-4.97-.11-.73-.02-1.49-.08-2.24-.18-2.34-.3-4.68-.6-7-.39-3.02-.93-6.03-1.38-9.05-.09-.56-.06-1.14-.13-1.71-.08-.64-.28-1.27-.33-1.92-.22-2.92-.37-5.84-.6-8.76-.11-1.37-.41-2.72-.51-4.09-.09-1.23,0-2.48-.03-3.71-.08-2.98-.2-5.95-.28-8.93-.04-1.45-.05-2.9-.09-4.35,0-.25-.06-.51-.1-.76,0,0,.01.01.01.01ZM225.06,128.25c-.09-.2-.19-.4-.27-.6-.59-1.64-1.69-2.18-3.43-1.89-1.75.29-2.67,1.47-3.33,2.92-.73,1.61-.76,3.36-.71,5.1.02.62.19,1.23.33,2.1,1.05-.26,1.87-.38,2.63-.66,1.19-.43,2.34-.99,3.52-1.45,1.01-.39,1.8-1.31,1.74-2.42-.06-1.05-.32-2.08-.5-3.12l.05-.04-.04.06ZM222.39,166.46c-.55-.02-.8.27-.81.8h.01c-.24.23-.61.44-.69.72-.36,1.23-.68,2.48-.93,3.74-.18.9-.2,1.83-.3,2.74-.18,1.56-.02,3.18-.84,4.62-.12.22-.13.51-.14.78-.1,2.31-.22,4.62-.28,6.92-.06,2.22-.2,4.43-.78,6.59-.16.6-.22,1.22-.29,1.84-.09.7-.04,1.44-.23,2.1-.8,2.82-1.31,5.63-.38,8.52.09.29.05.62.06.93.08,1.61,1.29,2.56,2.86,2.36,1.62-.2,3.26-.29,4.88-.46.52-.05,1.07-.13,1.55-.33,1.28-.54,1.74-1.69,1.32-3.01-.12-.38-.18-.78-.22-1.17-.2-2.07-.25-4.18-.62-6.22-.5-2.81-.77-5.63-.82-8.48,0-.43-.31-.86-.49-1.32.05-.22.19-.53.19-.84,0-.53-.09-1.06-.15-1.59-.21-2.11-.42-4.22-.64-6.33-.16-1.49-.33-2.97-.49-4.46-.17-1.54-.18-3.11-.53-4.6-.31-1.3-.17-2.8-1.26-3.86l.06-.05-.05.06ZM186.33,369.54s0,0,0,0c-.09-.79-.23-1.58-.26-2.38-.08-2.53-.19-5.06-.15-7.58.03-1.82-.26-3.6-.35-5.39-.12-2.39-.99-4.67-.77-7.11.14-1.52-.24-3.08-.39-4.63-.18-1.9-.24-3.83-.56-5.7-.6-3.47-.7-6.95-.53-10.45.03-.62-.05-1.24-.11-1.86-.11-1.1-.28-2.19-.36-3.29-.06-.8.07-1.62-.05-2.4-.51-3.17-.16-6.36-.24-9.53-.04-1.64,0-3.27-.09-4.91-.2-3.36-.48-6.72-.72-10.08-.04-.53,0-1.07-.06-1.6-.34-3.53-.69-7.07-1.06-10.59-.16-1.49-.41-2.97-.59-4.45-.27-2.13-.61-4.26-.74-6.4-.17-2.91-.13-5.84-.24-8.76-.12-3.15-.28-6.3-.49-9.45-.14-2.07-.22-4.13-.96-6.15-.65-1.77-.92-3.69-1.16-5.58-.16-1.22.02-2.48.06-3.72.04-1.28.12-2.56.13-3.84.02-1.48-.02-2.96-.02-4.44,0-1.09,0-2.18,0-3.27-1.15-.39-2.1-.13-2.9.45-.93.67-1.78,1.45-2.62,2.23-1.94,1.83-3.3,3.95-3.2,6.75.01.31.01.63-.05.93-.5,2.49-.08,4.97.18,7.43.32,3,.92,5.97,1.24,8.96.41,3.88.68,7.77.99,11.66.12,1.46.22,2.92.24,4.39.02,1.11-.17,2.22-.13,3.32.04,1.19.33,2.37.36,3.56.08,3.41.1,6.83.13,10.24.02,1.87.02,3.73.01,5.6,0,1.28-.12,2.56-.06,3.84.11,2.39.32,4.78.48,7.17.12,1.77.19,3.55.34,5.31.15,1.71.44,3.41.55,5.12.14,2.26.15,4.52.24,6.78.07,1.91.18,3.81.26,5.72.02.35,0,.71-.05,1.06-.31,2.54-.3,5.05.28,7.56.24,1.04.58,2.1.52,3.14-.1,1.76.14,3.42.57,5.11.32,1.24.47,2.53.58,3.8.23,2.7.36,5.4.58,8.1.03.37.33.72.63,1.33,0,.25-.05.82.01,1.38.1.97.29,1.93.39,2.9.11,1.06.12,2.13.25,3.18.23,1.8.52,3.6.78,5.4.37,2.59.75,5.17,1.07,7.77.18,1.4.25,2.82.37,4.23.09.97.16,1.93.3,2.89.18,1.23.66,2.46.58,3.66-.13,2.1,0,4.14.46,6.17.09.39.08.79.1,1.19.09,1.58.08,3.18.3,4.75.31,2.22,1.07,4.41.43,6.69-.03.12-.02.27,0,.4.34,2.64.69,5.27,1.01,7.91.13,1.09.16,2.19.31,3.28.51,3.71,1.03,7.42,1.61,11.13.17,1.08.44,2.17.83,3.19.52,1.37,1.5,1.47,2.56.4.56-.56,1.17-1.07,1.85-1.68-.02-.14-.07-.43-.14-.82,1.8-.51,1.94-2.09,2.33-3.54.35-1.29-.18-2.04-1.24-2.75-1.32-.88-2.45-1.96-1.81-3.86.16-.48.06-1.06.05-1.59-.1-3.6-.29-7.2-.3-10.8,0-1.94-.24-3.81-.71-5.66-.05-.21-.08-.44-.09-.66-.02-2.7,0-5.4-.04-8.1-.06-3.11-.16-6.22-.26-9.33-.05-1.5-.15-3.01-.25-4.51-.14-2.12-.31-4.24-.45-6.36-.05-.7-.06-1.41-.03-2.12,0-.26.17-.52.26-.78ZM190.86,372.47c.08.34.26.68.22,1.01-.21,2.18.31,4.3.43,6.45.17,3.1.51,6.19.69,9.29.12,1.99.02,3.99.13,5.98.13,2.43.36,4.86.6,7.29.13,1.37.23,2.76.6,4.07.74,2.58,1.31,5.21,1.35,7.87.03,2.12-.36,4.25.52,6.62.23.09.83.57,1.22.44.87-.28,1.57,0,2.31.26,1.68.59,3.37,1.04,5.18.97,1.37-.05,2.74-.02,4.11-.01.26,0,.52.07.77.13.4.09.8.28,1.21.29,1.59.04,3.17.09,4.74-.33.93-.25,1.94-.36,2.9-.35,5.24.08,10.49.2,15.73.33,2.21.05,4.41.36,6.64-.03,2.35-.41,4.74-.6,7.12-.82,1.32-.12,2.65-.13,3.97-.15.84-.01,1.68.03,2.52.06,2.3.08,4.62.39,6.89.19,2.29-.2,4.49.08,6.73.29,1.98.18,3.98.07,5.97.18,2.84.16,5.63-.86,8.48-.38.21.04.44-.03.66-.05,1.41-.13,2.82-.29,4.24-.4,1.59-.12,3.19-.14,4.78-.32,1.67-.19,3.32-.65,4.99-.73,2.39-.12,4.65-.47,6.74-1.75,1.53-.94,2.96-2.72,3.21-4.73,1.06-.36,2.21-.84,3.4-1.11,1.37-.32,1.9-.75,1.9-2.1,0-2.91.06-5.82-.07-8.73-.11-2.39-.45-4.77-.7-7.15-.12-1.1-.54-2.24-.36-3.29.61-3.49-.57-6.87-.38-10.35.14-2.59-.52-5.22-.48-7.83.05-3.04-.32-6.01-.7-9-.19-1.48-.43-2.97-.51-4.46-.14-2.79-.11-5.6-.28-8.39-.18-2.97-.55-5.93-.76-8.89-.26-3.85-.44-7.71-.64-11.56-.03-.61.08-1.24.02-1.84-.12-1.1-.35-2.19-.5-3.28-.17-1.23-.15-2.51-.48-3.7-1.16-4.15-1.15-8.44-1.66-12.66-.29-2.36-.64-4.72-.97-7.08-.37-2.63-.77-5.27-1.14-7.9-.31-2.15-.62-4.31-.89-6.47-.37-2.82-.79-5.63-1.03-8.46-.24-2.86-.33-5.74-.43-8.61-.13-3.41-.4-6.83-.24-10.23.12-2.76.21-5.5-.09-8.25-.15-1.37-.32-2.73-.5-4.1-.27-2.11-.52-4.22-.85-6.32-.39-2.46-.93-4.89-1.28-7.35-.47-3.29-.79-6.6-1.25-9.9-.21-1.48-.61-2.94-.88-4.42-.47-2.53-.11-5.16-1.03-7.63-.1-.28-.02-.62-.08-.93-.36-1.73-.91-3.44-2.63-4.24-1.22-.57-2.54-1.13-3.98-.62-.32.11-.71.04-1.05.09-1.57.25-3.16.45-4.7.81-1.68.38-3.28,1.07-5.05,1-.7-.03-1.41.11-2.12.21-1.45.2-2.9.48-4.35.61-2.56.23-5.13.37-7.69.57-1.06.08-2.19.02-3.17.36-2.7.92-5.49.97-8.28,1.24-1.84.18-3.64.74-5.46,1.08-.68.13-1.39.23-2.08.21-1.06-.03-2.12-.24-3.18-.23-3.06.03-6.11.19-9.17.2-1.94,0-3.89-.26-5.83-.19-1.54.06-3.05.53-4.59.69-1.82.19-3.2,1.16-4.59,2.21-.82.62-1.67,1.38-2.86,1.03-.72-.21-1.42-.48-2.14-.73-1.15-.4-2.29-.63-3.5-.23-.45.15-.96.17-1.45.19-2.21.08-4.44-.19-6.57.74-.68.3-1.46.38-2.21.47-3.38.44-6.76.79-10.13,1.29-1.27.19-2.75.21-3.49,1.57-.42.77-.67,1.64-.9,2.49-.42,1.53-.88,3.07-1.11,4.64-.24,1.61-.22,3.25-.32,4.88-.03.53-.1,1.07-.05,1.6.26,2.74.55,5.47.82,8.2.31,3.07.64,6.15.91,9.23.25,2.82.5,5.64.65,8.47.15,2.83.14,5.67.29,8.49.12,2.17.37,4.34.57,6.51.17,1.81.31,3.62.54,5.42.19,1.5.57,2.97.69,4.47.18,2.21.21,4.44.3,6.66.08,1.86.17,3.73.25,5.59.04.97.07,1.94.15,2.91.13,1.59.36,3.18.42,4.77.13,3.6.19,7.2.26,10.8.02.93-.1,1.86-.04,2.79.18,2.92.42,5.85.61,8.77.06.92-.05,1.86.05,2.77.23,1.98.56,3.95.84,5.92.03.22.02.44.03.66.08,1.45.08,2.9.25,4.33.23,1.8.62,3.58.91,5.38.14.87.26,1.76.31,2.64.11,1.94.11,3.88.73,5.78.31.94.24,2.01.26,3.03.05,1.89-.09,3.8.09,5.68.25,2.66.52,5.29.04,7.94-.07.37-.05.76-.08,1.14-.03.06-.07.13-.06.11,0,0,.02-.06.05-.13ZM291.84,426.98c-.06-.12-.12-.23-.18-.35-.25-.04-.52-.14-.75-.09-2.48.46-5.03.04-7.5.67-.48.12-1.03-.08-1.55-.08-.61,0-1.25-.04-1.81.16-1.99.68-3.97,1.07-6.07.49-.84-.23-1.71-.36-2.57-.47-.43-.05-.88.03-1.33.06-.35.02-.71.11-1.05.07-1.43-.16-2.86-.35-4.29-.53-.38-.05-.76-.22-1.13-.2-.83.06-1.64.25-2.47.32-1.64.13-3.28.19-4.91.34-2.64.24-5.27.39-7.9-.24-.65-.16-1.4.02-2.09.1-.56.06-1.11.26-1.67.3-2.83.2-5.67.39-8.51.52-1.81.08-3.67.32-5.43.04-4.16-.68-8.32-.69-12.48-.46-3.06.17-6.1.85-9.19.48-.43-.05-.89.04-1.32.12-2.08.38-4.15.84-6.24,1.15-.91.13-1.47.6-1.88,1.3-.34.57-.65,1.18-.83,1.81-.2.71-.54,1.17-1.25,1.41-.94.31-1.54,1.01-1.9,1.89.79,1.31,1.3,1.54,2.9,1.27,1.92-.32,3.83-.69,5.76-.97,2.94-.42,5.9-.68,8.81-1.18,2.05-.35,4.04-1.01,6.15-1.03,1.81-.02,3.62-.13,5.43-.16,2.71-.03,5.42.03,8.12-.05,4.53-.14,9.05-.39,13.58-.55,2.09-.07,4.15-.24,6.12-1.01.24-.09.52-.08.78-.11,2.55-.27,5.1-.58,7.66-.8,1.23-.1,2.47-.07,3.7-.04.74.01,1.48.21,2.22.19,1.9-.07,3.8-.15,5.69-.36,2.06-.23,4.1-.6,6.14-.93,1.44-.24,2.86-.57,4.31-.75.78-.1,1.63.18,2.39.01,1.9-.44,3.77-1.01,5.64-1.59.35-.11.62-.48.93-.73ZM201.27,429.03s-.03-.06-.06-.07c-.03-.01-.07,0-.11,0,.02.04.04.09.07.12,0,0,.06-.03.09-.05ZM242.05,439.85l-.03-.08-.03.08h.07Z"/>
  <path class="cls-1" d="M313.09,52.35c-.86,1.68-1.27,3.48-2.75,4.65-.59,2.47-2.57,4.18-3.5,6.5-.96,2.4-2.4,4.62-3.62,6.92-.18.35-.32.72-.44,1.09-.55,1.59-.96,3.24-1.65,4.76-1,2.21-2.33,4.27-3.29,6.5-1.26,2.93-2.42,5.9-4.08,8.63-1.03,1.7-2.12,3.37-3.06,5.12-.94,1.76-1.68,3.62-2.58,5.4-.58,1.13-1.4,2.14-1.92,3.3-1.1,2.46-3.13,4.33-4.23,6.73-1,2.19-2.73,3.94-3.5,6.22-.84,2.48-2.34,4.57-3.74,6.73-.63.96-1.36,1.87-2.11,2.74-.5.58-2.21.49-3.14.03-1.84-.93-2.9-2.59-3.87-4.26-1.69-2.9-3.27-5.86-4.87-8.81-.27-.5-.43-1.07-.59-1.62-.3-1.02-.84-1.83-1.79-2.35-.19-.1-.37-.25-.52-.4-1.07-1.07-2.09-1.3-3.39-.48-1.72,1.08-3.4,2.24-5.02,3.48-.76.58-1.33,1.41-1.97,2.15-.84.97-1.62,2-2.52,2.92-1.19,1.21-2.2,2.56-2.93,4.06-.87,1.78-2.12,2.52-4.05,2.19-.52-.09-1.05-.15-1.58-.2-.99-.1-1.46-.74-1.7-1.62-.04-.17-.01-.39-.11-.52-1.18-1.46-.17-2.56.61-3.68.22-.32.52-.63.85-.84,1.28-.82,2.33-1.81,2.99-3.23.3-.65.92-1.15,1.43-1.69.75-.81.99-1.78.87-2.84-.33-2.91.94-5.19,2.73-7.31.66-.77,1.21-1.64,1.78-2.49.98-1.47,1.92-2.96,2.89-4.44.51-.77,1.06-1.52,1.59-2.28.32-.47.65-.93.95-1.42.94-1.51,1.92-2.98,2.78-4.53,1.31-2.37,2.75-4.7,3.73-7.21.88-2.23,3.18-3.14,4.91-3.12,1.32.02,2.51.73,3.13,1.97.76,1.5,1.33,3.08,2.02,4.61.38.85.84,1.66,1.27,2.48.48.9.95,1.79,1.46,2.67.84,1.44,2.63,1.56,3.67.26,2.22-2.76,4.41-5.53,6.67-8.25.62-.75,1.45-1.32,2.12-2.02,1.16-1.2,2.29-2.45,3.43-3.68.06-.06.14-.12.17-.2,1.06-2.53,3.13-4.36,4.57-6.62.38-.59.51-1.34.92-1.9,1.26-1.71,2.57-3.39,3.93-5.02.95-1.14,2.26-2.04,2.97-3.29.5-.88,1.37-1.37,1.78-2.33.39-.9,1.27-1.57,1.86-2.39.63-.86,1.06-1.89,1.79-2.63,1.21-1.24,2.35-2.68,4.33-2.77,1.78-.09,3.61,1.32,3.91,3.05.04.22.06.44.13.65.07.21.17.4.28.64ZM257.12,101.06c2.92,1.28,5.81,2.5,7.42,5.49.52.96,1.28,1.85,1.54,2.88.54,2.14.83,4.34,1.2,6.52.15.91,1.8,2.92,2.66,3.11.29.06.71.1.9-.05.95-.79,1.99-1.53,2.69-2.51.62-.86.8-2.03,1.25-3.03.62-1.39,1.22-2.82,2-4.12,1.06-1.77,2.28-3.44,3.43-5.15.41-.62.82-1.23,1.2-1.87.17-.29.27-.62.38-.94.08-.24.08-.52.2-.74.45-.8.94-1.58,1.39-2.38.48-.85.78-1.84,1.42-2.54,1.38-1.5,2.22-3.23,2.81-5.15.4-1.3.96-2.58,1.6-3.78,1.01-1.91,2.2-3.72,3.21-5.63.39-.74.58-1.65-.03-2.51-1.59.47-2.48,1.71-3.52,2.75-.82.82-1.58,1.71-2.37,2.57-1.4,1.53-2.89,2.98-4.17,4.6-1.58,2.01-3.03,4.12-4.47,6.24-1.02,1.52-2.71,2.58-3.07,4.55-.02.11-.17.2-.27.28-1.07.82-1.99,2.01-3.63,1.28-.19-.09-.49.07-.51.07-.74-.46-1.31-.8-1.85-1.16-.25-.17-.53-.36-.65-.61-.63-1.29-1.22-2.61-1.81-3.92-1.09-2.41-2.18-4.82-3.27-7.23h-1.58c-.87,1.88-1.72,3.71-2.56,5.54-.37.8-.63,1.66-1.1,2.39-1.05,1.65-1.5,3.3-.42,5.05Z"/>
  <polygon class="cls-1" points="231.87 128.15 231.91 128.26 231.81 128.25 231.87 128.15"/>
  <path class="cls-1" d="M167.63,313.95h.01s-.01,0-.01,0Z"/>
  <path class="cls-1" d="M212.5,140.79h.01s-.01,0-.01,0Z"/>
  <path class="cls-2" d="M201.27,429.03s-.08.05-.09.05c-.03-.03-.05-.08-.07-.12.04,0,.08-.01.11,0,.02,0,.04.05.06.07Z"/>
  <path class="cls-2" d="M190.86,372.47c-.02.07-.05.14-.05.13,0,.01.03-.05.06-.11,0,0-.01-.01-.01-.01Z"/>
  <polygon class="cls-2" points="242.05 439.85 241.98 439.85 242.02 439.77 242.05 439.85"/>
  <path class="cls-2" d="M186.32,369.54h0s0,0,0,0Z"/>
  <polygon class="cls-2" points="222.39 166.46 222.44 166.4 222.38 166.45 222.39 166.46"/>
  <polygon class="cls-2" points="176.17 412.3 176.21 412.34 176.18 412.29 176.17 412.3"/>
  <polygon class="cls-2" points="225.06 128.25 225.1 128.19 225.05 128.24 225.06 128.25"/>
  <path class="cls-1" d="M282.15,268.27c-.1,3.37-.07,6.76-.37,10.11-.14,1.59-.83,3.16-1.43,4.67-.69,1.73-1.53,3.4-2.39,5.05-.53,1.01-1.18,1.97-1.82,2.92-1.81,2.67-3.62,5.34-6.02,7.56-.89.82-1.56,1.88-2.35,2.82-.16.19-.38.36-.6.48-.75.43-1.51.86-2.29,1.25-1.14.58-2.3,1.14-3.45,1.69-1,.47-2,.95-3.03,1.36-3,1.18-6.12,1.85-9.35,1.9-1.05.02-2.11-.25-3.17-.34-1.06-.09-2.12-.07-3.18-.19-1-.11-1.99-.37-2.99-.51-2.38-.33-4.47-1.33-6.47-2.63-.83-.54-1.8-.95-2.77-1.19-1.94-.49-3.32-1.76-4.8-2.96-.98-.8-2.11-1.41-3.13-2.17-.94-.71-2.09-1.36-2.65-2.33-.72-1.24-1.78-2.14-2.54-3.32-.69-1.08-1.59-2.02-2.3-3.09-.84-1.27-1.42-2.74-2.38-3.89-1.36-1.61-1.49-3.77-2.76-5.4-.36-.47-.44-1.15-.66-1.73-1.33-3.5-1.95-7.19-2.27-10.87-.22-2.58.27-5.21.46-7.82.06-.79.01-1.61.23-2.35.82-2.73,2.04-5.28,3.8-7.55.14-.17.27-.36.35-.56,1.1-2.77,3.28-4.78,5.02-7.11.54-.73,1.19-1.38,1.79-2.06.12-.13.22-.31.37-.37,1.7-.67,2.62-2.22,3.79-3.44,1.84-1.92,4.12-3.21,6.28-4.67,1.1-.74,2.3-1.33,3.48-1.93.58-.29,1.25-.41,1.85-.67,1.37-.58,2.72-1.18,4.07-1.79.24-.11.42-.32.65-.46,1.3-.82,2.49-.75,3.78.18,1.56,1.12,3.53,1.11,5.33,1.58,2.18.56,4.35,1.16,6.5,1.85,1.42.46,2.81,1.04,4.17,1.67.83.39,1.65.87,2.34,1.47,2.14,1.85,4.23,3.76,6.3,5.68,1.04.96,1.87,2.08,2.6,3.33.86,1.48,2.07,2.74,3.12,4.1.26.34.51.69.75,1.05.19.3.28.73.54.9,1.54.99,1.78,2.8,2.67,4.19.83,1.29,1.41,2.75,2.1,4.13.06.12.14.24.15.37.23,2.15,1.52,3.94,2.02,5.99.41,1.67.62,3.38.92,5.08-.1.01-.2.03-.3.04ZM229.32,262.66h0c-.53,1.29-1.05,2.59-1.59,3.88-.06.15-.23.26-.35.4-1.43,1.73-2.49,3.64-2.94,5.88-.15.78-.45,1.53-.71,2.28-.55,1.57-1.61,2.95-1.6,4.72,0,.53-.09,1.06-.16,1.58-.11.79-.39,1.5-1.22,1.76-.73.23-1.35.06-1.91-.55-.77-.83-1.03-1.74-.53-2.89.35-.81.79-1.58,1.16-2.38,1.45-3.18,2.7-6.45,4.5-9.47.82-1.37,1.54-2.8,2.22-4.25.92-1.94,1.64-3.98,2.66-5.86,1.26-2.33,2.73-4.56,4.13-6.81.29-.47.75-.84,1.07-1.3.79-1.11,1.46-2.31,2.32-3.35,1.87-2.27,2.04-5.82.24-8.01.68-1.29-.1-2.38-.46-3.52-1.88-.09-3.21.68-4.43,1.82-.97.9-1.95,1.85-3.08,2.5-2.29,1.32-4.22,3.06-6.02,4.92-1.32,1.36-2.29,3.05-3.59,4.44-2.32,2.48-4.03,5.36-5.75,8.25-.52.87-1.13,1.81-1.23,2.77-.2,2.1-.69,4.19-.17,6.36.28,1.15.8,1.7,1.96,1.87.19-.22.42-.43.57-.69.76-1.3,1.48-2.63,2.25-3.93.69-1.17,1.47-2.28,2.1-3.48,1.15-2.19,2.1-4.48,3.35-6.61,1.66-2.82,3.48-5.56,5.31-8.27.66-.97,1.54-1.79,2.39-2.61.18-.17.69-.15.95-.03.16.08.24.56.17.81-.2.68-.44,1.35-.76,1.98-1.24,2.45-2.6,4.83-3.74,7.32-1.21,2.65-2.99,4.91-4.51,7.35-.79,1.27-1.48,2.62-2.18,3.95-.49.94-.8,1.98-1.38,2.85-1.5,2.25-2.85,4.52-3.63,7.16-.91,3.06.15,6.44,2.8,8.04-.02,2.01.53,3.81,1.64,5.39.98,1.4,2.16,2.67,3.17,4.05,1.73,2.36,3.89,4.29,6.35,5.76,2.84,1.71,5.85,3.17,9.03,4.17,1.51.48,3.05.92,4.68.78,1.04-.09,1.67-.91,1.21-1.84-.36-.71-.9-1.41-1.54-1.89-.59-.44-.89-.9-.75-1.55.33-1.46.73-2.9,1.11-4.35.46-1.71,1.35-3.43,1.3-5.13-.08-2.4-.84-4.78-1.34-7.16-.37-1.74-.69-3.49-.38-5.27.39-2.3.49-4.57-.19-6.84-.11-.38-.1-.79-.15-1.18-.14-1.21-.29-2.43-.43-3.7-.61-.14-1.11-.25-1.6-.36-.19.2-.34.31-.42.46-1.19,2.31-2.57,4.49-3.49,6.97-.76,2.07-2.17,3.89-3.29,5.83-1.01,1.76-2.12,3.47-2.96,5.31-.62,1.36-.83,2.89-1.3,4.32-.35,1.04-.72,2.1-1.65,2.76-1.69-.19-1.83-1.12-1.91-2.45-.04-.62.27-1.3.53-1.89.3-.68.78-1.28,1.11-1.95,1.28-2.61,2.51-5.24,3.81-7.84.81-1.62,1.82-3.16,2.56-4.81,1.32-2.93,3.28-5.45,4.94-8.16,1.02-1.66,2.11-3.34,2.19-5.36.08-1.92.1-3.85-.45-5.7q-1.64-.73-2.63.6c-.32.42-.64.85-.94,1.28-1.4,1.99-2.87,3.94-3.37,6.41-.09.46-.36.92-.64,1.3-.79,1.07-1.63,2.11-2.44,3.16ZM247.12,232.86c-2.72.24-3.98,1.42-4.08,4.01-.03.75.1,1.5.19,2.25.22,1.8.33,3.63.72,5.39.91,4.16,1.8,8.31,2.1,12.58.27,3.89.8,7.75,1.2,11.63.21,2.11.11,4.29.64,6.31.71,2.74.44,5.65,1.65,8.28.35.76.53,1.6.69,2.43.41,2.16.77,4.34,1.14,6.51.2,1.21.35,2.43.58,3.64.22,1.18.59,2.33.77,3.51.17,1.11,1.38,2.22,2.46,1.93.97-.25,1.92-.66,2.83-1.08,1.36-.62,2.67-1.36,4.03-1.98,2.47-1.12,4.71-2.46,5.89-5.07.18-.39.54-.7.8-1.06,1.13-1.56,2.27-3.12,3.37-4.71.34-.5.55-1.09.83-1.62.45-.84.96-1.65,1.35-2.52.45-1.01.83-2.06,1.17-3.12.34-1.05.75-2.12.85-3.21.2-2.11.43-4.21.53-6.33.14-2.93-.45-5.69-1.2-8.39-.79-2.88-2.15-5.6-3.27-8.38-.09-.23-.32-.41-.47-.62-.79-1.12-1.62-2.22-2.37-3.36-1.13-1.73-2.02-3.66-3.35-5.22-1.83-2.14-3.9-4.09-6-5.97-1.68-1.51-3.55-2.81-5.69-3.61-1.53-.57-3.11-1.04-4.67-1.52-.88-.27-1.77-.47-2.66-.7Z"/>
  <path class="cls-1" d="M230.45,348.25c-1.99,1.82-4.36,1.79-6.52,2.34-.62.16-1.33.07-1.98-.03-1.75-.26-3.51-.5-5.23-.9-1.37-.31-2.8-.68-3.79-1.76-.55-.6-1.09-1.35-1.27-2.12-.5-2.18-.65-4.34.89-6.32.81-1.06,1.12-2.51,1.96-3.54,1.02-1.25,2.27-2.35,3.58-3.32,1.6-1.19,3.46-1.44,5.46-1.15.94.14,1.94-.08,2.9-.22,1-.15,1.91-.02,2.8.47.77.43,1.73.64,2.34,1.22.99.94,2.24,1.76,2.44,3.31.2,1.59.36,3.16-.24,4.73-.51,1.32-.84,2.71-1.31,4.04-.14.39-.46.73-.74,1.06-.58.71-1.45,1.24-1.29,2.2ZM219.56,342.21c.36.23.78.71,1.24.76,1.71.18,3.46.43,5.06-.55,1.16-.71,1.65-2.76.7-3.72-1.08-1.08-2.23-2.11-4.01-2-1.93.12-2.83.94-2.85,2.85,0,.84-.08,1.68-.14,2.67Z"/>
  <path class="cls-1" d="M247.64,348.47c-3.26.15-5.76-1.04-7.88-2.98-1.74-1.59-2.38-4.08-1.37-6.48.8-1.9,1.83-3.77,3.09-5.39,1.02-1.31,2.67-2,4.26-2.59.66-.24,1.31-.54,1.97-.8,1.76-.69,3.56-.99,5.43-.44,1.54.46,2.8,1.28,4.13,2.23,2.22,1.6,2.02,3.68,2.08,5.84.02.62.06,1.24.06,1.86,0,1.12-.4,2.09-1.17,2.89-.78.81-1.23,1.98-2.53,2.23-.16.03-.27.32-.42.48-.41.44-.75,1.04-1.26,1.27-2.12.95-4.13,2.42-6.39,1.88ZM246.81,342.6c1.42.05,2.36-.9,3.44-1.57.87-.54,1.33-1.25,1.32-2.28,0-.17.1-.34.18-.5.43-.85.35-1.7-.32-2.32-.69-.65-1.5-.25-2.24.08-.16.07-.32.17-.44.29-1.22,1.29-2.82,1.92-4.4,2.57-.63.26-.87.7-.86,1.34.01,1.2.57,1.87,1.75,2.11.52.1,1.04.18,1.56.27Z"/>
  <path class="cls-1" d="M266.9,338.23c.04-2.01.91-3.56,2.37-4.86.63-.55,1.12-1.26,1.74-1.83,1.33-1.22,2.56-2.62,4.07-3.56,3.89-2.43,7.85-1.6,10.47,2.53.78,1.22,1.43,2.56,1.9,3.92,1.05,3.03-.33,6.53-3.02,8.21-.7.44-1.25,1.15-1.96,1.56-1.64.94-3.28,1.91-5.04,2.58-1.02.39-2.26.29-3.4.25-3.23-.11-5.33-2-6.57-4.75-.54-1.19-.4-2.69-.56-4.06ZM279.05,333.55c-.46.03-.88.15-1.24.07-.69-.16-1.15.19-1.71.47-1.81.91-2.62,2.73-3.9,4.12-.9.98-.15,2.66,1.15,3.04,1.68.5,3.31.25,4.76-.57,1.18-.67,2.31-1.6,2.49-3.12.11-.96.02-1.94.02-2.8-.6-.46-1.05-.81-1.56-1.21Z"/>
  <path class="cls-1" d="M222.64,405.84c-1.84.11-3.65-.41-5.09-1.63-1.01-.86-1.78-2.03-2.55-3.15-2.4-3.5-1.99-7.03.12-10.48,1.07-1.74,2.81-2.33,4.73-2.57,1.75-.22,3.49-.5,5.25-.72,1.48-.19,2.74.39,3.96,1.17,1.54.98,2.57,2.34,3.42,3.94,1.26,2.38,1.76,4.77.71,7.35-.26.63-1.8,2.76-2.48,3.21-2.42,1.57-4.86,3.15-8.06,2.89ZM223.9,393.25c-1.74.19-3.26.36-4.8.53-.11.19-.21.38-.33.57-1.03,1.71-.57,3.46,1.12,4.51,2.93,1.81,6.69-.52,6.65-3.54-.42-.53-.82-1.04-1.07-1.35-.74-.34-1.28-.58-1.59-.72Z"/>
  <path class="cls-1" d="M259.32,364.25c-.14,3.5-1.23,6-3.8,7.96-2.03,1.55-4.11,2.34-6.55,1.6-1.95-.59-3.9-1.5-5.26-2.96-1.9-2.05-3.19-4.55-3.26-7.48-.07-3.2,2.76-5.95,5.91-5.96,1.26,0,2.53-.41,3.78-.65.74-.14,1.47-.32,2.2-.49,1.91-.44,3.08.81,4.21,1.97.69.71,1.23,1.62,1.67,2.53.59,1.22,1.42,2.41,1.09,3.49ZM248.55,363.14s0,0,0,0c-.47.39-.94.79-1.35,1.13.24,1-.18,2.12.92,2.71.92.49,1.87.34,2.83.16.36-.72.66-1.42,1.05-2.06.56-.9.01-1.6-.48-2.15-.51-.57-1.31-.73-2.08-.35-.32.16-.6.37-.9.56Z"/>
  <path class="cls-1" d="M282.71,384.72c.38.11,1.19.23,1.87.59,1.52.81,3.19,1.52,4.41,2.67,1.84,1.74,2.8,3.91,2.41,6.68-.36,2.55-2.09,3.88-3.72,5.41-2,1.88-4.44,2.75-7.12,2.78-1.02.01-2.12-.33-3.05-.79-2.38-1.18-4.33-2.82-4.69-5.69-.07-.56-.07-1.18.11-1.7.62-1.83,1.34-3.63,2-5.46.39-1.09,1.35-1.64,2.19-2.26,1.53-1.13,3.15-2.14,5.58-2.24ZM277.73,393.47c.21,1.97.84,2.55,2.26,2.19.54-.14,1.22-.39,1.47-.8.37-.63.68-1.51.53-2.18-.21-.91-1.26-.83-1.92-.6-.84.3-1.57.91-2.34,1.38Z"/>
  <path class="cls-1" d="M284.26,371.9c-.95.63-1.81,1.23-2.7,1.78-.83.51-1.69.97-2.54,1.43-.23.12-.51.2-.77.19-1.32,0-2.66.08-3.95-.1-1.37-.19-2.65-.71-3.21-2.22-.48-1.31-1.34-2.54-1.53-3.88-.4-2.82-1.02-5.76.96-8.32.29-.37.71-.64,1.08-.94.41-.34.91-.6,1.23-1,.94-1.18,2.18-1.87,3.49-2.56,2.04-1.07,3.97-.57,5.94-.02.31.09.57.41.82.66,1.56,1.48,2.4,3.34,2.94,5.38.12.46.37.88.53,1.32.09.24.2.52.15.74-.58,2.63-1.06,5.29-2.45,7.54ZM279.54,362.56c-.48-.21-.88-.38-1.28-.56-.69-.31-1.28-.28-1.7.45-.13.22-.33.4-.5.59-1.24,1.37-2.02,2.88-1.57,4.81.22.94,1.07,1.48,1.98,1.2.42-.13.85-.26,1.24-.48,1.82-1.01,2.54-2.11,2.48-4.09-.02-.63-.4-1.25-.64-1.93Z"/>
  <path class="cls-1" d="M255.57,382.87c4.29.03,6.33,3.69,6.66,6.77.05.49.07.98.14,1.46.39,2.56-.25,4.68-2.04,6.7-1.95,2.2-4.22,3.74-6.94,4.57-1.79.55-3.62.03-5.2-.92-2.21-1.33-2.91-3.68-3.66-5.95-.1-.31-.01-.7.03-1.05.15-1.31.34-2.62.47-3.93.11-1.06.67-1.86,1.2-2.75,1.14-1.92,3.16-2.44,4.87-3.46.76-.45,1.57-.86,2.4-1.14.65-.22,1.37-.21,2.06-.31ZM255.07,389c-.13-.06-.21-.11-.29-.14-1.05-.41-1.98-.09-2.92.41-.82.44-.62,1.2-.66,1.88-.04.57-.32.89-.85,1.05-.3.09-.6.17-.88.3-1.04.47-1.55,1.44-1.41,2.6.1.8.94,1.53,1.96,1.7,2.88.49,3.24.31,4.55-2.31.06-.12.17-.22.2-.34.43-1.67,1.39-3.32.29-5.15ZM245.7,390.02s.04,0,.06,0v-.33s-.05,0-.08,0c0,.11.01.22.02.33Z"/>
  <path class="cls-1" d="M213.66,366.04c-.17-1.87.47-3.32,1.72-4.72,1.4-1.58,2.78-3.07,4.79-3.87,1.62-.64,3.11-.89,4.86-.22,2.23.85,3.88,2.41,5.65,3.85.16.13.29.34.37.54,1.25,2.93,1.38,5.83-.39,8.62-.23.36-.54.73-.91.94-.83.48-1.49,1.07-1.91,1.96-.15.32-.52.65-.86.75-.75.23-1.55.51-2.31.45-1.93-.15-4.01-.1-5.73-.84-1.91-.83-3.92-2.03-4.75-4.2-.39-1-.37-2.16-.54-3.25ZM225.2,366.24c-.07-.5-.09-.94-.19-1.37-.48-1.99-2.43-2.63-3.99-1.35-.4.33-.85.6-1.29.86-1.48.88-1.82,2.42-.62,3.39.71.57,1.6.88,2.61.71,1.46-.24,2.42-1.2,3.49-2.25Z"/>
  <path class="cls-1" d="M221.57,167.26h.01s-.01,0-.01,0Z"/>
  <path class="cls-2" d="M229.33,262.65h0s0,0,0,0Z"/>
  <path class="cls-2" d="M248.56,363.13h0s0,0,0,0Z"/>
  <path class="cls-2" d="M245.7,390.02c0-.11-.01-.22-.02-.33.03,0,.05,0,.08,0v.33s-.04,0-.06,0Z"/>
</svg>