<?xml version="1.0" encoding="UTF-8"?>
<svg id="Livello_1" data-name="Livello 1" xmlns="http://www.w3.org/2000/svg" viewBox="0 0 489 489">
  <defs>
    <style>
      .cls-1 {
        fill: #f5f5f5;
      }

      .cls-1, .cls-2, .cls-3, .cls-4, .cls-5, .cls-6, .cls-7, .cls-8, .cls-9, .cls-10, .cls-11, .cls-12, .cls-13, .cls-14, .cls-15, .cls-16, .cls-17, .cls-18, .cls-19, .cls-20, .cls-21, .cls-22, .cls-23, .cls-24, .cls-25, .cls-26 {
        stroke-width: 0px;
      }

      .cls-2 {
        fill: #2e2e2e;
      }

      .cls-3 {
        fill: #030303;
      }

      .cls-4 {
        fill: #fdfdfd;
      }

      .cls-5 {
        fill: #0b0b0b;
      }

      .cls-6 {
        fill: #373737;
      }

      .cls-7 {
        fill: #181818;
      }

      .cls-8 {
        fill: #191919;
      }

      .cls-9 {
        fill: #020202;
      }

      .cls-10 {
        fill: #101010;
      }

      .cls-11 {
        fill: #484848;
      }

      .cls-12 {
        fill: #232323;
      }

      .cls-13 {
        fill: #111;
      }

      .cls-14 {
        fill: #070707;
      }

      .cls-15 {
        fill: #0f0f0f;
      }

      .cls-16 {
        fill: #161616;
      }

      .cls-17 {
        fill: #fefefe;
      }

      .cls-18 {
        fill: #151515;
      }

      .cls-19 {
        fill: #131313;
      }

      .cls-20 {
        fill: #050505;
      }

      .cls-21 {
        fill: #f9f9f9;
      }

      .cls-22 {
        fill: #090909;
      }

      .cls-23 {
        fill: #121212;
      }

      .cls-24 {
        fill: #525252;
      }

      .cls-25 {
        fill: #efefef;
      }

      .cls-26 {
        fill: #0e0e0e;
      }
    </style>
  </defs>
  <path class="cls-20" d="M224.34,273.12c-.93-.18-2.34.6-2.44-1.22-.42-.62-.35-1.18.2-1.68,1.46-.93,3.03-.87,4.64-.59,2.37.76,4.81.71,7.25.66,1.2-.02,2.4,0,3.6,0,2.04.02,4.08.13,6-.75,13.62-4.49,20.45-14.38,22.42-28.13.76-2.24,1.71-4.42,1.84-6.83.13-1.82.19-3.82,1.39-5.19,9.46-10.81,3.83-21.4-.37-31.99-1.71-4.32-5.87-7.17-7.29-11.71.15-1.05.53-1.83,1.81-1.61.2,0,.5-.09.6.01,2.3,2.35,4.26,5.32,6.78,7.09,2.94,2.06,3.68,5.59,6.53,7.39,1.58,1-.2,3.34,1.72,4.17-.35,4.71,3.43,9.33.29,14.15-.37.57-.16,1.61-.03,2.4,1.13,6.87-2.52,12.78-3.89,19.14-.16.75-.76,1.74-1.25,2.5-1.27,1.95-2.91,3.66-4.23,5.58-1.36,1.97.78,4.87-1.64,6.63,1.07,3.72-2.14,5.56-4.05,7.26-3.55,3.17-6.97,6.53-10.66,9.51-2.09,1.69-5.13,2.9-7.78,2.99-2.65.09-4.79,1.68-7.42,1.47-2.63-.21-5.28-.05-7.92-.05-1.81-1.51-4.28.22-6.1-1.22Z"/>
  <path class="cls-14" d="M221.9,270.69v1.22c-3.64-.29-8.82-2.8-12.29-4.18-6.91-2.75-11.37-8.26-16.58-13-5.01-4.55-8.07-10.35-11.4-16.03-.33-.57-2.44-8.15-2.44-8.74,0-4.26-.56-8.62.13-12.77.96-5.75,1.09-11.61,2.41-17.27.58-2.49,2.32-4.71,3.56-7.04,1.46-2.75,3.23-5.24,5.36-7.56,1.37-1.49,2.85-1.17,4.4-1.24.09.28.19.57.29.85-.11,1.48-.77,2.78-1.66,3.87-7.48,9.21-8.77,20.13-9.37,31.46-.87,16.44,8.31,27.47,19.39,37.46,4.49,4.05,9.44,7.71,15.39,9.65,1.43.47,3.23,1.06,2.8,3.3Z"/>
  <path class="cls-16" d="M263.39,184.09c-.84-.03-1.25.38-1.22,1.22-1.71.81-3.29.12-4.52-.86-8.46-6.75-18.49-8.68-28.88-9.57-2.22-.29-4.57.08-6.6-1.22-.53-.47-.71-1.05-.56-1.73,1.91-1.5,4.47.27,6.38-1.25,2.84,0,5.67,0,8.51,0,2.53,0,4.82,1.17,7.37,1.45,3.21.35,6.75,1.74,9.23,3.8,3.15,2.62,6.72,4.57,9.85,7.15.25.21.3.67.44,1.02Z"/>
  <path class="cls-19" d="M198.71,179.21q4.78-3.63,9.76-4.88c.93.25,1.5.81,1.57,1.81-2.35,3.64-5.72,5.57-10.03,5.91-1.1-.64-1.85-1.45-1.3-2.84Z"/>
  <path class="cls-3" d="M209.69,175.56c-.84.03-1.25-.38-1.22-1.22,0-.2-.03-.56,0-.56,3.26-.6,6.31-2.29,9.76-1.88,1.22-.85,2.44-.81,3.66,0v1.22c-.25,1.04-.89,1.74-1.85,2.19-3.44.61-6.84,2.79-10.36.25Z"/>
  <path class="cls-13" d="M198.71,179.21c.41.81.81,1.63,1.22,2.44-.47,3.13-2.24,3.66-4.88,2.44-.83-3.16,1.4-4.03,3.66-4.88Z"/>
  <path class="cls-6" d="M221.9,171.9h-3.66c-.09-1.12.67-1.22,1.5-1.22,2.76,0,5.51,0,8.27,0,.08,1.08-.63,1.22-1.46,1.22-1.55,0-3.1,0-4.64,0Z"/>
  <path class="cls-8" d="M224.34,273.12c1.55,0,3.1,0,4.64,0,.83,0,1.54.14,1.46,1.22-1.55,0-3.1,0-4.64,0-.83,0-1.54-.14-1.46-1.22Z"/>
  <path class="cls-17" d="M195.05,184.09c2.08.1,3.65-.84,4.88-2.44,3.46-1.7,7.04-3.22,9.76-6.1,3.77.59,7.17-2.15,10.98-1.22,2.68-1.59,5.87.43,8.54-1.22,1.72-.59,2.65,1.44,4.32,1.26,1.59-.17,3.23-.16,4.82-.01,5.74.53,10.87,2.8,15.65,5.88,2.69,1.73,5.11,3.91,8.16,5.08,3.3,4.22,6.76,8.28,9.19,13.19.89,1.8,2.03,3.25,1.81,5.35-.06.57-.12,1.33.18,1.73,4.14,5.56,1.68,11.93,2.14,17.92.16,2.09-.31,4.66-3.74,4.58-1.62-.04-1.21,2.12-2.11,3.12-.7.79-.14,2.71-.14,4.12-1.36.64-2.21-.17-3.03-1.06-1.32-2.81-3.16-5.38-4.2-8.34-.28-.78-.5-1.59-.76-2.38-.9-1.88-2.69-2.25-4.47-2.78-2.42-.72-4.02-.74-3.43,2.56.5,2.8.05,5.68.58,8.48,1.36,7.26,4.06,8.94,12.93,8.14.32.34.41.67.29,1-.12.32-.24.48-.35.48-.48,4.54-1.37,9.02-2.98,13.27-2.12,5.58-7.02,8.83-11.49,12.27-2.5,1.92-5.38,3.48-8.71,3.73-1.83,1.44-4.29-.28-6.1,1.22h-3.66c-2.24-1.59-5.07.31-7.32-1.22h-4.88c-.5-1.77-2.66-2.4-3.47-2.26-2.85.48-4.41-1.44-6.29-2.66-5.41-3.51-10.99-6.95-15.03-12.05-4.03-5.1-8.99-9.56-11.29-15.96-1.35-3.77-3.22-7.46-2.9-11.51.29-3.68-1.55-7.62,1.13-11.05-2.9-1.18.83-3.69-1.02-5.08,1.91-1.6.55-3.8,1.05-5.65.69-2.53,1.21-5.23,2.49-7.46,2.57-4.45,5.61-8.63,8.46-12.92Z"/>
  <path class="cls-24" d="M267.06,234.1c.81.41,1.63.81,2.44,1.22-.25,1.7-1.7,5.31-2.44,6.1v-1.22c-1.77-2.03-1.74-4.07,0-6.1Z"/>
  <path class="cls-8" d="M226.78,270.69c1.95,0,3.9,0,5.85,0,.83,0,1.56.12,1.48,1.22-1.95,0-3.9,0-5.85,0-.83,0-1.56-.12-1.48-1.22Z"/>
  <path class="cls-8" d="M237.77,271.91c-.08-1.08.63-1.22,1.46-1.22,1.55,0,3.1,0,4.64,0,.08,1.08-.63,1.22-1.46,1.22-1.55,0-3.1,0-4.64,0Z"/>
  <path class="cls-6" d="M229.22,173.12c.08,1.11-.66,1.22-1.49,1.22-2.35,0-4.7,0-7.05,0-.03-.84.38-1.25,1.22-1.22h7.32Z"/>
  <path class="cls-22" d="M202.37,231.66c-.24,2.59.38,4.9,1.65,7.24,1.54,2.82,3.74,5.21,4.93,8.3.45,1.17,1.67,2.7,3.61,2.8,1.36.07.21,2.93,2.56,2.5.69-.13.88,1.13.49,1.91-.36.7-1.13.55-1.63.4-4.47-1.36-8.34-4.9-11.58-10.79-2.33-4.24-4.33-8.49-3.79-13.69.48-4.61.4-9.34,0-13.97-.26-2.91,1.39-5.22,1.52-8.01.1-2.01,2.6-4.36,4.3-4.47,2.44-.14,4.43-1.38,6.78-1.56,2.66-.21,4.81,1.36,7.39,1.59,1.88.17,3.49,3.06,5.27,4.69.43.4.58.63.09.86-.34.16-.74.16-1.11.25-1.43.36-2.17-.65-3.05-1.47-3.09-2.9-6.97-2.23-10.65-2.11-.79.02-.98,1.26-.44,1.94,1.49,1.91,2.05,4.67,4.98,5.33,1.56.35.48,1.15-.04,1.46-1.84,1.12-3.84,2.08-5.05,3.92-1.55,2.35-1.66,5.24-1.94,7.88-.18,1.72-.39,2.91-1.85,3.78-.2-.18-.39-.35-.59-.53-.83-1.63-.69-3.35-.44-5.06-.67,2.24.62,4.86-1.41,6.81Z"/>
  <path class="cls-22" d="M257.29,201.65c.03,7.46-2.63,10.73-9.04,11.64-1.75.25-3.08,2.37-4.93,1.26-2.43-1.46-5.79-2.05-7.38-3.95-3.34-4.02-6.47-8.54-6.69-14.17-.14-3.67,1.29-6.18,4.64-6.05,4.28.17,9.04.24,12.55,3.19,1.81,1.52,4.05,2.4,5.61,4.19.93,1.07,1.72,1.33,2.98.27,1.2-1.01,1.82.73,2,1.19.41,1.06.25,2.34.26,2.42Z"/>
  <path class="cls-5" d="M267.06,234.1v6.1c-5.93,3.36-9.15,4.58-13.09-3.94-.97-2.1-1.62-4.19-1.66-6.62-.04-2.85,1.05-5.86-1.02-8.65-.78-1.05.05-2.65,1.33-3.59.76-.56,1.91-.66,1.98.08.19,1.99,1.3,2.2,2.8,1.97,3.07-.48,4.78,1.18,6,3.67-5.62,3.18-6.93,6.04-4.74,10.48.51,1.02.96,2.56,2.55,1.84,1.02-.47.84-1.72.63-2.73-.38-1.78-1.51-3.39-1.47-5.24.05-1.94.83-3.16,3.03-1.91.82,1.43,1.39,3.14,2.54,4.23,1.41,1.34,1.05,2.8,1.12,4.31Z"/>
  <path class="cls-21" d="M263.39,225.56c-1.36.03-3.37-.2-2.11,2.04,1.14,2.02,2.02,4.05,2.51,6.28.1.43,1.16.47.38,1.32-1.12,1.21-1.03,3.69-3.22,3.71-1.76.02-3.17-1.84-3.46-2.99-.76-2.97-2.16-5.95-1.42-9.19.31-1.35,2.68-3.41,4.28-3.59,1-.11,2.03-.02,3.05-.02v2.44Z"/>
  <path class="cls-15" d="M232.88,234.1c-1.58-3.62-2.3-7.72-5.88-10.22-.25-.17-.23-1.2.04-1.55.56-.73,1.31-.61,2.02.02,2.14,1.88,3.62,4.5,7.06,4.86,1.08.11,3.02,3.11,2.65,3.94-1.17,2.64,1.17,5.01-.02,7.4-.12.25-.66.29-1,.43-.41.43-.81.43-1.22,0v-1.22c-1.32-1.12-2.82-2.06-3.66-3.66Z"/>
  <path class="cls-7" d="M208.69,190.19c0-.53-.05-.78,0-.81,2.35-1.12,1.86-4.81,5.01-5.34,2.41-.4,4.77-1.2,7.1-1.98.42-.14.64-.53.87-.01.15.34.36.89.2,1.1-3.28,4.39-7.4,7.18-13.18,7.04Z"/>
  <path class="cls-26" d="M233.27,214.52c4.05,1.07,7.74,3.31,10.56,6.87.26.32.26,1.23-.43,1.56-.33.16-.83.28-1.11.14-.51-.25-.98-.65-1.35-1.08-2.27-2.7-5.34-3.67-8.67-3.7-1.82-.02-1.81-.88-1.85-2.2-.06-2.07,1.41-1.4,2.85-1.59Z"/>
  <path class="cls-16" d="M236.54,242.63c-.19,1.3-1.44,2.1-1.33,3.69.1,1.36-1.1,2.4-2.74,2.41-.76,0-1.68.2-2-.73-.17-.5-.06-1.08.43-1.6,1.52-1.61,2.95-3.32,4.42-4.98,1.1-.29,1.68-.05,1.22,1.22Z"/>
  <path class="cls-5" d="M219.46,232.57c0,.6.06,1.21-.01,1.8-.14,1.11-1.01.96-1.8.95-.78,0-1.67.17-1.83-.91-.11-.78-.04-1.59-.02-2.39.05-1.6,1.01-2.7,2.46-2.73,1.98-.05.91,1.72,1.19,2.69.05.18,0,.4,0,.6Z"/>
  <path class="cls-12" d="M218.85,249.95c-.61,0-1.28.17-1.82-.03-1.72-.65-2.91-1.93-3.64-3.59-.11-.25.14-.9.38-1.01,2.03-.88,2.87,1.41,4.45,1.81.14.03-.07,1.18.57,1.52.57.3,1.77-.31,1.65.87-.07.72-1.02.36-1.59.44Z"/>
  <path class="cls-20" d="M267.06,200.05c-.17.34-.29.92-.51.96-.77.15-2.08.44-2.3.1-.95-1.44-1.79-2.94-3.12-4.1,0,0,.34-.62.6-.7,1.76-.57,4.96,1.71,5.33,3.74Z"/>
  <path class="cls-2" d="M251.1,244.3c-.09.39.63,1.62-.8,1.98-1.21.31-2.57-1.24-2.78-3.06-.13-1.17.18-1.74,1.54-1.85,2.03-.16,2.37.82,2.04,2.93Z"/>
  <path class="cls-25" d="M202.37,231.66c.19-3.58-.42-7.18.38-10.73.18-.79.87-.73.46-.04-.11.19.24.67.39,1.01,1.59,2.68-.43,5.87,1.22,8.54-.1,1.82-1.52,1.04-2.44,1.22Z"/>
  <path class="cls-10" d="M252.42,254.11c.07,1.06.11,2.24-1.79,1.96-.75-.11-1.63.15-1.87-.87-.24-.99,1.23-2.68,2.41-2.8,1.13-.12,1.23.66,1.25,1.71Z"/>
  <path class="cls-11" d="M240.04,260.12c-.06.73-.56,1-1.09.78-1-.4-1.46,2.3-2.7.39-.41-.64-1.17-1.1-.91-1.97.41-1.33,1.58-.74,2.45-.82,1.2-.11,1.43,1.18,2.25,1.61Z"/>
  <path class="cls-18" d="M232.88,234.1c.78.41,1.53,1.08,2.34,1.17,1.88.19,1.17,1.52,1.32,2.49-1.21-.3-2.85.83-3.6-.79-.37-.8-.06-1.9-.06-2.87Z"/>
  <path class="cls-9" d="M236.54,242.63c.03-.84-.38-1.25-1.22-1.22.18-.92-.61-2.34,1.22-2.44h1.22c-.46,1.2,1.13,3.09-1.22,3.66Z"/>
  <path class="cls-1" d="M207.25,210.92c.41.83.99,1.61,1.18,2.49.25,1.15-2.05,4.65-2.91,4.73-.52.05-3.09-3.01-3.13-3.87-.11-2.3.12-4.49,2.43-5.79,2.4-.77,1.34,1.91,2.44,2.44Z"/>
  <path class="cls-23" d="M204.81,230.44c-1.11.08-1.22-.66-1.22-1.49,0-2.35,0-4.7,0-7.05,1.11-.08,1.22.66,1.22,1.49,0,2.35,0,4.7,0,7.05Z"/>
  <path class="cls-23" d="M207.25,210.92c-.74.14-1.13-.32-1.2-.92-.1-.82-.1-1.6-1.24-1.51-.15-1,.83-1.24,1.25-1.86.47-.68,1.08-.43,1.14.14.14,1.37.05,2.77.05,4.16Z"/>
  <path class="cls-4" d="M244.23,210.92c-2.66.63-4.29-.67-6.01-3.5-1.46-2.42-3.28-4.67-4.64-7.25-.51-.97-.69-1.79-.69-2.77,0-2.48,1.21-4,3.58-3.45,3.27.76,6.96.47,9.48,3.68,1.47,1.88,4.17,2.35,5.34,5.02,2.26,5.15.76,8.16-4.73,8.27-.61.01-1.22,0-2.34,0Z"/>
</svg>