<?xml version="1.0" encoding="UTF-8"?>
<svg id="Livello_1" data-name="Livello 1" xmlns="http://www.w3.org/2000/svg" viewBox="0 0 489 489">
  <defs>
    <style>
      .cls-1 {
        fill: #fff;
        stroke-width: 0px;
      }
    </style>
  </defs>
  <path class="cls-1" d="M333.84,336.89c.44,1.21.83,2.05,1.18,2.79,3.42,2.54,7.62,3.95,10.17,7.78-2.23,1.92-4.89,1.44-7.39,1.33-2.47-.11-4.93-.59-7.62-.93-1.19-.64-2.45-1.62-4.23-1.66-2.34-.05-4.07-2.06-6.27-2.44-1.42-.24-2.32-2.57-4.11-1.02-1.33-.56-2.66-1.12-4-1.66-1.47-.6-2.65-1.97-4.46-1.73-.11.01-.28-.06-.36-.15-2.88-3.06-7.13-3.68-10.48-5.89-1.03-.68-2.01-1.48-2.9-2.35-.54-.53-.73-1.47-1.31-1.91-2.02-1.55-4.15-2.96-6.38-4.52-.46.38-.87.73-1.34,1.12.69,2.24.95,4.65,3.06,6.24-.59,1.03-1.17,2.04-1.9,3.3-1.45-.38-2.85-.74-4.44-1.15-7.36-6.89-15.57-13.23-22.09-22.5-.23-1.2-.65-3.32-1.13-5.83-.6-.89-1.43-2.12-2.4-3.56,1.76-2.07.8-4.83,1.7-7.35.78-2.18.9-4.87,1.26-7.3.45-3.07,1.23-6.25.49-9.1-.73-2.83-.41-5.55-.75-8.52-3.21-2.29-6.74-4.5-9.47-7.64-2.56-1.43-5.18-2.79-7.67-4.33-1.44-.89-2.49-2.31-3.7-3.49-1.19-1.17-3-1.72-5.19-2.88h-2.69c-2.66,1.94-5.35,4.06-8.21,5.92-1.31.85-2.91,1.32-4.43,1.74-1.57.42-2.92-.45-4.2-1.23-1.25-.77-2.45-1.63-4.25-2.84.05.11-.08-.71-.55-1.01-1.89-1.23-3.72-2.54-5.07-4.33-1.31-1.74-3.7-2.33-4.55-4.49-2.3-.5-2.77-2.85-4.2-4.22-1.31-1.26-2.88-2.13-3.99-3.76-.92-1.36-2.99-1.78-4.21-3.29-1.95-2.42-2.48-2.88-3.26-4.96-1.87-1.33-3.43-2.39-4.94-3.52-1.43-1.08-3.06-2.03-4.17-3.38-2.19-2.68-5.12-4.61-7.26-7.26-2.43-3.01-5.28-5.43-8.45-7.55-.52-.35-.74-1.13-1.18-1.64-1.02-1.15-1.94-2.47-3.17-3.32-2.9-2.01-5.47-4.25-7.22-7.38-.47-.84-1.26-1.7-2.12-2.11-3.19-1.5-4.07-5.47-7.47-6.75-.66-.25-1.05-1.24-1.55-1.89-.51-.65-.88-1.52-1.54-1.92-4.31-2.65-7.18-6.81-10.9-10.07-1.13-.99-2.02-2.17-3.53-2.88-1.17-.55-1.8-2.24-2.86-3.68-2.81,2.43-4.8,5.49-8.31,6.47h-4.33c-1.1-1.11-2.27-2.18-3.31-3.36-.62-.7-1.2-1.51-1.52-2.38-1.52-4.12-3.14-8.22-4.14-12.49-.41-1.77-.01-3.72-.09-5.58-.04-.91-.34-1.81-.63-3.24,1.07-1.05,1.11-2.68-.41-4.12.47-.52.76-.83,1.04-1.14-.27-.3-.77-.59-.8-.92-.34-3.47-.33-6.99-.96-10.4-1.03-5.62-.13-11.34-.98-16.86-.75-4.82-.5-9.55-.6-14.32-.03-1.29-1.13-2.49-.37-3.71.88-1.4-.82-2.71-.44-3.33.97-1.58-.46-2.72-.19-4.11.29-1.53.07-3.15.07-4.46.91-3.56,3.84-4.63,6.81-6.11,2.84.27,5.82-.64,8.81-1.7,1.26-.45,2.62-.66,3.94-.87,1.24-.2,2.5-.34,3.75-.39,4.85-.19,9.79-.95,14.54-.33,6.08.79,12.13.55,18.19.69,1.67.04,3.02,1.22,4.82.95,1.43-.22,2.9.13,4.42.62,2.14.69,4.63.06,6.93.97,1.48.59,3.21.97,4.78.83,1.78-.15,3.25.62,4.8,1.01,4.26,1.06,8.59,2.01,12.47,4.19,1.43.8,2.72,1.87,3.9,2.7.04.6,0,.9.08,1.16.92,3.21.65,4.49-1.57,7.69-.52.75-.91,1.6-.94,2.67-1.16,1.05-2.33,2.1-3.43,3.09,1.19,2.77,3.5,4.24,5.49,5.88,2.02,1.66,2.32,4.93,5.38,5.5.72,1.31.75,3.15,2.69,3.55,2.28,3.38,5.14,6.31,7.34,9.79,1.62,2.58,4.16,4.55,5.97,7.03,4.04,5.51,9.65,9.68,13.17,15.63.57.96,1.56,1.67,2.41,2.45,3.28,3.04,5.4,7.01,8.3,10.35.81.94,1.51,1.99,2.37,2.89,2.91,3,6.1,5.77,7.97,9.63,2.11.6,2.07,2.86,3.23,4.19,1.12,1.28,2.65,2.04,3.66,3.57,3.72,5.64,8.78,10.25,12.47,15.94,1.27,1.97,3.04,3.62,4.65,5.5v4.43c-2.76,5.59-6.49,10.55-8.66,16.89,1.15,1.75,2.42,3.8,3.8,5.77,4.22,6.01,8.56,11.95,12.68,18.02.94,1.38,1.2,3.22,1.78,4.85.4,1.13.8,2.26,1.19,3.37,1.54.8,2.97,1.53,4.69,2.42,2.36.52,5.3-.85,7.93.94.56-.29,1.12-.75,1.75-.86.83-.15,1.73-.14,2.58-.02,5.25.77,10.05-1.3,14.82-2.76,3.24-.98,6.07-3.36,9.02-5.22,3.17-2.01,4.09-2.37,7.62-2.34.41.41.81.81,1.15,1.15,1.01,6.16-2.45,10.47-5.88,14.87,4.22,2.06,8.65,3.34,13.43,3.95,2.47.32,4.94.73,7.42.64,2.9-.11,6.09.12,8.6-1.01,2.34-1.06,4.61-.21,6.88-1.08,2.14-.82,4.74-.44,7-.57,1.28,1.12,2.11,2.11.93,3.68-1.53,2.04-2.14,4.58-3.39,6.77-2.32,4.05-5.54,7.27-9.69,9.49-2.35,1.26-4.74,2.47-7.16,3.73,1.83,1.36,3.58,2.56,5.27,3.8,2.05,1.5,4.08,2.18,6.39,1.94,1.49,1.47,3.17,1.88,5.04,1.75,3.37-.24,6.55,1.19,9.99.99,1.85-.11,3.45-.98,5.24-.97,1.68.01,3.23-.29,4.83-.84,3.38-1.14,6.86-1.71,10.47-1.83,4.19-.13,8.33-1.12,12.57-.84,2.12.14,4,.68,5.79,2.09.11,3.59-1.66,6.57-3.89,9.01-2.84,3.1-5.55,6.43-9.29,8.64-1.08.64-1.85,1.78-2.4,2.34-4.4,1.24-7.78,4.03-12.24,4.02.82,2.65,2.8,3.4,4.7,4.06,2.14.74,4.22,1.67,6.31,2.42,2.08.75,4.44.99,6.64,1.66.65.2,1.36.25,2.05.25,2.58.03,5.17.08,7.75-.02,1.05-.04,2.08-.48,3.25-.77.31.21.76.51,1.21.81,4.69-1.38,9.47-2.01,14-1.7.79.52,1.37.91,1.82,1.21-.61,2.32-2.49,2.82-4.02,3.82-.21-.18-.5-.43-.89-.77-.17.5-.34.98-.49,1.43-1.15.4-2.45.55-3.38,1.22-3.51,2.52-7.64,3.81-11.38,5.87-3.05,1.69-6.23,3.09-9.02,5.25-1.36,1.05-3.23.98-4.73,2.18-1.23.98-3.31.92-5.01,1.3-1.31.3-2.62.66-3.95.84-1.22.16-2.47-.17-3.57.83-.29.26-1.56-.01-1.86-.42-.97-1.32-2.28,1.42-3.05-.37-1.04.24-2.07.49-3.31.78-.84-.47-1.89-1.05-2.99-1.65-1.19.18-2.02,1.28-3.75.51-2.58-1.15-5.52-1.81-8.47-1.34-.91.14-1.78.53-2.75.83-2.42-1.56-4.66-3.74-7.97-3.43-1.75-2.19-5.19-.86-6.82-3.29-1.92-.14-3.7-.45-5.32-1.77-1.27-1.03-3.02-1.3-4.94-.84.17-.09.23-.15.29-.2l-.6-.7-.27.27c.23.2.47.4.59.64ZM240.42,171.59c-.56-.43-1.38-.93-2.02-1.6-.44-.46-.54-1.24-.96-1.74-1.99-2.35-4.07-4.63-6.07-6.97-1.44-1.68-3.04-3.29-4.16-5.17-2.76-4.6-6.43-8.51-9.64-12.76-2.79-3.69-6.51-6.63-9.39-10.34-2.41-3.11-5.24-5.88-7.86-8.83-.34-.39-.51-.93-.73-1.41-1.34-2.94-3.22-5.45-5.67-7.55-1.56-1.34-3.2-2.6-4.65-4.04-1.38-1.37-2.51-2.99-3.84-4.42-1.47-1.58-3.03-3.06-4.55-4.58-.41-.41-.87-.77-1.21-1.23-.96-1.29-1.87-2.61-2.72-3.8,1.76-1.17,3.38-1.95,4.61-3.13,1.27-1.22,2.17-2.84,3.18-4.21.36-1.18.71-2.31,1.08-3.5-.6-.41-1.12-.9-1.74-1.16-2.83-1.16-5.68-2.23-8.62-3.12-6.39-1.94-12.89-3.17-19.52-3.79-.71-.07-1.5.18-2.14-.04-3.26-1.16-6.59-1.75-10.06-1.74-.72,0-1.45-.61-1.89-.81-.91.37-1.5.73-2.14.84-2.39.42-4.64-.54-6.96-.82-2.46-.29-5.04.54-7.41-.85-.43-.25-1.3-.27-1.67,0-1.65,1.22-3.5.64-5.27.84-1.9.21-3.83.97-5.67.77-5.29-.58-9.71,2.57-14.73,3.04-.68.06-1.31.68-2.16,1.14.52.68.84,1.1,1.15,1.52-1.07.4-2.19.82-3.46,1.3.52,4.08-.85,8.04.91,11.84.16.36.19.96,0,1.26-.82,1.24-1.54,2.41-.01,3.63-1.77,1.07-.1,2.08,0,3.15.15,1.42.03,2.87.04,4.3,0,.42-.14,1.04.08,1.24,1.31,1.17.94,2.75.67,3.98-.29,1.33,1.03,2.23.33,3.72-.46.96.56,2.54.58,3.85,0,1.03-.51,2.06-.79,3.07.29.32.58.63,1.01,1.09-.29.51-.6,1.06-.89,1.59,1.77,1.77-.28,4.5,1.56,6.28.22.21-.03.84.04,1.26.18,1.06-1.09,1.89-.13,3.24.61.86.25,2.52.09,3.79-.59,4.68.93,9.22.92,13.86,0,.48.5.94.62,1.45.98,4.19,2.68,8.08,4.88,11.76,5.06,2.25,6.6.12,10.4-5.1h3.55c2.15,2.68,4.98,4.78,7,7.78,1.92,2.85,4.57,5.23,7.01,7.7,1.26,1.28,2.63,2.55,4.18,3.41,1.66.91,2.69,2.17,3.77,3.65,1.01,1.39,2.63,2.33,3.96,3.48.33.28.76.55.89.92.37,1.06.85,1.84,1.95,2.43.95.52,1.47,1.79,2.37,2.48,1.05.8,2.31,1.32,3.47,1.98,1.14.65,1.31,2.05,2.61,2.81,1.92,1.13,3.39,3.06,4.93,4.76,1.43,1.58,3.66,2.15,4.68,4.43.65,1.45,2.71,2.24,4.06,3.42,2.58,2.26,4.22,5.34,7.2,7.35,2.57,1.74,4.54,4.36,6.77,6.6,2.33,2.33,4.62,4.73,7.02,6.99,2.12,1.99,4.44,3.77,6.56,5.77,2.51,2.36,4.82,4.93,7.34,7.27,3.63,3.37,7.21,6.82,11.61,8.9,2.5.37,4.37-.41,6.28-1.85,2.33-1.75,5.04-2.99,7.51-4.4.46-.68.77-1.66,1.39-1.95,2.23-1.05,4.54-1.9,5.35-4.57,2.25-.28,2.03-2.69,3.19-3.7,1.36-1.18,2.17-2.46,2.58-3.53,3.99-2.35,5.51-6.46,8.64-9.01,1.58-1.28,2.69-3.16,4-4.77.06-.07.05-.2.04-.15-.33-.56-.6-1.02-.97-1.65.79-.52,1.42-1.26,2.13-1.34,1.79-.2,2.81-1.22,3.27-2.76.75-2.48,2.35-4.48,3.51-6.73,1.23-2.37,2.18-4.73,1.5-7.71-1.38-1.87-2.85-4-4.47-6.02-1.75-2.18-3.88-4.08-5.41-6.39-2.91-4.4-6.7-8.06-9.79-12.3-1.03-1.41-2-2.85-3.08-4.41ZM372.14,343.57c3,.45,5.77-.36,8.56.85,1.87.81,4.04-.57,6.06-.69,5.23-.31,10.06-1.82,14.68-4.14,6.42-3.22,12.82-6.49,19.22-9.75.14-.07.17-.38.24-.55-.73-.34-1.42-.67-1.84-.86-.86.24-1.48.56-2.12.56-3.45.05-6.9-.13-10.34.09-1.89.12-3.54-.99-5.24-.83-1.93.19-3.66-.42-5.21-1.05-3.55-1.46-7.53-2.04-10.53-4.75-.19-.17-.49-.33-.72-.31-3.4.23-5.3-2.45-7.75-3.77v-2.19c3.45-.88,6.95-1.77,10.44-2.67,3.57-.92,7.04-2.04,9.58-4.96.56-.65,1.13-1.36,1.84-1.81,4.25-2.7,7.75-5.97,8.92-11.13-6.52-.81-12.95.34-19.41.67-.27.01-.55.06-.79.17-5.07,2.19-10.56,2.32-15.89,3.21-4,.66-7.91-.64-11.76-1.69-1.26-.35-2.36-1.46-3.61-1.63-5.98-.79-10.67-4.19-15.42-7.05v-2.96c2.43-1.25,4.63-2.52,6.94-3.54,6.04-2.68,7.84-3.98,10.75-8.19.93-1.35,1.85-2.7,2.79-4.07v-2.68c-.63,0-1.18-.09-1.7.02-1.04.22-2.05.68-3.1.81-1.13.14-2.3-.04-3.44.06-.49.04-.95.64-1.43.65-5.85.05-11.71.28-17.53-.07-2.58-.16-5.04-1.69-7.62-2.28-2.67-.6-4.74-2.42-7.33-3.14-.93-.26-1.74-1-2.78-1.62,2.3-2.55,4.44-4.77,6.41-7.14,1.01-1.21,1.97-2.61,1.42-4.36-1.57-.29-2.73-.18-4,.87-2.91,2.39-6.32,4.07-9.78,5.46-3.99,1.61-8.01,3.46-12.55,3.03-.73-.07-1.5.5-2.28.68-.54.13-1.36.35-1.63.1-1.43-1.38-2.66-.74-4.1-.02-.69.34-1.8.32-2.54.01-3.25-1.35-6.97-.64-9.89-2.65-.67.73-1.12,1.22-1.54,1.67,5.16,7.12,2.81,6.7,13.01,12.25,3-.25,6.15.58,9.07-.89,4.39.56,8.61-1.47,13.08-.78l1.99,1.99c-.97,1.82-1.89,3.63-4.09,4.33-.51.16-.81,1.01-1.15,1.47,1.71,2.54,4.45,2.92,6.65,4.17,1.26.72,2.71,1.73,4,1.64,3.42-.23,6.6.99,9.91,1.13.39.86.77,1.7,1.25,2.77-1.68,1.49-3.09,3.21-5.5,4.07-2.43.87-4.58,2.55-6.94,3.93,3.79,3.62,7.99,6.2,11.74,9.37,2.02,1.71,4.51,3.23,7.38,3.94,2.14.53,4.03,2.04,5.86,3.02,3.3.69,6.47,1.35,9.45,1.97.42,1.02.71,1.72,1.09,2.63-.75.3-1.47.79-2.23.86-6.66.65-13.24-.94-19.89-.85-.36,0-.73-.29-1.1-.44-4.03-1.63-8.67-.69-12.55-2.98-.11-.06-.28-.02-.43,0-2.84.2-5.23-1.09-7.72-2.16-1.82-.78-3.54-1.74-5.52-2.31-3.34-.95-6.51-2.66-8.99-5.32-.54-.58-1.35-.91-1.98-1.42-.77-.61-1.44-1.34-2.23-1.93-.57-.43-.82-1.39-2.15-1.32,1.19,2.63,1.38,5.34,2.79,7.67.23.38.03,1.03.03,1.59h-2.65c-1.81-1.37-3.49-2.59-5.12-3.86-1.53-1.19-3.3-2.21-4.47-3.69-2.66-3.38-5.14-6.92-6.76-10.96-.25-.62-.73-1.19-.79-1.81-.12-1.28.06-2.59-.07-3.87-.1-1.03-1-2.49-.6-2.95,1.19-1.38-.85-2.02-.33-3.34.89-2.24-1.99-3.75-1.78-6.14.06-.65-1.29-1.42-1.95-2.1h-2.64c-.72.72-1.43,1.43-2.01,2.01.26.69.67,1.3.69,1.92.08,2.44.14,4.89,0,7.32-.18,3.19-.1,6.5-.98,9.51-.65,2.21-1.12,4.52-1.41,6.68-.62,4.5.5,8.94,2.78,12.98.72,1.28,1.41,2.6,2.25,3.8,1.1,1.58,2.06,3.56,3.61,4.44,1.81,1.04,2.34,3.03,4.22,4.08,2.09,1.17,4.64,2.38,5.65,5.07.17.44,1.03.62,1.87,1.08v-6.61c.86-.86,1.57-1.57,2.28-2.29h3.41c4.69,4.6,9.53,9.02,15.13,12.45,5.45,3.34,10.96,6.6,17.12,8.58,5.94,1.91,11.64,4.74,18.17,4.85-.19-1.32-1.93-.52-1.82-2.12.04-.57-1.56-1.26-1.73-1.39-1.77-2.48-3.07-4.31-4.24-5.95.52-1.02.88-1.74,1.2-2.37,2.75-2.06,5.92-1.47,8.06.13,2.9,2.17,6.7,2.22,9.29,4.72,3.66.29,6.74,2.89,10.54,2.64,1.62,1.66,3.91.79,5.85,1.43,2.45.8,5.4.79,8.05-.31.1.39.2.78.36,1.38ZM338.47,313.95c-4.66-2.88-9.06-5.98-13.8-8.4-5.21-2.66-8.29-7.69-13.04-10.78-.12-1.63.43-2.48,2.23-2.88,3.08-.69,6.06-1.79,9.02-2.69-.06-.65-.09-.92-.14-1.55-.5,0-1.02-.04-1.55,0-2.24.21-4.21-1.22-6.54-.98-.98.1-2.13-.99-3.14-1.62-1.47-.93-2.89-1.89-4.47-2.68-1.51-.76-2.92-2.13-3.44-4.03-.13-.49-.5-.91-.81-1.46,1.02-.69,1.86-1.27,3.17-2.16-3.43,0-6.46-.39-9.36.08-5.46.89-5.82,1.16-9.62-.1-5.98-1.97-10.58-5.68-13.63-11.04-1,.68-2.02,1.36-3.14,2.12.1.55.11,1.26.36,1.88.65,1.6,1.52,3.11,2.07,4.73.51,1.52,1.29,3.28.93,4.68-.46,1.79,2.21,3.28.18,4.93,1.63,1.52.29,3.57.89,5.2.96,2.6,1.93,5.3,3.48,7.57,1.5,2.19,3.71,3.89,5.65,5.78.13.13.53-.03.94-.07-1.16-2.48-.44-5.02-.68-7.59h4.18c.57,1.86,3.06,1.45,3.75,3.59.47,1.46,2.04,2.83,3.45,3.65,1.49.87,2.67,1.97,3.84,3.13,1.18,1.17,2.98.98,4.3,2.29.95.95,2.32,2.03,3.51,2.61,2.7,1.34,5.84,1.77,8.74,2.77,2.17.75,4.45.73,6.65,1.59,5.3,2.07,9.89,2.26,16.04,1.42ZM273.71,255.73c0-1.72.33-3.66-.1-5.42-.37-1.48-1.62-2.75-2.48-4.11-.29-.45-.69-.87-.84-1.37-.97-3.18-3.93-5.14-4.98-8.25-3.62-3.39-5.64-7.94-8.76-12.12-1.8,1.44-3.75,2.75-5.38,4.37-2.07,2.06-3.82,4.45-5.83,6.58-1.99,2.11-3.8,4.28-5.35,6.8-1.27,2.07-2.19,4.82-5.53,5.36,2.5,3.47,5.6,5.56,8.79,7.32,2.88,1.59,5.12,4.02,8.01,5.54-.17,1.96,1.97,1.51,2.78,2.61.92,1.25,2.59,1.95,3.74,2.76,1.18.43,2.18.78,3.11,1.12,5.22-2.43,9.54-5.89,12.83-11.21Z"/>
  <path class="cls-1" d="M333.96,336.85l-.7-.6.27-.27.6.7-.17.17Z"/>
  <path class="cls-1" d="M251.28,206.83v4.41c-1.78,1.53-3.7,2.79-5.07,4.49-1.44,1.79-3.48,2.05-5.27,2.97-2.46-1.47-4.67-3.08-6.26-5.67-1.03-1.67-3.18-2.62-4.68-4.05-.97-.92-1.46-2.62-2.54-3.08-1.29-.55-2.05-1.47-2.88-2.34-1.53-1.6-2.91-3.35-4.28-5.1-1.38-1.76-3.69-2.71-4.34-5.08-2.84-1.18-3.63-4.34-5.9-6.13-1.31-1.03-2.09-2.75-3.41-4.59-2.26-.73-2.84-3-2.75-5.9,2.32-1.94,4.78-4,7.46-6.24h3.84c2.07,1.65,4.06,3.38,6.21,4.89,1.56,1.09,1.75,3.46,3.88,3.93,2.7,4.09,5.95,7.72,9.43,11.15,1.51,1.49,2.71,3.25,4.47,4.56,1.7,1.27,3.12,2.95,4.59,4.52.93.99,2.09,1.75,2.53,3.26.24.82,1.3,1.46,2.09,2.06.97.74,2.03,1.37,2.88,1.93ZM217.84,191.38c1.27,3.13,4.23,4.43,6.43,6.66,2.1-2.92,5.11-4.23,7.99-5.47-1.66-4.29-5.92-6.04-8.51-9.42-2.66-3.47-6.13-6.31-9.32-9.49-1.28.5-2.39.92-2.56.99-1.61,1.8-2.61,2.92-3.71,4.15,2.16,3.24,4.39,6.56,6.66,9.96.83-.29,1.5-.42,2.08-.74,1.41-.76,2.84-1.51,4.14-2.44,1.59-1.13,2.56-.34,3.44.74-2.16,1.65-4.33,3.3-6.65,5.06ZM232.09,207.02c2.93-2.6,5.4-4.79,7.6-6.75-1.82-2.21-3.71-4.51-5.51-6.7-2.44,2.44-4.65,4.65-7.11,7.11.23,2.89,3.45,3.79,5.02,6.34ZM242.11,203.24c-3.66.57-4.53,3.75-6.08,5.48,1.82,1.96,3.5,3.76,5.22,5.62,2.78-1.02,4.41-3.59,6.28-5.21-.62-3.59-3.7-4.15-5.42-5.89Z"/>
  <path class="cls-1" d="M119.93,90.08c1.27.54,2.61-.14,4.03.76,2.91,1.85,7.02,1.51,9.27,5.35.14,1.97-.97,3.9-1.86,6.05-1.71,4.15-5.88,6.22-7.72,10.13-3.35,1.99-5.87,5.04-9.07,7.19-1.78,1.19-3.93,1.12-6.51.72-1.03-2.6-2.71-5.34-3.16-8.27-.7-4.58-2.52-8.72-3.94-13.02-.33-1-.69-2-1.09-3.17,1.88-2.09-.59-3.63-1.13-5.51.96-1.76.92-4.1,3.58-5.3,5.74.99,12,1.87,17.59,5.08ZM128.95,95.68c-8.79-3.11-17.54-5.43-26.94-7.25.4,2.26.99,4.1,1,5.94,0,2.01.88,3.67,1.44,5.46.6,1.9,1.26,3.79,2.09,5.59,1.61,3.48,1.38,7.64,4.21,10.94,6.76-1.85,10.05-8.41,15.35-11.9,1.42-2.73,2.89-5.35,2.85-8.78Z"/>
  <path class="cls-1" d="M205,237.86c.88-.88,1.64-2.2,2.74-2.6,1.36-.5,2.1-1.14,2.25-1.95,2.4-1.78,4.48-3.32,6.95-5.15.85-.11,2.26-.07,3.36.91,1.77,1.57,3.61,3.1,5.08,4.92.77.97.8,2.53,1.25,4.09-3.52,3.12-6.96,6.18-10.15,9-1.68-.39-2.99-.69-4.58-1.06-1-1.22-2.23-2.71-3.43-4.22-1.07-1.34-3.16-1.64-3.47-3.93ZM209.76,238.17c.54,1.09,1.01,2.03,1.29,2.59,1.47.75,2.61,1.34,3.61,1.85,1.28-.63,2.47-1.21,3.81-1.87-.35-2.43,3.57-2.01,3.26-4.96-1.11-1.32-2.42-2.87-4.04-4.78-2.17,3.3-5.12,5.11-7.93,7.16Z"/>
  <path class="cls-1" d="M131.71,161.63c.34-1.09.62-1.97,1.11-3.52,1.57-1.1,3.67-2.58,6.03-4.23,1.9.33,3.88.68,5.86,1.03,1.57,1.66,3.13,3.3,4.66,4.92.49,1.28,1.01,2.64,1.62,4.26-.18.76-.45,1.89-.74,3.13-.86.81-1.88,1.77-3.44,3.25-5.32,1.33-11.71-3.07-15.09-8.83ZM145.48,167.86c.97-.85,1.71-1.51,2.38-2.09.5-4.09-2.56-5.94-4.72-8.21h-3.42c-1.09.7-2.11,1.36-3.04,1.96v3.01c2.1,1.73,4.33,3.57,6.47,5.34h2.33Z"/>
  <path class="cls-1" d="M201.34,234.21c-.89-3.15-5.07-3.47-5.3-7.15,2.17-1.49,4.32-2.97,6.89-4.73.47-.62,1.28-1.71,2.04-2.74h3.89c1.74,1.98,3.64,4.14,5.56,6.33-3.26,2.84-6.31,5.51-9.5,8.29h-3.58ZM206.61,223.3c-1.09,2.13-4.68,2.33-5.12,5.5.4.38.81.76,1.46,1.38,2.1-1.49,4.21-2.98,6.69-4.74-1.15-.81-1.96-1.38-3.03-2.14Z"/>
  <path class="cls-1" d="M166.16,187.48c-1.15.25-2.2.47-3.36.72-1.5-.49-3.26-1.06-4.69-1.52-1.41-1.61-2.69-3.07-4.12-4.7v-3.86c1.33-1.32,2.64-2.63,4.11-4.09.56-.18,1.44-.46,2.41-.77,1.05,1.35,2.76.3,4.04.77,4,1.97,6.27,4.95,5.69,9.42-1.36,1.34-2.67,2.64-4.09,4.03ZM157.41,180.08c2.14,1.85,3.22,4.69,6.2,5.01,1.04-.62,2.07-1.24,3.14-1.88v-3.76c-1.93-2.37-4.3-3.5-6.96-2.94-1.01.86-1.77,1.5-2.38,2.02v1.55Z"/>
  <path class="cls-1" d="M190.19,198.32c-.75,2.76-2.17,4.63-5.48,5.66h-4.3c-1.2-.82-2.43-1.67-3.66-2.51-2.41-6.66-1.29-7.9,2.58-10.31h5.93c2.49,1.73,3.78,4.28,4.92,7.17ZM186.67,198.03c-.81-2.29-2.23-3.91-4.72-4.32-1.38-.23-2.48.15-3.12,1.77,1.77,1.17-.06,4.09,2.3,5.07h4.31c.43-.88.83-1.71,1.23-2.52Z"/>
  <path class="cls-1" d="M185.57,135.47c.67-1.3,1.1-2.12,1.53-2.94,1.71,0,3.42,0,5.18,0,1.26,1.3,2.54,2.63,3.87,4,0,1.04,0,2.18,0,3.32-.71.71-1.41,1.41-2.1,2.1-1.17.33-2.65-.62-3.38.86-2.98-1.62-2.13-5.65-5.09-7.35ZM189.77,135.01q-.38,1.99,3.16,2.89c-.99-1-1.41-2.54-3.16-2.89Z"/>
  <path class="cls-1" d="M175.02,117.82h-2.06c-1.9-.1-1.3-2.27-2.98-2.67-.89-.21-1.45-1.81-2.2-2.84.23-.27.56-.52.71-.85.16-.35.16-.77.3-1.53,2.18.26,4.29.51,5.94.7,2,2.67,2.03,4.9.3,7.18Z"/>
  <path class="cls-1" d="M178.05,122.74c1.4-1.99,3.08-1.23,4.58-1.42,1.05,1.06,2.13,2.13,3.45,3.46-.72,1.3-1.48,2.67-2.32,4.19h-2.88c-.85-1.2-1.79-2.52-2.83-4v-2.23Z"/>
  <path class="cls-1" d="M100.49,80.54h-.86v-.29h.86v.29Z"/>
  <path class="cls-1" d="M189.77,135.01c1.75.35,2.18,1.89,3.16,2.89q-3.54-.9-3.16-2.89Z"/>
</svg>