<?xml version="1.0" encoding="UTF-8"?>
<svg id="Livello_1" data-name="Livello 1" xmlns="http://www.w3.org/2000/svg" viewBox="0 0 489 489">
  <defs>
    <style>
      .cls-1 {
        fill: #000;
      }

      .cls-1, .cls-2 {
        stroke-width: 0px;
      }

      .cls-2 {
        fill: #fff;
      }
    </style>
  </defs>
  <path class="cls-1" d="M210.98,153.2c.9-1.37,1.83-2.73,2.69-4.13.51-.83.85-1.77,1.39-2.58,1.33-2,2.73-3.96,4.08-5.94,1.34-1.97,2.63-3.98,3.98-5.95,1.79-2.61,3.64-5.18,5.42-7.8.47-.69.73-1.53,1.16-2.25.34-.57.71-1.16,1.21-1.59,1.4-1.22,2.31-2.77,3.26-4.31.82-1.34,1.71-2.63,2.58-3.94.06-.09.2-.16.2-.24.01-1.33.86-1.89,1.98-2.25,1.29-.42,2.34.17,3.36.82.94.6,1.8,1.33,2.77,1.84.73.38,1.58.55,2.4.74,1.7.39,2.68,1.67,3.76,2.88.65.72,1.46,1.3,2.2,1.94.96.82,1.92,1.64,2.91,2.43.41.33.92.52,1.31.86.91.81,1.78,1.68,2.67,2.52.76.72,1.57,1.4,2.28,2.17,1.11,1.21,2.17,2.47,3.23,3.72.49.58.93,1.21,1.44,1.78.93,1.04,1.91,2.03,2.82,3.09.73.86,1.37,1.79,2.04,2.69,1.34,1.8,2.89,3.41,4.6,4.85.18.16.41.26.62.38,0,0-.02-.02-.02-.02.61.41,1.27.75,1.81,1.24.62.55,1.25,1.15,1.67,1.85.89,1.49,2.21,2.2,3.86,2.18,3.13-.04,6.26-.2,9.39-.29.88-.03,1.76.06,2.64,0,2.76-.2,5.51-.57,8.27-.63,1.74-.04,3.48.38,5.23.56.57.06,1.17-.06,1.72.04,2.45.43,4.64,1.37,6.36,3.27.89.98,1.95,1.81,2.76,2.85,1.24,1.58,2.3,3.32,3.52,4.92.65.86,1.47,1.59,2.24,2.36,1.93,1.92,3.47,4.08,4.49,6.64.51,1.29,1.13,2.5.96,3.93-.16,1.36-.44,2.72-.48,4.08-.05,1.61.07,3.23.19,4.84.17,2.21-.19,4.34-.54,6.51-.45,2.73-.63,5.5-.92,8.25-.1.95-.09,1.92-.31,2.84-.64,2.68-.26,5.42-.51,8.11-.17,1.82-.58,3.61-.82,5.42-.11.8-.03,1.62-.13,2.42-.25,2.22-.56,4.44-.83,6.67-.09.73-.28,1.46-.24,2.18.12,1.75-.21,3.42-.63,5.09-.21.85-.53,1.68-.64,2.54-.27,2.09-.27,4.24-.72,6.29-.89,4.07-.62,8.2-.99,12.29-.1,1.15-.32,2.28-.48,3.43h.02c-.08,0-.16,0-.33.03.16.1.25.15.33.2,0,0-.02,0-.02,0-.21,1.81-.21,3.69-.71,5.43-.41,1.45-.25,2.85-.36,4.27-.03.38-.1.77-.19,1.14-.7,2.99-1.27,5.99-1.25,9.08,0,1.42-.18,2.84-.27,4.26-.15,2.28-.3,4.57-.45,6.85-.16,2.41-.26,4.83-.49,7.24-.43,4.6-.86,9.2-1.41,13.78-.48,4.03-.23,8.07-.27,12.1,0,.56-.09,1.13-.17,1.68-.24,1.66-.53,3.31-.75,4.98-.08.65.02,1.33-.02,1.99-.19,2.94-.56,5.89-.55,8.83.01,3.19-.8,6.2-1.46,9.26-.24,1.09-.22,2.23-.38,3.34-.16,1.08-.39,2.15-.6,3.22-.23,1.17-.08,2.26.23,3.42.22.81-.07,1.77-.21,2.66-.11.72-.41,1.42-.48,2.14-.12,1.23-.53,1.63-1.76,1.44-.45-.07-.89-.2-1.41-.32-.27.26-.57.54-.74.7.09,1.3.24,2.45.2,3.6-.01.46-.32,1.1-.69,1.33-1.23.76-2.54,1.42-3.86,2-.44.19-1.04.09-1.56.04-.83-.08-1.65-.26-2.48-.36-1.98-.25-3.97-.39-5.96-.03-.3.05-.65,0-.94-.11-2.14-.86-4.36-.89-6.64-.85-1.45.03-2.91-.36-4.37-.54-.59-.07-1.21-.22-1.78-.11-2.42.46-4.74-.06-7.07-.58-.28-.06-.56-.11-.84-.13-2.41-.2-4.83-.43-7.24-.58-2.64-.15-5.28-.16-7.91-.35-1.35-.1-2.68-.49-4.03-.67-.72-.09-1.47-.08-2.19,0-3.68.42-7.34.96-11.06.33-1.27-.22-2.6-.09-3.89-.23-3.19-.34-6.4-.44-9.57-1.05-1.1-.21-2.3.1-3.45.11-.56,0-1.13-.13-1.69-.22-.27-.05-.53-.2-.8-.22-2.5-.14-5-.25-7.5-.39-.87-.05-1.74-.22-2.62-.28-2.65-.2-5.31-.44-7.97-.54-2.31-.08-4.62.01-6.93.03l-.03-.02.05.02c-1.28.13-2.56.3-3.84.39-1.85.12-3.7.17-5.54.29-.87.06-1.69-.04-2.56-.19-1.48-.25-3.04-.04-4.56.08-1.18.09-2.34.37-3.52.5-2,.21-3.98.01-5.86-.7-.65-.24-1.31-.57-1.82-1.03-1.25-1.1-2.39-2.32-3.61-3.45-.46-.43-1.04-.72-1.49-1.15-1.14-1.09-2.2-2.26-3.35-3.33-.92-.86-1.92-1.63-2.89-2.44l.02.02c-.69-.99-1.09-2.08-1.32-3.02-1.14-.88-2.29-1.65-3.27-2.58-.53-.51-.89-1.27-1.14-1.98-.58-1.59-.77-3.27-.78-4.96,0-.34.27-.7.5-1,.23-.3.56-.53.84-.79-.08-.04-.17-.08-.25-.12.33-.93.68-1.86.99-2.8.15-.45.32-.92.3-1.38-.15-3.83-.34-7.66-.52-11.49.71-1.2.28-2.47.18-3.71-.07-.83-.39-1.65-.4-2.49-.04-2.15.04-4.29.04-6.44,0-2.71-.05-5.43-.03-8.14.01-1.55.13-3.09.2-4.64.08-1.83.15-3.66.26-5.49.06-.98.14-1.97.32-2.94.61-3.2.52-6.45.65-9.68.12-3.03.02-6.06.11-9.09.06-1.92.29-3.83.42-5.74.02-.35.02-.71-.06-1.04-.29-1.31-.39-2.61-.25-3.97.37-3.58.62-7.17.86-10.76.19-2.85.33-5.7.42-8.55.08-2.39.03-4.79.13-7.19.05-1.26.36-2.51.47-3.76.18-1.99.33-3.98.42-5.98.1-2.29.18-4.58.15-6.87-.03-2.55-.21-5.11-.27-7.66-.03-1.37.09-2.75.07-4.12-.04-3.51-.14-7.02-.18-10.54-.02-2.04.08-4.08.08-6.11,0-1.69-.07-3.37-.1-5.06-.02-1.48,0-2.96-.02-4.44-.04-2.82-.04-5.63-.14-8.45-.09-2.35,1.12-4.65,3.82-4.91,2.45-.24,4.9-.55,7.34-.88,2.33-.32,4.66-.67,6.97-1.09,1.23-.23,2.41-.72,3.64-.96,1.34-.26,2.73-.27,4.05-.58,1.67-.4,3.28-1.02,4.92-1.5.53-.16,1.11-.17,1.66-.25,2.13-.33,4.26-.65,6.38-1.01,1.61-.28,3.21-.61,4.82-.94.69-.14,1.36-.31,2.04-.48,1.64-.4,3.31-.71,4.9-1.26,1.1-.37,2.09-1.07,3.13-1.62l-.02.02ZM248.47,149.42s.07,0,.1,0c-.04,0-.08,0-.12,0,.4-.09.8-.23,1.21-.26,2.21-.16,4.43-.28,6.64-.45,1.15-.09,2.06-1.41,1.63-2.47-.47-1.16-1.05-2.29-1.67-3.39-.48-.84-1.1-1.61-1.67-2.4-1.14-1.55-2.26-3.12-3.43-4.64-2.02-2.62-3.74-5.42-5.33-8.31-1.25-2.28-2.4-4.62-3.64-6.91-.63-1.17-1.6-1.85-3.15-1.64-.15.17-.34.43-.56.65-.83.84-1.81,1.52-2.35,2.64-.36.75-.82,1.52-1.42,2.07-1.84,1.69-3.34,3.6-4.37,5.88-.29.63-.59,1.27-.98,1.85-.95,1.39-1.98,2.71-2.92,4.1-1.94,2.9-3.84,5.84-5.77,8.75-.23.35-.49.68-.73,1.03-1.13,1.6-2.6,2.94-3.45,4.78-.4.85-.35,1.43.21,2.21.47.02.99.08,1.5.07,2.17-.03,4.34-.05,6.52-.12,1.61-.05,3.23-.14,4.83-.28.94-.08,1.88-.25,2.8-.46,1.49-.35,3.06-.34,4.43-1.19.51-.31,1.19-.39,1.81-.48,2.09-.29,4.18-.55,6.27-.78,1.19-.13,2.38-.18,3.57-.27ZM296.16,341.07c.5-1.42.77-1.63,2.45-1.7.64-.03,1.21-.16,1.41-.86.17-.57.33-1.15.44-1.74.92-4.81,1.83-9.62,2.76-14.43.33-1.7.77-3.38,1.01-5.08.68-4.85,1.29-9.71,1.91-14.56.45-3.46.9-6.92,1.32-10.39.15-1.26.12-2.54.3-3.8.26-1.81.74-3.59.97-5.4.42-3.35.71-6.72,1.08-10.08.08-.73.3-1.45.36-2.18.27-3.02.5-6.04.77-9.06.25-2.88.53-5.75.79-8.62.02-.25.04-.49.07-.74.39-2.79.83-5.57,1.16-8.37.33-2.83.56-5.67.84-8.51.09-.91.21-1.82.26-2.74.15-2.78.23-5.57.42-8.35.13-1.97.58-3.92.56-5.88-.05-4.64.26-9.24.89-13.82.06-.44-.04-.91-.09-1.36-.08-.69-.25-1.38-.24-2.07.02-2.46.08-4.92.15-7.39,0-.3.15-.6.2-.91.2-1.13.53-2.26.54-3.39,0-1.97-.26-3.94-.3-5.91-.04-2.05.13-4.11.08-6.16-.06-2.75-.24-5.5-.37-8.25-.04-.91-.09-1.83-.12-2.74-.05-1.47-.06-2.94-.14-4.41-.04-.7-.25-1.39-.26-2.09-.02-1.43-.51-2.67-1.36-3.78-1.26-1.65-2.92-2.72-4.93-3.24-.64-.16-1.3-.34-1.95-.38-1.37-.09-2.74-.14-4.1-.1-1.07.03-2.14.22-3.22.31-.63.05-1.27,0-1.89.08-4.94.67-9.92.3-14.87.54-1.75.08-3.49.2-5.24.28-1.19.05-2.4.16-3.57.03-.59-.07-1.09-.7-1.7-.91-2.03-.71-3.94-.42-5.71.84-1.74,1.24-3.76,1.16-5.62.02-1.71-1.04-3.47-2.08-5.61-1.8-1.29.17-2.58.39-3.87.58-2.54.36-5.09.72-7.64,1.05-1.08.14-2.19.14-3.25.36-1.93.39-3.81,1.03-5.75,1.33-2.71.41-5.46.6-8.19.9-.63.07-1.25.18-1.88.27-.48.07-.95.14-1.43.2-2.08.27-4.18.49-6.25.83-1.52.25-3,.8-4.53.98-2.93.35-5.85.53-8.72,1.48-2.93.97-6.02,1.43-9.05,2.11-.89.2-1.79.36-2.68.54-2.07.43-4.14.8-6.19,1.31-1.49.37-2.91,1.08-4.41,1.35-3.5.61-7.03,1.08-10.55,1.54-2.45.32-4.91.51-7.36.79-2.1.24-3.11,1.46-3.04,3.56.05,1.48.1,2.95.15,4.43.08,2.11.17,4.23.24,6.34.02.56-.02,1.12-.02,1.68.01,1.44.03,2.88.05,4.32.01.84.05,1.69.05,2.53,0,1.02-.07,2.05-.03,3.07.08,2.08.26,4.15.3,6.23.03,1.79-.22,3.6-.11,5.38.14,2.42.32,4.8.16,7.25-.24,3.47.06,6.97.06,10.45,0,1.75-.13,3.51-.23,5.26-.13,2.32-.31,4.63-.44,6.95-.1,1.76.12,3.59-.3,5.26-.65,2.66-.39,5.32-.59,7.98-.2,2.63-.22,5.28-.36,7.91-.1,1.78-.38,3.56-.41,5.34-.04,2.11.13,4.22.12,6.32-.01,2.29-.26,4.58-.18,6.86.16,4.57-.54,9.08-.87,13.62-.14,1.97-.53,3.92-.58,5.89-.09,4.07-.04,8.15-.03,12.23,0,1.02.14,2.04.14,3.06,0,1.83-.11,3.66-.07,5.49.05,2.57.21,5.14.3,7.71.03.7-.06,1.41,0,2.1.23,2.42.51,4.84.75,7.25.19,1.86.25,3.74.57,5.58.19,1.11.24,2.05-.5,2.97-.52.65-.35,1.35.23,1.89.59.55,1.21,1.07,1.87,1.52.42.28.93.52,1.43.58,1.99.22,3.99.37,5.99.53.21.02.43,0,.63-.06,2.42-.66,4.85-.7,7.34-.46,1.39.14,2.8-.08,4.2-.05,2.18.05,4.37.27,6.55.24,1.5-.02,3.03-.2,4.48-.58,1.69-.44,3.32-.37,5-.16,1.07.13,2.15.23,3.23.25.59.02,1.19-.23,1.78-.21,3.45.1,6.89.25,10.34.38.18,0,.35.04.52.07.96.17,1.91.39,2.87.52,1.4.18,2.8.34,4.21.43,2.85.2,5.7.38,8.55.51,3.17.14,6.35.14,9.51.34,1.75.11,3.49.76,5.23.72,3.74-.08,7.43.72,11.19.44,2.23-.17,4.5.21,6.75.27,1.41.04,2.82-.1,4.22-.07,3.48.05,6.97.21,10.45.21,2.55,0,5.08.06,7.57.62.37.08.77.09,1.15.04,2.62-.3,5.25-.56,7.86-.97,1.54-.24,3.05-.72,4.78-1.14-.27-1.88-.51-3.56-.77-5.4ZM309.54,360.67c0-1.1-.19-2.15.04-3.09.59-2.39,1.39-4.74,1.35-7.24,0-.17.06-.35.11-.52.55-2.12,1.3-4.2,1.61-6.35.54-3.83.86-7.7,1.18-11.56.28-3.37.24-6.77.7-10.11.35-2.5.19-4.98.35-7.46.15-2.28.2-4.57.41-6.85.16-1.75.55-3.47.75-5.21.16-1.43.12-2.89.28-4.33.19-1.75.55-3.48.73-5.23.16-1.54.13-3.1.25-4.65.22-2.83.51-5.66.75-8.49.1-1.23.11-2.47.24-3.7.32-2.97.69-5.94,1.02-8.91.09-.8.11-1.62.19-2.42.23-2.28.47-4.55.71-6.83.07-.66.06-1.34.17-1.99.24-1.41.71-2.8.77-4.22.11-2.52.74-4.94,1.18-7.39.22-1.24.25-2.52.4-3.78.17-1.46.39-2.91.57-4.37.08-.63.11-1.26.17-1.89.11-1.22.18-2.45.37-3.66.18-1.1.59-2.17.74-3.27.44-3.41.79-6.84,1.2-10.26.36-2.98.88-5.94,1.13-8.92.34-4.04.49-8.09.73-12.14.03-.49.04-1,.18-1.47.65-2.14.92-4.3.55-6.52-.05-.31,0-.63.02-.95.2-2.74.41-5.49.6-8.23.02-.3-.04-.65-.16-.92-.78-1.72-.89-3.59-1.29-5.4-.26-1.16-.61-2.36-1.23-3.35-1.3-2.1-2.79-4.09-4.23-6.1-.26-.36-.6-.69-.97-.93-1-.64-1.72-.3-1.79.88-.13,2.48-.22,4.97-.27,7.45-.02.76.2,1.54.16,2.3-.12,2.32-.33,4.63-.47,6.95-.05.84-.07,1.69-.03,2.53.08,1.89.3,3.79.28,5.68-.01,1.61-.33,3.22-.41,4.83-.06,1.12.13,2.25.08,3.38-.09,1.9-.31,3.79-.41,5.68-.2,3.7-.39,7.39-.54,11.09-.12,2.78-.18,5.57-.25,8.35-.04,1.4.03,2.81-.06,4.21-.22,3.55-.51,7.1-.77,10.65-.06.88-.03,1.78-.24,2.62-.6,2.5-.48,5.03-.61,7.56-.07,1.3.04,2.65-.28,3.89-.54,2.1-.83,4.2-.81,6.37.01,1.09-.18,2.18-.31,3.26-.19,1.6-.52,3.19-.61,4.79-.19,3.59-.37,7.17-1.09,10.71-.25,1.2-.58,2.42-.59,3.63-.02,1.7.03,3.36-.41,5.03-.33,1.28-.36,2.64-.48,3.97-.24,2.84-.35,5.68-.69,8.51-.32,2.72-.87,5.41-1.28,8.12-.29,1.95-.51,3.91-.76,5.87-.33,2.69-.65,5.38-.98,8.07-.1.83-.23,1.66-.36,2.49-.09.58-.19,1.15-.31,1.72-.23,1.03-.55,2.04-.73,3.07-.31,1.79-.51,3.59-.82,5.38-.39,2.35-.89,4.69-1.25,7.04-.36,2.37-.57,4.75-.92,7.12-.18,1.21-.52,2.4-.74,3.36.9,1.15,1.71,2.04,2.34,3.05.47.76.69,1.68,1.04,2.52.83,1.96,2.24,3.64,2.7,5.79.09.43.46,1.11,1.11.76ZM164,350.07c.02.96.43,1.8,1.38,2.41.79.5,1.55,1.08,2.24,1.7.94.84,1.74,1.84,2.72,2.62,1.71,1.36,3.5,2.49,5.91,2.11,1.31-.21,2.69,0,4.04-.02,1.09-.02,2.17-.18,3.26-.2,3.77-.05,7.54-.08,11.31-.08,1.82,0,3.68.35,5.44.06,2.69-.46,5.33-.03,7.99-.12.21,0,.42.06.62.09,1.56.24,3.12.6,4.69.71,4.39.29,8.78.49,13.17.7.95.05,1.91-.09,2.85,0,3.25.3,6.49.72,9.74.99,1.58.13,3.19-.11,4.75.07,2.8.32,5.55.09,8.31-.29,1.14-.16,2.32-.18,3.47-.14,1.26.04,2.52.23,3.78.36.9.09,1.8.2,2.7.3.84.09,1.67.21,2.51.26,1.01.06,2.04.02,3.05.12,1.04.1,2.08.43,3.12.45,2.01.03,3.99.11,5.97.56,1.57.36,3.21.41,4.81.58,1.29.14,2.58.33,3.87.35,2.47.04,4.94-.07,7.41-.04.68,0,1.36.3,2.04.48.37.1.73.3,1.1.33,2.07.15,4.13.28,6.2.36.89.04,1.78-.04,2.39-1.25-.27-.69-.6-1.56-.97-2.42-.25-.57-.63-1.09-.84-1.68-.65-1.81-.97-3.74-2.1-5.38-.75-1.08-1.39-2.23-2.28-3.67-.93-.54-2.22-.04-3.47.14-1.94.29-3.86.87-5.81,1.01-2.62.18-5.27.06-7.91.06-.27,0-.54-.14-.82-.16-.7-.05-1.4-.12-2.09-.1-1.12.03-2.24.23-3.35.19-3.24-.12-6.47-.36-9.71-.47-2.6-.09-5.21-.08-7.82-.04-1.15.02-2.31.36-3.46.3-4.11-.2-8.21-.48-12.31-.78-3.99-.29-7.97-.86-11.99-.69-2.1.09-4.22-.03-6.32-.11-2.58-.1-5.16-.27-7.74-.42-.11,0-.21-.02-.32-.04-1.91-.29-3.81-.65-5.73-.87-2.66-.29-5.24-.91-8.02-.27-1.95.45-4.11,0-6.32-.04-.44.15-1.05.48-1.69.56-2.16.25-4.33.41-6.5.6-.17.02-.35-.02-.53-.03-1.82-.1-3.63-.51-5.47-.11-.3.06-.63-.03-.94-.05-1.32-.11-2.64-.27-3.96-.3-.58-.01-1.18.38-1.74.33-3.01-.26-6.04.74-9.03-.16-.09-.03-.2.04-.3.07.02.04.05.07.07.11-.43.3-.85.59-1.37.95ZM250.41,125.83c.29.97.47,1.91.85,2.77.55,1.27.89,2.62,1.89,3.71,1.35,1.46,2.53,3.08,3.75,4.67.5.65.87,1.41,1.35,2.07,1.51,2.06,3.13,4.05,4.55,6.16,1.94,2.89,4.36,4.59,8.02,4.05.9-.13,1.31-.52,1.49-1.34.21-.95-.27-1.63-.83-2.28-1.77-2.02-3.34-4.16-4.23-6.12-1.58-1.69-2.82-3.02-4.06-4.35-.64-.69-1.25-1.43-1.93-2.08-1.41-1.35-2.93-2.59-4.29-4-1.17-1.22-2.37-2.34-3.86-3.17-.92-.52-1.75-.66-2.71-.11ZM329.8,182.92c-.08,0-.16-.01-.24-.02l.04.3h.14c.02-.09.03-.19.05-.29ZM313.43,153.33s.05,0,.07,0v-.31s-.05,0-.07,0v.31Z"/>
  <path class="cls-1" d="M182.86,363.25c-.17-.02-.23-.03-.3-.03.04-.03.09-.06.14-.07.02,0,.05.03.17.11Z"/>
  <path class="cls-1" d="M324.19,254.77c0,.07,0,.15,0,.22,0,0,.02,0,.02,0,0-.08,0-.16,0-.23h-.02Z"/>
  <path class="cls-1" d="M277.33,144.94l-.02-.02.02.02Z"/>
  <path class="cls-2" d="M329.8,182.92c-.02.1-.03.19-.05.29h-.14c-.01-.11-.03-.21-.04-.31.08,0,.16.01.24.02Z"/>
  <path class="cls-2" d="M313.43,153.33v-.31s.05,0,.07,0v.31s-.05,0-.07,0Z"/>
  <path class="cls-2" d="M324.2,254.76c0,.08,0,.16,0,.23-.08-.05-.17-.1-.33-.2.17-.02.25-.03.33-.03Z"/>
  <path class="cls-2" d="M248.45,149.43s.08,0,.12,0c-.03,0-.07,0-.1,0h-.02Z"/>
  <path class="cls-2" d="M210.98,153.2l.02-.02-.02.02Z"/>
  <path class="cls-2" d="M158.63,351.68l-.02-.02.02.02Z"/>
  <polygon class="cls-2" points="197.67 362.69 197.62 362.67 197.65 362.69 197.67 362.69"/>
  <path class="cls-1" d="M215.9,182.21c2.64-.13,5.13-.23,7.62-.39.43-.03.85-.32,1.28-.44,1.25-.33,2.51-.66,3.77-.94.79-.17,1.6-.28,2.4-.35,1.22-.1,2.45-.17,3.67-.18,2.11-.03,4.23,0,6.34,0,2.78.02,5.33.82,7.68,2.3,1.28.8,2.67,1.44,3.89,2.32,2.55,1.83,5.34,3.34,7.44,5.8,1.03,1.2,1.96,2.41,2.78,3.77,1.6,2.64,3.35,5.19,5.04,7.78.13.21.26.42.34.65.92,2.76,1.54,5.57,1.45,8.49-.04,1.23-.37,2.47-.26,3.68.24,2.82-.47,5.44-1.35,8.05-.44,1.29-.82,2.62-1.42,3.83-.87,1.76-1.8,3.51-2.91,5.12-1.79,2.59-3.49,5.28-5.96,7.33-.27.22-.52.48-.73.76-1.26,1.66-3.14,2.38-4.87,3.4-2.76,1.62-5.9,2-8.8,3.13-3.27,1.27-6.7,1.1-10.08,1.44-1.06.11-2.17-.21-3.24-.39-1.73-.28-3.53-.39-5.16-.96-2.55-.9-5.28-1.44-7.47-3.23-.56-.46-1.29-.7-1.9-1.11-1.33-.89-2.53-2.12-3.98-2.68-2.32-.89-3.24-3.02-4.79-4.58-.74-.75-1.51-1.5-2.11-2.35-1.18-1.65-2.29-3.35-3.35-5.08-2.16-3.53-2.65-7.54-3.08-11.53-.24-2.23-.18-4.5-.14-6.75.02-.97.27-1.95.55-2.9.53-1.86,1.03-3.74,1.77-5.53.84-2.03,1.84-4.01,2.9-5.93.78-1.4,1.8-2.67,2.68-4.01.4-.61.61-1.41,1.12-1.89,1.22-1.16,2.56-2.19,3.87-3.25.62-.51,1.25-1.01,1.91-1.45,1.03-.68,2.09-1.31,3.11-1.94ZM228.7,242.6c-.2-.77-.52-1.43-.52-2.1,0-1.12.2-2.24.32-3.37.32-2.91.84-5.81.91-8.72.07-3.12.36-6.19,1.04-9.23.15-.67.19-1.4.13-2.09-.08-.94-.83-1.68-1.59-1.5-2.37.55-4.93.45-6.99,2.13-.99.8-2.8.56-3.52-.24-.71-.79-.6-2.38.21-3.43.88-1.13,1.88-2.21,2.55-3.45,1.18-2.19,2.14-4.5,3.19-6.76.19-.41.37-.83.6-1.22,1.45-2.44,3.07-4.78,4.04-7.49.17-.49.48-.93.76-1.37,1.35-2.07,2.74-4.12,4.07-6.21.45-.7.77-1.49,1.12-2.2v-1.34c-1.9-1.09-3.95-1.07-5.95-.69-2.03.39-3.98,1.23-6.02,1.54-2.75.41-4.98,1.86-7.3,3.17-.75.42-1.4,1.04-2.07,1.6-1.18.99-2.22,2.16-3.85,2.48-1.51.29-2.6,1.23-3.3,2.58-.49.93-.92,1.89-1.34,2.86-.73,1.68-1.58,3.32-2.09,5.07-.67,2.29-1.1,4.65-1.55,7-.18.96-.19,1.97-.13,2.94.08,1.3.46,2.59.43,3.88-.06,2.39.55,4.62,1.42,6.76.8,1.98,1.68,3.97,2.85,5.73,1.1,1.65,2.62,3.01,3.97,4.48.85.93,1.61,2.04,2.65,2.68,2.23,1.39,4.6,2.56,6.94,3.78,1.56.81,3.15,1.53,4.74,2.28,1.33.63,2.69,1.05,4.28.43ZM239.47,184.6c.09.58.24,1.21.28,1.83.05.84.13,1.7.01,2.53-.37,2.47-.8,4.94-1.26,7.4-.21,1.13.66,2.71,1.95,2.76.8.03,1.63.06,2.41-.07,2.45-.4,4.89-.61,7.51.15.23.46.86,1.1.8,1.66-.21,1.76-.61,3.52-1.07,5.23-.31,1.15-.86,2.23-1.31,3.33-.29.71-.6,1.42-.92,2.12-.5,1.07-1.02,2.14-1.53,3.21-.09.19-.13.41-.21.6-1.47,3.26-2.95,6.52-4.42,9.78-.5,1.12-.86,2.31-1.47,3.36-1.81,3.12-3.76,6.16-5.55,9.29-.89,1.56-1.55,3.26-2.4,5.09.23.55.83,1.03,1.67,1.04.9,0,1.82-.08,2.71-.24,1.66-.29,3.31-.66,4.96-1.01.88-.19,1.78-.36,2.64-.63,1.24-.39,2.45-.89,3.69-1.27,2.37-.73,4.4-2.1,6.22-3.67,1.58-1.35,2.86-3.08,4.18-4.71.99-1.23,1.89-2.54,2.74-3.87.6-.94,1.07-1.97,1.56-2.98.5-1.04,1.09-2.06,1.39-3.16.51-1.9.97-3.83,1.19-5.78.32-2.89.97-5.76.54-8.73-.21-1.48-.35-2.92-1.11-4.23-.8-1.4-1.53-2.84-2.38-4.2-1.28-2.05-2.57-4.1-3.98-6.06-.98-1.37-2.07-2.68-3.27-3.85-.97-.94-2.17-1.66-3.32-2.39-.67-.43-1.45-.69-2.17-1.04-2.28-1.12-4.38-2.62-7.06-2.79-1.2-.07-2.16.13-2.96,1.28ZM231.85,199.77c-2.04.89-3.11,2.55-4.13,4.23-.71,1.16-1.29,2.41-1.92,3.62-.51.99-1.01,1.98-1.45,2.85.76,1.45,2.38,1.52,3.89.93,1.69-.66,3.41-1.03,5.12-.29.61.27,1.33.9,1.47,1.5.41,1.66.8,3.36.4,5.11-.52,2.26-1.07,4.52-1.48,6.8-.26,1.46-.3,2.97-.43,4.42,1.36.3,1.87,0,2.57-1.36.82-1.59,1.66-3.17,2.41-4.79.77-1.66,1.45-3.36,2.18-5.03.45-1.02,1.03-1.99,1.35-3.04.57-1.89,1.24-3.71,2.35-5.35.15-.23.23-.51.34-.77.53-1.28,1.05-2.56,1.58-3.85-.2-1.1-.69-1.68-1.77-1.72-1.55-.06-3.1,0-4.65.05-.23,0-.46.17-.7.22-.86.17-1.72.45-2.59.47-1.63.03-2.5-.73-2.95-2.31-.11-.4-.27-.79-.4-1.18-.45-.19-.83-.35-1.2-.5Z"/>
  <path class="cls-1" d="M234.28,283.11c-.72-.66-1.2-1.1-1.74-1.59,1.36-3.63,3.4-5.44,6.26-5.42,1.61,1.68,3.65,1.41,5.71,1.19,2.15-.23,4.31-.44,6.47-.48,1.96-.03,3.64,1.72,3.68,3.73.09,4.23.09,8.46.2,12.68.05,1.86.31,3.7.38,5.56.12,3.37.17,6.74.24,10.11.03,1.77-.61,3.38-1.69,4.67-.56.67-1.7,1.2-2.57,1.2-2.65,0-5.26.18-7.87.68-2.03.39-3.67-1.14-3.45-3.31.13-1.31-.09-2.52-.3-3.77-.42-2.43-.64-4.91-1.26-7.29-.92-3.55-.86-7.19-1.38-10.77-.09-.65.13-1.34.06-1.99-.15-1.35-.26-2.74-.67-4.02-.34-1.05-1.45-1.22-2.07-1.2ZM241.39,281.17c-.13.42-.42.91-.43,1.41-.05,2.88-.09,5.77-.02,8.65.04,1.51.33,3,.47,4.51.12,1.28.07,2.59.28,3.86.49,2.99,1.06,5.96,1.68,8.93.15.7.59,1.35.94,2.09.71-.14,1.21-.25,1.72-.35.64-.12,1.29-.33,1.94-.31,2.02.06,2.87-.61,2.93-2.67.05-1.78-.08-3.57-.15-5.36-.02-.54-.13-1.08-.2-1.62-.02-.36.1-.73.1-1.1-.02-2.35-.15-4.7-.08-7.05.06-2.18.21-4.34-.33-6.48-.21-.84-.52-1.65-.86-2.7-.35-.35-.8-1.17-1.4-1.32-1.42-.33-2.92-.36-4.39-.47-.69-.05-1.38,0-2.19,0Z"/>
  <path class="cls-1" d="M201.73,279.27c-.28,1.14-.57,1.9-.63,2.67-.2,2.67-.28,5.35-.49,8.01-.14,1.71-.35,3.43-.66,5.12-.48,2.64-.22,5.27.05,7.89.03.33.29.63.6.94-.22,2.55-.46,5.11-.65,7.66-.13,1.81-2.22,2.88-3.8,2.64-.79-.12-1.5-.4-2.07-1.1-.53-.64-1.33-1.07-2.02-1.58-.34-.25-.81-.4-1.01-.73-1.08-1.72-2.77-2.86-4.04-4.4-.87-1.05-1.92-1.94-2.86-2.92-.96-1.01-1.91-2.02-2.83-3.07-1.13-1.29-2.24-2.6-3.33-3.92-1.38-1.69-1.11-3.54.35-5.18,2.38-2.67,5.41-4.52,8.09-6.8,1.95-1.65,3.8-3.41,5.71-5.11.46-.41,1-.75,1.44-1.19.44-.44.8-.95,1.17-1.46.46-.64,1.01-1.06,1.84-1.03.74.03,1.48,0,2.22.06.3.02.69.13.86.34.85,1.06,1.86,2.03,2.08,3.16ZM194.99,306.29c-.08-.73-.21-1.25-.17-1.76.14-1.75.33-3.51.53-5.26.44-3.85.87-7.7.63-11.59-.06-1.01-.18-2.08.09-3.02.33-1.13.23-2.11-.25-3.3-.41.04-.98-.06-1.31.17-.79.56-1.7,1.15-2.15,1.95-.58,1.03-1.4,1.62-2.3,2.23-.66.45-1.33.91-1.88,1.48-1.18,1.22-2.28,2.52-3.42,3.78-.14.16-.34.26-.47.42-.31.4-.64.8-.86,1.26-.24.5-.36,1.06-.55,1.58-.32.88-.06,1.55.65,2.13,1.34,1.08,2.65,2.18,3.91,3.34.69.63,1.25,1.41,1.89,2.1.51.56,1.08,1.07,1.58,1.63.94,1.07,1.86,2.16,2.77,3.22.59-.18.98-.29,1.31-.4Z"/>
  <path class="cls-1" d="M226.91,313.85c-1.62,0-3.24,0-4.85,0-.95,0-1.91.14-2.84.04-.54-.06-1.17-.36-1.52-.76-.87-.98-1.49-2.13-1.58-3.5-.11-1.58-.26-3.16-.39-4.73-.03-.39,0-.8-.12-1.16-.6-1.82-.16-3.62,0-5.43.06-.62-.1-1.25-.13-1.88-.16-4.3-.29-8.6-.47-12.9-.02-.4-.19-.82-.36-1.2-.83-1.93-.53-3.75.72-5.35.32-.4,1.21-.69,1.72-.55,2.91.77,5.84-.14,8.74.22.8.1,1.6.23,2.4.34,1.37.19,2.08,1.05,2.39,2.33.17.68.37,1.35.54,2.03.05.2.09.41.08.62-.11,2-.13,4-.37,5.98-.3,2.49.3,4.87.52,7.3.14,1.5.11,3.02.16,4.54.06,2.01.12,4.02.18,6.03,0,.25,0,.51.07.73.44,1.24.15,2.44-.16,3.64-.14.54-.28,1.09-.44,1.63-.07.23-.15.56-.32.64-1.3.62-2.34,1.92-4.01,1.38ZM226.92,308.94c.13-.35.26-.54.26-.74.05-1.92.11-3.85.12-5.77,0-.6-.18-1.19-.2-1.79-.15-3.31-.28-6.63-.4-9.94-.02-.49.02-.99.08-1.47.32-2.5.11-4.94-.91-7.25-.81-1.84-3.71-2.36-5.39-1.27-1.55,1.01-1.54,2.55-1.61,4-.1,2.1.08,4.21.11,6.31.01.81-.09,1.62-.05,2.42.11,2.08.3,4.17.39,6.25.03.76-.26,1.55-.19,2.3.19,1.91.5,3.81.76,5.67,2.09,2.07,4.52,1.77,7.04,1.28Z"/>
  <path class="cls-1" d="M273.83,313.96c-1.41.55-3.72-.09-4.23-1.92-.11-.4-.27-.86-.16-1.22.66-2.25.32-4.53.28-6.81-.04-2.29.02-4.59.19-6.87.17-2.31.68-4.61.77-6.92.08-2.15.3-4.36-.48-6.47-.17-.46-.16-.99-.35-1.44-.49-1.18.21-1.93.97-2.55.77-.63,1.76-.77,2.67-.24,1.56.91,3.09,1.86,4.59,2.85,2.25,1.48,4.1,3.51,6.58,4.69.6.28,1.01.96,1.52,1.44,1.48,1.35,2.99,2.67,4.44,4.05,1.07,1.01,2.07,2.1,3.1,3.14.2.2.39.42.64.53,1.57.71,2.4,1.96,2.69,3.61.04.24.11.48.2.71.46,1.21.16,2.07-1.08,2.5-1.62.56-3.31.91-4.93,1.47-1.86.65-3.67,1.44-5.5,2.17-.82.32-1.65.6-2.45.95-.54.24-1.06.53-1.57.84-1.61.99-3.23,1.97-4.8,3.03-.95.64-1.8,1.41-3.11,2.45ZM273.68,307.41c1.22.55,2.29.16,3.34-.4,1.79-.95,3.54-1.99,5.37-2.88,2.14-1.04,4.35-1.97,6.53-2.93.35-.16.75-.2,1.1-.37,1.17-.55,1.29-1.5.34-2.36-.93-.86-1.84-1.74-2.73-2.63-1.03-1.04-1.89-2.34-3.08-3.13-2.21-1.47-4.1-3.37-6.5-4.58-.9-.46-1.58-1.18-2.64-.49-.12.07-.37-.06-.56-.11-.19.4-.36.75-.52,1.09.2,1.31.29,2.62.18,3.9-.22,2.5-.65,4.99-.79,7.49-.14,2.42-.03,4.85-.03,7.4Z"/>
  <path class="cls-1" d="M181.77,193.01c-1.61-.28-3.31-.25-4.69-.89-3.85-1.79-5.01-4.47-3.86-8.15,1.12-3.56,3.76-5.65,6.87-7.25.82-.42,1.93-.42,2.9-.4,2.15.04,4.27.49,5.9,1.92,2.07,1.82,3.66,4.03,2.84,7.02-.31,1.11-.85,2.32-1.66,3.08-1.56,1.49-3.32,2.82-5.15,3.97-.86.54-2.08.49-3.14.7ZM180.35,180.97c-.44.85-.87,1.76-1.36,2.64-.49.89-1.02,1.76-1.57,2.69-.18,1.66-.15,2.16,2.36,2.56.75.12,1.54.03,2.32-.03,2.38-.16,3.86-1.64,4.83-3.61.5-1.01.51-2.23-.35-3.19-1.08-1.21-2.37-1.99-4.07-1.65-.66.13-1.29.35-2.16.58Z"/>
  <path class="cls-1" d="M293.42,168.29c.62.05,1.19.01,1.71.16,1.41.39,2.82.81,4.19,1.31.3.11.5.57.68.91.77,1.49,1.34,3.02.92,4.76-.15.65-.12,1.34-.23,1.99-.18,1.03-.36,1.99-1.21,2.83-.82.8-1.25,1.98-1.93,2.95-1.54,2.2-3.79,2.21-5.94,1.61-2.72-.76-4.62-2.64-6.44-4.63-1.12-1.23-1.07-3.26.14-4.66.87-1.01,1.85-1.92,2.79-2.87.1-.1.22-.19.27-.31.92-2.35,2.85-3.44,5.05-4.05ZM289.8,181.05c1.09.52,2.09,1.33,3.37.64.5-.26.98-.56,1.47-.82,1.17-.63,1.73-1.77,2.1-2.91.38-1.18.42-2.47.58-3.55q-1.64-1.88-3.37-2.46c-3.97,1.44-5.33,5.76-4.15,9.11Z"/>
  <path class="cls-1" d="M231.69,281.54s.02-.05.04-.08c.03.01.06.02.07.04,0,.02-.02.05-.03.07-.03-.01-.05-.03-.08-.04Z"/>
</svg>