<?xml version="1.0" encoding="UTF-8"?>
<svg id="Livello_1" data-name="Livello 1" xmlns="http://www.w3.org/2000/svg" viewBox="0 0 515.75 489">
  <defs>
    <style>
      .cls-1 {
        fill: #fff;
        stroke-width: 0px;
      }
    </style>
  </defs>
  <path class="cls-1" d="M171.31,312.94c.4.4.69.69,1.16,1.16,1.18-1.16,2.38-2.35,3.35-3.31,1.25,1.24,2.3,2.27,3.46,3.42-1.16,2.07-.39,4.82-.59,7.48-2.62,2.15,1.85,5.1-.82,7.06.58,1.73,1.48,3.29,1.56,4.88.14,2.78,1.36,5.12,2.4,7.53-.24.24-.43.43-.66.66,1.96,1.19,1.96,3.57,3.2,5.27,1.87,2.55,3.07,5.6,4.87,9.04.1-3.8,1.27-6.8,1.11-10.06-.11-2.2.76-4.39.86-6.68.09-2.11,1.11-4.17,1.79-6.46,1,.46,1.8.82,2.83,1.3,1.12,3.53,1.36,7.62,3.1,11.22,1.73,3.57,3.85,6.94,6.39,11.42.88.88,2.64,2.64,4.41,4.4.87-1.05-.08-1.88-.17-2.81-.23-2.24-.68-4.43-1.06-6.64-.29-1.68-.9-3.39-.74-5.03.17-1.74-1-3.01-.94-4.63.07-1.79.31-3.65-.05-5.36-.56-2.61-1.44-5.18-2.47-7.65-.64-1.54-.88-3.03-.72-4.98,2.18-.4,4.48-.83,7.43-1.37-.04.05.4-.45.95-1.08-1.66-3.38-6.03-3.12-8.03-5.94-.69-1.37-1.38-2.74-1.97-3.9,1.12-1.07,2.19-2.09,3.26-3.1-.13-.09-.26-.18-.39-.27,1.11-.34,2.2-.81,3.33-.97,1.17-.17,2.39-.04,3.76-.04-.18-.74-.14-1.25-.37-1.45-1.01-.84-2.09-1.59-3.15-2.36-.95-.69-2.02-1.26-2.86-2.07-2.62-2.55-5.43-4.95-7.29-8.14-.49-.85-.47-2-.69-3.04,1.75-.69,2.86-.27,3.47,1.22,1.96,4.86,6.23,7.51,10.07,10.58,2.44-.2,3.32,2.49,5.4,2.95.35,1.07.71,2.17,1.08,3.29-.1.18-.17.5-.36.62-2.07,1.25-4.53.93-6.78,1.58-1.57.45-2.81,1.25-4.59,1.7,1.39,2.14,2.95,3.58,4.9,4.15,2.38.69,3.69,2.43,5.58,4.14-1.02,2.04-1.99,3.98-2.76,5.52-2.54.42-4.6.77-6.98,1.16,3.06,9.15,2.96,18.42,4.67,27.87,2.47,5.39,4.13,11.77,8.82,16.52-.03,1.87-.07,1.86-1.05,3.49-.98-.55-1.98-.77-2.58-2.12-.52-1.18-1.89-1.96-2.82-2.97-1.36-1.47-3.15-2.58-3.81-4.62-2.46-.24-2.7-2.7-4.02-4.07-1.29-1.33-2.43-2.82-3.52-4.32-1.15-1.57-2.25-3.19-3.22-4.87-1.97-3.44-3.99-6.86-4.93-10.75-.33-.02-.6-.04-.87-.06-.11.08-.29.15-.3.24-.99,5.61-1.96,11.22.5,16.76-1.3.79-.09,3.32-2.67,3.75-.18-.42-.37-.94-.63-1.43-1.96-3.64-4.58-6.86-6.47-10.56-1.22-2.39-2.75-4.58-3.41-7.29-.59-2.46-2.09-4.64-2.72-7.14-.4-1.62-1.02-3.19-1.33-4.82-.4-2.07-.69-4.17-.83-6.27-.14-2.06-.02-4.13-.04-6.2,0-.26-.09-.51-.21-1.14-1.41.6-2.76,1.18-4.1,1.76-1.32-1.28-1.5-2.87-1.53-4.62-.03-1.55-.51-3.08-.77-4.62-.57-3.42.78-6.53,1.93-9.54,1.98-5.14,2.46-5.61,7.5-9.22,2.81-2.02,4.09-3.79,4.64-7.14-1.24-.64-2.49-1.29-3.87-2-.46-2.43-.92-4.85-1.41-7.43-.16-.16-.45-.45-.91-.91-3.67-.36-7.53-.74-12.38-1.22-2.16-1.5-5.15-3.58-7.49-5.21-.62-1.91-.97-3.01-1.3-4.04.68-1.62,1.33-3.14,2.09-4.94-3.07-.42-5.78-.83-8.5-1.14-1.7-.19-3.43.28-5.09-.76-.51-.32-1.67.39-2.97.75-.39-.64-.96-1.58-1.56-2.56-.2.22.07-.07.07-.08-.35-3.09-.67-5.92-1.09-9.56-.14.22.48-.31.48-.86.03-4.04,1.51-7.99.86-12.06-.4-2.5.97-5.18-.78-7.53,1.22-.9.7-2.2.78-3.45-1.23-.25-2.48-.51-4.03-.83-.15.09-.69.39-1.58.89-.4,1.91-1.06,4.17-3.49,5.53-.89-.3-1.86-.63-3.2-1.09-.69-2.18-1.46-4.61-2.43-7.67-.55-.73-1.88-.57-3.27-.32-1.13,2.15-2.26,4.32-3.35,6.39h-3.1c-2.2-1.69-3.31-4.26-3.89-7.13-1.48-1.58-3.34-1.87-5.43-1.93-3.34-.1-6.67-.51-10.01-.77-.52-.04-1.04,0-1.81,0-.68,1.62-1.32,3.15-2.02,4.83-.37.15-.96.4-1.68.71-1.26-.55-2.91-.57-4.34-1-1.93-.58-3.76-.07-5.34-.42-1.1-.62-2-1.13-3.03-1.7-3.03,2.44-5.41-.98-8.24-1.09-.85-.03-1.69-.54-2.54-.84-.3-1.52.04-2.79,1.78-2.93,1.49-.12,2.2-.72,2.31-2.15-2.3-1.11-4.97.58-7.1-1.14-.84,1.25-2.16.66-3.31.73-.89-.89-1.77-1.76-2.75-2.75v-2.45c.55-.79,1.21-1.75,2.01-2.92h7.3c1.12.58,2.14,1.1,3.28,1.69.7-.31,1.4-.62,2.32-1.04.28.2.7.49,1.15.8.24-.22.53-.48.88-.8,2.3,1.48,4.94.64,7.43.94.49.49.98.98,1.26,1.26,3.83.78,7.42,1.51,11.43,2.32.31.34.96,1.05,1.84,2.01v3.37h4.11c-1.67-2.34-3.14-4.56-4.77-6.64-1.09-1.39-2.82-2.11-3.78-3.74-.94-1.58-2.72-2.76-3.35-4.41-.7-1.84-2.86-2.5-3.07-4.53-4.32-3.34-6.62-8.29-9.92-12.44-.48-.6-.83-1.29-1.31-2.03-.98.3-2.07.63-3.15.96-.48-.54-.85-.95-1.22-1.37.27-.47.57-1,1.02-1.78-1.97-.27-3.36-.77-4.09-2.7-.41-1.08-1.97-1.71-2.96-2.61-.72-.66-1.35-1.43-2.35-2.5h-2.97c-.44-.44-.73-.73-1.32-1.32.68-.36,1.37-.72,2.08-1.1-.6-.68-.8-1.08-1.11-1.22-2.19-.91-4.03-2.1-5.23-4.32-.57-1.06-1.93-1.7-3.19-2.76.62-.74,1.37-1.64,1.73-2.08,2.02-.56,3.51-.98,5.21-1.45-.5-1.12-.9-2.04-1.37-3.1-1.61.27-3.61.06-4.83.94-2.15,1.54-3.28.04-5.18-.68.63-.76,1.04-1.25,1.56-1.87h3.8c-.35-1.64-.66-3.11-1.05-4.92-1.63-.29-3.93.45-5.34-1.21-1.15-1.35-1.88-3.05-2.93-4.83.96-.96,1.9-1.9,2.73-2.73v-2.48c-1.43-1.49-3.34-2.91-3.32-5.9.33-.16.96-.46,1.52-.73,1.31,1.58,2.93,3.54,4.45,5.38,3.25-.06,6.09.35,8.11,2.91v3.76c-1,1.59-1.83,2.9-2.76,4.36,1.64,1.16,3.11,2.19,4.73,3.33,1.08-.72,2.03-1.36,3.45-2.32.47.54.96,1.11,1.74,2.02-1.41,1.2-2.57,2.17-3.93,3.33.35.46.82,1.08,1.5,1.97,1.55-1.04,3.04-2.05,4.47-3.01-.35-1.18-.62-2.08-.96-3.25,2.14.29,3.16,1.66,3.82,2.79,1.42,2.44,3.75,4.11,5.05,6.58,1.05,1.99,3.23,2.84,4.48,4.68,1.2,1.77,2.78,3.29,4.27,4.86,1.31,1.38,2.46,2.78,2.28,4.92-.46.16-.94.33-1.53.53v3.38c-.88.89-1.83,1.83-2.85,2.85,4.27,6.29,6.83,13.66,14.3,17.58,3.28-.72,6.79.72,10.3.86,3.6,1.29,4.3,4.73,5.32,7.63.66,1.88,1.17,4,1.09,6.23-.06,1.82.97,3.68,1.56,5.68,2.27.42,4.58.85,6.97,1.29,1.57-2.73,3.25-5.09,6.88-4.22.72,1.72,1.46,3.49,2.3,5.49h3.81c.67.5,1.08.81,1.68,1.26,2.96-3.15,3.36-6.85,3.14-10.8.45-.12.82-.21,1.54-.4-.13-2.99.45-6.02-.42-9.29-.78-2.96-.11-6.28-.32-9.42-.11-1.59.67-2.77,1.14-4.11.12-.35.56-.59.99-1.02,3.43,0,7.09-.48,10.55.15,2.96.54,5.86.52,8.79.71,1.55.1,3.47,1.22,4.53.63,1.52-.84,2.88-.53,4.3-.63,1.64-.12,3.31-.03,4.64-.03.83-.42,1.4-.71,1.97-1,.68-1.7,1.39-3.48,2.1-5.25.22-.12.48-.21.67-.37,2.56-2.29,5.62-2.76,8.91-2.49,1.37.11,2.76-.02,4.14.03,3.47.11,6.81-.47,10.09-1.63.72-.25,1.6-.04,2.33-.04.24-.65.41-1.13.67-1.84.64.32,1.19.6,1.73.87,2.81-1.72,6.56-.43,9.8-2.81-.76-.33-1.35-.59-1.85-.81.5-1.83,1.38-3.25.19-4.66-.22-.27-.31-.75-.28-1.11.31-3.51-1.37-6.65-1.89-10.01-.39-2.55-1.37-5-1.48-7.65-.07-1.69-.49-3.36-.8-5.03-.29-1.54.34-3.05-.68-4.71-.74-1.2-.14-3.21-.14-4.84-2.13-2.47-5.35-2.77-8.06-3.54-3.5-.99-6.11-3.27-9.22-4.77-2.44-1.18-4.62-3.06-6.63-4.93-1.63-1.52-3.18-3.31-4.16-5.29-1.49-3-3.76-5.32-5.77-7.88-.54-.68-.84-1.55-1.23-2.28,2.29-1.74,4.78-2.02,7.02-2.91,2.17-.87,4.4-1.42,6.66-1.89,1.53-.32,2.94-1.19,4.62-.87,1.72.33,2.85-1.1,4.28-1.62,1.44-.53,2.91-.98,4.38-1.42.74-.22,1.51-.33,2.24-.48-1.38-4.76-3.4-9.36-3.86-14.11-.38-3.93-1.3-7.93-.99-12.15,2.28,1.12,2.63,3.31,3.8,5.18,1.31.71,2.79,1.5,4.5,2.42-.38,1.78.24,3.33,1.14,4.8.2.32.49.74.42,1.05-.75,3.23,1.9,5.69,1.97,8.73,0,.3.55.59.96,1,3.18,0,6.49.25,9.76-.06,5.57-.52,10.73,1.14,15.93,2.59,2.89.81,4.2,1.03,6.44.79,3.36-.37,6.39-.33,8.8,2.84.4,3.57-.49,6.87-1.78,10.06-.24.6-1.18.91-2.12,1.59-.85,3.19-3.74,5.38-6.37,7.57-1.08.9-2.37,1.72-3.34,2.77-3.95,4.27-9.28,6.06-14.39,8.25-.59.25-1.12.66-1.74,1.04,1.12,3.25.71,6.74,2.17,9.84,1.43,3.04,2.04,6.34,3.01,9.63.5.5,1.09,1.09,1.86,1.86,3.38-.54,6.5.78,9.47,2.48,2.99,1.71,4.81,4.75,7.44,7.3v1.21c.79,1.29,2.46,1.85,2.6,3.61,1.52.59,3.06,1.19,4.77,1.85,1.89-1.21,4.32-1.09,6.45-.63,2.24.48,4.26-.86,6.81.19.36.55,1.01,1.51,1.78,2.67-.83,3.41,2.6,6.43,1.35,10.35-1.59-.42-2.6-1.25-3.04-2.79-.53-1.85-1.06-3.69-1.67-5.51-.2-.6-.67-1.11-1.06-1.73-3.2,0-6.44-.45-9.49.12-3.22.6-6.5.18-9.58.85-2.83.61-5.62.34-8.36.78-1.54.25-3.04.67-4.64.77-1.69.1-3.35.62-5.04.76-1.64.14-3.32-.09-4.96.07-1.27.12-2.56.45-3.73.95-2.88,1.24-5.83,2.07-8.97,2.38-1.63.16-3.16,1.05-4.79,1.37-4.2.82-8.15,2.76-12.54,2.75-.72,0-1.43.5-2.17.77-2.33-1.59-4.99-.45-7.5-.86-1.02.59-2.03,1.18-3.11,1.8v2.89c.11.07.32.25.56.32,1.8.53,3.35-.58,5.03-.84,1.55-.24,3.09.44,4.72-.67.88-.59,2.94-.76,4.2.8.67-.3,1.34-.82,2.06-.9,2.91-.36,5.83-.69,8.76-.83,2.89-.14,5.8-.13,8.69,0,4.48.19,8.8-1.25,13.32-.92,4.39.32,8.84.3,13.23-.07,1.36-.11,2.59.13,3.88.13,1.38,0,2.76,0,4.14,0,1.52,0,3.1-.28,4.54.07,1.79.43,3.48,1.31,5.32.39,1.96-.98,4.02-.25,6.02-.45,1.87-.19,3.75-.28,5.63-.41.29-.02.59-.02.88.03.64.1,1.32.46,1.91.33,2.49-.52,5.26-1.66,7.45-.63,2.65,1.24,5.14-.07,7.41.83.57-.57.96-.96,1.35-1.35q.1-5.79,1.99-8.74c.81,0,2.21-.43,2.86.08,1.97,1.57,4.61-.22,6.36,1.43.68-.35,1.36-.7,2.14-1.1-.09-.34-.1-.77-.3-1.06-.96-1.36-.71-2.76-.27-4.2.19-.61.52-1.23.51-1.85-.07-3.56.7-6.79,3.3-9.4-.04-1.67,2.41-2.31,1.76-4.24,2.83-3.5,5.3-7.4,10.19-9.07-2.61-3.05-5.11-5.98-7.61-8.91-2.5-2.94-5.14-5.76-7.33-8.96-2.15-3.15-5.27-5.59-6.97-8.9,2.24-4.66,6.84-5.94,10.55-8.36,1.69-1.11,3.6-.78,5.71-.84,2.05,2.55,5.32,4.29,6.26,7.95.06.23.34.47.57.58,3.47,1.58,5.08,5.05,7.44,7.67,3.68,4.08,7.33,8.23,10.83,12.47,3.59,4.34,7.71,8.07,11.55,12.12,2.02,2.13,4.08,4.17,5.28,6.93.26.59.94.99,1.67,1.71-.28,1.48-.59,3.14-.91,4.86.45.21,1.02.48,1.95.92-1.03.8-1.87,1.45-2.6,2.01-.32,1.83-.62,3.49-.8,4.52-2.24,2.03-4.01,3.63-5.83,5.29h-1.47c-6.63-6.45-13.33-13.14-19.13-20.69-1.08.35-2.18.71-3.81,1.24-1.82,2.15-4,4.71-6.16,7.25-.55,1.43-1.1,2.86-1.65,4.29-.66,3.82.1,7.46,1.86,10.63,2.16,1.44,4.66.82,6.48,2.24,3.93-.22,3.67,3.17,4.48,5.44.44,1.22.08,2.72.08,4.51,1.87.78,3.81,1.85,5.88,2.41,3.35.9,6.76,1.51,9.95,2.98,1.38.64,2.95,1.01,4.47,1.16,2.4.24,4.42,1.32,7.29,2.59,1.16-.2,3.08-.53,5.17-.89.92,1.29,1.89,2.66,2.85,4q-1.7,7.13-.49,11.58c1.17-.46,2.34-.92,3.54-1.4,1.29.31,2.67.65,4.43,1.07.91,1.02,2.1,2.32,3.25,3.66.15.17.15.49.3,1.05,2.64.32,5.39.64,8.74,1.04,2.05,1.75,3.35,4.48,3.59,7.81,2.28.49,4.55.98,7.13,1.54,1.84-.9.3-3.57,1.78-4.94-.3-2.59.61-4.89,1.63-7.18.15-.35.02-.82.02-1.36.63-.6,1.33-1.26,2.02-1.93,1.19-1.14,2.56-1.7,4.26-1.73,4.54-.08,8.82,1.07,13.48,2.06,1.99-.69,4.37-.75,6.69.42,2.16-1.18,4.29-2.34,6.5-3.55,1.58,1.13,3.12,2,2.54,4.4,2.47,0,4.65-.05,6.82.02,1.35.04,3.05.84,3.96.27,1.66-1.03,2.24,1.14,3.74.66,1.22-.39,2.95-.72,4.22.64.26.28,1.06.05,1.6.06,1.58.03,3.1,0,4.66.75,1.36.65,3.19-.48,4.63.86.37.34,1.33.05,2.02.05,1.93,0,3.94-.34,5.77.1,1.81.43,3.43-.32,5.13-.09,3.64.5,7.28,1.05,10.85,1.56,1.7,2.47,1.91,4.98.19,7.34-.96,1.32-.21,2.65-.67,4.17-.56.36-1.32.85-2.22,1.42-.69,3.47.74,7.35-.91,11.28.16.29.47.84.88,1.57-.25.35-.55.77-.81,1.15.31,1.64.62,3.31,1,5.31,3.3-.17,6.85.79,10.43-.64.91-.36,2.24.33,3.79.61,2.08-1.89,4.75-2.14,7.62-.47,2.03,2.77.76,5.3-.73,7.93h-3.84c-1.21-1.56-2.52-3.24-3.77-4.85-2.37,0-4.58-.13-6.78.04-1.94.15-3.86.65-5.84,1-.6-.97-1.08-1.74-1.57-2.53-.09.06-.38.15-.42.31-.87,3.02-.74,6.19-1.54,9.27-.64,2.45-.21,5.21-.11,7.82.12,2.91-.59,5.24-3.78,6.21-.26-.15-.7-.6-1.1-.58-3.9.2-7.42-1.24-11.1-2.15-2.87-.71-5.59-2.35-8.71-2.03-.24.02-.56-.03-.74-.18-2.76-2.09-6.21-2.34-9.32-3.49-2.99-1.11-5.94-2.42-9.03-3.16-4.64-1.12-8.84-3.36-13.34-4.8-1.31-.42-2.41-1.5-3.61-2.29-4.38.08-8.08-3.14-12.56-2.63-3.49-2.38-8.04-1.78-11.85-4.66-.31-.46-.96-1.43-1.77-2.64v-5.56c-.37-.3-.8-.65-1.41-1.14-1.57.52-3.37,1.12-5.13,1.71-3.74-1.9-3.22-6.13-5.1-8.95-6.01-.94-11.95-1.87-18.06-2.82v24.53c-3.35,2.74-7.78,2.83-11.26,5.16-3.39,2.27-7.19,3.92-10.81,5.85-.38,1.14-.73,2.22-1.05,3.19.42,2.31.84,4.58,1.31,7.17-.22.61-.58,1.57-.95,2.59-2.03,1.25-4.24,2.6-6.66,4.09,3.95,2.48,8.39,3.38,11.76,6.41,3.48,3.13,5.08,7.2,7.02,11.43-.47.53-.89,1.02-1.43,1.63h-6.59c1.18,1.55,2.01,2.77,2.98,3.88.99,1.13,2.12,2.15,2.81,3.44.43.77.72,1.67,1.3,2.3,3.16,3.49,5.98,9.12,7.35,14.35.48,1.82,1.53,3.5,2.27,5.26.39.92.31,1.08-.95,2.97h-3.48c-.06.34-.19.66-.12.71,2.24,1.74,2.09,4.67,3.46,6.86,1.01,1.61.98,3.65,1.98,5.4.59,1.04.11,2.69.11,4.07-.69.69-1.37,1.37-2.06,2.06h-2.46c-.15.22-.42.43-.42.64-.04,1.24.03,2.48-.03,3.72-.3,6.4,1.85,12.03,5.45,17.19,1.06,1.52,2.41,2.85,3.47,4.37.72,1.04,1.18,2.26,1.88,3.66-.92.11-1.78.2-2.39.27-2.65-1.6-5.14-2.97-7.48-4.57-2.39-1.63-4.64-3.48-6.94-5.24-2.41-1.85-4.86-3.65-7.21-5.57-2.29-1.88-4.35-4.05-6.73-5.79-2.39-1.75-3.06-5.08-6.32-6.5.83,4.71,1.56,9.05,4.8,12.48-.36.84-.71,1.66-1.12,2.61h-1.54c-1.25-1.68-2.41-3.24-3.55-4.81-.69-.95-1.43-1.88-2.04-2.88-2.93-4.85-6.49-9.33-8.79-14.56-.56-1.28-1.12-2.56-2.03-4.63-.28-3.16-2-6.98-1.77-11.22.22-4.08.31-8.12,2.06-12.45-1.79,1.15-3.05,1.95-4.57,2.92-2.25-2.48-4.06-5.04-4.02-8.55.01-.83-.1-1.67.03-2.48.11-.67-1.57-1.12-.2-1.87.29-3.31,1.74-6.17,3.49-8.89,1.7-2.64,3.49-5.23,5.68-8.49v-2.73c-.18-.02-.46-.13-.56-.05-2.03,1.74-4.21,3.11-7.17,3.06-1.95-1.78-3.29-4.29-6.23-5.84-1.32-.37-2.82.44-4.26,1.38-2.6,1.72-5.17,3.5-7.75,5.26-1.09-.73-2.18-1.46-3.58-2.4h-3.53c-1.6-.81-2.85-2.19-4.78-1.57,1.9,4.76.23,9.8-5.04,10.63-.99.16-1.79.91-2.98.86-1.26-.06-2.66-.21-3.65-.6-2.44-.96-5.16-.68-7.47-1.95-7.21-.4-13.81-3.17-20.58-5.29-.97-.3-1.88.37-2.89-.42-.83-.65-2.4-.35-3.27-.97-1.13-.82-2.68-.26-3.33-.87-.97-.91-2.06-.44-2.97-.97-.99-.57-2.05-1.12-3.15-1.36-1.14-.25-2.27-.41-3.41-.73-1.98-.56-4.15-.18-6.28-.85-1.6-.51-3.32-.59-4.74-2.35-1.08,1.89-1.92,3.38-3.13,5.51-1.12.66-2.88,1.59-5.06.12-.48-.32-1.66.41-2.26.58-4.26-.8-8.41-1.08-12.38-2.59-.54,3.8-2.45,6.35-5.27,8.05-1.55.93-2.75,2.15-4.06,3.3-1.07.94-2.32,1.67-3.37,2.63-.43.39-.54,1.14-.83,1.71-1.99,3.98-1.77,8.23-1.58,12.37ZM239.13,155.26c.28.28.55.55.35.35,1.98,2.98,3.59,5.42,5.32,8.02.29-.16.69-.37,1.53-.83-2.84-1.94-2.88-5.82-6.37-6.71-.28-.28-.55-.55-.83-.83s-.55-.55-.83-.83v-1.14c-.86-.61-1.65-1.26-2.53-1.76-.42-.24-1.01-.18-1.92-.31q2.72,2.72,4.46,3.21c.28.28.55.55.83.83ZM235.82,113.89c-1.13.37-2.25.74-3.31,1.09,0,.62,0,1.01.09,1.47-.05-.05-.11-.11-.16-.16-.23.19-.45.38-.68.58l.26.26c.19-.23.38-.45.49-.75,1.08-.87,2.89-.75,3.22-2.56.05.05.11.11.16.16.23-.19.45-.38.68-.58-.09-.09-.17-.17-.26-.26-.19.23-.38.45-.49.75ZM310.26,168.58c.05-.05.11-.11.16-.16-.19-.23-.38-.45-.58-.68-.09.09-.17.17-.26.26.23.19.45.38.75.49-.27.4-.78.82-.75,1.21.09,1.45-.84,1.29-1.55,1.27-.35-.89-.68-1.71-.78-1.97.25-1.83.53-3.09.58-4.35.1-2.63.39-5.58,1.97-7.37,2.77-3.16,4.68-7.26,8.84-9.12.73-.32,1.32-.95,1.57-1.14v-2.54c-.82-1.06-1.39-1.79-1.97-2.54-1.29,1.6-2.97.49-3.78.81-4.08,2.97-6.54,6.64-8.96,10.33-.98,1.49-2.2,3.03-2.52,4.7-.66,3.38-.78,6.87-1.09,9.96.86,1.34,1.5,2.33,2.08,3.23h3.88c.88,1.52,2.12.62,3.43.82-.55-1.3.82-2.7-1.02-3.21ZM243.01,105.49c.17.11.33.22.5.33,1.31-1.69,2.63-3.38,4.05-5.21-.26-.57-.52-1.17-1.07-2.38-1.37,2.86-2.43,5.07-2.91,7.6-1.24.28-2.35.63-1.66,2.55.68-1.04,1.17-1.79,1.08-2.88ZM318.61,117.19c.15-2.78-2.45-2.78-3.48-3.82-1.35.38-2.27.64-3.45.97.83,1.42,1.52,2.61,2.29,3.93,1.66-.38,3.15-.73,5.14-1.13-.22.04-.43.09-.65.13.27.7.54,1.4.94,2.46-.41.26-1.06.69-1.68,1.1,1.68,2.05,3.17,3.88,4.72,5.78,1.19-.73,2.08-1.28,3.02-1.85-2.27-2.72-4.31-5.17-6.85-7.56ZM217.53,129.7c.05-.05.11-.11.16-.16-.19-.23-.38-.45-.58-.68-.09.09-.17.17-.26.26.23.19.45.38,1.35.43-.27.04-.55.07-.82.11,1.03,5.73,3.4,11.18,3.62,17,.54.54,1.03,1.03,1.63,1.63-.92,3.61,1.86,6.62,1.7,10.29.6.44,1.14.84,1.19.87.55,2.58.97,4.59,1.31,6.2.59-.29,1.21-.6,2.06-1.02-2.02-2.03-1.63-4.46-2.35-6.43-1.19-3.25-1.77-6.66-2.83-9.92-1.09-3.36-2.1-6.86-2.85-10.38-.61-2.84-1.75-5.57-3.33-8.2ZM395.53,241.39l.16-.16c-.19-.23-.38-.45-.58-.68-.09.09-.17.17-.26.26.23.19.45.38.75.49.19.61.2,1.47.62,1.77.91.66,2,1.12,3.07,1.52,2.86,1.06,5.76,2.04,8.64,3.06,1.18.5,2.42.42,3.78.88,4.37,1.47,8.65,2.97,12.8,5.08,3.26,1.66,7.03,2.29,10.51,3.54,3.6,1.28,7.08,2.85,10.68,4.16,3.88,1.42,7.78,2.61,11.94,3.41.39.43.84.94.92,1.03,2.56.46,4.74.54,6.68,1.28,2.22.84,4.35,1.71,6.79,1.63.53-.02,1.08.61,1.51.88,1.19-.73,2.19-1.34,3.11-1.91v-2.92c-3.38-.9-6.52-2.49-10.07-1.91-.1.02-.23-.1-.34-.16-2.71-1.27-5.58-1.89-8.53-2.39-2.23-.38-4.34-1.41-7.25-2.41-.83,0-2.49.1-4.13-.04-1-.08-2.06-.37-2.95-.83-1.5-.77-3.06-1.27-4.7-1.65-1.74-.4-3.5-.89-5.09-1.66-2.36-1.16-5-1.17-7.41-2.07-3.46-1.3-7-2.38-10.46-3.69-5.75-2.19-11.77-3.5-17.62-5.27,0-.79,0-1.47.07-2.11,3.08-.53,5.97.71,8.96,1.32v-8.28c-.8-1.7-2.14-1.25-3.32-1.39-1.25-.14-2.49-.47-3.67-.71-.63,2.87-1.25,5.75-2.04,9-.83.28-1.66.55-2.56.91ZM290.12,285.08c.59-.58,1.1-.85,1.14-1.17.39-3.04,1.23-6.04.88-9.17-.09-.81-.32-1.99.1-2.39,1.12-1.09.38-2.37.76-3.45.37-1.08.09-2.02.06-3.05-.05-1.66-.41-3.32.52-5.13.64-1.24,1-3.47-.6-4.93.27-.29.55-.59,1.05-1.13-1.63-.68-.51-2.12-.92-3.34-.45-1.32.27-3.04.5-4.78-.09-.09-.36-.39-.44-.47.23-.88.58-1.62.59-2.35.05-4.96.16-9.93-.01-14.88-.17-4.85.79-9.76-.74-14.56-.25-.79.06-1.86.36-2.71.61-1.71.67-3.35-.02-5.02-.14-.35-.36-.71-.38-1.08-.3-4.02-.67-8.04-.81-12.06-.14-3.82-.03-7.66-.03-11.08-2.86-1.78-5.71-1.38-8.5-1.41-1.93-.02-3.86,0-5.79,0h-28.96c-1.93,0-3.86.06-5.79-.02-1.87-.07-3.74-.38-5.61-.38-1.76,0-3.53.44-5.28.37-9.84-.41-19.61,1.45-29.45.86-.41-.02-1.05-.18-1.2.02-.95,1.23-2.26.63-3.41.82-1.28.21-2.53.75-3.8.78-5.67.12-11.38-.39-17.22,1.23-.25.25-.74.74-1.26,1.26-.58-.54-1.16-1.08-1.96-1.83-1.1.32-2.35,1.02-3.57.97-4.89-.2-9.71.57-14.56.84-1.25.07-2.52-.7-3.79-.74-3.7-.11-7.4-.04-11.5-.04.27,1.59.5,2.96.79,4.64,0,0-.45.29-.46.59-.1,3.7-.16,7.4-.16,11.1,0,1.03.05,1.98.57,3.07.57,1.19.42,3-.03,4.34-.98,2.94-.93,5.72.59,8.37.69,1.2.5,2.2.19,3.39-.3,1.14-.87,2.62-.42,3.45,1.07,1.97.67,3.95.69,5.92.01,1.83.49,3.74-.76,5.46-.86,1.19.94,2.32.1,3.91-.87,1.65.61,4-.91,5.78,1.53,2.38.41,5.46,2.09,7.87,2.21.53,4.44,1.25,6.73,1.56,3.78.5,7.57.93,11.31,1.7,1.14.23,2.25.56,3.38.82,1.26.29,2.55.49,3.79.85,1.47.42,2.94.88,4.35,1.49,1.45.63,2.96.87,4.48,1.2,1.97.43,3.85,1.27,5.92,1.99.02-.01.3-.27.24-.21,2.31.48,4.31,1.12,6.34,1.26,2.39.16,4.64,1.44,7.1.89,5.28,2.24,10.99,2.76,16.51,4.06,1.91.45,3.69,1.44,5.51,1.61,2.26.21,4.36.92,6.55,1.29,2.17.37,4.42.62,6.46,1.38,3.5,1.29,7.35,1.3,10.67,3.21.97.56,2.26.91,3.35.81,2.34-.22,4.57.32,6.66,1,1.72.56,3.35.67,5.07.73.53.02,1.14-.04,1.57.19,3.21,1.68,6.83,1.65,10.24,2.16,4.4.65,8.65,1.8,12.95,2.8,1.36.32,2.67.84,3.92,1.23,1.43-.84,2.84-1.11,4.26.16ZM295.35,182.33c.55,5.82-.22,11.76.73,17.77.83,5.25.29,10.73.14,16.1-.15,5.43.63,10.81.77,16.21.14,5.67-.47,11.35-.73,17.03-.04.96.31,2.1-.08,2.86-.55,1.06,1.42,1.29.44,2.43-.5.58-.33,1.79-.35,2.71-.04,2.21.13,4.42-.05,6.61-.17,2.13.36,4.21-.42,6.42-.69,1.96-.27,4.3-.38,6.47-.03.51-.12,1.06-.35,1.5-.87,1.68-.41,3.34-.35,5.04.55,0,.9.11,1.09-.02,3.78-2.45,7.4-5.18,11.72-6.7.12-.04.2-.19.29-.29,2.67-2.8,6.13-4.5,9.22-6.71,1.79-1.28,3.54-3.1,5.55-3.5,2.62-.52,4.42-2.93,7.21-2.66,1.71-2.26,4.54-2.35,6.82-3.52.23-.12.4-.38.87-.85.49-.82-.1-2.8,1.84-3.05,1.58.34,3.09.67,4.18.91,4.75-3.63,9.95-5.31,15.11-8.11.36-3.03.76-6.39,1.1-9.3-.22-1.23-.47-2.1-.51-2.98-.07-1.65.07-3.31-.05-4.96-.11-1.58.22-3.12-.47-4.76-.59-1.41.21-3.43-.45-4.77-1.05-2.14-.47-4.23-.72-6.33-.25-2.09-.64-4.18-.78-6.28-.07-1.02.38-2.08.38-3.12,0-.94-.46-1.89-.38-2.81.13-1.41.56-2.79.85-4.1-1.35-1.59-3.31-1.67-4.88-2.5-4.25-2.27-8.93-3.24-13.45-4.47-5.21-1.41-10.43-2.92-15.47-4.7-5.24-1.86-10.59-3.1-15.9-4.58-2.85-.8-5.88-.78-8.6-2.22-1.17-.62-2.64-.54-3.95,1.2ZM356.63,327.1c.3-2.59-.04-4.95-1.14-7.11-.82-1.61-2.17-2.97-2.85-4.61-2.31-5.57-6.21-9.92-10.66-13.73-1.52-1.3-3.1-2.25-3.53-4.48,2.53-2.54,6.03-1.89,9.29-2.26-.2-.95-.18-1.68-.51-2.21-2.4-3.94-5.51-7.02-10.09-8.4-2.96-.89-5.99-1.71-8.2-4.08-3.15,1.41-6.29,2.81-9,4.02.15,2.09.27,3.86.37,5.34-1.53,1.86-3.2,3.23-3.96,4.99-.82,1.88-2.64,2.69-3.53,4.33-2.16,3.93-3.08,8.18-2.4,12.6.2,1.31.7,3.13,2.64,3.49,1.6-1.52,3.16-2.99,4.76-4.51.71.7,1.18,1.16,1.54,1.52.43,3.69-.43,6.93-2.18,9.78-.38,2.09-.81,4.01-1.05,5.96-.43,3.5.98,6.73,1.56,10.08.67,3.92,3.05,7.03,4.27,10.66,1.62.38,1.91,1.81,2.43,3.06.56,1.37,2.53,1.72,2.57,3.51,0,.09.99.16,2.17.35-2.88-3.98-.59-7.29-.42-10.68h2.67c.75.72,1.45,1.39,1.99,1.9.17.83.18,1.54.47,2.1.48.92,1.21,1.7,1.71,2.6,1.66,2.97,6.94,9.24,9.33,10.95.85.61,1.75,1.13,2.58,1.77,3.79,2.91,7.56,5.85,11.34,8.78-.94-2.75-.48-5.91-2.59-7.58-2.11-6.57-1.66-13.11-2.81-19.77h5.58c-.95-2.75-1.83-5.26-2.83-8.16-1.2-1.49-2.6-3.48-4.27-5.2-1.64-1.68-3.57-3.07-5.51-4.71.55-1.05.97-1.84,1.55-2.94,2.93.88,5.72,1.72,8.69,2.61ZM402.21,214.83c-2.72,1.94-.67,4.8-2.47,6.55.32,2.2.64,4.4.94,6.54,2.51.54,4.85,1.04,7.63,1.63-1.23-1.8-1.32-3.45-.35-5.17.2-.36-.38-1.15-.63-1.82.06-.06.37-.23.43-.46.21-.74.34-1.5.54-2.48,2.4,3.46.85,7.22,1.56,10.84,3.77.4,7.35,2.67,11.16,1.52.34-1.5.63-2.76.96-4.18-1.52-2.59-.31-5.61-.75-8.44.64-.33.79-1.21,1.7-.92,0,2.64.21,5.27-.06,7.84-.27,2.63,1.04,4.91,1.03,7.31,4.41,2.34,9.29,2.11,13.79,3.25.72-3.7,1.43-7.41,2.15-11.12.13.02.26.03.39.05v11.38c3.53,1.24,7.03,2.28,10.86,2.51,0-2.43-.11-4.5.03-6.55.12-1.83.75-3.63.73-5.45-.02-1.94.66-3.54,1.55-5.17-.2,3.33.46,6.58-.49,9.98-.67,2.38.25,5.2.46,7.82,6.62,1.14,12.86,2.21,19.06,3.27.24-.21.43-.39.52-.47.6.3,1.16.57,1.72.85,1.3-3.55.62-7.21,1.46-10.44.97-3.72.03-7.28.7-10.63-.83-.88-1.5-1.58-2.15-2.28-2.48.4-4.63-1.12-7.15-.9-2.75.24-5.67.73-8.34-.72-4.07.46-8.04-.62-12.07-.82-1.51-.07-3.07-.22-4.54.05-1.34.25-2.59-1.35-3.88-.06-2.37-1.48-5.01-.74-7.52-.75-1.02,0-1.94-1.3-2.99-.2-1.09-1.29-2.55-.57-3.85-.68-1.23-.11-2.48-.02-3.72-.02-.14,0-.33.06-.41,0-1.64-1.49-3.79-.21-5.42-.91-1.98-.85-3.92-.69-5.9-.73-2.34-.04-4.69-.01-6.68-.01ZM163.03,267.75c-.18,0,.25-.08.61.05.48.17.91.48,1.34.76.49.32,4.16,1.68,4.67,1.7,2.94.11,5.93-.43,8.76.83,4.73-.47,8.86,2.01,13.34,2.78,3.65.63,6.76,3.16,10.68,3.22,1.32.02,2.61.98,3.95,1.37,1.37.39,2.82.5,4.17.93,1.2.39,2.27,1.33,3.48,1.55,1.23.22,2.56,1.01,3.85.07,3.94,1.66,8.25,2.06,12.25,3.4,3.53,1.18,7.22,1.69,10.7,3.1,1.96.8,4.24.9,6.32,1.72,2.02.8,4.21,1.17,6.33,1.7,1.39.34,2.77.69,4.18.96,2.53.47,5.19.67,7.55,1.69.9.39,1.7.61,2.62.68,2.69.19,5.28-.13,7.97-1.37.48-.98,1.05-2.12,1.62-3.28-.97-1.84-1.87-3.54-2.79-5.28-1.25,0-2.43.28-3.4-.05-2.75-.95-5.54-1.5-8.43-1.62-.48-.02-.94-.4-1.44-.5-2.52-.53-4.98-1.43-7.48-1.86-3.75-.64-7.53-1.18-11.31-1.65-3.14-.4-6.05-1.53-9.08-2.19-3.74-.82-7.46-1.9-11.18-2.92-1.78-.49-3.69-.44-5.33-1.11-1.59-.65-3.15-1.06-4.79-1.47-1.85-.46-3.9-.08-5.43-.8-3.7-1.74-7.76-1.82-11.53-3.12-2.68-.92-5.57-1.5-8.4-1.65-3.59-.19-6.83-1.79-10.4-2.02-1.55-.1-2.97-1.45-4.55-1.9-1.74-.49-3.65-.32-5.33-1.14-1.87-.91-3.81-.98-6.13-.64-.59,1.22-1.26,2.59-1.81,3.71,1.46,1.44,2.63,2.59,4.41,4.35ZM207.55,123.69c.41-.69.87-1.47,1.4-2.35.57,0,1.24,0,1.92,0,2.56.03,4.96-.28,6.96-2.21.67-.65,1.86-.78,2.82-1.1,1.09-.36,2.37-.41,3.28-1.03,4.23-2.86,8.62-5.54,12.36-9.04,2.48-2.32,3.97-5.4,5.33-8.51.35-.81.75-1.6,1.3-2.78-1.11-.08-1.77-.03-2.38-.19-.74-.18-1.62-.96-2.11-.74-3.28,1.46-6.7.38-10.01.78-1.93.24-3.84.66-5.73,1.12-1.74.43-3.31,1.36-5.23,1.4-1.44.03-2.84.85-4.34.75-1.88-.12-3.48,1.39-5.45.87-.46-.12-1.03.11-1.52.26-2.51.78-5,1.51-7.7,1.39-3.02-.13-6.06-.06-9.09-.01-.8.01-1.97.66-2.31.33-1.07-1.02-1.73.61-2.33.23-2.17-1.4-4.01-.29-5.86.52,2.64,5.54,5.99,10.22,11.46,13.73,5.27,3.38,10.7,5.51,17.22,6.55ZM344.88,166.3c.09-.87-.05-1.63.26-2.09,2.18-3.25.18-5.91-1.5-8.21-2.83-3.88-6.31-7.28-9.22-11.11-1.47-1.94-3.3-3.55-4.69-5.49-2.41-3.39-4.99-6.59-7.93-9.52-.63-.63-.92-1.6-1.56-2.23-2.39-2.36-4.37-5.17-6.97-6.54-2.3-4.63-6.24-7.21-9.11-10.5-2.87-.12-5.35.24-7.25,2.37,1.81,3.69,4.77,6.22,6.86,9.4,2.03,3.08,5.14,5.51,7.46,8.52.75.97,1.77,1.74,2.6,2.65.81.88,1.47,1.9,2.31,2.75.8.8,1.76,1.43,2.62,2.17.52.45,1.33.92,1.4,1.46.23,1.77,1.55,2.68,2.59,3.83,1.18,1.31,2.33,2.64,3.58,3.89,2.74,2.75,4.91,5.96,7.4,8.88,3.11,3.65,6.39,7.33,11.15,9.77ZM475.26,246.63c-2.39-.48-4.19-1.15-5.97-1.11-3.11.07-5.98-.82-8.79-1.79-2.36-.82-4.6-.87-7.2-.59.4,1.81.89,3.31,1.04,4.85.17,1.77.04,3.56.04,5.58-.67.33-1.41.7-2.32,1.15-.59-4.68.9-9.28-1.84-13.08-1.69-.41-3.17-.94-4.7-1.11-1.72-.19-3.48-.04-5.45-.04,1.26,4.28,1.66,8.17.3,12.06,2.19,1.14,4.35,2.27,7,2.1.91-.06,1.85.8,2.82,1.07,1,.27,2.07.3,3.1.5,1.13.23,2.25.53,3.37.82.99.26,2.34.25,2.88.89.84,1.01,1.66.11,2.5.4,2.19.76,4.59.92,7.43,1.41.19.29.62.99.85,1.34h3.71c.41-4.88.82-9.66,1.22-14.44ZM408.95,241.78c.58.59.9,1.17,1.14,1.14,1.99-.25,3.46.84,5.12,1.65,2.73,1.34,5.77,1.92,8.55,3.28,1.46.72,3.34.52,4.97.94,1.6.41,3.11,1.13,4.69,1.61,1.43.43,2.81,1.71,4.2.57.37-1.87.84-3.51.99-5.19.17-1.9.04-3.83.04-5.79-2.07-1.71-4.62-1.54-7.01-2.14-2.35-.6-4.69-.75-7.07-1.5,0,2.72-.04,5.06.02,7.39.03,1.15-.22,2.02-1.31,2.35-1.58-2.69-1.11-5.67-1.19-8.44-.71-1.09-1.35-2.06-2-3.05-3.35.58-6.25-.81-9.28-1.55-2.59,2.59.18,6.2-1.86,8.75ZM336.68,272.46v-9.03c-11.37,4.31-21.32,10.44-30.61,17.88l4.53,4.53c3.73-1.5,6.85-4.02,10.61-5.41,3.33-1.23,6.83-2.19,9.75-4.37,2.71-.06,4.19-2.06,5.73-3.59ZM224.01,165.82c-.34-1.11-.52-2.13-.95-3.02-1.65-3.4-2.26-7.11-2.89-10.75-.61-3.47-2.46-6.75-1.76-10.45.03-.15-.46-.35-.53-.59-.94-2.92-2.03-5.8-2.67-8.78-.35-1.62-.79-3.02-1.93-4.07-1.09.35-2.12.67-3.05.97,0,.97-.34,2.13.07,2.53.98.97.52,2.03.72,3.05.2,1,.82,1.99.76,2.96-.25,4.3.37,8.46,1.72,12.51,1.06,3.18.68,6.72,2.47,9.7-.28,2.62,2.08,5.08.04,7.82,3.02-.71,5.64-1.33,8.02-1.89ZM321.94,177.85c-6.59-1.56-12.71-3.78-19.19-4.39-1.79-1.39-3.89-.61-5.85-.84-1.16-.14-2.26.18-3.49-.59-1.21-.76-2.9-.5-3.82,1.22.28.66.67,1.33.84,2.07.17.74.13,1.53.16,2.11,3.05.72,6-.79,8.63,1,3.85-.06,7.23,1.91,10.94,2.56,4.14.72,8.18,2.03,12.29,3.09,1.39-2.1-.79-3.98-.51-6.22ZM109.11,213.04c.39-4.09-1.84-7.96-1.71-12.08-.58-.54-1.51-1.01-1.51-1.47.06-3.88-3.21-3.94-5.5-4.4-3.04-.6-6.29.35-9.49-.71,1.57,2.11,3.33,3.87,4.97,5.74,1.75,1.99,3.39,4.08,5.09,6.12,1.71,2.05,4.21,3.42,5.15,5.83,1,.32,1.84.6,3,.97ZM180.94,277.7c1.28,1.36,2.22,2.36,2.96,3.14,1.53.38,2.82.6,4.04,1.02,1.2.41,2.34,1.01,3.5,1.53l3.94.39c1.37-.83,2.25,1.01,3.69.61,1.27-.35,2.72-.07,4.05-.07.44-.44.83-.83,1.11-1.11v-2.8c-.51-.45-.91-.8-1.42-1.25-.49.33-.91.62-1.24.84-6.31-2.4-12.79-4.15-18.96-4.85-.52.12-1.04.24-1.55.35.54.53.73.73.93.93-.32.39-.64.78-1.04,1.26ZM399,212.01c.95-.17,1.9-.53,2.83-.46,2.92.22,5.79-.17,8.79.63,3.82,1.02,7.96.85,11.95,1.2.84.43,1.71.88,2.58,1.33.02-.15.04-.3.07-.46.76.07,1.52.14,2.55.23.78-.87,2.05-.63,3.35-.16.48.17.96.47,1.44.49,2.8.1,5.59-.19,8.36.78,1.23.43,2.73.05,4.11.08,1.41.03,2.88-.32,4.14.67,1.25-1.89,2.24.53,3.53.23,1.44-.34,3.01-.09,4.53-.07,2.26.03,4.55-.3,6.7.8.28.14.75-.08,1.74-.21-.88-.65-1.39-1.02-2.03-1.49-2.02,0-4.32.4-6.38-.11-2.4-.59-4.78-1.15-7.22-1.46-2.63-.33-5.3-.92-7.92-.77-6.27.37-12.43-.98-18.67-.92-.48,0-1.02-.24-1.42-.52-1.29-.88-2.22.1-3.05.47-6.34-1.66-12.49-3.2-19.03-2.2-.29.34-.69.72-.98,1.17-.11.18.03.51.06.77ZM229.36,154.2c-.75,4.33,2.73,7.13,2.41,10.65,1.28,1.07,2.26-.71,3.28.01,1.43,1.01,2.23-1.1,3.69-.58,1.07.38,2.39.08,3.67.08-1.33-1.79-2.17-3.96-3.72-4.77-2.06-1.08-3.04-3.07-4.81-4.12-1.43-.4-2.8-.79-4.52-1.27ZM208.84,93.45c-2.31-2.97-2.18-6.36-3.27-9.37-1.11-3.06-2.26-6.11-3.52-9.52-.82.75-1.38,1.26-1.93,1.76.89,3.24,1.3,6.55,2.71,9.37,1.48,2.96,1.28,6.55,3.42,9.08.89-.45,1.57-.8,2.6-1.33ZM330.26,135.13c-.34,2.22,1.7,2.22,2.16,3.11.71,1.39,1.81,2.28,2.76,3.35.9,1.02,1.91,1.95,2.9,2.96.29-.61.55-1.18.74-1.57.85-.19,1.54-.35,2.38-.54-1.06-1.61-1.75-3.06-2.79-4.16-1.45-1.53-2.7-3.35-4.84-4.14-.32-.12-.42-.82-.66-1.23-.03-.06-.26,0-.68,0-.57.64-1.28,1.44-1.96,2.21ZM221.17,90.89c-1.32.24-2.44.55-3.57.64-1.33.1-2.67.02-4.04.02-.9,1.7-1.7,3.21-2.85,5.37,4.81-1.77,9.5-1.29,13.34-3.63,1.55-.09,2.96-.18,4.53-.27-.27-.76-.39-1.11-.45-1.3-2.47-.61-5,.63-6.96-.83ZM360.85,214.42c1.53.78,2.77,1.41,3.88,1.97h4.21v-4.3c-1.73-.61-3.4-1.19-4.61-1.62-1.49,1.01-2.45,1.66-3.48,2.36v1.59ZM73.03,157.59c-1.2-1.52-2.17-2.76-3.16-4.02-1.9,1.86-3.67,3.32-3.81,5.87.81.82,1.63,1.65,2.5,2.53.88-.59,1.82-1.08,2.55-1.78.69-.66,1.16-1.54,1.92-2.6ZM198.95,94.89c-1.3-.14-2.48.28-3.75.69-1.25.4-2.35.94-3.47,1.54-.98.53-2.75-.26-2.83,1.76,4.4.49,8.69-.11,13-1.04-1.02-1.01-1.98-1.98-2.95-2.94ZM363.01,223.1c1,0,2.12-.11,3.2.03.93.12,1.82.52,3.03.89-.5-1.66-.86-2.87-1.22-4.08-2.04-.37-4.06-.74-6.14-1.12-.25,1.65-.62,2.99,1.13,4.27ZM346.55,154.23c.69.16,2,.47,3.4.79.36-.46.75-.96,1.02-1.31-.68-1.16-1.11-2.13-1.76-2.92-.74-.9-1.67-1.63-2.66-2.56-.45.93-.72,1.49-1.06,2.18h-2.12c1.05,1.26,1.93,2.32,3.17,3.81ZM111.97,215.86c1.7,2.15,2.45,4.44,5.02,5.96.3-.66.58-1.3,1.14-2.55-.07-.56.81-2.34-.87-3.41h-5.29ZM65.03,156.02c.94-1.39,1.87-2.76,2.77-4.1-.51-.93-.97-1.76-1.36-2.46-1.5,1.57-2.84,2.98-4.3,4.51.18.39.56,1.18.97,2.05h1.93ZM78.41,164.59c-1.84,1.83-3.63,3.63-5.33,5.33.21.28.54.71.7.91,3.56.95,3.78-3.22,6.37-3.51-.68-1.07-1.31-2.05-1.74-2.73ZM74.71,159.43c-1.37,1.5-2.79,3.06-4.38,4.82v1.77c1.13-.02,2.03.13,2.94-.86.62-.67,1.79-.84,2.53-1.15.36-.66.65-1.22.9-1.68-.62-.9-1.28-1.85-1.99-2.9ZM393.33,231.79c-1.52-.48-2.71-1.03-3.95-1.19-1.45-.19-2.94-.04-5.03-.04,1.93,1.4.73,4.67,3.65,4.15,1.89-1.03,3.52-1.92,5.34-2.91ZM324.74,129.38c.83,1.03,1.81,2.24,2.89,3.58,1.67.4,2.33-1.19,3.4-2.18-1.38-1.3-2.74-2.58-3.96-3.73-.86.86-1.53,1.53-2.33,2.33ZM377.81,216.48q-.27,1.81.87,3.95c1.23.36,2.31.68,3.69,1.09,0-.73.16-1.32-.03-1.74-.53-1.17-1.22-2.27-1.79-3.29h-2.74ZM55.81,156.46c.45,1.1.84,2.04,1.17,2.83h3.05c.45-.49.8-.88,1.2-1.32-.48-.95-.93-1.84-1.5-2.95-1.24.46-2.44.9-3.93,1.45ZM48.93,138.76q2.83-.43,3.01-2.15c-1.05-1.05-1.75-1.75-2.48-2.47-.6.37-1.47.91-2.36,1.46.62,1.07,1.18,2.03,1.84,3.16ZM88.51,213.02c-1.17,1.24-2.14,2.28-3.06,3.25,2.75,1.15,3.92,1.35,4.36.91.35-1.15.63-2.07.97-3.21-.79-.33-1.61-.67-2.27-.95ZM312.11,110c-.48-.95-.92-1.85-1.24-2.5-1.01-.46-1.8-.82-2.77-1.26-.61,2.49.02,4.33,1.79,5.94.72-.7,1.45-1.42,2.23-2.18ZM84.5,212.06c-.18-.16-.35-.31-.53-.47-.19.14-.37.38-.58.4-.28.03-.57-.14-.87-.18-1.01-.12-2.02-.22-2.88-.31-.37,1.24-.64,2.17-.92,3.12.68.95,1.81,1.56,2.72.87,1.2-.9,2.05-2.27,3.05-3.44ZM340,148.21c.23.23.46.45.69.68,1.15-1.55,3.91-.39,4.52-3.11-.89-.78-1.76-1.55-2.83-2.48-.89,1.84-1.64,3.37-2.39,4.91ZM84.99,210.23c.07-1.35.12-2.36.17-3.35-1.05-.41-1.96-.83-2.9-1.12-.33-.1-.74.07-1.18.13v2.26c1.13.6,2.34,1.25,3.91,2.09ZM62.9,160.73c-.93.47-1.81.91-2.71,1.36,1.13,1.17,2.07,2.14,2.92,3.02.8-.44,1.53-.85,2.6-1.44-1-1.05-1.8-1.89-2.8-2.94ZM466.13,216.61c0,.23-.02.46-.03.7,1.47,0,2.99.23,4.4-.06,1.73-.35,3,1.09,4.58.84.37-.06.63-.75,1.2-1.47h-10.15ZM377.54,223.7v2.74c1.75-.25,3.65.73,4.72-1.36-.68-.34-1.36-.69-2.07-1.04-.2.17-.48.42-.63.55-.66-.29-1.22-.54-2.02-.89ZM384.67,225.44c.19.94.26,1.32.43,2.15,2.47-1.54,4.65,1.4,7.45.04-1.83-.71-3.36-1.31-4.89-1.9-.33.24-.75.53-1.12.79-.58-.34-1-.58-1.87-1.08ZM87.84,207.58c-.59,1.16-.24,2.07.73,2.82.42.32.43.31,2.16-.28-.19-.25-.38-.51-.55-.74.34-.34.53-.53.73-.72-.8-1.01-1.67-1.8-3.07-1.07ZM129.27,223.19c.55-.11.92-.18,1.21-.23v-3.86h-2.58c.51,1.52.93,2.8,1.37,4.1ZM64.25,202.75c-1.3.63-2.23,1.08-3.41,1.66,1.24,1,2.11,1.7,3.41,2.74v-4.4ZM483.34,218.57q-1.57-1.24-4.08-.88c1.32,2.73,1.61,2.79,4.08.88ZM371.55,221.49c.12,1.14.22,2.14.35,3.13,0,.06.22.09.12.05,1.81.29,2.71-.39,2.99-2.21-.58-.07-1.09-.08-1.56-.21-.55-.16-1.07-.43-1.9-.77ZM125.58,214.61c-1.08-1.14-1.73-1.81-2.55-2.68-.69.99-1.17,1.68-1.87,2.68h4.42ZM75.74,209.99c-.94.6-1.78,1.33-2.3,2.36.25.39.39.61.55.86,1.55-.02,1.86-1.44,2.88-2.1-.45-.45-.64-.64-1.13-1.13ZM77.69,205.12h-2.34v2.31c.9-.08,1.63-.15,2.34-.21v-2.1ZM479.35,243.38c-1.05.33-2.54.75-1.25,2.23.45-.8.85-1.51,1.25-2.23ZM92.79,209.11c.34.63.63,1.17,1.32,2.44v-2.44h-1.32ZM230.85,150.5v.41h2.48v-.41h-2.48ZM137.44,216.33c.24-.02.47-.03.71-.05l-.3-1.38c-.14.02-.27.04-.41.06v1.37ZM66.78,166.17c-.24.02-.47.03-.71.05.1.46.2.92.3,1.38.14-.02.27-.04.41-.06v-1.37ZM223.4,120.72v.41h1.66v-.41h-1.66ZM227.26,118.85h-.28v.83h.28v-.83Z"/>
  <path class="cls-1" d="M182.7,304c-.34.59-.57,1.32-1.06,1.72-.57.46-1.38.62-2.59,1.12-.14-.42-.37-1.1-.6-1.79-.12.15-.23.3-.35.45-.3-1.66-.61-3.32-1.01-5.49.44-.91,1.1-2.28,1.79-3.72,4.22-2.76,8.56-5.6,13.2-8.64.22.15.74.51,1.37.95v2.82c1.35,2.59,2.35,4.53,3.4,6.54-1.25,1.89-2.52,3.82-4.18,6.34.15,1.54.37,3.75.62,6.33,0,0-.31.43-.59.83,2.25,5.37,3.75,10.91,5.63,16.4-.24.49-.58,1.17-.94,1.91h-1.67c-1.92-3.46-3.89-7.01-5.9-10.63-2.35,1.87-.96,6.05-4.45,7.39-1.2.09-2.08-.28-2.58-1.76-1.26-3.68-2.11-7.41-1.57-11.29.31-2.27.84-4.54,1.85-6.65.22-.46.47-.92.56-1.41.07-.35-.08-.75-.14-1.13-.27-.1-.53-.19-.8-.29ZM188.46,298.6c.56,1.95-.25,3.33-1.04,4.71-3.07,5.38-4.38,11.11-3.04,16.84.13.51.26,1.03.5,1.96,1.26-3.22,2.23-5.71,3.49-8.95.31-.34,1.2-1.32,2.05-2.26-1.73-2.4-.62-4.89-.97-6.91,1.29-2.15,2.4-4.02,3.58-5.98-1.03-1.93-1.99-3.73-2.81-5.26-2,1.13-3.75,2.22-5.6,3.13-2.1,1.03-3.3,2.7-3.83,3.95.34.99.51,1.49.58,1.72,2.01-1.55,3.77-2.91,5.56-4.3.65.58,1.05.93,1.52,1.35Z"/>
  <path class="cls-1" d="M61.13,141.19c-.28-.28-.55-.55-.83-.83.28.28.55.55.83.83Z"/>
  <path class="cls-1" d="M310.33,168.5c1.77.6.4,2,.94,3.3-1.31-.2-2.55.7-3.43-.82.89.02,1.82.17,1.73-1.27-.03-.38.49-.8.75-1.21Z"/>
  <path class="cls-1" d="M137.44,216.33v-1.37c.14-.02.27-.04.41-.06l.3,1.38c-.24.02-.47.03-.71.05Z"/>
  <path class="cls-1" d="M395.53,241.39c-.23-.19-.45-.38-.68-.58.09-.09.17-.17.26-.26l.58.68-.16.16Z"/>
  <path class="cls-1" d="M238.3,154.43c.28.28.55.55.83.83-.28-.28-.55-.55-.83-.83Z"/>
  <path class="cls-1" d="M239.96,156.09c-.28-.28-.55-.55-.83-.83.28.28.55.55.83.83Z"/>
  <path class="cls-1" d="M310.26,168.58c-.23-.19-.45-.38-.68-.58.09-.09.17-.17.26-.26l.58.68c-.05.05-.11.11-.16.16Z"/>
  <path class="cls-1" d="M158.84,243.78h-6.99c-.33-.3-.72-.66-1.33-1.22.37-1.88-.64-3.97.77-6.05.51-.75-.02-2.16.1-3.24.26-2.23-.8-4.6.78-6.7.2-.26.19-.91,0-1.2-1.7-2.66.08-5.77-.93-8.29-1.1-2.72-.54-5.33-.62-7.97-.05-1.78,1.11-3.53.75-5.43,1.7-1.43.39-3.37.96-5.11,1.12-.23,2.36-.49,3.76-.78,1.28.42,2.84.94,4.49,1.48.7-.97,1.35-1.86,2.22-3.06,1.58,2.01,3.88,2.21,5.82,3.17.63,1.61-.67,3.55.87,5.01-1.76,1.58.52,3.03.17,4.66-.34,1.58-.07,3.29-.07,4.94,0,1.79-.05,3.58.03,5.37.03.75.41,1.49.52,2.25.14.91.57,2.11.17,2.71-.8,1.18-.85,1.92-.18,3.23.4.78-.42,2.14-.49,3.25-.03.4.54.84.64.98-.55,2.96-1.05,5.63-1.53,8.21-1,1.04-1.95,2.03-3.04,3.16-1.05-.33-2.16-.68-3.45-1.09-.91.47-1.93.99-3.41,1.75ZM158.82,238.8c0-1.94-.6-3.95.14-5.14,1.13-1.84,0-3.81.96-5.41,1.09-1.82.48-3.72.51-5.57.11-6.44.04-12.88.04-19.45-1.63-.64-3.05-1.19-4.58-1.79-1.37,4.13-2.07,8.19-2.14,12.48-.1,6.13,1.54,12.14.93,18.27-.09.96.39,2.27-.09,2.83-1.53,1.79-.35,3.59-.92,6.03,2.16-.95,3.66-1.61,5.13-2.26ZM163.13,226.48c-.41,1.81-.73,3.26-1.05,4.67h4.89v-4.67h-3.83ZM166.27,234.89h-3.49c-.94.73-1.7,1.31-2.66,2.06.51,1.01.95,1.89,1.28,2.56,1.86-.59,3.41-1.08,4.88-1.55v-3.08ZM166.91,217.72c-1.26.77-2.37,1.18-3.07,1.95-.5.55-.45,1.59-.51,1.81.75.92,1.31,1.61,1.79,2.19.72-.38,1.37-.72,1.79-.94v-5.01ZM167.19,214.48c-.49-1.36-.93-2.61-1.49-4.19-.81.67-1.38,1.16-1.77,1.48v4.08c1.23-.52,2.23-.94,3.27-1.38ZM164.89,207.38h.28v-.83h-.28v.83Z"/>
  <path class="cls-1" d="M225.06,259.06c-1.1,1.6-2.49,1.56-4,1-.48-.18-.97-.57-1.42-.52-3.41.39-6.33-1.36-9.49-2.05-5.03-1.11-9.82-3.03-14.94-3.95-2.82-.51-5.85-.75-8.59-2.12-1.09-.54-2.68-.09-4.2-.09-.48-.62-.98-1.26-1.39-1.8-2.66.21-5-.01-7.25-1.12v-1.61c1.46-.64,2.18-1.87,2.43-3.42.12-.77.44-1.66.46-2.24.09-3.46,2.34-6.42,2.09-9.95-.08-1.1.34-2.32.82-3.35.39-.82,1.21-1.44,2.1-2.44,1.6.38,3.62.37,5.01,1.31,1.73,1.17,3.66,1.2,5.45,1.86,1.8.67,3.82.75,5.72,1.15,2.4.51,4.95.72,7.12,1.74,2.36,1.12,4.89.38,7.26,1.44,1.84.83,4.14.58,6.21.98.85.16,1.61.74,2.52,1.19-.09.61.02,1.41-.32,1.86-.78,1.03-.73,1.85-.01,2.87.73,1.04.28,2.01-.75,3.04,1.42,3.02,2.88,6.13,4.35,9.23.22.46.76.87.78,1.31.09,1.91.04,3.84.04,5.66ZM194.42,231.99c0,1.22.37,2.41-.07,3-1.5,2.02-1.11,4.43-.59,6.24.71,2.43.51,4.75.62,7.12.02.57-.41,1.15-.65,1.76,2.01,1.73,4.87.88,7.24,2.14,2.18,1.16,4.79,1.53,7.53,2.34,0-2.85.07-5.56-.04-8.26-.03-.86-1-1.99-.7-2.49,1.24-2.05.5-4.2.79-6.31-.85-.96-1.52-2.43-2.54-2.74-3.67-1.12-7.46-1.84-11.58-2.79ZM191.86,249.7c.45-5.38-1.31-10.13-.77-15.02.15-1.33.02-2.69.02-4.18-3.01.22-5.66-.06-8.16-1.66-.86,2-1.62,3.75-2.54,5.89.33,3.87-2.88,7.85-1.44,12.28,4.27.89,8.45,1.77,12.9,2.7ZM211.79,254.96c1.57,1.14,3.23,1.23,4.98,1.28,1.61.05,3.22.51,5.39.9-1.79-5.47-4.37-10.08-5.25-15.39.16-.25.45-.68.7-1.06-.37-1.15-.73-2.23-1.06-3.26-1.38-.68-2.75-1.35-4.12-2.03-.57.5-1.33.91-1.37,1.26-.72,6.33,1.19,12.29.74,18.3Z"/>
  <path class="cls-1" d="M268.13,241.84c-.1-1.66.02-3.19-.74-4.74-.42-.86-.69-2.07-.26-3.43.41-1.3.56-2.53,1.69-3.45.24-.2.21-.72.33-1.17,1.39-.49,2.83-1,4.5-1.59,2.85.74,3.81,3.55,5.23,6.3,0,1.17.05,2.67-.01,4.18-.09,2.1-.94,3.55-3.07,4.47-4.03,1.72-3.97,1.86-7.66-.56ZM276.35,233.75c-.94-1.38-1.58-2.31-2.22-3.25-2.72-.09-3.34,2.62-5.16,3.61v1.63c1.3,1.67,2.58,3.29,3.91,4.99,1.33-.8,2.43-1.45,3.47-2.08v-4.9Z"/>
  <path class="cls-1" d="M268.96,262.8c.05-1.32-.49-3.79,1.26-5.83,1.75-1.92,4.08-1.6,6.26-1.6.93,1.02,1.84,2.02,3.13,3.43v6.3c-1.31,1.06-2.92,2.36-4.43,3.58-2.69-.86-5.29-1.49-6.21-5.88ZM271.56,259.79c-.15.46-.23.85-.4,1.19-.22.45-.5.87-.69,1.21,1.12,1.15,2.07,2.14,2.85,2.94h3.06c.64-1.22,1.24-2.35,1.95-3.7-1.24-1.02-.8-3.09-2.75-3.59-1.25.61-2.52,1.22-4.02,1.94Z"/>
  <path class="cls-1" d="M183.13,200.03c1.37-1.29,3.01-1.94,4.98-1.74,1.74,1.4,3.26,2.99,3.97,5.7-.81,1.27-1.77,2.78-2.68,4.21-3.02-.04-5.9.59-8.09-1.96,1.53-1.75.86-4.18,1.82-6.21ZM188.44,203.75c-.7-.58-1.45-1.21-2.22-1.85-.46,1.21.08,2.18,1.2,3.01.34-.39.7-.8,1.02-1.16Z"/>
  <path class="cls-1" d="M268.93,211.7v-3.9c.39-.38.78-.77,1.21-1.2h6.11c.87,1.28,1.88,2.77,3.02,4.45-1.1,1.7-2.08,3.22-2.98,4.61h-4.55c-.87-1.22-1.78-2.5-2.81-3.95ZM273.74,208.91c-1.24.9-2.01,1.84-1.29,3.18.48.89,1.39,1.39,2.42,1.06,1.38-.44,1.75-1.54,1.49-2.91-.78-.4-1.58-.8-2.62-1.33Z"/>
  <path class="cls-1" d="M340.76,245.93c-1.9,3.39-5.63,3.6-9.04,4.56-1.93-1.15-2.08-3.2-2.74-5.23-.62.32-1.18.6-1.74.89-.07-.1-.32-.3-.34-.52-.21-3.64,1.32-7.12.85-10.81-.23-1.76-.14-3.58-.02-5.36.19-2.78.06-5.72.97-8.27.59-1.64.59-3.13.62-4.67.1-5.2.04-10.39.04-15.65,3.65,0,7.05,0,10.46.02.2,0,.39.36.48.46.89-.26,1.72-.5,2.68-.78.46,1.04,1.22,1.95,1.21,2.86-.03,1.69.42,3.35-.52,5.13-.88,1.66.25,3.97-1.06,5.74.6,4.21-.74,8.29-.87,12.46-.19,6.35-.64,12.7-.99,19.17ZM337.94,205.1c-.42,1.32-.91,2.4-1.08,3.52-.18,1.21-.11,2.47-.02,3.7.09,1.15-1.17,2.29-.02,3.44-1.35,1.01.2,2.01,0,3.02-.1.52.09,1.3-.2,1.54-1.6,1.31.4,3.62-1.41,4.8,1.73,1.69-.3,3.58.17,4.98.42,1.24-1.16,2.71.57,3.64.18.09.12,1.24-.17,1.48-.97.78-.59,1.76-.61,2.65-.05,2.61-.03,5.22,0,7.83,0,.19.31.38.7.82.61-.8,1.18-1.55,1.79-2.37-.06-1.92-.28-3.95.81-5.76,1.02-1.71,1.01-3.6.78-5.42-.44-3.54,1.11-6.86.98-10.35-.01-.39.58-.79.86-1.15-1.57-1.96-1.42-4.33-.8-5.95.74-1.91.55-3.67.61-5.49.07-1.99.25-4.01-.19-6.23-1.11.51-1.91.88-2.8,1.3ZM332.36,236.28c-2.61,1.56-2.75,2.76-.89,6.67,1.31-2.09,1.64-4.28.89-6.67ZM333.45,222.24c-3.11.05-1.88,2.83-3.28,4.01h3.28v-4.01ZM331.37,232.98c.88-.56,1.58-1.01,2.63-1.67-1-.76-1.68-1.28-2.43-1.85-.63.81-1.11,1.42-1.59,2.04.54.58.91.97,1.39,1.48ZM332,219.09c1.93-1.24,1.64-2.66,1.29-4.18h-1.29v4.18ZM331.82,208.28c.08,1.1.15,2.13.23,3.37,1.42-1.04,1.87-2.01,1.16-3.37h-1.39ZM334.49,205.21c-.05-.31-.1-.62-.14-.93h-2.36v2.31c.56-.36.94-.63,1.34-.85.37-.2.77-.35,1.16-.53Z"/>
  <path class="cls-1" d="M323.69,286.24c.79-.36,1.37-.63,2.16-.99.46,1.6.05,3.34.23,4.94-.6,2.05-2.39,3.3-2.71,5.64-.24,1.8-1.78,3.55-2.53,6.2,1.14-.59,1.92-.76,2.32-1.24,1.1-1.32,2.04-2.77,2.96-4.04h3.73c.1.29.26.63.33.98.2,1,.37,2.01.55,2.98-1.23,4.9-2.49,9.87-3.75,14.86,1.39,6.54,1.84,13.54,7.75,18.62,1.11-2.81-2.11-5.76.39-8.15-.27-1.06-1.02-2.27-.7-3.01,1.24-2.9-.57-5.63-.16-8.46.13-.91-.56-1.94-.97-3.2.91-.67,1.81-1.32,2.98-2.17-2.77-5.73-5.32-11.65-4.28-18.14-1.07-.97-1.97-1.79-2.51-2.27v-2.72c.63-.04,1.15-.07,2.05-.13,1.72,2.08,3.56,4.32,5.41,6.57-.86,1.29-1.65,2.48-2.46,3.7.77,2.37,1.81,4.71,2.28,7.16.63,3.3,2.64,5.83,4.16,8.64.37.68.7,1.39,1.18,1.99,1.19,1.47.39,2.46-.57,3.3-1.49-.55-2.9-1.08-4.64-1.72.51,1.43,1.34,2.47.24,3.76-.49.58-.28,1.81-.29,2.74-.04,1.93-.13,3.87.02,5.79.21,2.77.57,5.54.94,8.3.04.33.48.6.74.9-.38.88-.74,1.69-1.16,2.65-.44.03-.97.06-1.74.11-1.78-1.92-4.05-3.54-4.87-6.45-.3-1.07-1.4-1.88-1.97-2.9-1.64-2.91-2.74-6.08-3.45-9.31-.39-1.76-1.43-3.46-.94-5.43,1.02-4.13.86-8.53,2.93-12.45.45-.85.32-2,.56-3.8-1.49,1.49-2.44,2.38-3.31,3.34-.23.25-.21.73-.32,1.13-1.47.4-2.95.8-4.24,1.15-2.65-2.86-.87-5.64-.17-8.26.79-2.94,1.68-5.9,3.41-8.51.33-.5.28-1.27.43-2.07Z"/>
</svg>