<?xml version="1.0" encoding="UTF-8"?>
<svg id="Livello_1" data-name="Livello 1" xmlns="http://www.w3.org/2000/svg" viewBox="0 0 274.41 274.41">
  <defs>
    <style>
      .cls-1 {
        fill: #c4c4c4;
      }

      .cls-1, .cls-2, .cls-3, .cls-4, .cls-5, .cls-6, .cls-7, .cls-8, .cls-9, .cls-10, .cls-11, .cls-12, .cls-13, .cls-14, .cls-15 {
        stroke-width: 0px;
      }

      .cls-2 {
        fill: #cfcfcf;
      }

      .cls-3 {
        fill: #fdfdfd;
      }

      .cls-4 {
        fill: #bbb;
      }

      .cls-5 {
        fill: #c5c5c5;
      }

      .cls-6 {
        fill: #999;
      }

      .cls-7 {
        fill: #000;
      }

      .cls-8 {
        fill: #010101;
      }

      .cls-9 {
        fill: #ddd;
      }

      .cls-10 {
        fill: gray;
      }

      .cls-11 {
        fill: #6b6b6b;
      }

      .cls-12 {
        fill: #fefefe;
      }

      .cls-13 {
        fill: #f6f6f6;
      }

      .cls-14 {
        fill: #d0d0d0;
      }

      .cls-15 {
        fill: #8a8a8a;
      }
    </style>
  </defs>
  <path class="cls-7" d="M138.52,89.33v.75c-.39.38-.78.74-.98,1.27-.1.27-.33.44-.59.57-.19.1-.34.28-.47.38-.32.67.35,1.19.08,1.78.31.17.63.17.87.11.28-.07.47.23.77.07.23-.12.56-.05.84-.06.63-.02,1.24.02,1.87.15.57.12,1.15.18,1.72.36.52.17,1.07.35,1.38.29,1.21.16,1.8.89,2.52,1.41.55.4,1.05.65,1.72.29.15-.08.38-.01.65-.01.88.44,1.65,1.38,2.99,1.1.74-.71.77-1.9,1.54-2.81.4-.17.69-.65,1.11-1.01.29-1.23,1.05-2.18,2-2.98-.08-.19-.15-.33-.21-.48.28-.25.69-.3.93-.65v-.73c.49-.31.67-.82.78-1.33.09-.39.29-.68.56-.95.37-.38.8-.72.98-1.31v-1.06c.76-.45,1.1-1.34,1.72-1.98.06-.07.09-.19.16-.22.57-.29.65-.78.59-1.34,0-.06.01-.13.02-.19.34-.29.6-.67,1.07-.77.51-.11,1.02-.23,1.53-.33.22-.04.33.15.46.27.07.29-.22.26-.37.41-.04.73.18,1.43.57,2.18-.05.32.19.8-.31,1.14h-1.29c-.47.28-.35.62-.11,1.02-.24.28-.46.56-.82.73-.16.08-.3.23-.43.37-.63.64-.65.96-.1,1.74-.37.5-1.05.26-1.51.67-.24.36-.26.82-.23,1.31-.34.36-.86.53-1.12,1.01-.03.35-.07.73.22,1.08-.18.17-.33.32-.53.49-.25.02-.52.04-.79.06-.11.13-.23.21-.27.39-.2.82-.72,1.5-1.18,2.17-.41.58-.8,1.06-.26,1.75-.44.58-1.23.78-1.39,1.53-.11.54.12,1.13-.23,1.59.19.44.58.48.83.35.47-.25.92-.1,1.42-.16.27.32.54.63.75.87.84.2,1.84.65,2.36,1.05.59.46,1.3.54,2.04.61.33.46.86.74,1.38.89.52.15.89.42,1.25.78.2.2.45.33.68.49.82.59,1.68,1.17,2.34,1.94.26.3.62.23.88.42.24-.32.47-.04.65.06.79.42,1.63.74,2.37,1.27.31.23.6.41.73.78.11.31.36.48.74.61.29-.35.8-.42,1.28-.63v-.88c1.21-1.29,2.41-2.5,3.33-3.95.29-.45.75-.75,1.05-1.21.17-.25.6-.26.94-.21.14-.82.43-1.53.82-2.19.37-.64.78-1.24,1-1.97.14-.46.45-.87.71-1.28.16-.25.41-.38.77-.36-.11-.81.95-1.04.81-1.83.38-.36.73-.68,1.05-.99.08-.48.23-.88.58-1.18.25-.22.41-.46.32-.84-.03-.13.13-.41.26-.45.43-.15.59-.69,1.09-.68.14-.29.26-.54.41-.83.14-.07.33-.17.55-.27.33.08.65.19.9.52v.88c.11.12.2.21.32.35h.72c.47.3.27.68.31,1-.24.43-.66.31-1.07.35-.15.51-.45.97-.7,1.46-.17.35-.42.63-.7.88-.71.65-1.3,1.36-1.6,2.32-.17.55-.52,1.06-.99,1.46-.59.51-1.12,1.09-1.27,1.91-.06.33-.47.43-.57.74-.42,1.33-1.5,2.14-2.4,3.1-.06.07-.14.12-.21.18-.2.06-.28-.14-.46-.17-.76.21-1.04.96-1.55,1.44,0,.08-.02.16,0,.21.38.89.16,1.65-.36,2.44-.43.66-.79,1.33-1.52,1.66v.95c.11.52.46.81.89.93.41.12.65.44.94.67.48.39.93.8,1.5,1.09.88.46,1.53,1.18,1.94,2.11.94.44,1.5,1.3,2.16,2.03.34.38.63.68,1.11.91.78.36,1.58.78,1.87,1.65.63.49,1.29.38,1.98.36.26-.6.7-1.01,1.34-1.18.48-.84,1.38-1.27,1.93-2.01.3-.41.68-.8.84-1.31.3-.17.59-.37.95-.27.39-.25.67-.59,1.04-.84.48-.34.96-.75,1.17-1.34.12-.32.32-.54.61-.69.33-.16.55-.4.65-.73.51-.12.98-.25,1.47-.53-.04-.53-.01-1.1.29-1.58.3-.47.79-.69,1.34-.64.64-1.2,1.61-2.19,1.93-3.59.32-.52.86-.88,1.54-.99.25-.04.37.23.6.24.57.81.59,1.21.07,2.2v1.93c-1.58,1.15-2.89,2.61-4.03,4.22-.17.13-.42-.07-.55.12-.27.24-.3.61-.56.92-.25.13-.55.29-.87.46-.12.31-.23.63-.37.93-.2.43-.48.79-.9,1.04-.91.52-1.63,1.25-2.24,2.1-.42.58-.97,1.06-1.52,1.5-.37.3-.69.62-.94,1-.4.59-.96.92-1.6,1.22,0,.11-.01.23-.02.37.78.44,1.47.97,1.93,1.76.15.25.4.32.62.4.71.24,1.38.53,1.98,1,.23.18.56.22.9.34.14.68.52,1.14,1.28,1.24.16.02.31.2.45.33.25.24.49.5.75.77.37.14.83-.08,1.12.25.12-.09.2-.14.27-.19.5.23.68.79,1.18,1.1,1.04.07,2.16-.11,3.41.35.08.09.29.33.47.54.43.2.88.19,1.25.46.38.27.4.25,1.02.06.38.46.99.67,1.38,1.25.08.17,0,.42,0,.71-.74.55-.75,1.5-1.13,2.27-.24.47-.51.91-.78,1.35-.22.37-.64.47-1.08.54-.55.62-1.15,1.22-2.1,1.1-.43.58-.65,1.24-1.1,1.72-.19.05-.32-.03-.4-.15-.06.06-.1.07-.11.1-.41,1.01-1.26,1.59-2.14,2.14-.16.1-.27.22-.49.26-.32.05-.54.27-.64.61-.1.32-.26.63-.36.95-.17.52-.24,1.1-.69,1.49-.17.15-.06.36-.14.53-.19.42-.24.9-.68,1.33q-.49.18-.9,1.04c-.16.1-.35.2-.52.34-.17.14-.32.31-.44.42-.21.41.01.72.13,1.03-.11.3-.25.52-.48.75-.31.31-.53.78-.65,1.22-.08.29-.22.5-.39.73-.47.66-.94,1.31-1.36,1.99-.19.3-.52.29-.74.49-.06.19-.07.37.08.53.11.12.04.33.23.39-.47.76-.95,1.48-1.7,2v.78c-.42.81-1.07,1.41-1.38,2.23-.08.22-.28.41-.54.51-.3.11-.51.35-.61.67-.29.25-.72.18-1.05.51-.1.29-.11.59.18.88.23.23.2.51.05.79-.41.75-.89,1.45-1.62,1.91-.31.2-.48.41-.62.76-.25.65-.77,1.13-1.28,1.62.17.24.17.51.12.86-.61.43-1.27.89-1.96,1.37-.19.2-.06.62-.47.77-.64-.18-.94-1.15-1.88-.93-.02.34-.12.69-.47.84q.22.64,1.61.96c-.65.76-.76,1.89-1.82,2.3-.42.86-1.04,1.56-1.68,2.25-.48.51-.99.99-1.47,1.51-.2.21-.43.41-.69.46-.77.14-1.18.75-1.58,1.28-.44.58-.74,1.27-1.03,1.95-.12.29-.3.47-.42.58-.39.29-.59-.2-.87-.05-.25.54.04,1.04.15,1.59-.64.17-1.05.68-1.58.99-.18.1-.32.27-.39.51-.18.66-.58,1.16-1.12,1.62-.49.42-.89.97-1.31,1.48-.16.19-.3.35-.49.51-.48.4-1.01.77-1.29,1.37-.05.11-.16.25-.26.26-.67.11-1.02.63-1.42,1.09-.2.22-.45.36-.7.47-.86.36-1.54.92-2,1.73-.2.35-.5.63-.72.97-.24.38-.71.47-1.17.4-.45.84-1.14,1.39-1.91,1.91-.15,0-.33.02-.59.03-.6.9-1.39,1.66-2.23,2.42-.57.09-1.15.16-1.58.65-.11.13-.31.2-.48.27-.46.21-.85.5-1.24.84-.59.5-1.27.89-1.87,1.38-.32.26-.76.04-1.05.35-.88-.06-1.52.46-2.2.91-.45.3-.91.52-1.48.54-.37.01-.7.25-1.07.36-.38.11-.74.28-1.14.36-.52.1-.93.47-1.38.7-.4,0-.78-.03-1.16,0-.36.03-.65-.2-1.06-.18-.37.36-.82.69-1.5.93-1.12,0-2.39,0-3.66,0-.48,0-.89-.23-1.34-.39-1.17.53-2.16,0-3.14-.55-.93.28-1.83.48-2.83.26-.76-.17-1.58-.03-2.34-.03-.51-.35-.99-.63-1.53-.86-.11-.22-.24-.46-.36-.69-.52-.15-.62.39-.96.51-.23-.12-.47-.25-.61-.32-.37-.07-.54.13-.71.23-.31.18-.56.16-.89.06-.44-.14-.87-.32-1.4-.3-.44-.46-1-.66-1.68-.81-1.03-.22-2.09-.54-2.86-1.32-1.06.21-2.01-.17-3.03-.17-.63-.29-1.27-.65-2.06-.8-.36-.43-.88-.71-1.45-.91-1.11-.39-2.06-1.08-3.06-1.67-.58-.34-1.17-.67-1.82-.86-.53-.16-1-.46-1.54-.61-.24-.07-.49-.07-.72-.14-.69-.65-1.48-1.13-2.34-1.5-.84-.37-1.47-1.17-2.55-1.18-.17-.21-.37-.46-.55-.68-.48-.11-.91-.19-1.32-.31-.53-.16-1.06-.35-1.5-.71-.68-.56-1.51-.82-2.3-1.16-.79-.34-1.6-.64-2.22-1.27-.29-.3-.69-.48-1.05-.59-.71-.22-1.29-.59-1.81-1.1-.11-.11-.24-.22-.38-.28-1.44-.61-2.36-1.83-3.34-2.94-.4-.46-1.03-.71-1.24-1.34-.88-.7-1.77-1.38-2.63-2.11-.86-.73-1.63-1.55-2-2.66-.13-.37-.36-.69-.74-.93-1.4-.87-2.62-1.95-3.64-3.25-.09-.11-.19-.14-.27-.21-.27-.23-.63-.44-.73-.74-.37-1.07-1.44-1.31-2.25-2.09-.09-.19-.26-.52-.45-.88-.52-.3-.91-.8-1.36-1.24-.68-.65-1.34-1.3-2.15-1.82-.54-.35-.92-.97-1.41-1.41-.75-.35-1.56-.25-2.31-.37-1.13-.18-2.09.36-2.87,1.17-.39.41-.76.85-1.29,1.08-.46.2-.7.64-1.08.92-.37.02-.68.31-1.17.21-.43-.29-.68-.85-1.05-1.31-.3-.37-.57-.74-1-.97-.28-.15-.53-.37-.58-.71-.14-.86-.73-1.49-1.13-2.2-.51-.9-.84-1.8-.74-2.74.22-.76.69-1.28,1.09-1.82.21-.28.22-.57.27-.82.29-.46.74-.7,1.06-1.08.3-.36.2-.97.97-1.15h1.05c.76-.53,1.1-1.4,1.61-2.14.2-.3.03-.66.2-1,.32-.66.77-1.21,1.24-1.75.34-.39.61-.79.57-1.28.57-.81,1.18-1.54,1.9-2.17.18-.16.29-.38.32-.56.18-1.32.87-2.32,1.79-3.22.26-.26.44-.59.59-.93.34-.77.72-1.52,1.41-2.07.14-.11.24-.26.33-.45.51-1.2,1.24-2.25,2.29-3.1-.19-.99.57-1.52,1.04-2.19.52-.1.67-.6.83-.95.56-1.23,1.51-2.04,2.62-2.7.55-1.46,1.49-2.66,2.45-3.83.16-.19.29-.41.41-.62.24-.43.54-.81.94-1.05.48-.29.73-.75,1.11-1.16-.16-.82.29-1.4.91-1.8.36-.24.61-.53.81-.86.4-.64,1.16-.94,1.48-1.64.05-.12.2-.12.32-.17.52-.2.89-.55.97-1.14.06-.43.45-.56.82-.78-.05-.37.15-.62.43-.86.99-.82,1.69-1.9,2.46-2.9.15-.19.29-.4.46-.58.36-.4.77-.74,1.04-1.22.28-.51.98-.63,1.25-1.11.26-.45.35-1,.8-1.33.24-.18.4-.46.44-.7.07-.47.32-.7.72-.87.67-.3,1.24-.74,1.7-1.31.34-.42.81-.68,1.28-.87.31-.43.38-.99.96-1.25h1.73c.21-.12.3-.28.37-.51.21-.74.58-1.36,1.46-1.46.08,0,.14-.12.27-.23-.09-.79.18-1.57.87-1.99.93-.57,1.64-1.36,2.41-2.09.33-.3.73-.53,1.14-.59.8-.12,1.38-.54,1.92-1.11.66-.21,1.36-.34,1.88-.91.2-.22.53-.34.82-.43.3-.1.59-.18.81-.42.08-.08.21-.14.33-.16,1.24-.17,2.31-.81,3.46-1.22.42-.15.85-.19,1.26-.18.64-.32,1.25-.62,1.92-.95,1.53.05,3.02-.55,4.71-.71.25.3.81-.04,1.2.3.56-.17,1.01-.62,1.64-.58.57.04,1.14-.42,1.74-.03.57-.31,1.2-.38,1.86-.35.7.04,1.4,0,2.11.01.28,0,.54-.01.83.12.26.12.6.13.91-.04.25-.13.54-.17.78.07.37.36.81.28,1.24.16.41-.12.8-.35,1.25-.31.41.03.76-.28,1.13-.2,1.02-1.28,1.8-2.67,2.92-3.82.68-.69,1.17-1.53,1.72-2.32.22-.31.28-.72.46-1.09.57-1.15,1.29-2.18,1.93-3.28.09-.16.25-.34.21-.6-.07-.45.19-.83.34-1.24.14-.39.49-.69.58-1.05.1-.39.24-.75.41-1.12.25-.55.23-1.21.68-1.73.26-.13.55-.33.91-.23.23-.21.45-.4.66-.58.61.04,1.2.1,1.46.5.37.65-.28,1.04-.01,1.54.23.15.65.03.72.46.03.11-.06.18-.13.22-.61.39-.82,1.08-1.2,1.64-.36.53-.67,1.09-.87,1.71-.08.25,0,.51-.23.88-.11.09-.35.3-.6.51-.01.28-.02.52-.04.84-.52.4-.71,1.1-1.14,1.63-.08.1-.18.22-.17.33.05.84-.55,1.17-1.17,1.52Z"/>
  <path class="cls-6" d="M226.36,214.53c.14.17.1.34,0,.56-.09-.08-.18-.16-.26-.23,0-.19.16-.24.26-.33Z"/>
  <path class="cls-2" d="M217.53,226.98c.13.12.14.24,0,.36-.14-.12-.13-.24,0-.36Z"/>
  <path class="cls-12" d="M79.46,144.68c.66-.19,1.1-.63,1.52-1.11.27-.3.26-.3.69-.52,1.18-1.49,2.39-2.91,3.95-4.03.61-.44,1.36-.79,1.58-1.63.77-.45,1.1-1.37,1.87-1.79.54-.3,1.06-.63,1.58-.97.32-.21.48-.55.76-.78.65-.54,1.36-1.01,1.97-1.58.49-.45.94-1,1.13-1.64.37-.3.73-.46,1.16-.42.19-.17.38-.33.51-.56.23-.41.55-.69,1.06-.84.84-.23,1.41-.84,1.69-1.62.3-.08.48.08.69.15.16-.07.33-.15.5-.23,0-.22-.25-.43,0-.78,1.95-.7,3.97-1.53,5.26-3.4.67.06,1.14-.14,1.61-.53.59-.49,1.21-.92,2.04-1.04.47-.07,1-.28,1.39-.69.24-.26.61-.42.96-.56.44-.18.82.15,1.24.23v.43c-.31-.01-.55.18-.92.1-.57-.12-1.05.34-1.27.8-.35.7-.83,1.31-1.28,1.93-.41.54-.6,1.08-.53,1.74.02.16,0,.32,0,.51-.28.64-.93,1.02-1.34,1.63v1.11c-.75.3-1.34.71-1.35,1.61,0,.08-.07.18-.13.24-.47.44-.45,1.07-.61,1.62-.2.68-.22,1.41-.46,2.07-.19.52-.05,1.13-.5,1.57-.08.08-.07.33-.01.46.37.9.12,1.78-.1,2.65-.08.29-.11.52,0,.8.14.36.06.69-.06,1.08-.26.82-.52,1.67-.44,2.56.04.5-.09,1.01-.21,1.47-.25.99-.25,1.9.22,2.81.04.08.04.18.06.24.3.36.73.39,1.08.56.04.22.08.44-.08.68-.28.23-.74.18-1.06.47.19.51.33,1.03.03,1.59-.1.18-.03.44-.04.66-.01.41.09.87-.07,1.22-.2.43.2.68.12,1.07-.13.67.05,1.36-.19,2.06-.17.49,0,1.99.55,2.92-.74,1.94.03,3.76.58,5.61,0,.38.03.76,0,1.14-.08.69.13,1.22.73,1.52.07.36-.29.43-.37.72,0,.11.02.27.02.43.15.15.41.17.54.44.03.32.07.69-.14,1,.16.63.41,1.18.87,1.64.17.17.29.46.27.78-.03.41,0,.83,0,1.23.2.52.52.9,1.01,1.18.37.21.63.54.77,1.02.14.49.39,1,.85,1.33.08.05.16.12.2.2.38.78.97,1.36,1.67,1.85.1.07.22.18.24.29.16.85.81,1.37,1.25,2.04.61.93,1.39,1.74,1.88,2.77.37.79,1.05,1.42,1.84,1.83.61.32.97.76,1.06,1.46.51.37,1.15.6,1.61,1.06.48.47.93.96,1.28,1.33,1.31.43,2.17,1.14,2.78,2.16-.1.11-.19.2-.27.29h-.9c-.23.03-.3.4-.61.36-.46.04-.82-.68-1.36-.2-.45-.35-.98-.35-1.5-.36-.51-.01-1.02,0-1.55,0-.22-.25-.54-.39-.86-.56-.31.09-.6.27-.86.53-.35-.24-.7-.49-1.02-.72-.68-.04-1.34-.07-1.93.21-.41-.3-.76-.55-1.16-.84-.34.14-.71.38-1.14,0-.31-.28-1.36-.28-1.83-.23-.38.04-.7.25-1.08.24-.06,0-.13,0-.23,0-.59-.28-.63-1.25-1.7-1.25-.29.08-.77.44-1.4.29-.51-.42-.94-.98-1.69-1.31-.69.08-1.45-.06-2.16-.41-.31-.15-.63-.3-.82-.61-.31-.48-.83-.71-1.31-.87-1.29-.41-2.48-1.05-3.72-1.57-.28-.12-.53-.31-.79-.47-.76-.46-1.56-.86-2.36-1.23-.21-.1-.37-.23-.54-.36-.41-.29-.73-.73-1.35-.64-.16.02-.41-.18-.54-.34-.64-.79-1.55-1.03-2.47-1.14-.59-.07-1.07-.29-1.57-.56-.09-.15-.2-.31-.26-.48-.33-.93-1.07-1.39-1.96-1.67-.3-.09-.49-.29-.7-.54-.51-.61-1.16-1.1-1.65-1.73-.72-.92-1.71-1.6-2.37-2.56-.42-.61-.96-1.08-1.45-1.61-.28-.3-.75-.37-.94-.84v-.59c-.12-.37-.43-.56-.63-.83-.38-.51-.81-.96-1.14-1.52-.34-.57-.87-1.08-1.5-1.28-.69-.65-.99-1.59-1.77-2.05-.77-.46-1.03-1.34-1.75-1.87-.71-.52-1.51-1.03-2.01-1.78,0-.45.25-.65.57-.83.43-.25.86-.52,1.19-.9.21-.24.51-.35.82-.43.37-.1.74-.26.94-.57.34-.54.94-.91,1.2-1.45.37-.78,1.05-1.25,1.57-1.9-.11-.13-.22-.27-.36-.44.53-.96,1.29-1.72,2.26-2.37.11-.37.06-.83.3-1.22,1.88-1.79,3.54-3.78,4.88-6.15Z"/>
  <path class="cls-12" d="M149.64,183.07c-.2-.92.76-1.27.81-1.73.28-.8-.16-1.28-.02-1.81.14-.35.54-.17.81-.46.16-.39.41-.86.3-1.39.34-.58,1.04-.58,1.49-1,.21-.33.27-.72.24-1.11.35-.44.72-.83,1.22-1.05.16-.32.31-.62.5-1.01v-.77c.26-.64.96-.58,1.32-1.06.09-.13.01-.33.04-.51,1.15-.71,1.58-1.83,1.74-3.13.3-.27.59-.59.93-.84.22-.16.37-.41.36-.6-.07-.87.33-1.57.79-2.23.48-.7.68-1.5.97-2.28.21-.57.25-1.22.72-1.69.03-.86.35-1.67.49-2.53.03-.21.18-.44.37-.63.52-.5.94-1.06,1.12-1.8.08-.31.26-.64.51-.77.16-1-.1-1.93.21-2.95-.19-.53-.45-1.19.37-1.67.03-.27.12-.55-.14-.79.26-.19.36-.51.53-.75-.18-.36-.36-.71-.54-1.06.11-.73.46-1.32.82-1.94.4-.7.7-1.49.74-2.36.04-.84-.25-1.7.13-2.52-.44-.5.2-.83.21-1.34-.07-.22-.16-.51-.25-.8-.13-.42-.27-.82-.16-1.29.08-.31-.03-.66-.12-1-.15-.56-.08-1.17-.19-1.76-.08-.47-.25-.88-.42-1.36.23-.33.17-.74.18-1.15-.73-1.06-.72-2.28-.78-3.56-1.05-1.42-1.27-3.35-2.46-4.75.31-.82.13-1.22-1.09-2.48-.49-1.22-.62-2.6-1.6-3.52.03-.26.18-.34.31-.45.72-.05,1.41,0,2.03.48.22.17.57.24.87.26.51.04.95.26,1.42.4.92.28,1.78.69,2.63,1.15h1.29c.55.15.94.54,1.4.78.57.3,1.11.61,1.76.77.46.12.85.48,1.29.75.34,0,.69,0,1.04,0,.52,0,.98.14,1.34.54.47.52,1.01.89,1.69,1.13.75.26,1.42.73,2.16,1.01,1.1.43,2.1,1.06,3.04,1.73.98.69,2.02,1.37,2.71,2.43.18.28.57.48.91.61.41.16.79.36,1.17.54.53.26,1.06.49,1.5.92.28.27.66.47,1.02.63.18.08.33.17.46.3.92,1.01,2.12,1.55,3.37,2.05,1.42.57,2.96.84,4.27,1.69.49.32,1.02.57,1.53.86.18.1.26.27.22.5-.02.05-.03.13-.07.15-.84.41-1.14,1.29-1.72,1.93-.06.07-.1.16-.12.25-.34,1.33-1.36,2.04-2.45,2.75-.19.5-.66.9-.71,1.36-.18.28-.34.25-.5.25-.17,0-.31.04-.48.25.07.74-.53,1.27-.95,1.86-.39.55-.9,1.02-1.13,1.69-.05.14-.2.25-.32.35-.99.78-1.78,1.74-2.46,2.78-.13.19-.28.31-.49.41-.39.17-.77.4-1.21.63-.58,1.26-1.59,2.25-2.69,3.14-.21.17-.3.38-.45.56-.56.64-1.05,1.33-1.67,2.12-.26.13-.63.42-1.12.44-.46.53-.95,1.02-1.35,1.58-.59.84-1.33,1.53-2.07,2.22-.86.8-1.49,1.81-2.37,2.59-.24.21-.27.55-.48.9-1.01.5-1.93,1.27-2.75,2.15-.13.14-.3.22-.46.31-.66.37-1.29.77-1.72,1.29-.21.24-.08.45-.22.76-.44.45-.9,1.11-1.69,1.39-.08.03-.17.1-.22.17-.54.78-1.38,1.26-1.97,1.99-.06.07-.08.17-.11.25-.45.27-.95.44-1.38.77-.4.31-.88.54-1.38.72-.76.27-1.22.85-1.22,1.71-.29.26-.72.12-1.01.31-.33.23-.61.52-.94.76-.41.29-.88.43-1.31.65-1.05.54-1.82,1.42-2.74,1.97-.25.35.08.83-.59,1-.68-.07-1.49.09-2.18.67-.22.19-.5.03-.75.19-.58.49-1.03,1.3-2.12,1.05Z"/>
  <path class="cls-12" d="M59.58,154.05c0-.4,0-.82.36-1.18.28-.28.13-.85.66-1.04.15-.05.21-.35.32-.54.34-.63.63-1.27,1.1-1.84.27-.33.59-.71.65-1.21.04-.3.28-.54.65-.59.38-.06.58-.32.69-.69.15-.51.41-.95.76-1.37.44-.53.74-1.16,1.31-1.65.1-.98.51-1.86,1.17-2.63.08-.09.14-.23.24-.28.78-.42,1.25-1.15,1.85-1.7.11-.53-.62-.8-.28-1.41,1.16-.41,1.83-1.51,2.73-2.38,0-.78.67-1.28.86-1.98.21-.11.4-.21.67-.35,0-.32.39-.48.49-.88.07-.29.49-.5.56-.86.61-.4,1.21-.74,1.62-1.4.29-.47.81-.8,1.26-1.22-.09-.37-.04-.71.21-.99.48-.36.95-.76,1.51-1.04.3-.15.35-.5.55-.74.5-.59.96-1.21,1.35-1.88.35-.58.85-1.05,1.54-1.37-.2-.37-.33-.75-.17-1.18.66-.47,1.34-.96,2.04-1.46v-.73c.07-.08.1-.15.15-.18,1.14-.7,1.68-2.03,2.85-2.71.42-.79,1.2-1.21,1.81-1.8.11-.11.26-.21.33-.35.33-.65.79-1.13,1.45-1.49.36-.19.63-.62.83-1,.26-.51.68-.79,1.1-1.04.2-.23.05-.47.14-.69.34-.48.88-.65,1.4-.87.48-.21.98-.38,1.41-.66.4-.26.7-.69,1.05-1.03.52-.5,1.13-.93,1.45-1.63.61-.34,1.27-.6,1.85-1.02.26-.18.53-.34.73-.59.48-.6,1.12-.87,1.84-1.01.94-.18,1.84-.41,2.31-1.3.87-.13,1.69-.14,2.35-.71.19-.17.51-.26.77-.27,1.2-.03,2.28-.52,3.39-.88.51-.17,1.01-.3,1.54-.28.19,0,.38.04.56-.07.5-.31,1.06-.37,1.63-.31.34.04.59-.17.9-.24.66-.14,1.35-.16,1.96-.48.18-.1.37-.05.56-.05.48,0,.96-.03,1.44,0,.64.04,1.27-.05,1.85-.23.66-.21,1.27-.13,1.93-.04.83.11,1.65.39,2.51.28.22-.03.43.02.65-.08.57-.28,1,0,1.44.42-.46.59-.99,1.07-1.41,1.66-.56.78-1.21,1.5-1.62,2.39-.14.31-.3.63-.53.87-.4.42-.7.87-.82,1.44-.05.25-.21.44-.4.61-.35.32-.7.65-1,.93-.04.3-.06.52-.09.74-.44.26-.88.51-1.03,1.05-.39.15-.82.2-1.02.69v.58c-.04.12-.14.14-.21.19-.34.28-.75.54-.97.91-.43.71-1.08,1.22-1.58,1.86-.29.37-.71.77-1.27.89-.35.08-.66.32-1,.49-.74.38-1.53.62-2.32.88-.67.22-1.42.37-1.98.91-.56.54-1.35.55-2.15.85-.32.23-.59.76-1.2.8-.46.03-.56.52-.88.75-.51.36-.98.74-1.57.97-.53.2-.93.61-1.36.97-.26.22-.39.56-.37.93,0,.23,0,.45-.32.64-.36-.02-.82.12-1.3-.11-.53.21-1.13.32-1.61.6-.25.2-.33.45-.4.67-.15.46-.54.63-.9.75-1.27.44-1.94.7-2.58,1.61-.18.25-.55.45-.86.49-.6.08-1.02.47-1.45.79-.35.26-.71.49-1.06.64-.76,1.06-1.47,2.06-2.54,2.74-.18.12-.34.29-.48.46-.66.84-.65.84-1.48,1.29-.29.77-.91,1.09-1.77,1.01-.65.6-.72,1.63-1.64,2.1h-.73c-1.32.81-2.18,2.06-3.24,3.17.04,1.09-1.11,1.63-1.37,2.63.11.37.73.48.51,1.04-1.02.15-1.96.63-2.96.9-.17.05-.36.15-.47.28-.63.71-1.46,1.23-1.95,2.07-.15.27-.43.46-.66.68-.57.55-.95,1.19-1.19,1.96-.25.8-.79,1.46-1.2,2.18-.06.11-.16.22-.27.27-.74.29-.97,1.01-1.37,1.59-.07.1-.08.25-.16.33-1.09,1.01-1.81,2.31-2.72,3.46-.14.17-.31.32-.49.52-1.18-.13-2.25.22-3.17.98-.78-.23-1.52-.5-2.37-.37-.75.36-1.52.82-2.37,1.11-.68-.2-1.19.56-1.88.36-.17-.23-.1-.42.07-.6.33-.37.69-.73.81-1.23.11-.46.53-.75.6-1.24.08-.52.58-.8.93-1.22Z"/>
  <path class="cls-12" d="M190.99,152.63c.02.35-.01.65-.24.97-.21.3-.24.75-.32,1.14-.07.34-.14.63-.5.82-.31.16-.52.46-.65.8v.91q-.86.95-.59,2.13c-.58.56-1.18,1.14-1.73,1.67v1.28c-.25.25-.52.52-.76.76-.74.14-1.35.34-1.7,1.05-.16.32-.55.52-.77.7,0,.32-.08.53.15.65-.05.06-.08.12-.11.13-.22.02-.34.17-.43.34-.27.55-.69,1.01-.9,1.61-.23.64-.73,1.07-1.5,1.26-.3.97-.72,1.94-1.34,2.86-.72.28-1.46.57-1.85,1.43-.27.6-.84,1.06-1.38,1.42-.42.28-.68.61-.9,1.03-.1.19-.24.36-.4.6v1.24c-.55.42-.7-.6-1.26-.18,0,.67-.42,1.22-.99,1.71-.38.33-.73.69-.99,1.14-.28.48-.66.86-1.13,1.2-.6.44-1.14.99-1.51,1.68-.28.52-.65.99-1.06,1.42-.43.46-.94.85-1.24,1.43-.07.14-.2.27-.33.34-.69.33-1.06.94-1.44,1.55-.15.24-.34.49-.57.62-.73.4-1.13,1.18-1.89,1.55-.22.11-.42.33-.52.55-.18.4-.52.63-.75.92-.37,1.57-1.72,1.6-2.93,1.96-.23.17-.36.51-.6.75-.55.56-1.03,1.16-1.79,1.51-.62.28-1.16.77-1.58,1.33-.62.83-1.49,1.06-2.45,1.14-.65.75-1.45,1.33-2.29,1.85-.6.37-1.21.74-1.9.95-.12.04-.26.07-.33.16-.62.73-1.59.77-2.37,1.19-.34.18-.67.06-.95-.19-1.12.54-2.31.8-3.29,1.54-.17.13-.41.26-.69.23-.45-.04-.83.2-1.32.36-.35-.13-.79-.32-1.24-.01-.82-.12-1.61.45-2.48.07-.37-.16-.86-.1-1.3.07-.39.16-.87.19-1.2.02-.45-.23-.98.1-1.36-.29-.01-.01-.14.14-.22.14-1.32.02-2.65-.07-3.95.24-.24-.32-.58-.41-.9-.62-.67.17-1.33-.17-2.02-.17-.67,0-1.34.02-2.01-.03-.43-.03-.84-.24-1.32-.15-.59-.48-1.21-.91-1.98-.41-.33-.24-.41-.59-.61-.93h-1.51c-.24-.54-.84-.29-1.21-.59-.68.07-1.11-.34-1.5-.76-.42-.1-.85.07-1.23-.19-.15-.1-.36.03-.52.15-.16.12-.32-.07-.47-.09-.53-.09-1.1.02-1.59-.27-.13-.08-.34-.11-.4-.22-.52-.91-1.4-.92-2.33-.91-.27-.65-.86-1.01-1.48-1.28-.32-.14-.33-.52-.63-.64-.24-.05-.43.05-.62.16-.58-.07-.84-.59-1.2-.92-.91-.81-1.88-1.33-3.12-1.18-.11-.1-.21-.18-.29-.28-.69-.83-1.62-1.19-2.63-1.45-.47-.12-.9-.4-1.36-.56-.4-.14-.77-.38-1.26-.24-.3.08-.62-.28-.96-.15-.28-.26-.51-.5-.71-.8-.49-.72-1.14-1.22-2.04-1.34-.52-.07-.91-.48-1.44-.59-.27-.06-.59-.26-.86-.31-.8-.15-1.28-.69-1.71-1.26-.67-.88-1.38-1.68-2.4-2.16-.17-.08-.38-.16-.46-.3-.36-.67-1.03-.99-1.54-1.48-.57,0-.98-.32-1.27-.74-.46-.65-1.15-1.05-1.65-1.65-.25-.3-.64-.36-.95-.59v-.52c-.27-.39-.65-.62-.98-.9-1-.85-1.82-1.87-2.62-2.9-.21-.27-.45-.52-.79-.64-.02-.29-.04-.57-.07-.87-1.18-.55-2.34-1.1-2.89-2.41-.43-.41-1.17-.34-1.58-.86-.11-.14-.09-.3-.11-.48-.81-.37-1.54-.82-1.52-1.88-.34-.45-.78-.81-1.1-1.29-.23-.35-.63-.63-1.01-.83-.49-.26-.72-.64-.79-1.16-.02-.14-.14-.27-.23-.45-.83-.31-1.69-.64-2.43-1.2-.41-.31-.9-.25-1.33-.33-1.2-.23-2.44-.34-3.67-.21-.64.07-1.28.19-1.89.38-.34.11-.64.39-.91.63-.49.44-.92.96-1.68.96-.59-.06-1.08-.58-1.78-.46-.01-.2-.02-.33-.03-.46.66-.36,1.1-.94,1.47-1.55.52-.85,1.19-1.55,1.9-2.23.38.07.49.43.79.57.84.03,1.65-.08,2.42-.51.2-.11.43-.1.58.11.83-.5,1.68-.83,2.65-.75.47.04.89-.32,1.55-.08.03.03.18.19.3.32,0,.33,0,.58,0,.83,0,.56.17.98.7,1.31.62.38,1.01,1.03,1.4,1.64.3.46.67.73,1.19.77.29.02.49.31.8.2.29.25.58.47.74.85.08.19.28.39.47.47.58.23.9.75,1.1,1.23.2.46.49.78.82,1.11.25.24.46.52.59.83.41.21.8.4,1.22.62.2.34.45.69.55,1.12.11.46.42.66.86.72.21.14.02.43.24.58,1.18.82,1.87,2.06,2.7,3.17.25.34.5.67.83.89.96.65,1.66,1.5,2.15,2.55.02.05.09.09.19.18.59.07,1.16.35,1.7.73.39.27.83.58,1.36.49.33.43.57.89.73,1.43.64.35,1.5.4,1.98,1.05.48.63,1.46.66,1.71,1.51.37.03.72.13,1.01-.21.32.14.54.41.91.45.6.08,1,.58,1.49.9.35.23.68.46,1.12.41.42.32.84.64,1.27.97.52-.05,1.07.1,1.58-.21.64.33,1.13.95,1.96.99.21.01.55.25.7.54.13.26.38.39.59.58.55.5,1.24.63,1.91.85,1.42.48,2.81,1.06,4.15,1.79q1.24.06,2.47.77c.19-.17.38-.35.6-.55.08.03.17.04.25.09.33.19.65.37,1.06.32.26-.03.46.16.68.27.62.32,1.25.56,1.96.47.3-.04.61.04.79.22.28.29.67.31.99.51.57-.23,1.19-.38,1.77-.7.19.21.44.39.57.63.19.35.45.48.81.48,1.82,0,3.64,0,5.45-.01.05,0,.1-.07.17-.12.29.09.38.47.73.55.22-.13.46-.26.74-.43.76.21,1.54-.39,2.4-.04.36-.07.53-.46.79-.75.62.21,1.2.4,1.84.61.59-.3,1.22-.41,1.98-.22,1.54.38,3.14.28,4.71.22,1.53-1.08,3.39-1.54,4.92-2.67.15-.04.24.14.39.18.55-.19,1.09-.45,1.67-.36.12-.14.2-.23.24-.29.14-.36-.23-.56-.12-1,.04-.12.27-.25.47-.44h.71c.17-.14.32-.26.46-.37h.68c.33-.13.29-.56.62-.72.63-.11,1.29-.25,1.84-.71.17-.14.42-.24.67-.31.65-.18.71-.27,1.11-.91.19-.09.45.02.59-.2.46.33.9.14,1.33-.04.11-.05.2-.16.28-.26.3-.39.83-.4,1.17-.76.3-.32.28-.85.59-1,.44-.19.64.2,1.01.08.42-.19.76-.59,1.09-1.06v-.96c.14-.14.3-.3.48-.47.42.2.8.39,1.23.59.37-.05.72-.27.92-.63.19-.34.46-.51.81-.49.31.01.51-.2.75-.28.18-.33-.22-.52-.12-1,.62-.8,1.73-.93,2.76-1.29.08-.19.25-.37.41-.56.5-.57,1.15-1,1.5-1.7.04-.08.12-.16.21-.2.87-.34,1.34-1.15,2.05-1.68.23-.17.48-.36.74-.36.68,0,1.23-.4,1.86-.47.15-.24.29-.44.4-.62,1.31-.41,2.3-1.16,3.07-2.23.49-.68,1.02-1.34,1.54-2.01.08-.1.18-.23.29-.24.65-.06,1.11-.53,1.66-.79.44-.21.78-.52,1.09-.9v-.7c.38-.38.7-.85,1.24-1.11.28-.13.45-.43.62-.65.48-.64,1.08-1.16,1.61-1.74.29-.31.19-.79.59-1.14.55-.08,1.03-.4,1.37-.98.34-.56.77-1.06,1.18-1.57.2-.24.39-.47.7-.63.44-.23.82-.54,1.27-.85.19-.36.4-.77.58-1.11.27-.19.51-.07.81-.19.17-.19.4-.46.73-.83.06-.2.16-.56.29-.97.22-.31.55-.6.98-.76.18-.07.32-.17.47-.3.71-.62,1.54-1.08,2.17-1.79.06-.07.24-.05.36-.07h-.01Z"/>
  <path class="cls-12" d="M121.63,151.55c-.27.2-.62.31-.74.67.48,1.26,1.28,2.38,1.53,3.73.37.38.04.87.17,1.3.13.17.27.34.39.5-.02.08-.03.15-.06.2-.74.93-1.5,1.85-2.2,2.8-.32.44-.63.91-.8,1.45-.12.37-.41.62-.77.79-.3.14-.45.39-.61.67-.39.67-.77,1.33-1.27,1.94-.59.72-1.03,1.56-1.55,2.34-.2.31-.4.63-.63.91-.16.2-.14.41-.15.61.02.29.37.37.39.7,0,.04,0,.15-.05.22-.18.28-.5.35-.82.5-.08.15-.25.33-.27.53-.04.44-.05.9,0,1.34.05.45-.37.81-.17,1.28.19.14.41.08.65.05.32-.41.58-.84.67-1.39.1-.64.34-1.23.95-1.58.29-.16.36-.51.55-.75-.26-.22-.11-.61-.37-.84.23-.54.81-.69,1.17-1.07.5-.54.97-1.12,1.8-1.29.52-.11.58-.75.66-1.24.05-.28,0-.57,0-.87.38-.39.77-.76.97-1.27.1-.27.46-.29.52-.59.75-.05,1.09-.69,1.42-1.16.56-.81,1.35-1.37,1.96-2.11.22.21.57.2.69.51-.04.52-.49.77-.76,1.16.04.76-.16,1.46-.56,2.13v.87c-.81.81-1.21,1.82-1.36,2.96-.07.51-.17,1.03-.45,1.52-.83.17-1.18.88-1.43,1.56-.32.86-.56,1.75-.64,2.69-.1,1.2-.53,2.29-1.58,3.04-.19.17-.49-.08-.68.16-.05.29.28.33.36.78-.14.83-.22,1.89-.17,2.98.23.17.48.35.73.52.26-.09.54-.14.76-.29.53-.35.79-.87.8-1.51,0-.35.01-.7.01-1.05,0-.36.11-.77.41-.88.69-.27.77-.91.88-1.43.2-.94.54-1.76,1.21-2.47.31-.33.4-.83.38-1.31,0-.19,0-.37,0-.6,1.02-.15,1.19-1.11,1.72-1.74v-.96c.25-.48.5-.97.75-1.46.25-.51.56-.97.96-1.33.09-.28-.06-.46-.19-.68.43-.89,1.32-1.48,1.78-2.41.16-.16.47-.01.64-.24.51.37.68.87.66,1.48,0,.37-.01.72.14,1.11.2.5-.16.94-.51,1.32-.07.38-.06.75.2,1.08-.3.75-.53,1.5-.41,2.28-.7.88-1,1.92-1.33,2.93-.29.91-.25,1.89-.58,2.8-.11.31.16.59.18.89-.21.53-.41,1.05-.64,1.55-.07.15-.15.27-.14.44.03.42-.14.79-.3,1.16-.4.95-.34.88-.06,1.94-.48.3-.36.89-.58,1.38.25.77.53,1.55.76,2.35.11.37.41.54.59.78.22.12.42.04.64.06.32-.46.94-.59,1.23-1.06.13-.54-.07-.96-.33-1.35-.08-.53.12-1.09-.2-1.58.21-.65.43-1.3.38-2-.11-1.51.31-2.9.99-4.21.18-.35.03-.77.34-1.05-.15-.49.22-.94.08-1.44-.13-.47.3-.84.3-1.3,0-.19.02-.38.03-.6.14-.41.41-.75.7-1.01.11-.37-.03-.66-.18-.96.61-1.08.34-2.26.43-3.44.49-.64,1.27-1,1.83-1.61.13-.14.38-.29.67-.27.26.02.41.13.57.37-.18.7-.37,1.44-.58,2.25.36.71.31,1.57.43,2.39.16,1.07.11,2.14.13,3.21.01.46.12.95-.16,1.39-.04.07-.04.21,0,.28.2.35-.18.76.1,1.1-.02.91.53,1.73.44,2.7-.09.11-.2.26-.36.45-.01.95.16,1.92.35,2.9.1.51.08,1.06-.17,1.52.07.29.24.44.42.56.66.43.65.82.35,1.49-.09.19-.27.34-.38.47-.02.28-.01.48.13.69.19.28.34.59.43.91.37,1.25,1.82,1.02,2.38.35.12-.14.18-.33.3-.46.1-.1.25-.16.4-.24.02-.78-.94-.7-1.15-1.47v-1.42c-.21-.44-.43-.85-.49-1.38.04-.05.17-.2.33-.39-.3-1.19-.17-2.5-.64-3.7-.18-.47-.31-.89.11-1.29.16-.15.11-.36.11-.54,0-.2.04-.37.18-.52-.38-.98-.2-2.01-.15-3.01.05-.98.08-1.98.59-2.91-.27-.23-.5-.44-.67-.59-.2-.29-.06-.62-.32-.75-.21-.22-.51,0-.73-.17-.09-.14-.05-.29-.03-.4.25-.36.74-.35.92-.9-.09-.47.17-1.11-.16-1.7.16-.56.22-1.16.7-1.57.43-.37.87-.72,1.32-1.08h.55c.51.73.39,1.57.24,2.3-.11.55-.07.95.2,1.38.08.13.14.28.23.48v.88c.34.93.75,1.82,1.17,2.71.28.6.1,1.24.2,1.88.32.57.49,1.31,1.3,1.42.06.67-.18,1.18-.33,1.78.26.54.24,1.24.54,1.86.31.64.21,1.35.19,1.97.16.36.51.35.72.56h1.25c.67-.38.93-1.16,1.53-1.65-.87-1.1-1.38-2.3-1.63-3.59.16-.31.28-.55.4-.79-.38-.72-.84-1.39-1.49-1.9.06-.7-.09-1.33-.24-1.98-.23-.24-.47-.5-.7-.73.44-1.2-.24-2.08-.79-2.98.02-.49.75-.75.41-1.34-.19-.21-.38-.42-.57-.63.47-.45-.2-.87-.03-1.31-.34-.39-.14-.85-.21-1.29.55-.49,1.09-.97,1.7-1.51.12.03.23.28.43.49v.77c.68.42.94,1.11,1.1,1.85.01.06.02.12.04.18.3.88.62,1.74,1.37,2.37.64.53.74,1.34.9,2.08.1.45.23.9.27,1.37.06.64.43,1.21.89,1.69.23.25.55.44.66.8.17.12.42.03.59.23.16.18.35.34.59.46.2.09.43.08.61.2.18.13.37.26.46.55-.48.47-.77,1.13-1.43,1.51-.5.29-.65.88-.88,1.4-.33.72-.66,1.45-1.11,2.12-.45.67-.66,1.46-.61,2.31-.42.35-.99.57-1.1,1.12-.27.23-.56.06-.72.16-.19.14-.29.25-.3.43-.03.36-.21.64-.47.88-.87.82-1.6,1.79-2.7,2.36-.16.08-.29.25-.32.47-.34.04-.63.21-.87.31-.32.31-.19.73-.43,1-.47.23-.94.47-1.43.71-.19.43-.58.71-.89,1.03-.44.13-.85.25-1.29.28-.2.01-.42.14-.57.28-.37.35-.79.61-1.45.83h-.76c-2.22,1.02-4.19.79-6.02-.77-.32.22-.68.27-1.05.2-.3-.3-.7-.54-.87-.89-.2-.42-.58-.44-.75-.6-.34-.11-.44.16-.71.14-.25-.24-.56-.5-.81-.91-.43-.2-.86-.58-1.36-.8-.54-.24-.66-.81-1.13-1.15-.44.08-.87-.16-1.34-.24-.07-.25-.24-.43-.44-.58-.43-.34-.58-.88-.92-1.27-.3-.35-.7-.6-.98-1-.25-.36-.47-.75-.58-1.16-.08-.28-.22-.47-.4-.61-.58-.44-.91-1.02-1.19-1.69-.21-.5-.73-.85-1.05-1.32-.52-.76-1.31-1.3-1.75-2.13-.04-.08-.17-.15-.17-.22,0-1.14-.97-1.49-1.67-2.06-.35-.28-.67-.58-.82-1.03.27-.47.12-1.01.13-1.52-.15-.16-.28-.3-.38-.42-.26-.21-.61.07-.83-.23-.4-.72.47-1.13.42-1.86-.17-.18-.4-.44-.64-.68-.48-.47-.71-1.03-.87-1.69-.2-.78-.3-1.65-.93-2.27.35-.74.2-1.47-.06-2.27-.26-.28-.59-.62-.91-.96.14-.31.24-.59.47-.83.5-.51.61-1.19.43-1.82-.11-.38-.15-.74-.12-1.11.02-.35-.42-.61-.14-.99.07-.16.25-.07.43-.12.09-.27.28-.51.56-.71-.17-.2-.29-.34-.41-.48-.11-.3.1-.63.04-.86-.09-.32-.05-.61-.07-.86.11-.29.38-.29.59-.48-.44-.44-.4-1.17-.99-1.46.03-.45-.32-.76-.07-1.35.01-.01.18-.16.33-.3h.78c.23.34.38.67.3,1.02.55.64,1.17.96,1.95,1.13.59.12,1.19.26,1.78.46.57.2,1.18.05,1.73-.17.61-.24,1.2-.48,1.87-.23.11.04.27-.11.4-.1.68.05,1.37-.17,2.06.14.29.13.69.02,1.06.02.46-.49.93-.98,1.44-1.52.09-.38-.44-.53-.46-.95-.83,0-1.64,0-2.44-.38-.24.15-.53.22-.85.16-.14-.13-.28-.25-.41-.37-.65-.02-1.26.03-1.88.17-.6.14-1.26-.12-1.86.22-.24-.13-.49-.25-.74-.38h-1.35c-.79-.48-1.59-.59-2.48-.21-.24.1-.54.38-.9.15-.21-.49.18-.85.32-1.27.02-.2,0-.38-.16-.47.38-1.36.02-2.7.2-4.04.12-.16.26-.3.53-.29.51.02,1.02,0,1.53,0,.55-.01.94.37,1.29.67.66.56,1.4.91,2.2,1.17.51.17.98.38,1.47.65.73-.05,1.44.25,2.18.31.85.06,1.57.5,2.37.72.52.14,1.13.1,1.57.52.51-.06.69.37.83.51.74,1.46.19,2.62-.36,3.81.3.33.67.63.73,1.12Z"/>
  <path class="cls-12" d="M163.39,142.1c.3.38.3.84.17,1.19-.14.38-.13.73-.17,1.16-.16.31-.34.67-.55,1.07-.01.73-.03,1.5-.34,2.24-.09.22-.03.5-.03.75,0,.88-.2,1.73-.28,2.6-.14,1.43-.86,2.69-1.08,4.09-.19.19-.49.23-.58.56-.09.32-.27.62-.47.89-.63.9-.64.89-.65,1.93-.43.46-.47,1.25-1.17,1.57.13.67-.27,1.09-.5,1.6-.36.78-.84,1.44-1.39,2.1v.75c-.36.32-.61.69-.82,1.13-.34.69-.84,1.29-1.2,1.99-.37.7-.65,1.39-.68,2.24-.25.27-.54.56-.84.88-.71.04-1.1-.38-1.51-.88-.43-.53-.4-1.15-.56-1.74-.6-.63-1.21-1.26-1.47-2.15.09-.27.18-.56.29-.91-.12-.47-.53-.83-.94-1.13-.34-.25-.52-.51-.53-.9-.02-.48-.2-.88-.43-1.29-.28-.5-.39-1.08-.68-1.59-.06-.09-.03-.25-.13-.34-.85-.74-.87-1.81-1.09-2.78-.11-.22-.36-.24-.53-.41v-.9c.46-.33.77-.83,1.25-1.26.54.45.27,1.37,1.01,1.72h.87c.65.67,1.49,1.15,2.29,1.69.56.37,1.03.85,1.5,1.32.2.2.38.43.68.49.89.18,1.46.81,2.03,1.47.51-.23.37-.94.94-1.15.36.12.77.25,1.22.39.3-.54-.08-1-.18-1.49-.73-.58-1.45-1.18-2.46-1.21-.19,0-.41-.16-.56-.3-.2-.2-.42-.22-.67-.28-.48-.12-.94-.3-1.03-.92-.05-.37-.33-.67-.57-.94-.62-.69-1-1.6-1.9-2.03-.3-.14-.49-.52-.79-1.13-.45-.33-1-.52-1.33-1.01.1-.46.54-.47.78-.68.49.08.8.35,1.07.66.5.57,1.09,1.03,1.83,1.29.47.02.79-.5,1.38-.34.5.33,1.03.72,1.43,1.33.32.49.76.93,1.39,1.14h.79c.38.23.8.49,1.27.78.34-.31.88-.11,1.31-.52,0-.38.37-.72.48-1.2-.4-.56-.85-1-1.6-.98-.5.01-.79-.32-1.09-.64-.4-.42-.82-.78-1.51-.7-.6-.84-1.41-1.43-2.33-1.9-.21.02-.32.18-.47.32-.23-.19-.6-.04-.8-.33-.15-.9,0-1.14,1.06-1.74,1.31.08,2.67-.14,4.03.24.26-.24.54-.44.99-.61,1,.07,2.11.01,3.11-.56.11-.27.11-.5.01-.74-.26-.62-.63-1.16-1.24-1.56h-1.23c-.2.17-.41.36-.62.55-.24.04-.35,0-1.05-.36-.07.04-.15.08-.23.12-.08.04-.17.08-.26.12-.23.24-.14.68-.54.84-.29-.1-.58-.25-.8-.51h-1.07c-.45-.43-1.04-.52-1.62-.55-.8-.04-1.6,0-2.39,0-.48.13-.76.7-1.47.52-.06-.09-.17-.28-.4-.65.06-.6-.3-1.32-.74-2-.43-.67-.7-1.44-1.18-1.99-.05-.61.09-1.15-.21-1.66.18-.54.89-.79.79-1.42.27-.31.62-.37.94-.56.2-.28.42-.58.37-.99.78-.41,1.29-.96,1.14-1.86.3-.28.52-.58.88-.75.28-.13.52-.42.56-.73.11-.77.65-1.38.69-2.19.48-.12.89-.4,1.31-.74-.08-.9.61-1.45,1.12-2.04.55-.64.8-1.32.84-2.2.32-.1.61-.33.68-.72.12-.68.57-.98,1.2-1.1.06-.01.11-.06.19-.1v-.64c.28-.6.55-1.08.89-1.53.16.01.32-.09.46.16.54.94,1.12,1.86,1.69,2.79-.24.21-.1.52-.21.82-.47.42-.85.98-1.46,1.3-.29.15-.35.53-.58.72-.7.58-1.21,1.3-1.68,2.07-.17.28-.41.55-.82.57-.29.01-.38.44-.69.39-.29.78-.8,1.3-1.45,1.71-.34.22-.67.46-.99.72-.52.42-.81.96-.68,1.66.4.6.5,1.43,1.3,1.69.04.78-.52,1.14-.99,1.63-.45,0-.93.12-1.47.29-.44.65-1.2.99-1.9,1.43,0,.62-.18,1.14-.63,1.52.17.86.68,1.4,1.39,1.77.47.24.93.48,1.47.76.81.09,1.71-.52,2.61.04.29-.32.57-.62.85-.92.4-.11.79-.21,1.12-.45.15-.03.23.09.39.19.34-.27.78-.22,1.26-.21.24-.21.52-.4.9-.57h.83c.3-.29.62-.59.99-.94.91-.1,1.73-.48,2.37-1.28v-1.3c-.37-.55-.88-.86-1.55-.89-.42.23-.46.86-1.05.89-.5-.24-1.07-.1-1.61-.13-.57.39-1.09.86-1.94.73.35-.69.4-1.44,1.18-1.82.3-.15.46-.58.72-.85.66-.69,1.35-1.36,2-2.01.38-.16.69.04,1.02.15.1-.11.18-.21.29-.33-.15-.16-.31-.32-.45-.47h-1c-.08-.15-.15-.29-.23-.44.61-1.04,1.72-1.5,2.77-2.2-.35-.24-.58-.41-.93-.4-.33.12-.52.4-.67.75h-1.13c-.37.51-1.02.65-1.34,1.15h-.54c-.22-.13-.39-.3-.51-.53.1-.41.33-.75.65-1,.81-.63,1.33-1.45,1.69-2.41.28-.73.85-1.21,1.67-1.46.83.52.76,1.35.79,2.19.6.88.92,1.89.97,3,.02.48.41.9.37,1.42-.04.49.13.91.33,1.33.08.17.15.34.26.58-.14,1.07.21,2.14.47,3.23.11.48.23.98.11,1.49-.05.21-.08.5.02.65.38.6.07,1.08-.24,1.65Z"/>
  <path class="cls-12" d="M142.9,136.35h-.58c-.37-.27-.72-.54-1.08-.79-.52-.36-1.1-.56-1.74-.56-.86,0-1.72,0-2.59,0-.42-.36-.88-.7-1.07-1.3-.05-.66-.02-1.34.29-1.98.08-.16.08-.37.08-.55-.02-.56.11-1.12.1-1.69-.01-.54.09-1.09.26-1.62.07-.23.01-.51.01-.75.21-.21.53-.24.6-.58.17-.89.65-1.64,1.06-2.43.13-.25.24-.49.35-.74.14-.3.17-.64.45-.91.22-.22.37-.58.24-.93.21-.24.4-.45.59-.66-.11-.28-.33-.51-.17-.84.22-.34.58-.61.7-1.12-.38-.43.09-1.12-.42-1.6.14-.12.21-.18.34-.29.24.32.68.02.96.33.16-.09.32-.18.49-.28-.07-1.14.33-2.08,1.3-2.76.76-.05,1.54-.02,2.32-.14.98-.15,1.97.12,2.96.27.56.08,1.14.09,1.71.07.86-.04,1.68.04,2.45.47.05.03.11.1.16.09,1.07-.15,1.43.72,1.93,1.35.33.41.59.88.97,1.27v1.1c-.26.13-.51.31-.71.57-.22.53-.17,1.25-.91,1.48-.39.84-1.32,1.33-1.47,2.33-.04.24-.21.51-.44.7-.5.43-.91.96-1.45,1.37-.47.36-.76.93-.91,1.46-.18.62-.41,1.21-.72,1.78-.08.15-.05.31-.1.5-.34.32-.72.66-1.1,1.01.02.92-.77,1.48-.87,2.36-.91.21-1.43.91-1.99,1.57-.08.09-.1.23-.18.32-.63.66-1.33,1.26-1.79,2.08Z"/>
  <path class="cls-12" d="M126.4,107.76c.06-.47.2-.79.6-1.02.32-.18.61-.48.69-.87.14-.76.66-1.26,1.18-1.72.11-.38.22-.73.33-1.1.34-.28.81-.45.97-.95.05-.14.25-.17.37-.25.21-.13.38-.31.5-.55.32-.63.68-1.24,1.01-1.87.19-.37.44-.69.77-.94.7-.18,1.4-.27,2.13-.28.29,0,.59-.15.87-.26.37-.14.77-.18,1.1-.02.65.32,1.32.33,2.01.3.57-.03,1.15,0,1.73,0,.4.38.85.63,1.42.59.25-.02.51.13.69.23,1.72.91,3.59,1.42,5.36,2.21.33.15.73.2.93.6-.04.37-.13.72-.41.92-.24.13-.34-.02-.44-.08-.15.08-.29.14-.43.21-.4.94-1,1.77-1.6,2.58-.05.45.11.92-.37,1.39-.23.14-.73.24-.88.76-.02.08-.12.15-.2.2-.89.53-1.51,1.3-1.95,2.21-.29.6-.79.76-1.31.62-.56-.15-1.12-.15-1.67-.14-1.07.01-2.12-.23-3.19-.24-1.01,0-1.99.31-3,.23-.49.28-1.03.38-1.57.47-.93.15-1.86.22-2.8-.08-.61.17-1.2.42-1.75.74-.33,0-.65,0-.97,0-.47-.01-.93.01-1.35.28-.37.23-.77.22-1.11-.09-.2-.53-.05-.97.26-1.34.59-.72,1.08-1.51,1.59-2.29.13-.2.26-.35.54-.42Z"/>
  <path class="cls-12" d="M150.6,104.46c.22-.26.54-.43.75-.76.31-.5.84-.73,1.46-.69.29.02.57,0,.72,0,1.03.36,1.86.82,2.74,1.35.61-.13,1.24.11,1.87.25.71.15,1.24.67,1.84,1.05.19.12.36.2.58.26.85.21,1.63.55,2.25,1.2.7.72,1.35,1.51,2.3,1.94.63.86,1.77,1.1,2.38,2.01,1.18-.05,1.95.83,2.97,1.22,0,.13.02.25.03.43-.86.26-1.23,1.04-1.7,1.72-.63.92-.78.97-1.85.7-.77-.19-1.57-.25-2.32-.57-.29-.12-.69-.12-1.04.19-.26-.36-.67-.2-1.03-.24-.24-.61-.79-.79-1.32-.91-.27-.06-.55-.14-.79-.24-.75-.3-1.55-.43-2.33-.53-1.1-.15-2.03-.58-2.81-1.35-.3-.3-.64-.48-.9-.58-.46-.03-.54.4-.87.36-.47.02-.4-.51-.77-.73-.79.06-1.55-.57-2.45-.4-.92,1.22-1.86,1.18-2.99.3.11-.22.32-.41.45-.63.15-.25.21-.54.28-.78.23-.77.63-1.31,1.39-1.6.27-.11.54-.38.68-.64.17-.32.45-.53.56-.71.23-.62-.21-1.07-.09-1.6Z"/>
  <path class="cls-12" d="M119.73,124.61v.71c.51.57,1.31.91,1.73,1.63.39.67,1.09,1.05,1.69,1.63.02.32.06.69.32,1.04.94.13,1.12,1.15,1.8,1.62-.12.42-.16,1.15.05,1.53.23.41.29.94.86,1.16.32.13.57.47.72.84.22.56.54,1.06,1.08,1.47-.11.33.28.58.15,1.01-.85.36-1.52,1.19-2.63,1.27-.4-.45-1.18-.51-1.2-1.31-.31-.24-.68-.3-1.05-.29-.46-.63-.85-1.27-1.39-1.8-.58-.58-1.14-1.16-1.94-1.43-.34-.12-.58-.4-.8-.62-.74-.69-1.69-1.06-2.45-1.7-.48-.41-1.05-.7-1.51-1.13-.04-.04-.14-.04-.16-.08-.43-.88-1.26-1.23-2.19-1.65h-.71c-.68-.29-1.26-.53-1.39-1.32.22-.41.59-.72,1.02-1,.52-.32.83-.84,1.09-1.37.05-.1.02-.26.13-.34.88-.71,1.45-1.7,2.23-2.51.27-.29.66-.58.55-1.08.82-.1,1.37.11,1.77.83.3.54.92.92,1.15,1.48.23.57.66.9,1.08,1.43Z"/>
  <path class="cls-12" d="M114.03,140.74c-.64.14-1.2-.09-1.78-.36-1.03-.46-2.14-.74-3.2-1.12-.41-.15-.76-.38-1.17-.51-.01-.43-.11-.84.19-1.23-.33-.5-.17-1.09-.19-1.64-.02-.54-.37-.98-.39-1.51.27-.27.61-.05.9-.17.45-.28,0-1.01.6-1.16.03-1.03.2-1.67.64-2.43,1.05-.2,1.42.86,2.28,1.31.62-.08,1.32.18,1.82.67.68.67,1.56,1.03,2.3,1.6.44.34.89.66,1.34.98.62.45,1.32.79,1.99,1.16.7.39,1.47.71,1.8,1.54.19.47.56.76.99.94.32.13.48.4.8.59.29,0,.62.05.96.32.15.77-.19,1.45-.84,1.94-.28.21-.47.44-.44.73.05.49-.17.91-.29,1.38-.41.18-.77-.06-1.15-.13-.4-.06-.83-.01-1.32-.01-.48-.6-1.39-.52-1.92-1.08-1.48-.26-2.86-.68-3.93-1.81Z"/>
  <path class="cls-12" d="M122.19,125.13c.11-.55-.09-1.02-.19-1.48-.29-.62-1.16-.69-1.29-1.48.04-.09.1-.23.19-.43-.66-.42-.69-1.26-1.21-1.9.41-.18.67-.52.98-.83v-1c.15-.53.66-.81.64-1.38.37-.2.72-.39,1.1-.6.67.03,1.35.05,1.99-.3.24-.13.55-.07.86-.02v.9c.58.92.78,1.95,1.35,2.81.02,1.01.69,1.84.77,2.83,0,.09,0,.2.06.26.59.71.34,1.31-.22,1.87.28.29.55.57.82.85h.94c.26.23.55.4.51.85-.7.6-.88,1.52-1.21,2.38.29.33.5.64.66.98v1.2c.62.7.93,1.6,1.13,2.54.07.34.14.68.38.92.24.24.22.51.19.9-.1.1-.26.25-.38.37-1.11.12-1.54-.83-2.29-1.12v-1.18c-.41-.7-.65-1.5-1.11-2.21-.33-.51-.57-1.08-.97-1.57-.19-.24-.49-.49-.42-.91.03-.18-.1-.44-.25-.58-.93-.93-1.75-2-3.03-2.67Z"/>
  <path class="cls-12" d="M138.29,114.23c-.29,1.47-.98,2.84-1.16,4.42-.3.26-.46.71-.69,1.14.3.22-.02.67.33.94-.47.69-1.41,1.03-1.38,2.02-.42,0-.53-.3-.71-.5-.05-.41.28-.69.36-1.04-.08-.36-.52-.33-.71-.66-.01-.44-.3-.87-.48-1.32-.28-.71-1.02-1.05-1.64-1.44-.28-.17-.6.25-.93.03-.04-.02-.1.16-.22.07-.07-.05-.16-.09-.24-.14-.76.43-.35,1.48-1.06,1.91-.54-.06-.77-.22-.82-.77-.04-.45-.18-.83-.36-1.23-.3-.64-.28-1.34-.22-2.05.24-.53.8-.62,1.3-.92.79.05,1.61-.09,2.4-.4.38-.15.78-.19,1.19-.18.64.02,1.28.02,1.91,0,.4-.02.8.05,1.2-.16.34-.18,1.12,0,1.92.26Z"/>
  <path class="cls-12" d="M130.85,127.18c-.1-.22-.17-.39-.27-.55-.08-.13-.21-.24-.3-.34-.05-.26.05-.45.16-.63-.13-.49-.3-.96-.75-1.26v-1.16c.12-.14.24-.28.39-.45-.32-.58-.64-1.17-.96-1.75.3-.27.6-.54.95-.85.56.43,1.02,1.23,1.94,1.52-.33,1.09.34,1.74,1.04,2.37.29.06.56.03.8-.18.41.17.82.33,1.02.82-.48.72-.58,1.65-1.19,2.36.1.59-.08,1.17-.26,1.72-.12.35-.12.69-.09,1.01.08,1.05-.04,2.14-.67,2.85-.15.17-.47.03-.83.03-.15-.18-.35-.43-.6-.72,0-.17-.1-.43.09-.65.1-.11.11-.27.06-.36-.2-.35-.18-.72-.18-1.1,0-.35,0-.7,0-1-.13-.53-.75-.49-.95-.93.08-.32.41-.46.59-.78Z"/>
  <path class="cls-3" d="M178.14,120.03c-.24.13-.33.38-.63.43-.85-.34-1.72-.68-2.25-1.6-.23-.4-.64-.7-.95-1.03-.82-.11-1.31-.7-1.9-1.12.11-.76.4-1.42.97-1.87.34-.26.67-.72,1.19-.5,1.84,1.46,3.53,3.06,5.45,4.39h1.02c.23.12.45.24.63.33.06.09.13.15.13.2,0,.57.34.97.75,1.24.61.41,1.12.93,1.71,1.37v.72c.12.26.47.33.4.64-.04.11-.08.12-.14.05-.29-.29-.62-.52-1.06-.5-.79.02-1.42-.39-2.01-.84-.33-.25-.79-.41-.92-.88-.75-.42-1.47-.91-2.4-1.01Z"/>
  <path class="cls-13" d="M155.76,133.9c-.45.15-.74.24-1.04.34-.09-.08-.19-.16-.32-.28.04-.45.01-.91-.35-1.16-.1-.38.18-.54.23-.79.24-.11.5,0,.75-.05.27-.14.4-.48.76-.59.33.45.54.89.19,1.44-.2.31-.31.67-.22,1.1Z"/>
  <path class="cls-12" d="M181.61,171.25c-.14.33-.47.34-.65.52-.12-.09-.23-.18-.3-.24-.03-.27.11-.35.26-.49.17.21.43.19.69.21Z"/>
  <path class="cls-12" d="M74.32,176.87c-.25.16-.5.12-.74.04-.04-.33.15-.43.36-.52.22.08.39.19.38.48Z"/>
  <path class="cls-12" d="M153.82,137.38c.05-.28.17-.29.35-.21.01.07.03.15.04.22-.14.14-.26.13-.39,0Z"/>
  <path class="cls-12" d="M191,152.64v-.47c.1-.12.2-.14.37-.04-.25.09-.05.47-.38.5h.01Z"/>
  <path class="cls-12" d="M156.14,153.87c.06-.07.12-.09.17.01-.06.07-.12.1-.17-.01Z"/>
  <path class="cls-11" d="M186.49,121.98c-.08-.06-.08-.12,0-.17.08.06.08.12,0,.17Z"/>
  <path class="cls-7" d="M64.18,150.34c-.01.11.05.24-.05.34-.12.05-.14-.05-.15-.12-.03-.15.06-.21.2-.22h0Z"/>
  <path class="cls-14" d="M69.17,140.47c.12-.13.24-.14.36,0-.12.14-.24.13-.36,0Z"/>
  <path class="cls-7" d="M64.17,150.33c0-.09.03-.15.12-.17.02,0,.06.04.06.06-.02.09-.08.13-.17.12h0Z"/>
  <path class="cls-5" d="M125.1,199.01c0-.1.04-.17.15-.2.42.05.4.46.6.74h-1.46c-.08-.12-.07-.2-.02-.29.16-.12.35-.04.53-.06.05.06.1.08.15.04.08-.06.11-.13.04-.22Z"/>
  <path class="cls-15" d="M111.88,198.62c.27.22.62.17.93.21.01.12.04.22.02.23-.46.19-.68.18-1.15-.05,0,0,.01-.09.01-.09,0-.06.03-.12.07-.17.04-.05.08-.1.13-.13Z"/>
  <path class="cls-7" d="M125.1,199.01c.19,0,.25.17.42.33-.26.02-.48.22-.61-.14.11,0,.18-.07.19-.19Z"/>
  <path class="cls-1" d="M121.54,200.13c-.42.03-.55-.03-.4-.36.1.09.19.17.4.36Z"/>
  <path class="cls-10" d="M111.88,198.62c0,.06,0,.13,0,.19-.06.06-.12.12-.18.18l-.02.03c-.14-.03-.21-.12-.17-.26.06-.2.23-.13.37-.14Z"/>
  <path class="cls-4" d="M158.52,184.24c-.13-.12-.14-.24,0-.36.14.12.13.24,0,.36Z"/>
  <path class="cls-9" d="M119.36,199.48c.06-.08.12-.08.17,0-.06.08-.12.08-.17,0Z"/>
  <path class="cls-8" d="M119.32,153.47c.12.12.25.26.43.45-.09.91-.3,1.8-1.21,2.3-.78.43-1.33,1.08-1.8,1.8-.34.53-.64,1.03-1.34,1.2-.29.07-.55.39-.68.75-.13.35-.35.67-.65.91-.18.14-.27.34-.36.53-.51,1.05-1.25,1.92-2.01,2.79-.16.18-.31.38-.44.59-.56.89-1.24,1.04-2.24.59-.21-.2-.27-.48-.4-.75.08-.39.26-.78.51-1.06.29-.31.47-.66.59-1.04.24-.79.93-1.23,1.4-1.84.48-.62,1.05-1.16,1.6-1.72.36-.37.64-.77.49-1.3.16-.11.26-.23.37-.24.48-.02.82-.29,1.11-.62.46-.51,1.01-.95,1.39-1.54.22-.34.56-.61.84-.91.95.08,1.5-.75,2.41-.9Z"/>
  <path class="cls-7" d="M111.69,198.99c0-.13.06-.19.18-.18,0,.13-.05.19-.18.18Z"/>
</svg>