<?xml version="1.0" encoding="UTF-8"?>
<svg id="Livello_1" data-name="Livello 1" xmlns="http://www.w3.org/2000/svg" viewBox="0 0 274.41 274.41">
  <defs>
    <style>
      .cls-1 {
        fill: #000;
      }

      .cls-1, .cls-2 {
        stroke-width: 0px;
      }

      .cls-2 {
        fill: #fff;
      }
    </style>
  </defs>
  <path class="cls-1" d="M115.12,168.37c-.09.21-.18.41-.26.61h-.42c-.01-.12-.03-.25-.05-.43.2-.1.4-.2.6-.3.04.04.08.08.13.11Z"/>
  <path class="cls-1" d="M196.85,227.54c.14.06.23.09.39.16-.14.17-.24.29-.39.48v-.64Z"/>
  <path class="cls-1" d="M226.82,102.43h-.35c.08-.17.14-.33.25-.57.04.22.06.36.1.57Z"/>
  <path class="cls-1" d="M208.94,183.86c.09.05.19.12.36.23q-.42.03-.36-.23Z"/>
  <path class="cls-1" d="M197.2,227.42v-.17h.06v.17h-.06Z"/>
  <path class="cls-2" d="M187.77,172.76c.09.16.16.34.28.48.49.56,1.26.84,1.45,1.51.43.12.74.2,1.03.28.27.59.43,1.22,1.1,1.46.31.59.83.99,1.28,1.45.17.17.38.35.6.42.51.15.62.7,1.04.93.15.65.66.99,1.18,1.3.35.2.64.45.89.75.41.47.93.75,1.45.95.11.17.18.33.3.43.84.76,1.5,1.72,2.48,2.32.3.59.86.93,1.29,1.39.43.46.87.89,1.36,1.28.17.14.24.41.35.62.22.41.43.83.91,1.01.12.05.22.18.32.28.35.36.69.73,1,1.13.29.39.75.66,1.13.99.11.09.72,1.16.79,1.31.05.12.1.29.19.34.74.4,1.06,1.2,1.69,1.71.59.48,1.16.99,1.73,1.48v1h.77c.6.22.8.56.99.97.25.56.62,1.07,1,1.58.41.55.75,1.16.88,1.87.09.54.36,1.02.73,1.42.32.35.48.77.65,1.2.17.42.4.81.65,1.29.06.39.16.88.2,1.37.04.51-.08,1.05.03,1.55.12.52.2.99,0,1.51-.06.15.05.37.08.56.03.21.06.42.1.67-.54.1-.67.57-.97.87-.31.3-.67.57-.9.92-.53.78-1.14,1.48-1.89,2.04-.17.13-.36.28-.56.3-.38.05-.66.24-.92.49-.05.05-.16.04-.29.06-.15-.12-.31-.25-.47-.38-.57.25-1.26.16-2.21.04-.75-.1-1.36-.47-2.09-.67-.23-.25-.46-.5-.71-.77-.09.06-.18.11-.32.19-1.19-.9-2.41-1.82-3.6-2.71-.16-.04-.3-.06-.42-.12-.12-.06-.22-.24-.33-.24-.67-.03-.88-.49-1.12-1-.19-.39-.53-.71-.76-1.02-.76-.11-1.25-.55-1.74-.98v-.6c-.05-.04-.15-.1-.23-.17-.74-.63-1.4-1.35-2.23-1.88-.38-.25-.81-.43-1.17-.73-.21-.18-.38-.34-.54-.58-.25-.38-.15-.67.02-.99-.55-.51-1.06-1.08-1.66-1.51-.28-.2-.32-.57-.64-.69-.05-.47-.5-.56-.79-.76-.29-.19-.45-.41-.55-.75-.67-.29-1.2-.77-1.53-1.46-.13-.28-.75-.62-1.17-.7v-.34c-.26-.37-.61-.57-.78-.95-.1-.22-.42-.33-.64-.5-.24-.18-.48-.37-.72-.55-.22-.16-.43-.34-.66-.48-.11-.07-.26-.07-.5-.13-.23-.29-.6-.62-.8-1.03-.4-.81-1.17-1.1-1.92-1.64-.06-.16-.17-.46-.29-.77-1.04-.41-1.68-1.22-2.26-2.17-.77-.33-.99-.51-1.63-1.29-.05-.05-.13-.07-.19-.12-.29-.22-.55-.43-.7-.79-.22-.52-.54-.95-1.05-1.29-.58-.39-1.03-1-1.55-1.49-.22-.21-.45-.46-.72-.54-.62-.18-1.05-.65-1.59-.94-.1-.05-.17-.21-.22-.33-.22-.54-.6-.89-1.17-1.04-.24-.85-1-1.13-1.75-1.61-.04-.11-.11-.33-.19-.56-.11-.31-.31-.47-.65-.56-.59-.14-1.17-.36-1.82-.58.12-.32.23-.61.37-.96-.25-.17-.57-.37-.95-.62-.2-.68-1.28-.6-1.47-1.41-.66-.27-1.46-.34-1.64-1.23.06-.26.12-.52.19-.82-.37-.28-.74-.53-1.07-.83-.26-.24-.48-.54-.71-.82-.71-.88-1.24-1.91-2.1-2.66-.09-.08-.21-.15-.24-.25-.16-.61-.64-.86-1.14-1.15-.47-.27-.89-.64-1.36-.98.05-.53-.12-1.1.23-1.61.36-.09.73-.18,1.19-.29.05-.13.12-.33.21-.58h.74c.32-.48.64-.96.88-1.33.38-.1.64-.17.88-.24v-.63c.68-.54,1.37-1.1,2.02-1.61.1-.35.18-.63.28-1.01.69-.62,1.31-1.48,2.34-2-.08-.62.58-.92.8-1.48h.34c.26-.27.52-.54.75-.78.15-.57.41-1.02,1-1.28.64.74,1.46,1.33,2.04,2.18.25.38.74.59,1.06.93.56.62,1.1,1.26,1.58,1.93.24.34.47.67.86.83.32.13.48.38.68.65.22.29.6.47.9.7.2.15.45.28.57.48.34.61.92.99,1.35,1.51.54.67,1.23,1.19,1.82,1.81.36.38.79.7.95,1.25.05.17.25.3.39.44.38.36.76.71,1.14,1.06.38.35.77.7,1.15,1.06.39.38.78.76,1.15,1.16.16.17.36.13.52.2.38.19.72.48,1.09.7.34.21.7.39,1.05.58.53.29.94.78,1.41,1.19.19.17.39.34.58.51-.04.03-.08.06-.12.09ZM213.8,207.2c-.23.11-.41.2-.58.28v1.32h.3c-.12-.55.52-.95.29-1.6ZM211.95,209.6c.11.04.14.07.15.06.13-.08.26-.17.39-.26-.02-.02-.04-.05-.06-.06-.2-.11-.29.07-.4.17-.02.02-.04.04-.08.08Z"/>
  <path class="cls-2" d="M162.17,154.11c-.33.74-.68,1.48-1.39,1.99.07.74-.29,1.3-.94,1.45-.57.14-.92.47-1.32.84.11.34-.03.68-.24.91-.26.27-.5.56-.88.75-.55.27-1.24.43-1.51,1.13-.07.19-.33.3-.46.41.03.6-.29.9-.57,1.15-.38-.07-.7-.12-.96-.17-.66.49-1.39.76-1.79,1.41-.28.03-.51,0-.76.16-.38.24-.81.47-1.31.36-.5.36-1.19.45-1.54,1-.39.1-.71-.04-1.06-.11-.3-.06-.69-.19-.91.17-.75-.37-1.5-.11-2.18-.21-.39-.3-.76-.58-1.08-.83-.32.07-.58.13-.9.21-.1-.22-.19-.41-.28-.61.03-.02.05-.03.08-.05-.17-.14-.34-.29-.51-.43-.23-.2-.48-.38-.7-.6-.15-.15-.23-.37-.37-.53-.32-.34-.59-.67-.71-1.18-.09-.39-.5-.72-.8-1.12-.07-.61-.15-1.3-.24-1.98.13-.11.24-.21.36-.31v-.74c.32-.15.59-.32.89-.43.65-.23.66-.22,1.07-.84.8,0,1.44-.42,1.9-1.06.25-.35.49-.62.91-.72.1-.02.17-.15.24-.22.12-.34-.54-.4-.22-.87.23.2.43.37.66.58.68.2,1.25-.25,1.75-.59.49-.33.93-.8,1.28-1.34.19-.29.6-.43.91-.64.27-.19.54-.39.78-.6.51-.44,1.03-.87,1.51-1.34.5-.49,1-.98,1.43-1.55.36-.48.84-.89,1.35-1.26.49-.35.83-.9,1.23-1.37v-.69c.12-.06.23-.14.36-.18.64-.16,1.07-.63,1.29-1.16.37-.9.96-1.64,1.57-2.35.25-.29.16-.57.28-.84.24-.56.44-1.14.64-1.65.77-.38,1.12-1.18,1.92-1.58-.07-.48-.14-1.01-.21-1.55.04.03.09.06.13.08.05-.14.1-.28.18-.5.34.42.56.73.82,1.01.52.58,1.21.94,1.86,1.33.34.21.57.38.69.83.15.53.49,1.05,1,1.36,0,.31,0,.6,0,.89.22.22.44.45.67.67.3.3.54.61.55,1.07,0,.2.12.42.25.58.31.38.43.81.43,1.29,0,.39-.04.78.24,1.11.26.31-.01.66.15.96-.19.1-.34.17-.53.27h-.82c-.44.7-1.51.72-1.82,1.95-.03.86.61,1.85.88,3.02-.33.14-.69.3-1.09.47-.15.62-.78,1.01-.82,1.71,0,.11-.18.22-.29.3-.32.25-.65.48-1.05.77Z"/>
  <path class="cls-2" d="M129.72,159.19c-.4.16-.78.41-1.19.46-.38.05-.79-.12-1.29-.21.14-.13.2-.23.29-.28.56-.31,1.24-.36,1.66-.94.31.26.64.42.52.96Z"/>
  <path class="cls-2" d="M163.59,103.16c-.26.26-.46.46-.72.72-.01-.26-.02-.47-.04-.72h.75Z"/>
  <path class="cls-2" d="M141.08,164.06c-.2-.13-.33-.21-.51-.32.17-.12.3-.22.51-.36v.69Z"/>
  <path class="cls-2" d="M132.67,156.54v.51c-.09.02-.16.03-.3.06-.01-.17-.03-.33-.04-.5.11-.02.19-.04.34-.07Z"/>
  <path class="cls-2" d="M62.6,144.76c.11.17.17.28.23.36q-.26.05-.23-.36Z"/>
  <path class="cls-2" d="M157.7,140.51v-.29s.06,0,.08-.01c.02.1.04.19.06.29-.05,0-.1,0-.15,0Z"/>
  <path class="cls-2" d="M163.73,102.72c-.06.21-.09.31-.12.42-.03-.08-.06-.16-.07-.24,0-.02.06-.06.19-.18Z"/>
  <path class="cls-2" d="M172.67,155.59h.17v.06h-.17v-.06Z"/>
  <path class="cls-2" d="M56.13,92.98s-.09-.08-.14-.12l.05-.05s.08.09.12.14c-.01.01-.02.02-.03.03Z"/>
  <path class="cls-2" d="M193.18,207.02h-.17v-.06h.17v.06Z"/>
  <path class="cls-2" d="M221.43,209.13c-.24-.4-.13-.82-.15-1.23-.02-.31.08-.66-.02-.94-.21-.55-.16-1.18-.5-1.69.17-.41-.3-.55-.37-.89-.1-.51-.32-1.01-.6-1.47-.22-.36-.47-.74-.56-1.14-.15-.65-.56-1.11-.97-1.59-.03-.04-.06-.09-.1-.16v-.46c-.24-.11-.45-.21-.67-.3v-.89c-.1-.09-.24-.17-.3-.29-.35-.8-.92-1.43-1.53-2.04-.12-.12-.28-.22-.36-.37-.34-.6-.84-1.01-1.38-1.41-.44-.32-.91-.65-1.12-1.23-.1-.27-.3-.58-.54-.71-.87-.45-1.36-1.38-2.26-1.78-.11-.05-.2-.19-.27-.31-.35-.68-.73-1.33-1.43-1.72-.1-.05-.19-.15-.24-.24-.4-.78-1.05-1.37-1.65-1.99-.41-.42-.81-.86-1.16-1.33-.72-.97-1.54-1.75-2.47-2.33-.18-.11-.34-.29-.47-.47-.21-.28-.39-.58-.58-.88-.48,0-.4-.56-.72-.72-.05-.03-.07-.1-.12-.12-.61-.24-.99-.77-1.36-1.24-.23-.29-.47-.49-.75-.7-.28-.2-.57-.35-.75-.71-.17-.35-.55-.57-.99-.69-.45-.12-.91-.37-1.09-.81-.17-.43-.63-.41-.84-.73-.46.06-.7-.32-.86-.6-.3-.55-.85-.87-1.13-1.42-.07-.15-.31-.2-.46-.31-.27-.2-.6-.35-.77-.62-.56-.86-1.32-1.5-2.12-2.12-.52-.4-1.09-.85-1.38-1.41-.46-.88-1.19-1.39-1.96-1.92-.47-.33-1.05-.51-1.39-1.02-.03-.05-.16-.03-.22-.07-.51-.32-1.04-.62-1.45-1.09-.14-.16-.35-.26-.51-.38-.36-.86-.84-1.64-1.48-2.32-.74-.78-1.61-1.44-2.2-2.37-.15-.04-.38-.02-.45-.12-.5-.72-1.54-.95-1.77-1.92-.02-.07-.11-.15-.18-.18-.64-.3-1-.91-1.51-1.34-.23-.19-.62-.34-.67-.56-.1-.44-.5-.41-.73-.63-.47-.45-1.04-.81-1.47-1.14-.11-.54-.19-.96-.27-1.37-.36-.05-.56-.26-.65-.52-.12-.36-.41-.58-.59-.88-.37-.61-.95-1.16-.78-2.03.16-.2.36-.43.53-.68.23-.36.55-.73.15-1.18.22-.22.44-.45.72-.72-.06-.39-.1-.83-.21-1.25-.16-.59-.15-1.21-.34-1.78-.18-.53-.46-1.02-.63-1.55-.22-.69-.63-1.29-.8-2-.02-.08-.11-.15-.1-.21.04-.54-.29-.87-.62-1.21-.21-.22-.37-.49-.6-.7-.2-.19-.43-.38-.5-.64-.15-.6-.49-1.11-.99-1.37-.54-.28-.71-.89-1.24-1.12-.06-.41-.45-.54-.64-.83-.65.17-.96-.39-1.36-.53-.28-.47-.53-.88-.77-1.27v-1.19c.17-.25.32-.47.49-.72.04-.65.25-1.28.68-1.84.36-.46.63-.96.53-1.55.42-.45.58-1.01.8-1.52.13-.31.29-.64.25-1.02-.06-.6.21-1.1.51-1.67.02-.59-.03-1.26.15-1.92.09-.32.37-.58.35-.89-.04-.68.15-1.33.18-2,.02-.37.05-.72.36-.99-.07-.48.12-1-.17-1.47-.04-.06-.04-.21,0-.25.29-.23.13-.53.16-.8.04-.32-.08-.66.16-.97.08-.1.03-.33-.01-.5-.19-.74-.19-.74,0-1.51.03-.14-.04-.31-.08-.46-.11-.49-.48-.96-.07-1.47-.02-.48.03-.98-.09-1.43-.27-1-.3-.99-.09-2.24.03-.2.09-.47-.01-.59-.26-.32-.16-.66-.15-.98.06-1.04-.21-2.01-.47-3-.16-.63-.2-1.33.27-1.93.04-.37.03-.74-.21-1.09-.08-.12-.16-.36-.1-.45.29-.46.31-.9.18-1.44-.16-.64-.14-1.33-.2-1.99,0-.06.02-.14,0-.17-.42-.45-.48-1.07-.73-1.6-.09-.2-.44-.32-.45-.5-.06-.63-.52-1.06-.69-1.61-.25-.77-.7-1.44-1.02-2.17-.11-.28.08-.6-.19-.88-.2-.21-.3-.5-.41-.71-.55-.2-1.04-.27-1.19-.99-.12-.55-.35-1.11-.59-1.73-.27-.11-.6-.23-.87-.34-.08-.17-.16-.31-.17-.34.06-.42.11-.74.16-1.05-.32-.28-.63-.51-.89-.78-.28-.29-.32-.74-.54-1.06-.23-.35-.56-.63-.86-.95v-.24c-.42-.51-.84-.94-1.15-1.43-.26-.41-.54-.72-1.03-.84-.2-.05-.37-.22-.54-.33-.04-.82-.46-1.39-1.06-1.86-.26-.2-.57-.4-.73-.67-.31-.51-.72-.89-1.22-1.21-.2-.13-.37-.36-.45-.58-.23-.62-.9-.9-1.14-1.51-.5-.2-.81-.65-1.25-.93-.46-.29-.87-.66-1.33-.96-.37-.25-.73-.52-1.02-.86-.27-.32-.53-.64-.79-.96-.25-.32-.59-.52-.86-.83-.62-.71-1.32-1.35-1.98-2.01-.11,0-.22.03-.28,0-.45-.3-.96-.56-1.33-.94-.55-.57-1.39-.68-1.88-1.3-.49,0-.76-.39-1.12-.63-.59-.39-1.05-.96-1.73-1.23-.39-.16-.82-.27-1.17-.5-.31-.2-.6-.32-.95-.42-.46-.13-1.03-.22-1.18-.81-.09-.03-.16-.05-.24-.08-.5-.2-.88-.65-1.42-.72-.45-.06-.8-.29-1.18-.5-.59-.32-1.23-.53-1.81-.82-.66-.33-1.31-.54-2.04-.49-.08,0-.16-.01-.24-.02-.17-.18-.34-.34-.48-.49-1.16.05-2.17-.67-3.29-.52-.2-.2-.36-.36-.57-.58-.5-.04-1.05-.05-1.6-.12-.29-.04-.57-.14-.84-.26-.22-.1-.4-.28-.61-.42-.36,0-.74,0-1.11,0-.17,0-.34,0-.49-.06-.52-.16-1.04-.3-1.6-.29-1.55.02-3.1.01-4.65,0-.24,0-.47.01-.73-.1-.48-.22-1.03-.28-1.62-.42-.14.18-.3.37-.42.53h-1.61c-.35-.39-.8-.46-1.27-.51-.32-.03-.64-.09-.99-.13-.06.03-.15.11-.25.13-.8.21-1.63.23-2.44.34-.35.05-.71-.01-1.05.17-.29.15-.62.22-.96.19-.12-.01-.25.08-.39.1-.25.03-.59.16-.73.04-.28-.22-.54-.13-.81-.14-.43-.02-.86,0-1.23,0-1.18.68-2.42,1-3.7,1.22-.55.09-1.09.28-1.62.44-.15.05-.29.15-.42.24-.31.22-.61.46-.92.68-.09.06-.24.09-.27.17-.16.58-.76.7-1.11,1.07-.15.16-.42.21-.64.29-.04.01-.11-.1-.19-.16-.04.12-.08.22-.12.32-.76,0-1.32.43-1.82.93-.14-.09-.23-.16-.32-.22-.61.14-.92.69-1.37,1.04-1-.46-1.94-.02-2.96.2-.3.36-.6.81-.99,1.16-.37.32-.83.54-1.02,1.04-.03.08-.17.16-.26.18-.52.11-.9.48-1.32.75-.42.27-.85.58-1.13.98-.2.28-.48.41-.7.63-.16.16-.35.23-.49.48-.3.53-.95.8-1.2,1.4-.03.07-.21.06-.28.13-.6.61-1.31,1.14-1.52,2.06-.26.13-.54.24-.78.41-.25.19-.46.43-.67.67-.14.16-.23.37-.37.53-.68.74-1.14,1.66-1.94,2.3-.14.11-.24.3-.3.47-.16.43-.48.62-.89.75-.17.05-.41.16-.44.29-.07.32-.45.24-.56.53-.09.23-.31.51-.51.61-.27.14-.35.39-.52.57-.92.96-1.83,1.94-2.75,2.91-.51.54-.97,1.11-1.17,1.82-.11.4-.29.71-.58.97-.5.45-1.02.88-1.45,1.25-.1.45-.14.81-.27,1.13-.06.14-.3.21-.46.31-.05.03-.1.07-.12.12-.37.76-1.02,1.33-1.47,2.05-.57.93-1.23,1.8-1.91,2.79.28.65-.14,1.24-.53,1.8-.16.24-.24.46-.33.73-.24.76-.49,1.55-1.12,2.12-.04.03-.05.09-.04.08v.54c.14.06.24.11.33.15-.49.83-.9,1.62-1.42,2.34-.26.37-.05.61.03.86-.07.13-.16.21-.18.31-.09.4-.18.77-.48,1.1-.25.27-.46.62-.54.97-.16.63-.17,1.29-.68,1.8-.15.15-.18.45-.19.68-.04.61-.03,1.21-.16,1.83-.15.7-.05,1.44-.16,2.17-.19,1.25-.16,2.53-.21,3.8-.02.57,0,1.14,0,1.69-.38.33-.45.76-.52,1.2-.13.85.18,1.67.18,2.51,0,.07.09.13.12.21.08.23.23.46.21.68-.09.94.23,1.84.18,2.77-.02.48.09.95.37,1.31.27.35.25.77.46,1.11-.24.22,0,.48.06.61.34.68.34,1.39.32,2.11,0,.14,0,.29,0,.38.57.89.43,1.99,1.02,2.83.11.15.02.45.02.61.28.51.48.97.53,1.49.02.23.13.46.22.68.1.25.25.46.31.74.09.44.28.86.49,1.48-.03.38.08.93.52,1.38.12.12.12.35.18.52.15.4.3.79.45,1.19.03,0,.06-.01.09-.02v.69c.3.4.57.75.8,1.05.15,1.12.75,1.95,1.41,2.79-.07.35.1.66.31.95.08.11.19.23.2.35,0,.35.12.63.35.9.17.2.23.48.38.7.09.12.32.14.4.26.31.5.59,1.01.89,1.53.05.01.13.03.24.05v.46c.18.3.3.48.39.68.12.27.15.59.32.81.18.23.47.37.71.56.21.17.42.34.68.57.05.21.12.5.2.84.08.08.18.22.33.32.85.57,1.67,1.17,2.41,1.89.51.49.9,1.06,1.34,1.6.28.34.56.75,1.17.69.43.44.89.92,1.39,1.42h.53c.08.32.16.61.25.98.36.36.77.81,1.22,1.21.45.4.9.78,1.48.99.45.16.91.31,1.34.5.64.27,1.24.66,1.78,1.09.52.42,1.08.7,1.71.89.41.12.85.22,1.19.45.71.49,1.53.76,2.26,1.2.07.04.15.04.23.06.52.13,1.04.18,1.54.46.3.18.71.25,1.11.24.46-.01.95-.14,1.4.15.07.05.25-.06.38-.1.25-.08.51-.15.78-.24.1.16.2.32.29.47.23.12.47.24.76.39h.75c.5.25.92.5,1.47.56.35.04.64.15.99-.03.14-.07.4-.08.5,0,.33.3.71.08,1.06.18.38.23.77.47,1.19.73.12-.16.23-.3.33-.43.29.2.54.36.78.53h1.35c.12-.12.22-.22.31-.31.57-.18.95.38,1.5.33.54-.05,1.09,0,1.64-.01.53-.01,1.07.1,1.53-.19.9.41.95.41,2.16.37.24,0,.47-.04.74.09.37.18.81.14,1.18-.1.42.23.85.37,1.33.35.6-.02,1.21,0,1.81,0,.2,0,.44-.17.59-.1.45.22.92-.03,1.33.12.44.16.88.11,1.31.16.68.09,1.32-.2,1.93-.2.33-.17.62-.32.92-.47.04.04.1.14.16.14.38.03.78-.06,1.14.18.04.03.13.03.17,0,.41-.3.87-.12,1.31-.17.17-.02.35.02.5-.03.89-.32,1.8-.05,2.7-.14.49.37.91.11,1.36-.11.42-.21.95-.41,1.35-.21.56.29.93.01,1.31-.18.44-.02.87.04,1.22-.09.38-.15.69-.49,1.02-.74.28.22.59.08.84.12.65-.7,1.51-.81,2.29-1.05.05-.49.48-.49.75-.68.45.37.88.15,1.3-.03.1-.22.2-.44.27-.59.2-.1.35-.23.49-.22.63.02,1.14-.27,1.69-.52.44-.2.89-.42,1.4-.35.05,0,.1.04.21.09.05.13.11.3.21.57.48.53,1,1.17,1.23,1.97.14.47.39.75.77,1,.26.18.45.47.67.71.11.12.2.32.33.37.54.21.77.71,1.02,1.13.29.5.83.65,1.15,1.05.47-.02.78.33,1.18.48.42.17.84.34,1.23.56.21.12.39.3.6.42.3.17.61.39.99.22.03-.1.07-.2.09-.26.64.28,1.27.56,1.94.85.11-.06.23-.12.41-.21.22,0,.59.11.78-.02.33-.25.56-.1.81.02.52-.25,1.05-.41,1.61-.55.52-.13.97-.55,1.38-.81h.91c.5.55,1.03,1.03,1.69,1.38.29.15.5.47.74.72.26.26.56.5.78.8.19.26.48.42.7.62.26.23.56.45.81.71.23.23.43.5.61.78.4.62.9,1.16,1.29,1.79.42.68.98,1.25,1.59,1.74.59.48,1.21.88,1.7,1.51.74.97,1.63,1.81,2.46,2.72h.59c.47.84,1.09,1.48,1.96,1.87.15.07.26.21.38.33.23.22.42.48.68.66.37.26.73.55,1.23.56.26,0,.51.13.79.2-.21.21-.26.4-.14.62.16.29.34.53.63.73.57.4,1.08.88,1.6,1.34.14.12.17.39.32.46.62.29.89.85,1.21,1.39.23.38.5.78.86,1.01.41.27.71.63,1.07.94.19.16.38.32.6.42.49.24.83.63,1.06,1.1.12.25.16.55.5.65.08.03.15.16.19.26.08.22.14.46.2.67.12.03.21.03.27.07.81.69,1.64,1.35,2.41,2.08.69.65,1.36,1.32,2.18,1.82.27.16.27.46.34.74.22-.03.41-.05.6-.08.05-.01.1-.06.19-.12.01.27.02.46.03.66.75.55,1.16,1.63,2.31,1.42.28.28.53.53.79.79-.08.37.02.81.3.95.49.25.67.71,1.01,1.05.26.26.51.56.8.78.3.23.29.76.78.79.01.47.53.43.72.72.16.25.46.48.49.74.04.3.21.44.36.64.56.73,1.39,1.17,1.96,1.92.66.88,1.48,1.63,2.24,2.44.12.13.3.22.35.37.11.32.51.35.59.6.11.34.45.36.63.58.18.23.45.41.71.55.44.22.85.44,1.08.91.07.15.22.28.36.36.91.53,1.63,1.27,2.35,2.02.06.06.12.11.19.17h.68c.34.35.66.7,1.24.68.32.39.65.81.98,1.22.71-.1,1.22.44,1.93.53.12.15.29.35.43.52.83-.11,1.54.07,2.2.51.59-.06,1.19-.16,1.8-.18.61-.02,1.11-.53,1.67-.36.28-.2.48-.44.73-.5.98-.23,1.82-.75,2.69-1.22.32-.17.57-.35.53-.78.38-.38.74-.79,1.15-1.14.4-.33.49-.96,1.08-1.09-.09-.36.37-.27.44-.58.09-.4.51-.74.55-1.14.05-.48.35-.78.51-1.18.06-.15.04-.33.06-.49.06-.58-.12-1.17.16-1.75.09-.18.1-.5,0-.67ZM172.67,155.59h.17v.06h-.17v-.06ZM163.62,103.13s0-.01,0-.02c.05-.16.03-.08,0,.02ZM163.73,102.72c-.06.11-.11.19-.16.27-.01-.03-.02-.06-.03-.1,0-.02.06-.06.19-.18ZM163.47,103.16c-.24.36-.4.52-.59.72-.01-.26-.02-.47-.04-.72h.62ZM132.05,58.49h.06v.17h-.06v-.17ZM92.18,58.38c.25-.18.51-.37.74-.53.49.22,1.01.11,1.5.1.49-.01.98-.14,1.51-.22.3-.24.65-.51,1-.78.02.02.08.11.1.1.53-.22,1.19-.11,1.6-.63.61-.11,1.18-.68,1.88-.11.11-.17.21-.31.29-.43.61.09,1.16-.05,1.72.17.48.19,1.07-.12,1.58.14.33-.17.68-.09,1.03-.12.35-.03.74-.03,1.04-.18.58-.3,1.17-.07,1.75-.16.45.43.88-.02,1.29-.09.31-.06.67-.15.89-.05.48.22.94.14,1.41.13.58-.01,1.17.12,1.76-.1.2-.08.53.04.75.17.67.4,1.44.41,2.15.64.2.07.44.09.6.21.25.2.45.2.66-.03.19.28.35-.05.54-.02.22.04.46,0,.67,0,.25.27.55.33.9.35.7.05,1.33.37,1.98.63.4.16.8.3,1.33.5.26.43.86.57,1.43.76.6.19,1.14.46,1.66.9.09-.06.21-.13.32-.2.66.34,1.32.69,1.95,1.01.56-.19,1.06-.56,1.64-.1.24.68,1.05.71,1.55,1.15h.91c.13.23.28.49.47.83.45.16,1,.35,1.55.56.25.1.51.2.71.37.3.25.6.42,1,.52.29.07.61.18.9.31.1.04.22,0,.33,0,.25.25.5.5.75.75-.02.39.18.67.57.79.62.2,1.19.47,1.69.92.25.22.62.29.92.46.53.3,1.03.64,1.33,1.21.21.4.54.73.76,1.15.17.31.54.61.89.72.68.2,1.07.76,1.59,1.15.66.5,1.27,1.07,1.94,1.57.26.19.39.53.62.77.69.69,1.3,1.46,1.91,2.22.43.54.91,1.07,1.54,1.44.31.18.61.55.72.89.2.65.7,1.05,1.08,1.53.71.91,1.55,1.73,2.36,2.61.06.77.42,1.51.94,2.05.67.69,1.09,1.49,1.51,2.32.25.49.49.98.9,1.34.32.29.54.68.62,1.03.14.62.55,1.1.73,1.69.17.57.4,1.12.83,1.55.25.93.89,1.73.88,2.74,0,.1.05.21.09.31.18.47.34.95.24,1.45-.07.36.22.63.18.96-.04.33.11.58.25.85.16.29.13.58.02.87-.06.15-.13.35-.08.47.33.85.07,1.73.17,2.61h-.41c-.44-.76-.88-1.5-1.33-2.26.03-.04.07-.11.12-.18-.23-.43-.07-.91-.15-1.49-.27-.31-.61-.71-1.01-1.19,0-.01.04-.15,0-.23-.13-.24-.32-.44-.44-.68-.1-.21-.09-.48-.2-.69-.2-.38-.45-.74-.7-1.14-.07-.4-.15-.86-.21-1.19-.46-.73-.87-1.36-1.34-2.1-.2-.09-.52-.24-.56-.68-.04-.41-.3-.68-.69-.82-.35-.13-.59-.34-.74-.71-.11-.27-.33-.5-.54-.72-.43-.46-.89-.9-1.38-1.38-.05,0-.11,0-.18,0-.06,0-.12,0-.19-.01-.24-.24-.49-.49-.7-.7-.09-.29-.18-.54-.26-.78-.11-.05-.23-.06-.31-.13-.87-.81-1.74-1.63-2.61-2.43-.35-.32-.68-.72-1.1-.89-.44-.18-.79-.46-1.19-.68-.42-.23-.72-.55-1-.89-.33-.39-.72-.69-1.14-.96-.39-.26-.72-.61-1.09-.9-.82-.65-1.62-1.34-2.48-1.93-.36-.25-.84-.31-1.32-.47-.28-.49-.61-1.01-1.28-1.1-.13-.02-.27-.17-.41-.13-.05.01-.09.05-.14.12-.21-.09-.41-.19-.62-.28-.21-.09-.42-.17-.63-.22-.26-.05-.44-.15-.55-.33-.26-.44-.63-.62-1.21-.54.1-.16.16-.23.21-.31,0-.47-.42-.37-.67-.46-.25-.09-.53-.11-.85-.17-.25-.3-.56-.62-.8-.99-.21-.33-.51-.49-.83-.68-.52-.31-1.05-.6-1.46-1.06-.14-.16-.35-.25-.53-.37-.65-.44-1.28-.89-1.95-1.31-.49-.3-.94-.62-1.5-.76-.67-.17-1.16-.65-1.78-.91-.39-.16-.81-.26-1.21-.41-.25-.09-.48-.24-.72-.34-.2-.08-.41-.14-.62-.17-.22-.03-.46.06-.62-.18-.77.11-1.15-.56-1.85-.86-.55.09-1.12-.18-1.74-.46-.62-.28-1.22-.67-1.92-.76-.34-.36-.77-.06-1.15-.14-.55-.33-1.11-.66-1.71-1.03-.21-.07-.55-.09-.77-.25-.35-.27-.62-.11-.88.03-.24-.06-.44-.11-.65-.16-.23-.06-.47-.14-.7-.17-.23-.03-.46,0-.69,0h-.72c-.03-.16-.05-.32-.08-.5h-1.01c-.36-.25-.73-.37-1.16-.38-.64,0-1.28-.06-1.91-.18-.33-.06-.61-.32-.93-.46-.39-.17-.78-.39-1.24-.08-.16.1-.44.02-.65.02-.17.14-.31.27-.44.38-.09-.04-.17-.05-.18-.08-.07-.2-.12-.4-.18-.61h-.88c-.36-.21-.68-.43-1.1-.36-.31-.35-.84,0-1.15-.35-.3-.35-.78,0-1.08-.3-.39.25-.74-.12-1.14-.05-.38.06-.76-.04-1.14-.13-.38-.08-.81.11-1.21.14-.4.03-.8,0-1.2,0-.08-.08-.17-.17-.25-.25v-.37ZM99.18,60.9v.17h-.06v-.17h.06ZM62.6,144.76c.11.17.17.28.23.36q-.26.05-.23-.36ZM67.81,150.19h-.06v-.17h.06v.17ZM125.57,160.35h-1.39c-.25.17-.5.34-.78.53h-1.78c-.27.18-.49.33-.76.52-.81,0-1.68.05-2.53-.01-.8-.06-1.56.12-2.34.21-.46.05-.89.33-1.4.53v.63h-.76c-.12-.09-.2-.16-.29-.23.12-.12.22-.22.33-.33-.02-.04-.04-.1-.07-.11-.31-.09-.62-.17-.93-.25-.1-.03-.2-.08-.31-.09-.14-.02-.32-.06-.42,0-.49.33-1.1.26-1.64.47,0,0-.04-.07-.08-.07-.83-.1-1.67-.4-2.48-.2-.56.14-1.11.12-1.66.14-.13,0-.25-.07-.42-.11-.06.03-.17.09-.27.15-.09-.08-.15-.14-.22-.2-.06.05-.12.11-.16.15-.28-.05-.55-.1-.81-.15-.37-.07-.76-.11-1.12-.21-.69-.18-.68-.19-1.51.02-.08.02-.18.04-.25,0-.82-.34-1.68-.11-2.52-.16-.36-.02-.72-.02-1.05-.18-.17-.08-.33-.18-.62-.34-.68-.12-1.54.17-2.38-.15-.18.04-.45.2-.58.13-.55-.31-1.11-.08-1.66-.14-.08,0-.25.15-.26.15-.19-.27-.49-.08-.71-.18-.53-.25-1.09-.37-1.68-.31-.24.02-.42-.08-.62-.18-.61-.31-1.23-.51-1.94-.55-.56-.04-1.1-.37-1.63-.61-.37-.02-.78-.15-1.1.14-.33-.17-.64-.33-1-.52-.46-.06-.98-.11-1.5-.19-.13-.02-.27-.08-.35-.18-.3-.35-.72-.48-1.11-.67-.33-.17-.65-.35-1.06-.38-.32-.02-.62-.29-1-.48h-.81c-.08-.13-.17-.27-.26-.41-.4.06-.72.11-1.16.18-.42-.39-.89-.9-1.45-1.32-.55-.41-.84-1.08-1.45-1.37-.27.07-.54.13-.79.19-.23-.35-.38-.76-.67-.94-.35-.22-.48-.56-.73-.82h-.38c-.19-.26-.53-.41-.63-.81-1.01-.16-1.41-.9-1.52-1.83-.7-.58-1.55-.96-2.05-1.76.07-.07.11-.11.17-.17-.41-.36-.71-.85-1.31-.96-.11-.24-.19-.51-.56-.53.01-.43-.26-.74-.56-.99-.57-.49-1.17-.94-1.43-1.72-.1,0-.21-.01-.33-.02-.4-.32-.8-.64-1.25-1,.18-.19.31-.33.44-.47-.08-.23-.15-.46-.23-.71-.35-.18-.73-.37-1.12-.57.18-.33.16-.65.13-.97-.26-.2-.53-.4-.78-.61-.26-.22-.39-.51-.43-.86-.03-.29-.13-.58-.26-.84-.07-.13-.04-.37-.34-.39-.13,0-.25-.33-.37-.51-.12-.18-.22-.37-.39-.66.12-.5-.24-.97-.51-1.48.05-.07.11-.15.14-.19-.25-.25-.47-.47-.6-.6-.12-.52-.21-.89-.32-1.34-.08-.05-.24-.15-.44-.28,0-.26-.1-.59.13-.88-.29-.26-.1-.59-.13-.89-.03-.34,0-.68,0-.97-.27-.3-.63-.36-.79-.75-.11-.28-.53-.43-.86-.68.18-.29.31-.51.44-.73-.19-.17-.38-.34-.48-.44-.08-.66.07-1.19-.3-1.67-.18-.23-.18-.61-.24-.93-.02-.11-.01-.23.02-.34.02-.07.1-.13.15-.18,0-.48-.49-.69-.55-1.18-.07-.57-.15-.74-.15-1.17,0-.32-.09-.64-.13-.92-.17-.06-.27-.1-.37-.13,0-.56,0-1.1,0-1.64,0-.36.02-.73-.24-1.02-.17-.18-.12-.38-.1-.56.07-.6-.18-1.12-.38-1.66-.09-.22-.18-.44-.28-.68.36-.6.15-1.42.66-2.09-.12-.07-.26-.15-.35-.2,0-.75.05-1.42-.01-2.07-.07-.63.26-1.21.17-1.93l-.5-.5c.09-.18.2-.39.34-.65q.02-1.27-.37-2.01c.38-.18.33-.56.42-.91.08-.33.25-.65.42-.94.16-.28.38-.53.61-.86-.13-.08-.28-.12-.36-.23-.1-.12-.13-.29-.22-.5.32-.3.61-.67.52-1.21.19-.16.39-.32.46-.38.1-.73.19-1.31.24-1.67.3-.61.5-1.04.72-1.49-.39-.41-.23-.85.05-1.18.28-.34.32-.74.48-1.17.61-.63.87-1.12.69-1.63-.12-.18-.16-.22-.21-.26.02-.02.04-.04.05-.05.04.05.08.09.12.14l-.03.03c.15-.07.21-.21.26-.35.03.03.06.06.09.09v-.43c.26-.37.48-.69.7-1,.2-.29.39-.59.58-.88.2-.32.53-.62.58-.96.07-.48.3-.86.46-1.29.13-.02.27-.03.37-.04.23-.42.45-.81.66-1.21.78-1,1.72-1.9,2.32-3.33.18-.21.62-.49.82-.98.18-.43.76-.4.95-.89.14-.37.48-.67.75-.98.83-.95,1.66-1.9,2.49-2.85.04-.05.03-.15.05-.29.73.2,1.44.19,2.18-.24.1-.29.21-.7.37-1.1.09-.22.2-.45.36-.62.59-.62,1.21-1.22,1.85-1.86.13.1.23.18.37.29-.04.36.03.71-.14,1.11-.16.38.15.83.24,1.25.06.29.31.48.16.9-.17.47-.43.73-.82.94-.09.05-.2.07-.3.11,0,.13-.04.27,0,.35.64,1.04.35,2.04-.09,3.04-.33.75-.7,1.49-.92,2.29-.03.11-.04.22-.03.33.07.68-.11,1.3-.34,1.93-.16.45-.25.93-.35,1.41-.09.42-.2.83-.33,1.24-.12.36-.25.73-.19,1.13.06.41-.15.8-.19,1.22-.07.78-.11.77.01,1.59.05.36-.08.76-.15,1.21.09.06.23.15.35.24-.14.25-.25.43-.36.63.17.47.27.95.05,1.49-.16.4-.3.83-.23,1.29.04.22.03.46,0,.69-.02.18-.08.37-.17.53-.16.28-.17.57-.17.88,0,.63,0,1.26,0,1.9v1.29c.39.26-.02.78.33,1.08.09.07.01.33.01.5,0,1.01-.02,2.01,0,3.02.03,1.18.11,2.37.17,3.55.22.17-.05.47.16.66.04.03-.08.23-.12.33.09.22.27.44.26.66-.03.76.52,1.4.39,2.17-.05.29.14.52.3.73.15.21.36.37.58.59-.04.13-.07.28-.12.43-.1.28-.1.51.1.77.26.34.43.72.55,1.15.15.56.45,1.08.56,1.66.11.55.21,1.1.44,1.63.23.54.41,1.11.83,1.55.46.49.46,1.14.6,1.81.05.05.13.19.26.24.56.23.8.74,1.01,1.21.36.82.98,1.47,1.33,2.29.22.51.72.92,1.13,1.34.84.85,1.34,1.93,2.08,2.85.13.16.15.39.27.73.5.33,1,.84,1.19,1.6.81.24,1.29.78,1.48,1.58.81.48,1.49,1.04,1.96,1.92.48.88,1.09,1.74,2.03,2.25.11.06.27.06.43.09.17.24.52.39.58.69.34.24.68.43.95.68.56.54,1.11,1.06,1.84,1.38.34.15.59.53.91.82h.48c.21.22.44.37.49.74.08.6.65.92,1.1,1.13.56.26.94.68,1.3,1.01.3.1.53.17.74.24.59.84,1.62,1.13,2.26,1.91.97-.16,1.78.34,2.63.68.07.03.17.04.22.09.44.52,1.02.82,1.64,1.07.42.03.84.06,1.22.37.21.18.53.23.81.32.27.09.65.02.65.48.31.14.62.37.95.41.6.07,1,.5,1.71.7h.49c.43.36.89.61,1.43.75.18.05.36.09.55.13.56.1,1.12.23,1.52.7.15.17.32.33.47.47.37.16.52-.13.67-.26.31.16.59.32.88.46.21.1.44.19.66.28.27.11.52.28.85.25.12-.01.25.08.38.12.45.13.9.22,1.37.24.65.02,1.29.18,1.93.3.32.06.42.51.8.37.62.26,1.27.15,1.91.18.33.17.66.34.99.51.05-.03.1-.05.15-.07.1-.05.19-.09.29-.11.15-.03.31,0,.48.12.12.08.32.06.49.06.49,0,.97,0,1.44.09.53.18,1.06.35,1.65.55.16.68-.67.64-.9,1.08ZM129.72,159.19c-.4.16-.78.41-1.19.46-.38.05-.79-.12-1.29-.21.14-.13.2-.23.29-.28.56-.31,1.24-.36,1.66-.94.31.26.64.42.52.97ZM132.67,157.05c-.09.02-.16.03-.3.06-.01-.17-.03-.33-.04-.5.11-.02.19-.04.34-.07v.51ZM136.9,153.84c-.6.16-1.28.21-1.8.66-.16.14-.37.19-.61.19-.55.01-1.1.09-1.65.16-.18.02-.36.1-.53.17-.53.23-1.1.14-1.65.17-.81.04-1.62.13-2.43.16-.27.01-.56.11-.8-.15-.06-.06-.3-.03-.39.04-.26.22-.59.17-.81.09-.81-.29-1.63-.09-2.43-.15-.06,0-.11,0-.17-.01-.27-.29-.57-.51-1-.51-.1,0-.21-.05-.3-.1-.52-.26-1.07-.25-1.63-.24-.34,0-.69,0-.96,0-.18.09-.29.15-.43.21-.23-.12-.45-.23-.74-.38-.55.09-1.13-.11-1.71-.39-.35-.17-.78-.2-1.17-.3-.28-.07-.56-.17-.83-.29-.67-.09-1.42.12-1.9-.57h-1.05c-.18-.23-.63-.17-.6-.6-.29-.15-.49-.26-.71-.36-.1-.04-.24-.1-.31-.06-.53.31-1.11.09-1.64.17l-.26-.26v-.68c-.17-.09-.32-.23-.49-.26-.17-.02-.36.08-.6.14-.05-.03-.17-.1-.34-.19-.08.14-.14.28-.23.39-.09.11-.2.21-.32.32h-.65c.07-.25.12-.48.2-.77-.33-.28-.59-.73-1.16-.78-.1,0-.21-.07-.28-.15-.38-.44-.85-.61-1.39-.53-.97-.84-1.39-1.05-1.8-.85-.21-.11-.44-.26-.69-.36-.25-.1-.51-.15-.88-.26-.21-.76-1.04-1.01-1.68-1.45-.48-.33-.96-.65-1.35-1.08-.23-.25-.51-.4-.83-.5-.25-.09-.47-.29-.72-.32-.32-.03-.56-.17-.82-.33-.23-.14-.59-.2-.68-.39-.19-.41-.71-.43-.85-.92-.07-.26-.46-.45-.75-.61-.59-.34-.67-.43-1.19-1.02-.53-.6-1.13-1.14-1.7-1.71-.31-.1-.72,0-.83-.47,0-.04-.15-.05-.22-.08-.69-.31-1.1-.87-1.54-1.46-.41-.56-.74-1.26-1.48-1.55-.09-.04-.14-.22-.19-.34-.15-.38-.39-.7-.65-1.01-.29-.34-.56-.69-.86-1.02-.23-.26-.48-.5-.73-.73-.36-.34-.59-.72-.53-1.13-.54-.51-1.02-.94-1.46-1.4-.14-.14-.19-.37-.28-.55.07-.07.11-.11.1-.1-.14-.14-.29-.29-.53-.53h-.24c-.37-.22-.72-.46-1.02-.77-.3-.31-.54-.69-.69-1.19.14-.76-.25-1.59-.4-2.48-.72-.63-1.09-1.62-2.03-2.11.12-1.04-.45-1.7-1.19-2.43,0-.03-.05-.21-.09-.34.04-.34.07-.66.11-1-.13,0-.24-.01-.34-.02-.1,0-.2-.01-.3-.02-.08-.25-.17-.51-.25-.75.06-.06.11-.13.18-.2-.23-.16-.46-.31-.68-.45v-.42c.12-.04.22-.08.31-.11-.4-.48-.79-.95-1.19-1.43v-.67s.05.02.08.02c.15-.48.31-.96.48-1.48-.17-.27-.34-.54-.52-.82.03-.03.09-.1.18-.2-.17-.27-.34-.54-.56-.9-.05-.27.05-.65-.15-1.03-.17-.32.06-.69.18-1.02-.57-.69-.67-1.44-.45-2.26.06-.21.16-.53.06-.64-.32-.35-.07-.79-.29-1.19-.18-.33.02-.85-.05-1.27-.09-.55-.28-1.09-.48-1.8,0,0-.01.02-.02.03-.01.01,0,.06,0-.12,0,.03.02.06.03.09.18-.17.23-.43.13-.58-.37-.58.08-1.29-.34-1.91.36-.57.41-1.25.34-1.97.3-.21.2-.72.72-.84-.1-.41.14-.85-.17-1.27-.1-.13-.09-.44,0-.58.29-.46.07-.94.2-1.46-.14-.08-.28-.17-.38-.23v-1.16c.33-.13.39-.5.44-.79.09-.59.53-1.2.07-1.82.04-.44.09-.87.13-1.3.32-.29.62-.56.92-.84-.07-.21-.19-.38-.18-.55.01-.2.11-.42.22-.59.1-.17.28-.29.46-.47-.13-1,.29-1.92.69-2.84.35-.81.61-1.64.86-2.49.2-.69.43-1.37.69-2.04.17-.43.46-.81.94-1.03.17-.29.36-.61.6-1.01v-.4c.18-.12.36-.23.46-.29-.04-.7-.13-1.31-.1-1.91.03-.55.16-1.09.19-1.65.02-.34.3-.67.51-.98.12-.19.32-.33.43-.44-.04-.22-.13-.41-.09-.57.06-.2.19-.4.35-.54.57-.53.97-1.19,1.36-1.85.07-.12.18-.21.28-.32.3-.33.62-.63.87-1.01.25-.39.62-.72,1.1-.86.54-.17.92-.66,1.5-.74.13-.02.26-.13.38-.11.3.05.52-.15.8-.21.15-.6.72-.68,1.18-.82.36-.1.71-.21,1.06-.35.32-.13.74.14,1.04-.19.55.08,1.11-.1,1.68.11.31.11.78,0,1.08-.17.31-.18.61-.01.89-.15.24-.12.48-.25.74-.29.31-.05.65.06.94-.03.72-.2,1.45-.13,2.17-.16.87-.04,1.67.27,2.51.39.16.02.31.12.46.13.37.02.8-.11,1.11.04.35.17.75,0,1.03.21.32.24.76-.1,1.01.27.48-.09.93.16,1.39.17.57.01,1.04.24,1.56.52.33-.03.74.12,1.09-.2.43.41.94.59,1.5.54.57-.05,1.09.09,1.58.36.23.13.46.17.71.17.37,0,.74,0,1.11,0,.05.25.47.05.45.43,0,.08.36.26.55.25.91-.07,1.67.42,2.52.6.51.11.91.45,1.39.6.48.15.96.33,1.42.54.46.21.9.51,1.38.61.56.12,1.09.28,1.64.42.45.12.91.23,1.39.18.32-.03.59.1.81.34.35.37.79.55,1.26.71.41.13.82.3,1.11.64.04.04.07.1.12.12.39.17.82.27,1.17.5.36.24.61.65,1.05.8,1.08.35,1.9,1.08,2.69,1.88.53,0,.97.12,1.24.7.23.48.58.87,1.17,1.07.36.12.8.08,1.11.46.24.29.69.39,1.03.6.5.31,1.13.36,1.58.79.08.08.3.13.44.16.33.07.68.02,1.05.02.27.34.49.84.85.99.74.31,1.24.97,1.98,1.25.08.03.17,0,.33,0,.24.32.51.68.79,1.02.11.13.22.29.37.36.72.36,1.23,1,1.91,1.42.24.14.41.4.62.6.69.67,1.48,1.19,2.33,1.66.59.33,1.22.61,1.69,1.13.19.22.48.35.73.52.11.08.25.12.34.22.56.62,1.13,1.23,1.6,1.92.08.11.2.19.3.28.46.42,1,.77,1.36,1.27.83,1.14,1.56,2.34,2.33,3.51.33.51.46.86.49,1.37.39.22.71.54.84.99.03.1-.08.25-.15.44.19.07.41.15.63.22.21.06.41.12.76.22.4.23.52.81.64,1.31.19.81.49,1.58.76,2.36.03.07.11.14.12.21.08.58.39,1.05.73,1.51.39.52.4.83.17,1.37.17.54.33,1.02.48,1.5.22.69.08,1.47.52,2.11,0,.66.03,1.32,0,1.98-.04.82.36,1.52.53,2.28.02.1.12.18.12.18-.08.54-.15.99-.25,1.59,0-.01.12.13.11.28-.05.88.08,1.74.19,2.6.04.32.08.66.23.94.15.27.05.42-.04.67-.21.6-.54,1.18-.54,1.85,0,.4.03.77.31,1.03-.15.36-.36.69-.43,1.04-.13.74-.18,1.49-.28,2.3-.58.49-.48,1.39-.98,2.08.04.72-.05,1.46-.44,2.17-.16.29-.07.72-.1,1.05-.16.31-.31.59-.49.96.09.53-.19,1.02-.53,1.49-.13.18-.62,1.46-.68,1.7-.03.13-.14.24-.16.36-.11.52-.55.92-.55,1.51,0,.24-.28.52-.5.73-.61.58-.93,1.34-1.37,2.02-.32.51-.62,1.03-1.05,1.46-.34.34-.69.7-.69,1.27,0,.21-.21.43-.36.62-.44.55-1.08.91-1.4,1.58-.29.61-.93.95-1.22,1.56-.04.09-.16.17-.26.19-.65.13-.88.71-1.21,1.15-.57.77-1.21,1.46-2.04,1.95-.21.12-.49.18-.62.36-.42.55-1.1.74-1.58,1.2-.15.14-.35.27-.55.34-.39.14-.58.39-.59.84h-.6c-.22.3-.44.59-.67.9-.7-.17-1.24.29-1.77.61-.28.17-.53.51-.8.75-.81.7-1.73,1.15-2.77,1.42ZM157.85,140.5s-.1,0-.15,0v-.29h.08c.02.08.04.18.06.28ZM141.08,164.06c-.2-.13-.33-.21-.51-.32.17-.12.3-.22.51-.36v.69ZM155.43,161.59c.03.6-.29.9-.57,1.15-.38-.07-.7-.12-.96-.17-.66.49-1.39.76-1.79,1.41-.28.03-.51,0-.76.16-.38.24-.81.47-1.31.36-.5.36-1.19.45-1.54,1-.39.1-.71-.04-1.06-.11-.3-.06-.69-.19-.91.17-.75-.37-1.5-.11-2.18-.21-.39-.3-.76-.58-1.08-.83-.32.07-.58.13-.9.21-.1-.22-.19-.41-.28-.61.03-.02.05-.03.08-.05-.17-.14-.34-.29-.51-.43-.23-.2-.48-.38-.7-.6-.15-.15-.23-.37-.37-.53-.32-.34-.59-.67-.71-1.18-.09-.39-.5-.72-.8-1.12-.07-.61-.15-1.3-.24-1.98.13-.11.24-.21.36-.31v-.74c.32-.15.59-.32.89-.43.65-.23.66-.22,1.07-.84.8,0,1.44-.42,1.9-1.06.25-.35.49-.62.91-.72.1-.02.17-.15.24-.22.11-.34-.54-.4-.22-.87.22.2.43.37.66.58.68.2,1.25-.25,1.75-.59.49-.33.93-.8,1.28-1.34.19-.29.6-.43.91-.64.27-.19.54-.39.78-.6.51-.44,1.03-.87,1.51-1.34.5-.49,1-.98,1.43-1.55.36-.48.84-.89,1.35-1.26.49-.35.83-.9,1.23-1.37v-.69c.12-.06.23-.14.36-.18.64-.16,1.07-.63,1.29-1.16.37-.9.96-1.64,1.57-2.35.25-.29.16-.57.28-.84.24-.56.44-1.14.64-1.65.77-.38,1.12-1.18,1.92-1.58-.07-.48-.14-1.01-.21-1.55.04.03.09.06.13.08.05-.14.1-.28.18-.5.34.42.56.73.82,1.01.52.58,1.21.94,1.86,1.33.34.21.57.38.69.83.15.53.49,1.05,1,1.36v.89c.22.22.44.45.67.67.3.3.54.61.55,1.07,0,.2.12.42.25.58.31.38.43.81.43,1.29,0,.39-.04.78.24,1.11.26.31-.01.66.15.96-.19.1-.34.17-.53.27h-.82c-.44.7-1.51.72-1.82,1.95-.03.86.61,1.85.88,3.02-.33.14-.69.3-1.09.47-.15.62-.78,1.01-.82,1.71,0,.11-.18.22-.29.3-.32.25-.65.48-1.05.77-.33.74-.68,1.48-1.39,1.99.07.74-.29,1.3-.94,1.45-.57.14-.92.47-1.32.84.11.34-.03.68-.24.91-.26.27-.5.56-.88.75-.55.27-1.24.43-1.51,1.14-.07.19-.33.3-.46.41ZM193.18,207.02h-.17v-.06h.17v.06ZM216.71,212.42c-.31.3-.67.57-.9.92-.53.78-1.14,1.48-1.89,2.04-.17.13-.36.28-.56.3-.38.05-.66.24-.92.49-.05.05-.16.04-.29.06-.15-.12-.31-.25-.47-.38-.57.25-1.26.16-2.21.04-.75-.1-1.36-.47-2.09-.67-.23-.25-.46-.5-.71-.77-.09.06-.18.11-.32.19-1.19-.9-2.41-1.82-3.6-2.71-.16-.04-.3-.06-.42-.12-.12-.06-.22-.24-.33-.24-.67-.03-.88-.49-1.12-1-.19-.39-.53-.71-.76-1.02-.76-.11-1.25-.55-1.74-.98v-.6c-.05-.04-.15-.1-.23-.17-.74-.63-1.4-1.35-2.23-1.88-.38-.25-.81-.43-1.17-.73-.21-.18-.38-.34-.54-.58-.25-.38-.15-.67.02-.99-.55-.51-1.06-1.08-1.66-1.51-.28-.2-.32-.57-.64-.69-.05-.47-.5-.56-.79-.76-.29-.19-.45-.41-.55-.75-.67-.29-1.2-.77-1.53-1.46-.13-.28-.75-.62-1.17-.7v-.34c-.26-.37-.61-.57-.78-.95-.1-.22-.42-.33-.64-.5-.24-.18-.48-.37-.72-.55-.22-.16-.43-.34-.66-.48-.11-.07-.26-.07-.5-.13-.23-.29-.6-.62-.8-1.03-.4-.81-1.17-1.1-1.92-1.64-.06-.16-.17-.46-.29-.77-1.04-.41-1.68-1.22-2.26-2.17-.77-.33-.99-.51-1.63-1.29-.05-.05-.13-.07-.19-.12-.29-.22-.55-.43-.7-.79-.22-.52-.54-.95-1.05-1.29-.58-.39-1.03-1-1.55-1.49-.22-.21-.45-.46-.72-.53-.62-.18-1.05-.65-1.59-.94-.1-.05-.17-.21-.22-.33-.22-.54-.6-.89-1.17-1.04-.24-.85-1-1.13-1.75-1.61-.04-.11-.11-.33-.19-.56-.11-.31-.31-.47-.65-.56-.59-.14-1.17-.36-1.82-.58.12-.32.23-.61.37-.96-.25-.17-.57-.37-.95-.62-.2-.68-1.28-.6-1.47-1.41-.66-.27-1.46-.34-1.64-1.23.06-.26.12-.52.19-.82-.37-.28-.74-.53-1.07-.83-.26-.24-.48-.54-.71-.82-.71-.88-1.24-1.91-2.1-2.66-.09-.08-.21-.15-.24-.25-.16-.61-.64-.86-1.14-1.15-.47-.27-.89-.64-1.35-.98.05-.53-.12-1.1.23-1.61.36-.09.73-.18,1.19-.29.05-.13.12-.33.21-.58h.74c.32-.48.64-.96.88-1.33.38-.1.64-.17.88-.24v-.63c.68-.54,1.37-1.1,2.02-1.61.1-.35.18-.63.28-1.01.69-.62,1.31-1.48,2.34-2-.08-.62.58-.92.8-1.48h.34c.26-.27.52-.54.75-.78.15-.57.41-1.02,1-1.28.64.74,1.46,1.33,2.04,2.18.25.38.74.59,1.06.93.56.62,1.1,1.26,1.58,1.93.24.34.47.67.86.83.32.13.48.38.68.65.22.29.6.47.9.7.2.15.45.28.57.48.34.61.92.99,1.35,1.51.54.67,1.23,1.19,1.82,1.81.36.38.79.7.95,1.25.05.17.25.3.39.44.38.36.76.71,1.14,1.06.38.35.77.7,1.15,1.06.39.38.78.76,1.15,1.16.16.17.36.13.52.2.38.19.72.48,1.09.7.34.21.7.39,1.05.58.53.29.94.78,1.41,1.19.19.17.39.34.58.51-.04.03-.08.06-.12.09.09.16.16.34.28.48.49.56,1.26.84,1.45,1.51.43.12.74.2,1.03.28.27.59.43,1.22,1.1,1.46.31.58.83.99,1.28,1.45.17.17.38.35.6.42.51.15.62.7,1.04.93.15.65.66.99,1.18,1.3.35.2.64.45.89.75.41.47.93.75,1.45.95.11.17.18.33.3.43.84.76,1.5,1.72,2.48,2.32.3.59.86.93,1.29,1.39.43.46.87.89,1.36,1.28.17.14.24.41.35.62.22.41.43.83.91,1.01.12.05.22.18.32.28.35.36.69.73.99,1.13.29.39.75.66,1.13.99.11.09.72,1.16.79,1.31.05.12.1.29.19.34.74.4,1.06,1.2,1.69,1.71.59.48,1.16.99,1.73,1.48v1h.77c.6.22.8.56.99.97.25.56.62,1.07,1,1.58.41.55.75,1.16.88,1.87.09.54.36,1.02.73,1.42.32.35.48.77.65,1.2.17.42.4.81.65,1.29.06.39.16.88.2,1.37.04.51-.08,1.05.03,1.55.12.52.2.99,0,1.51-.06.15.05.37.08.56.03.21.06.42.1.67-.54.1-.67.57-.97.87Z"/>
  <path class="cls-2" d="M132.11,58.49v.17h-.06v-.17h.06Z"/>
  <path class="cls-2" d="M67.81,150.02v.17h-.06v-.17h.06Z"/>
  <path class="cls-2" d="M125.27,106.91v.69c.29.43.54.79.83,1.21,0,0,.11.04.25.09-.08.25-.15.48-.22.7.23.6.46,1.19.71,1.83-.05.07-.11.15-.18.24.05.05.1.11.16.17-.1.1-.21.21-.36.36.28.16.54.32.85.5.05.2.12.47-.1.67.22.7.84,1.05,1.24,1.56.14.28.28.57.43.85.17.3.33.63.56.89.21.24.54.39.76.62.3.32.55.69.8,1.01.52-.01.84.24,1.12.56.41.46.88.77,1.37.67.83.34,1.51.63,2.27.94.03.05.1.19.2.39v.94c-.63,1.25-1.69,1.7-3,1.69-.26-.39-.42-.88-1.01-.87-.73-.48-1.61-.56-2.4-.86-.07-.03-.14-.09-.22-.14-.1-.21-.2-.43-.3-.66-.24-.13-.52-.25-.75-.42-.4-.3-.79-.62-1.15-.97-.33-.33-.64-.7-.91-1.09-.14-.21-.15-.51-.27-.75-.41-.84-.85-1.66-1.26-2.49-.24-.5-.45-1.02-.66-1.5-.16-.09-.3-.17-.51-.29.06-.31.12-.62.2-.99-.17-.22-.15-.65-.61-.7-.03,0-.05-.14-.08-.22-.24-.6-.65-1.15-.5-1.84-.12-.2-.19-.43-.34-.56-.43-.39-.56-.86-.54-1.42,0-.26-.13-.52-.15-.79-.03-.28,0-.57,0-.86-.33-.54-.47-1.14-.52-1.77-.03-.35-.08-.7-.12-1.1.01-.01.07-.07.15-.16-.22-.5-.45-1.01-.69-1.52.46-.57-.21-1.14-.03-1.66-.32-.59-.55-1.12-.52-1.75.02-.5.12-1.05-.18-1.47-.48-.67-.32-1.61-1.01-2.17.06-.33-.14-.52-.42-.73.13-.44.26-.88.4-1.35-.05-.06-.13-.14-.2-.22-.52-.15-1.07.1-1.58-.16-.15.04-.32.1-.51.15-.43-.63-1.12-.88-1.8-1.25-.16,0-.45.09-.6-.02-.63-.45-1.48-.33-2.11-.86h-1.63c-.07-.21-.14-.41-.23-.65h-.41c-.15.34-.52.53-.75.76-1.03.14-2.01.28-2.96.41-.49.71-1.02,1.32-1.91,1.41-.12-.21-.22-.37-.31-.53h-.59c-.07.08-.18.2-.27.3.06.1.07.18.11.19.13.03.27.03.4.07.07.03.12.12.19.18-.52.61-1.09,1.16-1.85,1.48-.34.14-.59.39-.73.74-.09.22-.25.42-.4.66-.19-.04-.36-.09-.59-.14-.05.04-.15.12-.26.21.14.26.25.47.36.69-.3.3-.55.66-.49,1.14.04.36-.1.64-.34.92v1.53c.37.38.56.9.85,1.35.28.43.78.71.9,1.3,1.07.02,2,.53,2.98.8.13.43.23.79.34,1.13.09,0,.15.01.2.01.25.25-.09,1.08-.7,1.71h-1.12c-.11,0-.27-.05-.34,0-.54.41-1.06.1-1.41-.2-.58-.5-1.26-.71-1.92-1.01-.25-.11-.57-.44-.82-.73-.14-.16-.36-.24-.5-.39-.47-.52-.94-1.04-1.39-1.58-.23-.28-.2-.63-.17-.96.05-.66-.17-1.23-.5-1.79.04-.04.14-.1.14-.16.01-.33.07-.64.16-.97.12-.42,0-.91.12-1.34.1-.35.2-.71.22-1.05.04-.61.38-1.07.65-1.55.21-.37.34-.73.44-1.17.11-.1.26-.24.33-.31.49-.14.9-.25,1.27-.36.1-.39.18-.7.26-1.01.79-.47,1.67-.73,2.39-1.3.39-.31.78-.61,1.18-.89.13-.09.29-.13.5-.21.69-.69,1.44-1.44,2.18-2.18.52.07,1.01,0,1.52.16.7.23,1.42-.09,2.08-.34.31-.12.59-.16.88-.14.24.02.47.12.71.16.24.05.47.06.72.14.42.13.91.04,1.4.04.21.19.45.39.78.69.31-.05.76-.13,1.27-.22.23.26.45.52.6.7.63.12,1.08.34,1.45.73.4.42.85.72,1.42.95.63.25,1.24.62,1.84.96.22.13.37.4.49.64.17.33.34.63.78.6.06,0,.12.11.21.2v.74c.1.02.18.04.26.05.28.33.13.82.33,1.14.29.46-.16.79-.05,1.23.16.1.35.19.52.32.18.14.33.32.52.51-.12.25-.25.51-.39.8.19.16.39.32.56.45-.06.44.07.82-.15,1.16.14.27.3.57.46.87-.05.21-.11.42-.16.63-.05.21.23.38.02.65-.1.13-.02.4.13.62.11.15.02.44.02.49.23.58.39,1,.57,1.47-.14.15-.27.29-.45.48.33.31.66.62.99.94.39.44-.35.96.05,1.4-.05.17-.1.32-.14.43.26.25.48.47.71.69Z"/>
  <path class="cls-2" d="M140.51,132.42c-.42-.27-.1-.73-.26-1.01-.22-.37-.1-.65.07-.98.6-.27,1.25-.45,1.93-.39.37.24.73.48,1.09.71.2.52-.37.69-.45,1.08-.71.54-1.51.7-2.36.61Z"/>
  <path class="cls-1" d="M55.66,106.12c.11-.11.19-.19.33-.33v-.76c.19.31.28.47.41.67-.44.3-.43.82-.74,1.29v-.87Z"/>
  <path class="cls-1" d="M62.22,89.18v-.86c.21.27.41.51.65.82-.23.01-.44.03-.65.04Z"/>
  <path class="cls-1" d="M213.8,207.2c.24.65-.41,1.05-.29,1.6h-.3v-1.32c.17-.08.36-.17.58-.28Z"/>
  <path class="cls-1" d="M211.95,209.6s.06-.07.08-.08c.11-.1.2-.28.4-.17.02.01.04.04.06.06-.13.09-.26.17-.39.26-.01,0-.05-.02-.15-.06Z"/>
</svg>