<?xml version="1.0" encoding="UTF-8"?>
<svg id="Livello_1" data-name="Livello 1" xmlns="http://www.w3.org/2000/svg" viewBox="0 0 274.41 274.41">
  <defs>
    <style>
      .cls-1 {
        fill: #fff;
        stroke-width: 0px;
      }
    </style>
  </defs>
  <path class="cls-1" d="M198.34,109.3c-.11-.42-.22-.82-.33-1.24-.45-.23-.88-.53-.87-1.19.32-.21.66-.43.93-.6-.04-.4-.09-.7-.08-1,0-.23.11-.46.11-.68-.04-.97.15-1.95-.15-2.91.08-1.51-.12-3-.2-4.55-.19-.21-.41-.47-.62-.69.08-.3.15-.55.22-.81-.37-.44-.77-.86-.35-1.45-.05-.08-.13-.14-.13-.21-.04-.86-.73-1.4-1.05-2.12-.52-.33-.74-.91-1.13-1.35-.21-.23-.38-.59-.39-.9-.01-.51-.28-.86-.59-1.14-.49-.43-.86-.93-1.14-1.51-.5-.25-.98-.49-1.46-.74-.61.28-1.21.18-1.76-.01-.46.34-.87.65-1.39,1.03-.09.35-.44.59-.8.63-.28.42-.51.76-.72,1.08-.2-.03-.32-.04-.36-.05-.14-.75-.27-1.43-.4-2.13.15-.17.31-.34.51-.55-.06-1.13-.12-2.28-.18-3.37-.3-.39-.55-.73-.81-1.06v-.44c.34-.28.66-.54.94-.77v-.69c-.13-.33-.31-.57-.3-.8,0-.29.17-.58.27-.91-.26-.29-.12-.63.01-.9-.13-.35-.23-.64-.32-.9.19-.48.25-1.65.1-2.12-.1-.31-.16-.6.04-.88-.38-.91-.5-1.85-.43-2.83-.32-.67-.68-1.33-.95-2.02-.29-.76-.48-1.19-.91-1.67-.03-.04-.04-.09-.07-.18.05-.14.11-.3.17-.47-.52-.85-1.2-1.61-1.54-2.58-.85-.24-1.27-1-1.93-1.53h-.72c-.78-.46-1.6-.53-2.39-.65-.27.18-.49.44-.75.47-.63.09-1.05.51-1.55.83-.13.08-.26.17-.4.24-.81.37-.96.49-1.56,1.24-.21.27-.38.59-.64.78-.46.32-.75.76-1.04,1.21-.39.61-.79,1.21-1.23,1.88.04.12.1.31.18.55-.5.66-.58,1.54-1.13,2.17.22.27.19.56.11.79-.4,1.07-.3,2.2-.42,3.3-.09.83-.19,1.59-.83,2.16.05.17.16.33.13.46-.21.78-.09,1.57-.13,2.35-.11.21-.22.42-.3.58-.06.99-.15,1.94-.16,2.88,0,.94-.05,1.87-.34,2.72.18.28.32.51.41.65-.05.61-.31,1.02-.55,1.38-.07.54.06,1.04-.16,1.53-.32.7-.38,1.45-.34,2.21.02.33-.05.66-.09,1.09.01.04.07.18.13.34-.17.27-.34.53-.51.8,0,.5,0,1.01,0,1.51,0,.16.05.36-.03.47-.24.32-.03.69-.15,1-.14.36-.14.71-.14,1.08,0,.88.07,1.76-.02,2.63-.09.85-.15,1.7-.28,2.54-.15,1.01-.14,2.04-.18,3.06-.02.4,0,.8,0,1.21-.2.27-.4.54-.56.76.19.22.37.45.56.68-.35.3-.01.55.01.85-.18.5-.38,1.03-.56,1.53.13.7.13,1.41.02,2.1-.13.86-.5,1.68-.44,2.58.03.38-.17.62-.51.78-.03.01-.08-.01-.15-.02-.1-.19-.21-.39-.27-.5.1-.39.17-.68.24-.98-.09-.2-.21-.41-.26-.63-.08-.4-.24-.86-.14-1.22.22-.74.3-1.47.29-2.23,0-.18-.02-.39.05-.54.22-.49.18-1.03.07-1.48-.13-.5-.07-.99-.12-1.48-.06-.49-.14-.97-.19-1.36.21-.4.36-.7.52-1.01v-4.34c.16-.31.3-.58.44-.85-.39-.56.15-1.1.05-1.67-.11-.58.11-1.21-.18-1.84.24-.44.5-.9.78-1.42-.07-.14-.18-.34-.31-.6.18-1.58.36-3.2.55-4.87.07-.14.17-.32.32-.6-.1-.5-.22-1.07-.35-1.74.12-.21.3-.49.47-.77v-1.1c.12-.25.24-.49.36-.74-.43-.49-.1-.92.12-1.34-.06-.11-.11-.2-.16-.3.05-.11.1-.22.15-.31-.11-.31-.21-.59-.29-.83.12-.34.22-.62.33-.9-.07-.14-.12-.25-.18-.37.27-.53.4-1.07.3-1.67-.09-.11-.2-.23-.28-.32v-.64c.16-.17.31-.33.49-.52-.04-.44-.08-.9-.12-1.36.02-.18.07-.39.01-.56-.12-.39-.12-.76,0-1.15.02-.07.09-.18.06-.21-.22-.28.11-.52.02-.8-.09-.29.12-.55.14-.83.02-.27-.09-.55-.14-.83,0-.05-.02-.12,0-.16.3-.38,0-.89.3-1.27.06-.09.06-.29,0-.39-.27-.45-.1-.93-.15-1.4-.02-.24.08-.53-.02-.71-.23-.39-.14-.78-.11-1.16.02-.25-.02-.48-.01-.71.01-.28.13-.55.14-.83.01-.26-.05-.52-.07-.77-.03-.34-.07-.68-.07-1.02-.01-.69,0-1.38,0-2.03-.13-.25-.23-.45-.34-.67.13-.77.01-1.53-.32-2.21-.32-.64-.41-1.32-.58-1.98-.15-.61-.4-1.15-.68-1.72.18-.78-.46-1.47-.32-2.17-.15-.34-.25-.6-.39-.93-.16-.22-.37-.52-.57-.8.08-.18.14-.32.18-.42-.17-.64-.69-1.1-.66-1.73-.17-.23-.31-.45-.47-.65-.5-.61-1.07-1.13-1.84-1.4-.84-.29-1.68-.62-2.56-.94-.7-.07-1.45-.14-2.13-.21-.49.33-.89.6-1.25.84h-1.22c-.44.49-1.16.65-1.58,1.22-.08.11-.26.18-.41.21-.65.11-1.01.55-1.36,1.07-.36.53-.41,1.27-1,1.51-.08.35-.14.6-.2.86.19.24.23.51.02.78-.25.3-.48.62-.77.88-.4.36-.44.46-.25,1-.17.28-.33.55-.46.75-.01.88.1,1.71-.51,2.43.03.3.07.64.12,1.03-.18.81-.37,1.71-.57,2.62.06.14.09.29.18.42.18.24.16.46.06.73-.32.95-.32,1.5-.1,2.67.05.25.04.54-.05.78-.13.37-.09.69,0,1.06.16.74.43,1.5-.04,2.25-.08.13-.04.36,0,.53.16.66.12,1.79-.04,2.56-.1.51-.22,1.01-.19,1.55.04.8.01,1.6.01,2.39-.12.15-.24.28-.33.39.05.6-.09,1.16.16,1.69.06.13.06.33,0,.47-.26.67-.1,1.35-.16,2.03-.02.23-.08.45-.09.54.04.37.09.63.09.88,0,2.05,0,4.1,0,6.15,0,.21-.06.45.03.63.2.42.12.78,0,1.2-.12.42-.09.88-.12,1.32,0,.05-.03.09-.03.09.27.79.06,1.56.14,2.25-.14.29-.27.52-.35.76-.15.47-.42.9-.17,1.47.14.31,0,.77-.06,1.16-.09.51-.37,1.02-.21,1.52.21.63.1,1.25.13,1.88.01.29,0,.58-.05.86-.07.45-.24.9-.25,1.36-.01.71-.2,1.38-.35,2.08.16.18.32.35.48.53-.31.31-.46.71-.45,1.12.01.41-.13.76-.21,1.14-.03.12-.12.24-.11.36.03.7-.14,1.42.19,2.11-.23.25-.45.48-.68.72,0,.15-.03.33.03.46.18.38.16.73,0,1.12-.12.3-.17.65-.19.98-.07,1.04-.51,1.98-.78,2.98.19.26.14.55.1.87-.11.7-.6,1.24-.8,1.9-.03.1-.18.17-.26.24-.55-.33-.76-.83-.88-1.11-.11-.72-.12-1.23-.27-1.69-.14-.44-.16-.87-.14-1.31.06-1.15.22-2.3.16-3.47-.02-.35-.02-.69,0-1.04.01-.17.08-.34.12-.46-.09-.49-.17-.94-.24-1.32.27-.88.08-1.64-.22-2.37.12-.24.23-.45.35-.69-.11-.72.16-1.5-.17-2.24-.04-.09-.05-.24,0-.31.23-.34.14-.71.14-1.07.01-1.2,0-2.4,0-3.59,0-.25.06-.5.11-.83-.07-.2-.17-.49-.25-.69.11-.66.3-1.25.26-1.83-.03-.41-.18-.79.03-1.18-.05-1.24.04-2.47.16-3.71.05-.49-.1-1,.15-1.48.06-.11,0-.31-.07-.45-.15-.3-.08-.55.06-.77-.05-.2-.13-.38-.13-.55,0-.49-.1-1,.15-1.47-.11-.93.15-1.83.17-2.75.01-.59.12-1.18.2-1.77,0-.07.07-.13.11-.19-.06-.14-.16-.26-.15-.37.09-.95-.19-1.88-.17-2.83,0-.08,0-.16,0-.19-.13-.25-.23-.46-.31-.61.25-.36.46-.68.69-1-.08-.16-.2-.27-.19-.38.03-.95-.14-1.89.09-2.84.08-.32.09-.7,0-1-.17-.56-.12-1.07.03-1.51-.2-1.04-.21-1.99.01-2.98-.09-.3-.18-.65-.31-.98-.13-.35.02-.69,0-1.03-.06-1.26-.11-2.52-.16-3.79,0-.08,0-.16-.03-.23-.19-.65-.18-1.33-.28-1.99-.05-.3-.04-.6-.13-.92-.16-.54-.16-1.13-.19-1.7-.03-.58,0-1.17,0-1.72-.12-.22-.21-.4-.31-.59.02-.69-.14-1.33-.48-1.93-.24-.42-.34-.91-.64-1.31-.06-.07-.13-.23-.11-.26.27-.3-.03-.54-.15-.68-.51-.58-.79-1.36-1.53-1.73-.04-.02-.07-.08-.1-.11.05-.09.1-.18.18-.32-.41-.3-.8-.59-1.19-.89-.11-.09-.19-.23-.3-.3-.24-.14-.5-.24-.75-.37-.27-.14-.54-.29-.78-.47-.5-.36-.99-.74-1.45-1.08-.55-.04-1.05.05-1.54-.15-.22-.09-.5-.11-.75-.15-.52-.1-1.03.01-1.45.39-.13.12-.29.21-.45.3-.71.41-1.43.81-2.06,1.16-.57.74-1.1,1.41-1.62,2.09-.53.7-1.06,1.41-1.6,2.14,0,1,0,1-.32,1.7-.17.35-.26.68.05,1.01-.31.28-.59.52-.82.72-.18.9-.35,1.7-.5,2.5-.02.12.03.25.05.38.03.18.1.35.1.53-.03,1.42.14,2.85-.21,4.25-.09.05-.18.09-.22.12-.07,1.04-.14,2.03-.21,3.02,0,.1-.08.19-.09.29-.06.43-.29.84-.22,1.29.03.2.16.4.15.59-.04.83-.12,1.67-.19,2.5,0,.09-.09.18-.08.15.05.29.11.47.11.64.01.53,0,1.07,0,1.6,0,.25.07.5.11.81-.07.09-.18.23-.3.39.03.37,0,.76.11,1.09.17.5.25,1,.24,1.53,0,.46-.1.94.14,1.4.07.14.04.38-.02.54-.27.72-.05,1.47-.12,2.2.22.22.18.5.15.75-.06.4-.17.8-.28,1.19-.12.4-.22.8-.19,1.22.03.48-.01.96.01,1.44.01.31.08.61.13.97-.29.85-.55,1.51-.31,2.69.09.43.01.9.01,1.29-.13.26-.24.47-.28.56.05.46.12.79.12,1.12,0,.28-.15.56-.14.83.04.81-.17,1.63.14,2.43.04.11.05.3-.02.38-.23.29-.09.62-.13.92-.05.36-.08.71-.12,1.12.03.14.11.34.11.54.01.49.06,1-.15,1.47.12,1.08-.19,2.15-.16,3.23.01.51,0,1.01,0,1.52,0,.16.01.32-.02.47-.19.85-.19,1.75.02,2.46q-.17.41.02,1c-.11.13-.23.29-.4.5.11.48.23.98.37,1.58-.05.2-.29.49-.04.85.09.12,0,.4-.05.58-.09.27-.24.51-.38.79v1.46c-.11.21-.21.4-.33.62.02.22-.02.51.08.74.15.32.16.66.07.92-.2.6-.11,1.2-.14,1.8-.03.7.08,1.42-.15,2.11-.1.29-.17.61-.16.91.03.69-.15,1.33-.34,1.94.08.18.14.32.2.47-.07.13-.14.24-.19.36-.33.73-.7,1.44-.64,2.28,0,.08-.02.15-.03.23-.14.63-.26,1.26-.29,1.91-.02.43-.06.87-.09,1.32.01.03.04.09.06.13-.28.21-.53.4-.76.58v.91c-.32.63-.76,1.22-.93,1.88-.22.87-.93,1.31-1.43,1.91-.48.57-1.24.9-1.89,1.33-.1.07-.23.09-.34.15-.49.27-1.03.1-1.51.17-.21.1-.38.19-.58.29-.2-.27-.38-.52-.57-.78h-.72c-.49-.27-.92-.51-1.34-.74-.61-.46-.96-1.11-1.6-1.45-.62-.33-.96-.86-1.13-1.49-.1-.38-.33-.64-.49-.8-.37-1.92-1.27-3.47-2.21-5.01.32-.42.25-.8-.01-1.17-.45-.15-.61-.52-.73-.93-.07-.22-.09-.47-.22-.65-.54-.78-.78-1.68-.88-2.59-.13-1.12-.13-2.25-.2-3.44-.13-.2-.28-.44-.47-.74v-.59c-.36-.8-.66-1.47-.96-2.15.06-.21.09-.42.18-.6.28-.59.2-1.17-.02-1.74-.12-.33-.33-.63-.5-.94-.26-.49-.41-1.01-.31-1.58-.31-.33-.62-.67-.95-1.02.06-.23.13-.47.21-.77-.26-.11-.48-.22-.75-.34-.24-.7-.72-1.16-1.5-1.39-.51-.15-.98-.46-1.42-.77-.36-.26-.65-.63-.97-.95-.31-.3-.63-.6-.97-.93h-.9c-.47-.74-.75-.79-1.63-.3h-.68c-.58-.28-1.13-.54-1.72-.82-.16.08-.39.13-.52.27-.64.69-1.53.68-2.39.92-.13.16-.28.37-.37.48-.61.39-1.13.72-1.6,1.03-.51.95-.99,1.85-1.5,2.8.11.18.26.43.42.7-.35.28-.67.54-1,.81.16.2.27.34.37.47-.12.99-.25,1.97-.35,2.83.28.73,1.05,1.11.81,1.95-.19.2-.41.43-.6.64v.73c.12.24.23.44.25.48.09.67.19,1.16.22,1.65.03.5,0,1.01,0,1.52,0,.45,0,.9,0,1.33.19.22.35.42.52.63-.13.29-.25.55-.32.68-.25,2.14-.29,4.16-.12,6.3,0,.04-.06.21-.08.39-.03.18,0,.37-.06.54-.26.76-.25,1.57-.41,2.35-.16.76-.22,1.53-.33,2.3-.04.25-.15.5-.15.75,0,.95-.28,1.87-.17,2.83,0,.07,0,.16-.04.23-.25.45-.3.93-.28,1.44,0,.1,0,.21-.03.31-.16.6-.28,1.21-.28,1.83,0,.45,0,.91,0,1.36.01,1.02-.48,1.98-.33,3.02-.37.62.06,1.31-.14,1.94.27.55.16,1.14.15,1.71-.01.53.06,1.05.19,1.54.08.28.14.55.14.84,0,.81.06,1.6.47,2.33.1.17.17.4.16.59-.04.49.22.84.5,1.18-.05.11-.09.2-.1.21.2.64.41,1.22.56,1.81.18.69.56,1.3,1.11,1.75.2.16.34.39.5.6.33.44.59.94,1.08,1.23.3.18.53.39.7.7.12.22.35.39.52.56.12-.06.21-.11.24-.13.69.24.76,1.02,1.38,1.31.55.26,1.02.7,1.62,1.13.28.52.79.99,1.32,1.43.17.14.44.17.6.31.64.55,1.25,1.13,1.89,1.72.45-.07.62.31.91.56.94.83,1.91,1.62,2.87,2.42.33.27.64.58,1,.8.25.16.43.32.59.58.25.4.6.81,1.07.88.64.09,1.11.41,1.53.79.89.27,1.72.56,2.22,1.32.19,0,.35-.05.45,0,.66.35,1.31.72,1.95,1.11.15.09.28.25.38.4.27.41.56.81.77,1.25.24.51.49,1.06.33,1.63-.26.91-.09,1.73.37,2.52-.09.11-.19.2-.26.3-.04.06-.04.15-.06.22-.37.96-.08,1.88.15,2.81-.25.72-.36,1.46-.3,2.19-.07.15-.09.29-.18.38-.41.46-.5,1.01-.47,1.6,0,.16.02.32,0,.48-.21,1.02-.19,1.63,0,2.62.1.56.15,1.14.16,1.71,0,.6.03,1.19-.12,1.8-.13.54.03,1.13.11,1.71.11.82-.15,1.64-.28,2.46-.08.52,0,1.06-.02,1.59-.03.54-.14,1.09-.15,1.63-.02,1.5,0,3,.13,4.51.08.88.16,1.79-.13,2.67-.04.14.01.31.04.46.03.2.1.4.11.6.02.42,0,.85,0,1.21.1.19.22.33.23.47.04.46.42.87.12,1.41-.14.25.03.66.06,1,0,.09.05.22,0,.28-.15.21-.02.37.02.58.16.89.27,1.79.36,2.69.05.45,0,.9.01,1.36,0,.18.02.37.09.53.22.47.25.95.22,1.48.45.6.68,1.32.78,2.05.07.5.25.86.54,1.25.24.31.41.75.41,1.13,0,.82.13,1.6.34,2.38.08.31.19.59.42.81.51.51,1.02,1.01,1.52,1.52.44.44,1,.62,1.59.7.81.11,1.6.36,2.41.49.28.04.54.14.89.23.14.09.36.24.58.36.2.11.45-.02.66.18.15.13.42.15.65.17.26.03.53,0,.81,0,.17.21.32.42.48.62.24.06.49.15.74.17.22.02.4.04.57.21.09.09.29.07.43.12.42.13.86.11,1.27.3.47.22.99.28,1.5.33.91.08,1.83.11,2.75.17.12,0,.24.08.36.12.5.12.99.27,1.49.35.6.09,1.16-.17,1.63-.29.66.1,1.21.19,1.79.28.11-.05.25-.11.23-.1.82.13,1.48.24,2.04.33.41-.21.71-.37,1.01-.52.57-.06,1.14-.17,1.7-.16.57,0,1.13.12,1.63.18.29-.15.49-.25.63-.32.67-.07,1.27-.12,1.86-.21.33-.05.66-.12.96-.26,1.24-.55,2.46-1.14,3.35-2.22.23-.28.51-.5.91-.56.4-.06.75-.3,1.1-.52.64-.39,1.27-.78,1.79-1.1,1.14-1.26,2.55-2,3.66-3.05.06-.57.35-.97.81-1.22.51-.28.91-.69,1.34-1.08.34-.31.54-.73.95-1.01.43-.3.71-.82,1.09-1.28-.14-.7.64-1.05.8-1.67-.14-.08-.24-.14-.31-.18.49-.75.95-1.45,1.43-2.19v-.94c.13-.24.23-.45.32-.63-.1-.38-.19-.72-.29-1.1.24-.22.5-.45.71-.64.25-.95.42-1.84.37-2.73.12-.23.23-.43.32-.62-.23-.78-.21-1.47-.04-2.17.07-.26-.02-.57-.04-.85-.03-.34-.17-.71-.06-1,.2-.55.1-1.13.29-1.67.08-.24.17-.5.15-.75-.05-.72-.14-1.45-.22-2.17,0-.04-.03-.08-.04-.1.09-.26.18-.5.26-.74-.11-.21-.21-.41-.3-.58v-.94c.27-.22.55-.44.82-.66-.15-.22-.27-.38-.38-.54.26-.28.48-.53.73-.8-.15-.24-.27-.43-.4-.63.12-.15.23-.29.36-.44-.06-.17-.12-.34-.17-.49.21-.47.15-1.04.61-1.35-.13-.14-.22-.24-.29-.33v-.63c.17-.19.33-.37.49-.55-.18-.47-.35-.92-.5-1.31.3-.26.55-.48.84-.73.05-.62.1-1.24.15-1.92.13-.25.28-.54.44-.86v-.74c.29-.27.6-.56.92-.86.55-1.28,1.12-2.61,1.7-3.95.19-.06.36-.15.41-.4.04-.2.1-.41.23-.57.77-.96,1.52-1.93,2.35-2.83.63-.67,1.23-1.34,1.62-2.12,1.37-.54,1.26-.95,1.69-1.72.67-.18.99-.93,1.66-1.14.35-.77,1.01-1.31,1.1-2.13.44-.19.74-.42.83-.9.06-.29.26-.57.61-.7.15.05.32.11.53.19.31-.37.63-.75.94-1.13.23-.28.46-.57.69-.85.27-.32.51-.66.81-.96.33-.33.73-.6,1.06-.93.32-.31.66-.63.86-1.01.21-.41.57-.64.84-.97.53-.64,1.13-1.22,1.5-1.99.05-.11.18-.19.28-.28.24-.2.49-.39.73-.59.32-.27.64-.53.96-.81.14-.12.29-.24.39-.4.46-.69,1.03-1.25,1.71-1.71.14-.09.23-.28.31-.44.14-.27.21-.58.37-.84.48-.82,1.02-1.6,1.26-2.54.51-.49.51-1.16.65-1.75.78-.78.78-1.84,1.22-2.89.09-.07.29-.25.49-.42-.03-.02-.05-.03-.08-.05.14-.29.29-.58.43-.87.13.08.19.12.29.19.21-.13.43-.26.64-.39v-1.15c.16-.22.42-.42.44-.64.05-.61.38-1.11.53-1.68.19-.74.43-1.47.65-2.21-.22-.27-.27-.6-.15-.9.25-.63.13-1.22-.04-1.81.12-.33.24-.64.36-.95.25-.09.49-.18.72-.27.03-.23,0-.5.1-.68.29-.5.41-1.04.57-1.58.03-.1.08-.19.14-.27.23-.34.46-.68.59-.86.09-.97.16-1.75.23-2.5.61-.68.59-1.38.18-2.09.2-.44.39-.87.53-1.19-.04-.3-.07-.48-.08-.66-.01-.18,0-.37,0-.54.22-.37.43-.73.66-1.13-.26-.65-.27-1.33.13-1.97.01-.02,0-.05,0-.08.05-.73.12-1.46.16-2.19.02-.45.02-.91,0-1.36-.04-.71.1-1.34.68-1.83-.36-.76-.13-1.54-.21-2.26.12-.24.23-.44.33-.63v-3.27c.13-.37.36-.68.29-.89-.17-.5-.03-.96.03-1.43.02-.16.06-.36,0-.47-.31-.49-.07-.89.11-1.18.17-.54-.06-.95.04-1.39.11-.45-.08-.94.11-1.34ZM194.73,115.17c0,.6-.15,1.18-.28,1.75-.01.05-.04.1-.03.15.11.82-.16,1.61-.17,2.43,0,.52.1,1.05-.14,1.56-.07.15-.05.4.04.53.16.26.15.54.09.77-.2.69-.27,1.41-.41,2.11-.13.65-.27,1.33-.22,2.02.06.83-.01,1.66-.29,2.46-.06.17-.03.37-.02.55.04.74-.19,1.43-.35,2.13-.02.1-.12.18-.13.28-.05.7-.1,1.4-.14,2.1-.1.05-.17.09-.29.15-.1.21-.1.44.09.68-.19.38-.38.77-.59,1.21-.06.58-.07,1.24-.21,1.87-.13.59-.49,1.13-.53,1.76-.43.49-.37,1.24-.88,1.71.02.67-.14,1.32-.48,1.96v.72c-.19.27-.4.57-.62.88-.07.48-.15.99-.23,1.54-.2.5-.46,1.03-.61,1.61-.1.36-.37.67-.64,1.13.03.25.08.66.12,1.09-.19.26-.41.55-.63.84-.23.3-.13.74-.45,1.01-.3.25-.09.7-.29,1-.16.17-.33.35-.37.4-.46,1.12-.94,2.02-1.67,2.81.03.07.07.15.12.26-.12.32-.48.34-.79.56-.05.16-.1.42-.22.64-.37.72-.67,1.46-1.33,2-.67.56-1.19,1.27-1.92,1.77-.24.16-.41.48-.53.75-.19.42-.42.78-.88.93-.51.17-.66.64-.89,1.03-.25.44-.54.82-.98,1.09-.12.07-.2.22-.3.33-.41.47-.77.96-1.46,1.12-.38.09-.73.31-.82.84-.06.32-.39.61-.66.85-.52.47-1.13.85-1.62,1.35-.64.65-1.2,1.38-1.77,2.09-.12.15-.16.37-.25.57.12.15.22.29.35.46-.12.07-.23.15-.34.19-.17.07-.39.07-.5.18-.33.35-.78.52-1.15.79-.2.15-.4.3-.53.52-.26.47-.79.66-1.09,1.13-.06.19-.14.4-.19.55-.51.43-.96.83-1.44,1.2-.91.7-1.76,1.45-2.42,2.4-.53.17-.63.8-1.13,1.01-.13.05-.26.22-.29.36-.12.67-.72,1.13-.82,1.81-.03.17-.14.37-.28.46-.81.54-.82,1.48-1.1,2.3-.23.18-.46.37-.64.51-.11,1.19-.3,2.28-.84,3.27-.07.12-.12.25-.16.38-.13.38-.17.79-.16,1.2-.22.37-.38.76-.51,1.16-.13.4-.21.81-.29,1.23-.04.25-.1.5-.16.75q-.15.67.13,1.36c-.13.4-.26.79-.44,1.36-.01.44-.14,1.07-.3,1.7-.13.53.15,1,.27,1.59-.06.07-.18.21-.28.33-.02.34.04.69-.07.96-.13.29-.04.57-.11.85-.08.3,0,.58,0,.87.01.29,0,.59,0,.9-.1.21-.22.44-.34.7.05.13.11.27.15.37-.05.26-.08.49-.13.72-.04.23-.09.45-.14.75.34.64.07,1.34-.06,2.05-.02.12-.11.24-.11.36-.06,1.08-.1,2.15-.17,3.23-.03.46-.12.92-.2,1.38-.1.56-.22,1.11-.36,1.79-.5.63-.74,1.53-1.04,2.4-.31.91-.48,1.91-1.25,2.64v1.06c-.74.86-1.44,1.71-2.18,2.53-.42.47-.9.86-1.45,1.18-.54.31-.98.79-1.41,1.15-.12.38-.21.67-.28.92-.34.25-.65.48-.96.7-.13.09-.25.18-.39.24-.79.36-1.51.84-2.28,1.24-.21.11-.37.28-.6.46-.11,0-.26.01-.46.02-.27.28-.56.58-.91.95h-.74c-.16.2-.35.43-.49.61-1.05.03-1.95.3-2.86.63-.18-.04-.38-.14-.57-.13-.62.03-1.24,0-1.88.11-.55.1-1.15.1-1.7.23-.95.21-1.89.1-2.83.13-.33.01-.67.06-1-.13-.18-.1-.5-.1-.7,0-.75.35-1.42.07-2.1-.19-.12-.04-.26-.17-.35-.14-.53.18-1.12-.25-1.57.1-1.25-.15-2.39-.5-3.54-.93-.15.06-.32.13-.45.18-.1-.02-.16-.02-.2-.05-.49-.4-1.1-.58-1.68-.73-.6-.16-1.19-.28-1.74-.58-.29-.16-.7-.03-.87-.41h-.64c-.23-.22-.42-.45-.66-.61-.47-.31-.96-.59-1.46-.86-.27-.14-.57-.21-.99-.36-.21-.15-.46-.41-.56-.84-.05-.23-.21-.43-.48-.57-.28-.14-.49-.47-.64-.76-.3-.57-.66-1.14-.78-1.75-.16-.81-.58-1.54-.6-2.38,0-.27-.15-.54-.23-.81-.09-.32-.14-.65-.25-.96-.11-.31-.26-.61-.43-1,.02-.05.12-.22.11-.39-.01-.25-.14-.5-.14-.75s.12-.5.14-.75c.02-.34-.03-.66-.13-1-.17-.59-.2-1.22-.35-1.81-.2-.83-.14-1.67-.16-2.47-.14-.29-.5-.38-.47-.81.13-.15.3-.35.47-.54-.08-.24-.16-.49-.23-.7.03-.26.07-.51.08-.76,0-1.17,0-2.34,0-3.51,0-.5-.06-1,.16-1.47.3-.64.11-1.26-.06-1.88-.2-.73-.09-1.47-.06-2.2,0-.22.07-.47.18-.66.36-.62.23-1.22,0-1.84-.07-.19-.13-.46-.04-.61.2-.36.11-.72.14-1.08.05-.6.13-1.19.16-1.79.03-.58-.04-1.18.02-1.76.05-.44.1-.87.09-1.31,0-.05.06-.11.04-.14-.41-.72.1-1.28.32-1.92-.1-.2-.21-.43-.34-.68.11-.23.21-.46.27-.58.27-1.3.18-2.51.33-3.7.03-.21-.08-.43-.13-.72-.1-.1-.24-.26-.39-.42.21-.31.42-.62.61-.9-.08-.29-.1-.53-.2-.73-.19-.35-.16-.69-.05-1.06.14-.46.15-.92-.07-1.42.08-.21.22-.46.28-.73.11-.5-.13-.95-.26-1.42-.24-.93-.86-1.63-1.35-2.41-.12-.18-.39-.26-.54-.43-.48-.58-1.15-.88-1.77-1.27-.54-.34-1.01-.83-1.72-.79-.44-.37-1.03-.43-1.5-.79-.34-.27-.84-.35-1.28-.47-.61-.16-1.11-.43-1.53-.92-.28-.33-.65-.63-1.03-.82-.52-.26-.93-.65-1.4-.98-.18-.12-.3-.34-.48-.46-.17-.1-.41-.09-.58-.19-.29-.17-.58-.37-.81-.61-.62-.64-1.35-1.16-2.05-1.71-.29-.23-.58-.48-.87-.71-.38-.31-.74-.67-1.16-.93-.49-.31-.9-.7-1.34-1.07-1.24-1.04-2.35-2.22-3.49-3.35-.13-.13-.32-.24-.38-.4-.21-.51-.61-.84-1.02-1.17-.16-.13-.36-.28-.44-.46-.3-.7-.82-1.19-1.44-1.61-.09-.06-.12-.23-.16-.32.18-.15.32-.26.49-.4-.21-.15-.36-.26-.53-.38-.05-.5.05-1-.16-1.48-.06-.14.03-.35.05-.53.03-.25.07-.5.11-.75-.19-.04-.31-.07-.42-.1-.3-.76-.24-1.55-.23-2.33,0-.26-.08-.53.13-.76.05-.06.06-.22.02-.31-.33-.82.12-1.64.01-2.46-.02-.17.08-.35.09-.53.01-.2.03-.41-.02-.6-.11-.44-.15-.87.07-1.28-.1-.27-.19-.53-.3-.83.08-.15.17-.33.29-.5.24-.35.35-.73.35-1.16,0-.63-.07-1.26.16-1.87.12-.33.26-.65.41-1.02-.1-.48-.22-1.02-.34-1.63.06-.11.15-.29.25-.49v-2.57c.09-.17.19-.38.35-.68-.04-.21-.08-.52-.16-.82-.15-.54.1-1.02.2-1.52.05-.27.13-.99.09-1.24-.06-.41.05-.78.26-1.05.08-.81.16-1.56.21-2.32.02-.25.07-.52-.12-.76-.07-.08-.07-.28-.02-.38.29-.58.1-1.2.14-1.79.01-.17-.09-.34-.11-.52-.02-.15-.09-.35-.02-.46.28-.48.2-1.01.12-1.47-.12-.73-.03-1.48-.16-2.19-.12-.63-.1-1.25-.13-1.89-.16-.25-.32-.51-.49-.77.24-.37.22-.74.06-1.11.24-.38.09-.75-.06-1.04.2-.5.34-.94.55-1.35.16-.31.17-.65.06-.92-.18-.45-.15-.86.07-1.28-.06-.15-.13-.29-.2-.44.11-.14.22-.28.35-.43-.07-.2-.13-.39-.22-.64.51-.79,1.12-1.53,1.86-2.23.63-.03,1.15-.31,1.39-.94.63-.09,1.19-.04,1.73.2.14.06.3.09.45.08.82-.06,1.49.33,2.19.65.11.05.23.15.34.15.64-.01,1.12.33,1.6.68.31.23.62.46.98.72v.72c.44.69.82,1.4,1.31,2.03.37.48.27,1.1.62,1.56-.08.57.31.92.67,1.3-.23.47-.22.91.08,1.38.16.26.15.64.21.97.07.38.13.76.2,1.14.05.25.11.5.19.83.55.62.64,1.51.89,2.35-.18.64-.45,1.31-.28,1.97.12.47.03.94.16,1.39.13.44.33.86.48,1.29.11.34.17.7.3,1.03.13.33.32.63.35,1.02.02.26.25.49.37.74.19.39.37.79.53,1.19.36.87.69,1.76,1.07,2.63.13.29.36.54.59.76.33.32.54.68.65,1.12.21.79.53,1.55.59,2.27.34.48.63.88,1.01,1.4.41.21.93.55,1.43.93.51.39,1.2.55,1.87.84.37.71,1.12.95,1.9.99,1.06.05,2.15.12,3.18-.29.14-.06.35.05.52.08.15.03.3.05.46.08.37-.3.72-.63,1.11-.88.36-.23.77-.39,1.16-.58.64-.31,1.08-.85,1.53-1.36.44-.51.82-1.07,1.28-1.69.05-.71.13-.86.5-1.2v-.94c.13-.1.25-.19.45-.35.26-.95.45-2.03.94-3.08.06-.31.09-.71.22-1.07.22-.59.32-1.19.32-1.82,0-.57.13-1.13.22-1.88.47-.9.58-2.05.56-3.29.08-.05.19-.11.32-.19-.04-.31.05-.63-.12-.97-.12-.26-.11-.66,0-.93.2-.46.12-.86-.03-1.2.07-.43.13-.79.2-1.28.12-.22.31-.55.52-.92-.08-.16-.18-.36-.29-.59.05-.11.15-.22.16-.34.07-.91.13-1.83.18-2.74,0-.12-.09-.24-.12-.31.09-.49.17-.94.28-1.53-.02-.18-.22-.4-.51-.62.11-.24.22-.5.36-.82,0-.35,0-.78,0-1.2,0-.13-.05-.3.01-.39.36-.56.01-.93-.28-1.3.18-.52.52-1,.32-1.59.23-.45.05-.89-.03-1.34-.1-.54.06-1.08.29-1.62-.1-.27-.2-.58-.32-.92.16-.35.31-.71.08-1.05.12-.38.31-.73.32-1.08.01-.35.15-.68.11-1.04-.04-.35-.1-.74.17-1.06-.12-.4-.25-.75-.07-1.2.16-.42.15-.97.02-1.41-.18-.63-.09-1.25-.14-1.88-.02-.28-.08-.55-.14-.94.2-.42.35-.96.31-1.55-.02-.25.08-.5.14-.82-.08-.17-.19-.4-.29-.6.16-.72.36-1.42.44-2.12.07-.62.14-1.23.31-1.83,0-.02.02-.05.02-.07.06-.62.15-1.24.16-1.87.02-1.65,0-3.3,0-4.95,0-.24.08-.52-.02-.71-.15-.27.11-.48,0-.71-.1-.21-.2-.42-.27-.64-.04-.12-.03-.26-.03-.39,0-.77,0-1.54,0-2.32,0-.17.06-.35.11-.61-.07-.19-.15-.48-.28-.76-.16-.35-.23-.66-.03-1.04.1-.19.04-.47.05-.71-.11-.21-.21-.41-.34-.66.15-.24.31-.5.52-.82-.03-.11-.08-.29-.12-.46-.03-.15-.11-.34-.05-.45.27-.53.08-1.09.16-1.67.08-.09.18-.22.31-.37-.09-.84.02-1.68.66-2.4-.56-.63.24-1.35-.15-2.04.12-.26.26-.56.47-1-.03-.38-.08-.92-.13-1.56.15-.21.36-.5.56-.78-.12-.47-.23-.94-.32-1.3.28-.33.47-.56.66-.78.06-1,.38-1.92.71-2.87.36-.43.72-.92,1.15-1.34.4-.4.78-.82,1.24-1.25.81,0,1.13-.89,2.03-1.16h1.33c.52.41,1.11.83,1.65,1.31.53.47,1,1.01,1.61,1.42.07.19.15.38.21.57.08.27.25.46.53.52.35.07.46.31.61.61.48.97.8,2,1.23,2.98.22.5.29,1.04.34,1.57.03.34.01.69,0,1.04-.02.63.02,1.24.27,1.84.15.35.09.76.18,1.14.15.65.14,1.35.19,2.02.04.54-.04,1.09.14,1.64.1.32-.06.72-.07,1.08-.01.52,0,1.04,0,1.56,0,.1.08.19.08.29,0,1.58.35,3.17.14,4.74-.16,1.16-.09,2.31-.13,3.47,0,.16-.03.33,0,.48.07.29.18.58.26.86-.15.41-.29.81-.29,1.27,0,.65.09,1.31-.14,1.95-.14.41.02.84.17,1.22.17.42.17.77,0,1.2-.14.32-.11.71-.18,1.06-.12.6-.27,1.19-.41,1.82.16.24.27.54.27.9,0,.3.14.61.14.91-.02.6-.12,1.19-.14,1.79-.03.58.02,1.17-.02,1.76-.02.35-.14.7-.22,1.05-.14.57-.16,1.13.02,1.55-.07.79-.13,1.46-.21,2.34.05.36.46.9.12,1.56-.12.23-.08.6.01.86.21.55.15,1.06-.03,1.59-.17.48-.31.97-.46,1.46-.12.4.13.69.31,1.04-.06.65-.14,1.32-.16,2-.02.46-.01.92.12,1.4.1.34.14.77-.09,1.16-.07.12.03.33.06.58-.02.16-.12.42-.08.66.16.88.17.88,0,1.83-.04.23,0,.48-.01.72-.03.41.06.82-.13,1.24-.1.22.04.54.09,1-.26.67-.38,1.56-.24,2.43.11.66-.02,1.35.27,1.99.07.15.07.39,0,.55-.28.72-.08,1.46-.16,2.16.25.51.6.96.48,1.55.22.19.42.37.58.51.2.91.75,1.54,1.32,2.14.16.17.46.2.7.29.12.04.24.07.33.1,1.07-.19,1.64-.99,2.18-1.84v-.68c.19-.16.48-.35.7-.61.62-.71,1.07-1.51,1.22-2.46.03-.2.06-.42.17-.58.16-.24.13-.5.15-.76.03-.31.12-.61.15-.91.03-.29,0-.59.08-.86.14-.52.37-1.03.39-1.55.03-.87.1-1.7.49-2.49.16-.32.19-.69.18-1.07-.01-.52-.02-1.03.13-1.56.1-.36.25-.67.48-.95-.39-.62-.73-1.23-.13-1.93-.01-.51.03-1.04-.05-1.68,0,.01.07-.08.2-.22.05-.51.04-1.1.19-1.64.15-.52-.09-1.11.31-1.61-.1-.19-.2-.4-.33-.65,0-.21-.07-.5.01-.73.23-.62.13-1.25.13-1.87,0-.37.09-.72.17-1.07.1-.42.22-.84.31-1.26.03-.15.05-.34,0-.47-.21-.51-.2-.99,0-1.51.11-.29-.11-.54-.26-.79-.06-.11-.16-.2-.24-.29.15-.4.27-.77.43-1.11.22-.45.41-.98.4-1.38-.03-.57.08-1.15-.14-1.72-.09-.25,0-.57.03-.86.02-.23.13-.46.1-.68-.06-.53-.17-1.06-.27-1.66.12-.24.19-.55.05-.9-.07-.16-.14-.38-.08-.52.17-.41,0-.89.18-1.22.25-.48.07-.91-.07-1.26-.21-.53-.05-.9.22-1.33-.03-.4-.09-.83-.1-1.26,0-.44.06-.89.06-1.33,0-.28,0-.55-.12-.84-.16-.37.02-.76.29-1.13-.05-.3.08-.63-.14-.96-.09-.14-.03-.41.02-.62.07-.3.26-.55.19-.92-.05-.28.18-.61.28-.92-.13-.09-.23-.16-.31-.21-.08-.59-.15-1.16-.22-1.66.13-.24.23-.43.29-.53.06-.44.12-.79.19-1.28-.04-.09-.14-.3-.23-.5.03-.14.04-.3.11-.43.2-.36.24-.66-.08-.99-.1-.1-.05-.39,0-.58.02-.08.06-.17.1-.24.04-.08.09-.16.14-.24-.1-.22-.16-.45-.16-.68,0-.23.03-.47.13-.73-.12-.19-.27-.43-.43-.69.13-.3.26-.63.4-.96.32-.71.39-1.48.54-2.23.04-.2-.06-.43-.06-.65,0-.21-.01-.44.08-.61.21-.38.12-.77.16-1.2.13-.14.29-.32.49-.54-.06-.24-.12-.51-.2-.83.19-.32.4-.67.61-1.02.04-.35.08-.71.12-1.07.03,0,.06,0,.09,0-.07-.22-.13-.44-.19-.64.64-.67,1.39-1.21,1.68-2.14.36-.28.76-.56,1.13-.89.3-.27.61-.44,1.03-.49.39-.05.76-.25,1.13-.41.73-.11,1.44-.02,2.1.36.08.05.2.06.3.06.07,0,.14-.06.21-.1q.59.29.77.98c.71.41,1.08,1.02,1.29,1.78.23.81.5,1.61.8,2.39.17.44.25.88.29,1.35.05.77.25,1.51.46,2.25.24.87.6,1.72.47,2.66.21.42.42.83.65,1.3-.08.16-.18.37-.28.57.09.18.19.36.28.55,0,.48,0,.96,0,1.43,0,.18-.07.35-.1.53-.02.15-.1.35-.04.46.27.48.14.99.13,1.48,0,.53.15,1.02.24,1.53.04.23.14.49.08.69-.24.7-.1,1.41-.15,2.11-.02.2-.08.4-.15.68.11.28.17.6.03,1.02-.15.46-.02,1-.04,1.51-.01.33.07.67-.13,1-.1.18-.1.52,0,.7.2.34.1.67.13.99-.11.13-.21.25-.32.37,0,.48.02.96,0,1.44-.04.86-.09,1.73-.14,2.59-.11.21-.22.41-.32.62.14.48.29.97.46,1.53-.83,1.71-.59,3.61-.63,5.54-.08.15-.19.36-.31.61,0,.05,0,.16,0,.27-.07,1.34-.13,2.68-.21,4.16-.03.03-.14.17-.28.34.02.23.04.48.05.73-.12.55-.24,1.12-.36,1.69.29.46.08.98.17,1.44-.11.22-.21.4-.35.67.02.19.05.48.08.76.02.18.15.42.07.52-.65.86-.41,1.85-.46,2.8,0,.19,0,.37,0,.55-.1.19-.2.38-.32.6,0,.91,0,1.87,0,2.83,0,.33.08.67-.14,1-.09.13-.08.39,0,.54.23.46.16.91.08,1.38-.01.08.03.17.03.26.01.42.02.82-.05,1.24-.09.56-.04,1.14,0,1.71.03.38.18.75.22,1.13.03.27-.05.55-.11,1.01.26.7.53,1.57.61,2.5.03.34.23.67.39,1.1.4.44.49.65.58,1.42.64.41,1.14,1.08,1.97,1.31.55-.1.85-.57,1.28-.95h.6c.36-.61.69-1.16,1.07-1.78v-.62c.16-.31.31-.61.48-.94.05-1.17.06-2.39.19-3.58.05-.46.22-.94.11-1.38-.09-.34-.12-.66-.13-1.06.22-.35.47-.74.74-1.15-.02-.03-.06-.06-.09-.11-.04-.04-.08-.09-.12-.14-.08-.14-.06-.28-.02-.42.02-.09.05-.19.06-.28,0-.08,0-.16-.04-.25-.05-.11.17-.35.32-.64-.09-.51-.19-1.11-.31-1.82.1-.29.51-.64.16-1.07.21-.69.44-1.34.43-2.05,0-.23-.07-.48.13-.68.02-.02.02-.05.02-.07.05-.4-.13-.77-.13-1.15,0-.32.22-.64.34-.94-.16-.19-.26-.31-.35-.41-.08-.57.12-1.13-.18-1.69.21-.35.44-.72.67-1.11-.09-.27-.2-.53-.27-.8-.05-.2-.12-.43-.06-.61.09-.25.2-.48.11-.74-.09-.24-.19-.47-.27-.7.2-.34.4-.67.6-1.01-.16-.32-.31-.64-.46-.95.24-.78.54-1.53.5-2.35-.01-.3.11-.61.14-.91.03-.28-.02-.57.15-.84.07-.11,0-.31.02-.47.02-.26.06-.51.12-.76.18-.86.43-1.72.36-2.61-.03-.39-.08-.77-.13-1.21.07-.07.18-.18.28-.3.31-.36.45-.75.25-1.22-.06-.14-.12-.34-.06-.45.24-.43.1-.88.16-1.33.09-.17.18-.35.27-.52-.18-.4-.01-.73.23-1.09-.17-.37-.35-.77-.55-1.19.84-1.09,1.32-2.32,1.33-3.74.09-.17.2-.38.34-.65-.24-.99.28-1.92.53-2.98.49-.31.58-.97.86-1.51.33-.63.62-1.21,1.25-1.62.41-.26.7-.7,1.02-1.08.41-.42,1.11-.34,1.5-.86.3-.07.62-.19.94-.21.33-.02.66.07.85.09.63.82,1.16,1.52,1.77,2.31.06.14.18.39.29.65.26.56.6,1.08.69,1.71.06.38.4.51.66.76-.04.21-.07.44-.13.78,0,.01.09.15.1.3.04.78.12,1.56.06,2.33-.02.33.22.57.11.89-.1.29-.19.61-.16.91.12,1.01.07,2.02.29,3.02.09.41.01.85.01,1.26.11.22.22.42.33.63-.16.31-.31.61-.44.86-.05.37-.09.7-.15,1.17.39.63.24,1.44.05,2.25-.05.2-.11.41-.1.61.03.81-.13,1.63.15,2.43.04.12.02.27,0,.4-.05.37-.14.71-.03,1.11.08.27-.12.64-.23.95-.09.24-.22.47-.37.77.07,1.18-.16,2.45.18,3.7-.11.13-.21.25-.32.39v.7c-.11.21-.22.42-.33.63,0,.2-.02.41,0,.63.11,1.11-.21,2.2-.16,3.31.02.33-.11.69.15.99.03.03.01.1,0,.16-.07.64-.13,1.29-.22,1.93-.06.38-.24.75-.23,1.12,0,.43.16.85.27,1.37-.45.77-.51,1.75-.73,2.7.3.26-.22.63.11.9.04.03-.03.19-.04.29-.04.26-.19.58-.08.75.31.51.03.98-.07,1.42-.11.5-.15.95,0,1.44.09.29.12.66,0,.93-.1.26-.13.51-.12.76.02.92-.08,1.81-.31,2.7-.04.15-.02.32,0,.48.09.81-.31,1.5-.47,2.34.28.36.08.81-.01,1.26q-.15.69.02,1.24c-.21.22-.44.47-.59.63.04.59.07,1.08.09,1.57.02.34,0,.66.15,1,.27.64.16,1.34.18,2.03.3.54.45,1.17,1.07,1.59.53-.15,1.12.51,1.8-.15.1-.24.25-.62.42-1.02.36-.07.56-.43.96-.48.14-.02.3-.28.38-.46.31-.7.47-1.45.65-2.2.09-.38.15-.76.24-1.27.44-.5.45-1.27.54-2,.12-.96.13-1.94.2-3,.06-.12.17-.33.32-.62.04-1.01.14-2.11.12-3.21-.01-.61-.2-1.21-.35-1.81-.03-.14-.19-.24-.3-.37.07-.18.12-.35.19-.52.27-.69.37-1.4.32-2.14-.05-.71.11-1.38.27-2.07.11-.47.14-.99-.09-1.51.09-.26.2-.58.33-.93-.09-.13-.2-.28-.33-.47v-.76c.62-1.1.6-1.15.14-1.98v-.75c.49-.3.44-.89.62-1.36.13-.33.35-.72.02-1.1-.03-.03-.02-.11,0-.16.16-.45.04-.97.21-1.37.24-.57-.07-.88-.35-1.3.44-.47.52-1.16.98-1.69.26-.29.24-.82.31-1.25.34-.72.73-1.43.59-2.26.5-.7.97-1.37,1.44-2.02.7.21.84.83,1.22,1.38.44.1.88.41,1.31.79.2.49.26,1.07.62,1.59.31.46.34,1.11.53,1.67.1.31.27.6.49,1.07.05.38-.13.97.15,1.52.02.04-.02.13.01.15.56.47.25.93-.06,1.46.16.33.39.67.52,1.05.27.78.24,1.59.09,2.4-.04.23-.1,1.12-.08,1.41.06.68-.12,1.33-.33,2.03.14.42.29.88.44,1.34-.03.99-.22,2.01-.06,2.97.16.98-.1,1.99.28,2.93-.34.46-.48.98-.48,1.53Z"/>
</svg>