<?xml version="1.0" encoding="UTF-8"?>
<svg id="Livello_1" data-name="Livello 1" xmlns="http://www.w3.org/2000/svg" viewBox="0 0 489 489">
  <defs>
    <style>
      .cls-1 {
        fill: #fff;
        stroke-width: 0px;
      }
    </style>
  </defs>
  <path class="cls-1" d="M296.47,236.92c.51-1.34,1.61-3.3,1.14-4.41-1.33-3.1-.99-6.58-2.5-9.51-.45-.87-.78-1.6-.68-2.5.43-3.82-1.9-6.56-3.42-9.71-1.27-2.63-3.85-4.08-4.9-6.85-1.16-3.04-3.46-5.31-6.43-6.85-1.8-.93-2.94-2.52-3.62-4.43-.56,0-1.11,0-1.67,0-.7-2.59-3.24-3.12-5.04-4.43-4.89-3.55-10.07-6.59-16.11-7.82-1.92-1.98-4.39-2.24-6.95-2.23-3.28.02-6.6.33-9.83-.08-3.49-.45-6.58,1.22-9.93,1.2-1.1.42-2.82-1.03-3.34,1.11h-1.11c-.84.17-2.13-.55-2.23,1.11-.84.17-2.13-.55-2.23,1.11-.84.17-2.13-.55-2.23,1.11h-1.11c-.84.17-2.13-.55-2.23,1.11-.84.17-2.13-.55-2.23,1.11h-1.11c-.77-.03-1.14.34-1.11,1.11-.77-.03-1.14.34-1.11,1.11-.84.17-2.13-.55-2.23,1.11-.77-.03-1.14.34-1.11,1.11-.84.17-2.13-.55-2.23,1.11-.77-.03-1.14.34-1.11,1.11-.77-.03-1.14.34-1.11,1.11-.77-.03-1.14.34-1.11,1.11-.77-.03-1.14.34-1.11,1.11-.77-.03-1.14.34-1.11,1.11-.77-.03-1.14.34-1.11,1.11-.77-.03-1.14.34-1.11,1.11-1.76.44-2.4,1.61-2.23,3.34-.77-.03-1.14.34-1.11,1.11-2.26.96-3.38,3.19-5.2,4.64-.71.57-.23,1.36-.37,2.04-1.67.1-.95,1.38-1.11,2.23-.31.13-.84.19-.91.4-1.56,4.52-4.52,8.55-4.68,13.55-2.21,1.93-.32,4.61-1.2,6.69-1.61,3.82-1.59,7.92-1.96,11.86-.42,4.59-.51,9.27.8,13.95.78,2.79,1.62,5.68,2.07,8.53.55,3.55,3.19,5.72,4.39,8.73.77,1.92,1.86,3.36,3.72,4.22-.18,1.73.47,2.9,2.23,3.34-.03.77.34,1.14,1.11,1.11,0,3.04,2.46,4.12,4.45,5.57-.03.77.34,1.14,1.11,1.11-.03.77.34,1.14,1.11,1.11-.03.77.34,1.14,1.11,1.11-.03.77.34,1.14,1.11,1.11,1.78,3.61,5.55,4.72,8.61,6.61,4.97,3.06,10.92,4.03,16.01,6.85,1.58.88,3,1,4.59,1.01,5.37.03,10.74-.13,16.1.07,2.75.1,5.07-1.61,7.78-1.39,5.91-3.57,13.63-4.2,17.59-10.92,4.26-1.74,6.46-5.8,9.71-8.68,3.4-3,5.48-7.22,9.02-10.16.87-.72,1.37-1.99,1.83-3.1,1.78-4.28,3.41-8.59,4.59-13.11,1.26-4.85,2.52-9.61,2.12-14.66-.07-.92-.03-1.85,0-2.78.06-2.67-.08-5.27.94-7.94ZM291.08,230.62c-.64,8.58-.07,17.37-1.99,25.84-1.59,7-2.38,14.4-7.08,20.29-5.55,6.95-11.49,13.51-18.48,19.12-11.64,9.35-24.93,10.87-38.83,7.83-8.7-1.9-16.71-5.95-23.85-11.47-.7-.31-1.4-.59-2.1-.89-.21-.11-.41-.24-.63-.35-.38-.28-.75-.57-1.13-.84-.19-.13-.37-.28-.56-.42-.3-.2-.64-.33-.98-.44.46-1.5-.75-2.35-1.49-3.39-.31-.34-.62-.68-.97-.99-.17-.16-.32-.33-.49-.48-.32-.33-.62-.67-.95-.99-.15-.17-.3-.35-.45-.52-.28-.37-.54-.77-.82-1.14-.13-.2-.24-.42-.36-.62-.22-.44-.45-.9-.7-1.33-14.83-20.59-11.4-42.15-3.38-63.97.29-.68.58-1.36.86-2.05.19-.41.38-.82.55-1.25.27-.57.58-1.12.94-1.63.41-.46.86-.88,1.3-1.31.31-.28.63-.56.92-.86.15-.15.31-.29.46-.44.31-.3.62-.6.91-.93.76-.8,1.47-1.65,2.07-2.59.24-.36.49-.73.71-1.1.12-.18.25-.35.37-.53.26-.34.52-.68.75-1.04.23-.35.46-.7.64-1.08.31-.53.66-1.03,1.05-1.51.56-.6,1.16-1.16,1.75-1.73.31-.28.62-.55.91-.84.15-.14.32-.26.47-.4.33-.25.67-.48,1-.73.71-.44,1.4-.9,2.05-1.43.32-.26.64-.53.94-.82.16-.14.32-.26.48-.4.34-.24.68-.48,1.01-.72.73-.45,1.44-.92,2.1-1.48.33-.29.66-.59.95-.92.14-.17.3-.34.44-.51.28-.36.52-.74.7-1.16,0-.07.02-.14.03-.21.48,0,1.02.12,1.39-.09,0,0,.01,0,.02,0,.68.07,1.35.01,2.02-.16.61-.19,1.19-.45,1.76-.75.36-.17.72-.35,1.07-.56.5-.28,1-.55,1.51-.81.34-.15.68-.3,1.01-.49.5-.26,1.01-.5,1.52-.73.36-.14.72-.28,1.06-.44.78-.29,1.59-.45,2.4-.63.44-.09.88-.18,1.31-.3,1-.22,2.03-.16,3.05-.19,7.5-1.48,15.04.08,22.55-.22.09-.03.18-.06.27-.09.14.25.34.47.62.65,5.91,3.65,12.3,6.5,17.89,10.68.62.46,1.39.46,2.06.05.59,3.66,3.71,5.45,6.11,7.68,8.42,7.82,14.08,17.63,13.25,28.83Z"/>
  <path class="cls-1" d="M227.27,197.07c-1.99,1.66-4.65,1.93-6.26,3.91.1.87-.36,1.81.3,2.61,1.45.81,2.56-.27,3.8-.68.5.53.99,1.06,1.18,1.26v7.26c-2.36,1.06-3.76-1.8-6.21-.78.31,3.21-2.53,2.95-5.41,3.72,3.95,5.54,8.01.68,11.04,1.62,2.21-1.15,2.58-3.12,3.5-4.55,1.12-1.74,2.6-4.21,1.67-6.38-1.14-2.65-1.72-5.62-3.6-7.98Z"/>
  <path class="cls-1" d="M248.94,279.94c-2.49-.64-4.36-2.71-6.76-1.06-2.86,2.98-3.02,6.14-1.07,8.87,2.42,1.97,4.73,1.92,7.12,1.76,4.13-3.43-.97-6.54.72-9.57Z"/>
  <path class="cls-1" d="M205.18,273.23c-.03-.17-.59-.26-.91-.39-.12-.31-.19-.84-.38-.88-.67-.15-.78.34-.74.88-.68-.13-1.03.29-1.09.84-.08.75.05,1.46,1.09,1.38.17,1.79-.35,3.61.36,5.38,2.43,6.08,5.78,11.66,9.35,17.12.51.79,1.27,1.31,2.35.56.75-2.29-.69-3.93-1.87-5.61-5.1-7.3-6.97-11.71-8.16-19.28Z"/>
  <path class="cls-1" d="M271.71,232.84c-.58-.37-.81-1.25-2.71-1.16-.62.15-1.03,2.61-3.41,2.03-.02-1.26-.38-2.61.11-3.94.8-1.04,2.23-1.56,2.01-3.14-2.09-1.93-3.48.76-5.27.81-2.25,5.48-1.85,8.37,1.44,10.85h4.37c1.67-1.53,3.25-3.05,3.45-5.45Z"/>
  <path class="cls-1" d="M206.11,204.72c.23-.19.27-.61.39-.92,1.09-.56,2.19-1.12,3.28-1.67-1.56-.2-3.25-1.51-4.39.56-.56,0-1.21-.19-1.64.04-.9.48-7.05,8.32-7.43,9.65-.9,3.14-3.41,5.72-3.17,9.24-.77-.03-1.14.34-1.11,1.11v1.11c-.77-.03-1.14.34-1.11,1.11-.68-.13-1.03.29-1.09.84-.08.75.05,1.46,1.09,1.38,1.21-.27,1.96-1.01,2.23-2.23.77.03,1.14-.34,1.11-1.11.14-.67-.17-1.34.33-2.06,1.37-1.95,2.93-3.88,3.79-6.06,1.71-4.33,4.22-7.99,7.73-11Z"/>
  <path class="cls-1" d="M241,241.66c.31-.12.88-.24.88-.37.05-2.43.04-4.86.04-7.38-2.93,1.2-1.81,3.59-2.04,5.52-.69-.13-.91.32-1.12.86-.95,2.36-1.56,4.96-2.98,6.99-1.93,2.76-2.64,5.64-2.58,8.86v4.45c.17.84-.55,2.13,1.11,2.23v4.06c1.05.57,1.68.49,2.24-.18.26-1.46-1.66-2.32-1.13-3.88.31-.12.84-.19.88-.38.15-.67-.34-.78-.88-.74-.27-5.15,1.41-9.8,3.71-14.27.95-1.84,2.21-3.54,1.85-5.78Z"/>
  <path class="cls-1" d="M192.71,249.57h-2.9c0,2.3.69,4.6-.16,5.91-1.41,2.18-1.03,4.07-.48,6.12.59,2.19,1.26,4.41,3.51,5.58,1.38-1.69-.46-2.92-.57-4.36-.11-1.39-.62-2.93.31-4.28.8-1.16-.6-2.73.73-3.79-.2-.86-1.49-1.19-1.24-1.93.4-1.3,2.23-1.76.8-3.25Z"/>
  <path class="cls-1" d="M237.99,212.46c.03.11.29.17.44.25.35-.05.7-.09,1.37-.18-.35-3.14,1.16-6.02,1.43-9.23.23-2.74,2.35-5.34,3.16-8.62-5.32,1-4.05,6.23-6.76,8.59.27,3.03-.39,6.13.36,9.19Z"/>
  <path class="cls-1" d="M260.08,194.69c-2.02,1.41-4.7,1.86-6.86,4.11.99,1.86-1.59,3.19-1.07,5.35.72.89,1.21,2.24,2.91,1.77.89-1.14.2-2.48.49-4.05,1.51-1.46,3.25-3.11,4.97-4.79.79-.78.81-1.53-.43-2.38Z"/>
  <path class="cls-1" d="M211.61,213.81c1.35-3.05,2.11-6.69,5.03-9.5-1.66-.22-3.01-.96-4.97.15-.56,2.33-3.03,4.37-3,7.54.79.74,1.2,1.9,2.94,1.8Z"/>
  <path class="cls-1" d="M273.32,257.85c-.61-.61-1.13-1.13-1.44-1.44-1.11.88-2.22,1.76-2.59,2.06-1.32,3.65,1.04,5.4,1.75,7.69-.68-.13-1.03.29-1.09.84-.08.75.05,1.46,1.09,1.38.14,1.07-.36,2.3.6,3.38.83-1.22.37-2.34.51-3.38.68.13,1.03-.29,1.09-.84.08-.75-.05-1.46-1.09-1.38,1.95-2.59.79-5.58,1.16-8.3Z"/>
  <path class="cls-1" d="M271.56,208.95c.71-3.17.88-6.32.45-9.37-1.9-.7-2.37.76-2.92,1.33v9.47c1.64.43,2.14-.77,2.47-1.42Z"/>
  <path class="cls-1" d="M247.22,298.73c.96.78,1.52,1.23,2.36,1.92,3.04.21,6.31.14,8.6-3.85-4.52-1.85-7.01,2.17-10.96,1.94Z"/>
  <path class="cls-1" d="M223.58,269.64c-.83.72-.18,1.71-.44,2.68,2.1,1.54,3.33,4.19,6.09,5.19,1.65-2.47-.57-3.95-1.1-5.78-2.08.54-2.29-2.95-4.56-2.09Z"/>
  <path class="cls-1" d="M254.97,220.55c-.34.3-.86.76-1.57,1.4v6.07c1.17.31,2.2.65,3.12-.21.25-1.98-.4-4.1.92-5.97-.76-.42-1.06-1.52-2.47-1.28Z"/>
  <path class="cls-1" d="M218.68,221.76q.39,2.78,2.53,4.3c.9-.53,1.78-1.08,1.98-2.23q-1.7-1.91-4.51-2.07Z"/>
  <path class="cls-1" d="M204.99,222.74c-.84,1.02-1.71,2.08-2.56,3.1.54.35.83,1.48,1.94,1.35,1.83-.72,2.45-2.06,2.11-3.92-.34-.49-.85-.6-1.49-.54Z"/>
  <path class="cls-1" d="M243.04,231.56v-5.4h-1.92c-.05,2.05-.9,4.17,1.92,5.4Z"/>
  <path class="cls-1" d="M251.02,251.68v2.23c-.31.12-.84.19-.88.38-.15.67.34.78.88.74v3.34c.42,1.1-1.03,2.82,1.11,3.34-.33,1.54.7,3.26-.75,4.7-.86.86-.71,2.5-.27,3.09,1.29,1.72.77,3.76,1.18,5.49.85.05,1.41.28,1.85-.27.61-1.55-.4-3.5,1.11-4.87-1.48-1.45-1.31-2.84.16-4.18-1.78-1.39-.82-3.35-1.06-5.07,0-1.05,0-2.1,0-3.15,0-.76-.15-1.38-1.11-1.31v-8.64c-1.25-.33-2.14-.57-2.23.85v1.11c-.68-.13-1.03.29-1.09.84-.08.75.05,1.46,1.09,1.38Z"/>
  <path class="cls-1" d="M220.97,245v-2.23c-.17-.84.55-2.13-1.11-2.23-.42-1.1,1.03-2.82-1.11-3.34-1.51,1.41-1.51,3.05,0,4.45v1.11c.17.84-.55,2.13,1.11,2.23.24.68-.58,1.76.71,2.07.73-.62.27-1.4.4-2.07Z"/>
  <path class="cls-1" d="M210.39,246.1c.52-.36.52-.73,0-1.09-.52.36-.52.73,0,1.09Z"/>
</svg>