<?xml version="1.0" encoding="UTF-8"?>
<svg id="Livello_1" data-name="Livello 1" xmlns="http://www.w3.org/2000/svg" viewBox="0 0 489 489">
  <defs>
    <style>
      .cls-1 {
        fill: #000;
      }

      .cls-1, .cls-2 {
        stroke-width: 0px;
      }

      .cls-2 {
        fill: #fff;
      }
    </style>
  </defs>
  <path class="cls-1" d="M179.23,433.64c-.09-.53-.17-1.06-.26-1.59-.11-.65-.2-1.3-.33-1.95-.16-.85-.34-1.7-.54-2.54-.06-.24-.25-.45-.31-.69-.29-1.14-.55-2.28-.82-3.42-.11-.44-.25-.88-.33-1.33-.15-.86-.24-1.72-.39-2.58-.09-.5-.22-1-.34-1.5-.09-.36-.19-.73-.26-1.09-.19-.94-.3-1.9-.56-2.82-.49-1.71-.6-3.47-.91-5.2-.09-.51-.13-1.03-.18-1.54-.02-.19-.02-.38-.07-.56-.18-.75-.37-1.5-.56-2.25-.02-.09-.06-.18-.07-.27-.15-1.4-.28-2.81-.45-4.21-.13-1.05-.32-2.09-.46-3.14-.18-1.3-.36-2.59-.49-3.89-.07-.65,0-1.31-.03-1.96-.08-1.51-.2-3.02-.29-4.52-.06-1.03-.09-2.06-.14-3.09-.03-.62-.14-1.25-.11-1.87.04-.89.16-1.78.27-2.66.07-.54.13-1.09.23-1.63.22-1.13.43-2.29.38-3.43-.05-1.23.26-2.38.4-3.56.15-1.3.58-2.57.89-3.85.24-.99.5-1.96.97-2.87.03-.06.06-.13.07-.2.2-1.15.36-2.31.6-3.46.19-.94.44-1.87.72-2.8.45-1.5.9-3.01,1.43-4.49.5-1.39,1.04-2.78,1.79-4.06.27-.46.58-.91.83-1.39.19-.36.31-.76.48-1.13.42-.89.87-1.76,1.27-2.66.39-.88.72-1.78,1.09-2.67.32-.78.62-1.58.98-2.34.67-1.4,1.38-2.78,2.09-4.16.15-.29.38-.54.53-.83.49-.91.96-1.83,1.44-2.75.06-.12.09-.26.13-.4.05-.2.05-.45.16-.61.57-.86.84-1.85,1.26-2.78.36-.77.64-1.58,1.04-2.33.6-1.11.96-2.32,1.68-3.39.54-.8.87-1.75,1.28-2.64.28-.61.56-1.23.8-1.86.37-.94.68-1.91,1.06-2.84.23-.57.55-1.09.78-1.66.16-.4.24-.84.33-1.27.21-1.01.4-2.01.8-2.98.39-.95.6-1.98.81-2.99.2-.98.27-1.98.42-2.97.05-.36.06-.77.24-1.07.53-.9,0-1.72-.02-2.63-.49-.05-.93-.12-1.37-.12-.68,0-1.37,0-2.05.07-.77.09-1.54.21-2.28.41-1.45.39-2.88.85-4.32,1.29-.33.1-.63.27-.91.4.05.36.08.61.11.86-.28.16-.52.3-.8.46-.36-.21-.72-.42-1.09-.64.34-1.87.27-3.71.25-5.55-.01-1.16-.17-2.32-.11-3.47.07-1.46-.1-2.92-.02-4.38.03-.49.1-.98.12-1.48.01-.28-.02-.56-.03-.85-.03-.91-.26-1.8-.14-2.73.08-.62-.06-1.27-.09-1.9-.04-1.01-.09-2.03-.09-3.05,0-.54.09-1.08.11-1.62.02-.8.01-1.59,0-2.39,0-.57-.02-1.14-.02-1.71,0-.97.01-1.94,0-2.92,0-.42-.13-.84-.12-1.26,0-.61.11-1.22.12-1.83.02-.92.13-1.88-.07-2.77-.14-.63.04-1.23-.09-1.85-.05-.23-.07-.45-.16-.55.03-1.53.17-2.96-.09-4.4-.08-.45-.08-.92-.1-1.38-.11-2.06-.23-4.12-.3-6.18-.03-.84.06-1.69.03-2.54-.01-.48-.18-.96-.21-1.44-.1-1.38-.16-2.76-.24-4.15-.02-.3.02-.61-.06-.89-.13-.45-.1-.86.05-1.31.1-.29,0-.64-.03-.96-.09-.89-.19-1.78-.27-2.67-.1-1.05-.3-2.11-.25-3.16.04-.8-.27-1.55-.1-2.37.1-.46-.2-.99-.31-1.5-.04-.19-.05-.4-.08-.59-.04-.27-.09-.54-.15-.81-.01-.07-.08-.13-.09-.19-.11-.82-.23-1.63-.31-2.45-.11-1.21-.25-2.42-.25-3.63,0-.56-.19-1.11-.03-1.7.1-.37-.11-.83-.19-1.25-.03-.16-.1-.33-.08-.48.13-.85-.02-1.69-.12-2.53-.09-.84-.1-1.69-.21-2.54-.07-.55-.25-1.09-.34-1.64-.05-.3-.12-.63-.04-.91.16-.57.07-1.11-.01-1.68-.1-.71-.09-1.44-.13-2.16-.02-.42.05-.86-.05-1.25-.16-.62-.03-1.21,0-1.81.02-.35-.06-.7-.08-1.05-.03-.51.02-1.03-.06-1.52-.12-.71.04-1.4,0-2.09-.06-.95.11-1.9.04-2.85-.02-.28-.13-.54-.16-.82-.1-.83-.22-1.66-.27-2.49-.02-.43.1-.87.17-1.44-.2-.06-.47-.17-.75-.21-1.19-.15-2.35-.33-3.48-.79-1.34-.55-2.76-.89-4.14-1.34-.6-.19-1.19-.39-1.78-.63-.98-.39-1.95-.81-2.92-1.22-.19-.08-.36-.19-.56-.3-.17.02-.4.12-.59.06-1.43-.47-2.89-.89-4.26-1.49-.86-.38-1.8-.33-2.64-.69-.13-.05-.3-.05-.39-.14-.56-.53-1.35-.6-1.94-1.1-.35-.29-.92-.33-1.39-.47-.22-.07-.46-.08-.69-.15-1.05-.32-2.09-.64-3.13-.99-.62-.21-1.24-.44-1.85-.69-.73-.29-1.44-.61-2.2-.92-.02.09-.08.18-.06.26.19,1.1.18,2.2,0,3.31-.06.38-.02.78,0,1.18.12,1.78.27,3.55.38,5.33.05.82.05,1.64.07,2.46.03.93.07,1.86.07,2.79,0,.27-.13.53-.22.89.09.18.21.46.35.75-.12.13-.23.25-.36.39.13.19.25.37.41.61-.17.08-.29.13-.42.18,0,.03-.02.08,0,.11.38,1.03.57,2.08.55,3.18-.01.84-.12,1.72.08,2.51.12.48.17.81-.06,1.22-.07.12,0,.32.02.49.07.44.19.87.24,1.31.07.77.09,1.55.15,2.32.07.95.17,1.91.25,2.86,0,.05.02.1.01.14-.27,1.07.31,2.06.27,3.11-.03.71.22,1.37.25,2.05.04.92.23,1.8.33,2.7.02.21-.05.49-.17.65-.34.44-.31.9-.12,1.34.36.82.51,1.66.46,2.55-.02.28-.03.59.06.84.24.68.02,1.3-.18,1.92q.49.55.15,1.23c.06.12.12.24.19.37.06.1.12.19.2.31-.14.19-.26.36-.42.57.6.6.67,1.34.47,2.13-.01.05-.03.11-.01.14.37.63.21,1.34.27,2.01.04.52.05,1.05.02,1.58-.02.38-.06.73.13,1.1.15.3.21.68.23,1.03.07,1.32.51,2.57.72,3.86.18,1.14.38,2.27.58,3.41,0,.02,0,.05,0,.07,0,.88,0,1.76.02,2.64.01.37.1.74.17,1.1.07.39.2.78.24,1.17.08.7.11,1.41.16,2.11.03.39.03.79.1,1.17.12.63.3,1.25.41,1.88.13.74.19,1.49.34,2.23.24,1.23.24,2.47.3,3.71.08,1.76.26,3.52.41,5.27.14,1.59.26,3.18.44,4.77.14,1.24.33,2.47.53,3.7.17,1.06.42,2.12.59,3.18.21,1.28.36,2.56.57,3.84.16.95.39,1.89.61,2.83.03.13.1.3.21.36.43.25.89.45,1.33.71.36.21.7.44,1.03.69.51.38.99.79,1.51,1.16.77.54,1.54,1.09,2.35,1.57,1.32.76,2.67,1.47,4.01,2.2.12.07.24.16.36.22.42.2.83.41,1.26.6.28.12.63.15.83.35.59.58,1.37.68,2.09.92.27.09.53.19.8.29.51.19,1.02.35,1.52.57.43.19.84.42,1.24.66.82.49,1.77.57,2.66.86,1.86.61,3.72,1.21,5.39,2.25.65.41.7.75.27,1.49-.53.14-.97.02-1.41-.37-.32-.29-.78-.44-1.19-.6-.76-.3-1.54-.55-2.3-.85-.6-.24-1.17-.62-1.79-.74-.87-.17-1.6-.64-2.41-.93-1.03-.38-2.04-.8-3.06-1.2-.61-.24-1.23-.46-1.83-.72-.64-.28-1.25-.66-1.91-.88-1.29-.42-2.36-1.19-3.48-1.9-1.09-.68-2.26-1.23-3.37-1.88-1.11-.65-2.07-1.48-2.79-2.56-.13-.19-.27-.36-.46-.4-.52,0-1.03,0-1.55,0-.36,0-.55-.16-.61-.54-.19-1.08-.43-2.16-.62-3.24-.09-.49-.2-.99-.17-1.47.08-1.18-.34-2.28-.51-3.42-.23-1.56-.67-3.08-.67-4.68,0-.62-.22-1.25-.28-1.87-.09-.86-.13-1.73-.19-2.6,0-.09.04-.19.03-.28-.17-1.19-.34-2.37-.51-3.56-.02-.12-.02-.24-.02-.35-.08-1.32-.14-2.64-.25-3.95-.11-1.28-.31-2.56-.39-3.84-.08-1.24-.54-2.4-.61-3.63-.04-.68-.12-1.36-.16-2.04-.03-.47.08-.95-.24-1.37-.05-.06-.04-.18-.04-.28-.05-.97,0-1.95-.17-2.89-.19-1.11-.16-2.24-.53-3.33-.28-.8-.3-1.69-.44-2.54-.03-.16-.04-.33-.1-.48-.32-.8-.23-1.66-.3-2.49-.1-1.32-.04-2.65-.2-3.95-.19-1.51-.32-3.01-.41-4.53-.02-.37-.09-.75-.14-1.12-.09-.71-.19-1.42-.27-2.14-.03-.23-.04-.48-.01-.71.15-1.35-.08-2.67-.25-3.99-.03-.27.09-.55.09-.83.01-1.11,0-2.2-.34-3.29-.23-.76-.48-1.58-.24-2.42.03-.11.03-.26-.02-.35-.45-.79-.1-1.69-.34-2.51-.04-.13.11-.3.12-.46.05-.57-.04-1.12-.42-1.57.35-.59.49-1.18.28-1.84-.07-.24-.02-.52-.03-.78-.04-.52-.09-1.03-.12-1.55-.02-.28.03-.57.01-.85-.02-.38-.08-.76-.12-1.14-.05-.53-.11-1.06-.15-1.59-.02-.2-.01-.41-.01-.61,0-.53-.25-1.05-.06-1.6.07-.21-.04-.52-.16-.74-.3-.59-.37-1.16.06-1.74-.12-.14-.23-.26-.34-.38.24-.5.3-1.02.03-1.54.26-.41.37-.81.1-1.27-.09-.16,0-.43.02-.75-.19-.16-.18-.44-.14-.79.07-.72.04-1.44.01-2.17,0-.17-.14-.34-.23-.56.24-.31.28-.67.08-1.07-.09-.18-.09-.41-.11-.62-.08-.7-.16-1.4-.24-2.1-.02-.16-.06-.33-.04-.49.08-1.01.18-2.01.25-3.02.01-.13-.05-.27-.07-.41-.1-.59-.33-1.14-.23-1.79.08-.56-.09-1.15-.16-1.83.05-.08.17-.26.25-.4.69-.35,1.53-.02,2.03-.63,1.08.08,2.04-.03,2.92-.72.52.19,1.08.1,1.61-.14.47-.22.94-.38,1.49-.37.36,0,.72-.19,1.1-.3.49.23.96.25,1.52,0,.5-.21,1.1-.18,1.67-.22.44-.03.88-.06,1.31,0,.9.12,1.75-.29,2.65-.17.11.02.23-.05.34-.09,1.01-.32,2.05-.56,3.02-.97.87-.37,1.78-.34,2.76-.59-.05-.34-.11-.7-.15-.96,1.1-1.12,2.18-2.21,3.26-3.3.11-.11.23-.25.38-.3.39-.14.58-.5.57-.8-.05-1.17.4-2.19.78-3.25.42-1.18.93-2.3,1.52-3.4.4-.74.59-1.59.95-2.35.38-.8.67-1.63.93-2.46.43-1.38,1.15-2.66,1.34-4.14.06-.49.39-.95.6-1.42.02-.04.08-.09.08-.11-.16-.59.31-1.01.38-1.53.18-1.29.66-2.48,1.14-3.68.3-.74.66-1.46.92-2.21.15-.42.13-.91.24-1.35.31-1.23.65-2.44.97-3.67.25-.95.49-1.9.74-2.85.08-.28.21-.55.31-.83.52-1.48,1.03-2.95,1.54-4.43.12-.35.19-.72.28-1.09.02-.07,0-.16.04-.2.5-.5.41-1.23.7-1.82.24-.49.22-1.09.39-1.63.3-.93.55-1.87.99-2.76.68-1.36,1.35-2.73,1.87-4.16.24-.66.7-1.25.7-1.99.65-.62.63-1.54,1.03-2.28.33-.59.52-1.26.76-1.9.28-.75.43-1.57.83-2.24.47-.78.55-1.67.91-2.47.36-.8.6-1.66,1.01-2.44.71-1.35,1.09-2.82,1.74-4.19.54-1.14.89-2.36,1.33-3.54.14-.37.34-.72.46-1.09.2-.6.35-1.21.52-1.8-.14-.27-.22-.59-.42-.78-.37-.35-.78-.69-1.23-.93-.42-.22-.91-.32-1.49-.51-.58.96-1.29,1.92-1.64,3.15-.31-.01-.38.32-.47.64-.21.7-.38,1.41-.68,2.07-.16.36-.54.63-.86.98.11.29.12.61-.19.85-.07.05-.1.16-.13.25-.22.83-.69,1.55-.92,2.39-.17.6-.6,1.11-1.24,1.27-.68.17-1.37.02-1.95-.36-.2-.13-.26-.47-.38-.71.14-.17.27-.29.34-.43.44-.93.91-1.86,1.28-2.82.29-.76.45-1.57.69-2.35.07-.24.19-.48.33-.7.44-.7.78-1.42.97-2.23.08-.33.42-.6.62-.91.15-.24.28-.49.41-.74.17-.36.34-.72.49-1.08.15-.36.28-.73.45-1.16-.4-.31-.74-.68-1.15-.87-.99-.44-1.83-1.25-3.02-1.28-.35.47-.7.93-1.03,1.41-.13.19-.28.42-.28.64,0,.58-.25,1-.53,1.18-.29.79-.52,1.38-.72,1.99-.09.27-.14.56-.22.91-.11.2-.29.47-.42.76-.56,1.27-1.07,2.56-1.95,3.67-.37.47-.57,1.08-.88,1.6-.5.81-1.89.84-2.32.06-.25-.46-.24-.95-.04-1.43.34-.79.66-1.59,1-2.39.37-.86.75-1.71,1.13-2.56.32-.73.63-1.46.94-2.19.53-1.26,1.06-2.51,1.57-3.77.16-.41.24-.86.34-1.29.02-.07.02-.16-.02-.21-.49-.66-.87-1.47-1.67-1.78-1.09-.42-2.23-.72-3.36-1.03-.53-.15-1.03-.69-1.05-1.25,0-.17,0-.33,0-.43.32-.36.59-.68.93-1.06.21-.07.52-.18.8-.28,1.3.85,2.58,1.69,3.93,2.58.4-1.21.89-2.34,1.12-3.52.2-1.02.83-1.75,1.18-2.69,1.28.24,2.55.09,3.64.79-.15.79-.34,1.44-.7,2.07-.43.75-.91,1.51-.89,2.46.01.38-.18.76-.26,1.15-.1.51.16.86.55,1.14.52.37,1.05.71,1.56,1.1.2.15.35.37.57.61.96-.41,1.73.65,2.79.48.15-.29.31-.6.46-.92.47-.98.88-1.98,1.41-2.92.29-.52.77-.94,1.19-1.37.27-.27.61-.23.9,0,.53.44.98.97,1.28,1.59.2.41.06.83-.27,1.19-.35.38-.63.8-.66,1.36,0,.27-.09.62-.27.77-.33.28-.39.61-.44.99-.04.29-.16.56-.28.84-.05.64.2,1.04.86,1.33.94.41,1.81.98,2.7,1.5.5.29.77.23.98-.31.12-.32.19-.67.35-.98.11-.22.34-.38.55-.6-.05-.77.37-1.43.76-2.11.32-.57.56-1.19.86-1.77.51-.98,1.05-1.95,1.56-2.93.25-.48.45-.98.67-1.47.21-.45.42-.89.67-1.42-.16-.32-.35-.7-.55-1.1.42-.42.77-.77,1.37-.84.64-.07,1.27-.25,1.88-.45.34-.12.63-.4.95-.58.26-.15.54-.26.81-.38.49-.21.97-.45,1.48-.61.53-.17,1.09-.26,1.63-.38.05-.01.09-.02.14-.04.71-.29,1.42-.6,2.14-.86.38-.14.46-.38.4-.71-.15-.83-.32-1.66-.49-2.49-.15-.76.15-1.26.86-1.62.52-.26,1.1-.35,1.57-.78.48-.43,1.1-.07,1.17.59.02.18.09.36.14.54.04.16.13.31.13.47.01,1.1.02,2.2,0,3.3,0,.24-.07.49-.12.82.11-.12.18-.2.26-.28.27-.3.54-.57.97-.66.27-.05.52-.22.79-.3.63-.2.88-.65.88-1.29,0-1.04.02-2.08-.01-3.12-.02-.5.14-.88.53-1.16.49-.34.81-.85,1.44-1.06.67-.23,1.16-.17,1.36.51.12.4.15.83.14,1.25-.01.84-.08,1.69-.11,2.53,0,.22.04.45.06.69.78-.31,1.47-.64,2.19-.85.31-.09.65-.07.97-.23.71-.34,1.45-.63,2.15-.98.65-.33,1.28-.64,2.04-.62.2,0,.44-.04.61-.15.53-.34,1.07-.31,1.66-.15.63-.76,1.64-.56,2.43-.94.6-.29,1.24-.5,2.02-.81.2.07.58.19.91.29.05.46.09.85.14,1.24.03.29-.18.38-.37.53-.75.58-1.66.76-2.5,1.11-.32.13-.65.27-.92.48-.39.29-.78.44-1.22.28-.17.13-.31.28-.47.35-.76.31-1.53.59-2.3.89-1.22.48-2.44.95-3.63,1.49-.37.17-.68.43-1.14.42-.34,0-.48.31-.63.59-.14.26-.32.6-.55.69-.64.22-.77.76-.85,1.27-.15.87-.34,1.73-.2,2.65.11.66-.03,1.37-.14,2.04-.14.8-.07,1.58,0,2.39.07.81-.12,1.64-.15,2.46-.04.88-.48,1.23-1.34,1.4-.48.1-.84-.11-1.26-.1-.07,0-.17-.1-.21-.17-.21-.44-.5-.87-.59-1.34-.2-.96-.49-1.93-.26-2.93.01-.05.03-.1.01-.14-.39-.77-.09-1.59-.05-2.35.05-.75.15-1.5.17-2.26,0-.25.14-.49.21-.74-.31-.38-.68-.25-1.05-.18-.52.09-1.05.15-1.75.24-.2.16-.27.51-.17.99.11.57.07,1.16.08,1.75.02,1.06-.05,2.12.19,3.16.07.31.02.65.03.98,0,.18,0,.37.04.54.26.96-.14,1.63-1.14,1.77-.39.06-.67.18-.81.58-.61-.16-1.3.12-1.81-.46.09-1.16-.46-2.28-.27-3.49.11-.71.08-1.45.11-2.18.01-.27.04-.53.16-.81-.15-.32-.29-.64-.45-.98-.21-.02-.4-.03-.73-.06.22-.19.35-.3.49-.42-.05-.04-.09-.11-.15-.11-.88-.07-1.71.13-2.53.4-.45.15-.87.35-1.32.49-.16.05-.36-.01-.56-.02-.56.33-.82.82-.95,1.47-.11.51-.43.98-.63,1.48-.3.73-.71,1.41-.8,2.24-.05.46-.42.88-.64,1.32-.2.4-.39.81-.58,1.21-.18.36-.35.72-.54,1.07-.1.19-.26.35-.31.55-.17.73-.68,1.21-1.18,1.65,0,.23.08.49-.01.61-.44.58-.53,1.3-.84,1.93-.14.29-.38.55-.51.84-.58,1.32-1.15,2.64-1.69,3.97-.12.3-.34.66.03.98.71-.12,1.42-.24,2.14-.35.16-.03.34-.06.49-.02.71.19,1.32-.16,1.97-.31.52-.13,1.04-.33,1.57-.37.48-.04.92-.12,1.35-.32.73-.33,1.54-.19,2.29-.35.87-.19,1.71-.49,2.56-.73.47-.13.95-.31,1.44-.32,1.83-.03,3.56-.59,5.33-.94,1.01-.2,2-.5,3.01-.7,1.03-.21,2.08-.34,3.11-.52.14-.02.29-.05.4-.13.85-.63,1.88-.54,2.86-.76.07-.1.16-.23.26-.38.19.09.36.17.51.25.83-.33,1.63-.67,2.45-.96.4-.14.84-.26,1.26-.25.6,0,1-.35,1.47-.6.6-.32.74-.85.87-1.43.14-.66.19-1.38.47-1.98.51-1.09,1.03-2.19,1.86-3.1.44-.48.86-1,1.25-1.52.42-.55.92-.97,1.53-1.31.63-.35,1.21-.8,1.82-1.2.6-.4,1.22-.76,1.95-.9.42-.08.81-.36,1.19-.58.89-.51,1.84-.79,2.91-.88.15.25.31.5.45.77.58,1.13,1.15,2.26,1.71,3.4.36.74.84,1.45,1.04,2.23.23.94.56,1.89.41,2.91-.11.74-.09,1.49-.13,2.27.13.05.32.18.38.14.67-.51,1.52-.12,2.22-.47,1.31.24,2.55-.28,3.84-.38.84-.07,1.76-.29,2.53-.79.1-.06.23-.15.32-.13.74.16,1.19-.38,1.67-.73.25-.18.47-.29.76-.28.07,0,.14,0,.21,0,.81-.14,1.61-.24,2.02.78.3-.14.6-.19.75-.36.39-.42.89-.46,1.39-.55.18-.03.37-.09.55-.14.63-.19.9-.11,1.14.33.23.43.14,1.06-.28,1.34-.45.29-.97.46-1.45.7-.31.15-.6.34-.91.5-.12.07-.26.19-.38.18-.54-.06-.81.32-1.13.63-.38.37-.75.74-1.26,1.24-.34.06-.87.25-1.39.23-.36,0-.84-.2-1.04-.47-.52-.72-1.23-.57-1.8-.38-1.07.35-2.12.54-3.24.5-.3-.01-.65.1-.92.26-.84.49-1.75.64-2.69.72-.93.08-1.79.36-2.65.74-.87.38-1.83.55-2.75.82-.29.09-.57.21-.84.33-.17.07-.32.2-.5.23-1.1.15-1.55-.29-1.46-1.48.03-.39.15-.79.3-1.16.08-.2.29-.46.48-.49.88-.16,1.64-.67,2.58-.68.59,0,1.21-.3,1.76-.57.23-.11.46-.45.5-.72.21-1.4.23-2.8-.03-4.22-.13-.71-.44-1.24-.83-1.81-.49-.71-.83-1.53-1.25-2.29-.2-.37-.38-.76-.63-1.1-.3-.4-.68-.35-.99.04-.51.64-1.03,1.26-1.54,1.9-.1.13-.23.26-.27.41-.3.97-.72,1.87-1.25,2.73-.07.12-.13.26-.17.39-.21.69-.46,1.38-.59,2.09-.37,1.98-1.13,3.89-1.02,5.96.02.47-.1.94-.14,1.41-.14,1.76-.31,3.52-.4,5.29-.03.55.13,1.1.21,1.66.11.74.19,1.49.34,2.23.09.47.24.94.43,1.39.08.19.31.39.5.43.78.16,1.15.66,1.3,1.44.56-.12.82-.6,1.16-.96.42-.44.75-.97,1.18-1.41.37-.39.58-.84.81-1.31.4-.82.83-1.64,1.35-2.39.46-.65.74-1.37.99-2.1.2-.57.32-1.16.47-1.74.01-.05,0-.11.02-.14.57-.51.33-1.24.5-1.86.08-.28-.05-.63-.09-1,.11-.22.26-.5.45-.88.53.81,1.15,1.52.85,2.56-.24.86-.45,1.73-.72,2.58-.2.62-.45,1.23-.7,1.83-.26.62-.49,1.26-.82,1.84-.71,1.26-1.41,2.55-2.26,3.71-.55.76-1.2,1.47-1.99,2.04-.32.23-.5.66-.77,1.02h-1.03c-.57-.05-.96-.39-1.16-.94-.14-.39-.46-.63-.77-.89-1.25-1.08-2.75-1.88-3.72-3.29-.41-.6-.87-1.14-1.12-1.85-.32-.88-.83-1.68-1.19-2.54-.21-.49-.29-1.03-.42-1.56-.06-.23-.11-.46-.14-.69-.06-.53-.1-1.07-.15-1.6-.04-.41-.09-.82-.14-1.34-.84.21-1.55.43-2.28.56-1.03.18-1.96.8-3.05.75-.19,0-.37-.05-.55-.07-.67.28-1.13,1.07-2.02.71-.1.18-.18.34-.2.37-.6.18-1.09.29-1.56.47-.31.12-.59.17-.93.17-.4,0-.81.19-1.19.35-.6.25-1.13.57-1.86.55-.62-.02-1.24.31-1.93.37-.08.16-.16.32-.27.54-.74-.14-1.33.24-1.93.64-.19.13-.46.23-.67.2-.93-.14-1.73.31-2.55.58-.72.23-1.38.67-2.1.89-.98.31-1.93.72-2.91,1-1.98.56-3.99,1.03-6,1.52-1.45.35-2.9.68-4.35,1.02-.16.04-.31.1-.44.14-.37,1.04-.4,1.1-1.01,1.43-.25.61-.49,1.27-.8,1.89-.12.25-.39.42-.62.65-.01.12.02.36-.07.54-.22.48-.6.92-.71,1.42-.16.73-.64,1.34-.63,2.13,0,.41-.12.86-.33,1.22-.27.47-.26.98-.39,1.47-.24.87-.59,1.71-.89,2.56-.11.33-.16.67-.28,1-.73,1.96-1.47,3.92-2.19,5.88-.18.5-.36,1.02-.41,1.55-.04.42-.16.77-.38,1.11-.1.15-.18.33-.22.51-.21.91-.47,1.8-.8,2.67-.09.24-.22.47-.32.7-.4.87-.8,1.74-1.18,2.63-.16.38-.3.77-.36,1.18-.14,1.02-.74,1.84-1.17,2.73-.4.82-.74,1.67-1.11,2.51-.33.74-.66,1.49-.98,2.24-.12.28-.2.58-.32.86-.09.23-.22.44-.32.67-.12.28-.23.56-.34.84-.42,1.04-.81,2.1-1.29,3.12-.48,1.04-1.07,2.03-1.57,3.06-.43.91-.8,1.85-1.2,2.78-.06.13-.06.29-.15.4-.99,1.31-1.29,2.95-2.13,4.33-.09.15-.09.36-.14.54-.04.16-.08.32-.14.46-.28.66-.57,1.32-.86,1.97-.11.23-.29.43-.39.66-.2.47-.34.97-.55,1.44-.14.31-.33.6-.51.9-.01.02-.04.03-.04.05-.26.85-.52,1.7-.8,2.61.6-.1,1.06.12,1.5.37.79.46,1.55.96,2.33,1.44.11.07.28.14.39.11.53-.17,1.15.02,1.6-.44.1-.1.3-.09.46-.12.88-.16,1.74-.35,2.54-.79.33-.18.68-.37,1.04-.43.61-.1.95-.44,1.13-1.02h.59c.3-1.19.59-2.35.89-3.5,0-.02,0-.06.02-.07.76-.44.35-1.22.54-1.82.35-1.1.41-2.28,1.12-3.29.35-.5.67-1,1.08-1.46.47-.53,1.06-.87,1.68-1.16.64-.3,1.29-.12,1.82.25.54.38,1.15.51,1.72.78.18.08.36.2.48.35.23.26.43.56.64.84.6.76,1.03,1.57,1.08,2.59.05,1.03.25,2.05.39,3.12.93-.2,1.92-.28,2.86-.7.41-.19.92-.12,1.38-.21.27-.05.53-.18.79-.28.22-.08.44-.22.66-.24,1.3-.07,2.45-.76,3.74-.85.21-.02.44.08.67.12.19-.06.41-.19.63-.18.68.02,1.26-.28,1.88-.48.78-.25,1.58-.45,2.37-.65.12-.03.26.06.45.1-.13.37-.23.7-.36,1.02-.05.12-.15.28-.26.31-.73.23-1.47.5-2.3.4-.52.69-1.35.52-2.07.64-.64.1-1.3.05-1.95.06-.07,0-.14.03-.2.05-1.07.36-2.13.74-3.21,1.09-.49.16-1,.23-1.5.35-.82.2-1.64.39-2.45.63-.29.08-.53.3-.81.44-.2.1-.43.17-.74.29,0,.36.02.8,0,1.25-.03.39-.11.78-.17,1.18-.02.13-.03.27-.01.41.05.49.13.99-.15,1.45-.06.09-.07.23-.07.34-.03.46-.05.92-.07,1.48.08.05.24.17.45.32v.86c-1.2.4-2.39.81-3.74,1.26.42,0,.73.07.98-.01.88-.31,1.83-.14,2.69-.43.76-.26,1.53-.58,2.01-1.35h.61c-.16-.29-.28-.49-.45-.78.45-.19.87-.36,1.41-.58-.98-.04-1.83.24-2.7.3-.16-.24-.32-.47-.48-.69.07-.34.17-.61.6-.54.07.01.16-.06.24-.1.81-.4,1.68-.37,2.54-.35.17,0,.45.07.49.18.21.54.62.98.66,1.61.03.4.23.8.38,1.29-.57.49-1.28.9-2.02,1.23-.78.36-1.62.6-2.43.91-.55.21-1.06.41-1.7.35-.58-.05-1.18.16-1.78.25-.16.02-.34.07-.48.02-.59-.19-1.13-.02-1.65.19-.42.17-.79.3-1.28.21-.38-.07-.81.14-1.22.23-.18.04-.36.11-.54.13-.72.1-1.45.18-2.16.3-.33.06-.62.05-.96-.05-.37-.12-.79-.07-1.19-.08-.11,0-.25.1-.34.07-.65-.23-1.25-.6-1.65-1.14-.33-.44-.26-1.03-.12-1.56.04-.16.23-.3.37-.42.5-.44,1-.89,1.51-1.31.27-.22.58-.38.92-.58.06-.42.15-.88.2-1.35.06-.61-.41-.85-1.08-.6-.79.3-1.57.62-2.37.86-1.1.32-2.23.57-3.35.84-.11.03-.23,0-.35.02-.36.05-.74.06-1.09.16-.6.17-1.2.4-1.79.61-.74.27-1.48.56-2.22.83-1.06.37-2.12.69-3.26.75-.37.02-.73.19-1.09.25-.28.04-.57,0-.9,0-.63.09-1.32.17-2,.29-.62.11-1.23.26-1.85.38-.18.04-.38.01-.56.05-.17.04-.34.11-.5.19-.08.04-.14.16-.22.17-1.08.14-2.04.75-3.16.78-1.58.05-3.16.09-4.72.3-1.11.15-2.25.15-3.33.55-.5.18-1.08.17-1.61.37-.56.22-1.17.34-1.76.49-.38.09-.76.15-1.23.24.61.52,1.28.68,1.91.9.4.14.8.27,1.2.4.67.21,1.35.42,2.02.64.31.1.61.22.9.34,1.26.52,2.5,1.11,3.79,1.56.91.31,1.76.85,2.77.83,1.04.61,2.35.51,3.34,1.3.28.23.75.22,1.14.33.65.19,1.31.36,1.95.57,1.03.33,2.05.66,3.06,1.03,1.25.45,2.48.97,3.73,1.41,1.08.39,2.17.75,3.27,1.06.41.12.87.05,1.31.1.44.06.87.17,1.32.24.18.03.37-.02.61-.03.13.12.3.28.46.43.09,0,.18.01.22-.02.8-.63,1.86-.67,2.69-1.27.42-.31.96-.46,1.47-.63,1.47-.47,2.96-.89,4.38-1.51.51-.22,1.07-.34,1.62-.47,1.27-.3,2.55-.56,3.81-.86.68-.16,1.33-.4,2.01-.56.93-.21,1.88-.39,2.82-.56.28-.05.57-.03.74-.32.03-.05.12-.08.18-.09.92-.15,1.85-.29,2.77-.46.88-.16,1.75-.31,2.62-.51.73-.17,1.45-.39,2.18-.58.09-.02.2-.06.28-.03.75.24,1.37-.11,2.01-.4.04-.02.09-.04.13-.04,1.05-.1,1.97-.76,3.05-.68.02,0,.06.02.07,0,.55-.6,1.36-.43,2.03-.68.73-.28,1.53-.37,2.31-.49.7-.1,1.43-.08,2.13-.2.78-.13,1.54-.39,2.31-.54,1.26-.24,2.52-.54,3.82-.57.76-.02,1.52-.22,2.29-.26,1.22-.07,2.42-.3,3.62-.46.3-.04.58-.16.87-.27.8-.29,1.7-.21,2.46-.67.04-.02.09-.02.14-.02,1.37.1,2.66-.43,4-.55.21-.02.43-.02.64-.03.45,0,.87-.01,1.31-.21.39-.17.87-.15,1.32-.2.96-.11,1.92-.21,2.88-.31.66-.06,1.32-.07,1.97-.17.6-.09,1.17-.31,1.77-.41.95-.17,1.91-.27,2.86-.42.84-.13,1.66-.3,2.5-.45.23-.04.46-.08.69-.11,1.14-.11,2.29-.22,3.43-.32.87-.08,1.73-.21,2.6-.24.85-.03,1.69-.08,2.51-.37.35-.12.75-.07,1.12-.14.78-.16,1.54-.37,2.32-.53.3-.06.61-.07.91-.1.23-.02.47-.03.7-.06.79-.12,1.58-.23,2.36-.37.55-.09,1.09-.23,1.65-.31.74-.11,1.48-.2,2.22-.25.94-.07,1.89-.08,2.82-.16.5-.04.99-.19,1.59-.32-.39-.32-.69-.53-1.11-.6-.74-.13-1.46-.33-2.18-.56-1.66-.53-3.3-1.1-4.95-1.63-.42-.14-.87-.21-1.3-.34-.8-.25-1.59-.54-2.38-.79-1.12-.36-2.22-.72-3.42-.81-.92-.07-1.83-.44-2.72-.73-1.08-.35-2.13-.84-3.23-1.12-.62-.16-1.31-.08-1.96-.01-.93.1-2.16-.31-2.48-1.11-.07-.17-.09-.46,0-.58.09-.12.38-.15.56-.12.53.09,1.04.26,1.57.34.85.13,1.71.16,2.55.31.99.18,1.98.4,2.85.95.12.07.25.13.38.16,1.34.33,2.69.67,4.03.99.61.15,1.26.19,1.81.45.92.42,1.89.71,2.86.89,1.19.22,2.26.75,3.42,1.03.55.13,1.11.21,1.66.35.95.24,1.91.48,2.85.76.23.07.41.3.65.37.43.16.85.33,1.28.49.19.07.41.09.59.19.34.18.71.35.97.62.47.48.69,1.05.68,1.78,0,1.22.15,2.44.22,3.67.01.18-.08.37-.08.55-.02.49-.05.99-.03,1.48.08,1.59-.12,3.15-.36,4.71-.11.74-.08,1.49-.13,2.24-.02.32-.1.64-.16.99.13.37.47.36.81.35.32,0,.63-.13.95.1.11.08.36,0,.54-.04.39-.06.78-.15,1.17-.2.49-.06.98-.14,1.47-.13.82.02,1.63.11,2.45.18.39.03.79.07,1.24.12.32-1.21.1-2.38.31-3.63.55-.31.35-1.04.38-1.59.03-.53.17-1.03.21-1.56.05-.7.15-1.4.28-2.1.19-1.01.8-1.74,1.64-2.28.57-.36,1.8-.26,2.24.24.21.23.37.59.38.9.04.71,0,1.42-.05,2.13-.07,1.07-.18,2.14-.28,3.21-.03.28-.08.56-.15.83-.23.85-.19,1.74-.33,2.61-.06.37.13.74.5.93.19.1.39.17.55.24.38.01.54-.64.98-.2.19-.45.16-.86.13-1.31-.06-.89.02-1.79.12-2.68.07-.58,1.35-1.18,1.93-.99.33.11.66.22,1.07.37.38.59.67,1.28.62,2.11-.04.65.17,1.3,0,1.96-.18.7-.26,1.42-.46,2.11-.18.61-.1.86.51.93.65.08,1,.59,1.46.93.17.13.29.3.53.39.45.18.8.45.78,1.04-.02.49.14.98.15,1.47,0,.54-.08,1.08-.12,1.62-.04.58.13,1.19-.25,1.72-.04.05-.04.14-.02.21.28,1.13-.14,2.23-.2,3.34-.05,1.07-.41,2.11-.6,3.18-.15.83-.23,1.68-.35,2.51-.04.3-.14.59-.2.89-.13.57-.25,1.14-.38,1.71-.07.29-.16.57-.26.95.48.44.14,1.07.12,1.65-.03.89-.15,1.78-.27,2.67-.23,1.73-.47,3.45-.72,5.17-.22,1.54-.42,3.08-.7,4.6-.09.52-.21,1.01-.17,1.56.04.52-.14,1.06-.21,1.59-.11.81-.24,1.61-.33,2.42-.03.33-.04.64-.27.93-.13.16-.16.44-.15.66.04.63-.09,1.21-.4,1.77-.12.21-.2.52-.13.74.13.42,0,.78-.06,1.17-.14.83-.39,1.63-.44,2.49-.06,1.03-.32,2.04-.48,3.06-.12.69-.22,1.39-.35,2.08-.06.32-.21.62-.26.93-.12.81-.21,1.62-.32,2.42-.04.32-.12.64-.17.96-.19,1.14-.33,2.28-.56,3.41-.14.68-.42,1.33-.6,2-.09.34-.03.72-.13,1.05-.42,1.39-.57,2.8-.53,4.25.02.67-.16,1.35-.26,2.03-.14.91-.24,1.82-.44,2.72-.21.96-.33,1.92-.45,2.89-.1.83-.48,1.62-1.34,2.03-1.06.5-2.09,1.09-3.19,1.5-.94.35-1.95.52-2.93.74-.92.21-1.84.4-2.76.59-.79.16-.87.12-1.4-.74,0,.84,0,1.53,0,2.21,0,.12.06.24.05.35-.1,1.01-.23,2.01-.33,3.02-.04.38.02.76-.03,1.14-.15,1.27.05,2.54.01,3.81-.04,1.26.03,2.51-.02,3.77-.03.69-.21,1.38-.33,2.07-.02.09-.05.18-.05.27.05.61.11,1.22.17,1.94.1.09.3.22.44.4.21.25.28.53.08.85-.11.17-.22.38-.25.58-.08.6-.43.94-.98,1.07-.43.1-1.03-.25-1.32-.71-.21.11-.41.22-.62.31-1.11.47-2.34.46-3.47.85-.89.31-1.8.48-2.74.62-1.06.15-2.08.54-3.13.75-.99.2-2,.33-3,.48-.97.15-1.95.27-2.91.45-.33.06-.63.31-.97.39-.63.15-1.29.14-1.93.21-.8.09-1.6-.06-2.42.18-.96.27-2.01.22-3.01.35-1,.13-2,.32-2.99.48-.19.03-.37.08-.56.08-.82,0-1.62.06-2.43.26-.79.2-1.63.22-2.45.31-.63.06-1.27.09-1.9.15-.61.05-1.22.12-1.82.17-.62.05-1.25.1-1.87.11-1.07.02-2.13,0-3.2,0-.26,0-.55,0-.76.11-.68.38-1.42.37-2.14.3-.94-.1-1.79.34-2.71.34-.6,0-1.2.07-1.8.02-.48-.04-.92-.12-1.36.17-.2.13-.49.13-.75.18-.94.18-1.93.03-2.86.38-.16.06-.36-.02-.61-.05-.32.38-.79.39-1.31.4-.75.01-1.5.15-2.24.22-.23.02-.47.05-.7.06-.91.03-1.83.05-2.8.07-.1.4-.24.76-.26,1.12-.08,1.34-.1,2.68-.18,4.02-.02.31-.18.6-.27.89.05.4.14.82.14,1.23-.03,2.06-.08,4.11-.13,6.17-.04,1.41-.07,2.82-.15,4.23-.04.68-.18,1.35-.23,2.03-.08,1.01-.12,2.02-.17,3.04,0,.11.07.26.02.34-.62,1.04-.32,2.2-.44,3.3-.17,1.52-.19,3.06-.24,4.59-.02.7.05,1.41.08,2.12.02.58.05,1.16.07,1.74.01.32.03.65.04.97,0,.09.02.19.01.28-.04,1.11-.09,2.21-.11,3.32-.02,1.38-.16,2.78.02,4.14.21,1.58-.12,3.11-.07,4.67.03.88-.22,1.77-.33,2.65-.08.63-.16,1.26-.2,1.9-.06.96-.11,1.93-.13,2.89,0,.32.13.66.1.98-.1,1.13-.25,2.25-.35,3.37-.08.82-.12,1.65-.2,2.47-.07.7-.16,1.4-.24,2.1-.01.12-.04.24-.03.35.04.75.12,1.49.12,2.24,0,.8-.11,1.6-.14,2.4-.02.62,0,1.25,0,1.87,0,.4-.03.8-.05,1.21-.02.26-.06.52-.08.77-.05.66-.1,1.32-.13,1.98-.01.33.02.66.04.99,0,.14.11.32.05.41-.44.66-.19,1.44-.34,2.15-.12.58.06,1.21.1,1.83.05.79.08,1.59.13,2.38.07,1.11.15,2.21.23,3.32,0,.07.04.16.01.21-.33.51-.07,1.05-.1,1.58-.04.8-.12,1.6-.12,2.4,0,.96.07,1.91.1,2.87,0,.19-.02.37-.04.56-.02.16-.08.33-.07.49.06.89.15,1.78.21,2.67.01.18-.03.37-.03.55,0,.33-.03.66,0,.99.02.39.08.78.13,1.17.07.53.15,1.06.21,1.59.03.21.08.43.04.63-.26,1.28.03,2.53.14,3.79.05.6-.06,1.22.03,1.82.09.62-.06,1.21-.04,1.82.04,1.63.22,3.27.13,4.89-.08,1.52-.26,3.04-.25,4.57.02,1.81.06,3.61.06,5.42,0,1.56-.03,3.12-.07,4.69-.03,1.06-.09,2.12-.14,3.18-.04.97-.17,1.94-.12,2.9.11,1.98.04,3.96.38,5.93.1.55.12,1.14-.14,1.52.11,1.04.22,1.94.31,2.85.08.77.15,1.55.21,2.32.03.31.03.61.03.92.01.56.01,1.12.03,1.69.04,1.28.14,2.55.14,3.83,0,1.35-.1,2.69-.14,4.04-.02.71.02,1.42,0,2.13-.04,1.1-.12,2.2,0,3.31.05.4.09.79.14,1.19.25,2.2.18,4.39.05,6.59-.02.4-.03.8-.04,1.21,0,.68.04,1.37-.03,2.04-.07.69,0,1.36.11,2.03.03.19.04.38.05.56.04.78.1,1.56.12,2.33,0,.33-.11.65-.11.98.01.84.1,1.68.09,2.52,0,.75-.11,1.49-.13,2.24-.03.87,0,1.74-.02,2.61-.01.68-.05,1.37-.09,2.05-.04.56-.08,1.13-.15,1.69-.03.26-.11.5-.19.81h-1.56c-.01-.46-.05-.9-.03-1.34.06-1.46.13-2.92.22-4.38.04-.65.17-1.3.19-1.95.04-1.18.05-2.36.03-3.54-.02-1.17-.13-2.34-.14-3.52,0-1.26.07-2.52.08-3.78,0-.87-.09-1.75-.07-2.62.02-1.42.14-2.84.12-4.25-.02-1.44-.17-2.87-.24-4.31-.02-.37.09-.75.1-1.12.02-1.01-.02-2.02.01-3.03.06-1.63.18-3.26.24-4.89.02-.68-.04-1.36-.06-2.05,0-.35,0-.7-.01-1.04-.1-1.41-.23-2.82-.31-4.24-.12-2.12-.2-4.25-.29-6.37-.04-.94-.09-1.89-.14-2.83-.04-.73-.14-1.46-.13-2.19.02-1.73.07-3.45.14-5.18.03-.7.18-1.4.25-2.1.03-.26-.01-.52-.02-.78,0-.82,0-1.64,0-2.47,0-.14.04-.28.04-.42,0-.7,0-1.4,0-2.1.04-2.53.1-5.06.13-7.59,0-.61-.17-1.23-.12-1.83.13-1.68-.05-3.35-.03-5.02.02-2.1-.04-4.21-.14-6.32-.07-1.38-.26-2.76-.4-4.14,0-.02,0-.05,0-.07.17-1.02-.07-2.05.16-3.07.05-.21-.05-.45-.04-.67.03-.85.1-1.7.11-2.55.01-.77-.02-1.55-.05-2.32-.03-.84-.06-1.68-.11-2.53-.06-1.15-.16-2.31-.19-3.46-.02-.82.03-1.65.05-2.48,0-.23.07-.48.04-.7-.21-1.45-.29-2.89,0-4.34.03-.14,0-.28.01-.43.08-1.58.17-3.16.22-4.74.02-.53-.07-1.06-.07-1.59,0-.78.05-1.55.08-2.32,0-.19.04-.38.04-.56,0-.7-.03-1.41.01-2.11.05-.89.17-1.78.25-2.67.1-1.05.19-2.11.32-3.16.13-1.06-.1-2.11,0-3.16.12-1.34.26-2.67.39-4.01.05-.49.13-.98.16-1.47.07-1.17.06-2.36.18-3.53.12-1.25-.1-2.48-.02-3.73.03-.52.08-1.03.12-1.55.01-.17.05-.34.01-.5-.21-.94-.01-1.87,0-2.81.02-.84.01-1.68.06-2.51.02-.3.16-.59.26-.93-.37-.43-.17-.99-.16-1.51.01-.97.08-1.93.13-2.9.04-.73.1-1.46.12-2.19.03-1.17.01-2.34.04-3.51,0-.44.08-.89.12-1.33.09-1.02.17-2.05.27-3.07.04-.39.12-.78.18-1.18.02-.13.03-.27.03-.41.02-.63.04-1.26.05-1.9.01-.89.01-1.78.02-2.66,0-.3,0-.6.01-.9.05-1.43.09-2.86.14-4.29.04-1.22.08-2.43.15-3.65.05-.82.18-1.64.26-2.45.03-.3,0-.61,0-.97-1.03.07-2.02-.06-3.03.22-1.06.29-2.18.35-3.28.48-.25.03-.51-.07-.82-.12-.19.46-.62.42-1.04.44-.35.02-.7.08-1.05.11-.3.03-.59.03-.89.04-.09,0-.19-.02-.28,0-.4.09-.8.2-1.34.33,0,.28,0,.64-.01,1-.05.89-.12,1.79-.18,2.68-.05.86-.27,1.73.1,2.57.04.1.04.23,0,.34-.23.69.12,1.46-.28,2.13,0,.02,0,.05,0,.07.48.81.06,1.73.31,2.57.1.34.03.74.04,1.11.05,1.15.12,2.3.13,3.45,0,.77-.09,1.55-.13,2.32-.03.61-.11,1.2-.28,1.79-.1.34.01.74-.01,1.11-.12,1.74-.25,3.48-.37,5.22-.02.24-.04.47-.05.71-.05.92-.14,1.84-.13,2.76.01.99.13,1.98.2,2.96.01.19.05.37.06.56.1,1.24.21,2.49.29,3.73.04.65.04,1.3.07,1.95.05.96.1,1.92.16,2.88.01.21.04.42.05.64,0,1.01-.03,2.02.01,3.03.06,1.56.19,3.11.26,4.66.02.56-.07,1.12-.05,1.68.04,1.62.37,3.21.47,4.83.05.84-.06,1.7-.07,2.54,0,.35.08.7.09,1.05.01.88,0,1.75,0,2.63.01.57.07,1.13.11,1.7.06.9-.03,1.78-.24,2.66-.09.39,0,.82.05,1.23.06.54.15,1.07.21,1.6.06.51.09,1.03.13,1.55,0,.09.03.19.01.28-.16.96.09,1.92,0,2.88-.13,1.38-.27,2.76-.4,4.14-.02.16-.02.33-.02.5-.02.63-.02,1.24-.22,1.88-.21.66-.17,1.4-.2,2.1-.03.71,0,1.42-.01,2.13-.01.61.02,1.2-.19,1.82-.14.38-.02.89.07,1.36.11.61-.08,1.28-.13,1.93-.02.25-.04.49-.04.74,0,.31.03.62,0,.92-.03.56-.11,1.13-.12,1.69-.02.96-.02,1.93,0,2.9.02.66.12,1.32.12,1.97,0,.46-.12.93-.17,1.39-.02.16.01.32,0,.48-.02.97-.04,1.93-.06,2.9,0,.14-.05.28-.04.42.08,1.53-.05,3.06-.05,4.59,0,1.13.16,2.26.16,3.39,0,.94.12,1.87-.02,2.83-.11.72.02,1.49.06,2.23.02.4.11.79.12,1.19.06,1.44.09,2.88.15,4.32.08,1.86.2,3.72.28,5.58.07,1.62.06,3.25.16,4.86.09,1.51.27,3,.4,4.51.06.75.1,1.51.16,2.26.13,1.57.29,3.15.42,4.72.08.99.11,1.98.15,2.97.05,1.15.13,2.3.13,3.45,0,.92-.11,1.84-.12,2.76,0,.83.07,1.65.08,2.48,0,.85-.05,1.7-.05,2.55,0,.94.13,1.89.05,2.83-.13,1.52.26,3,.2,4.51-.02.44.11.89.13,1.33.07,1.7-.04,3.39,0,5.09.06,2.2.15,4.4.21,6.59.01.35-.03.71-.07,1.06-.24,2.08.3,4.14.15,6.21-.1,1.41-.12,2.82-.17,4.3h-1.73c-.28-.72-.18-1.45-.14-2.17.04-.82.15-1.64.24-2.46.01-.12.04-.23.07-.35q.19-.72-.01-1.4c0-.33,0-.66,0-1,0-.17-.03-.33-.04-.49-.02-.94-.16-1.9-.04-2.82.16-1.25-.1-2.5.05-3.73.09-.76.15-1.51-.03-2.24-.21-.81.02-1.59.01-2.38,0-.8.02-1.61,0-2.41-.05-1.24-.15-2.49-.19-3.73-.03-.69.16-1.43-.01-2.07-.32-1.18.04-2.34-.09-3.5-.11-.95-.12-1.92-.09-2.88.04-1.3.17-2.59.23-3.89.03-.59-.04-1.18-.06-1.77-.02-.61-.02-1.21-.06-1.82-.08-1.22-.18-2.44-.27-3.66-.02-.28,0-.57-.01-.85-.04-1.56-.06-3.11-.38-4.65-.15-.71-.12-1.46-.19-2.18-.02-.26-.07-.52-.14-.76-.26-.94.06-1.87-.01-2.81-.09-1.15-.15-2.31-.23-3.46,0-.09-.04-.19-.04-.28-.05-1.21-.24-2.43-.11-3.61.16-1.58-.08-3.11-.23-4.65-.14-1.42-.25-2.82-.23-4.24,0-.7.11-1.41.09-2.11-.02-.73-.15-1.45-.22-2.18-.03-.28-.07-.59,0-.85.21-.77-.02-1.5-.1-2.24-.02-.19-.06-.38-.05-.56.04-1.72-.15-3.45.25-5.16.05-.19-.04-.42-.05-.62-.02-1.26-.07-2.53-.06-3.79.02-2.22.02-4.45.15-6.67.1-1.71.24-3.42.27-5.14.02-1.34.06-2.68.14-4.01.1-1.62.28-3.24.4-4.86.11-1.48.21-2.96.3-4.45.07-1.18.14-2.36.14-3.54,0-1.58-.09-3.17-.14-4.75-.04-1.32-.1-2.64-.13-3.95-.04-1.31-.06-2.63-.09-3.94-.02-.75-.11-1.51-.03-2.25.16-1.58-.26-3.13-.2-4.71.05-1.1-.24-2.22-.37-3.34-.02-.21-.02-.43-.02-.64-.05-1.06-.12-2.12-.13-3.18,0-.61.14-1.22.12-1.83-.05-1.53-.16-3.06-.25-4.59-.01-.26-.03-.52-.02-.78.03-1.21-.17-2.4-.24-3.6-.11-1.79-.41-3.58-.2-5.4.17-1.45.17-2.91.31-4.36.05-.49-.02-1,.2-1.49.14-.31.04-.73.06-1.1.08-1.21.18-2.42.25-3.63.02-.39-.05-.79-.04-1.19,0-.22.08-.44.12-.66.02-.11.06-.23.06-.34-.03-.66-.08-1.32-.1-1.98-.05-1.94-.13-3.88-.13-5.81,0-1.27-.11-2.52-.27-3.77-.05-.42,0-.85.02-1.27.02-.33.06-.65.08-.98.02-.32-.07-.67.03-.96.17-.51-.08-.94-.16-1.43h-3.03c0,.53-.1,1.05.02,1.51.22.87.02,1.69-.06,2.53-.04.51-.06,1.04-.2,1.54-.43,1.56-.91,3.11-1.38,4.66-.21.7-.35,1.43-.9,1.98-.06.99-.93,1.61-1.17,2.53-.19.74-.48,1.46-.74,2.19-.19.52-.41,1.03-.61,1.55-.08.2-.21.39-.22.59-.03.95-.48,1.76-.87,2.59-.75,1.62-1.35,3.29-1.94,4.97-.22.63-.44,1.29-.93,1.68-.42,1.07-.47,2.2-1.27,3.03-.06.06-.1.16-.11.25-.31,1.8-1.03,3.46-1.8,5.1-.43.91-.79,1.86-1.2,2.79-.29.66-.63,1.3-.93,1.96-.26.57-.49,1.16-.76,1.72-.36.76-.78,1.49-1.13,2.26-.27.6-.45,1.24-.72,1.84-.89,1.97-1.79,3.93-2.72,5.88-.24.51-.35,1.09-.63,1.53-.39.61-.57,1.28-.85,1.91-.76,1.68-1.59,3.33-2.22,5.08-.51,1.41-.86,2.87-1.31,4.29-.38,1.18-.58,2.36-.72,3.58-.13,1.11-.5,2.19-.71,3.29-.25,1.26-.45,2.53-.67,3.8-.19,1.09-.38,2.17-.59,3.36.22.89.24,1.89.07,2.92-.1.59,0,1.22.08,1.82.12,1.05.31,2.1.41,3.15.1,1.02.13,2.06.21,3.08.01.16.08.32.1.48.11,1.01.19,2.02.31,3.02.16,1.4.14,2.82.52,4.2.24.86.28,1.76.46,2.64.2,1.01.45,2.01.68,3.01.23.98.47,1.96.7,2.95.03.14.04.28.04.42-.02.57.05,1.11.26,1.66.35.93.48,1.91.62,2.89.08.58.37,1.13.42,1.7.13,1.59.69,3.07,1.01,4.61.25,1.19.72,2.32,1.07,3.49.17.56.29,1.11.24,1.72-.03.42.17.87.3,1.3.29.94.62,1.88.9,2.82.35,1.17.7,2.34,1.02,3.53.26,1,.5,2.01.69,3.02.16.88.25,1.77.36,2.66.02.19.08.38.07.56-.06,1.03.18,2.02.41,3.01.3,1.26.54,2.53.61,3.83.06,1.22.27,2.43.39,3.64.08.77.1,1.55.16,2.33.07.89.18,1.78.2,2.68.02.77-.05,1.55-.11,2.33-.06.8-.21,1.59-.23,2.39-.03,1.63-.16,3.25-.42,4.86-.19,1.21-.29,2.43-.46,3.65-.08.58-.23,1.15-.35,1.73-.22,1.06-.46,2.11-.64,3.18-.22,1.26-.4,2.53-.58,3.79-.15,1.07-.18,2.16-.44,3.2-.19.75-.09,1.52-.29,2.22-.26.9-.16,1.82-.4,2.69-.1.36-.19.73-.34,1.06-.47,1.03-.31,2.19-.67,3.23-.32.94-.16,1.9-.31,2.9h-1.84c.22-1.06.44-2.05.61-3.04.23-1.27.4-2.54.63-3.81.17-.93.47-1.83.62-2.76.18-1.1.26-2.22.38-3.34.02-.21-.04-.38-.34-.35-.09.61.21,1.31-.53,1.76.19.12.33.21.46.29-.12.75-.24,1.47-.35,2.19-.06.36-.18.67-.53.87-.15.09-.21.33-.32.53-.06,0-.17.02-.31.03.03.39.05.76.07,1.13-.13.24-.26.48-.39.72-.08.17-.11.39-.23.51-.44.4-.51.92-.58,1.46-.13,1.05-.27,2.1-.43,3.15-.03.22-.13.44-.2.67h-1.89c.04-.25.02-.47.1-.64.41-.87.35-1.84.62-2.73.18-.58.32-1.18.48-1.76.21-.75.42-1.5.64-2.24.51-1.74,1.02-3.48,1.53-5.22.23-.77.48-1.52.71-2.29.04-.14,0-.3,0-.46-.02-.02-.04-.04-.07-.06.22-1.05.47-2.1.65-3.17.09-.55.04-1.13.09-1.7.08-.84.25-1.67.3-2.5.05-.91-.02-1.83-.02-2.74,0-1.11.01-2.22,0-3.33,0-.29-.11-.58-.17-.88.03-.03.06-.05.09-.08.02-.26.04-.52.05-.78.02-.7,0-1.39.09-2.1.11-.92-.07-1.88-.12-2.82-.04-.62-.09-1.25-.11-1.87-.05-1.34-.02-2.68-.16-4.01-.18-1.7-.5-3.4-.75-5.09-.13-.84-.24-1.68-.36-2.52-.02-.16-.06-.32-.11-.48-.42-1.49-.73-3.01-1-4.53-.04-.23-.01-.47-.04-.71,0-.05-.12-.09-.18-.14-.04.03-.07.06-.11.09ZM190.81,173.27h0c-.06-.23-.12-.45-.19-.68.03,0,.07.01.1.02.33-1.06.66-2.13,1-3.21-.2-.23-.39-.41-.54-.61-.11-.14-.26-.32-.26-.48.03-.56-.54-1.1-.05-1.67.03-.03-.05-.13-.04-.2.14-.91-.17-1.86.3-2.73.03-.05.02-.13.03-.19-.14.25-.18.54-.32.76-.56.88-.58,1.92-.82,2.88-.37,1.47-.45,2.99-.44,4.51,0,.15.1.29.15.44.21.52.61.86,1.07,1.15ZM245.27,104.7h0c-.06-1.06-.15-2.12-.18-3.18-.03-1.02-.01-2.04,0-3.05,0-.24.03-.47.05-.7.07-.63.17-1.26.22-1.89.07-.77.11-1.55.16-2.33.02-.34-.02-.69.04-1.03.17-.97.34-1.94.58-2.9.33-1.31.72-2.61,1.09-3.91.08-.27.13-.55.25-.81.51-1.08,1.05-2.15,1.55-3.24.1-.21.12-.46.19-.72-.85.09-2.32.87-2.78,1.42-.1.13-.19.32-.32.36-.59.18-.94.67-1.42,1.01-.56.39-.91.96-1.33,1.46-.29.35-.39.86-.67,1.21-.31.38-.49.78-.62,1.24-.2.69-.46,1.36-.63,1.87-.1,1.05-.18,1.92-.26,2.8.83-.03,1,.22.69.9-.13.28-.22.61-.43.81-.51.51-.43,1.12-.4,1.73.02.49.09.98.15,1.47.05.42.11.84.2,1.25.31,1.37,1.11,2.52,1.72,3.75.49.98,1.16,1.87,2.14,2.46ZM234.6,69.85l-.02-.03s.03.02.03.02c-.11.25-.22.5-.32.74-.37.02-.66.12-.92.24-.7.33-1.38.66-2.16.81-.56.11-1.08.44-1.62.67-.43.19-.85.41-1.29.54-.32.09-.67.05-1.04.07-.15-.2-.32-.42-.52-.67.39-.54.3-1.14.31-1.75.02-.88.14-1.75.21-2.63-.79,0-1.36.49-1.41,1.2-.03.35-.04.72,0,1.07.14.96.18,1.92-.01,2.88-.09.46-.73,1.16-1.18,1.28-1.05.27-2.09.56-3.04,1.1-.4-.18-.41-.53-.42-.9-.04-1.35-.08-2.69-.15-4.04-.01-.22-.15-.44-.22-.62-.35.05-.57.06-.78.11-.15.04-.32.11-.41.22-.29.39-.44.82-.3,1.32.17.59.26,1.2.45,1.78.19.57-.12,1.02-.31,1.48-.12.27-.42.47-.67.72h-.65c-.1.16-.16.32-.28.43-.14.14-.32.3-.5.33-.46.06-.92.05-1.39.06-.7.01-1.32.28-1.93.57-.55.26-1.06.62-1.62.8-.43.14-.86.19-1.19.54-.05.06-.17.05-.26.06-.46.07-.69.28-.8.72-.08.32-.12.67-.29.94-.69,1.16-1.22,2.43-2.16,3.43-.08.08-.15.19-.2.29-.58,1.16-1.15,2.33-1.72,3.49-.14.28-.25.57-.41.82-.76,1.15-1.06,2.47-1.29,3.78-.12.68-.5,1.04-.97,1.38-.35.25-.84.22-1.08-.12-.26-.36-.62-.49-.99-.63-.17-.07-.39-.14-.48-.28-.47-.72-1.2-.92-1.97-1.09-.24-.05-.47-.18-.69-.3-.19-.11-.36-.26-.55-.39-.19-.13-.38-.26-.53-.36-.01-.68.05-1.25.45-1.75.11-.13.1-.36.16-.53.07-.22.14-.43.22-.65.06-.17.13-.34.21-.51.11-.25.18-.54.34-.75.4-.51.48-1.12.61-1.71.07-.28-.06-.59-.43-.83-.22.37-.44.7-.61,1.06-.63,1.35-1.23,2.71-1.85,4.06-.28.61-.93.75-1.47.38-.45-.31-.91-.59-1.4-.83-.28-.14-.61-.17-.92-.25-.02.06-.03.11-.05.17.44.21.91.37,1.32.64.45.29,1.04.59,1.2,1.02.27.73.29,1.56-.15,2.31-.37.63-.74,1.25-1.11,1.88-.31.53-.63,1.05-.91,1.59-.31.6-.57,1.23-.86,1.85-.08.17-.27.32-.27.49-.03.96-.77,1.67-.85,2.63-.04.49-.14,1.08-.58,1.48-.02.02,0,.09-.02.22.14.08.3.17.54.3.39-.84.74-1.62,1.15-2.51.38-.13.49-.62.63-1.09.12-.4.21-.83.4-1.2.27-.51.63-.97.94-1.45.05-.07.07-.18.07-.27,0-.6.32-1.07.64-1.54.07-.1.17-.19.19-.29.25-1.05.9-1.9,1.37-2.83.14-.27.32-.41.64-.48.53-.11.96-.08,1.33.37.16.19.44.26.66.4.93.55,1.86,1.11,2.73,1.62.1.74.25,1.36-.05,1.98-.13.27-.18.57-.29.85-.5,1.21-1.01,2.4-1.5,3.61-.23.59-.57,1.11-.87,1.65-.59,1.07-.94,2.27-1.39,3.42-.18.46-.34.92-.52,1.37-.19.5-.39,1-.58,1.5-.06.15-.1.31-.17.46-.37.88-.75,1.75-1.11,2.63-.11.26-.16.54-.27.8-.54,1.23-1.02,2.49-1.44,3.77-.29.89-.6,1.81-1.08,2.61-.39.65-.65,1.34-.84,2.03-.22.8-.66,1.47-.96,2.22-.24.61-.56,1.2-.75,1.82-.23.76-.59,1.47-.72,2.29-.16,1.01-.58,1.97-.91,2.95-.42,1.23-.86,2.44-1.28,3.67-.08.22-.1.46-.15.68-.05.21-.05.44-.15.61-.42.72-.7,1.49-.86,2.3-.05.23-.3.45-.29.67.03.58-.22,1.05-.42,1.55-.1.26-.21.52-.26.79-.14.66-.05,1.37-.46,1.97-.06.09.04.28.07.43.24-.35.35-.72.51-1.07.32-.67.75-1.31.98-2.01.33-1.02.93-1.92,1.26-2.95.35-1.09.94-2.09,1.44-3.13.18-.37.48-.72.54-1.11.11-.69.56-1.2.75-1.84.14-.46.46-.85.66-1.29.21-.44.31-.95.57-1.35.39-.61.89-1.15,1.31-1.69.02-.24,0-.45.07-.64.21-.69.43-1.38.69-2.06.16-.41.38-.79.58-1.19.1-.21.23-.41.31-.63.13-.37.19-.78.37-1.13.56-1.09.99-2.24,1.53-3.34.14-.28.38-.51.51-.79.28-.59.5-1.2.77-1.79.33-.73,1.07-1.24,1.15-2.11,0-.04.06-.07.08-.11.28-.37.56-.74.82-1.08-.08-.3-.14-.55-.21-.83.56-.39.76-.99.98-1.6.18-.48.45-.92.73-1.35.36-.55.58-1.08.1-1.68-.13-.16-.19-.38-.3-.56-.45-.81-.38-1.64-.03-2.45.2-.47.49-.91.73-1.37.24-.46.68-.77.78-1.23.48-.24,1.04-.1,1.33-.58-.07-.12-.14-.24-.22-.37.08-.1.14-.21.22-.28.24-.23.57-.4.72-.67.48-.88.94-1.78,1.32-2.71.34-.84.79-1.63,1.22-2.43.1-.19.23-.36.29-.56.3-1.08.83-2.05,1.38-3.02.39-.68.97-1.28,1.03-2.14.02-.31.21-.62.38-.89.24-.37.55-.69.83-1.04-.24-.6-.03-1.15.15-1.67.25-.74.58-1.46.86-2.19.07-.17.13-.37.11-.55-.07-.64.35-.89.79-1.21.76-.57,1.72-.45,2.53-.82.43.2.65-.31,1.03-.31.75,0,1.41-.35,2.06-.66.92-.44,1.49-.12,1.52.92.02.54.09,1.08.14,1.62.04.44.12.89.14,1.33.02.61,0,1.22,0,1.82,0,.51-.06,1.06.1,1.52.17.49.12,1.17.77,1.4.95-.39.96-.39.95-1.39,0-.63-.04-1.26-.06-1.89-.01-.54.04-1.08-.02-1.61-.16-1.37-.37-2.73-.55-4.06.29-.26.53-.48.79-.71.11.03.25.06.38.11.66.23,1.25.18,1.87-.24.39-.26.92-.36,1.4-.44.9-.14,1.22.12,1.16,1-.04.75-.26,1.49-.31,2.23-.08,1.08-.1,2.16-.09,3.25,0,.92.06,1.84.15,2.76.07.76.36,1.05.99,1.15.05-.09.16-.18.17-.28.06-.85.22-1.7.13-2.54-.09-.89.12-1.71.2-2.56.02-.16.04-.31.03-.47-.05-.87-.15-1.74-.16-2.61,0-.44.25-.88.2-1.31-.09-.79.36-1.25.78-1.74q.84-.06,1.13-.38c.59-.64,1.39-.92,2.16-1.23.22-.09.49-.08.81-.12.22-.38.58-.68,1.16-.52.53-.47,1.28-.39,1.89-.85.83-.64,1.91-.97,2.89-1.42.28-.13.56-.22.71-.66-.33.01-.61-.02-.86.05-.7.2-1.38.46-2.09.65-.49.13-1.02.44-1.51-.05ZM185.27,236.73c.27.52.28,1.08-.13,1.62.39.57.41,1.15.18,1.75.13.32.25.65.25.98.02,1.72.04,3.44.31,5.14.05.33.12.65.13.98.06,1,.1,2.01.15,3.01.01.21.1.42.09.63-.02,1.05-.06,2.1-.08,3.15,0,.09.05.18.06.28.12.91.28,1.82.34,2.73.1,1.34-.29,2.71.15,4.04.03.09,0,.19,0,.28.08.76-.26,1.54.12,2.29.03.05-.02.14-.02.21-.03,1.25-.06,2.5-.09,3.75,0,.16.04.33.05.49.07.85.2,1.69.18,2.54-.01.76-.13,1.52.02,2.28.03.13-.04.28-.05.42-.02.21-.07.42-.06.63.03.83.1,1.65.12,2.48,0,.34-.1.68-.15,1.03.03.35.03.71.03,1.07,0,.61-.03,1.22,0,1.82.02.66.1,1.31.13,1.97.06,1.37.1,2.74.15,4.11,0,.07,0,.15.02.21.35.83-.28,1.74.19,2.56,0,.01,0,.04-.02.07-.35.94-.16,1.91-.17,2.87-.02,1.27.07,2.55.13,3.82.03.66.09,1.32.16,1.97.02.22.12.43.19.68.28-.03.49-.02.69-.07.91-.24,1.84-.44,2.72-.75,1.55-.54,3.15-.69,4.76-.77.8-.04,1.6-.1,2.4-.15v-.76c.86-.3.88.45,1.15.83.79.13,1.07.08,1.59-.37.33-.29.59-.26,1.01-.11.65.23,1.36.31,2.06.38.41.04.84-.07,1.26-.11.66-.07,1.31-.12,1.96-.21.9-.12,1.78-.45,2.71-.23.17.04.39,0,.55-.07.62-.26,1.23-.44,1.91-.28.14.03.31-.06.46-.1.27-.08.52-.2.8-.25.46-.08.94-.08,1.4-.17.98-.19,1.96-.3,2.95-.25.23.01.46-.08.69-.11.84-.11,1.68-.32,2.51-.29,1.02.03,2-.1,2.99-.3.3-.06.6-.13.9-.16.97-.11,1.97-.1,2.9-.33,1.38-.35,2.81-.32,4.19-.63,1-.22,2.06-.16,3.09-.25,1.24-.11,2.48-.22,3.71-.36.3-.03.61-.29.87-.24.75.16,1.4-.25,2.13-.24,1.01.01,2.01-.14,3.02-.19.78-.04,1.56,0,2.34-.07,1.26-.1,2.52-.26,3.79-.39.62-.06,1.22-.37,1.87-.17.09.03.22-.06.33-.1.99-.32,2.02-.23,3.02-.3.41-.15.83-.26,1.25-.35,1.08-.25,2.17-.42,3.29-.37,1.76.08,3.52.03,5.21-.56.29-.1.58-.21.87-.27,1.22-.23,2.45-.43,3.68-.66.48-.09.95-.28,1.43-.33.6-.07,1.24.09,1.75-.39.06-.05.18-.02.27-.04.69-.15,1.39-.26,2.07-.45,1.7-.48,3.35-1.14,5.13-1.27.56-.04.92-.49.96-1.05.06-.89.11-1.79.14-2.69.06-1.76.09-3.53.15-5.3.02-.59.11-1.17.1-1.76,0-1.19-.06-2.39-.09-3.58,0-.05.01-.09.02-.14.47-2.14.33-4.32.52-6.48.08-.95-.03-1.92-.02-2.88,0-1.39.23-2.78.04-4.17,0-.07,0-.14,0-.21.04-.92.1-1.84.13-2.76.04-1.32.2-2.66.07-3.97-.14-1.51-.01-3.01-.08-4.51-.03-.66-.14-1.32-.12-1.98.02-.72.16-1.42.05-2.18-.17-1.21-.06-2.46-.07-3.69,0-.24-.05-.47-.06-.7-.03-.59-.13-1.19-.04-1.77.22-1.42.22-2.85.21-4.28,0-1.35-.08-2.69-.1-4.04-.02-.99-.02-1.98,0-2.97.03-1.06.11-2.12.13-3.18.02-1.28,0-2.56,0-3.84,0-.19.02-.39-.02-.57-.34-1.55-.37-3.12-.45-4.69-.1-1.77-.16-3.53-.24-5.3-.02-.35-.08-.7-.1-1.05-.05-.75-.1-1.5-.11-2.26,0-.74.06-1.49.06-2.23,0-1.24-.06-2.47-.04-3.71.03-1.5.13-3,.2-4.5.04-.92.1-1.84.13-2.76.05-1.33-.05-1.26-.96-1.58-.09-.03-.17-.07-.29-.12-.03-.98.86-.75,1.35-1.07.42-.59-.08-1.21.05-1.86-.49-.16-.84-.5-.8-.97.04-.48.52-.62,1.03-.74.07-.38.16-.76.2-1.15.05-.54.03-1.08.1-1.61.14-1.14.39-2.28.45-3.43.06-1.1-.06-2.22-.09-3.32-.01-.44-.04-.88,0-1.31.06-.64-.17-2.07-.5-2.71-.83.07-1.7.14-2.56.2-.89.06-1.77.34-2.67.04-.1-.03-.23,0-.35.02-1.07.22-2.14.47-3.22.65-.83.14-1.68.19-2.52.3-.98.13-1.97.23-2.93.43-.95.2-1.92.22-2.85.61-.68.29-1.52.24-2.29.29-.6.04-1.21-.02-1.81.02-.73.04-1.46.08-2.17.24-.7.15-1.4,0-2.13.22-1.18.35-2.44.44-3.67.63-.67.1-1.35.18-2.03.27-.86.12-1.72.24-2.58.37-.14.02-.28.03-.42.04-.27.03-.54.04-.81.09-.16.03-.31.14-.46.15-.6.04-1.2.02-1.79.08-.98.11-1.95.29-2.93.42-.61.08-1.22.11-1.83.2-.95.15-1.89.29-2.82.59-1.02.32-2.12.42-3.19.59-.39.07-.79.09-1.18.13-.22.02-.46,0-.67.07-.55.19-1.08.43-1.7.42-.76-.01-1.53.07-2.3.14-.84.08-1.68.18-2.52.27-.28.03-.56.06-.83.12-1.12.25-2.24.52-3.36.78-.14.03-.27.06-.41.09-.96.15-1.93.27-2.89.45-.87.17-1.72.49-2.63.46-.09,0-.18.04-.27.06-.44.14-.89.28-1.33.42-.54.16-1.08.31-1.62.47-.63.18-1.25.4-1.89.56-.63.16-1.28.26-1.92.41-.41.09-.8.23-1.21.3-1.27.22-2.58.3-3.82.64-1.32.37-2.68.57-4,1.02-1.34.46-2.77.7-4.17.93-.54.09-1.01.22-1.48.47-.18.1-.39.17-.6.2-1.5.2-2.92.68-4.33,1.2-.17.06-.33.18-.51.23-1.42.43-2.75,1.09-4.08,1.74-.95.46-1.79,1.15-2.92,1.4-.06.54-.17,1.09-.17,1.65,0,.8.1,1.6.12,2.4.01.37-.05.74-.08,1.11-.02.25-.04.5-.05.75-.01.22-.02.45-.04.67-.06.66.25,1.36-.23,1.94.37.8.35,1.59.15,2.39-.04.18-.03.38,0,.56.13.71.27,1.41-.02,2.12-.05.12-.06.32,0,.42.28.42.09.86.13,1.29.02.28.1.55.12.83.03.25.09.52.02.74-.26.83-.07,1.65.05,2.45.09.63.44,1.22.26,1.9-.03.11.06.29.14.39.26.31.25.62.14.99-.1.34-.07.71.19,1.01.03.03.02.09.03.14-.07.17-.14.35-.2.51.37.67.3,1.37.21,2.07-.02.18-.13.41-.06.54.44.85.16,1.77.3,2.65.11.73.02,1.49.11,2.23.14,1.16.33,2.33.56,3.48.15.74.29,1.47.28,2.24,0,.48.08.95.12,1.43-.04,0-.07,0-.11.01.13.24.26.49.39.73-.17.14-.29.24-.31.25.12.48.24.87.32,1.27.08.44.14.88.19,1.33.1.95.04,1.91.22,2.85.04.21-.09.45-.16.72ZM284.36,265.96c.05.02.1.03.16.05.35-.33.7-.54,1.21-.34.17.06.41-.06.61-.1.58-.1,1.15-.28,1.73-.28.83,0,1.58-.19,2.32-.54.57-.27,1.13-.59,1.74-.72.66-.14,1.18-.47,1.71-.81.17-.11.35-.29.41-.47.19-.63.34-1.27.47-1.91.12-.62.17-1.26.29-1.88.05-.3.2-.57.28-.87.37-1.37.28-2.78.41-4.18.07-.75.07-1.48.27-2.23.41-1.47.67-2.98,1-4.47.12-.55.36-1.08.42-1.63.11-1.07.19-2.14.41-3.21.13-.63.19-1.29.33-1.93.23-1.1.38-2.21.58-3.31.12-.69.26-1.39.38-2.08.15-.83.31-1.65.46-2.48.15-.83.28-1.67.44-2.5.17-.9.38-1.79.55-2.69.18-.97.17-1.96.42-2.93.2-.79.19-1.63.3-2.45.1-.79.23-1.58.36-2.37.14-.82.3-1.65.44-2.47,0-.04,0-.1-.01-.14-.22-.56.03-1.06.16-1.59.06-.23.13-.45.17-.68.2-1.32.4-2.65.56-3.98.09-.68.17-1.36.14-2.04-.04-1.12.08-2.2.35-3.29.15-.62.26-1.24.37-1.87.18-1.06.35-2.13.52-3.2.11-.67.26-1.33.32-2,.13-1.29.21-2.58.3-3.88.03-.44.04-.87.06-1.31.02-.42.06-.85.06-1.27,0-.53-.06-1.06-.1-1.66-.1-.03-.27-.13-.45-.14-1.05-.06-2.1-.15-3.16-.15-1.16,0-2.31.11-3.47.12-.72,0-1.43.08-2.16-.21-.74-.3-1.52-.1-2.07.42-.32-.29-.59-.53-.74-.67-.34.15-.53.26-.73.32-.18.05-.37.05-.56.08-.88.14-1.74.11-2.59-.15-.83-.26-1.63-.16-2.41.21-.17.08-.4.08-.6.08-.66-.02-1.31-.05-2.01-.08-.04.66-.08,1.23-.11,1.8-.08,1.41-.13,2.83-.23,4.24-.07,1.01.03,2.02,0,3.02-.01.54-.1,1.08-.1,1.62,0,.54.09,1.08.1,1.62.02,1.22-.02,2.45.03,3.67.05,1.36.17,2.73.26,4.09.02.33.06.66.09.99.05.54.19,1.09.12,1.61-.1.69-.03,1.35.02,2.02.04.61.41,1.24.01,1.84.23.81.42,1.59.2,2.43-.05.21.05.46.1.69.04.21.11.41.16.61.23.96-.11,1.88-.24,2.8-.11.77-.26,1.48.07,2.18-.09.23-.23.43-.23.62.01.52.03,1.05.16,1.54.12.45.11.83-.17,1.15.1.76.43,1.45.02,2.18-.09.17-.02.47.06.68.32.83.16,1.68.13,2.52-.03,1.14-.03,2.29,0,3.43.02,1.06.22,2.12-.15,3.16-.08.22-.08.47-.07.7.04,1.04.1,2.08.13,3.11,0,.26-.08.53-.12.74.09.36.24.67.25.99.07,1.84.05,3.68.16,5.52.08,1.28-.22,2.51-.18,3.79.08,2.39.03,4.79.02,7.19,0,.2-.11.4-.14.61-.04.27-.07.55-.06.82.01.28.11.56.11.84,0,.36-.05.71-.09,1.07ZM176.03,399.67c-.12-.35-.24-.56-.26-.78-.09-1.08-.5-2.12-.36-3.22,0-.07-.01-.14-.02-.21-.13-1.12-.27-2.24-.4-3.36-.11-1.05-.21-2.11-.31-3.16-.14-1.5-.29-3-.4-4.5-.05-.8-.14-1.59-.21-2.38-.11-1.31.02-2.64.06-3.97,0-.23.04-.47.07-.7.17-1.14.34-2.28.5-3.42.05-.37.02-.75.1-1.11.13-.64.35-1.27.47-1.91.21-1.16.29-2.35.6-3.47.24-.89.22-1.76.26-2.65,0-.14.04-.29.1-.41.59-1.17.63-2.53,1.28-3.68.03-.06,0-.14.03-.21.21-.72.29-1.52.65-2.15,1.03-1.78,1.7-3.71,2.57-5.56.56-1.18,1.01-2.41,1.56-3.59.64-1.39,1.34-2.75,1.99-4.13.51-1.08.95-2.18,1.48-3.25.33-.68.58-1.4,1.08-2.02.29-.35.29-.92.48-1.37.3-.73.65-1.45.96-2.18.6-1.38,1.18-2.77,1.78-4.15.18-.41.38-.81.53-1.23.17-.46.22-.97.44-1.41.38-.75.41-1.65,1.08-2.26.05-.04,0-.18.02-.27.03-.13.05-.29.13-.37.54-.5.75-1.2,1.03-1.83.3-.68.4-1.44.64-2.16.28-.84.61-1.67.92-2.5.07-.17.17-.33.27-.49.41-.67.52-1.46.83-2.17.08-.18.08-.39.15-.57.24-.58.6-1.14.73-1.74.17-.84.36-1.63.81-2.38.35-.58.71-1.2.87-1.85.16-.63.39-1.14.82-1.48.08-.38.11-.7.22-.97.24-.58.55-1.13.8-1.7.14-.34.27-.69.33-1.05.18-1.07.24-2.16.5-3.2.32-1.28.08-2.53.06-3.8,0-.4-.45-.66-.88-.61-.43.05-.68.35-.56.81.31,1.17-.15,2.29-.22,3.43-.06.93-.38,1.84-.51,2.76-.13.96-.48,1.85-.82,2.74-.14.38-.31.72-.41,1.13-.11.45-.1.94-.26,1.37-.3.79-.67,1.54-.99,2.33-.27.67-.49,1.36-.73,2.04-.07.2-.11.41-.19.6-.38.9-.75,1.8-1.17,2.67-.32.67-.4,1.44-.95,2.02-.3.31-.5.74-.68,1.14-.96,2.15-1.89,4.31-2.83,6.47-.24.56-.45,1.13-.7,1.69-.28.62-.61,1.22-.9,1.84-.3.63-.53,1.32-.91,1.9-.46.69-.8,1.4-1.02,2.2-.14.51-.39,1.03-.72,1.45-.48.61-.79,1.27-1.01,2-.11.36-.17.77-.38,1.06-.52.72-.69,1.59-1.06,2.36-.42.89-.81,1.79-1.24,2.67-.45.93-.92,1.84-1.38,2.76-.07.15-.12.32-.22.44-.7.76-.78,1.83-1.38,2.67-.42.59-.51,1.43-.74,2.16-.33,1.03-.64,2.07-.98,3.1-.24.71-.51,1.41-.76,2.12-.07.19-.07.4-.11.6-.03.18-.07.36-.11.54-.08.37-.17.73-.23,1.1-.04.23.04.51-.07.7-.49.89-.17,1.99-.76,2.84-.05.07,0,.19-.03.28-.07.24-.14.49-.23.73-.24.64-.61,1.26-.69,1.92-.1.83-.21,1.67-.45,2.46-.3.98-.18,1.99-.46,2.99-.24.87,0,1.87-.42,2.77-.1.21-.04.52-.03.77.03.57.02,1.12-.12,1.71-.21.84-.22,1.72-.31,2.59-.04.35-.11.7-.11,1.05,0,.47.1.94.1,1.4,0,.61-.1,1.22-.07,1.83.04.8.16,1.59.23,2.39.1,1.12.19,2.24.28,3.36.05.63.12,1.27.15,1.9.03.8.03,1.59.05,2.39,0,.09.07.18.08.27.15.86.31,1.71.44,2.57.12.84.22,1.68.3,2.52.04.44-.05.89.02,1.32.23,1.39.5,2.77.76,4.16.15.78.45,1.56.46,2.35.01,1.65.42,3.21.77,4.8.39,1.74.74,3.49,1.1,5.24.32,1.54.63,3.08.94,4.63.12.58.24,1.15.35,1.73.09.44.13.88.24,1.31.13.5.29.99.46,1.48.2.57,0,1.24.5,1.73.08.08.05.27.07.41.19,1.16.36,2.32.59,3.47.17.85.47,1.67.66,2.51.36,1.65.69,3.31,1.02,4.98.19.99.36,1.98.53,2.97.09.53.19,1.07.23,1.6.06.77,0,1.56.1,2.32.21,1.67.31,3.36.39,5.04.11,2.34.12,4.68.15,7.02.02,1.28,0,2.56,0,3.84,0,.3-.1.62-.04.9.19.92.16,1.87-.02,2.74-.35,1.61-.02,3.24-.31,4.84.13-.52.26-1.04.4-1.62.09-.02.23-.05.44-.09.06-.51.1-1.03.2-1.53.15-.71.38-1.4.51-2.12.22-1.15.43-2.3.57-3.46.17-1.45.53-2.88.4-4.36,0-.09,0-.19.03-.28.22-.62.13-1.25.09-1.88-.01-.2.01-.41.03-.62.08-.77.19-1.53.25-2.3.02-.27-.07-.55-.06-.82.04-.89.1-1.77.15-2.66-.04.01-.09.03-.13.04-.05-.1-.15-.21-.15-.31-.06-1.43-.1-2.87-.18-4.3-.05-.84-.15-1.67-.27-2.5-.04-.27-.24-.52-.27-.79-.12-.9-.2-1.81-.3-2.72-.04-.35-.06-.71-.17-1.05-.3-.94-.66-1.87-.58-2.89.02-.28.05-.56.02-.83-.2-1.75-.44-3.49-1.14-5.13-.07-.17-.1-.36-.15-.54-.15-.64-.25-1.29-.45-1.91-.45-1.37-.96-2.72-1.25-4.14-.3-1.44-.57-2.89-.99-4.29-.34-1.12-.77-2.21-.95-3.38-.13-.84-.33-1.66-.46-2.5-.16-1.07-.27-2.15-.44-3.22-.06-.35-.31-.66-.39-1.01-.18-.73-.3-1.47-.44-2.2-.08-.39-.13-.79-.22-1.18-.15-.65-.31-1.3-.5-1.94-.25-.79-.15-1.71-.83-2.34.08-.23.14-.43.18-.54ZM182.99,151.24c.18-.33.33-.65.52-.94.39-.6.8-1.19,1.2-1.79.05-.08.07-.17.1-.26.16-.57.22-1.19.5-1.69.52-.93.89-1.91,1.28-2.89.29-.72.86-1.35.79-2.21,0-.08.07-.17.11-.26.18-.4.34-.8.55-1.18.19-.35.45-.67.66-1,.13-.2.24-.41.33-.62.15-.34.28-.68.43-1.03.04-.11.1-.21.14-.31.23-.65.44-1.32.7-1.96.28-.69.59-1.37.91-2.05.34-.74.71-1.48,1.06-2.22.18-.38.5-.79.45-1.15-.08-.53.18-.95.25-1.42.05-.33.28-.64.39-.97.2-.63.31-1.3.57-1.9.47-1.06.92-2.12,1.24-3.24.2-.7.38-1.41.67-2.08.46-1.05.9-2.1,1.16-3.22.07-.32.22-.61.31-.92.08-.26.13-.53.19-.79-.25.02-.42.09-.49.21-.31.56-.62,1.13-.89,1.72-.23.48-.32,1.05-.62,1.47-.48.68-.85,1.38-.95,2.22-.07.59-.23,1.16-.84,1.47.1.7-.31,1.28-.51,1.89-.31.91-.73,1.8-1.22,2.66-.9,1.58-1.63,3.25-2.42,4.89-.12.25-.09.59-.25.79-.5.64-.78,1.37-1.03,2.12-.12.35-.17.8-.41,1.03-.56.54-.45,1.3-.79,1.92-.18.33-.24.78-.47,1.14-.22.35-.43.71-.6,1.08-.24.51-.44,1.03-.67,1.54-.33.72-.71,1.42-1.01,2.15-.45,1.11-.85,2.24-1.25,3.36-.31.86-.59,1.74-.89,2.61-.21.61-.42,1.23-.67,1.83-.27.67-.61,1.32-.88,1.99-.45,1.1-.85,2.23-1.31,3.33-.65,1.56-1.33,3.1-2,4.65-.05.11-.08.22-.12.33-.24.71-.4,1.46-.72,2.14-.47,1.01-.79,2.05-1,3.13-.02.09-.03.19-.06.28-.22.78-.45,1.57-.68,2.35-.07.24,0,.37.18.33.14-.44.16-.9.39-1.18.39-.46.5-1,.64-1.54.04-.14,0-.35.08-.4.41-.28.35-.69.37-1.08,0-.09.02-.2.07-.27.56-.69.72-1.56,1.06-2.35.32-.74.48-1.57,1.19-2.1.1-.08.18-.22.22-.35.16-.55.63-1,.48-1.65-.03-.12.11-.31.21-.44.34-.45.64-.92.76-1.49.05-.22.23-.41.34-.61.12-.23.28-.45.33-.7.21-1.04.89-1.78,1.63-2.66-.05-.41-.12-.93-.19-1.52.13-.05.31-.13.47-.2ZM239.69,92.73c-.56-.06-.56-.05-.93.17-.18.1-.38.26-.56.25-1.31-.09-2.52.31-3.74.72-.84.29-1.64.66-2.6.69-.68.02-1.36.31-1.88.11-.49.26-.84.61-1.17.59-.47-.03-.88.08-1.31.16-.57.1-1.14.2-1.71.31-.27.14-.56.25-.86.34-.51.16-1.03.31-1.55.46-.31.09-.63.22-.95.24-1.14.07-2.24.51-3.41.31-.06-.01-.13.04-.2.06-.95.27-1.9.57-2.86.8-1.26.3-2.52.55-3.79.8-.37.07-.77,0-1.12.11-.56.16-1.07.5-1.63.62-.76.17-1.55.21-2.39.31-.07.05-.21.23-.39.27-.36.09-.74.11-1.11.14-.69.05-1.37.09-1.84.7-.05.07-.15.09-.22.13-.63-.57-.82-.58-1.33.03-.29.34-.55.71-.74,1.11-.18.4-.33.85-.05,1.22.46.2.84.45,1.26.54.67.15,1.33.07,1.95-.28.44-.25.88-.46,1.4-.18.07.04.19.03.27,0,.76-.18,1.53-.36,2.28-.57.74-.21,1.5-.39,2.19-.72.34-.16.57.06.84-.02,1.12-.32,2.2-.79,3.34-1.03.05,0,.09-.04.13-.05.92-.28,1.84-.55,2.75-.86.62-.21,1.21-.47,1.82-.71.15-.06.3-.09.45-.15.71-.24,1.41-.48,2.12-.72.24-.08.47-.19.7-.26.69-.21,1.45-.28,1.88-.77h1.81c.24-.13.49-.31.76-.42.89-.35,1.79-.68,2.69-1.02.11-.04.23-.03.34-.07.29-.08.57-.18.86-.26.15-.04.3-.08.45-.11.18-.03.37-.02.53-.08.79-.29,1.6-.56,2.35-.93.51-.25,1.16-.08,1.56-.58.02-.03.09-.02.14-.02,1.07-.22,2.13-.43,3.21-.65.08-.27.15-.48.23-.76ZM197.23,162.66c.33.4.29.79.07,1.2-.18.35-.35.7-.51,1.07-.2.47-.4.94-.55,1.43-.12.4-.18.82-.26,1.23-.06.27-.1.54-.17.81-.08.31-.19.61-.26.93-.06.3-.02.63-.14.89-.29.66-.38,1.31.02,2.07-.38.17-.74.33-1.13.51-.11-.2-.18-.31-.24-.44-.31-.76.04-1.51.23-2.19.27-1,.36-1.98.38-3.04-.23-.01-.43-.02-.67-.03-.1.24-.26.46-.28.7-.03.37-.19.59-.47.82-.55.44-.5,1.16-.75,1.75.31.34.02.66-.01.99-.06.55-.33,1.09-.11,1.67.06.17-.08.41-.13.61.15.03.36.08.57.13.31-.14.63-.26.93-.23.53.06,1-.06,1.5-.23.76-.26,1.5-.73,2.44-.38.07-.27.14-.48.16-.69.03-.29-.07-.63.04-.88.36-.85.23-1.76.42-2.63.12-.52.1-1.07.13-1.6.04-.82.03-1.64.11-2.45.13-1.35.36-2.66-.17-4.03-.59-1.51-1.53-2.55-3-3.16-.38-.16-.81-.33-1.21-.06-1.46.98-2.23,1.96-2.45,3.8.21-.43.5-.41.84-.22.31.18.34.48.27.74-.13.45-.06.87,0,1.32.07.51.09,1.04-.24,1.51h-.25c.19.17.5.34.61.6.12.28.06.64.08.96.56,0,.57-.34.59-.73.04-.82.06-1.64.18-2.46.04-.29.28-.6.51-.82.38-.37.86-.2.93.32.05.38-.02.78-.05,1.18-.03.44-.08.87-.13,1.44.83-.77.66-1.94,1.51-2.48.24.02.47.04.68.06ZM182.46,99.38c1-.5.97-1.44,1.3-2.19.17-.06.35-.12.57-.2-.23-.57.1-.84.45-.96.18-.48.32-.88.48-1.27.2-.48.59-.94.59-1.42,0-.66.27-1.18.52-1.7.29-.62.74-1.16,1.26-1.95.05-.43.1-1.14.59-1.71.07-.08.11-.22.12-.33.04-.8.6-1.1,1.16-1.32.37.17.66.29.94.42-.55-.55-.96-1.24-1.81-1.4-.16-.03-.37-.32-.39-.51-.04-.34-.01-.72.1-1.04.27-.75.6-1.48.9-2.21.05-.13.1-.27.09-.41-.03-.37.14-.65.4-.86.45-.36.56-.79.39-1.32-.05.04-.09.09-.14.13-.31-.34-.63-.67-.95-1.02-.33.37-.73.82-1.03,1.16-.51,1.81-.98,3.5-1.44,5.13.38.42.86.63.88,1.19.04,1.07-.21,2.06-.76,2.96-.49.8-.96,1.62-1.2,2.53-.16.59-.26,1.19-.56,1.74-.12.22-.1.52-.14.8-.02.01-.07.03-.1.06-.71.84-.79,1.97-1.34,2.9-.13.23-.02.6-.02.89-.74.42-.83,1.09-.86,1.9ZM296.12,187.54c.08-1.41.56-2.79.31-4.24-.05-.26.09-.55.14-.82.05-.32.11-.64.16-.96.04-.23.05-.46.1-.69.14-.69.29-1.37.43-2.06.01-.07,0-.14,0-.21-.04-.68-.08-1.36-.13-2.04-.02-.34-.06-.68-.09-1.01-.82.07-1.47.69-1.51,1.46-.02.44-.13.77-.55.98.32.39.32.76.09,1.14-.07.11-.1.26-.12.4-.06.58-.09,1.17-.15,1.75-.07.75-.16,1.49-.25,2.29.39.36.16,1.03.63,1.46.14.13.09.73-.09.91-.58.61-.41,1.3-.39,2.03.2.07.39.15.59.22.29-.21.55-.4.85-.61ZM284.27,186.45v2.01c.87.04,1.68.08,2.49.12.07,0,.15,0,.2-.05.55-.36,1.12-.18,1.71-.15.59.04,1.19.39,1.8-.03.34.4.75.34,1.17.2.47-.15.93-.33,1.45-.2.09.02.2-.08.32-.13-.03-.54-.06-1.04-.1-1.63-.26-.1-.55-.27-.86-.32-.43-.06-.88.03-1.31-.04-.81-.12-1.62-.19-2.44-.13-.53.04-1.04-.02-1.58.21-.53.23-1.17.32-1.81.12-.29-.09-.63,0-1.03,0ZM257.06,92.23c.36-.7.88-.77,1.43-.85.72-.1,1.41-.37,2.13-.49.68-.12,1.34-.38,2.08-.22.37.08.85-.05,1.29-.37-.83-.1-4.24.25-4.7.41-.24-.02-.48-.02-.7.03-.38.09-.76.21-1.14.32-1.02.31-2.05.62-3.07.94-.5.16-1,.35-1.6.56.19.11.29.22.34.2.36-.13.71-.28,1.07-.42.19-.07.38-.16.58-.21.43-.11.89-.15,1.3-.31.39-.14.68-.15.98.4ZM301.64,186.55c.72-1.66.84-3.36.43-5.08-.7-.02-.73,0-.88.52-.18.59-.18,1.15.04,1.73.06.17.13.39.07.54-.31.83.07,1.55.34,2.3ZM186.96,174.75c1.2.72,2.38.72,3.66.44.18.04.43.09.68.14-.41-.33-.83-.62-1.29-.7-.5-.09-.87-.3-1.2-.61-.06-.32.3-.68-.14-.91-.41.66-1.34.78-1.71,1.65ZM179.08,170.78c-.39-.88-.92-1.18-1.99-1.14.04.39.07.77.1,1.13-.2.16-.4.33-.54.45-1,.34-1.99.52-2.63,1.38,1.59-.82,3.37-1.13,5.06-1.82ZM297.41,188.51c.9-.08,1.67-.15,2.35-.21v-1.56c-.71.06-1.45-.54-1.93.06-.18.72-.3,1.21-.42,1.71ZM269.19,88.68c-.84-.46-1.33-.27-1.83.58-.28.49-.18.97.26,1.22.41.23.97.05,1.17-.45.17-.43.26-.89.39-1.36ZM172.06,172.81c-.18-.39-.32-.69-.48-1.04-.3.33-.52.65-.39,1.19.28-.05.56-.1.87-.15ZM173.15,171.07c.71-.06.74-.1.48-.68-.17.24-.3.43-.48.68ZM191.81,167.73c.54-.52.09-1.1.21-1.37-.04.27-.12.75-.21,1.37ZM183,473.65c-.09-.02-.17-.04-.26-.07-.07.28-.14.55-.21.83.04.02.08.03.13.05.11-.27.23-.54.34-.81ZM174.81,170.37c-.28-.26-.43-.22-.47.12,0,.05.03.11.06.21.15-.12.27-.22.41-.33ZM265.05,90.02c-.37-.07-.55-.11-.49.27.14-.08.25-.14.49-.27ZM229.12,94.78s-.04-.07-.05-.11c-.08.04-.16.08-.24.12.02.03.03.07.05.1l.25-.12ZM193.15,97.79s.08.09.12.14c.07-.05.13-.1.2-.15-.04-.04-.09-.09-.13-.13-.06.05-.13.1-.19.15ZM198.54,90.33s-.02-.03-.03-.05c-.03.02-.05.04-.08.06,0,0,.02.03.03.05.03-.02.05-.04.08-.06ZM192.03,165.4v-.06s-.02,0-.03,0c0,.02,0,.04,0,.06,0,0,.02,0,.03,0ZM228.47,94.74s-.04,0-.05.01c0,.02.01.05.03.05.01,0,.04,0,.06-.01l-.03-.05ZM191.3,162.43s.01-.07.02-.11c0,.04-.01.07-.02.11Z"/>
  <path class="cls-1" d="M243.3,160.89c-.5-.04-.84-.1-1.19-.09-1.56.02-3.07-.27-4.58-.6-.3-.07-.6-.08-.91-.12-.35-.05-.7-.1-1.04-.16-.28-.04-.58-.17-.83-.11-.6.15-1.11-.08-1.63-.27-1.08-.4-2.12-.92-3.36-.98-.17.2-.38.44-.56.66.11,1.83.2,3.63.32,5.44.04.7.02,1.38-.08,2.09-.07.51.22,1.08.35,1.61.91.03,1.9-.57,2.04-1.27-.31-.06-.62-.16-.93-.18-.49-.04-.78-.32-.95-.73-.14-.34-.03-.57.33-.61.32-.04.66,0,1.01,0,.1-.15.21-.33.32-.51.03.06.06.12.09.18.26.11.5.27.77.32.72.16,1.07.65,1.29,1.29.07.2.09.41.14.69-1.25.92-2.37,2.07-4.09,2.28-.9.11-1.75.49-2.64.69-.96.21-1.94.37-2.92.52-1.02.16-2.05.29-3.08.39-.37.04-.74-.09-1.12-.09-1.29,0-2.48-.4-3.69-.76-.28-.08-.59-.12-.84-.25-.85-.44-1.08-.97-.86-1.86.03-.13.11-.27.21-.35.7-.56,1.39-1.11,2.12-1.63.17-.12.45-.09.72-.14.14-.59.25-1.15.24-1.78-.03-1.19.07-2.38.52-3.52.08-.21.11-.45.15-.68.06-.3.05-.63.18-.9.35-.77.44-1.64,1.01-2.32.22-.25.22-.67.39-.98.46-.79.89-1.6,1.46-2.3.32-.39.65-.88,1.23-1,.07-.01.13-.06.19-.1.8-.63,1.62-.85,2.62-.37.38.18.87.16,1.17.54.46.58,1.01,1.1,1.25,1.84.24.73.58,1.43.89,2.17.39.05.81.06,1.22.16.71.17,1.4.41,2.1.59.81.22,1.57.59,2.45.65.85.06,1.68.56,2.51.53,1.29-.04,2.43.56,3.66.63,1,.05,2-.11,3-.18.1-.67.16-1.24.43-1.81.25-.54.35-1.2.61-1.77.54-1.18.92-2.42,1.38-3.63.14-.36.47-.72.81-.93.86-.54,1.61-1.31,2.7-1.45.28-.04.51-.12.8.06.22.14.54.11.88.16.78.72,1.4,1.6,1.77,2.66.33.93.78,1.81,1.12,2.74.24.66.45,1.35.57,2.04.13.79.14,1.61.21,2.42.04.45.14.89.13,1.33,0,.39-.15.78-.18,1.17-.02.39.02.78.04,1.16.68.23,1.36-.39,1.86.21.3-.15.55-.37.8-.37.21,0,.42.26.74.47,0,0,.18-.09.32-.05.15.05.35.2.37.33.07.4.06.81.09,1.28-.21.24-.48.56-.74.86-.34.2-.66.42-1.01.6-1.32.64-2.59,1.43-4.1,1.53-.09,0-.21-.02-.28.03-.69.49-1.48.39-2.26.4-.12,0-.28-.03-.35.03-.73.62-1.64.4-2.45.44-1.33.06-2.67.02-4-.19-.75-.12-1.5-.26-2.23-.45-.46-.12-.91-.41-1.26-.73-.64-.58-.52-1.61.17-2.14.28-.21.54-.44.79-.67.3-.26.55-.56,1.02-.52.29.02.44-.22.5-.51.11-.62.24-1.24.36-1.87.09-.49-.06-.91-.28-1.26ZM251.61,166.2c.36-.1.6-.2.84-.22.6-.07,1.07-.52,1.17-1.11.09-.57.09-1.19.25-1.7.31-.99.1-1.97.12-2.94.02-.94-.2-1.9-.39-2.84-.17-.86-.37-1.74-.7-2.55-.42-1.04-.98-2.02-1.5-3.01-.27-.51-1-.87-1.52-.69-1.31.45-2.41,1.12-2.79,2.63-.19.74-.46,1.46-.8,2.16-.46.94-1.21,1.83-.99,3.01.02.09,0,.21-.04.27-.42.51-.24,1.14-.37,1.71-.1.41-.16.83-.25,1.24-.03.13-.12.27-.11.39.08.77.19,1.53.3,2.42.02-.08.02-.02,0,.01-.3.31-.38.71-.15,1.03.22.3.54.6,1.02.52.43-.07.86-.12,1.2-.16.13-.73.25-1.37.37-2.01.12-.62.2-1.25.4-1.84.12-.35.12-.63-.03-.94-.31-.63-.6-1.26-.87-1.91-.54-1.31-.16-2.43.39-3.58.05-.1.21-.18.34-.21.55-.13.88.14.94.75.04.4.02.8.07,1.2.13.94.52,1.84.37,2.81-.02.14.05.3.11.63.32-.33.63-.53.73-.8.18-.52.24-1.08.35-1.63.04-.18.09-.36.14-.54.09-.29.24-.58.27-.87.05-.57.36-.96.73-1.33.2-.2.42-.31.71-.13.17.47.06.9-.17,1.34-.1.2-.17.55-.06.7.3.45.08.81-.07,1.2-.04.12-.12.23-.18.34.22-.1.33-.26.46-.41.24-.28.61-.37.81-.18.22.22.15.45.04.71-.14.34-.2.71-.32,1.06-.08.24-.16.48-.28.7-.17.3-.45.57-.55.89-.19.6-.32,1.23-.43,1.85-.09.53-.12,1.07-.18,1.59.27.19.48.33.64.44ZM226.1,168.17c.41-.47,1.12-.39,1.32-1.05.03-.09.36-.1.58-.15.34-1.42.55-2.87.11-4.34-.05-.16-.07-.32-.08-.49-.05-.8-.08-1.6-.15-2.4-.1-1.1.05-2.21-.5-3.28-.2-.38-.35-.84-.53-1.27-.46-1.06-1.32-1.39-2.36-1.52-.43-.05-.79.09-1.1.38-.74.7-1.39,1.46-1.76,2.43-.05.13-.09.3-.19.37-.73.51-.82,1.4-1.26,2.08-.2.31-.21.75-.3,1.14-.05.24-.07.49-.14.72-.19.62-.45,1.23-.58,1.86-.15.73-.24,1.49-.27,2.24-.03.64.04,1.29.11,1.93.04.34.21.67.28,1.02.07.32.23.52.56.53.49.01.99,0,1.59,0,.08-.4.1-.77.22-1.1.12-.34.35-.64.58-1.05.24-.97-.09-1.96-.53-2.94-.18-.41-.2-.92-.18-1.38.02-.6.17-1.2.24-1.8.06-.51.33-.79.82-.92.32.64-.12,1.24-.02,1.86q.47-.43.93-.09v1.1c.12-.07.18-.09.19-.12.03-.11.07-.23.06-.34-.09-.83.24-1.58.45-2.35.09-.35.37-.49.68-.53.33-.04.53.16.65.44.06.15.12.3.17.44.87.22,1.11.66.93,1.42-.21.88-.34,1.78-.45,2.68-.11.88-.09,1.79-.25,2.66-.11.59-.09,1.11.17,1.79ZM224.44,168.89c0-.4-.03-.75,0-1.08.12-1,.27-2,.38-3,.01-.14-.14-.29-.19-.37-.28.23-.47.45-.71.56-.48.23-.59.62-.61,1.09-.01.4,0,.82-.09,1.2-.12.48-.34.94-.51,1.39.41.52.78.56,1.72.22ZM248.28,166.36c.55,0,1.04.38,1.46-.19.16-1.32.31-2.66.47-3.96-.46.19-.94.39-1.42.59-.21,1.17-.57,2.32-.51,3.56ZM257.61,165.33c0-.09-.01-.17-.02-.26-.35-.1-.69-.27-1.04-.28-.55-.02-.99-.19-1.37-.62-.06.3-.12.56-.18.84.7.31.57.89.47,1.51.75-.41,1.45-.8,2.14-1.19ZM216.16,169.16c.68.17,1.25.31,1.74.44v-1.94c-.66.57-1.66.43-1.74,1.5ZM242.74,165.64c-.22.3-.4.51-.55.75-.26.43-.17.71.3.86.31.1.64.14.99.21-.25-.61.04-1.38-.75-1.82ZM221.39,170.28s.01-.05.02-.07c-.58-.15-1.16-.31-1.75-.44-.1-.02-.23.1-.36.15.38.2.72.38.97.51.42-.06.77-.11,1.12-.15ZM228.1,168.88c-.56-.35-.74.36-1.16.23.02.05.03.11.05.16.35-.12.7-.24,1.12-.39ZM246.87,167.86q.59.2,1.04-.12c-.36.04-.62.07-1.04.12ZM223.76,163.08s.08-.06.12-.08c-.08-.08-.15-.16-.23-.24-.02.02-.04.03-.05.05.05.09.11.19.16.28ZM222.59,161.85s.02.06.03.09c.06-.02.12-.05.18-.07,0-.02-.02-.05-.02-.07-.06.02-.13.04-.19.05Z"/>
  <path class="cls-1" d="M167.37,218.94c0,.28,0,.56,0,.84-.01.8-.04,1.61-.04,2.41,0,.51-.02,1.04.07,1.54.14.75.05,1.48.03,2.23-.05,1.3.05,2.61.09,3.92,0,.21,0,.43,0,.64-.01,1.19-.02,2.39-.03,3.58-.01,1.36.11,2.74-.08,4.07-.14.94-.13,1.86-.17,2.79-.03.63-.07,1.27-.15,1.9-.08.66-1.01,1.67-1.79,1.7-1.06.04-2.1-.07-3.13-.39-.79-.25-1.63-.61-2.37.01-.3-.12-.55-.26-.82-.31-.59-.11-1.09-.7-1.04-1.29.06-.85.1-1.69.19-2.54.07-.64-.07-1.25-.14-1.87-.16-1.48-.25-2.96-.34-4.44-.02-.39.11-.79.12-1.19,0-.25-.09-.5-.15-.74-.02-.07-.08-.13-.08-.19-.02-.75-.01-1.5-.05-2.24-.07-1.43-.16-2.86-.23-4.28,0-.18.07-.37.08-.55.02-1.21.13-2.42-.08-3.64-.09-.54,0-1.11.03-1.67.02-.44.04-.89.07-1.33.04-.59.11-1.17.12-1.76.01-.67-.03-1.35-.05-2.02-.04-.91-.06-1.82-.14-2.73-.04-.46.03-.92-.04-1.39-.09-.57-.02-1.16,0-1.75.02-.74.09-1.48.09-2.22,0-.49-.11-.98-.11-1.47,0-.63.07-1.26.09-1.89,0-.27-.05-.54-.03-.81.02-.23.1-.45.17-.76-.04-.03-.19-.15-.33-.25-.04-.29.21-.53.48-.54.58-.02,1.15-.05,1.76-.07.28.1.61.3.96.33.85.08,1.66.43,2.54.28.45-.07.93.07,1.4.11.55.05,1.11.12,1.66.14.41.02.79.19,1.24.05.42-.12.81.52.78,1.04-.04.76,0,1.52,0,2.28,0,1.07,0,2.13,0,3.2,0,.44.02.88.02,1.32,0,.18.03.42-.07.54-.34.44-.25.89-.09,1.34.16.44.16.86.08,1.32-.09.48-.03.99-.08,1.48-.02.25-.12.5-.26.73.05.31.29.63-.08.95-.07.06-.08.23-.06.33.12.83.14,1.65-.12,2.47-.07.22.1.53.17.79-.03,0-.05,0-.08,0ZM159.91,236.64c-.17.97-.41,1.86.04,2.76.1.19.09.49.01.7-.2.49-.04.93.07,1.39.2.82.42.98,1.28,1.01.21,0,.45-.03.63.04.79.31,1.63.35,2.46.43.76.08,1.12-.25,1.18-1.01.05-.63.02-1.28.17-1.89.32-1.25.03-2.56.39-3.8.05-.17,0-.38-.02-.56-.03-.35-.1-.7-.11-1.05-.02-.78-.02-1.57,0-2.35.02-.56.14-1.13.11-1.69-.04-.73.26-1.42.06-2.18-.15-.55-.19-1.2-.04-1.74.28-.99.2-1.99.28-2.98.01-.14-.06-.28-.07-.42-.02-.19-.09-.4-.03-.56.33-.95-.23-1.83-.07-2.76-.4.05-.71.12-1.01.11-.73-.03-1.45-.07-2.14-.38-.43-.19-.88-.37-1.34-.45-.71-.11-1.43-.12-2.22-.18,0,.19,0,.42,0,.65-.03.96-.14,1.92-.09,2.87.05,1.05.27,2.1.37,3.15.05.49.26.79.71.95.29.1.58.22.87.27,1.2.2,2.42.32,3.64.13.47-.07.83.03,1.03.51-.24.33-.33.78-.87.74-.72-.05-1.44-.07-2.16-.13-.91-.07-1.82-.17-2.75-.27-.14.4-.2.83-.08,1.32.1.44.02.94-.02,1.41-.05.65-.14,1.31-.22,1.96-.03.28-.07.56-.09.84-.02.35-.07.71-.03,1.06.04.5.24.87.82.99,1.24.26,2.43.74,3.71.85.34.03.83.01.99.54-.25.35-.56.59-1.01.5-1.29-.26-2.57-.54-3.85-.8-.18-.04-.37,0-.62,0ZM166.73,215.78c-.26-.45-.29-1.16-.04-1.7.3-.66.11-1.32.26-1.98.16-.73-.09-1.55-.16-2.3-.08.03-.26.18-.4.16-.97-.15-1.95-.14-2.93-.14-.56,0-1.14-.17-1.67-.06-.54.11-1.02-.02-1.53-.07-.15-.01-.3-.06-.38-.07-.07.3-.13.53-.19.77-.13.52-.25,1.03-.37,1.55-.02.06.01.14.02.21.04.33.1.65.1.98.01,1.44,0,2.89,0,4.28.66.7,1.45.79,2.29.77.23,0,.5,0,.69.1.71.41,1.46.64,2.31.68.14-.1.31-.22.51-.36.39.16.78.32,1.1.45.13-1.05.26-2.09.4-3.27ZM165.82,202.44c-.11,0-.24.03-.34,0-1.11-.41-2.2-.94-3.44-.68-.07.01-.14,0-.21-.01-.67-.06-1.34-.12-1.95-.18,0,.86.01,1.63,0,2.41-.02.79-.07,1.59-.11,2.38-.03.71-.45,1.43.13,2.2,2.21.43,4.53.1,6.84.45.1-1.02.24-1.93.28-2.84.03-.61-.09-1.22-.12-1.83-.02-.35-.01-.71-.02-1.07-.01-.31-.03-.62-.06-1.08-.1-.06-.33-.19-.58-.34-.16.23-.27.4-.4.59ZM158.31,201.39c.12,1.73.32,3.44-.19,5.16.47.38.23.95.21,1.47.16.04.27.06.43.1.07-.49.16-.95.19-1.41.03-.46,0-.93-.02-1.39-.04-1.2-.09-2.4-.13-3.6,0-.24-.05-.43-.47-.33ZM158.5,227.54c.07.2.17.37.2.55.06.5.13,1,.13,1.5,0,.72.34,1.43.06,2.17-.05.14.07.36.11.54.07-.01.13-.02.2-.03-.02-.35-.03-.7-.05-1.09.1-.13.22-.3.34-.47-.13-.33-.13-.64-.15-.95-.05-.67.1-1.34-.17-2.02-.12-.32-.36-.72-.15-1.17.14-.28-.13-.49-.46-.76-.03.3-.12.5-.06.62.22.39.2.76-.01,1.12ZM158.63,209.23c-.08.02-.17.04-.25.06-.02.73.01,1.47.08,2.2,0,.02.07.03.13.05.05-.08.13-.15.14-.23.07-.55.14-1.11.17-1.66,0-.14-.17-.28-.26-.42ZM158.59,222.34v-3.08c-.35,1.04-.25,2.06,0,3.08ZM158.48,215.24c.05,0,.1,0,.16-.01-.04-.3-.11-.6-.13-.9-.01-.3.03-.6.05-.9-.03,0-.05,0-.08,0v1.81ZM158.6,224.83c.06-.43.1-.7.13-.97-.04,0-.09-.01-.13-.02v.98ZM158.44,216.26s.08,0,.12,0v-.47s-.09,0-.14,0c0,.16.01.31.02.47ZM158.61,212.52s-.08-.02-.12-.03c-.02.13-.04.26-.06.4.02,0,.05.01.07.02.03-.13.07-.26.1-.39Z"/>
  <path class="cls-1" d="M160.33,253.78c.32.04.45.06.67.08.03-.23.14-.47.08-.66-.3-.98-.27-1.99-.31-3-.03-.51-.09-1.03-.07-1.54.02-.39.15-.77.24-1.18-.05-.04-.16-.12-.47-.36.19-.08.37-.09.45-.19.37-.44.78-.52,1.33-.31.61.24,1.22.24,1.85-.04.84-.37,1.46-.02,1.57.88.05.42.02.85,0,1.28-.02.49-.08.98-.12,1.47-.04.59-.08,1.17-.12,1.76,0,.09-.04.2,0,.28.36,1.02.1,2.1.3,3.12.15.78-.13,1.36-.43,2-.15.31-.33.43-.64.43-.73,0-1.47.02-2.2-.02-.17,0-.44-.16-.49-.3-.24-.68-.45-1.38-.6-2.09-.07-.34-.14-.61-.43-.84-.21-.17-.34-.44-.59-.78ZM164.4,256.07c-.03-.85-.04-1.55-.09-2.24-.02-.33-.04-.67-.15-.97-.14-.38-.13-.67.2-.89q-.27-.51-.6-.46c0,.29.1.64-.02.85-.38.65-.85,1.25-1.31,1.91.21.69.33,1.45.81,2.07.39-.09.75-.18,1.16-.27ZM162.13,249.38c-.04.34-.12.66-.1.97,0,.18.13.39.27.49.06.05.33-.1.44-.22.13-.15.2-.36.27-.52-.16-.48-.4-.77-.88-.73Z"/>
  <path class="cls-1" d="M165.88,261.8c.08.27.2.51.22.76.1,1.35.17,2.71.28,4.06.04.45.15.9.27,1.34.23.9.25,1.82.31,2.74,0,.14,0,.29-.01.43-.12,1.05-.48,1.39-1.53,1.48-.35.03-.7.1-1.05.13-.57.05-1.15.09-1.73.12-.32.02-.7-.31-.7-.76,0-.6-.21-1.18-.08-1.82.14-.67.12-1.4,0-2.08-.13-.75.14-1.44.11-2.16-.01-.26.11-.53.06-.77-.14-.7.13-1.34.19-2.01.03-.3.07-.59.11-.96q.25-.27,1.01-.4c.14.13.3.27.53.48.19-.29.36-.57.59-.94.4.1.86.22,1.42.36ZM165.21,266.73s0,0,0,0c0-.07-.02-.14-.01-.21.19-1.06-.5-1.72-1.51-1.46-.09.02-.18.05-.27.08-.19.48-.31.94.03,1.38.63-.06,1.25-.39,1.75.21ZM163.12,268.28c.02.29.03.53.04.78,1.49-.11,1.85.19,1.53,1.2-.46.09-.91.18-1.37.27-.07.3-.12.57-.21.97.37-.15.67-.22.89-.39.39-.29.73-.65,1.06-.96.28.11.48.2.82.33-.5-1.04-.32-2.07-.5-3.2-.34.61-.74.82-1.29.8-.29-.01-.59.12-.98.2ZM163.92,262.69h-.21c-.06.26-.12.52-.18.83.24.01.38.02.52.02-.05-.31-.09-.58-.13-.85Z"/>
  <path class="cls-1" d="M208.38,484.02s.03.07.04.11c0,0-.03.02-.05.04-.01-.04-.03-.07-.04-.11,0,0,.03-.02.05-.04Z"/>
  <path class="cls-1" d="M208.35,482.9s.04,0,.05,0c.01.02.01.04.02.06-.03,0-.06,0-.09,0,0-.02.01-.04.02-.06Z"/>
  <path class="cls-2" d="M225.44,168.89c-.94.34-1.32.3-1.72-.22.17-.45.39-.91.51-1.39.1-.38.08-.8.09-1.2.01-.47.12-.86.61-1.09.24-.11.43-.34.71-.56.04.08.2.24.19.37-.11,1-.26,2-.38,3-.04.34,0,.69,0,1.08Z"/>
  <path class="cls-2" d="M249.28,166.36c-.06-1.24.3-2.39.51-3.56.48-.2.96-.4,1.42-.59-.15,1.3-.31,2.64-.47,3.96-.42.57-.91.18-1.46.19Z"/>
  <path class="cls-2" d="M258.61,165.33c-.7.39-1.4.77-2.14,1.19.1-.62.24-1.2-.47-1.51.06-.28.12-.54.18-.84.38.43.82.6,1.37.62.35.01.69.18,1.04.28,0,.09.01.17.02.26Z"/>
  <path class="cls-2" d="M217.16,169.16c.08-1.07,1.08-.93,1.74-1.5v1.94c-.49-.12-1.06-.27-1.74-.44Z"/>
  <path class="cls-2" d="M243.74,165.64c.79.44.5,1.21.75,1.82-.36-.07-.68-.12-.99-.21-.47-.15-.57-.43-.3-.86.15-.24.33-.45.55-.75Z"/>
  <path class="cls-2" d="M222.39,170.28c-.35.05-.69.09-1.12.15-.25-.13-.59-.31-.97-.51.13-.06.26-.18.36-.15.59.13,1.17.29,1.75.44,0,.02-.01.05-.02.07Z"/>
  <path class="cls-2" d="M229.1,168.88c-.42.14-.77.27-1.12.39-.02-.05-.03-.11-.05-.16.42.13.6-.58,1.16-.23Z"/>
  <path class="cls-2" d="M247.87,167.86c.41-.05.67-.08,1.04-.12q-.44.32-1.04.12Z"/>
  <path class="cls-2" d="M224.76,163.08c-.05-.09-.11-.19-.16-.28.02-.02.04-.03.05-.05.08.08.15.16.23.24-.04.03-.08.06-.12.08Z"/>
  <path class="cls-2" d="M223.59,161.85c.06-.02.13-.04.19-.05,0,.02.02.05.02.07-.06.02-.12.05-.18.07-.01-.03-.02-.06-.03-.09Z"/>
  <path class="cls-1" d="M217.82,279.95c-.6.66-1.39.54-2.12.44-1.14-.16-2.04-.81-2.75-1.71-.47-.59-.97-1.15-1.37-1.79-.29-.47-.46-1.02-.61-1.56-.17-.58-.29-1.19-.37-1.79-.1-.72-.15-1.45-.21-2.18-.05-.53-.08-1.07-.14-1.6-.08-.8-.07-1.56.16-2.36.17-.58.11-1.24.1-1.87-.01-.79-.1-1.59-.12-2.38,0-.37.07-.75.11-1.12.01-.14.05-.29.01-.42-.28-.95-.04-1.9-.04-2.85,0-1.08.07-2.16.07-3.23,0-1.17.14-2.34.22-3.51.02-.35.02-.71.16-1.09-.12-.17-.25-.34-.37-.5.04,0,.08,0,.12,0,.05-.76.09-1.53.14-2.29.04-.56.11-1.13.12-1.69,0-.4-.11-.8-.1-1.19.01-.68.09-1.36.12-2.05.06-1.21.1-2.42.16-3.63.04-.77.09-1.54,0-2.31-.13-1.12-.16-2.26-.28-3.38-.07-.64-.06-1.27.07-1.89,0-.05.03-.09.03-.14-.03-1.07-.07-2.15-.1-3.22,0-.26-.03-.52,0-.78.03-.49.07-.98.13-1.48.03-.23.05-.48.16-.68.29-.53.66-.98.86-1.59.17-.55.66-1,1.03-1.48.07-.1.24-.12.37-.18,1.1-.48,2.2-.53,3.37-.17.86.26,1.77,0,2.66-.02.52-.01,1.08.04,1.52-.37.05-.05.18-.03.28-.02,1.1.09,2.13-.26,3.18-.49.69-.15,1.39-.24,2.08-.35.67-.1,1.35-.19,2.03-.26.23-.03.48-.05.71,0,.31.05.6.14.87-.09.05-.04.15-.06.2-.04.94.33,1.86-.25,2.79-.03.09.02.2.03.28,0,.66-.34,1.38-.22,2.08-.29.82-.08,1.63-.23,2.44-.34.13-.02.31-.05.4.01.49.36.99.15,1.49.06.95-.17,1.87-.6,2.88-.34.14.04.35-.02.47-.11.48-.38,1.06-.31,1.6-.36.23-.02.48.13.74.21.86-.44,1.82-.5,2.77-.49.66,0,1.3-.02,1.94-.15.22-.05.46,0,.68-.07.79-.22,1.57-.47,2.35-.7.09-.03.17-.08.26-.09,1.03-.1,2.06-.2,3.09-.3.09,0,.2.03.28,0,.85-.36,1.77-.27,2.65-.34,1.8-.13,3.63-.27,5.39.23,1.26.36,2.23,1.15,2.74,2.42.13.33.34.62.44.96.25.81.46,1.64.68,2.46.06.23.07.49.19.68.38.59.44,1.26.61,1.92.23.91.16,1.83.37,2.72.05.22,0,.46.04.68.09.38.05.75.17,1.15.2.63.19,1.34.22,2.01.03.75.02,1.51-.02,2.26-.02.44-.06.9-.19,1.32-.28.94-.32,2.43,0,3.27-.1.14-.2.29-.31.44.35,1.5.28,2.99.11,4.5-.06.49,0,1-.04,1.49-.03.37-.12.73-.18,1.1-.02.13,0,.27,0,.41.01.61.02,1.22.05,1.83.04.87.13,1.74.13,2.61,0,1.51-.08,3.01-.1,4.52,0,.25.09.51.11.77.06,1.1.09,2.2.15,3.3.06,1.03.23,2.07.22,3.1-.01.85-.07,1.71-.14,2.57-.09,1.07-.39,2.08-.65,3.09-.18.7-.26,1.46-.74,2.11-.37.49-.51,1.15-.78,1.72-.72,1.5-1.9,2.4-3.55,2.71-.58.11-1.03.45-1.34.96-.27.44-.63.77-1.27.83-.15-.18-.34-.4-.63-.74-.9.14-1.9.29-2.89.46-1.02.18-2.02.44-3.04.58-.86.12-1.73.13-2.6.16-1.69.06-3.39.07-5.08.16-.87.05-1.72.26-2.59.33-.79.07-1.58.15-2.37.18-1.01.04-2.06-.12-3.07.25-.67.24-1.42.26-2.13.36-1,.14-2,.3-3.01.37-.99.06-1.98.02-2.98.02-.51,0-1.03.01-1.54-.01-.32-.01-.63-.08-.95-.07-.36,0-.72-.02-1.08,0-.63.04-1.27.08-1.9.14-1.15.11-2.3.2-3.43.38-.81.13-1.6.37-2.39.58-.5.13-.99.29-1.48.46-.63.22-.84.09-.86-.56,0-.16.03-.33.04-.49.28-.42.8-.23,1.16-.42,1.12-.6,2.42-.56,3.58-1.01.14-.06.33,0,.49-.02.2-.01.39-.04.59-.06.86-.12,1.71-.23,2.57-.35.06,0,.13.05.2.06.38.02.75.05,1.13.04.52-.02,1.03-.09,1.55-.12,1.9-.13,3.8.25,5.7,0,1.26-.17,2.51-.34,3.77-.53.6-.09,1.2-.26,1.8-.31,1.13-.09,2.26-.09,3.39-.16.77-.05,1.54-.18,2.31-.27.86-.1,1.73-.24,2.59-.28,1.75-.08,3.49-.1,5.24-.16.59-.02,1.17-.09,1.76-.14.16-.02.32-.08.48-.11.3-.06.59-.12.89-.17.28-.04.56-.06.84-.11.76-.15,1.52-.29,2.28-.46.82-.18,1.63-.39,2.48-.6.38-1.07.7-2.07,1.1-3.05.25-.62.27-1.24.26-1.88-.01-.61,0-1.21-.02-1.82-.01-.35-.1-.7-.08-1.05.04-.91.15-1.81.19-2.72.05-1.12-.07-2.27.09-3.37.2-1.4.17-2.81.24-4.21.06-1.15-.06-2.3-.02-3.45.04-1.03-.07-2.07-.13-3.11-.03-.49-.11-.98-.16-1.47-.17-1.52-.61-3-.55-4.55.03-.83-.11-1.67-.13-2.5-.02-.66-.1-1.31-.1-1.97,0-.53.12-1.07.07-1.59-.09-.93-.29-1.85-.11-2.8.04-.23.01-.47,0-.71-.09-1.19-.2-2.38-.26-3.57-.07-1.44-.05-2.88-.17-4.32-.05-.67-.32-1.32-.3-2.01,0-.06-.06-.12-.1-.19-.32-.62-.67-1.23-.96-1.87-.4-.87-.82-1.66-1.81-2.02-.9-.33-1.7-.92-2.72-.9-.32,0-.65-.11-.96-.22-1.12-.39-2.26-.13-3.33.12-.57.14-1.11.27-1.69.28-.28,0-.56.07-.84.11-.28.04-.56.11-.83.12-.62.02-1.24-.02-1.86,0-.63.03-1.26.11-1.89.18-.97.11-1.94.24-2.91.36-1.38.17-2.76.3-4.13.5-1.18.17-2.38-.05-3.55.25-.61.15-1.24.23-1.87.3-.68.07-1.36.1-2.04.14-.81.05-1.61-.06-2.44.11-1.07.22-2.18.18-3.27.32-.55.07-1.08.32-1.63.41-1.11.18-2.24.29-3.35.46-.79.12-1.57.28-2.35.4-.46.07-.93.14-1.4.14-.56,0-1.13-.14-1.69-.09-.4.03-.84.2-1.15.45-.7.56-1.03,1.38-1.3,2.22-.11.33-.23.65-.37,1.07.03.14.09.38.14.62-.19.12-.34.21-.44.27.12.68.27,1.29.32,1.91.04.46-.08.93-.07,1.39,0,.42.1.84.12,1.26.04.86-.13,1.73.13,2.59.05.15-.03.33-.03.49,0,.18-.01.36,0,.54.05.51.19,1.03.14,1.53-.08.81-.24,1.61-.1,2.44.06.33.03.69.01,1.03-.04.78-.08,1.55-.16,2.33-.11,1.11.26,2.24-.13,3.33-.03.08,0,.19,0,.28.04,1.41.17,2.82.08,4.22-.07,1.19-.26,2.37-.25,3.57.02,1.77-.11,3.54-.11,5.31,0,1.31.11,2.61.12,3.92,0,.85-.12,1.7-.12,2.54-.01,1.32.02,2.64.04,3.97,0,.28-.01.56.03.84.1.64.25,1.28.35,1.92.16,1.05.36,2.09,1.1,2.91.36.4.71.8,1.09,1.17.47.45.97.88,1.46,1.31.32.28.66.37,1.11.26.49-.13.8.16.88.7ZM258.41,218.76c1.03.3,2.04.35,2.75,1.06.39.39,1,.53,1.23,1.12.17.43.46.81.67,1.23.16.33.3.67.43,1.01.11.31.18.62.27.94.05.16.14.31.14.47,0,.97.11,1.92.4,2.85.1.31.06.73-.07,1.03-.16.35-.14.66-.11,1.02.12,1.45.22,2.9.29,4.36.03.66.23,1.32,0,1.97-.01.03.04.09.04.13.05.65.12,1.29.15,1.94.03.65-.02,1.3.02,1.94.06.76-.18,1.56.25,2.29-.2.55-.05,1.08,0,1.63.11.98.17,1.97.26,2.95.11,1.19.36,2.36.43,3.55.04.68.17,1.36.18,2.04,0,.7-.09,1.39-.12,2.09,0,.18.06.37.09.55.03.18.07.37.06.55-.05,1.62-.09,3.24-.16,4.85-.03.78-.05,1.56-.17,2.33-.08.5-.08.96,0,1.46.07.43.08.93-.07,1.33-.24.65-.13,1.3-.11,1.93.04,1.05.22,2.1.05,3.15-.15.89-.05,1.84-.67,2.62-.14.17-.12.47-.19.8.3-.04.49-.04.66-.09,1.06-.3,1.34-1.3,1.82-2.1.18-.3.31-.62.46-.93.09-.18.19-.36.26-.55.08-.22.11-.46.19-.68.59-1.6.92-3.25.94-4.94.01-.78-.11-1.55-.13-2.33-.02-1.53-.06-3.05-.22-4.57-.03-.3.13-.64.04-.9-.22-.58-.09-1.16-.11-1.75-.02-.59-.03-1.19-.03-1.77-.03-2.11.1-4.22.15-6.33,0-.32-.17-.68-.09-.97.4-1.48.14-2.99.23-4.48.04-.72-.1-1.42,0-2.16.17-1.27,0-2.55.25-3.85.26-1.34.08-2.78.04-4.17-.01-.45-.06-.91-.27-1.34-.09-.18-.12-.41-.13-.62-.06-.73-.02-1.48-.17-2.18-.19-.84,0-1.82-.75-2.5-.04-.04-.07-.13-.06-.2.06-.91-.47-1.66-.68-2.51-.25-1.03-.73-1.9-1.59-2.59-.75-.6-1.55-.87-2.5-.79-.28.02-.56-.02-.85-.03-.52-.02-1.03-.03-1.55-.04-.11,0-.24.06-.34.02-.54-.19-1.04.03-1.66.14Z"/>
  <path class="cls-1" d="M212.23,209.68c-.91-.34-1.88-.76-2.02-2.04-.02-.23.02-.46.03-.69,0-.58.01-1.16.02-1.75,0-.17-.04-.35.02-.49.49-1.17.16-2.38.22-3.57,0-.18.02-.36,0-.54-.05-.49.21-.95-.05-1.48-.16-.32.04-.81.09-1.31.57-.04.95-.47,1.26-.99.1,0,.2-.01.29,0,.7.13,1.35.08,1.89-.45.02-.02.04-.04.06-.04,1.03,0,1.98-.54,3.05-.4.46.06.98-.08,1.41-.27.95-.42,1.96-.41,2.96-.53.51-.06,1.03-.13,1.55-.13.33,0,.66.12,1.02.19.12-.31.44-.46.85-.48.45-.02.89-.02,1.34-.03.07,0,.15.02.21,0,1.32-.39,2.72-.27,4.04-.66.11-.03.26.06.45.11.28-.33.7-.43,1.2-.45,1.07-.05,2.19-.03,3.19-.35.76-.24,1.46-.17,2.19-.2.16,0,.33-.04.49-.07,1.18-.21,2.35-.48,3.54-.6.55-.06,1.04-.12,1.54-.38.24-.13.6-.03.93-.13.62-.18,1.28-.24,1.92-.32.98-.13,1.99-.13,2.93-.39.93-.26,1.87-.4,2.81-.53.32-.05.63-.23.95-.25,1.04-.08,2.06-.26,3.12-.2.52.03,1.05-.19,1.58-.3,1.04-.21,2.07-.42,3.11-.6.2-.04.42.01.63.04.46.06.91.1,1.38.09,1.03-.03,2.06.14,3.09.23,1.17.11,1.68.92,1.94,1.92.21.79.34,1.61.48,2.41.06.38.09.78.09,1.16,0,.9.17,1.78-.05,2.71-.16.69-.16,1.44-.38,2.14-.35,1.12-1.16,1.73-2.23,2.15-.8.31-1.63.42-2.43.67-.22.07-.43.19-.6.33-.49.4-.68.42-1.25.16-.22-.1-.5-.14-.73-.1-1.04.18-2.07.5-3.12.6-2.03.2-3.98.84-6.01,1.06-1.12.12-2.29.24-3.32.83-.1.06-.22.09-.33.11-.6.11-1.22.14-1.8.33-1.17.37-2.37.47-3.58.56-1.57.12-3.14.3-4.71.41-1.29.09-2.59.09-3.89.15-.3.01-.6.1-.9.15-.21.04-.41.12-.62.12-.6,0-1.22-.18-1.78.22-.05.03-.15.04-.2.02-.62-.27-1.2.01-1.8.1-.67.1-1.35.18-2.03.22-1.18.07-2.36.09-3.54.16-.89.06-1.78.17-2.67.25-.77.07-1.55.12-2.33.17-1.32.1-2.64.15-3.94.31-.49.06-.94.37-1.57.63ZM212.52,207.88c.89-.13,1.73-.24,2.57-.37.55-.08,1.1-.29,1.64-.26,1.08.07,2.11-.33,3.22-.21.81.08,1.67-.09,2.51-.13,1.07-.05,2.14-.11,3.22-.13,1.32-.02,2.63-.17,3.94-.29.79-.07,1.57-.17,2.36-.27.63-.08,1.25-.23,1.88-.24,1.02-.01,2.05.06,3.07.09.21,0,.43,0,.64-.03.67-.08,1.32-.3,2.01-.15.08.02.18-.03.27-.06.79-.24,1.58-.44,2.41-.26.15.03.32,0,.48-.02.62-.11,1.25-.23,1.87-.33.58-.09,1.18-.1,1.74-.24,1.05-.26,2.07-.61,3.12-.89.82-.22,1.64-.42,2.47-.57,1.94-.34,3.89-.65,5.84-.93.74-.11,1.38-.57,2.17-.54.32.01.9-.08.91-.69,0-1.16,0-2.32,0-3.48,0-.09.02-.22-.03-.28-.33-.41-.26-.9-.25-1.36,0-.38-.12-.64-.47-.79-.12-.05-.23-.15-.36-.23.04-.16.08-.28.13-.48-.27.04-.49.08-.72.12-.35.06-.69.14-1.04.19-.71.11-1.45.13-2.13.35-.56.19-1.11.2-1.67.21-.17,0-.34-.02-.49.03-.9.26-1.81.28-2.75.3-1.54.02-3.08.28-4.62.44-.26.03-.52.1-.77.08-1.3-.12-2.64.26-3.93-.33-.07.18-.11.3-.16.44-.27.06-.54.17-.82.17-1.13,0-2.23.18-3.29.57-.22.08-.48.18-.68.12-.4-.12-.73.03-1.09.11-.73.16-1.48.32-2.23.34-1.27.02-2.54,0-3.78.34-.35.09-.7.19-1.06.26-.43.08-.86.14-1.29.2-.46.07-.92.14-1.38.22-.21.03-.42.07-.63.11-.65.11-1.29.22-1.94.31-.51.08-1.05.05-1.53.21-.77.25-1.46.16-2.17-.15-.14-.06-.32-.02-.46-.03-.11.2-.2.36-.26.47-.79.08-1.51.14-2.24.22-.48.06-.9.3-1.35.48-.58.23-1.28.14-1.93.23-.52.08-1.05.19-1.55.35-.15.05-.31.32-.31.5-.03,1.23-.1,2.47.74,3.63-.23.22-.45.45-.69.66-.34.31-.38.56-.24,1,.17.56.68.68,1.08.97ZM219.03,198.76s.04.02.06.03c.27-.1.54-.27.82-.29.95-.06,1.91-.04,2.86-.11.34-.02.66-.22,1-.28.66-.12,1.34-.18,2-.29.51-.08,1.01-.23,1.53-.27.73-.05,1.45-.1,2.14-.4.23-.1.5-.14.75-.17,1.38-.15,2.76-.29,4.14-.44.5-.06,1.01-.12,1.49-.27.4-.13.76-.13,1.17-.06.35.06.86.1,1.07-.09.43-.38.75-.27,1.12-.01.38-.19.74-.38,1.1-.55.14-.07.31-.1.47-.12.72-.09,1.44-.18,2.19-.27.6.03,1.26.18,1.88.07.91-.16,1.84.02,2.75-.27.62-.2,1.31-.21,2-.19,1.17.03,2.35-.14,3.52-.22.37-.03.75-.02,1.12-.08.6-.09,1.19-.27,1.79-.34,1.13-.13,2.24-.38,3.27-.8.86-.35,1.73-.66,2.57-1.07.64-.31,1.26-.64,1.89-.97-.01-.05-.03-.1-.04-.15-.17-.02-.35-.05-.52-.06-.33-.03-.66-.06-.98-.1-1.2-.16-2.4-.03-3.58.15-.95.15-1.88.39-2.83.5-1.17.14-2.35.18-3.52.31-.63.07-1.24.27-1.87.34-.57.07-1.12.15-1.61.46-.04.02-.09.02-.14.02-.76-.03-1.51.25-2.23.24-1.3-.01-2.49.49-3.77.5-.14,0-.27.07-.41.12-.33.1-.62.24-1.01.2-.44-.05-.91.13-1.36.22-.5.1-1,.24-1.5.29-.54.05-1.09-.03-1.63.02-.52.04-1.04.19-1.56.25-.7.09-1.4.13-2.1.2-.51.05-1.03.08-1.54.19-.92.18-1.82.47-2.74.61-1.69.27-3.4.3-5.08.62-.4.08-.83.04-1.24.08-.65.05-1.3.17-1.93.25-.59.07-1.21.14-1.79.26-1.25.27-2.46.63-3.76.71-1.1.07-2.18.52-3.34.81.11.55-.15,1.13.17,1.65.37-.1.69-.19,1.12-.3.16-.29.49-.42.95-.33.26.05.57,0,.83-.07.61-.17,1.2-.37,1.8-.56.11-.03.28-.13.31-.1.29.31.52,0,.76-.08.22.12.43.22.55.29.36-.03.64-.06.91-.09ZM262.22,195.75c-.34.33-.29.69-.22,1.07.05.23.06.46.08.7.02.37.04.74.05,1.11,0,.44.03.88,0,1.32-.03.51-.22,1.03.23,1.48,1.16.02,2.23-.42,3.3-.81.48-.17.77-.54.75-1.09,0-.14.02-.28.04-.42.19-1.21.34-2.42.18-3.65-.05-.36-.17-.72-.18-1.08-.01-.42.07-.84.09-1.26.02-.59-.24-.99-.89-1.17-.35.35-.7.73-1.07,1.08-.34.31-.69.63-1.07.88-.37.24-.8.37-1.19.58-.48.26-.53.76-.11,1.25Z"/>
  <path class="cls-1" d="M303.79,193.05c-.12.23-.2.4-.29.57.12.14.23.28.38.46-.53.21-1.01.4-1.64.64-.7-.23-1.54.02-2.4.19-.4.08-.83-.02-1.25-.05-.19-.01-.37-.08-.56-.07-1.14.03-2.29.11-3.43.1-.43,0-.85-.23-1.28-.3-.26-.04-.53.03-.8.06-.11.01-.22.07-.33.06-.63-.06-1.25-.15-1.88-.21-.21-.02-.43,0-.63.04-.6.12-1.19.27-1.79.39-.78.17-1.45-.38-1.45-1.18,0-.12.05-.25.01-.35-.12-.31-.25-.63-.43-.9-.14-.2-.36-.34-.63-.58.2-.15.32-.33.46-.35,1.56-.15,3.09-.62,4.67-.45.58.06,1.15.18,1.74.23.53.04,1.07.03,1.6.02.44-.01.89-.07,1.33-.11.96-.1,1.91-.2,2.87-.29.24-.02.49.02.74.04.07,0,.14.09.19.08.78-.24,1.61-.05,2.38-.3.63-.21,1.21-.02,1.77.21.16.06.31.47.26.65-.17.54-.09.97.36,1.37ZM287.74,192.69c-.04.73.13.82.74.62.37-.12.8-.07,1.2-.09.21-.01.46.06.61-.03.47-.28.9-.13,1.32.04.3.12.57.12.88.08.65-.08,1.29-.03,1.95.13.65.16,1.35.1,2.03.09.75,0,1.53-.19,2.25-.07,1.1.19,2.06-.32,3.09-.41.22-.02.41-.3.7-.54-.66-.13-1.27.52-1.63-.21-.22.02-.39.06-.55.05-.77-.03-1.55-.11-2.32-.09-1.22.04-2.44.15-3.66.24-.56.04-1.13.16-1.68.14-.94-.04-1.87-.14-2.8-.26-.74-.09-1.44-.08-2.15.31Z"/>
  <path class="cls-1" d="M248.63,228.55c-.12.18-.24.38-.38.6-.34.05-.68.11-1.08.17-.6-.97-1.62-.63-2.51-.72-.11-.01-.24.05-.35.04-.9-.08-1.8-.18-2.7-.26-.18-.02-.39-.05-.56.01-.65.22-1.3.12-1.87.04-.41.12-.76.28-1.12.33-.65.09-1.31.12-1.97.18-.12,0-.25-.02-.35.01-1.01.36-2.06.23-3.09.28-1.45.07-2.9.15-4.34.29-1.62.16-3.23.28-4.86.3-.55,0-1.09.22-1.67.35-.02.07-.07.16-.05.25.08.47.16.9-.16,1.36-.25.37-.22.86-.15,1.34.07.58-.1,1.2-.08,1.79.02.66.14,1.31.18,1.96.02.35,0,.7-.03,1.05-.05.46-.1.91-.08,1.38.02.95.14,1.92-.14,2.86-.02.07-.04.14-.02.21.29,1.09-.07,2.2.05,3.3.03.31-.08.64-.12.96-.01.11,0,.23,0,.34,0,.46,0,.92.03,1.38.02.44.03.9.13,1.33.27,1.24.17,2.47-.04,3.7-.04.24-.03.5.02.75.09.46.2.9.04,1.39-.14.43.03.55.5.56.67.01,1.34.07,2.01.07,1.03,0,2.06-.01,3.09.08.49.04.99-.18,1.55-.16.06-.12.19-.24.18-.36-.06-.71-.16-1.43-.25-2.14-.07-.58-.18-1.16-.21-1.74,0-.18.22-.36.37-.59-.74-.53-.61-1.28-.43-2.05.04-.18.02-.38.02-.57-.03-.63-.08-1.27-.1-1.9-.01-.53-.12-.72-.64-.71-.89.03-1.78-.09-2.68.08-.61.12-1.32.21-1.94-.2.13-.52.52-.66.96-.69.47-.03.95,0,1.42-.01.87-.04,1.74-.09,2.71-.15.01-.33.02-.62.04-.9.02-.3.1-.61.09-.91,0-.57.11-1.13-.11-1.72-.14-.39-.07-.87-.07-1.31,0-.54.01-1.08.04-1.62.01-.26.11-.51.11-.76,0-.34-.05-.68-.08-1h-5.47c.05-.6.21-.82.67-.7.55.15,1.07.04,1.6-.01.9-.09,1.82-.11,2.73-.16.14,0,.28-.03.53-.06.06-.57.25-1.16.13-1.69-.12-.57.06-1.07.08-1.61.02-.51.17-1.02.22-1.53.03-.32-.04-.64-.07-1,.2-.06.37-.11.52-.15.37.24.36,1.7.07,2.31v3.63c2.16-.02,4.26-.03,6.41-.05-.07-1.29-.14-2.47-.18-3.66-.01-.38.14-.76-.1-1.14-.06-.1.1-.34.17-.54h.58c.04.42.08.78.12,1.15.1.98.03,1.96-.09,2.94-.04.34.16.71.26,1.11.24-.01.43-.03.61-.03.35,0,.69.01,1.04.02.09,0,.2.04.28.02.61-.16,1.2-.26,1.86-.19.97.1,1.96.05,2.95,0,.26,0,.51-.2.79-.31-.06-.35-.46-.59,0-.82-.17-.18-.3-.32-.46-.49.11-.14.22-.27.34-.41h-.11c.04-.8.08-1.59.11-2.39.02-.53.04-1.05.04-1.58,0-.35.11-.55.62-.42-.04,2.1.03,4.23.2,6.43.56.16,1.2.23,1.86.13.33-.05.66-.06.98-.09.25-.02.5-.01.74-.07.45-.11.87.03,1.16.53-.29.06-.57.22-.79.16-.51-.15-.98.01-1.46.03-.73.03-1.46.09-2.19.14-.11,0-.23.04-.4.07-.06.56-.13,1.11-.18,1.67-.04.53-.08,1.07-.09,1.6-.01.44,0,.87.03,1.31.02.45.12.91-.26,1.14v1.97c.12.08.23.21.35.22.6.01,1.21.05,1.81-.03.38-.05.63.02.91.29-.2.42-.55.56-.97.57-.43.01-.85,0-1.28,0-.23,0-.46.02-.75.04-.03.23-.05.4-.07.58-.02.33,0,.66-.06.97-.06.29-.24.57-.01.87.02.03.03.11.01.14-.41.6-.13,1.23-.1,1.86.01.34-.09.68-.15,1.14-.28-.11-.45-.18-.68-.27.17-.33.31-.57.46-.86-.42-1.34-.02-2.73-.02-4.15-.34-.23-.69-.36-1.12-.2-.19.07-.42.02-.63.04-1.1.09-2.2.18-3.31.26-.44.03-.87.03-1.31.07-.15.01-.3.09-.5.16.1,1.2.41,2.4.24,3.53-.17,1.17.29,2.29-.01,3.43-.53,0-.7-.11-.69-.54,0-.85.09-1.69.08-2.54,0-.78-.11-1.55-.16-2.32-.02-.28,0-.55-.02-.83-.03-.29-.08-.58-.14-.93-1.18.31-2.28.04-3.38.17-1.1.13-2.22.1-3.41.15.01.95-.19,1.86.17,2.75.07.18.08.45,0,.61-.26.49-.1.96-.04,1.45.05.46.11.93.13,1.39.07,1.34.13,2.68.2,4.09.23-.07.46-.14.75-.22.46.35.99.05,1.51,0,.39-.03.79-.04,1.19-.02.42.02.84.11,1.26.11.51,0,1.02-.02,1.53-.06.13,0,.25-.11.44-.19.09-.84.18-1.7.27-2.56q.41.11.64,1.43c-.06.08-.12.18-.19.27-.05.08-.11.15-.16.22.31.74.48.84,1.2.73.12-.02.24-.02.35-.02,1.17.03,2.33-.12,3.5-.26.24-.03.5.09.78.14.43-.29.54-.53.39-1.01-.03-.09-.15-.18-.13-.24.3-1.12-.1-2.32.41-3.41.03-.05.11-.08.18-.13.39.29.34.77.19,1.03-.31.52-.1,1.01-.06,1.49.05.67.1,1.32-.17,2.01.51.17,1,.06,1.49.09.21.01.43-.01.64.02.31.04.44.23.37.51-.75.05-1.47.09-2.1.13-.52.38-.37.89-.35,1.29.02.63,0,1.24-.17,1.85-.01.04-.02.1,0,.14.31.87-.05,1.73-.02,2.6.02.68-.11,1.36-.18,2.14.06.08.18.25.3.42-.08.47-.32.98-.2,1.38.2.63-.05,1.25.11,1.86.06.24-.03.53-.06.91.25.51.58,1.12.09,1.76.11.27.23.52.31.78.09.28.22.45.55.45.49,0,.99.05,1.53.08.09-.13.21-.3.35-.48.52,0,1.09-.2,1.46.4-.16.3-.31.59-.47.87-.22.38-.6.53-1,.59-.3.05-.62.06-.92.02-.92-.12-1.04-.07-1.49.76-.19-.24-.35-.45-.56-.71-.45,0-.96-.03-1.46,0-1.95.12-3.88.52-5.85.4-.61-.04-1.21-.11-1.81-.24-.55-.11-1.15.21-1.74-.04-.08-.04-.19-.04-.28-.01-.91.26-1.83.22-2.76.17-.43-.03-.87.17-1.31.25-1.06.19-2.13.36-3.2.56-.42.08-.82.22-1.23.32-.27.06-.55.09-.83.11-.36.03-.57-.17-.69-.49-.31-.83-.67-1.65-.93-2.5-.16-.51-.18-1.06-.24-1.6-.07-.63,0-1.3-.2-1.87-.42-1.14-.16-2.29-.23-3.43-.14-2.19.05-4.39,0-6.58-.02-.75.18-1.51.11-2.26-.1-1.09.07-2.16.03-3.24-.01-.37.11-.75.11-1.12,0-.49-.1-.98-.11-1.47-.01-.72-.09-1.44-.04-2.17.08-.98-.08-1.97-.07-2.96,0-.67.13-1.34.19-2,.01-.16.02-.33-.04-.48-.25-.65-.11-1.23.29-1.8-.31-.41-.43-.85-.23-1.38.08-.21,0-.47,0-.7,0-.51.01-1.02,0-1.53-.02-.74-.11-1.48-.09-2.22.04-1.14-.35-2.27-.05-3.43.11-.42.02-.89.02-1.37.35-.31.74-.71,1.18-1.05.23-.18.54-.31.83-.34.56-.06,1.12-.02,1.68-.04.18,0,.37-.07.55-.09.21-.03.48-.15.61-.06.44.3.8.02,1.2-.06.52-.11,1.05-.14,1.58-.19,1.05-.1,2.11-.25,3.16-.25,1.17-.01,2.32-.29,3.52-.11.8.12,1.66-.24,2.49-.36.96-.15,1.92-.28,2.88-.4.13-.02.28.04.42.05.21.03.44.12.63.06.92-.27,1.86-.11,2.79-.1,1.18.01,2.37.14,3.55.24.4.04.77,0,1.05-.29.31-.32.59-.67.91-1.04.72-.13,1.17.24,1.2,1.06.03.87.12,1.73.06,2.61-.05.75.23,1.51.38,2.32-.69.6-.3,1.34-.24,2.04.07.86.24,1.72,0,2.58-.06.23.08.5.08.76,0,1.18-.05,2.35-.05,3.53,0,.42.05.84.06,1.26.01.8.02,1.61,0,2.41,0,.32-.1.64-.17,1.05.16.31.08.71.04,1.14-.15,1.61-.18,3.23-.3,4.84-.13,1.69.08,3.38,0,5.06-.05,1.06-.22,2.11-.33,3.16-.01.12-.07.23-.07.34.07,1.84-.06,3.67-.03,5.5,0,.42.04.84.01,1.25-.06.87-.15,1.73-.23,2.6,0,.05-.04.1-.03.14.17.77-.16,1.48-.31,2.2-.08.38-.22.77-.42,1.1-.12.19-.39.32-.62.41-.3.12-.63.19-1.05.31-.06-.44-.03-.91.16-1.38.11-.26.22-.51.28-.79.73-.54.59-1.4.69-2.14.16-1.19.23-2.39.27-3.59.03-.91-.04-1.82-.06-2.73,0-.12-.04-.24,0-.35.32-1.06.22-2.16.26-3.24.02-.59.14-1.17.2-1.75.03-.35.02-.7.02-1.05-.02-1.05-.01-2.1-.09-3.14-.05-.6-.02-1.15.13-1.73.13-.51.12-1.06.18-1.59.08-.79.19-1.57.25-2.36.04-.44,0-.89.02-1.33.04-.82.21-1.66.11-2.47-.07-.61,0-1.19.04-1.78.03-.59.07-1.17.1-1.76,0-.09,0-.19-.04-.27-.21-.42-.19-.83-.13-1.3.08-.57-.06-1.17-.07-1.76-.02-1.3.01-2.61-.02-3.91-.02-.89-.13-1.79-.19-2.68-.04-.58-.07-1.16-.09-1.74-.01-.36-.1-.61-.58-.5ZM229.16,257.19c.15.5.36.88.34,1.26-.04.89.29,1.73.18,2.63-.06.53.08,1.08.09,1.62.02.98,0,1.96,0,3.01.38.05.65.1.92.12.42.02.84,0,1.26.02.42.02.88.2,1.25.09,1.03-.3,2.06-.23,3.1-.25.17,0,.34-.05.52-.09-.12-.31-.2-.53-.32-.83.26-.02.41-.03.62-.05.03.82.69,1.04,1.28,1.28-.22.55-.61.19-.97.31-.01.2-.06.43-.04.64.11,1.29.25,2.58.37,3.86.02.16.03.34-.02.49-.05.15-.17.29-.27.44-.52-.51-.64-.94-.45-1.74.31-1.29-.18-2.5-.28-3.75-1,.03-1.92.05-2.84.07-.07,0-.14,0-.21,0-1.22.08-2.44.15-3.69.23,0,.44-.03.9,0,1.37.05.79.16,1.59.21,2.38,0,.18-.15.37-.24.55-.07-.01-.15-.02-.22-.03-.32-1.51-.44-3.05-.51-4.63-.29.11-.5.25-.72.25-1.29.02-2.59.14-3.88-.19-.29-.07-.61-.08-.91-.06-.54.02-1.08.09-1.62.12-.25.02-.51,0-.77,0,.03.57.03,1.06.09,1.55.06.49.15.98.26,1.46.17.77.36,1.54.55,2.31.09.34.22.67.31,1,.14.51.36.64.89.5.11-.03.23-.07.34-.1,1.66-.47,3.33-.84,5.07-.83.23,0,.47.09.7.08.96-.02,1.92-.02,2.87-.11.41-.04.78-.09,1.15.13.07.04.19.02.28.01.59-.04,1.17-.13,1.76-.11,2.36.07,4.69-.16,7.04-.47-.02-.07-.04-.13-.04-.19-.05-1.14-.09-2.28-.14-3.42-.03-.58-.08-1.16-.13-1.85-.15-.12-.4-.32-.54-.44-.68.07-1.23.13-1.78.19-.27.03-.54.06-.81.1-.35.06-.51-.11-.63-.53,1.28-.07,2.46-.48,3.77-.1.02-.19.05-.37.04-.54-.03-.42-.15-.84-.12-1.26.05-.88.18-1.76.24-2.64.03-.46,0-.93,0-1.39,0-.45-.1-.95.06-1.34.15-.36.08-.68.07-1-.02-.34-.11-.68-.17-1.03-.31-.07-.6-.14-.9-.21-.16.11-.31.22-.37.26-.42,0-.74-.02-1.06,0-.42.03-.84.1-1.26.15-.63.07-1.26.12-1.95.19,0,.93,0,1.81,0,2.7,0,.5.02,1.01.04,1.51.02.43.05.86.08,1.29-.01.32.03.32.1.82.04.26-.06.56-.17.8-.05.11-.28.15-.55.29,0-.75-.01-1.35,0-1.95.01-.47.22-.99.07-1.38-.35-.89-.16-1.78-.24-2.66-.04-.48-.13-.96-.19-1.39-.67-.25-1.36.22-1.88-.32-.85.3-.96.31-1.93.1-.11-.02-.23-.05-.35-.04-.62.08-1.24.15-1.85.26-.35.06-.8-.01-.89.44ZM236.53,244.79c2.23-.17,4.45-.33,6.71-.5-.01-.26-.05-.54-.04-.81.05-1.39.11-2.77.18-4.16.02-.32.23-.67.14-.94-.14-.45,0-.83.06-1.24.09-.58-.04-.77-.63-.81-.24-.01-.47-.04-.71-.05-.68-.03-1.36-.1-2.03-.07-1.27.06-2.55.17-3.94.27-.04.14-.23.45-.16.66.26.78-.07,1.56.14,2.36.24.92.23,1.9.31,2.86.01.14-.05.29-.08.43-.78-.19-.82-.3-.79-.97.03-.61.13-1.29-.07-1.84-.32-.9-.22-1.75-.1-2.63.03-.23-.08-.48-.13-.73-.77,0-1.46-.07-2.13.01-1.23.15-2.44.18-3.66,0-.26-.04-.53.06-.85.1v2.79c-.7.46-.24,1.1-.18,1.68.06.62.39,1.26.29,1.84-.12.67.08,1.28-.06,2.01.38,0,.65.02.93,0,.49-.03.98-.12,1.48-.13.92-.02,1.83,0,2.75-.01.35,0,.71-.13,1.04-.06.37.07.58-.04.83-.29,0-.39.01-.79,0-1.19-.02-.38.16-.44.52-.35.06.56.12,1.12.19,1.78ZM228.53,256.79c-2.47.14-4.89.27-7.36.41.09.76.17,1.52.26,2.29.04.14-.09.28-.09.43-.01.95-.24,1.9-.06,2.86.07.36,0,.74-.02,1.11-.02.32-.03.65-.07.97-.04.3.14.47.38.51.62.09,1.25.18,1.88.19.75.01,1.51-.06,2.26-.07.35,0,.74-.02,1.04.13.76.37,1.46.17,2.18-.03.05-.34.24-.72.13-.95-.27-.54-.14-1.06-.15-1.59,0-.67,0-1.35,0-2.02,0-.24-.08-.53.03-.69.26-.39.1-.69-.06-1.03-.07-.14-.11-.31-.12-.47-.07-.63-.13-1.26-.21-2.04Z"/>
  <path class="cls-1" d="M258.92,233.49c-.38.36-.69.61-.96.91-.59.65-1.45.72-2.08.11-.2-.19-.35-.44-.52-.67-.16-.23-.31-.46-.48-.7.27-.56.53-1.1.82-1.68.49-.03.94-.17,1.4-.47.73-.48,1.82.16,2.01,1.05.12.55-.17,1-.19,1.45ZM256.61,233.34q.71.31,1.21-1.06c-.4.09-.75.17-1.02.24-.08.34-.13.56-.19.82Z"/>
  <path class="cls-1" d="M256.56,237.49c.55.64,1.21.35,1.96.12-.28.63-.21,1.09-.04,1.61.3.91-.18,1.87-1,2.37-.52.31-1.49.07-1.84-.42-.08-.11-.16-.23-.24-.35-.83-1.24-.39-2.12.59-2.97.14-.12.32-.2.58-.36ZM256.88,240.38c.4-.65.39-.67-.16-1.02-.35.38-.08.66.16,1.02Z"/>
  <path class="cls-1" d="M257.61,255.23c-.05.14-.11.28-.16.43.11.05.19.09.27.14.97.56,1.1,1.41.35,2.25-.13.14-.26.28-.38.42-.44.53-1.14.66-1.7.29-.64-.42-.89-1.06-.93-1.79,0-.13.1-.26.15-.39.07-.18.12-.38.2-.55.08-.16.18-.32.31-.45.13-.13.31-.22.45-.33.59-.49.72-.5,1.43-.02Z"/>
  <path class="cls-1" d="M254.51,270.13c.77-.76,1.21-1.85,2.45-2.23.04,0,.23.02.41,0,.92-.11,1.5.57,1.16,1.42-.19.47-.46.92-.76,1.33-.37.5-1.5.6-2.18.25-.32.1-.68.48-1.08-.03v-.75ZM257.09,269.64q-.68-.13-.54.4c.19-.14.36-.27.54-.4Z"/>
  <path class="cls-1" d="M256.33,261.57c.11-.2.25-.55.72-.67.66-.16,1.31-.03,1.66.54.22.35.19.76.04,1.16-.12.32-.24.64-.41,1.11-.33.17-.81.41-1.28.65-.39-.2-.75-.37-1.09-.57-.45-.27-.69-1.36-.38-1.79.12-.17.4-.23.74-.41ZM257.59,262.67q-.35-.42-.66-.06c.23.02.4.04.66.06Z"/>
  <path class="cls-1" d="M244.45,265.76c.02-.08.02-.28.07-.3.58-.16,1.12-.48,1.78-.29.41.11.87.02,1.32.02.15.24.08.39-.21.42-.42.04-.84.09-1.26.11-.55.02-1.1.03-1.7.04Z"/>
  <path class="cls-1" d="M246.22,202.15c.23-.41.43-.7.57-1.01.35-.79,1.03-1.33,1.54-2,.24-.31.51-.57.64-.98.24-.78,1.17-1.26,1.96-1.09.01.06.06.17.03.19-.61.47-.77,1.31-1.48,1.73-.3.18-.45.59-.68.89-.63.81-1.47,1.48-1.68,2.57-.03.17-.25.3-.47.54-.2-.38-.34-.66-.44-.84Z"/>
  <path class="cls-1" d="M253.02,202.01c-.34.02-.69.14-.97-.32.71-.46.99-1.22,1.41-1.9.41-.67.86-1.35,1.58-1.8.2.03.43.06.77.11-.34.78-.94,1.33-1.32,2.01-.37.69-.96,1.25-1.47,1.89Z"/>
  <path class="cls-1" d="M240.05,204.41c.29-1.05.34-2.17,1.4-2.79.31-.98,1.05-1.54,1.86-1.3-.86.38-1.06,1.22-1.6,1.8-.21.22-.42.43-.63.64-.3.31-.49.66-.48,1.12.01.34-.09.6-.57.53Z"/>
  <path class="cls-1" d="M245.41,197.44c-.43,1.02-1.17,1.79-2.06,2.68,0-.31-.05-.48,0-.57.43-.67.87-1.33,1.32-1.98.17-.24.32-.26.73-.13Z"/>
  <path class="cls-1" d="M217.13,206.52c.09-.84.12-1.63,1.05-2.15,0,.26.08.53,0,.59-.4.3-.42.71-.46,1.13-.03.33-.16.53-.59.42Z"/>
  <path class="cls-1" d="M232.26,200.14c.13.38-.07.63-.52.77.11-.27.22-.55.34-.82.06.02.12.04.18.05Z"/>
  <path class="cls-1" d="M260.1,196.3c-.09-.1-.18-.21-.27-.31q.42-.12.42.16s-.1.1-.15.15Z"/>
  <path class="cls-1" d="M239,197.94v.3s-.08,0-.13,0v-.3s.08,0,.13,0Z"/>
  <path class="cls-1" d="M216.31,201.04c-.04.07-.08.14-.12.21-.03-.02-.07-.04-.1-.06.05-.08.1-.15.15-.23.03.03.05.05.08.08Z"/>
  <path class="cls-1" d="M215.78,201.92s-.06.06-.09.06c-.02,0-.05-.04-.07-.07.02-.01.03-.04.05-.04.04,0,.07.03.11.05Z"/>
  <path class="cls-1" d="M231.61,201.31s-.06.03-.08.05c0-.04-.02-.07-.02-.11,0-.01.03-.03.05-.04.02.04.04.07.05.11Z"/>
  <path class="cls-1" d="M216.23,200.96s.05.05.08.08c-.03-.03-.05-.05-.08-.08Z"/>
  <path class="cls-2" d="M258.09,269.64c-.17.13-.35.26-.54.4q-.14-.53.54-.4Z"/>
  <path class="cls-2" d="M258.59,262.67c-.27-.02-.43-.04-.66-.06q.31-.36.66.06Z"/>
</svg>