<svg width="395" height="123" viewBox="0 0 395 123" fill="none" xmlns="http://www.w3.org/2000/svg">
<g clip-path="url(#clip0_17_4471)">
<path d="M58.9452 41.5802C57.859 41.5489 56.7735 41.6649 55.7187 41.9249L42.578 77.3774H14.3726C14.0639 78.1019 13.9254 78.8871 13.9678 79.6731C13.9283 80.4721 14.0665 81.27 14.3726 82.0097H44.5843C44.5843 82.0097 44.5843 82.0097 44.5843 81.9747C45.2301 81.9558 45.8659 81.8109 46.4557 81.5482L55.0265 57.2999C56.5072 53.2719 57.7394 49.1576 58.7164 44.98H58.9452C59.9077 49.1838 61.1382 53.3221 62.6293 57.37L71.2704 81.5774C72.1663 81.9403 73.1327 82.098 74.098 82.0389C75.0046 82.1041 75.9134 81.9456 76.7438 81.5774L62.1834 41.9249C61.1247 41.6642 60.0353 41.5482 58.9452 41.5802Z" fill="white"/>
<path d="M197.145 41.5803C196.059 41.5489 194.973 41.6649 193.919 41.9249L179.223 81.5658C180.035 81.9353 180.927 82.094 181.816 82.0272C182.782 82.0864 183.748 81.9287 184.644 81.5658L193.226 57.2999C194.708 53.2727 195.938 49.1582 196.91 44.98H197.145C198.108 49.1838 199.338 53.3221 200.829 57.37L209.47 81.5774C210.364 81.9406 211.329 82.0984 212.292 82.0389C213.201 82.1046 214.111 81.9461 214.944 81.5774L200.372 41.9249C199.317 41.6653 198.231 41.5493 197.145 41.5803Z" fill="white"/>
<path d="M86.2355 51.0494C86.2355 47.6613 88.8285 45.424 93.9557 45.424C97.7814 45.4438 101.499 46.6913 104.556 48.9815C104.789 47.0664 104.429 45.1261 103.524 43.4204C100.755 41.5803 97.4168 40.7216 93.6682 40.7216C85.7193 40.7216 80.9382 44.6821 80.9382 51.7387C80.9382 65.8461 101.33 60.9743 101.33 71.6994C101.33 75.8294 98.6253 78.4698 92.2896 78.4698C87.9661 78.4698 83.0677 77.208 79.7825 75.0875C79.5537 76.8049 79.8998 79.2175 80.8209 80.6487C83.5839 82.1967 87.6786 83.2306 92.2309 83.2306C99.9511 83.2306 106.574 80.2514 106.574 71.0101C106.586 56.6106 86.2355 61.0327 86.2355 51.0494Z" fill="white"/>
<path d="M109.062 42.0592C108.752 42.7837 108.614 43.569 108.657 44.355C108.616 45.1541 108.755 45.9522 109.062 46.6916H121.563V112.631C122.404 112.968 123.311 113.106 124.214 113.034C125.097 113.107 125.984 112.968 126.801 112.631V46.6858H139.25C139.557 45.9463 139.695 45.1483 139.655 44.3491C139.698 43.5632 139.559 42.7778 139.25 42.0534L109.062 42.0592Z" fill="white"/>
<path d="M174.231 54.1455C174.231 45.313 167.837 41.4693 157.183 41.4693C153.628 41.4358 150.079 41.7429 146.583 42.3864V81.6242C147.422 81.9598 148.327 82.0977 149.229 82.0273C150.113 82.0994 151.001 81.9613 151.821 81.6242V66.4361C154.158 66.7188 156.508 66.8709 158.861 66.8918C159.729 66.8918 160.996 66.8333 161.454 66.7808L170.676 81.5774C171.48 81.9221 172.436 82.0389 174.131 82.0389C175.398 82.0389 176.437 81.9221 176.894 81.5774L166.605 65.5599C171.222 63.9009 174.231 60.1681 174.231 54.1455ZM158.104 62.3237C156 62.3165 153.899 62.1446 151.821 61.8096V46.5164C153.607 46.1871 155.42 46.0325 157.236 46.0549C164.381 46.0549 168.875 48.4675 168.875 54.4901C168.857 60.1097 164.997 62.347 158.087 62.347L158.104 62.3237Z" fill="white"/>
<path d="M248.358 11.3209V76.6939H248.147C247.247 73.6102 245.931 70.6625 244.234 67.9316L228.559 42.2871C227.494 41.9827 226.388 41.8467 225.28 41.884C224.113 41.8504 222.947 41.9862 221.819 42.2871V81.6417C222.601 81.9749 223.453 82.1132 224.3 82.0448C225.127 82.1155 225.959 81.9768 226.717 81.6417V46.861H226.946C227.752 49.7187 228.936 52.457 230.466 55.0042L246.804 81.7819C247.83 82.0899 248.901 82.2242 249.972 82.1791C251.079 82.227 252.187 82.0928 253.251 81.7819V11.3209C252.471 10.9871 251.621 10.8487 250.775 10.9179C249.948 10.8472 249.117 10.9858 248.358 11.3209Z" fill="white"/>
<path d="M280.441 40.7216C269.782 40.7216 262.355 48.5259 262.355 61.5467C262.355 75.9462 268.92 83.2306 280.441 83.2306C291.447 83.2306 298.533 75.5431 298.533 61.5467C298.533 48.006 291.218 40.7216 280.441 40.7216ZM280.441 78.4698C272.322 78.4698 267.77 72.2719 267.77 61.5292C267.77 51.546 272.146 45.4065 280.441 45.4065C288.162 45.4065 293.119 51.546 293.119 61.5292C293.119 72.1609 288.684 78.4698 280.441 78.4698Z" fill="white"/>
<path d="M301.989 42.0592C301.679 42.7837 301.541 43.569 301.584 44.355C301.543 45.1541 301.682 45.9522 301.989 46.6916H314.49V81.63C315.331 81.9665 316.238 82.1044 317.141 82.0331C318.024 82.1048 318.91 81.9666 319.728 81.63V46.6858H332.177C332.482 45.9458 332.618 45.1478 332.576 44.3491C332.62 43.5636 332.484 42.7783 332.177 42.0534L301.989 42.0592Z" fill="white"/>
<path d="M384.487 43.0173C384.53 42.2313 384.392 41.446 384.083 40.7216H353.894C353.759 40.7216 353.63 40.7216 353.495 40.7216C342.836 40.7216 335.404 48.5259 335.404 61.5467C335.404 75.9462 341.974 83.2306 353.495 83.2306C364.501 83.2306 371.587 75.5431 371.587 61.5467C371.587 54.309 369.475 48.8764 365.885 45.3714H384.071C384.383 44.6271 384.525 43.823 384.487 43.0173ZM353.49 78.4698C345.365 78.4698 340.812 72.2719 340.812 61.5292C340.812 51.546 345.195 45.4065 353.49 45.4065C361.21 45.4065 366.161 51.546 366.161 61.5292C366.161 72.1609 361.726 78.4698 353.49 78.4698Z" fill="white"/>
<path d="M21.2064 111.215C19.8451 111.215 18.6762 110.916 17.6997 110.318C16.729 109.72 15.9803 108.895 15.4536 107.841C14.9327 106.782 14.6723 105.562 14.6723 104.183C14.6723 102.798 14.9387 101.576 15.4713 100.517C16.004 99.4515 16.7557 98.6229 17.7263 98.031C18.7029 97.4332 19.857 97.1344 21.1887 97.1344C22.2954 97.1344 23.2749 97.3385 24.1272 97.7469C24.9854 98.1494 25.669 98.7205 26.178 99.4603C26.687 100.194 26.977 101.052 27.048 102.035H23.9763C23.852 101.378 23.5561 100.83 23.0885 100.393C22.6269 99.9486 22.0084 99.7267 21.233 99.7267C20.5761 99.7267 19.999 99.9042 19.5019 100.259C19.0047 100.609 18.617 101.112 18.3389 101.769C18.0666 102.426 17.9305 103.213 17.9305 104.13C17.9305 105.059 18.0666 105.858 18.3389 106.527C18.6111 107.19 18.9929 107.702 19.4841 108.063C19.9813 108.418 20.5642 108.596 21.233 108.596C21.7065 108.596 22.1297 108.507 22.5026 108.329C22.8814 108.146 23.198 107.882 23.4525 107.539C23.707 107.196 23.8816 106.779 23.9763 106.287H27.048C26.9711 107.252 26.687 108.107 26.1958 108.853C25.7045 109.593 25.0357 110.173 24.1894 110.593C23.343 111.007 22.3487 111.215 21.2064 111.215ZM29.687 110.948V97.3119H32.8031V99.5846H32.9451C33.1937 98.7975 33.6199 98.1908 34.2235 97.7647C34.8332 97.3326 35.5286 97.1166 36.3098 97.1166C36.4874 97.1166 36.6857 97.1255 36.9047 97.1432C37.1296 97.1551 37.316 97.1758 37.464 97.2054V100.162C37.3278 100.114 37.1118 100.073 36.8159 100.037C36.5259 99.996 36.2447 99.9753 35.9725 99.9753C35.3865 99.9753 34.8598 100.103 34.3922 100.357C33.9306 100.606 33.5666 100.952 33.3003 101.396C33.0339 101.84 32.9007 102.352 32.9007 102.932V110.948H29.687ZM45.0745 111.215C43.7073 111.215 42.5265 110.931 41.5322 110.362C40.5438 109.788 39.7833 108.977 39.2506 107.93C38.718 106.876 38.4516 105.636 38.4516 104.21C38.4516 102.807 38.718 101.576 39.2506 100.517C39.7892 99.4515 40.5409 98.6229 41.5056 98.031C42.4703 97.4332 43.6037 97.1344 44.9058 97.1344C45.7462 97.1344 46.5393 97.2705 47.2851 97.5427C48.0367 97.8091 48.6996 98.2234 49.2737 98.7856C49.8537 99.3479 50.3095 100.064 50.6409 100.934C50.9723 101.798 51.1381 102.828 51.1381 104.024V105.009H39.9609V102.843H48.0574C48.0515 102.227 47.9184 101.68 47.6579 101.2C47.3975 100.715 47.0335 100.333 46.566 100.055C46.1043 99.777 45.5657 99.6379 44.9502 99.6379C44.2932 99.6379 43.7162 99.7977 43.219 100.117C42.7219 100.431 42.3342 100.845 42.056 101.36C41.7838 101.869 41.6447 102.429 41.6388 103.038V104.929C41.6388 105.722 41.7838 106.403 42.0738 106.971C42.3638 107.533 42.7692 107.965 43.29 108.267C43.8109 108.563 44.4205 108.711 45.1189 108.711C45.5864 108.711 46.0096 108.646 46.3884 108.516C46.7672 108.38 47.0957 108.181 47.3738 107.921C47.652 107.661 47.8621 107.338 48.0042 106.953L51.0049 107.291C50.8155 108.084 50.4545 108.776 49.9218 109.368C49.395 109.954 48.7203 110.41 47.8976 110.735C47.075 111.055 46.1339 111.215 45.0745 111.215ZM57.7809 111.223C56.9168 111.223 56.1385 111.07 55.446 110.762C54.7595 110.448 54.215 109.987 53.8125 109.377C53.416 108.767 53.2177 108.016 53.2177 107.122C53.2177 106.353 53.3597 105.716 53.6438 105.213C53.9279 104.71 54.3156 104.308 54.8068 104.006C55.2981 103.704 55.8514 103.476 56.467 103.322C57.0884 103.162 57.7306 103.047 58.3935 102.976C59.1925 102.893 59.8406 102.819 60.3377 102.754C60.8349 102.683 61.1959 102.576 61.4208 102.434C61.6516 102.286 61.767 102.059 61.767 101.751V101.698C61.767 101.029 61.5688 100.511 61.1722 100.144C60.7757 99.777 60.2045 99.5935 59.4588 99.5935C58.6716 99.5935 58.0472 99.7652 57.5856 100.108C57.1299 100.452 56.8221 100.857 56.6623 101.325L53.6616 100.899C53.8983 100.07 54.2889 99.3775 54.8335 98.8211C55.378 98.2589 56.0438 97.8387 56.831 97.5605C57.6181 97.2764 58.4882 97.1344 59.4411 97.1344C60.098 97.1344 60.752 97.2113 61.4031 97.3652C62.0541 97.5191 62.6489 97.7736 63.1875 98.1287C63.7261 98.4779 64.1581 98.9543 64.4837 99.558C64.8151 100.162 64.9808 100.916 64.9808 101.822V110.948H61.8913V109.075H61.7848C61.5895 109.454 61.3143 109.809 60.9592 110.14C60.61 110.466 60.169 110.729 59.6364 110.931C59.1096 111.126 58.4911 111.223 57.7809 111.223ZM58.6154 108.862C59.2605 108.862 59.8198 108.735 60.2933 108.48C60.7668 108.22 61.1308 107.877 61.3853 107.45C61.6457 107.024 61.7759 106.56 61.7759 106.057V104.45C61.6753 104.533 61.5037 104.609 61.261 104.681C61.0243 104.752 60.7579 104.814 60.462 104.867C60.1661 104.92 59.8731 104.968 59.5831 105.009C59.2931 105.05 59.0415 105.086 58.8285 105.116C58.3491 105.181 57.92 105.287 57.5412 105.435C57.1624 105.583 56.8635 105.79 56.6445 106.057C56.4255 106.317 56.3161 106.654 56.3161 107.069C56.3161 107.661 56.5321 108.107 56.9641 108.409C57.3962 108.711 57.9466 108.862 58.6154 108.862ZM75.0217 97.3119V99.7977H67.1825V97.3119H75.0217ZM69.1179 94.0449H72.3317V106.847C72.3317 107.279 72.3968 107.61 72.527 107.841C72.6631 108.066 72.8407 108.22 73.0597 108.303C73.2786 108.386 73.5213 108.427 73.7876 108.427C73.9889 108.427 74.1724 108.412 74.3381 108.383C74.5097 108.353 74.6399 108.326 74.7287 108.303L75.2702 110.815C75.0986 110.874 74.853 110.939 74.5334 111.01C74.2197 111.081 73.835 111.123 73.3793 111.135C72.5743 111.158 71.8493 111.037 71.2042 110.771C70.5591 110.498 70.0471 110.078 69.6683 109.51C69.2955 108.942 69.112 108.232 69.1179 107.379V94.0449ZM77.7094 110.948V97.3119H80.9232V110.948H77.7094ZM79.3252 95.3765C78.8162 95.3765 78.3782 95.2079 78.0113 94.8705C77.6443 94.5272 77.4609 94.1159 77.4609 93.6365C77.4609 93.1512 77.6443 92.7398 78.0113 92.4025C78.3782 92.0592 78.8162 91.8875 79.3252 91.8875C79.8401 91.8875 80.2781 92.0592 80.6391 92.4025C81.0061 92.7398 81.1895 93.1512 81.1895 93.6365C81.1895 94.1159 81.0061 94.5272 80.6391 94.8705C80.2781 95.2079 79.8401 95.3765 79.3252 95.3765ZM96.4084 97.3119L91.5522 110.948H88.0011L83.1449 97.3119H86.5717L89.7056 107.442H89.8477L92.9904 97.3119H96.4084ZM104.205 111.215C102.838 111.215 101.657 110.931 100.663 110.362C99.6747 109.788 98.9142 108.977 98.3815 107.93C97.8488 106.876 97.5825 105.636 97.5825 104.21C97.5825 102.807 97.8488 101.576 98.3815 100.517C98.9201 99.4515 99.6717 98.6229 100.636 98.031C101.601 97.4332 102.735 97.1344 104.037 97.1344C104.877 97.1344 105.67 97.2705 106.416 97.5427C107.168 97.8091 107.83 98.2234 108.405 98.7856C108.985 99.3479 109.44 100.064 109.772 100.934C110.103 101.798 110.269 102.828 110.269 104.024V105.009H99.0917V102.843H107.188C107.182 102.227 107.049 101.68 106.789 101.2C106.528 100.715 106.164 100.333 105.697 100.055C105.235 99.777 104.697 99.6379 104.081 99.6379C103.424 99.6379 102.847 99.7977 102.35 100.117C101.853 100.431 101.465 100.845 101.187 101.36C100.915 101.869 100.776 102.429 100.77 103.038V104.929C100.77 105.722 100.915 106.403 101.205 106.971C101.495 107.533 101.9 107.965 102.421 108.267C102.942 108.563 103.551 108.711 104.25 108.711C104.717 108.711 105.14 108.646 105.519 108.516C105.898 108.38 106.227 108.181 106.505 107.921C106.783 107.661 106.993 107.338 107.135 106.953L110.136 107.291C109.946 108.084 109.585 108.776 109.053 109.368C108.526 109.954 107.851 110.41 107.028 110.735C106.206 111.055 105.265 111.215 104.205 111.215ZM144.602 97.3119V99.7977H136.763V97.3119H144.602ZM138.698 94.0449H141.912V106.847C141.912 107.279 141.977 107.61 142.107 107.841C142.243 108.066 142.421 108.22 142.64 108.303C142.859 108.386 143.101 108.427 143.368 108.427C143.569 108.427 143.752 108.412 143.918 108.383C144.09 108.353 144.22 108.326 144.309 108.303L144.85 110.815C144.679 110.874 144.433 110.939 144.113 111.01C143.8 111.081 143.415 111.123 142.959 111.135C142.154 111.158 141.429 111.037 140.784 110.771C140.139 110.498 139.627 110.078 139.248 109.51C138.876 108.942 138.692 108.232 138.698 107.379V94.0449ZM153.18 111.215C151.813 111.215 150.632 110.931 149.638 110.362C148.649 109.788 147.889 108.977 147.356 107.93C146.823 106.876 146.557 105.636 146.557 104.21C146.557 102.807 146.823 101.576 147.356 100.517C147.895 99.4515 148.646 98.6229 149.611 98.031C150.576 97.4332 151.709 97.1344 153.011 97.1344C153.852 97.1344 154.645 97.2705 155.391 97.5427C156.142 97.8091 156.805 98.2234 157.379 98.7856C157.959 99.3479 158.415 100.064 158.746 100.934C159.078 101.798 159.244 102.828 159.244 104.024V105.009H148.066V102.843H156.163C156.157 102.227 156.024 101.68 155.763 101.2C155.503 100.715 155.139 100.333 154.671 100.055C154.21 99.777 153.671 99.6379 153.056 99.6379C152.399 99.6379 151.822 99.7977 151.324 100.117C150.827 100.431 150.44 100.845 150.161 101.36C149.889 101.869 149.75 102.429 149.744 103.038V104.929C149.744 105.722 149.889 106.403 150.179 106.971C150.469 107.533 150.875 107.965 151.396 108.267C151.916 108.563 152.526 108.711 153.224 108.711C153.692 108.711 154.115 108.646 154.494 108.516C154.873 108.38 155.201 108.181 155.479 107.921C155.757 107.661 155.968 107.338 156.11 106.953L159.11 107.291C158.921 108.084 158.56 108.776 158.027 109.368C157.501 109.954 156.826 110.41 156.003 110.735C155.18 111.055 154.239 111.215 153.18 111.215ZM167.911 111.215C166.549 111.215 165.38 110.916 164.404 110.318C163.433 109.72 162.684 108.895 162.158 107.841C161.637 106.782 161.376 105.562 161.376 104.183C161.376 102.798 161.643 101.576 162.175 100.517C162.708 99.4515 163.46 98.6229 164.43 98.031C165.407 97.4332 166.561 97.1344 167.893 97.1344C169 97.1344 169.979 97.3385 170.831 97.7469C171.69 98.1494 172.373 98.7205 172.882 99.4603C173.391 100.194 173.681 101.052 173.752 102.035H170.68C170.556 101.378 170.26 100.83 169.793 100.393C169.331 99.9486 168.712 99.7267 167.937 99.7267C167.28 99.7267 166.703 99.9042 166.206 100.259C165.709 100.609 165.321 101.112 165.043 101.769C164.771 102.426 164.635 103.213 164.635 104.13C164.635 105.059 164.771 105.858 165.043 106.527C165.315 107.19 165.697 107.702 166.188 108.063C166.685 108.418 167.268 108.596 167.937 108.596C168.411 108.596 168.834 108.507 169.207 108.329C169.585 108.146 169.902 107.882 170.157 107.539C170.411 107.196 170.586 106.779 170.68 106.287H173.752C173.675 107.252 173.391 108.107 172.9 108.853C172.409 109.593 171.74 110.173 170.893 110.593C170.047 111.007 169.053 111.215 167.911 111.215ZM179.605 102.958V110.948H176.391V92.7665H179.534V99.629H179.694C180.013 98.8596 180.507 98.253 181.176 97.8091C181.851 97.3593 182.709 97.1344 183.751 97.1344C184.698 97.1344 185.523 97.3326 186.228 97.7292C186.932 98.1257 187.477 98.7057 187.861 99.4692C188.252 100.233 188.447 101.165 188.447 102.266V110.948H185.233V102.763C185.233 101.846 184.997 101.132 184.523 100.623C184.056 100.108 183.399 99.851 182.552 99.851C181.984 99.851 181.475 99.9753 181.025 100.224C180.581 100.467 180.232 100.819 179.978 101.28C179.729 101.742 179.605 102.301 179.605 102.958ZM194.937 102.958V110.948H191.723V97.3119H194.795V99.629H194.955C195.268 98.8655 195.768 98.2589 196.455 97.8091C197.147 97.3593 198.003 97.1344 199.021 97.1344C199.962 97.1344 200.781 97.3356 201.48 97.738C202.184 98.1405 202.729 98.7235 203.113 99.487C203.504 100.25 203.696 101.177 203.69 102.266V110.948H200.477V102.763C200.477 101.851 200.24 101.138 199.766 100.623C199.299 100.108 198.651 99.851 197.822 99.851C197.26 99.851 196.76 99.9753 196.322 100.224C195.89 100.467 195.549 100.819 195.301 101.28C195.058 101.742 194.937 102.301 194.937 102.958ZM212.906 111.215C211.574 111.215 210.42 110.922 209.443 110.336C208.467 109.75 207.709 108.93 207.171 107.877C206.638 106.823 206.372 105.592 206.372 104.183C206.372 102.775 206.638 101.541 207.171 100.481C207.709 99.4219 208.467 98.5992 209.443 98.0133C210.42 97.4273 211.574 97.1344 212.906 97.1344C214.237 97.1344 215.391 97.4273 216.368 98.0133C217.345 98.5992 218.099 99.4219 218.632 100.481C219.17 101.541 219.44 102.775 219.44 104.183C219.44 105.592 219.17 106.823 218.632 107.877C218.099 108.93 217.345 109.75 216.368 110.336C215.391 110.922 214.237 111.215 212.906 111.215ZM212.923 108.64C213.645 108.64 214.249 108.442 214.734 108.045C215.22 107.643 215.581 107.104 215.818 106.429C216.06 105.755 216.182 105.003 216.182 104.174C216.182 103.34 216.06 102.585 215.818 101.911C215.581 101.23 215.22 100.688 214.734 100.286C214.249 99.8835 213.645 99.6823 212.923 99.6823C212.184 99.6823 211.568 99.8835 211.077 100.286C210.591 100.688 210.227 101.23 209.985 101.911C209.748 102.585 209.63 103.34 209.63 104.174C209.63 105.003 209.748 105.755 209.985 106.429C210.227 107.104 210.591 107.643 211.077 108.045C211.568 108.442 212.184 108.64 212.923 108.64ZM225.381 92.7665V110.948H222.167V92.7665H225.381ZM234.634 111.215C233.302 111.215 232.148 110.922 231.172 110.336C230.195 109.75 229.438 108.93 228.899 107.877C228.366 106.823 228.1 105.592 228.1 104.183C228.1 102.775 228.366 101.541 228.899 100.481C229.438 99.4219 230.195 98.5992 231.172 98.0133C232.148 97.4273 233.302 97.1344 234.634 97.1344C235.966 97.1344 237.12 97.4273 238.097 98.0133C239.073 98.5992 239.828 99.4219 240.36 100.481C240.899 101.541 241.168 102.775 241.168 104.183C241.168 105.592 240.899 106.823 240.36 107.877C239.828 108.93 239.073 109.75 238.097 110.336C237.12 110.922 235.966 111.215 234.634 111.215ZM234.652 108.64C235.374 108.64 235.978 108.442 236.463 108.045C236.948 107.643 237.309 107.104 237.546 106.429C237.789 105.755 237.91 105.003 237.91 104.174C237.91 103.34 237.789 102.585 237.546 101.911C237.309 101.23 236.948 100.688 236.463 100.286C235.978 99.8835 235.374 99.6823 234.652 99.6823C233.912 99.6823 233.297 99.8835 232.805 100.286C232.32 100.688 231.956 101.23 231.713 101.911C231.477 102.585 231.358 103.34 231.358 104.174C231.358 105.003 231.477 105.755 231.713 106.429C231.956 107.104 232.32 107.643 232.805 108.045C233.297 108.442 233.912 108.64 234.652 108.64ZM249.826 116.346C248.672 116.346 247.681 116.189 246.852 115.875C246.024 115.568 245.358 115.153 244.855 114.633C244.352 114.112 244.002 113.535 243.807 112.901L246.701 112.2C246.832 112.466 247.021 112.73 247.27 112.99C247.518 113.257 247.853 113.475 248.273 113.647C248.699 113.825 249.234 113.913 249.88 113.913C250.791 113.913 251.546 113.692 252.143 113.248C252.741 112.81 253.04 112.088 253.04 111.081V108.498H252.88C252.715 108.829 252.472 109.17 252.152 109.519C251.839 109.868 251.421 110.161 250.901 110.398C250.386 110.635 249.738 110.753 248.956 110.753C247.909 110.753 246.959 110.507 246.107 110.016C245.26 109.519 244.585 108.779 244.082 107.797C243.585 106.808 243.337 105.571 243.337 104.086C243.337 102.588 243.585 101.325 244.082 100.295C244.585 99.2591 245.263 98.4749 246.115 97.9422C246.968 97.4036 247.918 97.1344 248.965 97.1344C249.764 97.1344 250.421 97.2705 250.936 97.5427C251.457 97.8091 251.871 98.1316 252.179 98.5104C252.487 98.8833 252.721 99.2354 252.88 99.5669H253.058V97.3119H256.227V111.17C256.227 112.336 255.949 113.301 255.393 114.064C254.836 114.828 254.076 115.399 253.111 115.778C252.146 116.157 251.051 116.346 249.826 116.346ZM249.853 108.232C250.534 108.232 251.114 108.066 251.593 107.734C252.072 107.403 252.436 106.927 252.685 106.305C252.934 105.684 253.058 104.938 253.058 104.068C253.058 103.21 252.934 102.458 252.685 101.813C252.442 101.168 252.081 100.668 251.602 100.313C251.128 99.9516 250.545 99.7711 249.853 99.7711C249.137 99.7711 248.539 99.9575 248.06 100.33C247.58 100.703 247.219 101.215 246.977 101.866C246.734 102.511 246.613 103.245 246.613 104.068C246.613 104.902 246.734 105.633 246.977 106.261C247.225 106.882 247.589 107.368 248.069 107.717C248.554 108.06 249.149 108.232 249.853 108.232ZM261.518 116.062C261.08 116.062 260.675 116.026 260.302 115.955C259.935 115.89 259.642 115.813 259.423 115.725L260.169 113.221C260.637 113.357 261.054 113.422 261.421 113.416C261.788 113.41 262.11 113.295 262.388 113.07C262.673 112.851 262.912 112.484 263.108 111.969L263.383 111.232L258.438 97.3119H261.847L264.99 107.61H265.132L268.283 97.3119H271.701L266.241 112.6C265.987 113.322 265.65 113.94 265.229 114.455C264.809 114.976 264.294 115.372 263.685 115.645C263.081 115.923 262.359 116.062 261.518 116.062ZM286.328 110.948V97.3119H289.399V99.629H289.559C289.843 98.8478 290.314 98.2382 290.971 97.8002C291.628 97.3563 292.412 97.1344 293.323 97.1344C294.247 97.1344 295.025 97.3593 295.658 97.8091C296.297 98.253 296.747 98.8596 297.008 99.629H297.15C297.452 98.8714 297.961 98.2678 298.677 97.8179C299.399 97.3622 300.254 97.1344 301.242 97.1344C302.497 97.1344 303.521 97.5309 304.314 98.324C305.107 99.1171 305.504 100.274 305.504 101.795V110.948H302.281V102.292C302.281 101.446 302.056 100.828 301.606 100.437C301.157 100.04 300.606 99.8421 299.955 99.8421C299.18 99.8421 298.573 100.085 298.135 100.57C297.703 101.049 297.487 101.674 297.487 102.443V110.948H294.335V102.159C294.335 101.455 294.122 100.893 293.696 100.472C293.276 100.052 292.726 99.8421 292.045 99.8421C291.583 99.8421 291.163 99.9605 290.784 100.197C290.405 100.428 290.104 100.757 289.879 101.183C289.654 101.603 289.541 102.094 289.541 102.656V110.948H286.328ZM312.688 111.223C311.824 111.223 311.046 111.07 310.353 110.762C309.667 110.448 309.122 109.987 308.72 109.377C308.323 108.767 308.125 108.016 308.125 107.122C308.125 106.353 308.267 105.716 308.551 105.213C308.835 104.71 309.223 104.308 309.714 104.006C310.205 103.704 310.759 103.476 311.374 103.322C311.996 103.162 312.638 103.047 313.301 102.976C314.1 102.893 314.748 102.819 315.245 102.754C315.742 102.683 316.103 102.576 316.328 102.434C316.559 102.286 316.674 102.059 316.674 101.751V101.698C316.674 101.029 316.476 100.511 316.079 100.144C315.683 99.777 315.112 99.5935 314.366 99.5935C313.579 99.5935 312.954 99.7652 312.493 100.108C312.037 100.452 311.729 100.857 311.57 101.325L308.569 100.899C308.806 100.07 309.196 99.3775 309.741 98.8211C310.285 98.2589 310.951 97.8387 311.738 97.5605C312.525 97.2764 313.395 97.1344 314.348 97.1344C315.005 97.1344 315.659 97.2113 316.31 97.3652C316.961 97.5191 317.556 97.7736 318.095 98.1287C318.633 98.4779 319.065 98.9543 319.391 99.558C319.722 100.162 319.888 100.916 319.888 101.822V110.948H316.799V109.075H316.692C316.497 109.454 316.222 109.809 315.866 110.14C315.517 110.466 315.076 110.729 314.544 110.931C314.017 111.126 313.398 111.223 312.688 111.223ZM313.523 108.862C314.168 108.862 314.727 108.735 315.201 108.48C315.674 108.22 316.038 107.877 316.293 107.45C316.553 107.024 316.683 106.56 316.683 106.057V104.45C316.583 104.533 316.411 104.609 316.168 104.681C315.932 104.752 315.665 104.814 315.369 104.867C315.073 104.92 314.78 104.968 314.49 105.009C314.2 105.05 313.949 105.086 313.736 105.116C313.256 105.181 312.827 105.287 312.448 105.435C312.07 105.583 311.771 105.79 311.552 106.057C311.333 106.317 311.223 106.654 311.223 107.069C311.223 107.661 311.439 108.107 311.871 108.409C312.303 108.711 312.854 108.862 313.523 108.862ZM326.049 106.669L326.04 102.79H326.555L331.456 97.3119H335.211L329.183 104.024H328.517L326.049 106.669ZM323.12 110.948V92.7665H326.333V110.948H323.12ZM331.678 110.948L327.239 104.743L329.405 102.479L335.522 110.948H331.678ZM342.828 111.215C341.461 111.215 340.28 110.931 339.286 110.362C338.298 109.788 337.537 108.977 337.005 107.93C336.472 106.876 336.206 105.636 336.206 104.21C336.206 102.807 336.472 101.576 337.005 100.517C337.543 99.4515 338.295 98.6229 339.26 98.031C340.224 97.4332 341.358 97.1344 342.66 97.1344C343.5 97.1344 344.293 97.2705 345.039 97.5427C345.791 97.8091 346.454 98.2234 347.028 98.7856C347.608 99.3479 348.063 100.064 348.395 100.934C348.726 101.798 348.892 102.828 348.892 104.024V105.009H337.715V102.843H345.811C345.805 102.227 345.672 101.68 345.412 101.2C345.151 100.715 344.787 100.333 344.32 100.055C343.858 99.777 343.32 99.6379 342.704 99.6379C342.047 99.6379 341.47 99.7977 340.973 100.117C340.476 100.431 340.088 100.845 339.81 101.36C339.538 101.869 339.399 102.429 339.393 103.038V104.929C339.393 105.722 339.538 106.403 339.828 106.971C340.118 107.533 340.523 107.965 341.044 108.267C341.565 108.563 342.174 108.711 342.873 108.711C343.34 108.711 343.764 108.646 344.142 108.516C344.521 108.38 344.85 108.181 345.128 107.921C345.406 107.661 345.616 107.338 345.758 106.953L348.759 107.291C348.569 108.084 348.208 108.776 347.676 109.368C347.149 109.954 346.474 110.41 345.652 110.735C344.829 111.055 343.888 111.215 342.828 111.215ZM351.611 110.948V97.3119H354.727V99.5846H354.869C355.118 98.7975 355.544 98.1908 356.147 97.7647C356.757 97.3326 357.452 97.1166 358.234 97.1166C358.411 97.1166 358.61 97.1255 358.828 97.1432C359.053 97.1551 359.24 97.1758 359.388 97.2054V100.162C359.252 100.114 359.036 100.073 358.74 100.037C358.45 99.996 358.169 99.9753 357.896 99.9753C357.31 99.9753 356.784 100.103 356.316 100.357C355.854 100.606 355.49 100.952 355.224 101.396C354.958 101.84 354.825 102.352 354.825 102.932V110.948H351.611ZM372.301 100.916L369.371 101.236C369.288 100.94 369.143 100.662 368.936 100.401C368.735 100.141 368.462 99.9309 368.119 99.7711C367.776 99.6113 367.356 99.5314 366.859 99.5314C366.19 99.5314 365.627 99.6764 365.172 99.9664C364.722 100.256 364.5 100.632 364.506 101.094C364.5 101.49 364.645 101.813 364.941 102.062C365.243 102.31 365.74 102.514 366.432 102.674L368.758 103.171C370.049 103.449 371.007 103.89 371.635 104.494C372.268 105.098 372.588 105.888 372.594 106.864C372.588 107.723 372.336 108.48 371.839 109.137C371.348 109.788 370.664 110.297 369.788 110.664C368.912 111.031 367.906 111.215 366.77 111.215C365.101 111.215 363.757 110.865 362.739 110.167C361.721 109.463 361.115 108.483 360.919 107.228L364.053 106.927C364.195 107.542 364.497 108.007 364.959 108.32C365.42 108.634 366.021 108.791 366.761 108.791C367.524 108.791 368.137 108.634 368.599 108.32C369.066 108.007 369.3 107.619 369.3 107.157C369.3 106.767 369.149 106.444 368.847 106.19C368.551 105.935 368.09 105.74 367.462 105.604L365.136 105.116C363.828 104.843 362.861 104.385 362.233 103.739C361.606 103.088 361.295 102.266 361.301 101.271C361.295 100.431 361.523 99.703 361.985 99.0875C362.452 98.466 363.1 97.9866 363.929 97.6493C364.763 97.306 365.725 97.1344 366.814 97.1344C368.412 97.1344 369.67 97.4747 370.587 98.1553C371.51 98.8359 372.082 99.7563 372.301 100.916Z" fill="white"/>
<path d="M47.46 2.6723C49.2427 2.89515 48.7414 3.30031 49.3948 4.60718" stroke="white" stroke-width="3" stroke-linecap="round"/>
</g>
<defs>
<clipPath id="clip0_17_4471">
<rect width="395" height="123" fill="white"/>
</clipPath>
</defs>
</svg>
